<?xml version="1.0" standalone="no"?>
<!DOCTYPE svg PUBLIC "-//W3C//DTD SVG 1.1//EN" "http://www.w3.org/Graphics/SVG/1.1/DTD/svg11.dtd" >
<svg xmlns="http://www.w3.org/2000/svg" xmlns:xlink="http://www.w3.org/1999/xlink" version="1.1">
<metadata>
Created by FontForge 20170731 at Tue May 30 07:27:40 2017
 By Aleksey,,,
Copyright (c) 2017 by TypeType. Designers Ivan Gladkikh, Pavel Emelyanov. Technical designers Olexa Volochay, Nadyr Rakhimov, Dmitriy Greshnev. All rights reserved.
</metadata>
<defs>
<font id="TTNorms-ExtraBoldItalic" horiz-adv-x="1249" >
  <font-face 
    font-family="TT Norms ExtraBold Italic"
    font-weight="800"
    font-style="italic"
    font-stretch="normal"
    units-per-em="2048"
    panose-1="2 0 5 3 5 0 0 9 0 4"
    ascent="1638"
    descent="-410"
    x-height="1004"
    cap-height="1434"
    bbox="-461 -502 2945 2038"
    underline-thickness="0"
    underline-position="0"
    unicode-range="U+000D-FB06"
  />
<missing-glyph horiz-adv-x="0" 
 />
    <glyph glyph-name="ij" unicode="ij" horiz-adv-x="1239" 
d="M719 307l149 697h349l-226 -1055q-43 -195 -146.5 -287t-291.5 -92q-49 0 -101.5 8t-78.5 16l-29 7l59 276q41 -20 82 -20q78 0 117 37.5t60 136.5q-96 -41 -224 -41q-156 0 -245 82t-89 225q0 55 13 113l127 594h348l-125 -584q-10 -61 17.5 -102.5t97.5 -41.5
q33 0 66.5 7.5t51.5 15.5zM276 1278q0 80 63.5 143.5t154.5 63.5q80 0 130 -48t50 -116q0 -82 -64.5 -143.5t-150.5 -61.5q-82 0 -132.5 46t-50.5 116zM899 1278q0 80 63.5 143.5t153.5 63.5q80 0 130 -48t50 -116q0 -82 -64.5 -143.5t-150.5 -61.5q-82 0 -132 46t-50 116z
" />
    <glyph glyph-name="uniFB00" unicode="ff" horiz-adv-x="1474" 
d="M1534 963l-64 -308h-215l-139 -655h-348l139 655h-338l-139 -655h-348l139 655h-133l64 308h133l18 81q82 389 432 390q49 0 101.5 -8.5t78.5 -16.5l27 -6l-63 -297q-37 20 -99 20q-53 0 -88 -27.5t-45 -74.5l-14 -61h338l26 122q84 389 435 390q49 0 100 -8.5t78 -16.5
l26 -6l-61 -297q-37 20 -98 20q-53 0 -89 -27.5t-47 -74.5l-22 -102h215z" />
    <glyph glyph-name="uniFB01" unicode="fi" horiz-adv-x="1351" 
d="M1319 963l-203 -963h-348l139 655h-338l-139 -655h-348l139 655h-133l64 308h133l22 102q84 389 436 389q49 0 100.5 -8t78.5 -16l24 -7l-63 -297q-35 20 -97 21q-115 0 -135 -103l-18 -81h686zM1012 1278q0 80 63.5 143.5t153.5 63.5q80 0 130 -48t50 -116
q0 -82 -64.5 -143.5t-150.5 -61.5q-82 0 -132 46t-50 116z" />
    <glyph glyph-name="uniFB02" unicode="fl" horiz-adv-x="1361" 
d="M991 1004q2 8 2 24q0 55 -43 92t-110 37q-76 0 -128.5 -44t-68.5 -109l-10 -41h213l-64 -308h-213l-139 -655h-348l139 655h-133l64 308h133q51 236 205.5 374t388.5 138q211 0 340 -107.5t129 -277.5q0 -47 -9 -86l-213 -1004h-348z" />
    <glyph glyph-name="uniFB03" unicode="ffi" horiz-adv-x="2048" 
d="M2015 963l-203 -963h-348l140 655h-349l-139 -655h-348l139 655h-338l-139 -655h-348l139 655h-133l64 308h133l18 81q82 389 430 390q49 0 101.5 -8.5t78.5 -16.5l29 -6l-63 -297q-37 18 -99 20q-113 2 -133 -102l-14 -61h338l26 122q84 389 433 390q49 0 101 -8.5
t79 -16.5l26 -6l-61 -297q-37 20 -98 20q-115 0 -136 -102l-22 -102h696zM1708 1278q0 80 63.5 143.5t153.5 63.5q80 0 130 -48t50 -116q0 -82 -64.5 -143.5t-150.5 -61.5q-82 0 -132 46t-50 116z" />
    <glyph glyph-name="uniFB06" unicode="st" horiz-adv-x="1781" 
d="M963 870l-201 -174q-66 51 -131 52q-45 0 -70.5 -17.5t-25.5 -44.5q0 -20 35.5 -40.5t87 -42t101.5 -51.5t86 -83t36 -123q0 -158 -126 -262t-352 -104q-88 0 -165.5 20t-126 49t-83 56.5t-48.5 48.5l-15 20l209 180q6 -10 20.5 -26.5t61.5 -44t102 -27.5q45 0 71 17.5
t26 43.5q0 20 -36 41t-86 42.5t-101.5 51t-87 83t-35.5 122.5q0 154 119.5 257.5t336.5 109.5q33 213 180.5 332t376.5 119q197 0 329 -103.5t132 -273.5q0 -53 -12 -115h205l-66 -307h-205l-61 -287q-20 -102 90 -102q25 0 51.5 5t40.5 11l14 4l-61 -297q-92 -31 -205 -30
q-141 0 -219 67.5t-78 196.5q0 61 15 125l65 307h-133l66 307h131q6 27 6 51q0 59 -42 96t-102 37q-82 0 -134 -51t-52 -131q0 -68 66 -115z" />
    <glyph glyph-name="c_t.liga" unicode="ct" horiz-adv-x="1925" 
d="M66 428q0 242 189 419t445 177h29q35 213 183.5 332t375.5 119q193 0 315.5 -100.5t122.5 -266.5q0 -59 -12 -125h205l-66 -307h-204l-62 -287q-10 -47 12.5 -74.5t73.5 -27.5q27 0 54.5 5t41.5 11l15 4l-62 -297q-92 -31 -204 -30q-141 0 -219 67.5t-78 196.5
q0 61 14 125l65 307h-133l66 307h133q6 33 6 59q0 59 -34.5 92t-94.5 33q-76 0 -130 -55t-54 -143q0 -78 67 -150l-241 -207q-8 12 -22.5 29.5t-67 46.5t-111.5 29q-106 0 -181 -73t-75 -181q0 -74 50 -125t130 -51q59 0 114.5 28.5t82.5 57.5l26 26l164 -221
q-6 -8 -19 -21.5t-56 -47t-91.5 -60t-125 -48t-156.5 -21.5q-199 0 -340 135t-141 313z" />
    <glyph glyph-name="s_p.liga" unicode="sp" horiz-adv-x="2252" 
d="M891 -430l305 1434q4 33 4 45q0 53 -36 85.5t-89 32.5q-74 0 -126 -48t-52 -126q0 -74 66 -123l-199 -172q-63 49 -133 50q-45 0 -70.5 -17.5t-25.5 -44.5q0 -20 35.5 -40.5t87 -42t101.5 -51.5t86 -83t36 -123q0 -158 -126 -262t-352 -104q-88 0 -165.5 20t-126 49
t-83 56.5t-48.5 48.5l-15 20l209 180q6 -10 20.5 -26.5t61.5 -44t102 -27.5q45 0 71 17.5t26 43.5q0 20 -36 41t-86 42.5t-101.5 51t-87 83t-35.5 122.5q0 154 119.5 257.5t336.5 109.5q37 213 182.5 332t368.5 119q186 0 312 -104.5t126 -264.5q0 -59 -10 -102l-24 -111
q4 6 12 14t34.5 31t58.5 40t82 31.5t105 14.5q158 0 272 -123t114 -299q0 -268 -170 -445t-388 -177q-55 0 -105 16t-81 38.5t-53.5 45t-32.5 39.5l-10 16l-119 -565h-348zM1667 717q-96 0 -165.5 -76t-69.5 -176q0 -74 50 -126t117 -52q90 0 161 73.5t71 182.5
q0 72 -49 123t-115 51z" />
    <glyph glyph-name="f_t.liga" unicode="ft" horiz-adv-x="1546" 
d="M1051 1096l41 194h307l-70 -327h205l-64 -308h-204l-58 -266q-23 -102 86 -102q25 0 52.5 5t42.5 11l16 4l-62 -297q-100 -31 -213 -30q-170 0 -242.5 99t-31.5 290l62 286h-349l-139 -655h-348l139 655h-133l64 308h133l22 102q84 389 434 389q49 0 100.5 -8t78.5 -16
l26 -7l-63 -297q-35 20 -97 21q-115 0 -135 -103l-18 -81h266q55 0 97.5 36t54.5 97z" />
    <glyph glyph-name=".notdef" horiz-adv-x="0" 
 />
    <glyph glyph-name="glyph1" horiz-adv-x="0" 
 />
    <glyph glyph-name="glyph1" horiz-adv-x="0" 
 />
    <glyph glyph-name="uni000D" unicode="&#xd;" horiz-adv-x="0" 
 />
    <glyph glyph-name="space" unicode=" " horiz-adv-x="430" 
 />
    <glyph glyph-name="exclam" unicode="!" horiz-adv-x="716" 
d="M504 451h-287l148 983h409zM111 141q0 80 63.5 143.5t153.5 63.5q80 0 130 -48t50 -116q0 -82 -64.5 -143t-150.5 -61q-82 0 -132 45.5t-50 115.5z" />
    <glyph glyph-name="quotedbl" unicode="&#x22;" horiz-adv-x="942" 
d="M621 1434l-109 -512h-307l108 512h308zM1051 1434l-109 -512h-307l108 512h308z" />
    <glyph glyph-name="numbersign" unicode="#" horiz-adv-x="1556" 
d="M12 348l103 246h245l105 246h-236l103 245h235l146 349h307l-146 -349h236l145 349h308l-146 -349h246l-102 -245h-246l-105 -246h236l-103 -246h-235l-145 -348h-308l146 348h-236l-145 -348h-307l145 348h-246zM772 840l-104 -246h235l105 246h-236z" />
    <glyph glyph-name="dollar" unicode="$" 
d="M571 287q78 0 133.5 34.5t55.5 108.5q0 43 -57.5 82t-138.5 76t-161.5 84t-138 128t-57.5 185q0 180 132 316.5t361 164.5l37 172h328l-41 -192q88 -25 160.5 -69t101.5 -74l27 -33l-262 -226q-10 12 -31 29t-82 45.5t-125 28.5q-74 0 -121 -34t-47 -83q0 -43 56.5 -81
t138.5 -72.5t162.5 -80.5t137 -126t56.5 -185q0 -203 -127 -343t-360 -173l-37 -174h-328l39 187q-115 27 -212 82t-138 98l-41 43l264 227q6 -6 15.5 -15t42 -35t67.5 -45.5t87 -34.5t103 -15z" />
    <glyph glyph-name="percent" unicode="%" horiz-adv-x="1761" 
d="M573 1239q-55 0 -96 -41t-41 -98q0 -45 32 -76t85 -31t95 40t42 97q0 47 -32 78t-85 31zM940 1145q0 -152 -121 -264.5t-291 -112.5q-147 0 -244.5 93t-97.5 224q0 152 120 265.5t292 113.5q150 0 246 -94t96 -225zM174 0l1194 1434h338l-1194 -1434h-338zM1327 440
q-55 0 -96 -41t-41 -98q0 -45 31.5 -75.5t85 -30.5t95.5 39.5t42 97.5q0 47 -32 77.5t-85 30.5zM1694 346q0 -152 -121 -264.5t-291 -112.5q-147 0 -244.5 93.5t-97.5 224.5q0 152 120 265.5t292 113.5q150 0 246 -94.5t96 -225.5z" />
    <glyph glyph-name="ampersand" unicode="&#x26;" horiz-adv-x="1382" 
d="M1157 322q37 -45 98 -46l54 11l-60 -287q-70 -41 -162 -41q-74 0 -133 36t-82 71l-24 36q-16 -16 -46 -39.5t-131.5 -63.5t-209.5 -40q-182 0 -298 101.5t-116 240.5q0 88 38 169t93 134t109.5 93t93.5 59l37 18q-12 14 -30.5 40t-48.5 100.5t-30 140.5q0 170 131 295
t330 125q170 0 276.5 -94.5t106.5 -221.5q0 -66 -33 -132t-79 -114.5t-92 -88.5t-79 -58l-32 -21l116 -184q70 74 90 166h328q-23 -104 -76 -205.5t-96 -150.5zM537 246q45 0 90 18.5t67 38.5l23 19l-150 231q-6 0 -42 -23.5t-74.5 -75t-38.5 -104.5q0 -45 34 -74.5
t91 -29.5zM686 920q43 33 65.5 51t49 58t26.5 79q0 35 -26.5 57.5t-65.5 22.5q-51 0 -85 -34t-34 -87q0 -33 17.5 -69.5t34.5 -57.5z" />
    <glyph glyph-name="quotesingle" unicode="'" horiz-adv-x="512" 
d="M621 1434l-109 -512h-307l108 512h308z" />
    <glyph glyph-name="parenleft" unicode="(" horiz-adv-x="798" 
d="M497.5 512q-28.5 -131 -28.5 -268q0 -147 31.5 -287.5t64.5 -206.5l33 -67l-301 -164q-8 12 -20.5 35.5t-45 99.5t-58.5 155.5t-46.5 199.5t-20.5 239q0 211 63.5 417.5t153 353t180.5 260.5t152.5 171t63.5 55l231 -164q-14 -14 -38.5 -40.5t-90 -114.5t-122 -179.5
t-115 -227.5t-87 -267z" />
    <glyph glyph-name="parenright" unicode=")" horiz-adv-x="798" 
d="M333.5 512q28.5 131 28.5 266q0 147 -31.5 288.5t-64.5 207.5l-33 67l302 164q8 -12 20 -35.5t45 -99.5t57.5 -156.5t45 -201.5t20.5 -240q0 -154 -34 -306.5t-87 -273t-118.5 -230t-131 -189.5t-119 -137.5t-87 -88t-33.5 -28.5l-230 164q14 14 39 40.5t90.5 114.5
t120.5 179.5t113.5 227.5t87 267z" />
    <glyph glyph-name="asterisk" unicode="*" horiz-adv-x="839" 
d="M764 1434l-64 -205l209 71l25 -225l-207 -57l102 -148l-215 -153l-88 184l-157 -184l-174 153l163 158l-182 47l119 225l180 -71l23 205h266z" />
    <glyph glyph-name="plus" unicode="+" horiz-adv-x="1085" 
d="M831 1075l-67 -317h317l-67 -318h-318l-67 -317h-307l67 317h-317l67 318h318l67 317h307z" />
    <glyph glyph-name="comma" unicode="," horiz-adv-x="583" 
d="M201 352l248 -168l-383 -450l-201 125z" />
    <glyph glyph-name="hyphen" unicode="-" horiz-adv-x="890" 
d="M887 758l-66 -307h-747l65 307h748z" />
    <glyph glyph-name="period" unicode="." horiz-adv-x="552" 
d="M20 141q0 80 63.5 143.5t154.5 63.5q80 0 130 -48t50 -116q0 -82 -64.5 -143t-150.5 -61q-82 0 -132.5 45.5t-50.5 115.5z" />
    <glyph glyph-name="slash" unicode="/" horiz-adv-x="1075" 
d="M1229 1454l-1004 -1884h-346l1004 1884h346z" />
    <glyph glyph-name="zero" unicode="0" horiz-adv-x="1454" 
d="M856 1128q-82 0 -149.5 -57t-105.5 -145t-58.5 -178.5t-20.5 -165.5q0 -133 55.5 -204t139.5 -71q113 0 223.5 146.5t110.5 404.5q0 131 -56.5 200.5t-138.5 69.5zM1444 856q0 -152 -51.5 -308.5t-142.5 -288.5t-238.5 -216t-321.5 -84q-240 0 -400.5 174t-160.5 449
q0 197 65.5 367.5t172 283.5t240.5 177.5t274 64.5q240 0 401.5 -173.5t161.5 -445.5z" />
    <glyph glyph-name="one" unicode="1" horiz-adv-x="849" 
d="M559 1434h338l-303 -1434h-389l213 1004h-236l49 235q59 8 114.5 31.5t92.5 50.5t65.5 52.5t41.5 43.5z" />
    <glyph glyph-name="two" unicode="2" horiz-adv-x="1239" 
d="M1034 0h-1065q31 170 109 306t172 214t198.5 144.5t189.5 110.5t140.5 101.5t55.5 124.5q0 47 -33 76t-96 29q-59 0 -112.5 -34t-76.5 -66l-24 -33l-295 153q6 14 20 38t66.5 83.5t114 105.5t167 84t221.5 38q199 0 335 -120t136 -282q0 -127 -49 -225t-130 -161.5
t-164 -113t-170 -102.5t-128 -102h496z" />
    <glyph glyph-name="three" unicode="3" horiz-adv-x="1208" 
d="M958 737q8 -4 19.5 -10t43.5 -31.5t55.5 -56.5t43 -83t19.5 -110q0 -199 -173 -343t-454 -144q-106 0 -200.5 24.5t-154 59.5t-104.5 68.5t-65 58.5l-19 25l264 227q12 -14 36 -37t97.5 -60.5t151.5 -37.5q98 0 154.5 48t56.5 120q0 49 -41 83.5t-117 34.5h-153l65 308
h148q76 0 128 45t52 106q0 47 -38 81t-97 34q-63 0 -127 -28.5t-94 -57.5l-31 -27l-178 226q6 8 19.5 22t62.5 52t104 65.5t146.5 51.5t191.5 24q203 0 335 -116t132 -261q0 -45 -10 -86t-25.5 -73t-37 -59.5t-45 -48t-47 -37t-44 -26.5t-37 -17.5t-24.5 -9.5z" />
    <glyph glyph-name="four" unicode="4" horiz-adv-x="1280" 
d="M1112 563h154l-70 -327h-154l-49 -236h-389l49 236h-645l76 358l752 840h460zM723 563l90 420l-367 -420h277z" />
    <glyph glyph-name="five" unicode="5" horiz-adv-x="1280" 
d="M827 942q168 0 279 -118.5t111 -284.5q0 -254 -178.5 -417t-458.5 -163q-106 0 -201.5 24.5t-156 59.5t-106.5 68.5t-67 58.5l-18 25l268 231q12 -12 34.5 -32.5t93.5 -53.5t144 -33q111 0 170.5 56.5t59.5 152.5q0 61 -43 100t-119 39q-55 0 -105.5 -20.5t-72.5 -40.5
l-23 -21l-258 41l226 820h921l-70 -328h-577l-57 -205q71 41 204 41z" />
    <glyph glyph-name="six" unicode="6" horiz-adv-x="1300" 
d="M1225 1434l-391 -451q184 -18 297.5 -149.5t113.5 -301.5q0 -240 -185.5 -406.5t-465.5 -166.5q-219 0 -367.5 130t-148.5 306q0 111 50 221.5t101 165.5l50 58l516 594h430zM629 287q88 0 154.5 64.5t66.5 154.5q0 61 -44 105t-110 44q-88 0 -155.5 -63.5t-67.5 -151.5
q0 -63 44 -108t112 -45z" />
    <glyph glyph-name="seven" unicode="7" horiz-adv-x="1136" 
d="M272 1434h1014l-65 -308l-770 -1126h-420l743 1085h-575z" />
    <glyph glyph-name="eight" unicode="8" horiz-adv-x="1290" 
d="M618 287q92 0 154 52t62 124q0 53 -45.5 92t-116.5 39q-92 0 -153.5 -52.5t-61.5 -123.5q0 -55 43.5 -93t117.5 -38zM750 901q74 0 125 41t51 94q0 43 -37 77t-96 34q-76 0 -127.5 -42t-51.5 -95q0 -43 38.5 -76t97.5 -33zM575 -41q-221 0 -364 123t-143 285
q0 63 17 119.5t45 98.5t61.5 76.5t65.5 57t60.5 39t42.5 24.5l17 6q-12 10 -32.5 28t-53.5 80t-33 132q0 176 163 311.5t413 135.5q197 0 329.5 -117t132.5 -260q-2 -221 -243 -353q6 -4 17 -11t39 -32.5t48.5 -55.5t37.5 -78t17 -101q0 -213 -178 -360.5t-459 -147.5z" />
    <glyph glyph-name="nine" unicode="9" horiz-adv-x="1300" 
d="M195 0l391 451q-184 18 -298 149t-114 301q0 240 185.5 407t465.5 167q219 0 367.5 -130.5t148.5 -306.5q0 -109 -50 -220t-99 -167l-51 -57l-516 -594h-430zM791 1147q-88 0 -155 -64.5t-67 -154.5q0 -61 44 -105.5t110 -44.5q88 0 155.5 63.5t67.5 151.5
q0 63 -43.5 108.5t-111.5 45.5z" />
    <glyph glyph-name="colon" unicode=":" horiz-adv-x="552" 
d="M162 817q0 80 63.5 143.5t153.5 63.5q80 0 130 -48t50 -116q0 -82 -64.5 -143.5t-150.5 -61.5q-82 0 -132 46t-50 116zM20 141q0 80 63.5 143.5t154.5 63.5q80 0 130 -48t50 -116q0 -82 -64.5 -143t-150.5 -61q-82 0 -132.5 45.5t-50.5 115.5z" />
    <glyph glyph-name="semicolon" unicode=";" horiz-adv-x="604" 
d="M215 817q0 80 63.5 143.5t153.5 63.5q80 0 130 -48t50 -116q0 -82 -64.5 -143.5t-150.5 -61.5q-82 0 -132 46t-50 116zM201 352l248 -168l-383 -450l-201 125z" />
    <glyph glyph-name="less" unicode="&#x3c;" horiz-adv-x="1064" 
d="M59 379l52 246l1005 389l-67 -328l-533 -194l449 -195l-68 -307z" />
    <glyph glyph-name="equal" unicode="=" horiz-adv-x="1013" 
d="M963 532l-62 -286h-870l61 286h871zM1053 963l-60 -287h-870l59 287h871z" />
    <glyph glyph-name="greater" unicode="&#x3e;" horiz-adv-x="1064" 
d="M1032 625l-51 -246l-1006 -389l68 327l535 195l-451 195l68 307z" />
    <glyph glyph-name="question" unicode="?" horiz-adv-x="1157" 
d="M387 500q0 104 65.5 183t143.5 119t143.5 92t65.5 110q0 39 -33 65.5t-86 26.5q-68 0 -122 -31t-72 -61l-21 -31l-295 153q6 14 18.5 38t61.5 83.5t109.5 105.5t165 84t225.5 38q215 0 350 -125t135 -279q0 -106 -47 -192t-116.5 -140.5t-139.5 -99.5t-124 -92t-64 -96
h-359q-4 22 -4 49zM311 141q0 80 63.5 143.5t153.5 63.5q80 0 130.5 -48t50.5 -116q0 -82 -64.5 -143t-150.5 -61q-82 0 -132.5 45.5t-50.5 115.5z" />
    <glyph glyph-name="at" unicode="@" horiz-adv-x="1843" 
d="M940 645q-63 0 -112.5 -51t-49.5 -123q0 -47 32 -80t79 -33q61 0 111.5 50.5t50.5 119.5q0 49 -32 83t-79 34zM940 881q49 0 92 -20.5t62 -41.5l18 -20l14 71h236l-86 -409q-10 -39 12.5 -76t65.5 -37q68 0 123 76t55 238q0 186 -141.5 310t-358.5 124
q-174 0 -333.5 -91.5t-258 -248t-98.5 -334.5q0 -203 133 -348.5t338 -145.5q100 0 195.5 32t140.5 65l45 30l119 -176q-8 -6 -24.5 -18.5t-70 -43t-110.5 -53t-146.5 -42t-177.5 -19.5q-291 0 -487.5 204t-196.5 482q0 248 136.5 464t360.5 342t472 126q305 0 509 -181.5
t204 -441.5q0 -264 -135.5 -419.5t-319.5 -155.5q-47 0 -87 13.5t-63.5 30.5t-40 35.5t-22.5 30.5l-6 15q-10 -14 -31.5 -34.5t-95.5 -55.5t-156 -35q-125 0 -206.5 85t-81.5 214q0 199 124.5 329t278.5 130z" />
    <glyph glyph-name="A" unicode="A" horiz-adv-x="1515" 
d="M944 614l-45 420l-221 -420h266zM981 307h-471l-166 -307h-436l846 1434h430l239 -1434h-403z" />
    <glyph glyph-name="B" unicode="B" horiz-adv-x="1454" 
d="M805 0h-733l303 1434h624q195 0 317 -104.5t122 -239.5q0 -74 -27 -136.5t-63.5 -100.5t-73.5 -65.5t-64 -37.5l-26 -11q8 -4 20.5 -11t46 -33.5t59 -57.5t46 -82t20.5 -106q0 -186 -156.5 -317.5t-414.5 -131.5zM524 307h275q78 0 129 46t51 120q0 51 -38 86t-97 35
h-258zM905 1126h-207l-51 -245h223q68 0 111 38.5t43 102.5q0 43 -33 73.5t-86 30.5z" />
    <glyph glyph-name="C" unicode="C" horiz-adv-x="1536" 
d="M1014 1126q-201 0 -347.5 -143t-146.5 -348q0 -141 94.5 -234.5t243.5 -93.5q70 0 137.5 20.5t115.5 49.5t86 58.5t56 49.5l21 21l180 -260q-10 -12 -27.5 -31.5t-80 -69t-132 -87.5t-181 -68.5t-228.5 -30.5q-291 0 -485.5 196.5t-194.5 458.5q0 352 271.5 606.5
t650.5 254.5q115 0 218 -30t169.5 -72t117 -84t70.5 -72l23 -29l-277 -234q-4 6 -13 18.5t-41 42t-70 52.5t-100 41t-130 18z" />
    <glyph glyph-name="D" unicode="D" horiz-adv-x="1556" 
d="M375 1434h522q281 0 467 -184.5t186 -436.5q0 -346 -257 -579.5t-625 -233.5h-596zM846 1085h-156l-155 -737h159q172 0 315.5 128t143.5 315q0 127 -85 210.5t-222 83.5z" />
    <glyph glyph-name="E" unicode="E" horiz-adv-x="1372" 
d="M530 328h738l-70 -328h-1126l303 1434h1106l-70 -328h-717l-47 -225h553l-65 -308h-553z" />
    <glyph glyph-name="F" unicode="F" horiz-adv-x="1331" 
d="M375 1434h1106l-74 -349h-717l-49 -235h553l-74 -348h-553l-106 -502h-389z" />
    <glyph glyph-name="G" unicode="G" horiz-adv-x="1658" 
d="M815 -41q-291 0 -490.5 196.5t-199.5 458.5q0 352 274.5 606.5t653.5 254.5q115 0 218 -30t167.5 -72t114 -84t69.5 -72l23 -29l-277 -234q-4 6 -13 18.5t-42 42t-70 52.5t-98.5 41t-126.5 18q-201 0 -349.5 -144t-148.5 -353q0 -139 94.5 -230.5t243.5 -91.5
q74 0 138.5 22.5t93.5 47.5l28 22l33 154h-225l51 246h614l-116 -553q-10 -12 -30 -31.5t-84.5 -69t-136 -87.5t-183 -68.5t-226.5 -30.5z" />
    <glyph glyph-name="H" unicode="H" horiz-adv-x="1628" 
d="M1675 1434l-303 -1434h-389l117 553h-522l-117 -553h-389l303 1434h389l-113 -533h523l112 533h389z" />
    <glyph glyph-name="I" unicode="I" horiz-adv-x="716" 
d="M72 0l303 1434h389l-303 -1434h-389z" />
    <glyph glyph-name="J" unicode="J" horiz-adv-x="1075" 
d="M743 1434h390l-199 -942q-51 -242 -209 -387.5t-385 -145.5q-78 0 -149.5 19.5t-119.5 46t-85 53t-54 45.5l-16 20l287 236q4 -8 14 -20.5t47 -32t82 -19.5q70 0 125 50.5t74 134.5z" />
    <glyph glyph-name="K" unicode="K" horiz-adv-x="1495" 
d="M745 549l-208 -191l-76 -358h-389l303 1434h389l-113 -531l553 531h482l-637 -607l374 -827h-430z" />
    <glyph glyph-name="L" unicode="L" horiz-adv-x="1228" 
d="M1096 0h-1024l303 1434h389l-229 -1086h634z" />
    <glyph glyph-name="M" unicode="M" horiz-adv-x="1904" 
d="M934 348l-293 502l-180 -850h-389l303 1434h323l322 -564l559 564h373l-303 -1434h-389l180 850z" />
    <glyph glyph-name="N" unicode="N" horiz-adv-x="1669" 
d="M1327 1434h389l-303 -1434h-330l-454 799l-168 -799h-389l303 1434h332l450 -799z" />
    <glyph glyph-name="O" unicode="O" horiz-adv-x="1761" 
d="M985 1126q-182 0 -318.5 -137t-136.5 -323q0 -154 102.5 -256.5t262.5 -102.5q180 0 317.5 133t137.5 328q0 152 -102.5 255t-262.5 103zM1755 793q0 -215 -121 -407.5t-322.5 -309.5t-426.5 -117q-326 0 -543 200.5t-217 481.5q0 332 262 583t608 251q326 0 543 -200.5
t217 -481.5z" />
    <glyph glyph-name="P" unicode="P" horiz-adv-x="1423" 
d="M375 1434h616q201 0 334 -128t133 -302q0 -252 -176 -413t-442 -161h-289l-90 -430h-389zM924 1085h-234l-65 -307h249q78 0 132.5 53.5t54.5 124.5q0 51 -39 90t-98 39z" />
    <glyph glyph-name="Q" unicode="Q" horiz-adv-x="1761" 
d="M1755 793q0 -233 -143.5 -439.5t-368.5 -312.5q86 -92 270 -92h52l-66 -307h-72q-123 0 -226 32.5t-161.5 73.5t-103.5 94.5t-57.5 78t-18.5 40.5q-317 8 -526 206t-209 474q0 332 262 583t608 251q326 0 543 -200.5t217 -481.5zM985 1126q-182 0 -318.5 -137
t-136.5 -323q0 -154 102.5 -256.5t262.5 -102.5q180 0 317.5 133t137.5 328q0 152 -102.5 255t-262.5 103z" />
    <glyph glyph-name="R" unicode="R" horiz-adv-x="1474" 
d="M72 0l303 1434h643q197 0 330 -127t133 -299q0 -109 -36 -199t-87 -140.5t-101.5 -86t-85.5 -47.5l-36 -13l186 -522h-401l-150 451h-215l-94 -451h-389zM897 799q74 0 130 45t56 119q0 51 -36.5 86.5t-96.5 35.5h-260l-61 -286h268z" />
    <glyph glyph-name="S" unicode="S" 
d="M571 287q78 0 133.5 34.5t55.5 108.5q0 43 -57.5 82t-138.5 76t-161.5 84t-138 128t-57.5 185q0 203 162.5 346.5t441.5 143.5q98 0 185 -21.5t142.5 -51.5t97.5 -59.5t58 -52.5l19 -20l-262 -226q-10 12 -31 29t-82 45.5t-125 28.5q-74 0 -121 -34t-47 -83
q0 -43 56.5 -81t138.5 -72.5t162.5 -80.5t137 -126t56.5 -185q0 -231 -165 -378.5t-458 -147.5q-106 0 -204.5 25.5t-164 61.5t-115.5 72t-73 62l-24 25l264 227q6 -6 15.5 -15t42 -35t67.5 -45.5t87 -34.5t103 -15z" />
    <glyph glyph-name="T" unicode="T" horiz-adv-x="1269" 
d="M252 1434h1188l-74 -349h-399l-230 -1085h-389l230 1085h-400z" />
    <glyph glyph-name="U" unicode="U" horiz-adv-x="1617" 
d="M797 307q106 0 195 82t116 205l178 840h389l-178 -840q-59 -276 -256 -455.5t-473 -179.5q-289 0 -463 185.5t-119 449.5l179 840h389l-179 -840q-25 -121 43 -204t179 -83z" />
    <glyph glyph-name="V" unicode="V" horiz-adv-x="1474" 
d="M420 0l-209 1434h399l103 -983l512 983h440l-815 -1434h-430z" />
    <glyph glyph-name="W" unicode="W" horiz-adv-x="2191" 
d="M1169 829l-438 -829h-362l-158 1434h399l66 -869l442 869h330l72 -869l430 869h432l-758 -1434h-367z" />
    <glyph glyph-name="X" unicode="X" horiz-adv-x="1443" 
d="M745 481l-387 -481h-450l629 748l-285 686h410l157 -420l334 420h451l-576 -686l313 -748h-409z" />
    <glyph glyph-name="Y" unicode="Y" horiz-adv-x="1402" 
d="M1174 1434h440l-707 -922l-108 -512h-389l108 512l-317 922h399l172 -553z" />
    <glyph glyph-name="Z" unicode="Z" horiz-adv-x="1351" 
d="M852 1085h-592l74 349h1116l-74 -349l-778 -737h643l-74 -348h-1167l74 348z" />
    <glyph glyph-name="bracketleft" unicode="[" horiz-adv-x="808" 
d="M664 1147l-271 -1270h225l-65 -307h-573l399 1884h573l-63 -307h-225z" />
    <glyph glyph-name="backslash" unicode="\" horiz-adv-x="1075" 
d="M504 -430l-228 1884h326l227 -1884h-325z" />
    <glyph glyph-name="bracketright" unicode="]" horiz-adv-x="808" 
d="M178 -123l271 1270h-226l64 307h573l-399 -1884h-572l64 307h225z" />
    <glyph glyph-name="asciicircum" unicode="^" horiz-adv-x="921" 
d="M539 1434h266l143 -625h-278l-62 287l-184 -287h-295z" />
    <glyph glyph-name="underscore" unicode="_" horiz-adv-x="716" 
d="M608 -164l-65 -317h-756l66 317h755z" />
    <glyph glyph-name="grave" unicode="`" horiz-adv-x="665" 
d="M641 1456l98 -330h-286l-174 330h362z" />
    <glyph glyph-name="a" unicode="a" horiz-adv-x="1302" 
d="M596 287q96 0 165.5 75.5t69.5 176.5q0 74 -50 126t-117 52q-90 0 -161 -74t-71 -182q0 -72 49 -123t115 -51zM905 868l29 136h348l-213 -1004h-348l22 111q-4 -6 -12 -14.5t-34.5 -31t-58.5 -40t-82 -31.5t-105 -14q-158 0 -271.5 122.5t-113.5 298.5q0 268 170 445.5
t387 177.5q55 0 105 -16.5t81 -39t53.5 -45t32.5 -38.5z" />
    <glyph glyph-name="b" unicode="b" horiz-adv-x="1300" 
d="M715 717q-96 0 -166 -76t-70 -176q0 -74 50.5 -126t117.5 -52q90 0 161 73.5t71 182.5q0 72 -49 123t-115 51zM406 135l-27 -135h-348l303 1434h348l-115 -541q4 6 12.5 14t35 31t58.5 40t82 31.5t105 14.5q158 0 271.5 -123t113.5 -299q0 -268 -170 -445t-387 -177
q-55 0 -105.5 16t-81 38.5t-53 45t-32.5 39.5z" />
    <glyph glyph-name="c" unicode="c" horiz-adv-x="1105" 
d="M66 428q0 242 189 419t445 177q80 0 154 -21.5t121 -51t83 -59.5t52 -52l16 -21l-241 -207q-8 12 -22.5 29.5t-67 46.5t-111.5 29q-106 0 -181 -73t-75 -181q0 -74 50 -125t130 -51q59 0 114.5 28.5t82.5 57.5l26 26l164 -221q-6 -8 -19 -21.5t-56 -47t-91.5 -60
t-125 -48t-156.5 -21.5q-199 0 -340 135t-141 313z" />
    <glyph glyph-name="d" unicode="d" horiz-adv-x="1300" 
d="M592 287q96 0 165.5 75.5t69.5 176.5q0 74 -50 126t-118 52q-90 0 -160.5 -74t-70.5 -182q0 -72 49 -123t115 -51zM901 868l119 566h348l-303 -1434h-348l22 111q-4 -6 -12 -14.5t-34.5 -31t-58.5 -40t-82 -31.5t-106 -14q-158 0 -271.5 122.5t-113.5 298.5
q0 268 170 445.5t387 177.5q55 0 105.5 -16.5t81.5 -39t53.5 -45t32.5 -38.5z" />
    <glyph glyph-name="e" unicode="e" horiz-adv-x="1187" 
d="M1100 410h-690q14 -70 70.5 -112t142.5 -42q63 0 124.5 24.5t90.5 49.5l28 24l107 -229q-6 -6 -18.5 -15.5t-54.5 -35t-87 -45t-117.5 -34.5t-146.5 -15q-205 0 -345.5 131t-140.5 311q0 248 187.5 425t439.5 177q195 0 325 -114.5t130 -284.5q0 -106 -45 -215zM649 758
q-135 0 -205 -144h361q-2 61 -45 102.5t-111 41.5z" />
    <glyph glyph-name="f" unicode="f" horiz-adv-x="788" 
d="M848 963l-64 -308h-215l-139 -655h-348l139 655h-133l64 308h133l22 102q84 389 424 389q59 0 112.5 -8t78.5 -16l24 -7l-63 -297q-37 20 -99 21q-53 0 -87.5 -27.5t-45.5 -75.5l-18 -81h215z" />
    <glyph glyph-name="g" unicode="g" horiz-adv-x="1269" 
d="M719 113l14 59q-4 -6 -13 -14t-39 -31t-62.5 -40t-85 -31.5t-105.5 -14.5q-141 0 -249.5 121t-108.5 284q0 236 163.5 407t354.5 171q88 0 160.5 -39t103.5 -78l29 -39l28 136h348l-190 -891q-49 -229 -228.5 -386t-418.5 -157q-90 0 -171 22.5t-132 53t-90 62.5t-56 54
l-18 23l231 201q8 -12 24.5 -33t76 -53.5t133.5 -32.5q115 0 195.5 67.5t105.5 178.5zM651 717q-84 0 -149.5 -62.5t-65.5 -152.5q0 -63 46 -108.5t112 -45.5q88 0 152.5 63.5t64.5 149.5q0 63 -47 109.5t-113 46.5z" />
    <glyph glyph-name="h" unicode="h" horiz-adv-x="1259" 
d="M682 1434l-115 -543q12 14 36 36.5t100.5 59.5t158.5 37q137 0 223 -87t86 -232q0 -53 -12 -111l-125 -594h-348l113 532q4 29 4 39q0 57 -36 91t-89 34q-70 0 -122 -56t-73 -148l-104 -492h-348l303 1434h348z" />
    <glyph glyph-name="i" unicode="i" horiz-adv-x="614" 
d="M592 1004l-213 -1004h-348l213 1004h348zM276 1278q0 80 63.5 143.5t154.5 63.5q80 0 130 -48t50 -116q0 -82 -64.5 -143.5t-150.5 -61.5q-82 0 -132.5 46t-50.5 116z" />
    <glyph glyph-name="j" unicode="j" horiz-adv-x="614" 
d="M31 0l213 1004h348l-225 -1055q-37 -174 -157 -276.5t-282 -102.5q-53 0 -102 8t-72 16l-22 7l65 307q47 -20 99 -21q45 0 85 34t50 79zM276 1278q0 80 63.5 143.5t154.5 63.5q80 0 130 -48t50 -116q0 -82 -64.5 -143.5t-150.5 -61.5q-82 0 -132.5 46t-50.5 116z" />
    <glyph glyph-name="k" unicode="k" horiz-adv-x="1177" 
d="M827 567l258 -567h-370l-162 358l-123 -110l-51 -248h-348l303 1434h348l-162 -766l354 336h414z" />
    <glyph glyph-name="l" unicode="l" horiz-adv-x="614" 
d="M682 1434l-303 -1434h-348l303 1434h348z" />
    <glyph glyph-name="m" unicode="m" horiz-adv-x="1822" 
d="M1249 0l113 532q14 76 -13.5 115t-91.5 39q-55 0 -103 -52t-67 -142l-104 -492h-348l113 532q14 76 -13.5 115t-91.5 39q-55 0 -103 -52t-67 -142l-104 -492h-349l213 1004h349l-25 -113q10 14 29.5 36.5t88 59.5t146.5 37q57 0 105.5 -16.5t76 -41t47 -49t27.5 -40.5
l6 -17q16 18 45 46t120 73t188 45q162 0 245.5 -115.5t40.5 -314.5l-125 -594h-348z" />
    <glyph glyph-name="n" unicode="n" 
d="M582 1004l-25 -113q12 14 35.5 36.5t100.5 59.5t159 37q137 0 223 -87t86 -232q0 -53 -12 -111l-125 -594h-348l112 532q4 29 5 39q0 57 -36 91t-89 34q-70 0 -122 -56t-73 -148l-104 -492h-349l213 1004h349z" />
    <glyph glyph-name="o" unicode="o" 
d="M657 717q-90 0 -159.5 -77t-69.5 -171q0 -78 48 -130t122 -52q86 0 157.5 74.5t71.5 175.5q0 80 -48 130t-122 50zM1192 547q0 -225 -183.5 -396t-422.5 -171q-227 0 -373.5 142t-146.5 337q0 223 182 394t424 171q227 0 373.5 -141t146.5 -336z" />
    <glyph glyph-name="p" unicode="p" horiz-adv-x="1290" 
d="M705 717q-96 0 -166 -76t-70 -176q0 -74 50 -126t118 -52q90 0 160.5 73.5t70.5 182.5q0 72 -48.5 123t-114.5 51zM395 135l-119 -565h-348l305 1434h349l-25 -111q4 6 12.5 14t35 31t58 40t82 31.5t105.5 14.5q158 0 271.5 -123t113.5 -299q0 -268 -170 -445t-387 -177
q-55 0 -105.5 16t-81 38.5t-53 45t-32.5 39.5z" />
    <glyph glyph-name="q" unicode="q" horiz-adv-x="1290" 
d="M592 287q96 0 165.5 75.5t69.5 176.5q0 74 -50 126t-118 52q-90 0 -160.5 -74t-70.5 -182q0 -72 49 -123t115 -51zM901 868l27 136h348l-303 -1434h-348l114 541q-4 -6 -12 -14.5t-34.5 -31t-58.5 -40t-82 -31.5t-106 -14q-158 0 -271.5 122.5t-113.5 298.5
q0 268 170 445.5t387 177.5q55 0 105.5 -16.5t81.5 -39t53.5 -45t32.5 -38.5z" />
    <glyph glyph-name="r" unicode="r" horiz-adv-x="829" 
d="M825 655q-37 20 -98 21q-100 0 -172 -67.5t-98 -188.5l-88 -420h-349l213 1004h349l-25 -115q14 14 39 34.5t103.5 55.5t160.5 35h41z" />
    <glyph glyph-name="s" unicode="s" horiz-adv-x="962" 
d="M983 870l-209 -182q-61 59 -143 60q-45 0 -70.5 -17.5t-25.5 -44.5q0 -20 35.5 -40.5t87 -42t101.5 -51.5t86 -83t36 -123q0 -158 -126 -262t-352 -104q-88 0 -165.5 20t-126 49t-83 56.5t-48.5 48.5l-15 20l209 180q6 -10 20.5 -26.5t61.5 -44t102 -27.5q45 0 71 17.5
t26 43.5q0 20 -36 41t-86 42.5t-101.5 51t-87 83t-35.5 122.5q0 158 125.5 262.5t351.5 104.5q119 0 218 -39t138 -76z" />
    <glyph glyph-name="t" unicode="t" horiz-adv-x="870" 
d="M379 1116l37 174h307l-64 -307h205l-65 -307h-205l-62 -287q-23 -102 80 -102q25 0 54.5 5t46.5 11l16 4l-61 -297q-86 -31 -199 -30q-172 0 -251 100t-38 289l66 307h-154l66 307h71q55 0 96.5 36t53.5 97z" />
    <glyph glyph-name="u" unicode="u" horiz-adv-x="1259" 
d="M676 0l20 102q-12 -14 -33.5 -34.5t-95 -54t-155.5 -33.5q-141 0 -230.5 86t-89.5 229q0 49 12 104l129 605h349l-117 -543q-4 -25 -4 -35q0 -55 32.5 -87t88.5 -32q70 0 125 50.5t73 134.5l109 512h348l-213 -1004h-348z" />
    <glyph glyph-name="v" unicode="v" horiz-adv-x="1105" 
d="M635 0h-369l-155 1004h352l61 -584l307 584h386z" />
    <glyph glyph-name="w" unicode="w" horiz-adv-x="1617" 
d="M780 1004h252l55 -512l273 512h369l-558 -1004h-294l-68 489l-272 -489h-295l-131 1004h342l55 -512z" />
    <glyph glyph-name="x" unicode="x" horiz-adv-x="1085" 
d="M510 287l-234 -287h-378l426 512l-193 492h365l88 -267l200 267h392l-402 -492l209 -512h-358z" />
    <glyph glyph-name="y" unicode="y" horiz-adv-x="1105" 
d="M231 -20l37 49l-157 975h352l63 -584l310 584h381l-592 -1004q-133 -225 -256 -327.5t-267 -102.5q-49 0 -98 8t-74 16l-24 7l63 307q39 -20 101 -21q98 1 161 93z" />
    <glyph glyph-name="z" unicode="z" horiz-adv-x="1044" 
d="M1063 1004l-66 -308l-493 -389h430l-64 -307h-901l64 307l495 389h-391l66 308h860z" />
    <glyph glyph-name="braceleft" unicode="{" horiz-adv-x="880" 
d="M86 358l66 308q61 0 110 41t62 102l53 246q86 399 422 399h225l-70 -328h-92q-47 0 -87 -34.5t-50 -87.5l-49 -226q-12 -63 -41 -113.5t-60.5 -78t-60.5 -46t-47 -24.5l-21 -4q4 0 9.5 -2t23 -11.5t29.5 -20.5t29.5 -32.5t23.5 -48t10 -65.5t-8 -86l-47 -226
q-12 -53 13.5 -87.5t72.5 -34.5h92l-69 -328h-185q-174 0 -255 102.5t-40 296.5l54 246q12 61 -20 102t-93 41z" />
    <glyph glyph-name="bar" unicode="|" horiz-adv-x="829" 
d="M809 1454l-399 -1884h-359l400 1884h358z" />
    <glyph glyph-name="braceright" unicode="}" horiz-adv-x="880" 
d="M827 666l-65 -308q-61 0 -111.5 -41t-62.5 -102l-53 -246q-84 -399 -422 -399h-224l68 328h92q47 0 87 34.5t52 87.5l48 226q12 63 40.5 113.5t60.5 78t61.5 46t47.5 24.5l21 4q-6 2 -16.5 6t-39 22.5t-42 46t-26.5 77t5 114.5l49 226q10 53 -15.5 87.5t-72.5 34.5h-92
l70 328h184q174 0 255 -102.5t40 -296.5l-53 -246q-12 -61 20.5 -102t93.5 -41z" />
    <glyph glyph-name="asciitilde" unicode="~" horiz-adv-x="1187" 
d="M467 512q-49 0 -100.5 -22.5t-77.5 -47.5l-27 -22l-182 153q4 10 13 25.5t41 56.5t69 72t97 56.5t126 25.5q98 0 203.5 -51t165.5 -51q49 0 100 23.5t76 45.5l26 23l183 -154q-4 -10 -13.5 -25.5t-41 -56.5t-68.5 -71.5t-97.5 -56t-125.5 -25.5q-98 0 -203 51t-164 51z
" />
    <glyph glyph-name="uni00A0" unicode="&#xa0;" horiz-adv-x="430" 
 />
    <glyph glyph-name="exclamdown" unicode="&#xa1;" horiz-adv-x="675" 
d="M219 553h287l-148 -983h-409zM612 862q0 -80 -63.5 -143.5t-153.5 -63.5q-80 0 -130 48.5t-50 115.5q0 82 64.5 143.5t150.5 61.5q82 0 132 -46t50 -116z" />
    <glyph glyph-name="cent" unicode="&#xa2;" horiz-adv-x="1085" 
d="M973 156q-12 -14 -37 -35t-102.5 -65t-159.5 -62l-43 -199h-318l47 219q-133 53 -213.5 169t-80.5 253q0 205 144 367t361 207l41 188h318l-43 -203q68 -23 123 -61.5t77 -65.5l23 -28l-240 -205q-6 8 -19 22.5t-61.5 37t-107.5 22.5q-106 0 -180 -73t-74 -181
q0 -74 50 -125t130 -51q57 0 106.5 23.5t71.5 45.5l21 25z" />
    <glyph glyph-name="sterling" unicode="&#xa3;" horiz-adv-x="1228" 
d="M352 983q47 229 194.5 360.5t381.5 131.5q80 0 155.5 -20.5t124.5 -49.5t86 -56.5t54 -48.5l18 -20l-305 -246q-55 72 -158 72q-68 0 -122 -47t-70 -115l-25 -125h318l-54 -246h-317l-27 -122q-8 -37 -22.5 -65t-26.5 -38l-10 -10h610l-72 -338h-1065l72 338
q57 0 96 30.5t50 82.5l26 122h-123l54 246h122z" />
    <glyph glyph-name="currency" unicode="&#xa4;" horiz-adv-x="1474" 
d="M707 819h237q78 0 131 49.5t53 122.5q0 49 -34.5 82t-94.5 33h-233zM924 543h-277l-20 -92h409l-57 -277h-410l-37 -174h-389l37 174h-143l57 277h144l20 92h-143l59 276h143l129 615h611q207 0 339 -121t132 -283q0 -217 -166 -352t-438 -135z" />
    <glyph glyph-name="yen" unicode="&#xa5;" horiz-adv-x="1402" 
d="M1192 502h-287l-18 -82h287l-54 -256h-286l-35 -164h-389l34 164h-286l53 256h287l18 82h-287l54 256h149l-231 676h399l170 -553l404 553h440l-520 -676h151z" />
    <glyph glyph-name="brokenbar" unicode="&#xa6;" horiz-adv-x="829" 
d="M217 348h358l-165 -778h-359zM645 676h-358l164 778h358z" />
    <glyph glyph-name="section" unicode="&#xa7;" horiz-adv-x="1157" 
d="M1180 1311l-213 -174q-61 63 -152 63q-53 0 -81.5 -25.5t-28.5 -64.5q0 -31 40.5 -61.5t99 -61.5t117 -69.5t99.5 -100t41 -139.5q0 -66 -25.5 -124t-61.5 -95t-74 -64.5t-61.5 -40t-27.5 -12.5q12 -10 29.5 -27.5t47 -73t29.5 -112.5q0 -158 -142 -266.5t-376 -108.5
q-90 0 -167.5 22.5t-125 53.5t-82 62.5t-49.5 54.5l-14 22l205 170q8 -12 25.5 -30.5t72.5 -48t115 -29.5q70 0 105.5 31.5t35.5 84.5q0 37 -44 72t-106.5 67.5t-124 71.5t-105.5 100.5t-44 139.5q0 66 25.5 122t62.5 91t74 60.5t61 35.5l27 11q-10 8 -24.5 25.5t-39 69.5
t-24.5 105q0 143 137 250t359 107q78 0 145.5 -16.5t109.5 -41t72.5 -49.5t44.5 -41zM657 492q43 12 75 45.5t32 81t-45 87t-90 56.5l-45 16q-43 -12 -75 -46t-32 -81t45 -87t90 -56z" />
    <glyph glyph-name="dieresis" unicode="&#xa8;" horiz-adv-x="942" 
d="M242 1286q0 72 61.5 130.5t136.5 58.5q66 0 111 -47.5t45 -110.5q0 -74 -61.5 -132.5t-137.5 -58.5q-66 0 -110.5 48.5t-44.5 111.5zM713 1286q0 72 61.5 130.5t136.5 58.5q66 0 111 -47.5t45 -110.5q0 -74 -61.5 -132.5t-137.5 -58.5q-66 0 -110.5 48.5t-44.5 111.5z
" />
    <glyph glyph-name="copyright" unicode="&#xa9;" horiz-adv-x="1781" 
d="M541 653q0 193 145 333t348 140q66 0 121 -16t89 -41t58.5 -49.5t34.5 -40.5l11 -16l-166 -138q-4 10 -15.5 24.5t-53.5 38t-97 23.5q-88 0 -162 -70.5t-74 -156.5q0 -66 47 -114t115 -48q55 0 102.5 25.5t67.5 52.5l21 27l116 -152q-4 -6 -13 -17.5t-42 -41t-70 -51
t-97 -40t-126 -18.5q-152 0 -256 102.5t-104 243.5zM1018 1290q-256 0 -457 -189.5t-201 -441.5q0 -211 151 -364.5t370 -153.5q260 0 457.5 192.5t197.5 442.5q0 211 -149.5 362.5t-368.5 151.5zM1745 799q0 -162 -68.5 -315.5t-184.5 -268.5t-278.5 -185.5t-341.5 -70.5
q-317 0 -518.5 196.5t-201.5 479.5q0 344 259 592t613 248q317 0 519 -195.5t202 -480.5z" />
    <glyph glyph-name="ordfeminine" unicode="&#xaa;" horiz-adv-x="792" 
d="M610 1065l-129 -31q-27 -6 -47 -26.5t-20 -44.5q0 -41 57 -41q39 0 83 38.5t52 83.5zM350 758q-80 0 -128 48t-48 130q0 90 71.5 151.5t192.5 79.5l201 31v8q0 53 -80 54q-45 0 -87 -15.5t-60 -32.5l-19 -16l-104 135q12 14 35.5 34.5t104.5 54.5t173 34
q123 0 192.5 -57.5t69.5 -159.5q0 -41 -8 -80l-82 -379h-225l16 72q-8 -10 -25.5 -25.5t-74 -41t-115.5 -25.5z" />
    <glyph glyph-name="guillemotleft" unicode="&#xab;" horiz-adv-x="1218" 
d="M1249 860l-360 -383l178 -354h-315l-187 369l344 368h340zM768 860l-360 -383l178 -354h-316l-186 369l344 368h340z" />
    <glyph glyph-name="logicalnot" unicode="&#xac;" horiz-adv-x="1003" 
d="M1024 870l-115 -542h-307l49 235h-553l66 307h860z" />
    <glyph glyph-name="uni00AD" unicode="&#xad;" horiz-adv-x="890" 
d="M887 758l-66 -307h-747l65 307h748z" />
    <glyph glyph-name="registered" unicode="&#xae;" horiz-adv-x="1781" 
d="M1124 625l103 -297h-240l-76 225h-77l-48 -225h-235l164 778h354q104 0 173 -69.5t69 -164.5q0 -84 -47 -146t-93 -83zM905 891l-26 -123h106q33 0 57.5 21.5t24.5 48.5q0 23 -16.5 38t-42.5 15h-103zM1018 1290q-256 0 -457 -189.5t-201 -441.5q0 -211 151 -364.5
t370 -153.5q260 0 457.5 192.5t197.5 442.5q0 211 -149.5 362.5t-368.5 151.5zM1745 799q0 -162 -68.5 -315.5t-184.5 -268.5t-278.5 -185.5t-341.5 -70.5q-317 0 -518.5 196.5t-201.5 479.5q0 344 259 592t613 248q317 0 519 -195.5t202 -480.5z" />
    <glyph glyph-name="macron" unicode="&#xaf;" horiz-adv-x="798" 
d="M963 1495l-58 -266h-676l58 266h676z" />
    <glyph glyph-name="degree" unicode="&#xb0;" horiz-adv-x="819" 
d="M571 1251q-47 0 -88 -38.5t-41 -90.5q0 -43 29 -71.5t72 -28.5q51 0 91 39t40 90q0 43 -29 71.5t-74 28.5zM901 1159q0 -133 -114.5 -236.5t-260.5 -103.5q-133 0 -223 87t-90 206q0 133 112.5 237.5t262.5 104.5q135 0 224 -88t89 -207z" />
    <glyph glyph-name="plusminus" unicode="&#xb1;" horiz-adv-x="1085" 
d="M440 676h-317l67 317h318l61 297h308l-62 -297h318l-68 -317h-317l-64 -297h-307zM-20 0l59 287h942l-59 -287h-942z" />
    <glyph glyph-name="uni00B2" unicode="&#xb2;" horiz-adv-x="696" 
d="M848 1452q0 -72 -34 -127t-76 -84t-99 -64.5t-82 -60.5h211l-45 -215h-563q20 100 71.5 176t109.5 118t113.5 73.5t91.5 61.5t36 63q0 41 -52 41q-23 0 -46 -16.5t-33 -33.5l-13 -14l-176 80q4 8 12.5 21.5t37 47t62.5 60.5t92 48.5t122 21.5q117 0 188.5 -56.5
t71.5 -140.5z" />
    <glyph glyph-name="uni00B3" unicode="&#xb3;" horiz-adv-x="706" 
d="M702 1282q10 -4 25.5 -12t41.5 -43t26 -80q0 -106 -92.5 -181t-239.5 -75q-98 0 -173 33.5t-100 66.5l-24 33l145 127q53 -66 146 -66q37 0 61.5 21.5t24.5 48.5q0 53 -84 53h-70l35 164h72q82 0 82 53q0 39 -66 39q-27 0 -58.5 -15t-47.5 -30l-19 -14l-92 131
q10 12 30.5 30.5t97.5 50.5t167 32q113 0 182.5 -58.5t69.5 -130.5q0 -23 -5.5 -42t-13.5 -35.5t-18 -30t-22.5 -23.5t-23.5 -18t-21.5 -13.5t-18.5 -8.5t-12 -5z" />
    <glyph glyph-name="acute" unicode="&#xb4;" horiz-adv-x="665" 
d="M203 1126l241 330h377l-317 -330h-301z" />
    <glyph glyph-name="mu" unicode="&#xb5;" horiz-adv-x="1259" 
d="M1227 1004l-137 -646q-16 -61 47 -61l43 10l-62 -297q-55 -31 -137 -30q-96 0 -151.5 38.5t-63.5 75.5l-8 39q-6 -6 -17.5 -16.5t-49.5 -37t-79 -47t-103.5 -36.5t-125.5 -16h-21l-86 -410h-348l305 1434h349l-115 -533q-14 -74 19.5 -119t97 -45t116 51.5t70.5 133.5
l109 512h348z" />
    <glyph glyph-name="paragraph" unicode="&#xb6;" horiz-adv-x="1372" 
d="M313 -205l185 860q-135 0 -225.5 101.5t-90.5 234.5q0 176 148.5 309.5t331.5 133.5h757l-348 -1639h-307l274 1290h-143l-274 -1290h-308z" />
    <glyph glyph-name="periodcentered" unicode="&#xb7;" horiz-adv-x="430" 
d="M31 489q0 80 63.5 143.5t153.5 63.5q80 0 130 -48t50 -116q0 -82 -64.5 -143t-150.5 -61q-82 0 -132 45.5t-50 115.5z" />
    <glyph glyph-name="cedilla" unicode="&#xb8;" horiz-adv-x="634" 
d="M182 41h168l-96 -133q6 0 18.5 -3t41 -14.5t51 -27t41 -47t18.5 -72.5q0 -109 -79 -177.5t-210 -68.5q-68 0 -130 25.5t-91 50.5l-29 27l107 131q49 -59 121 -60q86 0 86 64q0 39 -56 39l-51 -11l-47 72z" />
    <glyph glyph-name="uni00B9" unicode="&#xb9;" horiz-adv-x="491" 
d="M451 1638h215l-158 -737h-246l98 461h-122l36 174q47 4 91.5 29.5t64.5 48.5z" />
    <glyph glyph-name="ordmasculine" unicode="&#xba;" horiz-adv-x="819" 
d="M424 1094q0 -47 34 -79t83 -32q55 0 96 41t41 100q0 45 -31 75t-84 30q-55 0 -97 -39t-42 -96zM514 758q-127 0 -227.5 92t-100.5 227q0 147 125 262t279 115q139 0 233.5 -95t94.5 -224q0 -147 -124 -262t-280 -115z" />
    <glyph glyph-name="guillemotright" unicode="&#xbb;" horiz-adv-x="1218" 
d="M-6 123l360 383l-178 354h316l186 -368l-344 -369h-340zM475 123l361 383l-179 354h316l186 -368l-344 -369h-340z" />
    <glyph glyph-name="onequarter" unicode="&#xbc;" horiz-adv-x="1536" 
d="M51 0l1184 1434h338l-1182 -1434h-340zM428 1434h215l-158 -738h-245l98 461h-123l37 174q47 4 91 29.5t65 48.5zM1489 737l-86 -399h72l-43 -205h-72l-29 -133h-235l28 133h-317l41 195l389 409h252zM1065 328h111l34 164z" />
    <glyph glyph-name="onehalf" unicode="&#xbd;" horiz-adv-x="1617" 
d="M51 0l1184 1434h338l-1182 -1434h-340zM428 1434h215l-158 -738h-245l98 461h-123l37 174q47 4 91 29.5t65 48.5zM1583 551q0 -72 -33.5 -127t-75.5 -84t-99.5 -64.5t-82.5 -60.5h211l-45 -215h-563q20 100 71.5 176t110 118t113.5 73.5t91 61.5t36 63q0 41 -51 40
q-23 0 -46.5 -16t-35.5 -33l-10 -14l-177 80q4 8 12.5 21.5t37 47t62.5 60.5t92.5 48.5t121.5 21.5q117 0 188.5 -56.5t71.5 -140.5z" />
    <glyph glyph-name="threequarters" unicode="&#xbe;" horiz-adv-x="1648" 
d="M164 0l1184 1434h338l-1182 -1434h-340zM1599 737l-86 -399h72l-43 -205h-72l-28 -133h-236l29 133h-317l40 195l390 409h251zM1176 328h110l35 164zM649 1077q10 -4 25.5 -12t41 -43t25.5 -80q0 -106 -92 -181t-239 -75q-98 0 -173 34t-100 66l-24 33l145 127
q53 -66 145 -65q37 0 61.5 21.5t24.5 47.5q0 53 -83 54h-70l35 163h71q82 0 82 54q0 39 -65 39q-27 0 -58.5 -15.5t-48.5 -30.5l-18 -14l-92 131q10 12 30.5 30.5t97 50.5t167.5 32q113 0 182 -58.5t69 -130.5q0 -23 -5 -42t-13 -35.5t-18.5 -29.5t-22.5 -23.5t-23.5 -18.5
t-21.5 -13.5t-18.5 -8.5t-12.5 -5z" />
    <glyph glyph-name="questiondown" unicode="&#xbf;" horiz-adv-x="1024" 
d="M776 504q0 -104 -65.5 -183t-143.5 -119t-143.5 -92.5t-65.5 -109.5q0 -39 33 -65.5t86 -26.5q68 0 122 30.5t73 61.5l20 31l295 -154q-6 -14 -18.5 -37.5t-61.5 -83t-109.5 -105.5t-165 -84t-224.5 -38q-215 0 -350.5 125t-135.5 278q0 106 47 192.5t117 140.5
t139.5 99.5t123.5 92.5t65 96h358q4 -22 4 -49zM852 862q0 -80 -63.5 -143.5t-153.5 -63.5q-80 0 -130 48.5t-50 115.5q0 82 64.5 143.5t150.5 61.5q82 0 132 -46t50 -116z" />
    <glyph glyph-name="Agrave" unicode="&#xc0;" horiz-adv-x="1515" 
d="M944 614l-45 420l-221 -420h266zM981 307h-471l-166 -307h-436l846 1434h430l239 -1434h-403zM1004 1927l98 -330h-287l-174 330h363z" />
    <glyph glyph-name="Aacute" unicode="&#xc1;" horiz-adv-x="1515" 
d="M944 614l-45 420l-221 -420h266zM981 307h-471l-166 -307h-436l846 1434h430l239 -1434h-403zM860 1597l242 330h377l-318 -330h-301z" />
    <glyph glyph-name="Acircumflex" unicode="&#xc2;" horiz-adv-x="1515" 
d="M944 614l-45 420l-221 -420h266zM981 307h-471l-166 -307h-436l846 1434h430l239 -1434h-403zM1018 1741l-131 -144h-334l332 328h311l197 -328h-299z" />
    <glyph glyph-name="Atilde" unicode="&#xc3;" horiz-adv-x="1515" 
d="M944 614l-45 420l-221 -420h266zM981 307h-471l-166 -307h-436l846 1434h430l239 -1434h-403zM895 1679q-72 0 -94 -102h-215q39 176 113.5 262t170.5 86q74 0 142.5 -51t97.5 -51q72 0 94 102h215q-76 -348 -282 -348q-74 0 -143.5 51t-98.5 51z" />
    <glyph glyph-name="Adieresis" unicode="&#xc4;" horiz-adv-x="1515" 
d="M944 614l-45 420l-221 -420h266zM981 307h-471l-166 -307h-436l846 1434h430l239 -1434h-403zM608 1737q0 72 61.5 130t137.5 58q66 0 111 -47t45 -111q0 -74 -61.5 -132t-137.5 -58q-66 0 -111 48.5t-45 111.5zM1079 1737q0 72 61.5 130t137.5 58q66 0 111 -47t45 -111
q0 -74 -61.5 -132t-137.5 -58q-66 0 -111 48.5t-45 111.5z" />
    <glyph glyph-name="Aring" unicode="&#xc5;" horiz-adv-x="1515" 
d="M944 614l-45 420l-221 -420h266zM981 307h-471l-166 -307h-436l846 1434h430l239 -1434h-403zM1022 1864q-37 0 -62.5 -27t-25.5 -70q0 -68 80 -67q35 0 62.5 26.5t27.5 67.5q0 70 -82 70zM1290 1800q0 -106 -89 -185t-204 -79q-113 0 -182.5 64.5t-69.5 158.5
q0 109 87.5 189t205.5 80q113 0 182.5 -67t69.5 -161z" />
    <glyph glyph-name="AE" unicode="&#xc6;" horiz-adv-x="2088" 
d="M1319 328h666l-70 -328h-1055l66 317h-439l-239 -317h-422l1102 1434h1270l-70 -328h-645l-47 -225h481l-66 -308h-481zM1085 1106l-356 -471h264l101 471h-9z" />
    <glyph glyph-name="Ccedilla" unicode="&#xc7;" horiz-adv-x="1536" 
d="M1014 1126q-201 0 -347.5 -143t-146.5 -348q0 -141 94.5 -234.5t243.5 -93.5q70 0 137.5 20.5t115.5 49.5t86 58.5t56 49.5l21 21l180 -260q-8 -12 -26.5 -30.5t-79 -68t-129 -86t-178 -68.5t-224.5 -34l-37 -51q6 0 18.5 -3t41 -14.5t51 -27t41 -47t18.5 -72.5
q0 -109 -78.5 -177.5t-209.5 -68.5q-68 0 -130.5 25.5t-91.5 50.5l-28 27l106 131q49 -59 121 -60q86 0 86 64q0 39 -55 39l-52 -11l-47 72l93 137q-238 47 -388.5 230.5t-150.5 410.5q0 352 271.5 606.5t650.5 254.5q115 0 218 -30t169.5 -72t117 -84t70.5 -72l23 -29
l-277 -234q-4 6 -13 18.5t-41 42t-70 52.5t-100 41t-130 18z" />
    <glyph glyph-name="Egrave" unicode="&#xc8;" horiz-adv-x="1372" 
d="M530 328h738l-70 -328h-1126l303 1434h1106l-70 -328h-717l-47 -225h553l-65 -308h-553zM1006 1927l98 -330h-287l-174 330h363z" />
    <glyph glyph-name="Eacute" unicode="&#xc9;" horiz-adv-x="1372" 
d="M530 328h738l-70 -328h-1126l303 1434h1106l-70 -328h-717l-47 -225h553l-65 -308h-553zM776 1597l242 330h377l-318 -330h-301z" />
    <glyph glyph-name="Ecircumflex" unicode="&#xca;" horiz-adv-x="1372" 
d="M530 328h738l-70 -328h-1126l303 1434h1106l-70 -328h-717l-47 -225h553l-65 -308h-553zM1006 1741l-132 -144h-333l331 328h312l196 -328h-299z" />
    <glyph glyph-name="Edieresis" unicode="&#xcb;" horiz-adv-x="1372" 
d="M530 328h738l-70 -328h-1126l303 1434h1106l-70 -328h-717l-47 -225h553l-65 -308h-553zM588 1737q0 72 61.5 130t136.5 58q66 0 111 -47t45 -111q0 -74 -61.5 -132t-137.5 -58q-66 0 -110.5 48.5t-44.5 111.5zM1059 1737q0 72 61.5 130t136.5 58q66 0 111 -47t45 -111
q0 -74 -61.5 -132t-137.5 -58q-66 0 -110.5 48.5t-44.5 111.5z" />
    <glyph glyph-name="Igrave" unicode="&#xcc;" horiz-adv-x="716" 
d="M72 0l303 1434h389l-303 -1434h-389zM618 1927l99 -330h-287l-174 330h362z" />
    <glyph glyph-name="Iacute" unicode="&#xcd;" horiz-adv-x="716" 
d="M72 0l303 1434h389l-303 -1434h-389zM436 1597l242 330h377l-318 -330h-301z" />
    <glyph glyph-name="Icircumflex" unicode="&#xce;" horiz-adv-x="716" 
d="M72 0l303 1434h389l-303 -1434h-389zM631 1741l-131 -144h-334l332 328h311l197 -328h-299z" />
    <glyph glyph-name="Idieresis" unicode="&#xcf;" horiz-adv-x="716" 
d="M72 0l303 1434h389l-303 -1434h-389zM213 1737q0 72 61.5 130t137.5 58q66 0 110.5 -47t44.5 -111q0 -74 -61.5 -132t-136.5 -58q-66 0 -111 48.5t-45 111.5zM684 1737q0 72 61.5 130t137.5 58q66 0 110.5 -47t44.5 -111q0 -74 -61.5 -132t-136.5 -58q-66 0 -111 48.5
t-45 111.5z" />
    <glyph glyph-name="Eth" unicode="&#xd0;" horiz-adv-x="1597" 
d="M416 1434h522q281 0 467 -184.5t186 -436.5q0 -346 -257 -579.5t-625 -233.5h-596l120 573h-153l61 287h152zM887 1085h-156l-49 -225h238l-62 -287h-235l-48 -225h160q172 0 315.5 128t143.5 315q0 127 -85 210.5t-222 83.5z" />
    <glyph glyph-name="Ntilde" unicode="&#xd1;" horiz-adv-x="1669" 
d="M1327 1434h389l-303 -1434h-330l-454 799l-168 -799h-389l303 1434h332l450 -799zM977 1679q-72 0 -94 -102h-215q39 176 113.5 262t170.5 86q74 0 142.5 -51t97.5 -51q72 0 94 102h215q-76 -348 -282 -348q-74 0 -143.5 51t-98.5 51z" />
    <glyph glyph-name="Ograve" unicode="&#xd2;" horiz-adv-x="1761" 
d="M985 1126q-182 0 -318.5 -137t-136.5 -323q0 -154 102.5 -256.5t262.5 -102.5q180 0 317.5 133t137.5 328q0 152 -102.5 255t-262.5 103zM1755 793q0 -215 -121 -407.5t-322.5 -309.5t-426.5 -117q-326 0 -543 200.5t-217 481.5q0 332 262 583t608 251q326 0 543 -200.5
t217 -481.5zM1098 1927l98 -330h-287l-174 330h363z" />
    <glyph glyph-name="Oacute" unicode="&#xd3;" horiz-adv-x="1761" 
d="M985 1126q-182 0 -318.5 -137t-136.5 -323q0 -154 102.5 -256.5t262.5 -102.5q180 0 317.5 133t137.5 328q0 152 -102.5 255t-262.5 103zM1755 793q0 -215 -121 -407.5t-322.5 -309.5t-426.5 -117q-326 0 -543 200.5t-217 481.5q0 332 262 583t608 251q326 0 543 -200.5
t217 -481.5zM883 1597l241 330h377l-317 -330h-301z" />
    <glyph glyph-name="Ocircumflex" unicode="&#xd4;" horiz-adv-x="1761" 
d="M985 1126q-182 0 -318.5 -137t-136.5 -323q0 -154 102.5 -256.5t262.5 -102.5q180 0 317.5 133t137.5 328q0 152 -102.5 255t-262.5 103zM1755 793q0 -215 -121 -407.5t-322.5 -309.5t-426.5 -117q-326 0 -543 200.5t-217 481.5q0 332 262 583t608 251q326 0 543 -200.5
t217 -481.5zM1112 1741l-131 -144h-334l332 328h311l197 -328h-299z" />
    <glyph glyph-name="Otilde" unicode="&#xd5;" horiz-adv-x="1761" 
d="M985 1126q-182 0 -318.5 -137t-136.5 -323q0 -154 102.5 -256.5t262.5 -102.5q180 0 317.5 133t137.5 328q0 152 -102.5 255t-262.5 103zM1755 793q0 -215 -121 -407.5t-322.5 -309.5t-426.5 -117q-326 0 -543 200.5t-217 481.5q0 332 262 583t608 251q326 0 543 -200.5
t217 -481.5zM995 1690q-72 0 -94 -103h-215q39 176 113.5 262t171.5 86q74 0 142.5 -51t96.5 -51q72 0 95 102h215q-76 -348 -283 -348q-74 0 -143.5 51.5t-98.5 51.5z" />
    <glyph glyph-name="Odieresis" unicode="&#xd6;" horiz-adv-x="1761" 
d="M985 1126q-182 0 -318.5 -137t-136.5 -323q0 -154 102.5 -256.5t262.5 -102.5q180 0 317.5 133t137.5 328q0 152 -102.5 255t-262.5 103zM1755 793q0 -215 -121 -407.5t-322.5 -309.5t-426.5 -117q-326 0 -543 200.5t-217 481.5q0 332 262 583t608 251q326 0 543 -200.5
t217 -481.5zM680 1737q0 72 61.5 130t137.5 58q66 0 110.5 -47t44.5 -111q0 -74 -61.5 -132t-136.5 -58q-66 0 -111 48.5t-45 111.5zM1151 1737q0 72 61.5 130t137.5 58q66 0 110.5 -47t44.5 -111q0 -74 -61.5 -132t-136.5 -58q-66 0 -111 48.5t-45 111.5z" />
    <glyph glyph-name="multiply" unicode="&#xd7;" horiz-adv-x="1044" 
d="M76 401l282 234l-200 256l231 192l195 -245l299 247l174 -213l-289 -237l205 -258l-232 -193l-194 246l-297 -246z" />
    <glyph glyph-name="Oslash" unicode="&#xd8;" horiz-adv-x="1761" 
d="M1755 793q0 -215 -121 -407.5t-322.5 -309.5t-426.5 -117q-285 0 -492 158l-241 -193l-160 203l227 180q-94 154 -94 334q0 332 262 583t608 251q285 0 492 -158l244 192l159 -202l-229 -183q94 -159 94 -331zM1350 768q0 45 -15 98l-637 -508q86 -51 197 -51
q180 0 317.5 133t137.5 328zM985 1126q-182 0 -318.5 -137t-136.5 -323q0 -51 13 -101l639 508q-91 53 -197 53z" />
    <glyph glyph-name="Ugrave" unicode="&#xd9;" horiz-adv-x="1617" 
d="M797 307q106 0 195 82t116 205l178 840h389l-178 -840q-59 -276 -256 -455.5t-473 -179.5q-289 0 -463 185.5t-119 449.5l179 840h389l-179 -840q-25 -121 43 -204t179 -83zM1071 1927l98 -330h-286l-174 330h362z" />
    <glyph glyph-name="Uacute" unicode="&#xda;" horiz-adv-x="1617" 
d="M797 307q106 0 195 82t116 205l178 840h389l-178 -840q-59 -276 -256 -455.5t-473 -179.5q-289 0 -463 185.5t-119 449.5l179 840h389l-179 -840q-25 -121 43 -204t179 -83zM887 1597l241 330h377l-317 -330h-301z" />
    <glyph glyph-name="Ucircumflex" unicode="&#xdb;" horiz-adv-x="1617" 
d="M797 307q106 0 195 82t116 205l178 840h389l-178 -840q-59 -276 -256 -455.5t-473 -179.5q-289 0 -463 185.5t-119 449.5l179 840h389l-179 -840q-25 -121 43 -204t179 -83zM1071 1741l-131 -144h-334l332 328h311l197 -328h-299z" />
    <glyph glyph-name="Udieresis" unicode="&#xdc;" horiz-adv-x="1617" 
d="M797 307q106 0 195 82t116 205l178 840h389l-178 -840q-59 -276 -256 -455.5t-473 -179.5q-289 0 -463 185.5t-119 449.5l179 840h389l-179 -840q-25 -121 43 -204t179 -83zM659 1737q0 72 61.5 130t137.5 58q66 0 111 -47t45 -111q0 -74 -61.5 -132t-137.5 -58
q-66 0 -111 48.5t-45 111.5zM1130 1737q0 72 61.5 130t137.5 58q66 0 111 -47t45 -111q0 -74 -61.5 -132t-137.5 -58q-66 0 -111 48.5t-45 111.5z" />
    <glyph glyph-name="Yacute" unicode="&#xdd;" horiz-adv-x="1402" 
d="M1174 1434h440l-707 -922l-108 -512h-389l108 512l-317 922h399l172 -553zM743 1597l242 330h377l-318 -330h-301z" />
    <glyph glyph-name="Thorn" unicode="&#xde;" horiz-adv-x="1402" 
d="M741 1321h97q242 0 400.5 -151.5t158.5 -354.5q0 -276 -218 -468.5t-534 -192.5h-153l-41 -195h-390l324 1516h389zM674 1004l-115 -533h59q184 0 285 86t101 240q0 94 -73 150.5t-214 56.5h-43z" />
    <glyph glyph-name="germandbls" unicode="&#xdf;" horiz-adv-x="1280" 
d="M1016 778q8 -4 20.5 -10t45 -31.5t57 -56.5t45 -82t20.5 -109q0 -207 -167 -348t-425 -141h-110l65 317h97q72 0 122 47.5t50 110.5q0 49 -36 84t-87 35h-86l63 297h27q68 0 117 44t49 97q0 47 -35 81t-88 34q-63 0 -109.5 -42t-60.5 -112l-211 -993h-348l211 993
q45 211 195.5 336t381.5 125q184 0 301 -101.5t117 -238.5q0 -49 -12.5 -95t-33 -79t-44 -60.5t-47 -46t-44 -32t-30.5 -19.5z" />
    <glyph glyph-name="agrave" unicode="&#xe0;" horiz-adv-x="1302" 
d="M596 287q96 0 165.5 75.5t69.5 176.5q0 74 -50 126t-117 52q-90 0 -161 -74t-71 -182q0 -72 49 -123t115 -51zM905 868l29 136h348l-213 -1004h-348l22 111q-4 -6 -12 -14.5t-34.5 -31t-58.5 -40t-82 -31.5t-105 -14q-158 0 -271.5 122.5t-113.5 298.5q0 268 170 445.5
t387 177.5q55 0 105 -16.5t81 -39t53.5 -45t32.5 -38.5zM784 1466l99 -329h-287l-174 329h362z" />
    <glyph glyph-name="aacute" unicode="&#xe1;" horiz-adv-x="1302" 
d="M596 287q96 0 165.5 75.5t69.5 176.5q0 74 -50 126t-117 52q-90 0 -161 -74t-71 -182q0 -72 49 -123t115 -51zM905 868l29 136h348l-213 -1004h-348l22 111q-4 -6 -12 -14.5t-34.5 -31t-58.5 -40t-82 -31.5t-105 -14q-158 0 -271.5 122.5t-113.5 298.5q0 268 170 445.5
t387 177.5q55 0 105 -16.5t81 -39t53.5 -45t32.5 -38.5zM575 1137l242 329h377l-317 -329h-302z" />
    <glyph glyph-name="acircumflex" unicode="&#xe2;" horiz-adv-x="1302" 
d="M596 287q96 0 165.5 75.5t69.5 176.5q0 74 -50 126t-117 52q-90 0 -161 -74t-71 -182q0 -72 49 -123t115 -51zM905 868l29 136h348l-213 -1004h-348l22 111q-4 -6 -12 -14.5t-34.5 -31t-58.5 -40t-82 -31.5t-105 -14q-158 0 -271.5 122.5t-113.5 298.5q0 268 170 445.5
t387 177.5q55 0 105 -16.5t81 -39t53.5 -45t32.5 -38.5zM809 1280l-131 -143h-334l332 327h311l197 -327h-299z" />
    <glyph glyph-name="atilde" unicode="&#xe3;" horiz-adv-x="1302" 
d="M596 287q96 0 165.5 75.5t69.5 176.5q0 74 -50 126t-117 52q-90 0 -161 -74t-71 -182q0 -72 49 -123t115 -51zM905 868l29 136h348l-213 -1004h-348l22 111q-4 -6 -12 -14.5t-34.5 -31t-58.5 -40t-82 -31.5t-105 -14q-158 0 -271.5 122.5t-113.5 298.5q0 268 170 445.5
t387 177.5q55 0 105 -16.5t81 -39t53.5 -45t32.5 -38.5zM682 1219q-72 0 -94 -103h-215q39 176 113.5 262t170.5 86q74 0 142.5 -51t97.5 -51q72 0 94 102h215q-76 -348 -282 -348q-74 0 -143.5 51.5t-98.5 51.5z" />
    <glyph glyph-name="adieresis" unicode="&#xe4;" horiz-adv-x="1302" 
d="M596 287q96 0 165.5 75.5t69.5 176.5q0 74 -50 126t-117 52q-90 0 -161 -74t-71 -182q0 -72 49 -123t115 -51zM905 868l29 136h348l-213 -1004h-348l22 111q-4 -6 -12 -14.5t-34.5 -31t-58.5 -40t-82 -31.5t-105 -14q-158 0 -271.5 122.5t-113.5 298.5q0 268 170 445.5
t387 177.5q55 0 105 -16.5t81 -39t53.5 -45t32.5 -38.5zM379 1276q0 72 61.5 130t137.5 58q66 0 110.5 -47t44.5 -110q0 -74 -61.5 -132.5t-136.5 -58.5q-66 0 -111 48.5t-45 111.5zM850 1276q0 72 61.5 130t137.5 58q66 0 110.5 -47t44.5 -110q0 -74 -61.5 -132.5
t-136.5 -58.5q-66 0 -111 48.5t-45 111.5z" />
    <glyph glyph-name="aring" unicode="&#xe5;" horiz-adv-x="1302" 
d="M596 287q96 0 165.5 75.5t69.5 176.5q0 74 -50 126t-117 52q-90 0 -161 -74t-71 -182q0 -72 49 -123t115 -51zM905 868l29 136h348l-213 -1004h-348l22 111q-4 -6 -12 -14.5t-34.5 -31t-58.5 -40t-82 -31.5t-105 -14q-158 0 -271.5 122.5t-113.5 298.5q0 268 170 445.5
t387 177.5q55 0 105 -16.5t81 -39t53.5 -45t32.5 -38.5zM782 1423q-37 0 -62.5 -26.5t-25.5 -69.5q0 -68 80 -67q35 0 62.5 26.5t27.5 67.5q0 69 -82 69zM1051 1360q0 -106 -89.5 -185t-203.5 -79q-113 0 -182.5 64.5t-69.5 158.5q0 109 87 188.5t206 79.5
q113 0 182.5 -66.5t69.5 -160.5z" />
    <glyph glyph-name="ae" unicode="&#xe6;" horiz-adv-x="1761" 
d="M606 1024q92 0 165 -39t97 -76l27 -39q16 16 47 42t129 69t201 43q188 0 317 -114.5t129 -284.5q0 -31 -5 -66t-13 -61.5t-16.5 -48t-13.5 -31.5t-7 -8h-676q0 -53 55.5 -103.5t147.5 -50.5q59 0 120.5 25.5t94.5 50.5l33 26l106 -231q-20 -16 -56 -41t-148.5 -65.5
t-225.5 -40.5q-70 0 -131 18t-99 43t-67 50.5t-41 43.5l-12 19l-19 -18q-12 -13 -53 -43t-87 -53.5t-118.5 -41.5t-150.5 -18q-162 0 -254 78.5t-92 187.5q0 150 127 242t368 116l199 21q4 20 4 28q0 43 -36 69t-99 26q-59 0 -116.5 -27t-86.5 -53l-28 -27l-142 195
q6 8 18.5 20t54.5 45t88 57.5t118.5 45t146.5 20.5zM1231 758q-68 0 -128.5 -44t-90.5 -110h364v14q0 57 -41 98.5t-104 41.5zM420 246q78 0 137 51t76 133l-146 -10q-72 -4 -113.5 -37t-41.5 -74q0 -25 24.5 -44t63.5 -19z" />
    <glyph glyph-name="ccedilla" unicode="&#xe7;" horiz-adv-x="1105" 
d="M66 428q0 242 189 419t445 177q80 0 154 -21.5t121 -51t83 -59.5t52 -52l16 -21l-241 -207q-8 12 -22.5 29.5t-67 46.5t-111.5 29q-106 0 -181 -73t-75 -181q0 -74 50 -125t130 -51q59 0 114.5 28.5t82.5 57.5l26 26l164 -221q-6 -8 -18 -20.5t-54 -46t-88.5 -59
t-120 -48t-151.5 -24.5l-51 -72q6 0 18.5 -3t41 -14.5t51 -27t41 -47t18.5 -72.5q0 -109 -79 -177.5t-210 -68.5q-68 0 -130 25.5t-91 50.5l-29 27l107 131q49 -59 121 -60q86 0 86 64q0 39 -56 39l-51 -11l-47 72l109 162q-152 43 -249 164t-97 266z" />
    <glyph glyph-name="egrave" unicode="&#xe8;" horiz-adv-x="1187" 
d="M1100 410h-690q14 -70 70.5 -112t142.5 -42q63 0 124.5 24.5t90.5 49.5l28 24l107 -229q-6 -6 -18.5 -15.5t-54.5 -35t-87 -45t-117.5 -34.5t-146.5 -15q-205 0 -345.5 131t-140.5 311q0 248 187.5 425t439.5 177q195 0 325 -114.5t130 -284.5q0 -106 -45 -215zM649 758
q-135 0 -205 -144h361q-2 61 -45 102.5t-111 41.5zM770 1466l98 -329h-286l-174 329h362z" />
    <glyph glyph-name="eacute" unicode="&#xe9;" horiz-adv-x="1187" 
d="M1100 410h-690q14 -70 70.5 -112t142.5 -42q63 0 124.5 24.5t90.5 49.5l28 24l107 -229q-6 -6 -18.5 -15.5t-54.5 -35t-87 -45t-117.5 -34.5t-146.5 -15q-205 0 -345.5 131t-140.5 311q0 248 187.5 425t439.5 177q195 0 325 -114.5t130 -284.5q0 -106 -45 -215zM649 758
q-135 0 -205 -144h361q-2 61 -45 102.5t-111 41.5zM565 1137l242 329h377l-318 -329h-301z" />
    <glyph glyph-name="ecircumflex" unicode="&#xea;" horiz-adv-x="1187" 
d="M1100 410h-690q14 -70 70.5 -112t142.5 -42q63 0 124.5 24.5t90.5 49.5l28 24l107 -229q-6 -6 -18.5 -15.5t-54.5 -35t-87 -45t-117.5 -34.5t-146.5 -15q-205 0 -345.5 131t-140.5 311q0 248 187.5 425t439.5 177q195 0 325 -114.5t130 -284.5q0 -106 -45 -215zM649 758
q-135 0 -205 -144h361q-2 61 -45 102.5t-111 41.5zM764 1280l-131 -143h-334l332 327h311l197 -327h-299z" />
    <glyph glyph-name="edieresis" unicode="&#xeb;" horiz-adv-x="1187" 
d="M1100 410h-690q14 -70 70.5 -112t142.5 -42q63 0 124.5 24.5t90.5 49.5l28 24l107 -229q-6 -6 -18.5 -15.5t-54.5 -35t-87 -45t-117.5 -34.5t-146.5 -15q-205 0 -345.5 131t-140.5 311q0 248 187.5 425t439.5 177q195 0 325 -114.5t130 -284.5q0 -106 -45 -215zM649 758
q-135 0 -205 -144h361q-2 61 -45 102.5t-111 41.5zM340 1276q0 72 61.5 130t137.5 58q66 0 110.5 -47t44.5 -110q0 -74 -61.5 -132.5t-136.5 -58.5q-66 0 -111 48.5t-45 111.5zM811 1276q0 72 61.5 130t137.5 58q66 0 110.5 -47t44.5 -110q0 -74 -61.5 -132.5t-136.5 -58.5
q-66 0 -111 48.5t-45 111.5z" />
    <glyph glyph-name="igrave" unicode="&#xec;" horiz-adv-x="614" 
d="M481 1466l99 -329h-287l-174 329h362zM592 1004l-213 -1004h-348l213 1004h348z" />
    <glyph glyph-name="iacute" unicode="&#xed;" horiz-adv-x="614" 
d="M289 1137l241 329h377l-317 -329h-301zM592 1004l-213 -1004h-348l213 1004h348z" />
    <glyph glyph-name="icircumflex" unicode="&#xee;" horiz-adv-x="614" 
d="M592 1004l-213 -1004h-348l213 1004h348zM469 1280l-131 -143h-334l332 327h311l197 -327h-299z" />
    <glyph glyph-name="idieresis" unicode="&#xef;" horiz-adv-x="614" 
d="M61 1276q0 72 61.5 130t137.5 58q66 0 111 -47t45 -110q0 -74 -61.5 -132.5t-137.5 -58.5q-66 0 -111 48.5t-45 111.5zM532 1276q0 72 61.5 130t137.5 58q66 0 111 -47t45 -110q0 -74 -61.5 -132.5t-137.5 -58.5q-66 0 -111 48.5t-45 111.5zM592 1004l-213 -1004h-348
l213 1004h348z" />
    <glyph glyph-name="eth" unicode="&#xf0;" 
d="M889 846q-6 84 -40 158.5t-63 109.5l-30 33l-244 -133l-94 184l117 72q-76 31 -152 51l135 256q104 -27 187 -57.5t114 -49.5l31 -16l258 154l104 -185l-186 -112q6 -8 17.5 -22.5t41 -64.5t51 -105.5t40 -142.5t18.5 -177q0 -383 -192.5 -601t-483.5 -218
q-197 0 -334 133t-137 303q0 225 169 386t386 161q55 0 105.5 -12.5t82 -29t55 -34t34.5 -29.5zM555 287q84 0 148.5 66.5t64.5 154.5q0 61 -41 104t-100 43q-80 0 -147.5 -65.5t-67.5 -153.5q0 -63 42 -106t101 -43z" />
    <glyph glyph-name="ntilde" unicode="&#xf1;" 
d="M582 1004l-25 -113q12 14 35.5 36.5t100.5 59.5t159 37q137 0 223 -87t86 -232q0 -53 -12 -111l-125 -594h-348l112 532q4 29 5 39q0 57 -36 91t-89 34q-70 0 -122 -56t-73 -148l-104 -492h-349l213 1004h349zM684 1219q-72 0 -94 -103h-215q39 176 113.5 262t170.5 86
q74 0 142.5 -51t97.5 -51q72 0 94 102h215q-76 -348 -282 -348q-74 0 -143.5 51.5t-98.5 51.5z" />
    <glyph glyph-name="ograve" unicode="&#xf2;" 
d="M657 717q-90 0 -159.5 -77t-69.5 -171q0 -78 48 -130t122 -52q86 0 157.5 74.5t71.5 175.5q0 80 -48 130t-122 50zM1192 547q0 -225 -183.5 -396t-422.5 -171q-227 0 -373.5 142t-146.5 337q0 223 182 394t424 171q227 0 373.5 -141t146.5 -336zM778 1466l99 -329h-287
l-174 329h362z" />
    <glyph glyph-name="oacute" unicode="&#xf3;" 
d="M657 717q-90 0 -159.5 -77t-69.5 -171q0 -78 48 -130t122 -52q86 0 157.5 74.5t71.5 175.5q0 80 -48 130t-122 50zM1192 547q0 -225 -183.5 -396t-422.5 -171q-227 0 -373.5 142t-146.5 337q0 223 182 394t424 171q227 0 373.5 -141t146.5 -336zM580 1137l241 329h377
l-317 -329h-301z" />
    <glyph glyph-name="ocircumflex" unicode="&#xf4;" 
d="M657 717q-90 0 -159.5 -77t-69.5 -171q0 -78 48 -130t122 -52q86 0 157.5 74.5t71.5 175.5q0 80 -48 130t-122 50zM1192 547q0 -225 -183.5 -396t-422.5 -171q-227 0 -373.5 142t-146.5 337q0 223 182 394t424 171q227 0 373.5 -141t146.5 -336zM760 1280l-131 -143h-334
l332 327h311l197 -327h-299z" />
    <glyph glyph-name="otilde" unicode="&#xf5;" 
d="M657 717q-90 0 -159.5 -77t-69.5 -171q0 -78 48 -130t122 -52q86 0 157.5 74.5t71.5 175.5q0 80 -48 130t-122 50zM1192 547q0 -225 -183.5 -396t-422.5 -171q-227 0 -373.5 142t-146.5 337q0 223 182 394t424 171q227 0 373.5 -141t146.5 -336zM633 1219q-72 0 -94 -103
h-215q39 176 113.5 262t170.5 86q74 0 142.5 -51t97.5 -51q72 0 94 102h215q-76 -348 -283 -348q-74 0 -143 51.5t-98 51.5z" />
    <glyph glyph-name="odieresis" unicode="&#xf6;" 
d="M657 717q-90 0 -159.5 -77t-69.5 -171q0 -78 48 -130t122 -52q86 0 157.5 74.5t71.5 175.5q0 80 -48 130t-122 50zM1192 547q0 -225 -183.5 -396t-422.5 -171q-227 0 -373.5 142t-146.5 337q0 223 182 394t424 171q227 0 373.5 -141t146.5 -336zM352 1276q0 72 61.5 130
t137.5 58q66 0 111 -47t45 -110q0 -74 -61.5 -132.5t-137.5 -58.5q-66 0 -111 48.5t-45 111.5zM823 1276q0 72 61.5 130t137.5 58q66 0 111 -47t45 -110q0 -74 -61.5 -132.5t-137.5 -58.5q-66 0 -111 48.5t-45 111.5z" />
    <glyph glyph-name="divide" unicode="&#xf7;" horiz-adv-x="1085" 
d="M463 983q0 74 64.5 128t148.5 54q80 0 131 -48t51 -111q0 -76 -61.5 -131.5t-151.5 -55.5q-82 0 -132 49t-50 115zM1075 727l-53 -246h-942l53 246h942zM297 205q0 74 64.5 128t148.5 54q80 0 131 -48t51 -112q0 -76 -61.5 -131t-151.5 -55q-82 0 -132 49t-50 115z" />
    <glyph glyph-name="oslash" unicode="&#xf8;" 
d="M1192 547q0 -225 -185.5 -396t-420.5 -171q-166 0 -301 86l-179 -152l-133 172l160 137q-68 109 -67 236q0 223 183 394t423 171q164 0 299 -86l178 152l133 -172l-158 -136q68 -112 68 -235zM598 287q84 0 155.5 71.5t73.5 169.5l-276 -235q22 -6 47 -6zM657 717
q-88 0 -157.5 -75t-71.5 -167l277 236q-25 6 -48 6z" />
    <glyph glyph-name="ugrave" unicode="&#xf9;" horiz-adv-x="1259" 
d="M676 0l20 102q-12 -14 -33.5 -34.5t-95 -54t-155.5 -33.5q-141 0 -230.5 86t-89.5 229q0 49 12 104l129 605h349l-117 -543q-4 -25 -4 -35q0 -55 32.5 -87t88.5 -32q70 0 125 50.5t73 134.5l109 512h348l-213 -1004h-348zM791 1466l98 -329h-287l-174 329h363z" />
    <glyph glyph-name="uacute" unicode="&#xfa;" horiz-adv-x="1259" 
d="M676 0l20 102q-12 -14 -33.5 -34.5t-95 -54t-155.5 -33.5q-141 0 -230.5 86t-89.5 229q0 49 12 104l129 605h349l-117 -543q-4 -25 -4 -35q0 -55 32.5 -87t88.5 -32q70 0 125 50.5t73 134.5l109 512h348l-213 -1004h-348zM586 1137l241 329h377l-317 -329h-301z" />
    <glyph glyph-name="ucircumflex" unicode="&#xfb;" horiz-adv-x="1259" 
d="M676 0l20 102q-12 -14 -33.5 -34.5t-95 -54t-155.5 -33.5q-141 0 -230.5 86t-89.5 229q0 49 12 104l129 605h349l-117 -543q-4 -25 -4 -35q0 -55 32.5 -87t88.5 -32q70 0 125 50.5t73 134.5l109 512h348l-213 -1004h-348zM778 1280l-131 -143h-334l332 327h311l197 -327
h-299z" />
    <glyph glyph-name="udieresis" unicode="&#xfc;" horiz-adv-x="1259" 
d="M676 0l20 102q-12 -14 -33.5 -34.5t-95 -54t-155.5 -33.5q-141 0 -230.5 86t-89.5 229q0 49 12 104l129 605h349l-117 -543q-4 -25 -4 -35q0 -55 32.5 -87t88.5 -32q70 0 125 50.5t73 134.5l109 512h348l-213 -1004h-348zM356 1276q0 72 61.5 130t137.5 58q66 0 111 -47
t45 -110q0 -74 -61.5 -132.5t-137.5 -58.5q-66 0 -111 48.5t-45 111.5zM827 1276q0 72 61.5 130t137.5 58q66 0 111 -47t45 -110q0 -74 -61.5 -132.5t-137.5 -58.5q-66 0 -111 48.5t-45 111.5z" />
    <glyph glyph-name="yacute" unicode="&#xfd;" horiz-adv-x="1105" 
d="M231 -20l37 49l-157 975h352l63 -584l310 584h381l-592 -1004q-133 -225 -256 -327.5t-267 -102.5q-49 0 -98 8t-74 16l-24 7l63 307q39 -20 101 -21q98 1 161 93zM500 1137l241 329h377l-317 -329h-301z" />
    <glyph glyph-name="thorn" unicode="&#xfe;" horiz-adv-x="1310" 
d="M725 717q-96 0 -166 -76t-70 -176q0 -74 50.5 -126t117.5 -52q90 0 161 73.5t71 182.5q0 72 -49 123t-115 51zM416 135l-119 -565h-348l395 1864h348l-114 -541q4 6 12 14t34.5 31t58.5 40t82 31.5t105 14.5q158 0 271.5 -123t113.5 -299q0 -268 -170 -445t-387 -177
q-55 0 -105 16t-81 38.5t-53.5 45t-32.5 39.5z" />
    <glyph glyph-name="ydieresis" unicode="&#xff;" horiz-adv-x="1105" 
d="M231 -20l37 49l-157 975h352l63 -584l310 584h381l-592 -1004q-133 -225 -256 -327.5t-267 -102.5q-49 0 -98 8t-74 16l-24 7l63 307q39 -20 101 -21q98 1 161 93zM285 1276q0 72 61.5 130t136.5 58q66 0 111 -47t45 -110q0 -74 -61.5 -132.5t-137.5 -58.5
q-66 0 -110.5 48.5t-44.5 111.5zM756 1276q0 72 61.5 130t136.5 58q66 0 111 -47t45 -110q0 -74 -61.5 -132.5t-137.5 -58.5q-66 0 -110.5 48.5t-44.5 111.5z" />
    <glyph glyph-name="Amacron" unicode="&#x100;" horiz-adv-x="1515" 
d="M944 614l-45 420l-221 -420h266zM981 307h-471l-166 -307h-436l846 1434h430l239 -1434h-403zM1384 1915l-57 -266h-676l58 266h675z" />
    <glyph glyph-name="amacron" unicode="&#x101;" horiz-adv-x="1302" 
d="M596 287q96 0 165.5 75.5t69.5 176.5q0 74 -50 126t-117 52q-90 0 -161 -74t-71 -182q0 -72 49 -123t115 -51zM905 868l29 136h348l-213 -1004h-348l22 111q-4 -6 -12 -14.5t-34.5 -31t-58.5 -40t-82 -31.5t-105 -14q-158 0 -271.5 122.5t-113.5 298.5q0 268 170 445.5
t387 177.5q55 0 105 -16.5t81 -39t53.5 -45t32.5 -38.5zM1159 1464l-57 -266h-676l57 266h676z" />
    <glyph glyph-name="Abreve" unicode="&#x102;" horiz-adv-x="1515" 
d="M944 614l-45 420l-221 -420h266zM981 307h-471l-166 -307h-436l846 1434h430l239 -1434h-403zM1008 1597q-154 0 -244 95.5t-62 232.5h246q-8 -45 15.5 -73.5t70.5 -28.5q45 0 77 27.5t42 74.5h246q-31 -143 -136 -235.5t-255 -92.5z" />
    <glyph glyph-name="abreve" unicode="&#x103;" horiz-adv-x="1302" 
d="M596 287q96 0 165.5 75.5t69.5 176.5q0 74 -50 126t-117 52q-90 0 -161 -74t-71 -182q0 -72 49 -123t115 -51zM905 868l29 136h348l-213 -1004h-348l22 111q-4 -6 -12 -14.5t-34.5 -31t-58.5 -40t-82 -31.5t-105 -14q-158 0 -271.5 122.5t-113.5 298.5q0 268 170 445.5
t387 177.5q55 0 105 -16.5t81 -39t53.5 -45t32.5 -38.5zM766 1137q-154 0 -244 95t-61 232h246q-8 -45 15 -73.5t71 -28.5q45 0 76.5 27.5t41.5 74.5h246q-31 -143 -136 -235t-255 -92z" />
    <glyph glyph-name="Aogonek" unicode="&#x104;" horiz-adv-x="1515" 
d="M1020 0l-39 307h-471l-166 -307h-436l846 1434h430l239 -1434h-249q-109 -117 -109 -225q0 -61 68 -62q27 0 54 8.5t42 16.5l12 6l-39 -184q-80 -41 -192 -41q-94 0 -148.5 51t-54.5 131q0 37 12 73t30.5 64.5t41 54t45 45t42 34t30.5 20.5zM944 614l-45 420l-221 -420
h266z" />
    <glyph glyph-name="aogonek" unicode="&#x105;" horiz-adv-x="1302" 
d="M596 287q96 0 165.5 75.5t69.5 176.5q0 74 -50 126t-117 52q-90 0 -161 -74t-71 -182q0 -72 49 -123t115 -51zM721 0l22 111q-4 -6 -12 -14.5t-34.5 -31t-58.5 -40t-82 -31.5t-105 -14q-158 0 -271.5 122.5t-113.5 298.5q0 268 170 445.5t387 177.5q55 0 105 -16.5
t81 -39t53.5 -45t32.5 -38.5l10 -17l29 136h348l-213 -1004h-195q-109 -117 -108 -225q0 -61 68 -62q27 0 54 8.5t42 16.5l12 6l-39 -184q-80 -41 -192 -41q-94 0 -148.5 51t-54.5 131q0 37 12 73t30.5 64.5t41 54t45 45t42 34t30.5 20.5z" />
    <glyph glyph-name="Cacute" unicode="&#x106;" horiz-adv-x="1536" 
d="M1014 1126q-201 0 -347.5 -143t-146.5 -348q0 -141 94.5 -234.5t243.5 -93.5q70 0 137.5 20.5t115.5 49.5t86 58.5t56 49.5l21 21l180 -260q-10 -12 -27.5 -31.5t-80 -69t-132 -87.5t-181 -68.5t-228.5 -30.5q-291 0 -485.5 196.5t-194.5 458.5q0 352 271.5 606.5
t650.5 254.5q115 0 218 -30t169.5 -72t117 -84t70.5 -72l23 -29l-277 -234q-4 6 -13 18.5t-41 42t-70 52.5t-100 41t-130 18zM903 1597l242 330h377l-318 -330h-301z" />
    <glyph glyph-name="cacute" unicode="&#x107;" horiz-adv-x="1105" 
d="M66 428q0 242 189 419t445 177q80 0 154 -21.5t121 -51t83 -59.5t52 -52l16 -21l-241 -207q-8 12 -22.5 29.5t-67 46.5t-111.5 29q-106 0 -181 -73t-75 -181q0 -74 50 -125t130 -51q59 0 114.5 28.5t82.5 57.5l26 26l164 -221q-6 -8 -19 -21.5t-56 -47t-91.5 -60
t-125 -48t-156.5 -21.5q-199 0 -340 135t-141 313zM555 1137l242 329h377l-318 -329h-301z" />
    <glyph glyph-name="Ccircumflex" unicode="&#x108;" horiz-adv-x="1536" 
d="M1014 1126q-201 0 -347.5 -143t-146.5 -348q0 -141 94.5 -234.5t243.5 -93.5q70 0 137.5 20.5t115.5 49.5t86 58.5t56 49.5l21 21l180 -260q-10 -12 -27.5 -31.5t-80 -69t-132 -87.5t-181 -68.5t-228.5 -30.5q-291 0 -485.5 196.5t-194.5 458.5q0 352 271.5 606.5
t650.5 254.5q115 0 218 -30t169.5 -72t117 -84t70.5 -72l23 -29l-277 -234q-4 6 -13 18.5t-41 42t-70 52.5t-100 41t-130 18zM1106 1741l-131 -144h-334l332 328h311l197 -328h-299z" />
    <glyph glyph-name="ccircumflex" unicode="&#x109;" horiz-adv-x="1105" 
d="M66 428q0 242 189 419t445 177q80 0 154 -21.5t121 -51t83 -59.5t52 -52l16 -21l-241 -207q-8 12 -22.5 29.5t-67 46.5t-111.5 29q-106 0 -181 -73t-75 -181q0 -74 50 -125t130 -51q59 0 114.5 28.5t82.5 57.5l26 26l164 -221q-6 -8 -19 -21.5t-56 -47t-91.5 -60
t-125 -48t-156.5 -21.5q-199 0 -340 135t-141 313zM764 1280l-131 -143h-334l332 327h311l197 -327h-299z" />
    <glyph glyph-name="Ccaron" unicode="&#x10c;" horiz-adv-x="1536" 
d="M1014 1126q-201 0 -347.5 -143t-146.5 -348q0 -141 94.5 -234.5t243.5 -93.5q70 0 137.5 20.5t115.5 49.5t86 58.5t56 49.5l21 21l180 -260q-10 -12 -27.5 -31.5t-80 -69t-132 -87.5t-181 -68.5t-228.5 -30.5q-291 0 -485.5 196.5t-194.5 458.5q0 352 271.5 606.5
t650.5 254.5q115 0 218 -30t169.5 -72t117 -84t70.5 -72l23 -29l-277 -234q-4 6 -13 18.5t-41 42t-70 52.5t-100 41t-130 18zM1100 1782l131 143h334l-332 -328h-311l-197 328h299z" />
    <glyph glyph-name="ccaron" unicode="&#x10d;" horiz-adv-x="1105" 
d="M66 428q0 242 189 419t445 177q80 0 154 -21.5t121 -51t83 -59.5t52 -52l16 -21l-241 -207q-8 12 -22.5 29.5t-67 46.5t-111.5 29q-106 0 -181 -73t-75 -181q0 -74 50 -125t130 -51q59 0 114.5 28.5t82.5 57.5l26 26l164 -221q-6 -8 -19 -21.5t-56 -47t-91.5 -60
t-125 -48t-156.5 -21.5q-199 0 -340 135t-141 313zM739 1321l131 143h334l-332 -327h-311l-196 327h299z" />
    <glyph glyph-name="Dcaron" unicode="&#x10e;" horiz-adv-x="1556" 
d="M375 1434h522q281 0 467 -184.5t186 -436.5q0 -346 -257 -579.5t-625 -233.5h-596zM846 1085h-156l-155 -737h159q172 0 315.5 128t143.5 315q0 127 -85 210.5t-222 83.5zM938 1782l131 143h334l-332 -328h-311l-197 328h299z" />
    <glyph glyph-name="dcaron" unicode="&#x10f;" horiz-adv-x="1474" 
d="M592 287q96 0 165.5 75.5t69.5 176.5q0 74 -50 126t-118 52q-90 0 -160.5 -74t-70.5 -182q0 -72 49 -123t115 -51zM901 868l119 566h348l-303 -1434h-348l22 111q-4 -6 -12 -14.5t-34.5 -31t-58.5 -40t-82 -31.5t-106 -14q-158 0 -271.5 122.5t-113.5 298.5
q0 268 170 445.5t387 177.5q55 0 105.5 -16.5t81.5 -39t53.5 -45t32.5 -38.5zM1348 1106l165 328h336l-223 -328h-278z" />
    <glyph glyph-name="Dcroat" unicode="&#x110;" horiz-adv-x="1597" 
d="M416 1434h522q281 0 467 -184.5t186 -436.5q0 -346 -257 -579.5t-625 -233.5h-596l120 573h-153l61 287h152zM887 1085h-156l-49 -225h238l-62 -287h-235l-48 -225h160q172 0 315.5 128t143.5 315q0 127 -85 210.5t-222 83.5z" />
    <glyph glyph-name="dcroat" unicode="&#x111;" horiz-adv-x="1290" 
d="M684 1004l61 296h216l28 134h348l-28 -134h153l-61 -296h-154l-213 -1004h-348l21 102q-12 -14 -34 -34.5t-98.5 -54t-162.5 -33.5q-152 0 -260.5 117.5t-108.5 281.5q0 240 159.5 401.5t364.5 161.5q59 0 110.5 -14.5t83.5 -36t53.5 -43t29.5 -35.5l10 -14l45 205h-215z
M561 266q88 0 156.5 70t68.5 168q0 66 -42 108.5t-107 42.5q-88 0 -157.5 -68.5t-69.5 -166.5q0 -66 42.5 -110t108.5 -44z" />
    <glyph glyph-name="Emacron" unicode="&#x112;" horiz-adv-x="1372" 
d="M530 328h738l-70 -328h-1126l303 1434h1106l-70 -328h-717l-47 -225h553l-65 -308h-553zM1350 1915l-58 -266h-676l58 266h676z" />
    <glyph glyph-name="emacron" unicode="&#x113;" horiz-adv-x="1187" 
d="M1100 410h-690q14 -70 70.5 -112t142.5 -42q63 0 124.5 24.5t90.5 49.5l28 24l107 -229q-6 -6 -18.5 -15.5t-54.5 -35t-87 -45t-117.5 -34.5t-146.5 -15q-205 0 -345.5 131t-140.5 311q0 248 187.5 425t439.5 177q195 0 325 -114.5t130 -284.5q0 -106 -45 -215zM649 758
q-135 0 -205 -144h361q-2 61 -45 102.5t-111 41.5zM1114 1444l-57 -266h-676l57 266h676z" />
    <glyph glyph-name="Edotaccent" unicode="&#x116;" horiz-adv-x="1372" 
d="M530 328h738l-70 -328h-1126l303 1434h1106l-70 -328h-717l-47 -225h553l-65 -308h-553zM1184 1782q0 -80 -64.5 -142.5t-150.5 -62.5q-82 0 -132.5 46t-50.5 116q0 84 64.5 145.5t153.5 61.5q80 0 130 -48t50 -116z" />
    <glyph glyph-name="edotaccent" unicode="&#x117;" horiz-adv-x="1187" 
d="M1100 410h-690q14 -70 70.5 -112t142.5 -42q63 0 124.5 24.5t90.5 49.5l28 24l107 -229q-6 -6 -18.5 -15.5t-54.5 -35t-87 -45t-117.5 -34.5t-146.5 -15q-205 0 -345.5 131t-140.5 311q0 248 187.5 425t439.5 177q195 0 325 -114.5t130 -284.5q0 -106 -45 -215zM649 758
q-135 0 -205 -144h361q-2 61 -45 102.5t-111 41.5zM958 1333q0 -80 -64.5 -142.5t-150.5 -62.5q-82 0 -132 46.5t-50 115.5q0 84 64.5 145.5t152.5 61.5q80 0 130 -48t50 -116z" />
    <glyph glyph-name="Eogonek" unicode="&#x118;" horiz-adv-x="1372" 
d="M1044 0h-972l303 1434h1106l-70 -328h-717l-47 -225h553l-65 -308h-553l-52 -245h738l-70 -328q-109 -117 -108 -225q0 -61 67 -62q27 0 54.5 8.5t41.5 16.5l13 6l-39 -184q-80 -41 -193 -41q-94 0 -148.5 51t-54.5 131q0 37 12.5 73t31 64.5t41 54t45 45t42 34
t29.5 20.5z" />
    <glyph glyph-name="eogonek" unicode="&#x119;" horiz-adv-x="1187" 
d="M1100 410h-690q14 -70 70.5 -112t142.5 -42q63 0 124.5 25.5t90.5 50.5l28 24l107 -231q-14 -14 -44 -35.5t-124 -60.5t-197 -47q-92 -113 -92 -207q0 -61 68 -62q27 0 54.5 8.5t41.5 16.5l12 6l-39 -184q-80 -41 -192 -41q-94 0 -148.5 51t-54.5 131q0 66 41 131.5
t79 98t75 57.5q-170 31 -280 154.5t-110 279.5q0 248 187.5 425t439.5 177q195 0 325 -114.5t130 -284.5q0 -106 -45 -215zM649 758q-135 0 -205 -144h361q-2 61 -45 102.5t-111 41.5z" />
    <glyph glyph-name="Ecaron" unicode="&#x11a;" horiz-adv-x="1372" 
d="M530 328h738l-70 -328h-1126l303 1434h1106l-70 -328h-717l-47 -225h553l-65 -308h-553zM973 1782l131 143h334l-332 -328h-311l-197 328h299z" />
    <glyph glyph-name="ecaron" unicode="&#x11b;" horiz-adv-x="1187" 
d="M1100 410h-690q14 -70 70.5 -112t142.5 -42q63 0 124.5 24.5t90.5 49.5l28 24l107 -229q-6 -6 -18.5 -15.5t-54.5 -35t-87 -45t-117.5 -34.5t-146.5 -15q-205 0 -345.5 131t-140.5 311q0 248 187.5 425t439.5 177q195 0 325 -114.5t130 -284.5q0 -106 -45 -215zM649 758
q-135 0 -205 -144h361q-2 61 -45 102.5t-111 41.5zM748 1321l131 143h333l-331 -327h-312l-196 327h299z" />
    <glyph glyph-name="Gbreve" unicode="&#x11e;" horiz-adv-x="1658" 
d="M815 -41q-291 0 -490.5 196.5t-199.5 458.5q0 352 274.5 606.5t653.5 254.5q115 0 218 -30t167.5 -72t114 -84t69.5 -72l23 -29l-277 -234q-4 6 -13 18.5t-42 42t-70 52.5t-98.5 41t-126.5 18q-201 0 -349.5 -144t-148.5 -353q0 -139 94.5 -230.5t243.5 -91.5
q74 0 138.5 22.5t93.5 47.5l28 22l33 154h-225l51 246h614l-116 -553q-10 -12 -30 -31.5t-84.5 -69t-136 -87.5t-183 -68.5t-226.5 -30.5zM1083 1597q-154 0 -243.5 95.5t-61.5 232.5h246q-8 -45 15.5 -73.5t70.5 -28.5q45 0 77 27.5t42 74.5h246q-31 -143 -136.5 -235.5
t-255.5 -92.5z" />
    <glyph glyph-name="gbreve" unicode="&#x11f;" horiz-adv-x="1269" 
d="M719 113l14 59q-4 -6 -13 -14t-39 -31t-62.5 -40t-85 -31.5t-105.5 -14.5q-141 0 -249.5 121t-108.5 284q0 236 163.5 407t354.5 171q88 0 160.5 -39t103.5 -78l29 -39l28 136h348l-190 -891q-49 -229 -228.5 -386t-418.5 -157q-90 0 -171 22.5t-132 53t-90 62.5t-56 54
l-18 23l231 201q8 -12 24.5 -33t76 -53.5t133.5 -32.5q115 0 195.5 67.5t105.5 178.5zM651 717q-84 0 -149.5 -62.5t-65.5 -152.5q0 -63 46 -108.5t112 -45.5q88 0 152.5 63.5t64.5 149.5q0 63 -47 109.5t-113 46.5zM768 1137q-154 0 -244 95t-61 232h246q-8 -45 15.5 -73.5
t70.5 -28.5q45 0 76.5 27.5t41.5 74.5h246q-31 -143 -136 -235t-255 -92z" />
    <glyph glyph-name="uni0122" unicode="&#x122;" horiz-adv-x="1658" 
d="M815 -41q-291 0 -490.5 196.5t-199.5 458.5q0 352 274.5 606.5t653.5 254.5q115 0 218 -30t167.5 -72t114 -84t69.5 -72l23 -29l-277 -234q-4 6 -13 18.5t-42 42t-70 52.5t-98.5 41t-126.5 18q-201 0 -349.5 -144t-148.5 -353q0 -139 94.5 -230.5t243.5 -91.5
q74 0 138.5 22.5t93.5 47.5l28 22l33 154h-225l51 246h614l-116 -553q-10 -12 -30 -31.5t-84.5 -69t-136 -87.5t-183 -68.5t-226.5 -30.5zM465 -492l166 328h336l-224 -328h-278z" />
    <glyph glyph-name="uni0123" unicode="&#x123;" horiz-adv-x="1269" 
d="M719 113l14 59q-4 -6 -13 -14t-39 -31t-62.5 -40t-85 -31.5t-105.5 -14.5q-141 0 -249.5 121t-108.5 284q0 236 163.5 407t354.5 171q88 0 160.5 -39t103.5 -78l29 -39l28 136h348l-190 -891q-49 -229 -228.5 -386t-418.5 -157q-90 0 -171 22.5t-132 53t-90 62.5t-56 54
l-18 23l231 201q8 -12 24.5 -33t76 -53.5t133.5 -32.5q115 0 195.5 67.5t105.5 178.5zM651 717q-84 0 -149.5 -62.5t-65.5 -152.5q0 -63 46 -108.5t112 -45.5q88 0 152.5 63.5t64.5 149.5q0 63 -47 109.5t-113 46.5zM1047 1464l-168 -327h-336l219 327h285z" />
    <glyph glyph-name="Imacron" unicode="&#x12a;" horiz-adv-x="716" 
d="M72 0l303 1434h389l-303 -1434h-389zM997 1915l-57 -266h-676l58 266h675z" />
    <glyph glyph-name="imacron" unicode="&#x12b;" horiz-adv-x="614" 
d="M836 1444l-58 -266h-676l58 266h676zM592 1004l-213 -1004h-348l213 1004h348z" />
    <glyph glyph-name="Iogonek" unicode="&#x12e;" horiz-adv-x="716" 
d="M72 0l303 1434h389l-303 -1434h-236q-109 -117 -108 -225q0 -61 67 -62q27 0 54.5 8.5t40.5 16.5l14 6l-39 -184q-80 -41 -193 -41q-94 0 -148 51t-54 131q0 37 12 73t30.5 64.5t41 54t45 45t42 34t31.5 20.5z" />
    <glyph glyph-name="iogonek" unicode="&#x12f;" horiz-adv-x="614" 
d="M31 0l213 1004h348l-213 -1004h-195q-109 -117 -108 -225q0 -61 67 -62q27 0 54.5 8.5t40.5 16.5l14 6l-39 -184q-80 -41 -193 -41q-94 0 -148 51t-54 131q0 37 12 73t30.5 64.5t41 54t45 45t42 34t31.5 20.5zM276 1278q0 80 63.5 143.5t154.5 63.5q80 0 130 -48t50 -116
q0 -82 -64.5 -143.5t-150.5 -61.5q-82 0 -132.5 46t-50.5 116z" />
    <glyph glyph-name="Idotaccent" unicode="&#x130;" horiz-adv-x="716" 
d="M72 0l303 1434h389l-303 -1434h-389zM825 1782q0 -80 -64.5 -142.5t-150.5 -62.5q-82 0 -132 46t-50 116q0 84 64.5 145.5t152.5 61.5q80 0 130 -48t50 -116z" />
    <glyph glyph-name="dotlessi" unicode="&#x131;" horiz-adv-x="614" 
d="M592 1004l-213 -1004h-348l213 1004h348z" />
    <glyph glyph-name="uni0136" unicode="&#x136;" horiz-adv-x="1495" 
d="M745 549l-208 -191l-76 -358h-389l303 1434h389l-113 -531l553 531h482l-637 -607l374 -827h-430zM381 -492l166 328h336l-224 -328h-278z" />
    <glyph glyph-name="uni0137" unicode="&#x137;" horiz-adv-x="1177" 
d="M827 567l258 -567h-370l-162 358l-123 -110l-51 -248h-348l303 1434h348l-162 -766l354 336h414zM211 -492l166 328h336l-224 -328h-278z" />
    <glyph glyph-name="Lacute" unicode="&#x139;" horiz-adv-x="1228" 
d="M1096 0h-1024l303 1434h389l-229 -1086h634zM453 1597l241 330h377l-317 -330h-301z" />
    <glyph glyph-name="lacute" unicode="&#x13a;" horiz-adv-x="614" 
d="M682 1434l-303 -1434h-348l303 1434h348zM389 1597l242 330h377l-318 -330h-301z" />
    <glyph glyph-name="uni013B" unicode="&#x13b;" horiz-adv-x="1228" 
d="M1096 0h-1024l303 1434h389l-229 -1086h634zM250 -492l166 328h336l-224 -328h-278z" />
    <glyph glyph-name="uni013C" unicode="&#x13c;" horiz-adv-x="614" 
d="M682 1434l-303 -1434h-348l303 1434h348zM-158 -492l166 328h336l-223 -328h-279z" />
    <glyph glyph-name="Lcaron" unicode="&#x13d;" horiz-adv-x="1228" 
d="M1096 0h-1024l303 1434h389l-229 -1086h634zM786 1106l168 328h336l-223 -328h-281z" />
    <glyph glyph-name="lcaron" unicode="&#x13e;" horiz-adv-x="798" 
d="M682 1434l-303 -1434h-348l303 1434h348zM674 1106l168 328h336l-224 -328h-280z" />
    <glyph glyph-name="Lslash" unicode="&#x141;" horiz-adv-x="1351" 
d="M1219 0h-1024l90 430l-170 -82l-103 297l357 174l129 615h389l-86 -410l170 82l100 -297l-354 -174l-60 -287h635z" />
    <glyph glyph-name="lslash" unicode="&#x142;" horiz-adv-x="819" 
d="M784 1434l-90 -430l172 92l99 -267l-349 -184l-135 -645h-348l92 440l-159 -82l-99 267l334 174l135 635h348z" />
    <glyph glyph-name="Nacute" unicode="&#x143;" horiz-adv-x="1669" 
d="M1327 1434h389l-303 -1434h-330l-454 799l-168 -799h-389l303 1434h332l450 -799zM885 1597l241 330h377l-317 -330h-301z" />
    <glyph glyph-name="nacute" unicode="&#x144;" 
d="M582 1004l-25 -113q12 14 35.5 36.5t100.5 59.5t159 37q137 0 223 -87t86 -232q0 -53 -12 -111l-125 -594h-348l112 532q4 29 5 39q0 57 -36 91t-89 34q-70 0 -122 -56t-73 -148l-104 -492h-349l213 1004h349zM612 1137l242 329h377l-318 -329h-301z" />
    <glyph glyph-name="uni0145" unicode="&#x145;" horiz-adv-x="1669" 
d="M1327 1434h389l-303 -1434h-330l-454 799l-168 -799h-389l303 1434h332l450 -799zM440 -492l166 328h336l-223 -328h-279z" />
    <glyph glyph-name="uni0146" unicode="&#x146;" 
d="M582 1004l-25 -113q12 14 35.5 36.5t100.5 59.5t159 37q137 0 223 -87t86 -232q0 -53 -12 -111l-125 -594h-348l112 532q4 29 5 39q0 57 -36 91t-89 34q-70 0 -122 -56t-73 -148l-104 -492h-349l213 1004h349zM174 -492l166 328h336l-223 -328h-279z" />
    <glyph glyph-name="Ncaron" unicode="&#x147;" horiz-adv-x="1669" 
d="M1327 1434h389l-303 -1434h-330l-454 799l-168 -799h-389l303 1434h332l450 -799zM1061 1782l131 143h334l-332 -328h-311l-197 328h299z" />
    <glyph glyph-name="ncaron" unicode="&#x148;" 
d="M582 1004l-25 -113q12 14 35.5 36.5t100.5 59.5t159 37q137 0 223 -87t86 -232q0 -53 -12 -111l-125 -594h-348l112 532q4 29 5 39q0 57 -36 91t-89 34q-70 0 -122 -56t-73 -148l-104 -492h-349l213 1004h349zM764 1321l131 143h334l-332 -327h-311l-197 327h299z" />
    <glyph glyph-name="Omacron" unicode="&#x14c;" horiz-adv-x="1761" 
d="M985 1126q-182 0 -318.5 -137t-136.5 -323q0 -154 102.5 -256.5t262.5 -102.5q180 0 317.5 133t137.5 328q0 152 -102.5 255t-262.5 103zM1755 793q0 -215 -121 -407.5t-322.5 -309.5t-426.5 -117q-326 0 -543 200.5t-217 481.5q0 332 262 583t608 251q326 0 543 -200.5
t217 -481.5zM1473 1915l-58 -266h-676l58 266h676z" />
    <glyph glyph-name="omacron" unicode="&#x14d;" 
d="M657 717q-90 0 -159.5 -77t-69.5 -171q0 -78 48 -130t122 -52q86 0 157.5 74.5t71.5 175.5q0 80 -48 130t-122 50zM1192 547q0 -225 -183.5 -396t-422.5 -171q-227 0 -373.5 142t-146.5 337q0 223 182 394t424 171q227 0 373.5 -141t146.5 -336zM1108 1444l-57 -266h-676
l57 266h676z" />
    <glyph glyph-name="Ohungarumlaut" unicode="&#x150;" horiz-adv-x="1761" 
d="M985 1126q-182 0 -318.5 -137t-136.5 -323q0 -154 102.5 -256.5t262.5 -102.5q180 0 317.5 133t137.5 328q0 152 -102.5 255t-262.5 103zM1755 793q0 -215 -121 -407.5t-322.5 -309.5t-426.5 -117q-326 0 -543 200.5t-217 481.5q0 332 262 583t608 251q326 0 543 -200.5
t217 -481.5zM715 1597l250 328h335l-325 -328h-260zM1145 1597l250 328h336l-326 -328h-260z" />
    <glyph glyph-name="ohungarumlaut" unicode="&#x151;" 
d="M657 717q-90 0 -159.5 -77t-69.5 -171q0 -78 48 -130t122 -52q86 0 157.5 74.5t71.5 175.5q0 80 -48 130t-122 50zM1192 547q0 -225 -183.5 -396t-422.5 -171q-227 0 -373.5 142t-146.5 337q0 223 182 394t424 171q227 0 373.5 -141t146.5 -336zM373 1137l250 327h335
l-325 -327h-260zM803 1137l250 327h336l-326 -327h-260z" />
    <glyph glyph-name="OE" unicode="&#x152;" horiz-adv-x="2078" 
d="M1319 328h655l-69 -328h-1106q-283 0 -477.5 184.5t-194.5 431.5q0 219 120 407.5t326.5 299.5t446.5 111h1167l-69 -328h-635l-47 -225h471l-66 -308h-471zM1020 1085q-201 0 -350.5 -121.5t-149.5 -320.5q0 -131 96.5 -213t264.5 -82h53l156 737h-70z" />
    <glyph glyph-name="oe" unicode="&#x153;" horiz-adv-x="1925" 
d="M684 1024q100 0 190.5 -39t129.5 -76l40 -39q6 6 17.5 16.5t49.5 37t79 47t105.5 37t129.5 16.5q195 0 326 -114.5t131 -284.5q0 -59 -10 -103l-35 -112h-686q0 -61 50 -107.5t153 -46.5q63 0 125.5 25.5t93.5 50.5l29 26l106 -231q-18 -16 -52 -41t-144.5 -65.5
t-229.5 -40.5q-115 0 -202 38.5t-117 75.5l-31 39q-6 -6 -17.5 -16.5t-49.5 -37t-81 -47t-108.5 -36.5t-134.5 -16q-199 0 -337 129t-138 305q0 254 178 432t440 178zM580 287q86 0 156.5 74.5t70.5 179.5q0 74 -44 125t-108 51q-86 0 -156.5 -76t-70.5 -182
q0 -72 44.5 -122t107.5 -50zM1396.5 758q-67.5 0 -121.5 -40t-85 -104h352q-2 63 -40 103.5t-105.5 40.5z" />
    <glyph glyph-name="Racute" unicode="&#x154;" horiz-adv-x="1474" 
d="M72 0l303 1434h643q197 0 330 -127t133 -299q0 -109 -36 -199t-87 -140.5t-101.5 -86t-85.5 -47.5l-36 -13l186 -522h-401l-150 451h-215l-94 -451h-389zM897 799q74 0 130 45t56 119q0 51 -36.5 86.5t-96.5 35.5h-260l-61 -286h268zM764 1597l242 330h376l-317 -330
h-301z" />
    <glyph glyph-name="racute" unicode="&#x155;" horiz-adv-x="829" 
d="M825 655q-37 20 -98 21q-100 0 -172 -67.5t-98 -188.5l-88 -420h-349l213 1004h349l-25 -115q14 14 39 34.5t103.5 55.5t160.5 35h41zM422 1137l242 329h376l-317 -329h-301z" />
    <glyph glyph-name="uni0156" unicode="&#x156;" horiz-adv-x="1474" 
d="M72 0l303 1434h643q197 0 330 -127t133 -299q0 -109 -36 -199t-87 -140.5t-101.5 -86t-85.5 -47.5l-36 -13l186 -522h-401l-150 451h-215l-94 -451h-389zM897 799q74 0 130 45t56 119q0 51 -36.5 86.5t-96.5 35.5h-260l-61 -286h268zM346 -492l166 328h336l-223 -328
h-279z" />
    <glyph glyph-name="uni0157" unicode="&#x157;" horiz-adv-x="829" 
d="M825 655q-37 20 -98 21q-100 0 -172 -67.5t-98 -188.5l-88 -420h-349l213 1004h349l-25 -115q14 14 39 34.5t103.5 55.5t160.5 35h41zM-174 -492l166 328h336l-224 -328h-278z" />
    <glyph glyph-name="Rcaron" unicode="&#x158;" horiz-adv-x="1474" 
d="M72 0l303 1434h643q197 0 330 -127t133 -299q0 -109 -36 -199t-87 -140.5t-101.5 -86t-85.5 -47.5l-36 -13l186 -522h-401l-150 451h-215l-94 -451h-389zM897 799q74 0 130 45t56 119q0 51 -36.5 86.5t-96.5 35.5h-260l-61 -286h268zM938 1782l131 143h334l-332 -328
h-311l-197 328h299z" />
    <glyph glyph-name="rcaron" unicode="&#x159;" horiz-adv-x="829" 
d="M825 655q-37 20 -98 21q-100 0 -172 -67.5t-98 -188.5l-88 -420h-349l213 1004h349l-25 -115q14 14 39 34.5t103.5 55.5t160.5 35h41zM606 1321l131 143h334l-332 -327h-311l-197 327h299z" />
    <glyph glyph-name="Sacute" unicode="&#x15a;" 
d="M571 287q78 0 133.5 34.5t55.5 108.5q0 43 -57.5 82t-138.5 76t-161.5 84t-138 128t-57.5 185q0 203 162.5 346.5t441.5 143.5q98 0 185 -21.5t142.5 -51.5t97.5 -59.5t58 -52.5l19 -20l-262 -226q-10 12 -31 29t-82 45.5t-125 28.5q-74 0 -121 -34t-47 -83
q0 -43 56.5 -81t138.5 -72.5t162.5 -80.5t137 -126t56.5 -185q0 -231 -165 -378.5t-458 -147.5q-106 0 -204.5 25.5t-164 61.5t-115.5 72t-73 62l-24 25l264 227q6 -6 15.5 -15t42 -35t67.5 -45.5t87 -34.5t103 -15zM682 1597l242 330h376l-317 -330h-301z" />
    <glyph glyph-name="sacute" unicode="&#x15b;" horiz-adv-x="962" 
d="M983 870l-209 -182q-61 59 -143 60q-45 0 -70.5 -17.5t-25.5 -44.5q0 -20 35.5 -40.5t87 -42t101.5 -51.5t86 -83t36 -123q0 -158 -126 -262t-352 -104q-88 0 -165.5 20t-126 49t-83 56.5t-48.5 48.5l-15 20l209 180q6 -10 20.5 -26.5t61.5 -44t102 -27.5q45 0 71 17.5
t26 43.5q0 20 -36 41t-86 42.5t-101.5 51t-87 83t-35.5 122.5q0 158 125.5 262.5t351.5 104.5q119 0 218 -39t138 -76zM444 1137l242 329h377l-318 -329h-301z" />
    <glyph glyph-name="Scedilla" unicode="&#x15e;" 
d="M571 287q78 0 133.5 34.5t55.5 108.5q0 43 -57.5 82t-138.5 76t-161.5 84t-138 128t-57.5 185q0 203 162.5 346.5t441.5 143.5q98 0 185 -21.5t142.5 -51.5t97.5 -59.5t58 -52.5l19 -20l-262 -226q-10 12 -31 29t-82 45.5t-125 28.5q-74 0 -121 -34t-47 -83
q0 -43 56.5 -81t138.5 -72.5t162.5 -80.5t137 -126t56.5 -185q0 -225 -157.5 -371.5t-438.5 -154.5l-37 -51q6 0 18.5 -3t41 -14.5t51 -27t41 -47t18.5 -72.5q0 -109 -79 -177.5t-210 -68.5q-68 0 -130 25.5t-91 50.5l-28 27l106 131q49 -59 121 -60q86 0 86 64q0 39 -55 39
l-52 -11l-47 72l88 133q-82 12 -158.5 41t-128 61.5t-90 63.5t-57.5 49l-16 21l264 227q6 -6 15.5 -15t42 -35t67.5 -45.5t87 -34.5t103 -15z" />
    <glyph glyph-name="scedilla" unicode="&#x15f;" horiz-adv-x="962" 
d="M983 870l-209 -182q-61 59 -143 60q-45 0 -70.5 -17.5t-25.5 -44.5q0 -20 35.5 -40.5t87 -42t101.5 -51.5t86 -83t36 -123q0 -152 -115 -254t-324 -110l-51 -74q6 0 18.5 -3t41 -14.5t51 -27t41 -47t18.5 -72.5q0 -109 -79 -177.5t-210 -68.5q-68 0 -130 25.5t-91 50.5
l-28 27l106 131q49 -59 121 -60q86 0 86 64q0 39 -55 39l-52 -11l-47 72l103 154q-63 10 -121 33.5t-92.5 48t-60 48t-36.5 40.5l-10 14l209 180q6 -10 20.5 -26.5t61.5 -44t102 -27.5q45 0 71 17.5t26 43.5q0 20 -36 41t-86 42.5t-101.5 51t-87 83t-35.5 122.5
q0 158 125.5 262.5t351.5 104.5q119 0 218 -39t138 -76z" />
    <glyph glyph-name="Scaron" unicode="&#x160;" 
d="M571 287q78 0 133.5 34.5t55.5 108.5q0 43 -57.5 82t-138.5 76t-161.5 84t-138 128t-57.5 185q0 203 162.5 346.5t441.5 143.5q98 0 185 -21.5t142.5 -51.5t97.5 -59.5t58 -52.5l19 -20l-262 -226q-10 12 -31 29t-82 45.5t-125 28.5q-74 0 -121 -34t-47 -83
q0 -43 56.5 -81t138.5 -72.5t162.5 -80.5t137 -126t56.5 -185q0 -231 -165 -378.5t-458 -147.5q-106 0 -204.5 25.5t-164 61.5t-115.5 72t-73 62l-24 25l264 227q6 -6 15.5 -15t42 -35t67.5 -45.5t87 -34.5t103 -15zM858 1782l131 143h334l-332 -328h-311l-197 328h299z" />
    <glyph glyph-name="scaron" unicode="&#x161;" horiz-adv-x="962" 
d="M983 870l-209 -182q-61 59 -143 60q-45 0 -70.5 -17.5t-25.5 -44.5q0 -20 35.5 -40.5t87 -42t101.5 -51.5t86 -83t36 -123q0 -158 -126 -262t-352 -104q-88 0 -165.5 20t-126 49t-83 56.5t-48.5 48.5l-15 20l209 180q6 -10 20.5 -26.5t61.5 -44t102 -27.5q45 0 71 17.5
t26 43.5q0 20 -36 41t-86 42.5t-101.5 51t-87 83t-35.5 122.5q0 158 125.5 262.5t351.5 104.5q119 0 218 -39t138 -76zM631 1321l131 143h334l-332 -327h-311l-197 327h299z" />
    <glyph glyph-name="uni0162" unicode="&#x162;" horiz-adv-x="1269" 
d="M252 1434h1188l-74 -349h-399l-230 -1085h-389l230 1085h-400zM170 -492l166 328h336l-223 -328h-279z" />
    <glyph glyph-name="uni0163" unicode="&#x163;" horiz-adv-x="870" 
d="M379 1116l37 174h307l-64 -307h205l-65 -307h-205l-62 -287q-23 -102 80 -102q25 0 54.5 5t46.5 11l16 4l-61 -297q-86 -31 -199 -30q-172 0 -251 100t-38 289l66 307h-154l66 307h71q55 0 96.5 36t53.5 97zM57 -492l166 328h336l-223 -328h-279z" />
    <glyph glyph-name="Tcaron" unicode="&#x164;" horiz-adv-x="1269" 
d="M252 1434h1188l-74 -349h-399l-230 -1085h-389l230 1085h-400zM881 1782l131 143h334l-332 -328h-312l-196 328h299z" />
    <glyph glyph-name="tcaron" unicode="&#x165;" horiz-adv-x="931" 
d="M379 1116l37 174h307l-64 -307h205l-65 -307h-205l-62 -287q-23 -102 80 -102q25 0 54.5 5t46.5 11l16 4l-61 -297q-86 -31 -199 -30q-172 0 -251 100t-38 289l66 307h-154l66 307h71q55 0 96.5 36t53.5 97zM807 1106l168 328h336l-224 -328h-280z" />
    <glyph glyph-name="Umacron" unicode="&#x16a;" horiz-adv-x="1617" 
d="M797 307q106 0 195 82t116 205l178 840h389l-178 -840q-59 -276 -256 -455.5t-473 -179.5q-289 0 -463 185.5t-119 449.5l179 840h389l-179 -840q-25 -121 43 -204t179 -83zM1442 1915l-58 -266h-675l57 266h676z" />
    <glyph glyph-name="umacron" unicode="&#x16b;" horiz-adv-x="1259" 
d="M676 0l20 102q-12 -14 -33.5 -34.5t-95 -54t-155.5 -33.5q-141 0 -230.5 86t-89.5 229q0 49 12 104l129 605h349l-117 -543q-4 -25 -4 -35q0 -55 32.5 -87t88.5 -32q70 0 125 50.5t73 134.5l109 512h348l-213 -1004h-348zM1143 1444l-58 -266h-675l57 266h676z" />
    <glyph glyph-name="Uring" unicode="&#x16e;" horiz-adv-x="1617" 
d="M797 307q106 0 195 82t116 205l178 840h389l-178 -840q-59 -276 -256 -455.5t-473 -179.5q-289 0 -463 185.5t-119 449.5l179 840h389l-179 -840q-25 -121 43 -204t179 -83zM1083 1874q-37 0 -62.5 -26.5t-25.5 -69.5q0 -68 80 -68q35 0 62.5 26.5t27.5 67.5q0 70 -82 70
zM1352 1810q0 -106 -89 -185t-204 -79q-113 0 -182.5 64.5t-69.5 158.5q0 109 87 189t206 80q113 0 182.5 -67t69.5 -161z" />
    <glyph glyph-name="uring" unicode="&#x16f;" horiz-adv-x="1259" 
d="M676 0l20 102q-12 -14 -33.5 -34.5t-95 -54t-155.5 -33.5q-141 0 -230.5 86t-89.5 229q0 49 12 104l129 605h349l-117 -543q-4 -25 -4 -35q0 -55 32.5 -87t88.5 -32q70 0 125 50.5t73 134.5l109 512h348l-213 -1004h-348zM782 1423q-37 0 -62.5 -26.5t-25.5 -69.5
q0 -68 80 -67q35 0 62.5 26.5t27.5 67.5q0 69 -82 69zM1051 1360q0 -106 -89.5 -185t-203.5 -79q-113 0 -182.5 64.5t-69.5 158.5q0 109 87 188.5t206 79.5q113 0 182.5 -66.5t69.5 -160.5z" />
    <glyph glyph-name="Uhungarumlaut" unicode="&#x170;" horiz-adv-x="1617" 
d="M797 307q106 0 195 82t116 205l178 840h389l-178 -840q-59 -276 -256 -455.5t-473 -179.5q-289 0 -463 185.5t-119 449.5l179 840h389l-179 -840q-25 -121 43 -204t179 -83zM678 1597l250 328h336l-326 -328h-260zM1108 1597l250 328h336l-326 -328h-260z" />
    <glyph glyph-name="uhungarumlaut" unicode="&#x171;" horiz-adv-x="1259" 
d="M676 0l20 102q-12 -14 -33.5 -34.5t-95 -54t-155.5 -33.5q-141 0 -230.5 86t-89.5 229q0 49 12 104l129 605h349l-117 -543q-4 -25 -4 -35q0 -55 32.5 -87t88.5 -32q70 0 125 50.5t73 134.5l109 512h348l-213 -1004h-348zM391 1137l250 327h336l-326 -327h-260zM821 1137
l250 327h336l-326 -327h-260z" />
    <glyph glyph-name="Uogonek" unicode="&#x172;" horiz-adv-x="1617" 
d="M797 307q106 0 195 82t116 205l178 840h389l-178 -840q-57 -264 -238.5 -439t-439.5 -194q-76 -106 -76 -186q0 -61 68 -62q27 0 54.5 8.5t39.5 16.5l15 6l-39 -184q-80 -41 -193 -41q-94 0 -148.5 51t-54.5 131q0 141 166 268q-244 37 -379 213t-86 412l179 840h389
l-179 -840q-25 -121 43 -204t179 -83z" />
    <glyph glyph-name="uogonek" unicode="&#x173;" horiz-adv-x="1259" 
d="M676 0l20 102q-12 -14 -33.5 -34.5t-95 -54t-155.5 -33.5q-141 0 -230.5 86t-89.5 229q0 49 12 104l129 605h349l-117 -543q-4 -25 -4 -35q0 -55 32.5 -87t88.5 -32q70 0 125 50.5t73 134.5l109 512h348l-213 -1004h-195q-109 -117 -108 -225q0 -61 67 -62q27 0 54.5 8.5
t42.5 16.5l12 6l-39 -184q-80 -41 -192 -41q-94 0 -148.5 51t-54.5 131q0 37 12 73t30.5 64.5t41 54t45 45t42 34t30.5 20.5z" />
    <glyph glyph-name="Ydieresis" unicode="&#x178;" horiz-adv-x="1402" 
d="M1174 1434h440l-707 -922l-108 -512h-389l108 512l-317 922h399l172 -553zM532 1737q0 72 61.5 130t137.5 58q66 0 111 -47t45 -111q0 -74 -61.5 -132t-137.5 -58q-66 0 -111 48.5t-45 111.5zM1004 1737q0 72 61 130t137 58q66 0 111 -47t45 -111q0 -74 -61.5 -132
t-137.5 -58q-66 0 -110.5 48.5t-44.5 111.5z" />
    <glyph glyph-name="Zacute" unicode="&#x179;" horiz-adv-x="1351" 
d="M852 1085h-592l74 349h1116l-74 -349l-778 -737h643l-74 -348h-1167l74 348zM739 1597l242 330h377l-318 -330h-301z" />
    <glyph glyph-name="zacute" unicode="&#x17a;" horiz-adv-x="1044" 
d="M1063 1004l-66 -308l-493 -389h430l-64 -307h-901l64 307l495 389h-391l66 308h860zM479 1137l242 329h377l-318 -329h-301z" />
    <glyph glyph-name="Zdotaccent" unicode="&#x17b;" horiz-adv-x="1351" 
d="M852 1085h-592l74 349h1116l-74 -349l-778 -737h643l-74 -348h-1167l74 348zM1118 1782q0 -80 -64.5 -142.5t-150.5 -62.5q-82 0 -132 46t-50 116q0 84 64.5 145.5t152.5 61.5q80 0 130 -48t50 -116z" />
    <glyph glyph-name="zdotaccent" unicode="&#x17c;" horiz-adv-x="1044" 
d="M1063 1004l-66 -308l-493 -389h430l-64 -307h-901l64 307l495 389h-391l66 308h860zM866 1321q0 -80 -64.5 -142.5t-150.5 -62.5q-82 0 -132 46t-50 116q0 84 64.5 145.5t152.5 61.5q80 0 130 -48t50 -116z" />
    <glyph glyph-name="Zcaron" unicode="&#x17d;" horiz-adv-x="1351" 
d="M852 1085h-592l74 349h1116l-74 -349l-778 -737h643l-74 -348h-1167l74 348zM938 1782l131 143h334l-332 -328h-311l-197 328h299z" />
    <glyph glyph-name="zcaron" unicode="&#x17e;" horiz-adv-x="1044" 
d="M1063 1004l-66 -308l-493 -389h430l-64 -307h-901l64 307l495 389h-391l66 308h860zM664 1321l131 143h333l-331 -327h-312l-196 327h299z" />
    <glyph glyph-name="florin" unicode="&#x192;" horiz-adv-x="849" 
d="M786 1055l-67 -174h184l-65 -308h-236l-258 -634q-86 -213 -179 -291t-271 -78q-45 0 -93.5 8t-74.5 16l-25 7l63 297q37 -20 99 -21q111 0 151 103l240 593h-123l66 308h174l86 215q86 213 179 290.5t273 77.5q45 0 93.5 -7t74.5 -15l25 -8l-64 -297q-35 20 -96 20
q-119 0 -156 -102z" />
    <glyph glyph-name="uni0218" unicode="&#x218;" 
d="M571 287q78 0 133.5 34.5t55.5 108.5q0 43 -57.5 82t-138.5 76t-161.5 84t-138 128t-57.5 185q0 203 162.5 346.5t441.5 143.5q98 0 185 -21.5t142.5 -51.5t97.5 -59.5t58 -52.5l19 -20l-262 -226q-10 12 -31 29t-82 45.5t-125 28.5q-74 0 -121 -34t-47 -83
q0 -43 56.5 -81t138.5 -72.5t162.5 -80.5t137 -126t56.5 -185q0 -231 -165 -378.5t-458 -147.5q-106 0 -204.5 25.5t-164 61.5t-115.5 72t-73 62l-24 25l264 227q6 -6 15.5 -15t42 -35t67.5 -45.5t87 -34.5t103 -15zM221 -492l166 328h336l-223 -328h-279z" />
    <glyph glyph-name="uni0219" unicode="&#x219;" horiz-adv-x="962" 
d="M983 870l-209 -182q-61 59 -143 60q-45 0 -70.5 -17.5t-25.5 -44.5q0 -20 35.5 -40.5t87 -42t101.5 -51.5t86 -83t36 -123q0 -158 -126 -262t-352 -104q-88 0 -165.5 20t-126 49t-83 56.5t-48.5 48.5l-15 20l209 180q6 -10 20.5 -26.5t61.5 -44t102 -27.5q45 0 71 17.5
t26 43.5q0 20 -36 41t-86 42.5t-101.5 51t-87 83t-35.5 122.5q0 158 125.5 262.5t351.5 104.5q119 0 218 -39t138 -76zM35 -492l166 328h336l-224 -328h-278z" />
    <glyph glyph-name="uni021A" unicode="&#x21a;" horiz-adv-x="1269" 
d="M252 1434h1188l-74 -349h-399l-230 -1085h-389l230 1085h-400zM170 -492l166 328h336l-223 -328h-279z" />
    <glyph glyph-name="uni021B" unicode="&#x21b;" horiz-adv-x="870" 
d="M379 1116l37 174h307l-64 -307h205l-65 -307h-205l-62 -287q-23 -102 80 -102q25 0 54.5 5t46.5 11l16 4l-61 -297q-86 -31 -199 -30q-172 0 -251 100t-38 289l66 307h-154l66 307h71q55 0 96.5 36t53.5 97zM57 -492l166 328h336l-223 -328h-279z" />
    <glyph glyph-name="uni02BC" unicode="&#x2bc;" horiz-adv-x="552" 
d="M203 1126l168 328h336l-224 -328h-280z" />
    <glyph glyph-name="circumflex" unicode="&#x2c6;" horiz-adv-x="962" 
d="M672 1270l-131 -144h-334l332 328h311l197 -328h-299z" />
    <glyph glyph-name="caron" unicode="&#x2c7;" horiz-adv-x="962" 
d="M651 1311l131 143h334l-332 -328h-311l-197 328h299z" />
    <glyph glyph-name="breve" unicode="&#x2d8;" horiz-adv-x="819" 
d="M582 1126q-154 0 -244 95.5t-62 232.5h246q-8 -45 15.5 -73.5t70.5 -28.5q45 0 77 27.5t42 74.5h246q-31 -143 -136 -235.5t-255 -92.5z" />
    <glyph glyph-name="dotaccent" unicode="&#x2d9;" horiz-adv-x="512" 
d="M641 1331q0 -80 -64.5 -142.5t-150.5 -62.5q-82 0 -132 46.5t-50 115.5q0 84 64.5 145.5t152.5 61.5q80 0 130 -48t50 -116z" />
    <glyph glyph-name="ring" unicode="&#x2da;" horiz-adv-x="655" 
d="M504 1331q-37 0 -62.5 -26.5t-25.5 -69.5q0 -68 80 -68q35 0 62.5 27t27.5 68q0 69 -82 69zM772 1268q0 -106 -89 -185t-204 -79q-113 0 -182.5 64.5t-69.5 158.5q0 109 87 188.5t206 79.5q113 0 182.5 -66.5t69.5 -160.5z" />
    <glyph glyph-name="ogonek" unicode="&#x2db;" horiz-adv-x="552" 
d="M123 0h153q-109 -117 -108 -225q0 -61 68 -62q27 0 54 8.5t42 16.5l12 6l-39 -184q-80 -41 -192 -41q-94 0 -148.5 51t-54.5 131q0 37 12 73t30.5 64.5t41 54t45 45t42 34t30.5 20.5z" />
    <glyph glyph-name="tilde" unicode="&#x2dc;" horiz-adv-x="880" 
d="M516 1229q-72 0 -94 -103h-215q39 176 113.5 262.5t171.5 86.5q74 0 142 -51.5t97 -51.5q72 0 94 103h215q-76 -348 -282 -349q-74 0 -143.5 51.5t-98.5 51.5z" />
    <glyph glyph-name="hungarumlaut" unicode="&#x2dd;" horiz-adv-x="1064" 
d="M203 1126l250 328h335l-325 -328h-260zM633 1126l250 328h336l-326 -328h-260z" />
    <glyph glyph-name="uni0401" unicode="&#x401;" horiz-adv-x="1372" 
d="M530 328h738l-70 -328h-1126l303 1434h1106l-70 -328h-717l-47 -225h553l-65 -308h-553zM588 1737q0 72 61.5 130t136.5 58q66 0 111 -47t45 -111q0 -74 -61.5 -132t-137.5 -58q-66 0 -110.5 48.5t-44.5 111.5zM1059 1737q0 72 61.5 130t136.5 58q66 0 111 -47t45 -111
q0 -74 -61.5 -132t-137.5 -58q-66 0 -110.5 48.5t-44.5 111.5z" />
    <glyph glyph-name="uni0402" unicode="&#x402;" horiz-adv-x="1546" 
d="M1067 932q197 0 314.5 -112.5t117.5 -282.5q0 -264 -175 -421t-441 -157h-95l72 338q106 0 169 49t63 133q0 51 -44 83t-122 32q-186 0 -228 -197l-84 -397h-389l230 1085h-318l74 349h1008l-74 -349h-301l-49 -235q108 82 272 82z" />
    <glyph glyph-name="uni0403" unicode="&#x403;" horiz-adv-x="1208" 
d="M741 1597l242 330h377l-318 -330h-301zM72 0l303 1434h1024l-74 -349h-635l-229 -1085h-389z" />
    <glyph glyph-name="uni0404" unicode="&#x404;" horiz-adv-x="1536" 
d="M1014 1126q-131 0 -246 -66.5t-182 -178.5h573l-69 -328h-562q27 -111 115 -178.5t215 -67.5q70 0 137.5 20.5t115.5 49.5t86 58.5t56 49.5l21 21l180 -260q-10 -12 -27.5 -31.5t-80 -69t-132 -87.5t-181 -68.5t-228.5 -30.5q-291 0 -485.5 196.5t-194.5 458.5
q0 352 271.5 606.5t650.5 254.5q115 0 218 -30t169.5 -72t117 -84t70.5 -72l23 -29l-277 -234q-4 6 -13 18.5t-41 42t-70 52.5t-100 41t-130 18z" />
    <glyph glyph-name="uni0405" unicode="&#x405;" 
d="M571 287q78 0 133.5 34.5t55.5 108.5q0 43 -57.5 82t-138.5 76t-161.5 84t-138 128t-57.5 185q0 203 162.5 346.5t441.5 143.5q98 0 185 -21.5t142.5 -51.5t97.5 -59.5t58 -52.5l19 -20l-262 -226q-10 12 -31 29t-82 45.5t-125 28.5q-74 0 -121 -34t-47 -83
q0 -43 56.5 -81t138.5 -72.5t162.5 -80.5t137 -126t56.5 -185q0 -231 -165 -378.5t-458 -147.5q-106 0 -204.5 25.5t-164 61.5t-115.5 72t-73 62l-24 25l264 227q6 -6 15.5 -15t42 -35t67.5 -45.5t87 -34.5t103 -15z" />
    <glyph glyph-name="uni0406" unicode="&#x406;" horiz-adv-x="716" 
d="M72 0l303 1434h389l-303 -1434h-389z" />
    <glyph glyph-name="uni0407" unicode="&#x407;" horiz-adv-x="716" 
d="M72 0l303 1434h389l-303 -1434h-389zM213 1737q0 72 61.5 130t137.5 58q66 0 110.5 -47t44.5 -111q0 -74 -61.5 -132t-136.5 -58q-66 0 -111 48.5t-45 111.5zM684 1737q0 72 61.5 130t137.5 58q66 0 110.5 -47t44.5 -111q0 -74 -61.5 -132t-136.5 -58q-66 0 -111 48.5
t-45 111.5z" />
    <glyph glyph-name="uni0408" unicode="&#x408;" horiz-adv-x="1075" 
d="M743 1434h390l-199 -942q-51 -242 -209 -387.5t-385 -145.5q-78 0 -149.5 19.5t-119.5 46t-85 53t-54 45.5l-16 20l287 236q4 -8 14 -20.5t47 -32t82 -19.5q70 0 125 50.5t74 134.5z" />
    <glyph glyph-name="uni0409" unicode="&#x409;" horiz-adv-x="2252" 
d="M1374 348h236q76 0 132 50.5t56 119.5q0 55 -39 96t-98 41h-221zM1577 0h-666l230 1085h-287l-20 -102q-63 -297 -141.5 -500.5t-169.5 -316.5t-187 -160t-213 -47q-51 0 -104.5 10.5t-81.5 20.5l-29 10l76 358q43 -20 84 -20q55 0 100 25.5t93 92t94 197.5t87 328
l97 453h1065l-91 -430h218q201 0 334 -128t133 -305q0 -252 -177.5 -411.5t-443.5 -159.5z" />
    <glyph glyph-name="uni040A" unicode="&#x40a;" horiz-adv-x="2283" 
d="M1415 348h225q76 0 132.5 50.5t56.5 119.5q0 55 -39 96t-98 41h-211zM1608 0h-656l133 635h-491l-133 -635h-389l303 1434h389l-94 -451h491l94 451h390l-91 -430h207q201 0 334 -128t133 -305q0 -252 -177 -411.5t-443 -159.5z" />
    <glyph glyph-name="uni040B" unicode="&#x40b;" horiz-adv-x="1597" 
d="M1087 399q4 25 5 37q0 63 -45.5 105.5t-118.5 42.5q-80 0 -146.5 -50.5t-76.5 -101.5l-91 -432h-389l230 1085h-318l74 349h1014l-74 -349h-307l-47 -227q133 74 290 74q406 0 406 -375q0 -76 -18 -168l-82 -389h-389z" />
    <glyph glyph-name="uni040C" unicode="&#x40c;" horiz-adv-x="1495" 
d="M745 549l-208 -191l-76 -358h-389l303 1434h389l-113 -531l553 531h482l-637 -607l374 -827h-430zM836 1597l241 330h377l-317 -330h-301z" />
    <glyph glyph-name="uni040E" unicode="&#x40e;" horiz-adv-x="1331" 
d="M895 1587q-162 0 -255 96.5t-62 241.5h245q-10 -53 15.5 -83t81.5 -30q106 0 129 113h245q-31 -150 -136 -244t-263 -94zM608 1434l164 -580l352 580h439l-727 -1065q-270 -389 -603 -389q-49 0 -94 8t-65 16l-21 6l72 338q41 -20 113 -20q82 0 143 39t92 84l39 53
l-301 930h397z" />
    <glyph glyph-name="uni040F" unicode="&#x40f;" horiz-adv-x="1617" 
d="M1665 1434l-303 -1434h-451l-61 -287h-389l61 287h-450l303 1434h389l-229 -1086h512l229 1086h389z" />
    <glyph glyph-name="uni0410" unicode="&#x410;" horiz-adv-x="1515" 
d="M944 614l-45 420l-221 -420h266zM981 307h-471l-166 -307h-436l846 1434h430l239 -1434h-403z" />
    <glyph glyph-name="uni0411" unicode="&#x411;" horiz-adv-x="1423" 
d="M530 328h263q66 0 115.5 45t49.5 110q0 47 -34.5 79t-87.5 32h-250zM778 0h-706l303 1434h1044l-69 -328h-656l-39 -184h256q197 0 321 -123t124 -283q0 -219 -159 -367.5t-419 -148.5z" />
    <glyph glyph-name="uni0412" unicode="&#x412;" horiz-adv-x="1454" 
d="M805 0h-733l303 1434h624q195 0 317 -104.5t122 -239.5q0 -74 -27 -136.5t-63.5 -100.5t-73.5 -65.5t-64 -37.5l-26 -11q8 -4 20.5 -11t46 -33.5t59 -57.5t46 -82t20.5 -106q0 -186 -156.5 -317.5t-414.5 -131.5zM524 307h275q78 0 129 46t51 120q0 51 -38 86t-97 35
h-258zM905 1126h-207l-51 -245h223q68 0 111 38.5t43 102.5q0 43 -33 73.5t-86 30.5z" />
    <glyph glyph-name="uni0413" unicode="&#x413;" horiz-adv-x="1208" 
d="M72 0l303 1434h1024l-74 -349h-635l-229 -1085h-389z" />
    <glyph glyph-name="uni0414" unicode="&#x414;" horiz-adv-x="1556" 
d="M-18 348h81q10 8 26.5 22.5t65 71t89.5 123t87 179t72 239.5l95 451h1065l-230 -1086h164l-135 -635h-389l61 287h-737l-61 -287h-388zM793 983q-27 -127 -69 -238.5t-81 -181t-75 -121t-58 -73.5l-23 -21h457l156 737h-287z" />
    <glyph glyph-name="uni0415" unicode="&#x415;" horiz-adv-x="1372" 
d="M530 328h738l-70 -328h-1126l303 1434h1106l-70 -328h-717l-47 -225h553l-65 -308h-553z" />
    <glyph glyph-name="uni0416" unicode="&#x416;" horiz-adv-x="2170" 
d="M799 0l92 434l-74 109l-471 -543h-459l731 848l-380 586h434l323 -502l107 502h389l-102 -476l499 476h473l-643 -609l371 -825h-426l-246 543l-141 -125l-88 -418h-389z" />
    <glyph glyph-name="uni0417" unicode="&#x417;" horiz-adv-x="1280" 
d="M1010 739q8 -4 20 -11t45 -33.5t57.5 -57.5t45 -83t20.5 -112q0 -211 -170 -347t-475 -136q-106 0 -204.5 25.5t-164 61.5t-116 72t-72.5 62l-25 25l267 229q14 -14 38.5 -35.5t104.5 -56.5t162 -35q117 0 179 45t62 111q0 45 -48 77.5t-134 32.5h-174l70 328h164
q94 0 147 37t53 92q0 96 -162 96q-68 0 -137 -26.5t-104 -52.5l-37 -27l-176 240q8 8 22.5 22t64.5 52t108.5 65.5t154.5 51.5t199 24q215 0 358 -121t143 -264q0 -84 -29.5 -152t-71.5 -102.5t-84 -58t-71 -32.5z" />
    <glyph glyph-name="uni0418" unicode="&#x418;" horiz-adv-x="1669" 
d="M375 1434h389l-168 -785l760 785h360l-303 -1434h-389l166 784l-760 -784h-358z" />
    <glyph glyph-name="uni0419" unicode="&#x419;" horiz-adv-x="1669" 
d="M1098 1587q-162 0 -255 96.5t-63 241.5h246q-10 -53 15.5 -83t80.5 -30q106 0 129 113h246q-31 -150 -136 -244t-263 -94zM375 1434h389l-168 -785l760 785h360l-303 -1434h-389l166 784l-760 -784h-358z" />
    <glyph glyph-name="uni041A" unicode="&#x41a;" horiz-adv-x="1495" 
d="M745 549l-208 -191l-76 -358h-389l303 1434h389l-113 -531l553 531h482l-637 -607l374 -827h-430z" />
    <glyph glyph-name="uni041B" unicode="&#x41b;" horiz-adv-x="1597" 
d="M1645 1434l-304 -1434h-389l230 1085h-328l-20 -102q-63 -297 -139.5 -499.5t-167.5 -316.5t-187 -161t-217 -47q-51 0 -104.5 10.5t-81.5 20.5l-29 10l76 358q45 -20 86 -20q74 0 131 45t121.5 192.5t119.5 405.5l97 453h1106z" />
    <glyph glyph-name="uni041C" unicode="&#x41c;" horiz-adv-x="1904" 
d="M934 348l-293 502l-180 -850h-389l303 1434h323l322 -564l559 564h373l-303 -1434h-389l180 850z" />
    <glyph glyph-name="uni041D" unicode="&#x41d;" horiz-adv-x="1628" 
d="M1675 1434l-303 -1434h-389l117 553h-522l-117 -553h-389l303 1434h389l-113 -533h523l112 533h389z" />
    <glyph glyph-name="uni041E" unicode="&#x41e;" horiz-adv-x="1761" 
d="M985 1126q-182 0 -318.5 -137t-136.5 -323q0 -154 102.5 -256.5t262.5 -102.5q180 0 317.5 133t137.5 328q0 152 -102.5 255t-262.5 103zM1755 793q0 -215 -121 -407.5t-322.5 -309.5t-426.5 -117q-326 0 -543 200.5t-217 481.5q0 332 262 583t608 251q326 0 543 -200.5
t217 -481.5z" />
    <glyph glyph-name="uni041F" unicode="&#x41f;" horiz-adv-x="1607" 
d="M1655 1434l-303 -1434h-389l229 1085h-502l-229 -1085h-389l303 1434h1280z" />
    <glyph glyph-name="uni0420" unicode="&#x420;" horiz-adv-x="1423" 
d="M375 1434h616q201 0 334 -128t133 -302q0 -252 -176 -413t-442 -161h-289l-90 -430h-389zM924 1085h-234l-65 -307h249q78 0 132.5 53.5t54.5 124.5q0 51 -39 90t-98 39z" />
    <glyph glyph-name="uni0421" unicode="&#x421;" horiz-adv-x="1536" 
d="M1014 1126q-201 0 -347.5 -143t-146.5 -348q0 -141 94.5 -234.5t243.5 -93.5q70 0 137.5 20.5t115.5 49.5t86 58.5t56 49.5l21 21l180 -260q-10 -12 -27.5 -31.5t-80 -69t-132 -87.5t-181 -68.5t-228.5 -30.5q-291 0 -485.5 196.5t-194.5 458.5q0 352 271.5 606.5
t650.5 254.5q115 0 218 -30t169.5 -72t117 -84t70.5 -72l23 -29l-277 -234q-4 6 -13 18.5t-41 42t-70 52.5t-100 41t-130 18z" />
    <glyph glyph-name="uni0422" unicode="&#x422;" horiz-adv-x="1269" 
d="M252 1434h1188l-74 -349h-399l-230 -1085h-389l230 1085h-400z" />
    <glyph glyph-name="uni0423" unicode="&#x423;" horiz-adv-x="1331" 
d="M608 1434l164 -580l352 580h439l-727 -1065q-270 -389 -603 -389q-49 0 -94 8t-65 16l-21 6l72 338q41 -20 113 -20q82 0 143 39t92 84l39 53l-301 930h397z" />
    <glyph glyph-name="uni0424" unicode="&#x424;" horiz-adv-x="1843" 
d="M848 1004q-135 -12 -233.5 -99.5t-98.5 -222.5q0 -88 58.5 -146.5t158.5 -64.5zM1014 -41h-389l39 184q-246 6 -393.5 158t-147.5 361q0 272 232.5 465.5t562.5 203.5l32 154h389l-32 -154q244 -8 392 -159.5t148 -358.5q0 -272 -232.5 -466.5t-561.5 -203.5zM1122 471
q137 12 233.5 98t96.5 224q0 90 -57.5 147t-157.5 64z" />
    <glyph glyph-name="uni0425" unicode="&#x425;" horiz-adv-x="1443" 
d="M745 481l-387 -481h-450l629 748l-285 686h410l157 -420l334 420h451l-576 -686l313 -748h-409z" />
    <glyph glyph-name="uni0426" unicode="&#x426;" horiz-adv-x="1638" 
d="M72 0l303 1434h389l-229 -1086h481l229 1086h389l-229 -1086h164l-135 -635h-390l62 287h-1034z" />
    <glyph glyph-name="uni0427" unicode="&#x427;" horiz-adv-x="1536" 
d="M743 1434l-92 -441q-6 -31 -6 -55q0 -80 52.5 -125t140.5 -45q61 0 119.5 17.5t84.5 35.5l27 19l125 594h389l-303 -1434h-389l100 481q-115 -61 -289 -61q-213 0 -335.5 108.5t-122.5 307.5q0 72 18 157l92 441h389z" />
    <glyph glyph-name="uni0428" unicode="&#x428;" horiz-adv-x="2211" 
d="M2259 1434l-303 -1434h-1884l303 1434h389l-229 -1086h358l229 1086h389l-229 -1086h358l230 1086h389z" />
    <glyph glyph-name="uni0429" unicode="&#x429;" horiz-adv-x="2263" 
d="M2259 1434l-229 -1086h163l-135 -633h-389l62 285h-1659l303 1434h389l-229 -1086h358l229 1086h389l-229 -1086h358l230 1086h389z" />
    <glyph glyph-name="uni042A" unicode="&#x42a;" horiz-adv-x="1556" 
d="M885 0h-660l230 1085h-318l74 349h707l-91 -430h213q201 0 331 -127t130 -304q0 -252 -175 -412.5t-441 -160.5zM688 348h223q76 0 133.5 54.5t57.5 123.5q0 53 -38 91t-97 38h-213z" />
    <glyph glyph-name="uni042B" unicode="&#x42b;" horiz-adv-x="2017" 
d="M2064 1434l-303 -1434h-389l303 1434h389zM731 0h-659l303 1434h389l-90 -430h213q201 0 331 -127t130 -304q0 -252 -175.5 -412.5t-441.5 -160.5zM813 655h-213l-65 -307h223q76 0 133 54.5t57 123.5q0 53 -38 91t-97 38z" />
    <glyph glyph-name="uni042C" unicode="&#x42c;" horiz-adv-x="1423" 
d="M752 0h-680l303 1434h389l-90 -430h233q201 0 331 -127t130 -304q0 -252 -175 -412.5t-441 -160.5zM834 655h-234l-65 -307h243q76 0 133.5 54.5t57.5 123.5q0 53 -38 91t-97 38z" />
    <glyph glyph-name="uni042D" unicode="&#x42d;" horiz-adv-x="1536" 
d="M647 307q121 0 237.5 67.5t186.5 178.5h-575l69 328h563q-29 113 -121 179t-225 66q-104 0 -200.5 -47t-139.5 -94l-45 -47l-186 250q8 12 25.5 31.5t78 68.5t128 87t176 69t223.5 31q291 0 489.5 -194t198.5 -456q0 -231 -124 -430.5t-336 -317.5t-458 -118
q-117 0 -223 29.5t-174 71.5t-119 84t-73 73l-23 29l268 233q6 -6 16.5 -18t46.5 -42t77 -52.5t105 -41t134 -18.5z" />
    <glyph glyph-name="uni042E" unicode="&#x42e;" horiz-adv-x="2263" 
d="M1427 -41q-256 0 -453.5 166t-221.5 428h-174l-117 -553h-389l303 1434h389l-113 -533h148q90 252 309 413t471 161q295 0 486.5 -188.5t191.5 -469.5q0 -174 -70.5 -334.5t-185.5 -274.5t-266.5 -181.5t-307.5 -67.5zM1440 307q174 0 299 152.5t125 335.5q0 145 -85 238
t-214 93q-154 0 -288 -140t-134 -345q0 -147 84 -240.5t213 -93.5z" />
    <glyph glyph-name="uni042F" unicode="&#x42f;" horiz-adv-x="1474" 
d="M1522 1434l-303 -1434h-390l95 451h-195l-346 -451h-414l408 522q-6 6 -18.5 15.5t-41 43t-51 71.5t-41 98.5t-18.5 123.5q0 244 170 402t428 158h717zM778 1085q-72 0 -123 -44t-51 -117q0 -53 35 -89t92 -36h266l62 286h-281z" />
    <glyph glyph-name="uni0430" unicode="&#x430;" horiz-adv-x="1302" 
d="M596 287q96 0 165.5 75.5t69.5 176.5q0 74 -50 126t-117 52q-90 0 -161 -74t-71 -182q0 -72 49 -123t115 -51zM905 868l29 136h348l-213 -1004h-348l22 111q-4 -6 -12 -14.5t-34.5 -31t-58.5 -40t-82 -31.5t-105 -14q-158 0 -271.5 122.5t-113.5 298.5q0 268 170 445.5
t387 177.5q55 0 105 -16.5t81 -39t53.5 -45t32.5 -38.5z" />
    <glyph glyph-name="uni0431" unicode="&#x431;" horiz-adv-x="1239" 
d="M1176 549q0 -240 -174.5 -404.5t-428.5 -164.5q-211 0 -347 121.5t-136 336.5q0 84 23 197q76 358 242.5 534.5t432.5 233.5q111 25 207.5 54.5t139.5 45.5l41 19l102 -265q-113 -59 -416 -131q-127 -31 -233.5 -110.5t-139.5 -165.5q12 12 37 30.5t102 50.5t156 32
q164 0 278 -123t114 -291zM666 655q-82 0 -147.5 -64.5t-65.5 -150.5q0 -63 44 -108t103 -45q80 0 144.5 65.5t64.5 153.5q0 61 -42 105t-101 44z" />
    <glyph glyph-name="uni0432" unicode="&#x432;" horiz-adv-x="1136" 
d="M233 1004h529q147 0 232 -75t85 -175q0 -39 -10 -74t-26.5 -58.5t-36 -43t-39 -31.5t-36 -20.5t-24.5 -10.5l-8 -4q6 -2 14.5 -6t31 -20.5t39.5 -36t31.5 -53.5t14.5 -70q0 -143 -115.5 -234.5t-320.5 -91.5h-574zM621 410h-166l-35 -164h164q43 0 72.5 25.5t29.5 70.5
q1 68 -65 68zM645 614q33 0 59.5 24t26.5 58q0 25 -17.5 43.5t-41.5 18.5h-144l-30 -144h147z" />
    <glyph glyph-name="uni0433" unicode="&#x433;" horiz-adv-x="983" 
d="M301 686l-133 184q6 6 17.5 16.5t51 37t84 47t115 37t144.5 16.5q176 0 281.5 -82t105.5 -199q0 -86 -38 -150.5t-94.5 -98t-123 -60t-123 -42t-94 -37t-37.5 -48.5q0 -20 21.5 -35.5t60.5 -15.5q55 0 109 24.5t81 49.5l29 24l133 -180q-6 -8 -18.5 -21.5t-56.5 -46
t-94 -58t-133 -47t-171 -21.5q-176 0 -281.5 85t-105.5 203q0 100 52 171t128 103.5t150.5 54t127 44.5t52.5 53q0 53 -82 54q-37 0 -76 -15.5t-59 -32.5z" />
    <glyph glyph-name="uni0434" unicode="&#x434;" horiz-adv-x="1269" 
d="M907 846q-20 197 -159.5 314.5t-346.5 160.5l136 256q319 -74 497 -265.5t178 -512.5q0 -383 -192.5 -601t-482.5 -218q-197 0 -334 133t-137 303q0 225 168.5 386t386.5 161q55 0 105 -12.5t82 -29t55.5 -34t33.5 -29.5zM573 287q84 0 148.5 66.5t64.5 154.5
q0 61 -40.5 104t-100.5 43q-80 0 -147.5 -65.5t-67.5 -153.5q0 -63 42 -106t101 -43z" />
    <glyph glyph-name="uni0435" unicode="&#x435;" horiz-adv-x="1187" 
d="M1100 410h-690q14 -70 70.5 -112t142.5 -42q63 0 124.5 24.5t90.5 49.5l28 24l107 -229q-6 -6 -18.5 -15.5t-54.5 -35t-87 -45t-117.5 -34.5t-146.5 -15q-205 0 -345.5 131t-140.5 311q0 248 187.5 425t439.5 177q195 0 325 -114.5t130 -284.5q0 -106 -45 -215zM649 758
q-135 0 -205 -144h361q-2 61 -45 102.5t-111 41.5z" />
    <glyph glyph-name="uni0436" unicode="&#x436;" horiz-adv-x="1679" 
d="M563 0l58 283l-41 65l-301 -348h-392l502 580l-274 424h383l209 -328l69 328h348l-65 -308l319 308h412l-463 -437l260 -567h-366l-164 360l-88 -77l-58 -283h-348z" />
    <glyph glyph-name="uni0437" unicode="&#x437;" horiz-adv-x="972" 
d="M936 752q0 -90 -64.5 -157t-158.5 -91q6 -2 16 -6t36 -19.5t45 -36t35.5 -56.5t16.5 -77q0 -129 -124 -229t-347 -100q-88 0 -166 20t-125 49t-81.5 56.5t-49.5 48.5l-14 20l205 180q6 -10 21.5 -26.5t67.5 -44t116 -27.5q127 0 127 82q0 59 -101 59h-92l47 228h96
q47 0 75 20.5t28 48.5q0 53 -80 54q-45 0 -94 -15.5t-76 -32.5l-27 -14l-135 184q6 6 17.5 16.5t52.5 37t87 47t120.5 37t154.5 16.5q164 0 267.5 -84t103.5 -188z" />
    <glyph glyph-name="uni0438" unicode="&#x438;" horiz-adv-x="1259" 
d="M676 0l20 102q-12 -14 -33.5 -34.5t-95 -54t-155.5 -33.5q-141 0 -230.5 86t-89.5 229q0 49 12 104l129 605h349l-117 -543q-4 -25 -4 -35q0 -55 32.5 -87t88.5 -32q70 0 125 50.5t73 134.5l109 512h348l-213 -1004h-348z" />
    <glyph glyph-name="uni0439" unicode="&#x439;" horiz-adv-x="1259" 
d="M676 0l20 102q-12 -14 -33.5 -34.5t-95 -54t-155.5 -33.5q-141 0 -230.5 86t-89.5 229q0 49 12 104l129 605h349l-117 -543q-4 -25 -4 -35q0 -55 32.5 -87t88.5 -32q70 0 125 50.5t73 134.5l109 512h348l-213 -1004h-348zM745 1126q-154 0 -243.5 95.5t-61.5 232.5h246
q-8 -45 15.5 -73.5t70.5 -28.5q45 0 77 27.5t42 74.5h246q-31 -143 -136.5 -235.5t-255.5 -92.5z" />
    <glyph glyph-name="uni043A" unicode="&#x43a;" horiz-adv-x="1167" 
d="M817 567l258 -567h-370l-162 358l-123 -110l-51 -248h-349l213 1004h349l-72 -336l354 336h414z" />
    <glyph glyph-name="uni043B" unicode="&#x43b;" horiz-adv-x="1208" 
d="M336 1004h860l-213 -1004h-348l147 696h-194q-88 -408 -215 -567.5t-310 -159.5q-41 0 -82.5 8.5t-62.5 14.5l-20 8l63 307q27 -10 57 -10q57 0 96.5 30.5t83.5 137t87 303.5z" />
    <glyph glyph-name="uni043C" unicode="&#x43c;" horiz-adv-x="1392" 
d="M641 225l-164 287l-108 -512h-349l213 1004h279l203 -349l350 349h315l-213 -1004h-348l109 512z" />
    <glyph glyph-name="uni043D" unicode="&#x43d;" horiz-adv-x="1239" 
d="M442 348l-73 -348h-349l213 1004h349l-74 -349h297l74 349h348l-213 -1004h-348l73 348h-297z" />
    <glyph glyph-name="uni043E" unicode="&#x43e;" 
d="M657 717q-90 0 -159.5 -77t-69.5 -171q0 -78 48 -130t122 -52q86 0 157.5 74.5t71.5 175.5q0 80 -48 130t-122 50zM1192 547q0 -225 -183.5 -396t-422.5 -171q-227 0 -373.5 142t-146.5 337q0 223 182 394t424 171q227 0 373.5 -141t146.5 -336z" />
    <glyph glyph-name="uni043F" unicode="&#x43f;" 
d="M582 1004l-25 -113q12 14 35.5 36.5t100.5 59.5t159 37q137 0 223 -87t86 -232q0 -53 -12 -111l-125 -594h-348l112 532q4 29 5 39q0 57 -36 91t-89 34q-70 0 -122 -56t-73 -148l-104 -492h-349l213 1004h349z" />
    <glyph glyph-name="uni0440" unicode="&#x440;" horiz-adv-x="1290" 
d="M705 717q-96 0 -166 -76t-70 -176q0 -74 50 -126t118 -52q90 0 160.5 73.5t70.5 182.5q0 72 -48.5 123t-114.5 51zM395 135l-119 -565h-348l305 1434h349l-25 -111q4 6 12.5 14t35 31t58 40t82 31.5t105.5 14.5q158 0 271.5 -123t113.5 -299q0 -268 -170 -445t-387 -177
q-55 0 -105.5 16t-81 38.5t-53 45t-32.5 39.5z" />
    <glyph glyph-name="uni0441" unicode="&#x441;" horiz-adv-x="1105" 
d="M66 428q0 242 189 419t445 177q80 0 154 -21.5t121 -51t83 -59.5t52 -52l16 -21l-241 -207q-8 12 -22.5 29.5t-67 46.5t-111.5 29q-106 0 -181 -73t-75 -181q0 -74 50 -125t130 -51q59 0 114.5 28.5t82.5 57.5l26 26l164 -221q-6 -8 -19 -21.5t-56 -47t-91.5 -60
t-125 -48t-156.5 -21.5q-199 0 -340 135t-141 313z" />
    <glyph glyph-name="uni0442" unicode="&#x442;" horiz-adv-x="1822" 
d="M1249 0l113 532q14 76 -13.5 115t-91.5 39q-55 0 -103 -52t-67 -142l-104 -492h-348l113 532q14 76 -13.5 115t-91.5 39q-55 0 -103 -52t-67 -142l-104 -492h-349l213 1004h349l-25 -113q10 14 29.5 36.5t88 59.5t146.5 37q57 0 105.5 -16.5t76 -41t47 -49t27.5 -40.5
l6 -17q16 18 45 46t120 73t188 45q162 0 245.5 -115.5t40.5 -314.5l-125 -594h-348z" />
    <glyph glyph-name="uni0443" unicode="&#x443;" horiz-adv-x="1105" 
d="M231 -20l37 49l-157 975h352l63 -584l310 584h381l-592 -1004q-133 -225 -256 -327.5t-267 -102.5q-49 0 -98 8t-74 16l-24 7l63 307q39 -20 101 -21q98 1 161 93z" />
    <glyph glyph-name="uni0444" unicode="&#x444;" horiz-adv-x="1597" 
d="M778 -430h-348l82 389q-201 14 -326 147.5t-125 311.5q0 236 202 413t476 193l86 410h349l-87 -410q201 -14 326 -148.5t125 -312.5q0 -236 -202.5 -412t-475.5 -192zM1022 717l-96 -451q106 8 183 85t77 196q0 74 -43 119t-121 51zM578 266l96 451q-109 -10 -183.5 -85
t-74.5 -196q0 -74 43 -119t119 -51z" />
    <glyph glyph-name="uni0445" unicode="&#x445;" horiz-adv-x="1085" 
d="M510 287l-234 -287h-378l426 512l-193 492h365l88 -267l200 267h392l-402 -492l209 -512h-358z" />
    <glyph glyph-name="uni0446" unicode="&#x446;" horiz-adv-x="1284" 
d="M1227 1004l-137 -646q-12 -61 43 -61h75l-110 -522h-348l57 264q-18 18 -30.5 41.5t-14.5 38.5l-4 14q-6 -6 -15.5 -16.5t-43 -37t-71.5 -47t-98.5 -36.5t-123.5 -16q-139 0 -225.5 87t-86.5 234q0 51 12 109l127 594h349l-115 -533q-4 -14 -4 -43q0 -55 32.5 -88
t86.5 -33q63 0 116.5 51.5t71.5 133.5l109 512h348z" />
    <glyph glyph-name="uni0447" unicode="&#x447;" horiz-adv-x="1167" 
d="M594 0l63 303q-92 -57 -213 -57q-145 0 -232 80t-87 219q0 57 10 100l78 359h348l-67 -318q-4 -20 -5 -29q0 -43 29 -68.5t76 -25.5q37 0 68.5 10.5t46.5 20.5l12 10l86 400h348l-213 -1004h-348z" />
    <glyph glyph-name="uni0448" unicode="&#x448;" horiz-adv-x="1832" 
d="M582 1004l-113 -533q-14 -76 13.5 -115t90.5 -39q55 0 103.5 52.5t66.5 142.5l105 492h348l-113 -533q-14 -76 13.5 -115t91.5 -39q55 0 103 52.5t67 142.5l104 492h348l-213 -1004h-348l25 113q-10 -14 -29.5 -37t-88.5 -59.5t-146 -36.5q-57 0 -105.5 16t-76 40.5
t-47 49.5t-27.5 41l-6 16q-16 -18 -45 -45.5t-120 -72.5t-188 -45q-162 0 -245.5 115.5t-40.5 314.5l124 594h349z" />
    <glyph glyph-name="uni0449" unicode="&#x449;" horiz-adv-x="1867" 
d="M1009.5 -20q-57.5 0 -105.5 16t-75.5 40.5t-47 49.5t-27.5 41l-6 16q-16 -18 -45 -45.5t-120 -72.5t-188 -45q-162 0 -245.5 115.5t-40.5 314.5l124 594h349l-113 -533q-14 -76 13.5 -115t90.5 -39q55 0 103.5 52.5t66.5 142.5l105 492h348l-113 -533q-14 -76 13.5 -115
t91.5 -39q55 0 103 52.5t67 142.5l104 492h348l-137 -646q-12 -61 43 -61h76l-111 -522h-348l58 264q-18 18 -30.5 41.5t-17.5 38.5l-2 14q-6 -6 -15 -16.5t-42 -37t-68.5 -47t-92 -36.5t-114 -16z" />
    <glyph glyph-name="uni044A" unicode="&#x44a;" horiz-adv-x="1187" 
d="M1108 412q0 -182 -137 -297t-336 -115h-502l143 676h-215l70 328h563l-61 -287h112q162 0 262.5 -88t100.5 -217zM537 266h106q43 0 77 33t34 76q0 33 -22.5 54.5t-57.5 21.5h-99z" />
    <glyph glyph-name="uni044B" unicode="&#x44b;" horiz-adv-x="1597" 
d="M1585 1004l-213 -1004h-348l213 1004h348zM424 266h106q43 0 77 33t34 76q0 33 -22.5 54.5t-57.5 21.5h-98zM522 0h-502l213 1004h349l-62 -287h113q162 0 262 -88t100 -217q0 -182 -137 -297t-336 -115z" />
    <glyph glyph-name="uni044C" unicode="&#x44c;" horiz-adv-x="1095" 
d="M424 266h127q43 0 77 33t34 76q0 33 -23 54.5t-57 21.5h-119zM543 0h-523l213 1004h349l-62 -287h133q162 0 262.5 -88t100.5 -217q0 -182 -137 -297t-336 -115z" />
    <glyph glyph-name="uni044D" unicode="&#x44d;" horiz-adv-x="1105" 
d="M420 266q156 0 231 123h-344l47 225h338q-33 123 -182 123q-59 0 -120.5 -28.5t-94.5 -57.5l-31 -26l-141 194q6 8 19.5 22.5t56.5 49.5t92 61.5t125 49t155 22.5q199 0 338.5 -136t139.5 -317q0 -236 -189.5 -413.5t-445.5 -177.5q-80 0 -154 21.5t-121 51t-83 59
t-52 52.5l-16 20l219 189q8 -12 25.5 -29.5t73 -47.5t114.5 -30z" />
    <glyph glyph-name="uni044E" unicode="&#x44e;" horiz-adv-x="1699" 
d="M1051 -20q-168 0 -307.5 101t-176.5 267h-125l-73 -348h-349l213 1004h349l-74 -349h90q68 162 221.5 265.5t331.5 103.5q213 0 353.5 -136t140.5 -331q0 -233 -178 -405t-416 -172zM1069 287q88 0 153.5 78.5t65.5 173.5q0 78 -47 128t-113 50q-80 0 -149.5 -73
t-69.5 -175q0 -78 46 -130t114 -52z" />
    <glyph glyph-name="uni044F" unicode="&#x44f;" horiz-adv-x="1136" 
d="M592 1004h532l-213 -1004h-348l60 287h-70l-234 -287h-370l287 348q-12 10 -33 28.5t-53.5 83t-32.5 136.5q0 172 135 290t340 118zM719 737h-127q-49 0 -85 -28.5t-36 -79.5q0 -33 24.5 -54.5t63.5 -21.5h121z" />
    <glyph glyph-name="uni0451" unicode="&#x451;" horiz-adv-x="1187" 
d="M1100 410h-690q14 -70 70.5 -112t142.5 -42q63 0 124.5 24.5t90.5 49.5l28 24l107 -229q-6 -6 -18.5 -15.5t-54.5 -35t-87 -45t-117.5 -34.5t-146.5 -15q-205 0 -345.5 131t-140.5 311q0 248 187.5 425t439.5 177q195 0 325 -114.5t130 -284.5q0 -106 -45 -215zM649 758
q-135 0 -205 -144h361q-2 61 -45 102.5t-111 41.5zM340 1276q0 72 61.5 130t137.5 58q66 0 110.5 -47t44.5 -110q0 -74 -61.5 -132.5t-136.5 -58.5q-66 0 -111 48.5t-45 111.5zM811 1276q0 72 61.5 130t137.5 58q66 0 110.5 -47t44.5 -110q0 -74 -61.5 -132.5t-136.5 -58.5
q-66 0 -111 48.5t-45 111.5z" />
    <glyph glyph-name="uni0452" unicode="&#x452;" 
d="M702 1434l-28 -134h215l-64 -307h-215l-45 -205q12 14 37 37t103.5 60t160.5 37q133 0 218 -94.5t85 -243.5q0 -287 -169 -456t-478 -169l70 328q90 0 152.5 56t62.5 155q0 45 -31 70.5t-84 25.5q-76 0 -133 -56.5t-78 -148.5l-82 -389h-348l211 993h-153l63 307h154
l28 134h348z" />
    <glyph glyph-name="uni0453" unicode="&#x453;" horiz-adv-x="983" 
d="M463 1126l242 330h376l-317 -330h-301zM301 686l-133 184q6 6 17.5 16.5t51 37t84 47t115 37t144.5 16.5q176 0 281.5 -82t105.5 -199q0 -86 -38 -150.5t-94.5 -98t-123 -60t-123 -42t-94 -37t-37.5 -48.5q0 -20 21.5 -35.5t60.5 -15.5q55 0 109 24.5t81 49.5l29 24
l133 -180q-6 -8 -18.5 -21.5t-56.5 -46t-94 -58t-133 -47t-171 -21.5q-176 0 -281.5 85t-105.5 203q0 100 52 171t128 103.5t150.5 54t127 44.5t52.5 53q0 53 -82 54q-37 0 -76 -15.5t-59 -32.5z" />
    <glyph glyph-name="uni0454" unicode="&#x454;" horiz-adv-x="1116" 
d="M692 758q-158 0 -241 -144h354l-47 -225h-344q43 -141 182 -141q74 0 138.5 30.5t92.5 61.5l29 31l145 -187q-6 -8 -19 -22.5t-59 -49t-95.5 -61t-127 -49t-157.5 -22.5q-199 0 -338 137t-139 317q0 240 191.5 415t451.5 175q80 0 152.5 -21.5t118.5 -51t81 -59.5t49 -52
l16 -21l-206 -176q-2 4 -7.5 12.5t-26 27.5t-44 34.5t-64.5 28t-86 12.5z" />
    <glyph glyph-name="uni0455" unicode="&#x455;" horiz-adv-x="962" 
d="M983 870l-209 -182q-61 59 -143 60q-45 0 -70.5 -17.5t-25.5 -44.5q0 -20 35.5 -40.5t87 -42t101.5 -51.5t86 -83t36 -123q0 -158 -126 -262t-352 -104q-88 0 -165.5 20t-126 49t-83 56.5t-48.5 48.5l-15 20l209 180q6 -10 20.5 -26.5t61.5 -44t102 -27.5q45 0 71 17.5
t26 43.5q0 20 -36 41t-86 42.5t-101.5 51t-87 83t-35.5 122.5q0 158 125.5 262.5t351.5 104.5q119 0 218 -39t138 -76z" />
    <glyph glyph-name="uni0456" unicode="&#x456;" horiz-adv-x="614" 
d="M592 1004l-213 -1004h-348l213 1004h348zM276 1278q0 80 63.5 143.5t154.5 63.5q80 0 130 -48t50 -116q0 -82 -64.5 -143.5t-150.5 -61.5q-82 0 -132.5 46t-50.5 116z" />
    <glyph glyph-name="uni0457" unicode="&#x457;" horiz-adv-x="614" 
d="M61 1276q0 72 61.5 130t137.5 58q66 0 111 -47t45 -110q0 -74 -61.5 -132.5t-137.5 -58.5q-66 0 -111 48.5t-45 111.5zM532 1276q0 72 61.5 130t137.5 58q66 0 111 -47t45 -110q0 -74 -61.5 -132.5t-137.5 -58.5q-66 0 -111 48.5t-45 111.5zM592 1004l-213 -1004h-348
l213 1004h348z" />
    <glyph glyph-name="uni0458" unicode="&#x458;" horiz-adv-x="614" 
d="M31 0l213 1004h348l-225 -1055q-37 -174 -157 -276.5t-282 -102.5q-53 0 -102 8t-72 16l-22 7l65 307q47 -20 99 -21q45 0 85 34t50 79zM276 1278q0 80 63.5 143.5t154.5 63.5q80 0 130 -48t50 -116q0 -82 -64.5 -143.5t-150.5 -61.5q-82 0 -132.5 46t-50.5 116z" />
    <glyph glyph-name="uni0459" unicode="&#x459;" horiz-adv-x="1679" 
d="M1597 410q0 -186 -134 -298t-337 -112h-512l148 696h-174q-88 -408 -214 -567.5t-308 -159.5q-41 0 -83 8.5t-65 14.5l-20 8l63 307q29 -10 59 -10q57 0 96.5 30.5t82.5 136t86 304.5l51 236h840l-66 -308h123q168 0 266 -81.5t98 -204.5zM1018 266h115q51 0 80.5 25.5
t29.5 73.5q0 29 -21.5 47t-60.5 18h-108z" />
    <glyph glyph-name="uni045A" unicode="&#x45a;" horiz-adv-x="1699" 
d="M1038 266h115q51 0 81 25.5t30 73.5q0 29 -21.5 47t-60.5 18h-109zM1147 0h-512l82 389h-266l-82 -389h-349l213 1004h349l-66 -308h266l66 308h348l-66 -308h123q168 0 266.5 -82t98.5 -204q0 -186 -134 -298t-337 -112z" />
    <glyph glyph-name="uni045B" unicode="&#x45b;" horiz-adv-x="1280" 
d="M702 1434l-28 -134h215l-64 -307h-215l-45 -207q12 14 36 37t100.5 61t158.5 38q139 0 225 -87t86 -235q0 -51 -12 -108l-104 -492h-348l90 430q4 14 4 43q0 55 -34 88t-87 33q-70 0 -124 -56.5t-75 -148.5l-82 -389h-348l211 993h-153l63 307h154l28 134h348z" />
    <glyph glyph-name="uni045C" unicode="&#x45c;" horiz-adv-x="1167" 
d="M569 1126l242 330h377l-318 -330h-301zM817 567l258 -567h-370l-162 358l-123 -110l-51 -248h-349l213 1004h349l-72 -336l354 336h414z" />
    <glyph glyph-name="uni045E" unicode="&#x45e;" horiz-adv-x="1105" 
d="M231 -20l37 49l-157 975h352l63 -584l310 584h381l-592 -1004q-133 -225 -256 -327.5t-267 -102.5q-49 0 -98 8t-74 16l-24 7l63 307q39 -20 101 -21q98 1 161 93zM684 1126q-154 0 -244 95.5t-61 232.5h246q-8 -45 15.5 -73.5t70.5 -28.5q45 0 76.5 27.5t41.5 74.5h246
q-31 -143 -136 -235.5t-255 -92.5z" />
    <glyph glyph-name="uni045F" unicode="&#x45f;" horiz-adv-x="1228" 
d="M582 1004l-150 -697h287l149 697h349l-213 -1004h-318l-49 -225h-348l49 225h-318l213 1004h349z" />
    <glyph glyph-name="uni0490" unicode="&#x490;" horiz-adv-x="1208" 
d="M72 0l303 1434h655l57 266h369l-131 -615h-635l-229 -1085h-389z" />
    <glyph glyph-name="uni0491" unicode="&#x491;" horiz-adv-x="921" 
d="M942 676h-430l-143 -676h-349l213 1004h441l43 204h338z" />
    <glyph glyph-name="uni1E9E" unicode="&#x1e9e;" horiz-adv-x="1423" 
d="M1143 829q8 -4 22.5 -11t50 -35.5t63.5 -63.5t50.5 -94.5t22.5 -124.5q0 -203 -168 -351.5t-432 -148.5h-158l61 297h86q86 0 141.5 51t55.5 135q0 53 -39 87t-102 34h-76l55 256l221 246h-139q-78 0 -137 -49t-74 -125l-196 -932h-390l199 942q43 211 222.5 351.5
t414.5 140.5h573l-67 -318z" />
    <glyph glyph-name="endash" unicode="&#x2013;" horiz-adv-x="1064" 
d="M1059 748l-62 -287h-921l61 287h922z" />
    <glyph glyph-name="emdash" unicode="&#x2014;" horiz-adv-x="1556" 
d="M1550 748l-61 -287h-1413l61 287h1413z" />
    <glyph glyph-name="quoteleft" unicode="&#x2018;" horiz-adv-x="593" 
d="M424 848l-260 166l395 461l195 -123z" />
    <glyph glyph-name="quoteright" unicode="&#x2019;" horiz-adv-x="593" 
d="M477 1477l260 -166l-395 -461l-195 123z" />
    <glyph glyph-name="quotesinglbase" unicode="&#x201a;" horiz-adv-x="583" 
d="M201 352l248 -168l-383 -450l-201 125z" />
    <glyph glyph-name="quotedblleft" unicode="&#x201c;" horiz-adv-x="1024" 
d="M406 856l-242 158l395 461l176 -115zM856 856l-242 158l396 461l176 -115z" />
    <glyph glyph-name="quotedblright" unicode="&#x201d;" horiz-adv-x="1024" 
d="M930 1479l241 -158l-395 -461l-176 115zM479 1479l242 -158l-395 -461l-176 115z" />
    <glyph glyph-name="quotedblbase" unicode="&#x201e;" horiz-adv-x="1003" 
d="M631 350l239 -155l-395 -461l-174 112zM180 350l240 -155l-395 -461l-172 112z" />
    <glyph glyph-name="dagger" unicode="&#x2020;" horiz-adv-x="993" 
d="M506 1178l53 256h297l-53 -256h246l-58 -267h-246l-133 -624h-297l134 624h-246l57 267h246z" />
    <glyph glyph-name="daggerdbl" unicode="&#x2021;" horiz-adv-x="993" 
d="M512 1208l47 226h297l-47 -226h246l-58 -266h-245l-35 -164h246l-56 -266h-245l-50 -225h-297l50 225h-246l55 266h246l35 164h-246l57 266h246z" />
    <glyph glyph-name="bullet" unicode="&#x2022;" horiz-adv-x="901" 
d="M745 524q0 -119 -94 -214t-219 -95q-111 0 -182.5 70.5t-71.5 173.5q0 125 95.5 217t218.5 92q111 0 182 -71t71 -173z" />
    <glyph glyph-name="ellipsis" unicode="&#x2026;" horiz-adv-x="1699" 
d="M594 141q0 80 63.5 143.5t153.5 63.5q80 0 130 -48t50 -116q0 -82 -64.5 -143t-150.5 -61q-82 0 -132 45.5t-50 115.5zM1167 141q0 80 63.5 143.5t153.5 63.5q80 0 130.5 -48t50.5 -116q0 -82 -64.5 -143t-150.5 -61q-82 0 -132.5 45.5t-50.5 115.5zM20 141
q0 80 63.5 143.5t154.5 63.5q80 0 130 -48t50 -116q0 -82 -64.5 -143t-150.5 -61q-82 0 -132.5 45.5t-50.5 115.5z" />
    <glyph glyph-name="perthousand" unicode="&#x2030;" horiz-adv-x="2560" 
d="M573 1239q-55 0 -96 -41t-41 -98q0 -45 32 -76t85 -31t95 40t42 97q0 47 -32 78t-85 31zM940 1145q0 -152 -121 -264.5t-291 -112.5q-147 0 -244.5 93t-97.5 224q0 152 120 265.5t292 113.5q150 0 246 -94t96 -225zM174 0l1194 1434h338l-1194 -1434h-338zM1317 440
q-55 0 -96 -41t-41 -98q0 -45 31.5 -75.5t85 -30.5t95.5 39.5t42 97.5q0 47 -32 77.5t-85 30.5zM1683 346q0 -152 -120.5 -264.5t-290.5 -112.5q-147 0 -244.5 93.5t-97.5 224.5q0 152 119.5 265.5t291.5 113.5q150 0 246 -94.5t96 -225.5zM2126 440q-55 0 -96 -41t-41 -98
q0 -45 31.5 -75.5t85 -30.5t95.5 39.5t42 97.5q0 47 -32 77.5t-85 30.5zM2492 346q0 -152 -120.5 -264.5t-290.5 -112.5q-147 0 -244.5 93.5t-97.5 224.5q0 152 119.5 265.5t291.5 113.5q150 0 246 -94.5t96 -225.5z" />
    <glyph glyph-name="guilsinglleft" unicode="&#x2039;" horiz-adv-x="757" 
d="M788 860l-360 -383l178 -354h-336l-186 369l344 368h360z" />
    <glyph glyph-name="guilsinglright" unicode="&#x203a;" horiz-adv-x="757" 
d="M-6 123l360 383l-178 354h336l186 -368l-344 -369h-360z" />
    <glyph glyph-name="fraction" unicode="&#x2044;" horiz-adv-x="481" 
d="M-461 0l1184 1434h338l-1182 -1434h-340z" />
    <glyph glyph-name="uni2070" unicode="&#x2070;" horiz-adv-x="778" 
d="M600 1436q-72 0 -108.5 -69t-36.5 -148q0 -51 20.5 -82t52.5 -31q51 0 99.5 54t48.5 159q0 53 -21.5 85t-54.5 32zM915 1343q0 -172 -105 -311t-286 -139q-139 0 -224 83t-85 222q0 201 114.5 326t276.5 125q139 0 224 -84.5t85 -221.5z" />
    <glyph glyph-name="uni2074" unicode="&#x2074;" horiz-adv-x="696" 
d="M840 1638l-86 -399h71l-43 -205h-71l-29 -133h-236l29 133h-317l41 195l389 409h252zM416 1229h110l35 164z" />
    <glyph glyph-name="uni2075" unicode="&#x2075;" horiz-adv-x="665" 
d="M600 1382q84 0 138.5 -57t54.5 -137q0 -129 -100.5 -213t-254.5 -84q-63 0 -116.5 11t-85 27.5t-54 34t-30.5 27.5l-11 13l150 133q41 -51 133 -52q45 0 73.5 26t28.5 65q0 29 -19.5 46t-51.5 17q-18 0 -37 -5t-29 -9l-8 -6h-143l141 419h461l-41 -184h-260l-27 -82
q37 10 88 10z" />
    <glyph glyph-name="uni2076" unicode="&#x2076;" horiz-adv-x="665" 
d="M819 1638l-188 -204q80 -20 128 -78t48 -137q0 -137 -99.5 -232.5t-252.5 -95.5q-119 0 -197 65.5t-78 161.5q0 59 24.5 117.5t49.5 87.5l25 29l276 286h264zM477 1085q41 0 71 28t30 73q0 63 -70 63q-45 0 -72.5 -28.5t-27.5 -75.5q-1 -60 69 -60z" />
    <glyph glyph-name="uni2077" unicode="&#x2077;" horiz-adv-x="614" 
d="M276 1638h564l-49 -225l-345 -512h-253l342 512h-308z" />
    <glyph glyph-name="uni2078" unicode="&#x2078;" horiz-adv-x="675" 
d="M479 1085q41 0 66.5 19.5t25.5 46.5q0 23 -20.5 40t-52.5 17q-43 0 -67.5 -20.5t-24.5 -48.5q0 -20 20 -37t53 -17zM539 1362q68 0 67 59q0 18 -15.5 30.5t-39.5 12.5q-70 0 -70 -59q1 -43 58 -43zM451 891q-137 0 -214 57.5t-77 141.5q0 74 46 125t93 65l45 14
q-10 4 -23.5 14.5t-37 44t-23.5 74.5q0 96 84 159t236 63q123 0 192.5 -52.5t69.5 -126.5q0 -63 -39 -110t-71 -61.5t-40 -14.5q4 -2 11.5 -5t27 -16.5t33.5 -28.5t26.5 -41t12.5 -56q0 -106 -92 -176t-260 -70z" />
    <glyph glyph-name="uni2079" unicode="&#x2079;" horiz-adv-x="665" 
d="M201 901l188 205q-80 20 -128 77.5t-48 137.5q0 137 99.5 232.5t252.5 95.5q119 0 197 -65.5t78 -162.5q0 -59 -24.5 -117.5t-49.5 -86.5l-25 -29l-276 -287h-264zM543 1454q-41 0 -71 -27.5t-30 -72.5q0 -63 70 -64q45 0 72.5 29t27.5 76q1 59 -69 59z" />
    <glyph glyph-name="uni2080" unicode="&#x2080;" horiz-adv-x="778" 
d="M367 328q-72 0 -109 -69t-37 -148q0 -51 20.5 -82t53.5 -31q51 0 99 54t48 159q0 53 -21 85t-54 32zM682 236q0 -172 -105.5 -311.5t-285.5 -139.5q-139 0 -224 83t-85 222q0 201 114.5 326t276.5 125q139 0 224 -84t85 -221z" />
    <glyph glyph-name="uni2081" unicode="&#x2081;" horiz-adv-x="491" 
d="M215 532h215l-158 -737h-245l98 461h-123l37 174q47 4 91 29.5t65 48.5z" />
    <glyph glyph-name="uni2082" unicode="&#x2082;" horiz-adv-x="696" 
d="M612 346q0 -72 -33.5 -127t-75.5 -84t-99.5 -64.5t-81.5 -60.5h210l-45 -215h-563q20 100 71.5 176t110 118t113.5 74t91 61.5t36 62.5q0 41 -51 41q-23 0 -46.5 -16.5t-35.5 -32.5l-10 -15l-176 80q4 8 12 21.5t36.5 47t62.5 60.5t92.5 48.5t121.5 21.5
q117 0 188.5 -56.5t71.5 -140.5z" />
    <glyph glyph-name="uni2083" unicode="&#x2083;" horiz-adv-x="706" 
d="M467 176q10 -4 25.5 -12t41 -43t25.5 -80q0 -106 -92 -181t-240 -75q-98 0 -172.5 34t-99.5 66l-25 33l146 127q53 -66 145 -65q37 0 61.5 21.5t24.5 47.5q0 53 -84 53h-69l34 164h72q82 0 82 53q0 39 -66 39q-27 0 -58.5 -15t-49.5 -30l-16 -14l-93 131q10 12 31 30.5
t97.5 50.5t166.5 32q113 0 182.5 -58.5t69.5 -130.5q0 -23 -5 -42t-13 -35.5t-18.5 -30t-22.5 -23.5t-23.5 -18t-21.5 -13.5t-18.5 -8.5t-12.5 -5z" />
    <glyph glyph-name="uni2084" unicode="&#x2084;" horiz-adv-x="696" 
d="M604 532l-86 -399h72l-43 -205h-72l-29 -133h-235l29 133h-318l41 195l389 409h252zM180 123h111l35 164z" />
    <glyph glyph-name="uni2085" unicode="&#x2085;" horiz-adv-x="665" 
d="M365 276q84 0 138 -57t54 -137q0 -129 -100.5 -213t-253.5 -84q-63 0 -116.5 11t-85.5 27.5t-54.5 34t-32.5 27.5l-8 13l149 133q41 -51 133 -51q45 0 74 25.5t29 64.5q0 29 -19.5 46t-52.5 17q-18 0 -36.5 -5t-26.5 -9l-11 -6h-143l141 419h461l-41 -184h-260l-27 -82
q38 10 89 10z" />
    <glyph glyph-name="uni2086" unicode="&#x2086;" horiz-adv-x="665" 
d="M584 532l-189 -204q80 -20 128 -77.5t48 -137.5q0 -137 -99 -232.5t-253 -95.5q-119 0 -196.5 65.5t-77.5 161.5q0 59 24.5 117.5t48.5 87.5l25 29l276 286h265zM242 -20q41 0 70.5 27.5t29.5 72.5q0 63 -70 63q-43 0 -71.5 -28.5t-28.5 -75.5q0 -59 70 -59z" />
    <glyph glyph-name="uni2087" unicode="&#x2087;" horiz-adv-x="614" 
d="M41 532h563l-49 -225l-344 -512h-254l342 512h-307z" />
    <glyph glyph-name="uni2088" unicode="&#x2088;" horiz-adv-x="675" 
d="M248 -20q39 0 65.5 19t26.5 46q0 23 -20.5 40t-53.5 17q-43 0 -67.5 -20.5t-24.5 -48.5q0 -20 20.5 -36.5t53.5 -16.5zM307 256q68 0 68 59q0 18 -15.5 30.5t-40.5 12.5q-70 0 -69 -59q0 -43 57 -43zM219 -215q-137 0 -214 57.5t-77 141.5q0 74 46 125t92 65l47 14
q-10 4 -23.5 14.5t-37 44.5t-23.5 75q0 96 84 158.5t235 62.5q123 0 192.5 -52.5t69.5 -125.5q0 -63 -39 -110.5t-70.5 -62t-39.5 -14.5q4 -2 11 -5t26.5 -16.5t34 -28.5t26.5 -41t12 -56q0 -106 -92 -176t-260 -70z" />
    <glyph glyph-name="uni2089" unicode="&#x2089;" horiz-adv-x="665" 
d="M-35 -205l189 205q-80 20 -128.5 77.5t-48.5 137.5q0 137 99.5 232.5t253.5 95.5q119 0 196.5 -65.5t77.5 -162.5q0 -59 -24.5 -117.5t-49.5 -86.5l-24 -29l-277 -287h-264zM307 348q-41 0 -70.5 -27.5t-29.5 -72.5q0 -63 69 -64q43 0 72 29t29 76q0 59 -70 59z" />
    <glyph glyph-name="Euro" unicode="&#x20ac;" horiz-adv-x="1546" 
d="M1006 451h-334q2 -6 8 -17.5t28.5 -40t52.5 -50t83 -39t117 -17.5q82 0 159.5 37.5t114.5 76.5l37 37l174 -233q-8 -10 -21.5 -26.5t-63.5 -58.5t-108.5 -75t-153.5 -59.5t-198 -26.5q-104 0 -196.5 26.5t-156 70.5t-116.5 96.5t-85 104.5t-54.5 96t-30.5 71l-8 27h-191
l46 204h141l22 123h-139l45 205h160q23 45 55.5 93t104 124t154.5 133.5t210 99.5t266 42q102 0 195.5 -25t153 -59.5t104.5 -68.5t66 -58l18 -25l-256 -219q-12 14 -35.5 35.5t-100.5 56.5t-159 35q-100 0 -185 -41t-122 -82l-35 -41h348l-45 -205h-407l-25 -123h408z" />
    <glyph glyph-name="uni20B4" unicode="&#x20b4;" horiz-adv-x="1351" 
d="M154 778l45 205h655l4 4q4 6 10 20.5t6 34.5q0 43 -35.5 74t-101.5 31q-63 0 -126.5 -24.5t-94.5 -49.5l-33 -24l-170 217q6 8 20.5 22.5t63.5 50t104.5 63.5t145.5 50.5t189 22.5q213 0 345 -107.5t132 -259.5q0 -27 -19 -125h92l-45 -205h-1187zM1317 655l-45 -204
h-656l-4 -5q-4 -6 -10 -21t-6 -36q0 -43 37 -72.5t100.5 -29.5t127 24.5t93.5 48.5l33 25l170 -215q-6 -8 -20.5 -22.5t-63.5 -51.5t-104.5 -64.5t-145.5 -50t-188 -22.5q-213 0 -345 107.5t-132 259.5q0 39 18 125h-92l45 204h1188z" />
    <glyph glyph-name="uni20BD" unicode="&#x20bd;" horiz-adv-x="1474" 
d="M707 819h237q78 0 131 49.5t53 122.5q0 49 -34.5 82t-94.5 33h-233zM924 543h-277l-20 -92h409l-57 -277h-410l-37 -174h-389l37 174h-143l57 277h144l20 92h-143l59 276h143l129 615h611q207 0 339 -121t132 -283q0 -217 -166 -352t-438 -135z" />
    <glyph glyph-name="uni2116" unicode="&#x2116;" horiz-adv-x="2447" 
d="M2097 922q-51 0 -95 -39t-44 -97q0 -47 31.5 -78.5t85.5 -31.5q55 0 96 41t41 100q0 45 -31 75t-84 30zM2460 827q0 -152 -120 -264t-288 -112q-147 0 -244.5 94t-97.5 225q0 150 121 262.5t287 112.5q150 0 246 -93.5t96 -224.5zM2327 307l-64 -307h-696l63 307h697z
M1327 1434h389l-303 -1434h-330l-454 799l-168 -799h-389l303 1434h332l450 -799z" />
    <glyph glyph-name="trademark" unicode="&#x2122;" horiz-adv-x="1566" 
d="M1171 891l-120 205l-68 -318h-235l139 656h203l135 -236l233 236h228l-140 -656h-235l67 318zM184 1208l47 226h580l-47 -226h-170l-92 -430h-236l92 430h-174z" />
    <glyph glyph-name="minus" unicode="&#x2212;" horiz-adv-x="1095" 
d="M1092 758l-66 -307h-952l65 307h953z" />
    <glyph glyph-name="approxequal" unicode="&#x2248;" horiz-adv-x="1187" 
d="M504 727q-49 0 -96.5 -25.5t-69.5 -50.5l-23 -26l-190 163q4 10 12 25.5t39 56.5t68 72t98 56.5t131 25.5q98 0 205.5 -56.5t167.5 -56.5q49 0 96 26t70 50l22 27l191 -164q-4 -10 -12.5 -25.5t-39 -56.5t-67.5 -71.5t-98.5 -56.5t-130.5 -26q-98 0 -206 56.5t-167 56.5z
M412 297q-49 0 -96.5 -25.5t-69.5 -50.5l-21 -26l-190 163q4 10 12 25.5t39 56.5t66.5 72t97 56.5t131.5 25.5q98 0 205.5 -56.5t167.5 -56.5q49 0 96 25.5t70 50.5l22 27l191 -164q-4 -10 -12.5 -25.5t-39 -56.5t-66.5 -71.5t-97.5 -56.5t-131.5 -26q-98 0 -206.5 56.5
t-167.5 56.5z" />
    <glyph glyph-name="notequal" unicode="&#x2260;" horiz-adv-x="1013" 
d="M123 676l59 287h420l96 163h318l-96 -163h133l-60 -287h-245l-93 -144h308l-62 -286h-420l-96 -164h-317l96 164h-133l61 286h246l92 144h-307z" />
    <glyph glyph-name="lessequal" unicode="&#x2264;" horiz-adv-x="1064" 
d="M586 778l444 -174l-63 -287l-842 369l43 205l999 369l-63 -308zM-20 0l55 266h921l-55 -266h-921z" />
    <glyph glyph-name="greaterequal" unicode="&#x2265;" horiz-adv-x="1064" 
d="M109 625l518 174l-445 174l64 287l844 -369l-43 -205l-1002 -369zM956 266l-55 -266h-921l55 266h921z" />
    <glyph glyph-name="uniF6C3" unicode="&#xf6c3;" horiz-adv-x="552" 
d="M-139 -492l166 328h335l-223 -328h-278z" />
    <glyph glyph-name="uniF6D1" unicode="&#xf6d1;" horiz-adv-x="839" 
d="M694 1587q-162 0 -255 96.5t-62 241.5h246q-10 -53 15.5 -83t80.5 -30q106 0 129 113h246q-31 -150 -136.5 -244t-263.5 -94z" />
    <glyph glyph-name="uniF6D4" unicode="&#xf6d4;" horiz-adv-x="819" 
d="M582 1126q-154 0 -244 95.5t-62 232.5h246q-8 -45 15.5 -73.5t70.5 -28.5q45 0 77 27.5t42 74.5h246q-31 -143 -136 -235.5t-255 -92.5z" />
    <glyph glyph-name="glyph2" horiz-adv-x="681" 
 />
    <glyph glyph-name="lslash.salt" horiz-adv-x="880" 
d="M795 1434l-90 -430l172 92l90 -256l-334 -174l-55 -256q-23 -113 88 -113q23 0 49 5t43 9l14 6l-63 -307q-84 -31 -197 -30q-178 0 -255 99t-36 290l19 92l-172 -92l-91 256l334 174l135 635h349z" />
    <glyph glyph-name="glyph444" horiz-adv-x="1423" 
d="M1143 829q8 -4 22.5 -11t50 -35.5t63.5 -63.5t50.5 -94.5t22.5 -124.5q0 -203 -168 -351.5t-432 -148.5h-158l61 297h86q86 0 141.5 51t55.5 135q0 53 -39 87t-102 34h-76l55 256l221 246h-139q-78 0 -137 -49t-74 -125l-196 -932h-390l199 942q43 211 222.5 351.5
t414.5 140.5h573l-67 -318z" />
    <glyph glyph-name="uni045E.salt" horiz-adv-x="1105" 
d="M682 1126q-154 0 -244 95.5t-61 232.5h246q-8 -45 15.5 -73.5t70.5 -28.5q45 0 76.5 27.5t41.5 74.5h246q-31 -143 -136 -235.5t-255 -92.5zM10 -430l262 430l-161 1004h348l67 -580l312 580h379l-848 -1434h-359z" />
    <glyph glyph-name="agrave.salt" horiz-adv-x="1308" 
d="M596 287q96 0 165.5 75.5t69.5 176.5q0 74 -50 126t-117 52q-90 0 -161 -74t-71 -182q0 -72 49 -123t115 -51zM1282 1004l-137 -646q-14 -61 47 -61l43 10l-61 -297q-57 -31 -146 -30q-61 0 -107.5 16t-69 38.5t-35.5 46t-17 40.5l-2 16q-6 -6 -16.5 -17t-45.5 -38
t-72.5 -47.5t-96 -37.5t-117.5 -17q-158 0 -270.5 123.5t-112.5 299.5q0 268 170 444.5t387 176.5q86 0 156.5 -39t97.5 -76l28 -39l29 134h348zM805 1466l98 -329h-287l-174 329h363z" />
    <glyph glyph-name="aacute.salt" horiz-adv-x="1308" 
d="M596 287q96 0 165.5 75.5t69.5 176.5q0 74 -50 126t-117 52q-90 0 -161 -74t-71 -182q0 -72 49 -123t115 -51zM1282 1004l-137 -646q-14 -61 47 -61l43 10l-61 -297q-57 -31 -146 -30q-61 0 -107.5 16t-69 38.5t-35.5 46t-17 40.5l-2 16q-6 -6 -16.5 -17t-45.5 -38
t-72.5 -47.5t-96 -37.5t-117.5 -17q-158 0 -270.5 123.5t-112.5 299.5q0 268 170 444.5t387 176.5q86 0 156.5 -39t97.5 -76l28 -39l29 134h348zM555 1137l242 329h377l-318 -329h-301z" />
    <glyph glyph-name="abreve.salt" horiz-adv-x="1308" 
d="M596 287q96 0 165.5 75.5t69.5 176.5q0 74 -50 126t-117 52q-90 0 -161 -74t-71 -182q0 -72 49 -123t115 -51zM1282 1004l-137 -646q-14 -61 47 -61l43 10l-61 -297q-57 -31 -146 -30q-61 0 -107.5 16t-69 38.5t-35.5 46t-17 40.5l-2 16q-6 -6 -16.5 -17t-45.5 -38
t-72.5 -47.5t-96 -37.5t-117.5 -17q-158 0 -270.5 123.5t-112.5 299.5q0 268 170 444.5t387 176.5q86 0 156.5 -39t97.5 -76l28 -39l29 134h348zM766 1137q-154 0 -244 95t-61 232h246q-8 -45 15 -73.5t71 -28.5q45 0 76.5 27.5t41.5 74.5h246q-31 -143 -136 -235t-255 -92z
" />
    <glyph glyph-name="acircumflex.salt" horiz-adv-x="1308" 
d="M596 287q96 0 165.5 75.5t69.5 176.5q0 74 -50 126t-117 52q-90 0 -161 -74t-71 -182q0 -72 49 -123t115 -51zM1282 1004l-137 -646q-14 -61 47 -61l43 10l-61 -297q-57 -31 -146 -30q-61 0 -107.5 16t-69 38.5t-35.5 46t-17 40.5l-2 16q-6 -6 -16.5 -17t-45.5 -38
t-72.5 -47.5t-96 -37.5t-117.5 -17q-158 0 -270.5 123.5t-112.5 299.5q0 268 170 444.5t387 176.5q86 0 156.5 -39t97.5 -76l28 -39l29 134h348zM809 1280l-131 -143h-334l332 327h311l197 -327h-299z" />
    <glyph glyph-name="adieresis.salt" horiz-adv-x="1308" 
d="M596 287q96 0 165.5 75.5t69.5 176.5q0 74 -50 126t-117 52q-90 0 -161 -74t-71 -182q0 -72 49 -123t115 -51zM1282 1004l-137 -646q-14 -61 47 -61l43 10l-61 -297q-57 -31 -146 -30q-61 0 -107.5 16t-69 38.5t-35.5 46t-17 40.5l-2 16q-6 -6 -16.5 -17t-45.5 -38
t-72.5 -47.5t-96 -37.5t-117.5 -17q-158 0 -270.5 123.5t-112.5 299.5q0 268 170 444.5t387 176.5q86 0 156.5 -39t97.5 -76l28 -39l29 134h348zM379 1276q0 72 61.5 130t137.5 58q66 0 110.5 -47t44.5 -110q0 -74 -61.5 -132.5t-136.5 -58.5q-66 0 -111 48.5t-45 111.5z
M850 1276q0 72 61.5 130t137.5 58q66 0 110.5 -47t44.5 -110q0 -74 -61.5 -132.5t-136.5 -58.5q-66 0 -111 48.5t-45 111.5z" />
    <glyph glyph-name="amacron.salt" horiz-adv-x="1308" 
d="M596 287q96 0 165.5 75.5t69.5 176.5q0 74 -50 126t-117 52q-90 0 -161 -74t-71 -182q0 -72 49 -123t115 -51zM1282 1004l-137 -646q-14 -61 47 -61l43 10l-61 -297q-57 -31 -146 -30q-61 0 -107.5 16t-69 38.5t-35.5 46t-17 40.5l-2 16q-6 -6 -16.5 -17t-45.5 -38
t-72.5 -47.5t-96 -37.5t-117.5 -17q-158 0 -270.5 123.5t-112.5 299.5q0 268 170 444.5t387 176.5q86 0 156.5 -39t97.5 -76l28 -39l29 134h348zM1139 1464l-58 -266h-675l57 266h676z" />
    <glyph glyph-name="aogonek.salt" horiz-adv-x="1308" 
d="M596 287q96 0 165.5 75.5t69.5 176.5q0 74 -50 126t-117 52q-90 0 -161 -74t-71 -182q0 -72 49 -123t115 -51zM1282 1004l-137 -646q-14 -61 47 -61l43 10l-61 -297q-57 -31 -144 -30q-90 -109 -90 -205q0 -61 68 -62q27 0 54.5 8.5t39.5 16.5l14 6l-39 -184
q-80 -41 -192 -41q-94 0 -148.5 51t-54.5 131q0 37 12.5 73t30.5 64.5t42 54t46.5 46t41.5 35t32 22.5l12 8q-43 18 -68.5 52t-29.5 59l-4 22q-6 -6 -16.5 -17t-45.5 -38t-72.5 -47.5t-96 -37.5t-117.5 -17q-158 0 -270.5 123.5t-112.5 299.5q0 268 170 444.5t387 176.5
q86 0 156.5 -39t97.5 -76l28 -39l29 134h348z" />
    <glyph glyph-name="aring.salt" horiz-adv-x="1308" 
d="M596 287q96 0 165.5 75.5t69.5 176.5q0 74 -50 126t-117 52q-90 0 -161 -74t-71 -182q0 -72 49 -123t115 -51zM1282 1004l-137 -646q-14 -61 47 -61l43 10l-61 -297q-57 -31 -146 -30q-61 0 -107.5 16t-69 38.5t-35.5 46t-17 40.5l-2 16q-6 -6 -16.5 -17t-45.5 -38
t-72.5 -47.5t-96 -37.5t-117.5 -17q-158 0 -270.5 123.5t-112.5 299.5q0 268 170 444.5t387 176.5q86 0 156.5 -39t97.5 -76l28 -39l29 134h348zM782 1423q-37 0 -62.5 -26.5t-25.5 -69.5q0 -68 80 -67q35 0 62.5 26.5t27.5 67.5q0 69 -82 69zM1051 1360q0 -106 -89.5 -185
t-203.5 -79q-113 0 -182.5 64.5t-69.5 158.5q0 109 87 188.5t206 79.5q113 0 182.5 -66.5t69.5 -160.5z" />
    <glyph glyph-name="atilde.salt" horiz-adv-x="1308" 
d="M596 287q96 0 165.5 75.5t69.5 176.5q0 74 -50 126t-117 52q-90 0 -161 -74t-71 -182q0 -72 49 -123t115 -51zM1282 1004l-137 -646q-14 -61 47 -61l43 10l-61 -297q-57 -31 -146 -30q-61 0 -107.5 16t-69 38.5t-35.5 46t-17 40.5l-2 16q-6 -6 -16.5 -17t-45.5 -38
t-72.5 -47.5t-96 -37.5t-117.5 -17q-158 0 -270.5 123.5t-112.5 299.5q0 268 170 444.5t387 176.5q86 0 156.5 -39t97.5 -76l28 -39l29 134h348zM682 1219q-72 0 -94 -103h-215q39 176 113.5 262t170.5 86q74 0 142.5 -51t97.5 -51q72 0 94 102h215q-76 -348 -282 -348
q-74 0 -143.5 51.5t-98.5 51.5z" />
    <glyph glyph-name="lacute.salt" horiz-adv-x="727" 
d="M387 1597l242 330h377l-318 -330h-301zM682 1434l-217 -1024q-12 -57 7.5 -85t78.5 -28q23 0 50.5 5t41.5 9l16 6l-63 -307q-78 -31 -190 -30q-180 0 -259 100t-38 289l225 1065h348z" />
    <glyph glyph-name="lcaron.salt" horiz-adv-x="798" 
d="M682 1434l-217 -1024q-12 -57 7.5 -85t78.5 -28q23 0 50.5 5t41.5 9l16 6l-63 -307q-78 -31 -190 -30q-180 0 -259 100t-38 289l225 1065h348zM672 1106l166 328h336l-224 -328h-278z" />
    <glyph glyph-name="uni013C.salt" horiz-adv-x="716" 
d="M682 1434l-217 -1024q-12 -57 7.5 -85t78.5 -28q23 0 50.5 5t41.5 9l16 6l-63 -307q-78 -31 -190 -30q-180 0 -259 100t-38 289l225 1065h348zM-18 -492l165 328h336l-223 -328h-278z" />
    <glyph glyph-name="Igrave.salt" horiz-adv-x="921" 
d="M219 1085l74 349h758l-74 -349h-184l-156 -737h184l-73 -348h-758l73 348h185l155 737h-184zM731 1927l98 -330h-286l-174 330h362z" />
    <glyph glyph-name="Iacute.salt" horiz-adv-x="921" 
d="M219 1085l74 349h758l-74 -349h-184l-156 -737h184l-73 -348h-758l73 348h185l155 737h-184zM537 1597l241 330h377l-317 -330h-301z" />
    <glyph glyph-name="Icircumflex.salt" horiz-adv-x="921" 
d="M219 1085l74 349h758l-74 -349h-184l-156 -737h184l-73 -348h-758l73 348h185l155 737h-184zM748 1741l-132 -144h-333l331 328h312l196 -328h-299z" />
    <glyph glyph-name="Idieresis.salt" horiz-adv-x="921" 
d="M219 1085l74 349h758l-74 -349h-184l-156 -737h184l-73 -348h-758l73 348h185l155 737h-184zM307 1737q0 72 61.5 130t137.5 58q66 0 111 -47t45 -111q0 -74 -61.5 -132t-137.5 -58q-66 0 -111 48.5t-45 111.5zM778 1737q0 72 61.5 130t137.5 58q66 0 111 -47t45 -111
q0 -74 -61.5 -132t-137.5 -58q-66 0 -111 48.5t-45 111.5z" />
    <glyph glyph-name="Idotaccent.salt" horiz-adv-x="921" 
d="M219 1085l74 349h758l-74 -349h-184l-156 -737h184l-73 -348h-758l73 348h185l155 737h-184zM909 1782q0 -80 -64.5 -142.5t-150.5 -62.5q-82 0 -132 46t-50 116q0 84 64.5 145.5t152.5 61.5q80 0 130 -48t50 -116z" />
    <glyph glyph-name="Imacron.salt" horiz-adv-x="921" 
d="M219 1085l74 349h758l-74 -349h-184l-156 -737h184l-73 -348h-758l73 348h185l155 737h-184zM1104 1915l-57 -266h-676l57 266h676z" />
    <glyph glyph-name="Iogonek.salt" horiz-adv-x="921" 
d="M594 0h-604l73 348h185l155 737h-184l74 349h758l-74 -349h-184l-156 -737h184l-73 -348q-109 -117 -109 -225q0 -61 68 -62q27 0 54 8.5t42 16.5l12 6l-39 -184q-80 -41 -192 -41q-94 0 -148.5 51t-54.5 131q0 37 12.5 73t30.5 64.5t40.5 54t45 45t42 34t30.5 20.5z" />
    <glyph glyph-name="yacute.salt" horiz-adv-x="1259" 
d="M604 1126l242 330h377l-318 -330h-301zM899 1004h348l-194 -912q-49 -231 -214 -376.5t-403 -145.5q-90 0 -170 22.5t-131 53t-90 62.5t-55 54l-17 23l226 195q8 -12 24.5 -31t75.5 -50.5t133 -31.5q106 0 177 58.5t96 166.5l16 72q-4 -4 -11.5 -13.5t-35 -30t-60 -36.5
t-85 -29.5t-109.5 -13.5q-129 0 -218 85t-89 220q0 49 12 105l119 553h348l-103 -482q-16 -57 18 -105t97 -48q70 0 125 50t74 134z" />
    <glyph glyph-name="ydieresis.salt" horiz-adv-x="1259" 
d="M899 1004h348l-194 -912q-49 -231 -214 -376.5t-403 -145.5q-90 0 -170 22.5t-131 53t-90 62.5t-55 54l-17 23l226 195q8 -12 24.5 -31t75.5 -50.5t133 -31.5q106 0 177 58.5t96 166.5l16 72q-4 -4 -11.5 -13.5t-35 -30t-60 -36.5t-85 -29.5t-109.5 -13.5q-129 0 -218 85
t-89 220q0 49 12 105l119 553h348l-103 -482q-16 -57 18 -105t97 -48q70 0 125 50t74 134zM375 1266q0 72 61.5 130t136.5 58q66 0 111 -47t45 -111q0 -74 -61.5 -132t-137.5 -58q-66 0 -110.5 48.5t-44.5 111.5zM846 1266q0 72 61.5 130t136.5 58q66 0 111 -47t45 -111
q0 -74 -61.5 -132t-137.5 -58q-66 0 -110.5 48.5t-44.5 111.5z" />
    <glyph glyph-name="ugrave.salt" horiz-adv-x="1253" 
d="M782 1456l99 -330h-287l-174 330h362zM1227 1004l-137 -646q-12 -61 47 -61l43 10l-62 -297q-47 -31 -129 -30q-96 0 -153.5 38.5t-67.5 75.5l-10 39q-6 -6 -15.5 -16.5t-43 -37t-71.5 -47t-98.5 -36.5t-123.5 -16q-139 0 -225.5 87t-86.5 234q0 51 12 109l127 594h349
l-115 -533q-4 -14 -4 -43q0 -55 32.5 -88t86.5 -33q63 0 116.5 51.5t71.5 133.5l109 512h348z" />
    <glyph glyph-name="uacute.salt" horiz-adv-x="1253" 
d="M578 1126l241 330h377l-317 -330h-301zM1227 1004l-137 -646q-12 -61 47 -61l43 10l-62 -297q-47 -31 -129 -30q-96 0 -153.5 38.5t-67.5 75.5l-10 39q-6 -6 -15.5 -16.5t-43 -37t-71.5 -47t-98.5 -36.5t-123.5 -16q-139 0 -225.5 87t-86.5 234q0 51 12 109l127 594h349
l-115 -533q-4 -14 -4 -43q0 -55 32.5 -88t86.5 -33q63 0 116.5 51.5t71.5 133.5l109 512h348z" />
    <glyph glyph-name="ucircumflex.salt" horiz-adv-x="1253" 
d="M1227 1004l-137 -646q-12 -61 47 -61l43 10l-62 -297q-47 -31 -129 -30q-96 0 -153.5 38.5t-67.5 75.5l-10 39q-6 -6 -15.5 -16.5t-43 -37t-71.5 -47t-98.5 -36.5t-123.5 -16q-139 0 -225.5 87t-86.5 234q0 51 12 109l127 594h349l-115 -533q-4 -14 -4 -43
q0 -55 32.5 -88t86.5 -33q63 0 116.5 51.5t71.5 133.5l109 512h348zM778 1270l-131 -144h-334l332 328h311l197 -328h-299z" />
    <glyph glyph-name="udieresis.salt" horiz-adv-x="1253" 
d="M1227 1004l-137 -646q-12 -61 47 -61l43 10l-62 -297q-47 -31 -129 -30q-96 0 -153.5 38.5t-67.5 75.5l-10 39q-6 -6 -15.5 -16.5t-43 -37t-71.5 -47t-98.5 -36.5t-123.5 -16q-139 0 -225.5 87t-86.5 234q0 51 12 109l127 594h349l-115 -533q-4 -14 -4 -43
q0 -55 32.5 -88t86.5 -33q63 0 116.5 51.5t71.5 133.5l109 512h348zM362 1266q0 72 61.5 130t137.5 58q66 0 111 -47t45 -111q0 -74 -61.5 -132t-137.5 -58q-66 0 -111 48.5t-45 111.5zM834 1266q0 72 61 130t137 58q66 0 111 -47t45 -111q0 -74 -61.5 -132t-137.5 -58
q-66 0 -110.5 48.5t-44.5 111.5z" />
    <glyph glyph-name="uhungarumlaut.salt" horiz-adv-x="1253" 
d="M1227 1004l-137 -646q-12 -61 47 -61l43 10l-62 -297q-47 -31 -129 -30q-96 0 -153.5 38.5t-67.5 75.5l-10 39q-6 -6 -15.5 -16.5t-43 -37t-71.5 -47t-98.5 -36.5t-123.5 -16q-139 0 -225.5 87t-86.5 234q0 51 12 109l127 594h349l-115 -533q-4 -14 -4 -43
q0 -55 32.5 -88t86.5 -33q63 0 116.5 51.5t71.5 133.5l109 512h348zM385 1126l250 328h336l-326 -328h-260zM815 1126l250 328h336l-326 -328h-260z" />
    <glyph glyph-name="umacron.salt" horiz-adv-x="1253" 
d="M1227 1004l-137 -646q-12 -61 47 -61l43 10l-62 -297q-47 -31 -129 -30q-96 0 -153.5 38.5t-67.5 75.5l-10 39q-6 -6 -15.5 -16.5t-43 -37t-71.5 -47t-98.5 -36.5t-123.5 -16q-139 0 -225.5 87t-86.5 234q0 51 12 109l127 594h349l-115 -533q-4 -14 -4 -43
q0 -55 32.5 -88t86.5 -33q63 0 116.5 51.5t71.5 133.5l109 512h348zM1151 1444l-57 -266h-676l57 266h676z" />
    <glyph glyph-name="uogonek.salt" 
d="M1227 1004l-137 -646q-12 -61 47 -61l43 10l-62 -297q-47 -31 -129 -30h-2q-90 -109 -90 -205q0 -61 68 -62q27 0 54.5 8.5t41.5 16.5l12 6l-39 -184q-80 -41 -192 -41q-94 0 -148.5 51t-54.5 131q0 158 219 303q-41 20 -66.5 52t-29.5 55l-4 22q-6 -6 -15.5 -16.5
t-43 -37t-71.5 -47t-98.5 -36.5t-123.5 -16q-139 0 -225.5 87t-86.5 234q0 51 12 109l127 594h349l-115 -533q-4 -14 -4 -43q0 -55 32.5 -88t86.5 -33q63 0 116.5 51.5t71.5 133.5l109 512h348z" />
    <glyph glyph-name="uring.salt" horiz-adv-x="1253" 
d="M780 1413q-37 0 -62.5 -26.5t-25.5 -69.5q0 -68 80 -68q35 0 62.5 27t27.5 67q0 70 -82 70zM1049 1350q0 -106 -89.5 -185.5t-203.5 -79.5q-113 0 -182.5 64.5t-69.5 159.5q0 109 87 188.5t206 79.5q113 0 182.5 -66.5t69.5 -160.5zM1227 1004l-137 -646q-12 -61 47 -61
l43 10l-62 -297q-47 -31 -129 -30q-96 0 -153.5 38.5t-67.5 75.5l-10 39q-6 -6 -15.5 -16.5t-43 -37t-71.5 -47t-98.5 -36.5t-123.5 -16q-139 0 -225.5 87t-86.5 234q0 51 12 109l127 594h349l-115 -533q-4 -14 -4 -43q0 -55 32.5 -88t86.5 -33q63 0 116.5 51.5t71.5 133.5
l109 512h348z" />
    <glyph glyph-name="a.salt" horiz-adv-x="1302" 
d="M596 287q96 0 165.5 75.5t69.5 176.5q0 74 -50 126t-117 52q-90 0 -161 -74t-71 -182q0 -72 49 -123t115 -51zM1282 1004l-137 -646q-14 -61 47 -61l43 10l-61 -297q-57 -31 -146 -30q-61 0 -107.5 16t-69 38.5t-35.5 46t-17 40.5l-2 16q-6 -6 -16.5 -17t-45.5 -38
t-72.5 -47.5t-96 -37.5t-117.5 -17q-158 0 -270.5 123.5t-112.5 299.5q0 268 170 444.5t387 176.5q86 0 156.5 -39t97.5 -76l28 -39l29 134h348z" />
    <glyph glyph-name="l.salt" horiz-adv-x="716" 
d="M682 1434l-217 -1024q-12 -57 7.5 -85t78.5 -28q23 0 50.5 5t41.5 9l16 6l-63 -307q-78 -31 -190 -30q-180 0 -259 100t-38 289l225 1065h348z" />
    <glyph glyph-name="uni0443.salt" horiz-adv-x="1105" 
d="M10 -430l262 430l-161 1004h348l67 -580l312 580h379l-848 -1434h-359z" />
    <glyph glyph-name="y.salt" horiz-adv-x="1259" 
d="M899 1004h348l-194 -912q-49 -231 -214 -376.5t-403 -145.5q-90 0 -170 22.5t-131 53t-90 62.5t-55 54l-17 23l226 195q8 -12 24.5 -31t75.5 -50.5t133 -31.5q106 0 177 58.5t96 166.5l16 72q-4 -4 -11.5 -13.5t-35 -30t-60 -36.5t-85 -29.5t-109.5 -13.5q-129 0 -218 85
t-89 220q0 49 12 105l119 553h348l-103 -482q-16 -57 18 -105t97 -48q70 0 125 50t74 134z" />
    <glyph glyph-name="I.salt" horiz-adv-x="921" 
d="M219 1085l74 349h758l-74 -349h-184l-156 -737h184l-73 -348h-758l73 348h185l155 737h-184z" />
    <glyph glyph-name="u.salt" horiz-adv-x="1253" 
d="M1227 1004l-137 -646q-12 -61 47 -61l43 10l-62 -297q-47 -31 -129 -30q-96 0 -153.5 38.5t-67.5 75.5l-10 39q-6 -6 -15.5 -16.5t-43 -37t-71.5 -47t-98.5 -36.5t-123.5 -16q-139 0 -225.5 87t-86.5 234q0 51 12 109l127 594h349l-115 -533q-4 -14 -4 -43
q0 -55 32.5 -88t86.5 -33q63 0 116.5 51.5t71.5 133.5l109 512h348z" />
    <glyph glyph-name="uni0430.salt" horiz-adv-x="1302" 
d="M596 287q96 0 165.5 75.5t69.5 176.5q0 74 -50 126t-117 52q-90 0 -161 -74t-71 -182q0 -72 49 -123t115 -51zM1282 1004l-137 -646q-14 -61 47 -61l43 10l-61 -297q-57 -31 -146 -30q-61 0 -107.5 16t-69 38.5t-35.5 46t-17 40.5l-2 16q-6 -6 -16.5 -17t-45.5 -38
t-72.5 -47.5t-96 -37.5t-117.5 -17q-158 0 -270.5 123.5t-112.5 299.5q0 268 170 444.5t387 176.5q86 0 156.5 -39t97.5 -76l28 -39l29 134h348z" />
    <glyph glyph-name="at.case" horiz-adv-x="1843" 
d="M983 850q-63 0 -112.5 -51t-49.5 -123q0 -47 32 -80t79 -33q61 0 111.5 50.5t50.5 119.5q0 49 -32 83t-79 34zM983 1085q49 0 92 -20.5t62 -40.5l18 -20l14 71h236l-86 -409q-10 -39 12.5 -76t65.5 -37q68 0 123 76t55 237q0 186 -141.5 310t-358.5 124
q-174 0 -333.5 -91t-258 -247.5t-98.5 -334.5q0 -203 133 -348.5t338 -145.5q100 0 195.5 32t140.5 64l45 31l119 -176q-8 -6 -24.5 -18.5t-70 -43t-110.5 -53t-146.5 -42t-177.5 -19.5q-291 0 -487.5 203.5t-196.5 482.5q0 248 136.5 464t360.5 342t472 126
q305 0 509 -181.5t204 -441.5q0 -264 -135.5 -419.5t-319.5 -155.5q-47 0 -87 13t-63.5 30.5t-40 36t-22.5 30.5l-6 15q-10 -14 -31.5 -35t-95.5 -55.5t-156 -34.5q-125 0 -206.5 85t-81.5 214q0 199 124.5 328.5t278.5 129.5z" />
    <glyph glyph-name="parenleft.case" horiz-adv-x="798" 
d="M540.5 717q-28.5 -131 -28.5 -268q0 -147 33 -288t65 -206l31 -68l-301 -163q-8 12 -20.5 35.5t-45 99t-58.5 155.5t-46 200t-20 239q0 211 63 417.5t153.5 353t179.5 259t152.5 172t63.5 55.5l231 -164q-14 -14 -38.5 -40.5t-90 -114.5t-122 -179.5t-115 -227.5
t-87 -267z" />
    <glyph glyph-name="parenright.case" horiz-adv-x="798" 
d="M377 717q29 131 29 266q0 147 -33 288.5t-66 207.5l-31 67l302 164q8 -12 20 -35.5t45 -99.5t58.5 -157t46 -200.5t20.5 -238.5q0 -211 -63.5 -418t-152.5 -353.5t-179 -258t-153.5 -171t-63.5 -54.5l-232 163q14 14 39 41t90.5 115t121.5 179t114.5 227.5t87.5 267.5z
" />
    <glyph glyph-name="bracketleft.case" horiz-adv-x="808" 
d="M707 1352l-271 -1270h226l-66 -307h-573l401 1884h573l-65 -307h-225z" />
    <glyph glyph-name="bracketright.case" horiz-adv-x="808" 
d="M221 82l271 1270h-226l66 307h573l-401 -1884h-574l66 307h225z" />
    <glyph glyph-name="braceleft.case" horiz-adv-x="880" 
d="M129 563l66 307q61 0 110 41t64 103l51 246q86 399 424 399h225l-70 -328h-92q-47 0 -88 -34.5t-51 -88.5l-47 -225q-14 -63 -43 -113.5t-60.5 -78t-60.5 -46t-49 -24.5l-19 -4q4 0 9.5 -2t23 -11.5t29.5 -20.5t29.5 -32.5t23.5 -48.5t11.5 -65.5t-9.5 -85.5l-47 -226
q-12 -53 13.5 -88t72.5 -35h92l-69 -327h-185q-174 0 -253.5 102.5t-39.5 296.5l52 246q14 61 -19 102t-94 41z" />
    <glyph glyph-name="braceright.case" horiz-adv-x="880" 
d="M870 870l-65 -307q-61 0 -110.5 -41t-63.5 -102l-51 -246q-86 -399 -424 -399h-226l70 327h92q47 0 87 35t52 88l48 226q14 63 42.5 113t60.5 78t60.5 46.5t49.5 24.5l18 4q-4 0 -9 2t-22.5 11t-30 20.5t-30 33t-23.5 48t-11 65.5t9 86l47 225q10 53 -14.5 88t-71.5 35
h-92l70 328h184q174 0 254 -102.5t39 -296.5l-51 -246q-14 -61 18.5 -102.5t93.5 -41.5z" />
    <glyph glyph-name="exclamdown.case" horiz-adv-x="696" 
d="M322 983h286l-147 -983h-410zM715 1292q0 -80 -63.5 -143.5t-153.5 -63.5q-80 0 -130.5 48.5t-50.5 115.5q0 82 64.5 143.5t150.5 61.5q82 0 132.5 -46t50.5 -116z" />
    <glyph glyph-name="questiondown.case" horiz-adv-x="1157" 
d="M889 934q0 -104 -65.5 -183t-143.5 -119t-143.5 -92.5t-65.5 -109.5q0 -39 33 -65.5t86 -26.5q68 0 122 30.5t74 61.5l19 31l295 -154q-6 -14 -18.5 -37.5t-61.5 -83t-109.5 -105.5t-165 -84t-225.5 -38q-215 0 -350 125t-135 278q0 106 47 192.5t116.5 141t139.5 99.5
t124 92t64 96h359q4 -22 4 -49zM965 1292q0 -80 -63.5 -143.5t-153.5 -63.5q-80 0 -130.5 48.5t-50.5 115.5q0 82 64.5 143.5t150.5 61.5q82 0 132.5 -46t50.5 -116z" />
    <glyph glyph-name="guillemotleft.case" horiz-adv-x="1218" 
d="M1296 1085l-360 -383l178 -354h-315l-187 369l344 368h340zM815 1085l-360 -383l178 -354h-316l-186 369l344 368h340z" />
    <glyph glyph-name="guillemotright.case" horiz-adv-x="1218" 
d="M41 348l360 383l-178 354h316l186 -368l-344 -369h-340zM522 348l361 383l-178 354h315l186 -368l-344 -369h-340z" />
    <glyph glyph-name="guilsinglleft.case" horiz-adv-x="757" 
d="M836 1085l-361 -383l178 -354h-336l-186 369l344 368h361z" />
    <glyph glyph-name="guilsinglright.case" horiz-adv-x="757" 
d="M41 348l360 383l-178 354h336l186 -368l-344 -369h-360z" />
    <glyph glyph-name="hyphen.case" horiz-adv-x="890" 
d="M907 856l-65 -307h-748l66 307h747z" />
    <glyph glyph-name="endash.case" horiz-adv-x="1044" 
d="M1071 856l-59 -287h-922l60 287h921z" />
    <glyph glyph-name="emdash.case" horiz-adv-x="1536" 
d="M1563 856l-60 -287h-1413l60 287h1413z" />
    <glyph glyph-name="periodcentered.case" horiz-adv-x="430" 
d="M74 690q0 80 63.5 143.5t153.5 63.5q80 0 130 -48t50 -116q0 -82 -64.5 -143.5t-150.5 -61.5q-82 0 -132 46t-50 116z" />
    <glyph glyph-name="zero.tnum" horiz-adv-x="1372" 
d="M815 1128q-82 0 -149.5 -57t-105.5 -145t-58.5 -178.5t-20.5 -165.5q0 -133 55.5 -204t139.5 -71q113 0 223.5 146.5t110.5 404.5q0 131 -56.5 200.5t-138.5 69.5zM1403 856q0 -152 -51.5 -308.5t-142.5 -288.5t-238.5 -216t-321.5 -84q-240 0 -400.5 174t-160.5 449
q0 197 65.5 367.5t172 283.5t240.5 177.5t274 64.5q240 0 401.5 -173.5t161.5 -445.5z" />
    <glyph glyph-name="one.tnum" horiz-adv-x="1372" 
d="M825 1434h338l-303 -1434h-389l213 1004h-235l49 235q59 8 114.5 31.5t92 50.5t65.5 52.5t41 43.5z" />
    <glyph glyph-name="two.tnum" horiz-adv-x="1372" 
d="M1116 0h-1065q31 170 109 306t172 214t198.5 144.5t189.5 110.5t140 101.5t55 124.5q0 47 -32.5 76t-96.5 29q-59 0 -112 -34t-76 -66l-25 -33l-294 153q6 14 20 38t66.5 83.5t114 105.5t167 84t221.5 38q199 0 335 -120t136 -282q0 -127 -49 -225t-130 -161.5t-164 -113
t-170 -102.5t-128 -102h496z" />
    <glyph glyph-name="three.tnum" horiz-adv-x="1372" 
d="M1020 737l20 -10q11 -6 42.5 -31.5t55 -56.5t43 -83t19.5 -110q0 -199 -173 -343t-454 -144q-106 0 -200 24.5t-153.5 59.5t-104.5 68.5t-66 58.5l-18 25l264 227q12 -14 35.5 -37t97.5 -60.5t152 -37.5q98 0 154.5 48t56.5 120q0 49 -41 83.5t-117 34.5h-154l66 308h147
q76 0 128 45t52 106q0 47 -37.5 81t-97.5 34q-63 0 -126.5 -28.5t-94.5 -57.5l-31 -27l-178 226q6 8 19.5 22t62.5 52t104.5 65.5t146.5 51.5t191 24q203 0 335 -116t132 -261q0 -45 -10 -86t-25.5 -73t-37 -59.5t-45 -48t-47 -37t-44 -26.5t-37 -17.5t-24.5 -9.5z" />
    <glyph glyph-name="four.tnum" horiz-adv-x="1372" 
d="M1163 563h154l-70 -327h-153l-50 -236h-389l50 236h-646l76 358l752 840h461zM774 563l90 420l-366 -420h276z" />
    <glyph glyph-name="five.tnum" horiz-adv-x="1372" 
d="M879 942q168 0 278.5 -118.5t110.5 -284.5q0 -254 -178.5 -417t-458.5 -163q-106 0 -201.5 24.5t-156 59.5t-106.5 68.5t-65 58.5l-20 25l268 231q12 -12 35 -32.5t93.5 -53.5t144.5 -33q111 0 170 56.5t59 152.5q0 61 -43 100t-119 39q-55 0 -105 -20.5t-73 -40.5
l-23 -21l-258 41l226 820h921l-69 -328h-578l-57 -205q72 41 205 41z" />
    <glyph glyph-name="six.tnum" horiz-adv-x="1372" 
d="M1255 1434l-391 -451q184 -18 298 -149.5t114 -301.5q0 -240 -185.5 -406.5t-465.5 -166.5q-219 0 -367.5 130t-148.5 306q0 111 50 221.5t99 165.5l51 58l516 594h430zM659 287q88 0 155 64.5t67 154.5q0 61 -44 105t-110 44q-88 0 -155.5 -63.5t-67.5 -151.5
q0 -63 43.5 -108t111.5 -45z" />
    <glyph glyph-name="seven.tnum" horiz-adv-x="1372" 
d="M385 1434h1014l-66 -308l-770 -1126h-420l744 1085h-576z" />
    <glyph glyph-name="eight.tnum" horiz-adv-x="1372" 
d="M662 287q92 0 153.5 52t61.5 124q0 53 -45.5 92t-116.5 39q-92 0 -153.5 -52.5t-61.5 -123.5q0 -55 44 -93t118 -38zM793 901q74 0 125 41t51 94q0 43 -37 77t-96 34q-76 0 -127.5 -42t-51.5 -95q0 -43 38.5 -76t97.5 -33zM618 -41q-221 0 -364 123t-143 285
q0 63 17 119.5t45 98.5t61.5 76.5t65.5 57t60.5 39t45.5 24.5l14 6q-12 10 -32.5 28t-53.5 80t-33 132q0 176 163 311.5t413 135.5q197 0 329.5 -117t132.5 -260q-2 -221 -243 -353q6 -4 17 -11t39 -32.5t48.5 -55.5t37.5 -78t17 -101q0 -213 -178 -360.5t-459 -147.5z" />
    <glyph glyph-name="nine.tnum" horiz-adv-x="1372" 
d="M236 0l391 451q-184 18 -298 149t-114 301q0 240 185.5 407t465.5 167q219 0 367.5 -130.5t148.5 -306.5q0 -109 -50 -220t-99 -167l-51 -57l-516 -594h-430zM831 1147q-88 0 -154.5 -64.5t-66.5 -154.5q0 -61 44 -105.5t110 -44.5q88 0 155.5 63.5t67.5 151.5
q0 63 -44 108.5t-112 45.5z" />
    <glyph glyph-name="zero.frac" horiz-adv-x="778" 
d="M557 1229q-72 0 -108.5 -68.5t-36.5 -148.5q0 -51 20.5 -82t52.5 -31q51 0 99.5 54.5t48.5 158.5q0 53 -21.5 85t-54.5 32zM872 1137q0 -172 -105 -311.5t-286 -139.5q-139 0 -224 83t-85 222q0 201 114.5 326t276.5 125q139 0 224 -84t85 -221z" />
    <glyph glyph-name="one.frac" horiz-adv-x="491" 
d="M406 1434h215l-156 -738h-246l98 461h-122l36 174q47 4 90.5 29.5t63.5 48.5z" />
    <glyph glyph-name="two.frac" horiz-adv-x="696" 
d="M805 1247q0 -72 -34 -127t-76 -83.5t-99 -64.5t-82 -61h211l-45 -215h-563q20 100 71.5 176t109.5 118t113.5 74t91.5 61.5t36 62.5q0 41 -52 41q-23 0 -46 -16.5t-35 -32.5l-11 -15l-176 80q4 8 12.5 21.5t37 47.5t62.5 60.5t92 48t122 21.5q117 0 188.5 -56.5
t71.5 -140.5z" />
    <glyph glyph-name="three.frac" horiz-adv-x="706" 
d="M659 1077q10 -4 25.5 -12t41.5 -43t26 -80q0 -106 -92.5 -181t-239.5 -75q-98 0 -173 34t-100 66l-24 33l145 127q53 -66 146 -65q37 0 61.5 21.5t24.5 47.5q0 53 -84 54h-70l35 163h72q82 0 82 54q0 39 -66 39q-27 0 -58.5 -15.5t-50.5 -30.5l-16 -14l-92 131
q10 12 30.5 30.5t97.5 50.5t167 32q113 0 182.5 -58.5t69.5 -130.5q0 -23 -5.5 -42t-13.5 -35.5t-18 -29.5t-22.5 -23.5t-23.5 -18.5t-21.5 -13.5t-18.5 -8.5t-12 -5z" />
    <glyph glyph-name="four.frac" horiz-adv-x="696" 
d="M797 1434l-86 -400h71l-43 -205h-71l-29 -133h-236l29 133h-317l41 195l389 410h252zM373 1024h110l35 164z" />
    <glyph glyph-name="five.frac" horiz-adv-x="665" 
d="M557 1178q84 0 138.5 -57.5t54.5 -137.5q0 -129 -100.5 -213t-254.5 -84q-63 0 -116.5 11.5t-85 27.5t-54 33.5t-33.5 27.5l-8 13l150 133q41 -51 133 -51q45 0 73.5 25.5t28.5 64.5q0 29 -19.5 46t-51.5 17q-18 0 -37 -5t-27 -9l-10 -6h-143l141 420h461l-41 -185h-260
l-27 -82q37 11 88 11z" />
    <glyph glyph-name="six.frac" horiz-adv-x="665" 
d="M774 1434l-188 -205q80 -20 128 -77.5t48 -137.5q0 -137 -99.5 -232.5t-252.5 -95.5q-119 0 -197 65.5t-78 161.5q0 59 24.5 118t49.5 87l24 29l277 287h264zM432 881q41 0 70.5 27.5t29.5 72.5q0 63 -69 63q-45 0 -73 -28.5t-28 -75.5q0 -59 70 -59z" />
    <glyph glyph-name="seven.frac" horiz-adv-x="614" 
d="M231 1434h564l-50 -226l-344 -512h-254l342 512h-307z" />
    <glyph glyph-name="eight.frac" horiz-adv-x="675" 
d="M436 881q41 0 66.5 19.5t25.5 45.5q0 23 -20.5 40.5t-52.5 17.5q-43 0 -68 -20.5t-25 -49.5q0 -20 20.5 -36.5t53.5 -16.5zM496 1157q68 0 67 60q0 18 -15.5 30.5t-39.5 12.5q-70 0 -70 -60q1 -43 58 -43zM408 686q-137 0 -214 57.5t-77 141.5q0 74 46 125t91 65l47 15
q-10 4 -23.5 14t-37 44t-23.5 75q0 96 84 158.5t236 62.5q123 0 192.5 -52.5t69.5 -125.5q0 -63 -39 -110.5t-71 -62t-40 -14.5q4 -2 11.5 -5t27 -16.5t33.5 -28.5t26.5 -40.5t12.5 -56.5q0 -106 -92 -176t-260 -70z" />
    <glyph glyph-name="nine.frac" horiz-adv-x="665" 
d="M158 696l188 205q-80 20 -128 77.5t-48 137.5q0 137 99.5 232.5t252.5 95.5q119 0 197 -65.5t78 -161.5q0 -59 -24.5 -118t-49.5 -87l-25 -29l-276 -287h-264zM500 1249q-41 0 -71 -27.5t-30 -72.5q0 -63 70 -64q43 0 71.5 29t28.5 76q1 59 -69 59z" />
    <glyph glyph-name="zero.dnom" horiz-adv-x="778" 
d="M406 512q-72 0 -109 -68.5t-37 -148.5q0 -51 20.5 -82t53.5 -31q51 0 99 54.5t48 158.5q0 53 -21 85t-54 32zM721 420q0 -172 -105.5 -311.5t-285.5 -139.5q-139 0 -224.5 83t-85.5 222q0 201 115 326t277 125q139 0 224 -84t85 -221z" />
    <glyph glyph-name="one.dnom" horiz-adv-x="491" 
d="M254 717h215l-158 -737h-245l98 460h-123l37 174q47 4 91 30t64 48z" />
    <glyph glyph-name="two.dnom" horiz-adv-x="696" 
d="M651 530q0 -72 -33.5 -127t-75.5 -83.5t-99.5 -64.5t-82.5 -60h211l-45 -215h-563q20 100 71.5 175.5t110 117.5t113.5 74t91 61.5t36 62.5q0 41 -51 41q-23 0 -46.5 -16.5t-33.5 -32.5l-12 -14l-176 79q4 8 12 21.5t36.5 47.5t62.5 60.5t92.5 48t121.5 21.5
q117 0 188.5 -56.5t71.5 -140.5z" />
    <glyph glyph-name="three.dnom" horiz-adv-x="706" 
d="M506 360q10 -4 25.5 -12t41 -43t25.5 -80q0 -106 -92 -181t-240 -75q-98 0 -173 34t-99 67l-25 32l146 127q53 -66 145 -65q37 0 61.5 21.5t24.5 47.5q0 53 -84 54h-69l34 164h72q82 0 82 53q0 39 -66 39q-27 0 -58.5 -15.5t-47.5 -29.5l-19 -15l-92 131q10 12 31 31
t97.5 50.5t166.5 31.5q113 0 182.5 -58.5t69.5 -129.5q0 -23 -5 -42.5t-13.5 -36t-18.5 -29.5t-22.5 -23.5t-23.5 -18.5t-21.5 -13t-18.5 -8t-12 -6z" />
    <glyph glyph-name="four.dnom" horiz-adv-x="696" 
d="M643 717l-86 -400h72l-43 -204h-72l-29 -133h-235l29 133h-318l41 194l389 410h252zM219 307h111l35 164z" />
    <glyph glyph-name="five.dnom" horiz-adv-x="665" 
d="M403 461q84 0 138.5 -57.5t54.5 -137.5q0 -129 -100.5 -213t-253.5 -84q-63 0 -116.5 11.5t-85.5 28t-54.5 33.5t-30.5 28l-10 12l149 133q41 -51 133 -51q45 0 74 25.5t29 64.5q0 29 -19.5 46t-52.5 17q-18 0 -36.5 -5t-28.5 -9l-9 -6h-143l141 420h461l-41 -185h-260
l-27 -81q37 10 88 10z" />
    <glyph glyph-name="six.dnom" horiz-adv-x="665" 
d="M623 717l-189 -205q80 -20 128 -77.5t48 -137.5q0 -137 -99 -232.5t-253 -95.5q-119 0 -196.5 65.5t-77.5 162.5q0 59 24.5 117.5t48.5 86.5l25 29l276 287h265zM281 164q41 0 70.5 27.5t29.5 72.5q0 63 -70 64q-45 0 -72.5 -29t-27.5 -76q0 -59 70 -59z" />
    <glyph glyph-name="seven.dnom" horiz-adv-x="614" 
d="M80 717h563l-49 -225l-344 -512h-254l342 512h-307z" />
    <glyph glyph-name="eight.dnom" horiz-adv-x="675" 
d="M283 164q41 0 66.5 19.5t25.5 45.5q0 23 -20.5 40.5t-53.5 17.5q-43 0 -67.5 -20.5t-24.5 -49.5q0 -20 20.5 -36.5t53.5 -16.5zM342 440q68 0 68 60q0 18 -15.5 30.5t-40.5 12.5q-70 0 -69 -60q0 -43 57 -43zM254 -31q-137 0 -214 57.5t-77 141.5q0 74 46 125t93 65
l45 15q-10 4 -23 14t-37 44t-24 75q0 96 84 158.5t236 62.5q123 0 192.5 -52t69.5 -126q0 -63 -39 -110.5t-70.5 -62t-39.5 -14.5q4 -2 11 -5t26.5 -16t34 -28.5t26.5 -41t12 -56.5q0 -106 -92 -176t-260 -70z" />
    <glyph glyph-name="nine.dnom" horiz-adv-x="665" 
d="M4 -20l189 204q-80 20 -128.5 77.5t-48.5 137.5q0 137 99.5 232.5t253.5 95.5q119 0 196.5 -65.5t77.5 -161.5q0 -59 -24.5 -117.5t-49.5 -87.5l-24 -29l-277 -286h-264zM346 532q-41 0 -70.5 -27.5t-29.5 -72.5q0 -63 69 -63q45 0 73 28.5t28 75.5q0 59 -70 59z" />
    <glyph glyph-name="glyph532" horiz-adv-x="3149" 
d="M569 942v-63h-147v-408h-72v408h-145v63h364zM1063 811q66 0 112 -51t46 -121q0 -74 -46.5 -124t-111.5 -50q-59 0 -96 43v-162h-70v459h49l19 -39q39 45 98 45zM1057 528q39 0 67.5 33t28.5 78q0 43 -28.5 74.5t-67.5 31.5t-67.5 -31.5t-28.5 -74.5q0 -45 27.5 -78
t68.5 -33zM682 567l90 238h76l-158 -389q-33 -70 -100 -70q-14 0 -21 2v58q47 0 64 40l12 33l-129 326h76zM1435.5 811q65.5 0 110.5 -50t45 -120l-2 -31h-243q4 -35 29.5 -59.5t60.5 -24.5q55 0 75 35h72q-18 -45 -58 -70.5t-89 -25.5q-66 0 -113 50t-47 124q0 72 47 122
t112.5 50zM1346 666h180q-2 35 -30 58.5t-60.5 23.5t-59 -22.5t-30.5 -59.5zM1923 942v-63h-147v-408h-72v408h-145v63h364zM2417 811q66 0 111.5 -51t45.5 -121q0 -74 -46 -124t-111 -50q-59 0 -97 43v-162h-69v459h49l18 -39q40 45 99 45zM2410 528q39 0 68 33t29 78
q0 43 -29 74.5t-67.5 31.5t-67.5 -31.5t-29 -74.5q0 -45 27.5 -78t68.5 -33zM2036 567l90 238h76l-158 -389q-33 -70 -100 -70q-14 0 -21 2v58q47 0 64 40l12 33l-129 326h76zM2789.5 811q65.5 0 110.5 -50t45 -120l-2 -31h-244q4 -35 30 -59.5t60 -24.5q55 0 76 35h72
q-18 -45 -58 -70.5t-90 -25.5q-66 0 -112.5 50t-46.5 124q0 72 47 122t112.5 50zM2699 666h180q-2 35 -29.5 58.5t-60 23.5t-59.5 -22.5t-31 -59.5z" />
    </font>
</defs>
</svg>
