<?xml version="1.0" standalone="no"?>
<!DOCTYPE svg PUBLIC "-//W3C//DTD SVG 1.1//EN" "http://www.w3.org/Graphics/SVG/1.1/DTD/svg11.dtd" >
<svg xmlns="http://www.w3.org/2000/svg" xmlns:xlink="http://www.w3.org/1999/xlink" version="1.1">
<metadata>
Created by FontForge 20170731 at Tue May 30 07:26:37 2017
 By Aleksey,,,
Copyright (c) 2017 by TypeType. Designers Ivan Gladkikh, Pavel Emelyanov. Technical designers Olexa Volochay, Nadyr Rakhimov, Dmitriy Greshnev. All rights reserved.
</metadata>
<defs>
<font id="TTNorms-ExtraLight" horiz-adv-x="1187" >
  <font-face 
    font-family="TT Norms ExtraLight"
    font-weight="200"
    font-stretch="normal"
    units-per-em="2048"
    panose-1="2 0 8 3 2 0 0 2 0 3"
    ascent="1638"
    descent="-410"
    x-height="983"
    cap-height="1434"
    bbox="-246 -451 2945 1976"
    underline-thickness="0"
    underline-position="0"
    unicode-range="U+000D-FB06"
  />
<missing-glyph horiz-adv-x="0" 
 />
    <glyph glyph-name="ij" unicode="ij" horiz-adv-x="931" 
d="M666 -174v205q-72 -51 -174 -51q-125 0 -216.5 95t-91.5 232v676h62v-676q0 -113 72.5 -189.5t173.5 -76.5q45 0 89 15.5t64 29.5l21 16v881h61v-1157q0 -113 -67.5 -184.5t-167.5 -71.5q-33 0 -64 8t-45 16l-14 7v61q51 -31 123 -31q78 0 126 52.5t48 142.5zM266 1341.5
q0 -51.5 -51 -51.5t-51 51.5t51 51.5t51 -51.5zM748 1341.5q0 -51.5 -51.5 -51.5t-51.5 51.5t51.5 51.5t51.5 -51.5z" />
    <glyph glyph-name="uniFB00" unicode="ff" horiz-adv-x="1146" 
d="M1075 983v-61h-246v-922h-61v922h-471v-922h-61v922h-164v61h164v174q0 121 63 188.5t172 67.5q33 0 63.5 -8t45.5 -16l14 -7v-61q-51 31 -123 31q-78 0 -126 -52.5t-48 -142.5v-174h471v215q0 121 63.5 188.5t172.5 67.5q33 0 63.5 -8t44.5 -16l14 -7v-61
q-51 31 -122 31q-78 0 -126.5 -52.5t-48.5 -142.5v-215h246z" />
    <glyph glyph-name="uniFB01" unicode="fi" horiz-adv-x="1034" 
d="M829 983v-983h-61v922h-471v-922h-61v922h-164v61h164v215q0 121 63 188.5t172 67.5q33 0 63.5 -8t45.5 -16l14 -7v-61q-51 31 -123 31q-78 0 -126 -52.5t-48 -142.5v-215h532zM850 1341.5q0 -51.5 -51 -51.5t-51 51.5t51 51.5t51 -51.5z" />
    <glyph glyph-name="uniFB02" unicode="fl" horiz-adv-x="1064" 
d="M799 0v1126q0 113 -73 190t-173 77q-109 0 -182.5 -76t-73.5 -191v-143h246v-61h-246v-922h-61v922h-164v61h164v143q0 137 93 232.5t224 95.5q125 0 216 -95t91 -233v-1126h-61z" />
    <glyph glyph-name="uniFB03" unicode="ffi" horiz-adv-x="1576" 
d="M829 922v-922h-61v922h-471v-922h-61v922h-164v61h164v174q0 121 63 188.5t172 67.5q33 0 63.5 -8t45.5 -16l14 -7v-61q-51 31 -123 31q-78 0 -126 -52.5t-48 -142.5v-174h471v215q0 121 63.5 188.5t172.5 67.5q33 0 63.5 -8t44.5 -16l14 -7v-61q-51 31 -122 31
q-78 0 -126.5 -52.5t-48.5 -142.5v-215h543v-983h-61v922h-482zM1393 1341.5q0 -51.5 -51.5 -51.5t-51.5 51.5t51.5 51.5t51.5 -51.5z" />
    <glyph glyph-name="uniFB06" unicode="st" horiz-adv-x="1556" 
d="M737 860l-51 -51q-10 14 -29.5 36.5t-86 59.5t-140.5 37q-104 0 -175 -62.5t-71 -142.5q0 -70 59.5 -113.5t143.5 -66t168 -49.5t143.5 -84t59.5 -148q0 -125 -94.5 -210.5t-243.5 -85.5q-96 0 -180 40.5t-121 81.5l-37 41l51 52q4 -6 12.5 -16.5t36 -37t58 -47t80 -37
t100.5 -16.5q127 0 201.5 66.5t74.5 168.5q0 74 -59 119t-143 68.5t-168 49.5t-143.5 81t-59.5 143q0 102 90 184.5t217 82.5q33 0 63.5 -5.5t45.5 -11.5l14 -4q-31 53 -31 154q0 131 97.5 224t240.5 93q139 0 233.5 -94t94.5 -234v-143h225v-61h-225v-686q0 -90 48 -142.5
t126 -52.5q33 0 63.5 8t44.5 17l15 6v-62q-51 -31 -123 -30q-109 0 -172.5 67.5t-63.5 188.5v686h-204v61h204v143q0 115 -75.5 191t-190.5 76q-121 0 -198.5 -74t-77.5 -182q0 -59 17 -110.5t36 -72.5l18 -22q23 -14 43.5 -31.5t30.5 -28.5z" />
    <glyph glyph-name="c_t.liga" unicode="ct" horiz-adv-x="1720" 
d="M1290 983v133q0 123 -74.5 200t-191.5 77q-121 0 -198.5 -74t-77.5 -182q0 -59 17 -110.5t36 -72.5l18 -22q41 -27 77 -60.5t50 -52.5l17 -20l-52 -41q-4 8 -13 20.5t-40 44t-65.5 56t-92 44t-116.5 19.5q-172 0 -296 -130t-124 -320.5t124 -320.5t296 -130
q59 0 115.5 19.5t93 46t64.5 53t40 45.5l14 20l52 -41q-6 -8 -16.5 -22.5t-46.5 -49t-77 -61t-105.5 -49t-133.5 -22.5q-195 0 -338.5 149.5t-143.5 362.5t143.5 362.5t338.5 149.5q33 0 65.5 -5.5t50.5 -11.5l17 -4q-31 51 -31 154q0 131 97.5 224t240.5 93
q139 0 233.5 -96t94.5 -242v-133h225v-61h-225v-686q0 -90 48 -142.5t126 -52.5q33 0 63.5 8t44.5 17l15 6v-62q-51 -31 -123 -30q-109 0 -172.5 67.5t-63.5 188.5v686h-205v61h205z" />
    <glyph glyph-name="s_p.liga" unicode="sp" horiz-adv-x="2088" 
d="M1116 246v-676h-61v1556q0 121 -66.5 194t-169.5 73q-100 0 -167.5 -72t-67.5 -184q0 -59 17 -110.5t36 -72.5l18 -22q23 -14 43.5 -31.5t30.5 -28.5l8 -12l-51 -51q-10 14 -29.5 36.5t-86 59.5t-140.5 37q-104 0 -175 -62.5t-71 -142.5q0 -70 59.5 -113.5t143.5 -66
t168 -49.5t143.5 -84t59.5 -148q0 -125 -94.5 -210.5t-243.5 -85.5q-96 0 -180 40.5t-121 81.5l-37 41l51 52q4 -6 12.5 -16.5t36 -37t58 -47t80 -37t100.5 -16.5q127 0 201.5 66.5t74.5 168.5q0 74 -59 119t-143 68.5t-168 49.5t-143.5 81t-59.5 143q0 102 90 184.5
t217 82.5q80 0 121 -21q-29 57 -29 154q0 137 86 227t211 90t211 -92t86 -236v-389q4 10 14.5 28.5t46 65t78.5 81t113 63.5t148 29q174 0 312 -152t138 -360.5t-138 -360t-312 -151.5q-78 0 -148 27.5t-114 66.5t-76.5 77.5t-47.5 65.5zM1516 41q152 0 270.5 132
t118.5 318.5t-119 318.5t-270 132q-158 0 -279 -131t-121 -319.5t121 -319.5t279 -131z" />
    <glyph glyph-name="f_t.liga" unicode="ft" horiz-adv-x="1218" 
d="M788 1055v256h62v-328h225v-61h-225v-686q0 -90 48 -142.5t126 -52.5q33 0 63.5 8t45.5 17l14 6v-62q-51 -31 -123 -30q-109 0 -172.5 67.5t-63.5 188.5v686h-491v-922h-61v922h-164v61h164v215q0 121 63 188.5t172 67.5q33 0 63.5 -8t45.5 -16l14 -7v-61q-51 31 -123 31
q-78 0 -126 -52.5t-48 -142.5v-215h430q61 0 61 72z" />
    <glyph glyph-name=".notdef" horiz-adv-x="0" 
 />
    <glyph glyph-name="glyph1" horiz-adv-x="0" 
 />
    <glyph glyph-name="glyph1" horiz-adv-x="0" 
 />
    <glyph glyph-name="uni000D" unicode="&#xd;" horiz-adv-x="0" 
 />
    <glyph glyph-name="space" unicode=" " horiz-adv-x="368" 
 />
    <glyph glyph-name="exclam" unicode="!" horiz-adv-x="593" 
d="M328 307h-62v1127h62v-1127zM348 51q0 -51 -51 -51t-51 51t51 51t51 -51z" />
    <glyph glyph-name="quotedbl" unicode="&#x22;" horiz-adv-x="665" 
d="M215 1434v-430h-61v430h61zM512 1434v-430h-61v430h61z" />
    <glyph glyph-name="numbersign" unicode="#" horiz-adv-x="1443" 
d="M51 461l10 61h318l72 389h-308l11 62h307l92 461h61l-92 -461h494l90 461h61l-92 -461h318l-11 -62h-317l-72 -389h307l-10 -61h-307l-92 -461h-62l93 461h-492l-92 -461h-62l93 461h-318zM512 911l-72 -389h492l72 389h-492z" />
    <glyph glyph-name="dollar" unicode="$" horiz-adv-x="1126" 
d="M942 379q0 86 -45 147.5t-115.5 95t-156.5 59.5t-173 54.5t-158 66.5t-116 106.5t-45 166.5q0 150 111.5 257.5t298.5 119.5v207h61v-205q109 -4 203 -48t135 -85l41 -41l-51 -51q-4 6 -13.5 17t-42 40t-69.5 50.5t-97.5 39t-125.5 17.5q-178 0 -283.5 -91.5
t-105.5 -226.5q0 -84 45 -143.5t115.5 -92t157.5 -58t173 -54.5t156.5 -67.5t116 -109.5t45.5 -171q0 -156 -114 -269.5t-296 -127.5v-207h-62v205q-84 2 -158.5 23.5t-121.5 51t-83 59t-50 50.5l-17 20l52 52q4 -8 13 -21.5t44 -46.5t76 -58.5t109.5 -47t146.5 -21.5
q180 0 289.5 97.5t109.5 240.5z" />
    <glyph glyph-name="percent" unicode="%" horiz-adv-x="1556" 
d="M297 0l901 1434h62l-902 -1434h-61zM635 1136.5q0 112.5 -67.5 184.5t-168 72t-168 -72t-67.5 -184.5t67.5 -184t168 -71.5t168 71.5t67.5 184zM696 1136.5q0 -137.5 -86 -227.5t-211 -90t-211 90t-86 227.5t86 227.5t211 90t211 -90t86 -227.5zM1393 297
q0 113 -68 184.5t-168 71.5t-167.5 -71.5t-67.5 -184.5t67.5 -184.5t167.5 -71.5t168 71.5t68 184.5zM1454 297q0 -137 -86 -227t-211 -90t-211 90t-86 227t86 227t211 90t211 -90t86 -227z" />
    <glyph glyph-name="ampersand" unicode="&#x26;" horiz-adv-x="1249" 
d="M809 1147q0 -98 -75 -200.5t-148 -155.5l-74 -54l401 -471q14 18 34 53t53.5 147t33.5 230h62q0 -131 -36 -248.5t-71 -168.5l-35 -54q12 -18 34 -45.5t78 -73t101 -45.5l62 11v-62q-31 -10 -62 -10q-59 0 -120.5 43t-92.5 86l-32 43q-6 -8 -15.5 -20.5t-46.5 -46
t-78 -59.5t-108.5 -46t-141.5 -20q-166 0 -277.5 103t-111.5 245q0 70 30 138.5t72 116.5t84 87t72 59l29 19q-25 25 -62.5 65.5t-100 147t-62.5 186.5q0 129 91 218t216 89q127 0 212 -88t85 -219zM881 215l-420 492q-10 -6 -27.5 -18.5t-61.5 -52.5t-78 -82t-61.5 -104.5
t-27.5 -121.5q0 -119 92 -203t235 -84q66 0 126.5 18.5t99.5 43t67.5 50t42.5 44.5zM266 1147q0 -70 53.5 -162t106.5 -149l55 -58q10 8 28.5 20.5t65 53.5t81 82t63.5 100.5t29 112.5q0 106 -67 176t-169 70t-174 -70t-72 -176z" />
    <glyph glyph-name="quotesingle" unicode="'" horiz-adv-x="368" 
d="M215 1434v-430h-61v430h61z" />
    <glyph glyph-name="parenleft" unicode="(" horiz-adv-x="665" 
d="M225 512q0 -158 36 -311.5t87 -261t102.5 -192.5t86.5 -126l36 -41l-51 -31q-14 16 -38.5 45t-86 125.5t-108.5 202t-86 266t-39 324.5t37 322.5t90 269t105.5 198t88.5 130.5l37 43l51 -31q-14 -14 -37.5 -43t-83 -123t-105.5 -195.5t-84 -257t-38 -313.5z" />
    <glyph glyph-name="parenright" unicode=")" horiz-adv-x="665" 
d="M440 512q0 158 -35.5 311.5t-87 261t-102.5 192.5t-88 126l-35 41l51 31q14 -16 39 -45t86.5 -125.5t108.5 -202t86 -266t39 -324.5t-37 -322.5t-89 -269t-105.5 -198t-90.5 -130.5l-37 -43l-51 31q14 14 38 43t83 123t105.5 195.5t84 257t37.5 313.5z" />
    <glyph glyph-name="asterisk" unicode="*" horiz-adv-x="798" 
d="M707 1178l-277 -72l184 -236l-41 -30l-174 235l-174 -235l-41 30l185 236l-277 72l21 51l266 -82l-10 287h61l-10 -287l266 82z" />
    <glyph glyph-name="plus" unicode="+" horiz-adv-x="1024" 
d="M481 1034h62v-399h389v-62h-389v-399h-62v399h-389v62h389v399z" />
    <glyph glyph-name="comma" unicode="," horiz-adv-x="368" 
d="M164 102l72 -41l-195 -307l-41 21z" />
    <glyph glyph-name="hyphen" unicode="-" horiz-adv-x="839" 
d="M748 635v-62h-656v62h656z" />
    <glyph glyph-name="period" unicode="." horiz-adv-x="389" 
d="M246 51q0 -51 -51.5 -51t-51.5 51t51.5 51t51.5 -51z" />
    <glyph glyph-name="slash" unicode="/" horiz-adv-x="839" 
d="M768 1454l-635 -1884h-61l635 1884h61z" />
    <glyph glyph-name="zero" unicode="0" horiz-adv-x="1351" 
d="M1157 717q0 305 -145.5 490.5t-336 185.5t-335.5 -185.5t-145 -490.5t145 -490.5t335.5 -185.5t336 185.5t145.5 490.5zM1219 717q0 -330 -165 -533.5t-378 -203.5t-378 203.5t-165 533.5t165 533.5t378 203.5t378 -203.5t165 -533.5z" />
    <glyph glyph-name="one" unicode="1" horiz-adv-x="675" 
d="M379 1434h51v-1434h-61v1311q-2 -6 -8.5 -15.5t-30 -36t-52 -47t-78.5 -40t-108 -25.5v61q90 8 162 64.5t98 107.5z" />
    <glyph glyph-name="two" unicode="2" horiz-adv-x="1105" 
d="M983 0h-881q0 109 45.5 202t118 161.5t159.5 132t174 123t159.5 122t118 143.5t45.5 171q0 141 -106.5 239.5t-272.5 98.5q-86 0 -155 -28t-104.5 -66.5t-60 -77.5t-30.5 -66l-9 -29l-61 21q2 12 9 32.5t39 74t74 94.5t120.5 73.5t177.5 32.5q188 0 314 -117.5
t126 -281.5q0 -131 -79 -240.5t-193.5 -190.5t-231.5 -160t-208 -182.5t-107 -220.5h819v-61z" />
    <glyph glyph-name="three" unicode="3" horiz-adv-x="1085" 
d="M645 758q12 -2 32.5 -7.5t74 -32t94.5 -64.5t73.5 -110.5t32.5 -164.5q0 -166 -127 -282.5t-323 -116.5q-80 0 -154 22.5t-122 53t-85 62.5t-53 54l-16 23l51 41q4 -8 14 -21.5t45 -46.5t76 -58.5t106.5 -47t137.5 -21.5q172 0 280.5 98.5t108.5 239.5q0 150 -107.5 249
t-281.5 99h-133v61h133q158 0 253 87.5t95 220.5q0 127 -95.5 212t-252.5 85q-63 0 -121.5 -16.5t-98.5 -41t-70 -49t-44 -41.5l-14 -16l-52 41q6 8 17.5 20.5t49.5 44t81 56t111.5 44t140.5 19.5q180 0 294.5 -104.5t114.5 -253.5q0 -78 -27.5 -141.5t-66.5 -98.5
t-78 -58.5t-67 -31.5z" />
    <glyph glyph-name="four" unicode="4" horiz-adv-x="1116" 
d="M850 410h184v-62h-184v-348h-62v348h-747v74l747 1012h62v-1024zM788 410v931l-686 -931h686z" />
    <glyph glyph-name="five" unicode="5" 
d="M604 891q184 0 312 -130t128 -321q0 -201 -130 -330.5t-330 -129.5q-80 0 -153 21.5t-120 51t-81.5 59t-49.5 52.5l-16 20l51 52q4 -8 13.5 -21.5t43 -46.5t72.5 -58.5t103.5 -47t136.5 -21.5q176 0 287.5 111.5t111.5 287.5q0 168 -108.5 278.5t-270.5 110.5
q-66 0 -125 -19t-96 -46t-64.5 -53.5t-39.5 -46.5l-13 -19h-51l51 789h686v-62h-624l-52 -635q4 6 13.5 16.5t40 37t65.5 47t92.5 37t116.5 16.5z" />
    <glyph glyph-name="six" unicode="6" horiz-adv-x="1157" 
d="M573 881q190 0 325.5 -133.5t135.5 -317.5t-135 -317t-325.5 -133t-325.5 133t-135 317q0 74 25.5 150.5t49.5 115.5l27 41l440 697h72l-399 -625q91 72 245 72zM973 430q0 162 -116 275.5t-283.5 113.5t-283.5 -113.5t-116 -275.5t116 -275.5t283.5 -113.5t283.5 113.5
t116 275.5z" />
    <glyph glyph-name="seven" unicode="7" horiz-adv-x="942" 
d="M51 1434h850v-62l-665 -1372h-62l666 1372h-789v62z" />
    <glyph glyph-name="eight" unicode="8" horiz-adv-x="1167" 
d="M583.5 1454q159.5 0 269.5 -105.5t110 -252.5q0 -72 -26 -131.5t-61.5 -92t-71.5 -55t-63 -31.5l-24 -8q12 -2 32.5 -9t74 -37t94 -68.5t73.5 -112.5t33 -162q0 -172 -125 -290.5t-315.5 -118.5t-315.5 118.5t-125 290.5q0 88 32 161t77 114t90 68.5t76 37.5l33 8
q-10 2 -26.5 8.5t-58.5 31t-75 56t-59.5 91t-26.5 131.5q0 147 109.5 252.5t269 105.5zM584 41q166 0 272.5 100.5t106.5 247.5q0 150 -106.5 254.5t-272.5 104.5t-272.5 -104.5t-106.5 -254.5q0 -147 106.5 -247.5t272.5 -100.5zM583.5 1393q-137.5 0 -227.5 -86t-90 -211
q0 -117 91.5 -202t226.5 -85t226 85t91 202q0 125 -90 211t-227.5 86z" />
    <glyph glyph-name="nine" unicode="9" horiz-adv-x="1157" 
d="M584 553q-190 0 -325.5 133t-135.5 317.5t135 317.5t325.5 133t325.5 -133t135 -317q0 -74 -25.5 -151t-51.5 -116l-25 -41l-440 -696h-72l399 625q-91 -72 -245 -72zM184 1003.5q0 -161.5 116 -275.5t284 -114t283.5 114t115.5 275.5t-115.5 275.5t-283.5 114t-284 -114
t-116 -275.5z" />
    <glyph glyph-name="colon" unicode=":" horiz-adv-x="389" 
d="M246 51q0 -51 -51.5 -51t-51.5 51t51.5 51t51.5 -51zM246 932q0 -51 -51.5 -51t-51.5 51t51.5 51t51.5 -51z" />
    <glyph glyph-name="semicolon" unicode=";" horiz-adv-x="389" 
d="M246 932q0 -51 -51.5 -51t-51.5 51t51.5 51t51.5 -51zM164 102l72 -41l-195 -307l-41 21z" />
    <glyph glyph-name="less" unicode="&#x3c;" horiz-adv-x="1003" 
d="M113 471v61l778 410v-61l-717 -379l717 -379v-62z" />
    <glyph glyph-name="equal" unicode="=" horiz-adv-x="1024" 
d="M911 461v-62h-798v62h798zM911 809v-61h-798v61h798z" />
    <glyph glyph-name="greater" unicode="&#x3e;" horiz-adv-x="1003" 
d="M891 532v-61l-778 -410v62l716 379l-716 379v61z" />
    <glyph glyph-name="question" unicode="?" horiz-adv-x="1034" 
d="M522 307h-61v82q0 96 42 174t102.5 131.5t120.5 105.5t102 121.5t42 153.5q0 129 -99 223.5t-259 94.5q-86 0 -154.5 -29t-105.5 -70t-60.5 -80.5t-31.5 -68.5l-6 -29l-62 21q2 12 9.5 33.5t39 77t73.5 96t121 75.5t177 35q182 0 301 -112.5t119 -266.5q0 -98 -42 -175
t-102.5 -128t-121 -101t-102.5 -121t-42 -161v-82zM440 51q0 51 51.5 51t51.5 -51t-51.5 -51t-51.5 51z" />
    <glyph glyph-name="at" unicode="@" horiz-adv-x="1812" 
d="M891 819q-119 0 -198 -87t-79 -230.5t79 -230.5t198 -87q111 0 188.5 88t77.5 229.5t-77.5 229.5t-188.5 88zM891 881q55 0 102 -18.5t76 -43t50.5 -50.5t29.5 -44l8 -18v163h62v-446q0 -121 47 -180.5t127 -59.5q92 0 153.5 91.5t61.5 277.5q0 285 -200 480.5
t-497 195.5q-285 0 -495.5 -213t-210.5 -504t210 -504t490 -213q117 0 223.5 39t153.5 76l49 39l41 -51q-6 -6 -20.5 -17.5t-59.5 -40t-96 -50t-130 -39t-161 -17.5q-303 0 -532.5 232.5t-229.5 545.5t230.5 545.5t537.5 232.5q322 0 540 -214t218 -523q0 -211 -80 -320.5
t-196 -109.5q-82 0 -138.5 49t-70.5 98l-17 47q-2 -8 -8 -21t-29.5 -46t-52 -58.5t-79 -47t-107.5 -21.5q-141 0 -239.5 106.5t-98.5 272.5t98.5 272.5t239.5 106.5z" />
    <glyph glyph-name="A" unicode="A" horiz-adv-x="1372" 
d="M1044 502l-358 860l-358 -860h716zM1065 440h-758l-184 -440h-62l594 1434h62l594 -1434h-62z" />
    <glyph glyph-name="B" unicode="B" horiz-adv-x="1341" 
d="M911 768v-10q12 -2 32 -6t69 -29t87 -59.5t68.5 -105.5t30.5 -159q0 -178 -114.5 -288.5t-305.5 -110.5h-542v1434h512q168 0 273 -101.5t105 -257.5q0 -72 -22.5 -130t-54 -90t-62.5 -52.5t-53 -28.5zM297 61h481q168 0 263.5 91.5t95.5 246.5q0 147 -96.5 237.5
t-262.5 90.5h-481v-666zM748 1372h-451v-584h451q152 0 234.5 77t82.5 210q0 131 -86 214t-231 83z" />
    <glyph glyph-name="C" unicode="C" horiz-adv-x="1525" 
d="M123 717q0 305 212 521t505 216q109 0 210 -31.5t167.5 -77t117.5 -90.5t74 -75l25 -33l-52 -41q-8 12 -22 31.5t-65.5 68.5t-109 87t-151.5 69t-194 31q-270 0 -463 -197t-193 -479.5t192.5 -479t463.5 -196.5q100 0 193 29.5t153.5 71.5t106.5 84t67 73l22 29l52 -41
q-8 -12 -24.5 -33t-73 -74t-120 -94t-166 -73.5t-210.5 -32.5q-293 0 -505 216t-212 521z" />
    <glyph glyph-name="D" unicode="D" horiz-adv-x="1495" 
d="M236 1434h389q328 0 537.5 -204t209.5 -513t-210 -513t-537 -204h-389v1434zM625 1372h-328v-1311h328q305 0 495.5 184.5t190.5 471.5t-190.5 471t-495.5 184z" />
    <glyph glyph-name="E" unicode="E" horiz-adv-x="1280" 
d="M297 61h901v-61h-962v1434h942v-62h-881v-594h717v-61h-717v-656z" />
    <glyph glyph-name="F" unicode="F" horiz-adv-x="1228" 
d="M236 1434h931v-62h-870v-614h707v-62h-707v-696h-61v1434z" />
    <glyph glyph-name="G" unicode="G" horiz-adv-x="1607" 
d="M1434 1147l-52 -41q-8 12 -22 31.5t-65.5 68.5t-109 87t-151.5 69t-194 31q-270 0 -463 -197t-193 -479.5t191.5 -479t464.5 -196.5q100 0 193 28.5t153.5 68.5t106.5 81t67 70l22 28v328h-409v62h471v-410q-8 -12 -25.5 -33.5t-75 -77t-123 -96.5t-169 -75.5
t-211.5 -34.5q-295 0 -506 216t-211 521t212 521t505 216q109 0 210 -31.5t167.5 -77t117.5 -90.5t74 -75z" />
    <glyph glyph-name="H" unicode="H" horiz-adv-x="1515" 
d="M236 0v1434h61v-676h922v676h61v-1434h-61v696h-922v-696h-61z" />
    <glyph glyph-name="I" unicode="I" horiz-adv-x="532" 
d="M236 0v1434h61v-1434h-61z" />
    <glyph glyph-name="J" unicode="J" horiz-adv-x="983" 
d="M707 1434h61v-1024q0 -184 -119 -307t-291 -123q-100 0 -184 38.5t-119 75.5l-35 39l52 51q4 -6 11 -15t33.5 -33.5t57.5 -44t80 -35t104 -15.5q147 0 248 103.5t101 265.5v1024z" />
    <glyph glyph-name="K" unicode="K" horiz-adv-x="1320" 
d="M297 492l850 942h82l-533 -594l584 -840h-72l-553 799l-358 -389v-410h-61v1434h61v-942z" />
    <glyph glyph-name="L" unicode="L" horiz-adv-x="1126" 
d="M1085 0h-849v1434h61v-1373h788v-61z" />
    <glyph glyph-name="M" unicode="M" horiz-adv-x="1863" 
d="M287 1434l645 -891l645 891h51v-1434h-61v1321l-635 -883l-635 883v-1321h-61v1434h51z" />
    <glyph glyph-name="N" unicode="N" horiz-adv-x="1587" 
d="M1280 1434h61v-1434h-51l-993 1321v-1321h-61v1434h51l993 -1321v1321z" />
    <glyph glyph-name="O" unicode="O" horiz-adv-x="1679" 
d="M1495 716.5q0 282.5 -192.5 479.5t-463 197t-463 -197t-192.5 -479.5t192.5 -479t463 -196.5t463 196.5t192.5 479zM1556 717q0 -305 -211.5 -521t-504.5 -216t-505 216t-212 521t212 521t505 216t504.5 -216t211.5 -521z" />
    <glyph glyph-name="P" unicode="P" horiz-adv-x="1300" 
d="M236 1434h491q199 0 325 -122t126 -308.5t-126 -308.5t-325 -122h-430v-573h-61v1434zM727 1372h-430v-737h430q176 0 282.5 103.5t106.5 265t-106.5 265t-282.5 103.5z" />
    <glyph glyph-name="Q" unicode="Q" horiz-adv-x="1679" 
d="M1556 717q0 -137 -44 -258t-107.5 -193.5t-127 -127t-106.5 -77.5l-45 -20q4 -10 12.5 -28.5t40 -64.5t72.5 -81t115 -63.5t160 -28.5l123 10v-61q-51 -10 -123 -11q-98 0 -180 32t-130.5 77t-82 90t-46.5 76l-12 32q-113 -41 -235 -40q-293 0 -505 216t-212 521t212 521
t505 216t504.5 -216t211.5 -521zM1495 716.5q0 282.5 -192.5 479.5t-463 197t-463 -197t-192.5 -479.5t192.5 -479t463 -196.5t463 196.5t192.5 479z" />
    <glyph glyph-name="R" unicode="R" horiz-adv-x="1341" 
d="M236 1434h522q190 0 310 -116t120 -294q0 -98 -34 -175t-82 -117t-96 -66.5t-83 -34.5l-33 -6l359 -625h-72l-348 614h-502v-614h-61v1434zM758 1372h-461v-696h461q168 0 268 96t100 252t-100 252t-268 96z" />
    <glyph glyph-name="S" unicode="S" horiz-adv-x="1126" 
d="M942 379q0 86 -45 147.5t-115.5 95t-156.5 59.5t-173 54.5t-158 66.5t-116 106.5t-45 166.5q0 158 125 268.5t326 110.5q72 0 139.5 -18.5t112.5 -43t79.5 -50t51.5 -44.5l16 -18l-51 -51q-4 6 -13.5 17t-42 40t-69.5 50.5t-97.5 39t-125.5 17.5q-178 0 -283.5 -91.5
t-105.5 -226.5q0 -84 45 -143.5t115.5 -92t157.5 -58t173 -54.5t156.5 -67.5t116 -109.5t45.5 -171q0 -166 -129.5 -282.5t-331.5 -116.5q-84 0 -161 21.5t-126 51t-85 59t-52 52.5l-17 20l52 52q4 -8 13 -21.5t44 -46.5t76 -58.5t109.5 -47t146.5 -21.5q180 0 289.5 97.5
t109.5 240.5z" />
    <glyph glyph-name="T" unicode="T" horiz-adv-x="1105" 
d="M41 1434h1024v-62h-481v-1372h-62v1372h-481v62z" />
    <glyph glyph-name="U" unicode="U" horiz-adv-x="1536" 
d="M768 41q209 0 350.5 144.5t141.5 361.5v887h61v-887q0 -240 -161 -403.5t-392 -163.5t-392 163.5t-161 403.5v887h61v-887q0 -217 141.5 -361.5t350.5 -144.5z" />
    <glyph glyph-name="V" unicode="V" horiz-adv-x="1310" 
d="M625 0l-564 1434h62l532 -1342l533 1342h61l-563 -1434h-61z" />
    <glyph glyph-name="W" unicode="W" horiz-adv-x="2007" 
d="M1004 1300l-420 -1300h-62l-461 1434h62l430 -1332l430 1332h41l430 -1332l430 1332h62l-461 -1434h-62z" />
    <glyph glyph-name="X" unicode="X" horiz-adv-x="1249" 
d="M1085 1434h72l-502 -697l533 -737h-72l-491 686l-492 -686h-72l533 737l-502 697h72l461 -646z" />
    <glyph glyph-name="Y" unicode="Y" horiz-adv-x="1249" 
d="M133 1434l492 -861l491 861h72l-533 -932v-502h-61v502l-533 932h72z" />
    <glyph glyph-name="Z" unicode="Z" horiz-adv-x="1157" 
d="M983 1372h-870v62h942v-62l-901 -1311h921v-61h-993v61z" />
    <glyph glyph-name="bracketleft" unicode="[" horiz-adv-x="696" 
d="M287 1393v-1762h317v-61h-379v1884h379v-61h-317z" />
    <glyph glyph-name="backslash" unicode="\" horiz-adv-x="839" 
d="M707 -430l-635 1884h61l635 -1884h-61z" />
    <glyph glyph-name="bracketright" unicode="]" horiz-adv-x="696" 
d="M410 -369v1762h-318v61h379v-1884h-379v61h318z" />
    <glyph glyph-name="asciicircum" unicode="^" horiz-adv-x="778" 
d="M358 1434h62l246 -564h-62l-215 492l-215 -492h-61z" />
    <glyph glyph-name="underscore" unicode="_" horiz-adv-x="645" 
d="M666 -246v-61h-686v61h686z" />
    <glyph glyph-name="grave" unicode="`" horiz-adv-x="348" 
d="M133 1413l154 -256h-51l-175 256h72z" />
    <glyph glyph-name="a" unicode="a" horiz-adv-x="1034" 
d="M379 543l399 71v11q0 145 -83 231t-214 86q-86 0 -160.5 -39t-105.5 -76l-31 -39l-41 41q4 6 13.5 18.5t41 42.5t67.5 53.5t94.5 42t121.5 18.5q156 0 257.5 -105.5t101.5 -273.5v-625h-62v205q-4 -8 -12 -23.5t-40 -54.5t-70 -68.5t-104.5 -54t-141.5 -24.5
q-141 0 -234.5 82.5t-93.5 193.5q0 234 297 287zM410 39q154 0 261 110.5t107 270.5v133l-399 -72q-115 -20 -175.5 -79.5t-60.5 -145.5q0 -88 74 -152.5t193 -64.5z" />
    <glyph glyph-name="b" unicode="b" horiz-adv-x="1218" 
d="M246 1434v-697q4 10 14 28.5t46 65t79 81t112.5 63.5t147.5 29q174 0 312.5 -152t138.5 -360.5t-138.5 -360t-312.5 -151.5q-78 0 -147.5 27.5t-113.5 66.5t-77 77.5t-47 65.5l-14 29v-246h-62v1434h62zM645 942q-158 0 -278.5 -131t-120.5 -319.5t120.5 -319.5
t278.5 -131q152 0 270.5 132t118.5 318.5t-118.5 318.5t-270.5 132z" />
    <glyph glyph-name="c" unicode="c" horiz-adv-x="1064" 
d="M164 491.5q0 -190.5 124 -320.5t296 -130q59 0 115.5 19.5t93 46t64.5 53t40 45.5l14 20l52 -41q-6 -8 -16.5 -22.5t-46.5 -49t-77 -61t-105.5 -49t-133.5 -22.5q-195 0 -338.5 149.5t-143.5 362.5t143.5 362.5t338.5 149.5q70 0 133 -21.5t106 -51.5t76 -59.5t47 -52.5
l17 -20l-52 -41q-4 8 -13 20.5t-40 44t-65.5 56t-92 44t-116.5 19.5q-172 0 -296 -130t-124 -320.5z" />
    <glyph glyph-name="d" unicode="d" horiz-adv-x="1218" 
d="M952 737v697h62v-1434h-62v246q-4 -10 -14 -28.5t-46 -65t-79 -81t-112.5 -63t-147.5 -28.5q-174 0 -312.5 151.5t-138.5 360t138.5 360.5t312.5 152q78 0 147.5 -28t113.5 -67t77 -77.5t47 -65.5zM553 942q-152 0 -270.5 -132t-118.5 -318.5t118.5 -318.5t270.5 -132
q158 0 278.5 131t120.5 319.5t-120.5 319.5t-278.5 131z" />
    <glyph glyph-name="e" unicode="e" horiz-adv-x="1126" 
d="M1014 461h-850q8 -176 129 -298t291 -122q61 0 117.5 19.5t93 46t64.5 53t40 45.5l12 20l52 -41q-6 -8 -16.5 -22.5t-45.5 -49t-76 -61t-106.5 -49t-134.5 -22.5q-195 0 -338.5 149.5t-143.5 362.5q0 211 140.5 361.5t320.5 150.5t315.5 -147.5t135.5 -364.5v-31z
M563.5 942q-155.5 0 -277.5 -126t-122 -294h788q-8 182 -120.5 301t-268 119z" />
    <glyph glyph-name="f" unicode="f" horiz-adv-x="614" 
d="M543 983v-61h-246v-922h-61v922h-164v61h164v215q0 121 63 188.5t172 67.5q33 0 63.5 -8t45.5 -16l14 -7v-61q-51 31 -123 31q-78 0 -126 -52.5t-48 -142.5v-215h246z" />
    <glyph glyph-name="g" unicode="g" 
d="M164 512q0 -180 114.5 -305t264 -125t269.5 128t120 302t-120 302t-269.5 128t-264 -125t-114.5 -305zM932 61v215q-4 -10 -13.5 -27.5t-44 -61.5t-75.5 -77.5t-109.5 -61.5t-146.5 -28q-172 0 -306.5 144.5t-134.5 347.5t134.5 347.5t306.5 144.5q78 0 146.5 -27
t110.5 -63.5t73.5 -74.5t44.5 -65l14 -26v235h61v-922q0 -211 -131 -351t-319 -140q-72 0 -136.5 21.5t-107.5 51t-74.5 59.5t-46.5 52l-14 21l41 41q4 -8 13 -20.5t42 -44.5t69 -56.5t94 -44t120 -19.5q164 0 276.5 122t112.5 308z" />
    <glyph glyph-name="h" unicode="h" 
d="M246 1434v-656q4 8 11 23.5t36 54.5t65.5 68.5t102 54.5t143.5 25q164 0 276.5 -119t112.5 -301v-584h-61v584q0 160 -93.5 259t-234.5 99q-156 0 -257 -107.5t-101 -281.5v-553h-62v1434h62z" />
    <glyph glyph-name="i" unicode="i" horiz-adv-x="450" 
d="M184 0v983h62v-983h-62zM266 1341.5q0 -51.5 -51 -51.5t-51 51.5t51 51.5t51 -51.5z" />
    <glyph glyph-name="j" unicode="j" horiz-adv-x="450" 
d="M184 -174v1157h62v-1157q0 -113 -67.5 -184.5t-168.5 -71.5q-33 0 -63.5 8t-44.5 16l-15 7v61q51 -31 123 -31q78 0 126 52.5t48 142.5zM266 1341.5q0 -51.5 -51 -51.5t-51 51.5t51 51.5t51 -51.5z" />
    <glyph glyph-name="k" unicode="k" horiz-adv-x="1013" 
d="M246 256v-256h-62v1434h62v-1096l583 645h82l-368 -399l420 -584h-72l-379 532h-10z" />
    <glyph glyph-name="l" unicode="l" horiz-adv-x="450" 
d="M246 1434v-1434h-62v1434h62z" />
    <glyph glyph-name="m" unicode="m" horiz-adv-x="1781" 
d="M1526 0v584q0 166 -87 262t-220 96q-127 0 -217.5 -104.5t-90.5 -274.5v-563h-61v584q0 166 -87 262t-220 96q-127 0 -217 -104.5t-90 -274.5v-563h-62v983h62v-174q2 8 9 21.5t31.5 46t56.5 58.5t88 47.5t122 21.5q74 0 136 -26t98 -61.5t60.5 -71.5t34.5 -63l9 -24
q2 10 9 26.5t33.5 58.5t60.5 74.5t97.5 59.5t137.5 27q158 0 263 -116t105 -304v-584h-61z" />
    <glyph glyph-name="n" unicode="n" horiz-adv-x="1177" 
d="M236 983v-205q4 8 11 23.5t35.5 54.5t65.5 68.5t102.5 54.5t143.5 25q164 0 276.5 -119t112.5 -301v-584h-61v584q0 160 -93.5 259t-234.5 99q-156 0 -257 -107.5t-101 -281.5v-553h-62v983h62z" />
    <glyph glyph-name="o" unicode="o" 
d="M1004 492q0 188 -125 319t-295 131q-172 0 -296 -130t-124 -320.5t124 -320.5t296 -130t296 130.5t124 320.5zM1065 492q0 -213 -143.5 -362.5t-338 -149.5t-338 149.5t-143.5 362.5t143.5 362.5t338 149.5t338 -149.5t143.5 -362.5z" />
    <glyph glyph-name="p" unicode="p" horiz-adv-x="1208" 
d="M236 246v-676h-62v1413h62v-246q4 10 14 28.5t46 65t79 81t112.5 63.5t147.5 29q174 0 312 -152t138 -360.5t-138 -360t-312 -151.5q-78 0 -147.5 27.5t-113.5 66.5t-77 77.5t-47 65.5zM635 41q152 0 270.5 132t118.5 318.5t-119 318.5t-270 132q-158 0 -278.5 -131
t-120.5 -319.5t120.5 -319.5t278.5 -131z" />
    <glyph glyph-name="q" unicode="q" horiz-adv-x="1208" 
d="M952 -430v676q-4 -10 -14 -28.5t-46 -65t-79 -81t-112.5 -63t-147.5 -28.5q-174 0 -312.5 151.5t-138.5 360t138.5 360.5t312.5 152q78 0 147.5 -28t113.5 -67t77 -77.5t47 -65.5l14 -29v246h62v-1413h-62zM553 41q158 0 278.5 131t120.5 319.5t-120.5 319.5t-278.5 131
q-152 0 -270.5 -132t-118.5 -318.5t118.5 -318.5t270.5 -132z" />
    <glyph glyph-name="r" unicode="r" horiz-adv-x="686" 
d="M635 942h-41q-156 0 -257 -107.5t-101 -281.5v-553h-62v983h62v-205q4 8 11 23.5t35.5 54.5t65.5 68.5t102.5 54.5t143.5 25h41v-62z" />
    <glyph glyph-name="s" unicode="s" horiz-adv-x="880" 
d="M737 860l-51 -51q-10 14 -29.5 36.5t-86 59.5t-140.5 37q-104 0 -175 -62.5t-71 -142.5q0 -70 59.5 -113.5t143.5 -66t168 -49.5t143.5 -84t59.5 -148q0 -125 -94.5 -210.5t-243.5 -85.5q-96 0 -180 40.5t-121 81.5l-37 41l51 52q4 -6 12.5 -16.5t36 -37t58 -47t80 -37
t100.5 -16.5q127 0 201.5 66.5t74.5 168.5q0 74 -59 119t-143 68.5t-168 49.5t-143.5 81t-59.5 143q0 102 90 184.5t217 82.5q86 0 163 -36t112 -71z" />
    <glyph glyph-name="t" unicode="t" horiz-adv-x="686" 
d="M256 1055v256h61v-328h226v-61h-226v-686q0 -90 48.5 -142.5t126.5 -52.5q33 0 63.5 8t44.5 17l14 6v-62q-51 -31 -122 -30q-109 0 -172.5 67.5t-63.5 188.5v686h-205v61h144q61 0 61 72z" />
    <glyph glyph-name="u" unicode="u" 
d="M922 0v205q-4 -8 -11.5 -23.5t-38 -54.5t-67.5 -68.5t-102.5 -54t-139.5 -24.5q-164 0 -276.5 118.5t-112.5 300.5v584h62v-584q0 -160 93 -259t234 -99q147 0 253 109.5t106 269.5v563h61v-983h-61z" />
    <glyph glyph-name="v" unicode="v" horiz-adv-x="962" 
d="M502 0h-62l-399 983h61l369 -901l369 901h61z" />
    <glyph glyph-name="w" unicode="w" horiz-adv-x="1433" 
d="M686 983h41l287 -891l297 891h61l-328 -983h-61l-276 860l-277 -860h-61l-328 983h61l297 -891z" />
    <glyph glyph-name="x" unicode="x" horiz-adv-x="921" 
d="M481 512l379 -512h-72l-337 461l-338 -461h-72l379 512l-348 471h71l308 -420l307 420h71z" />
    <glyph glyph-name="y" unicode="y" horiz-adv-x="962" 
d="M358 -205l82 205l-399 983h61l369 -901l369 901h61l-481 -1188q-47 -119 -106.5 -172t-149.5 -53q-23 0 -43.5 5t-30.5 11l-8 4v62q31 -20 82 -21q128 0 194 164z" />
    <glyph glyph-name="z" unicode="z" horiz-adv-x="880" 
d="M788 983v-61l-665 -861h686v-61h-758v61l666 861h-645v61h716z" />
    <glyph glyph-name="braceleft" unicode="{" horiz-adv-x="727" 
d="M133 481v62q84 0 129 42t45 111v502q0 256 277 256h51v-61h-51q-115 0 -165 -47.5t-50 -147.5v-502q0 -53 -17.5 -92t-43 -57.5t-43 -25.5t-27.5 -9q8 -2 19 -5t31.5 -16.5t37 -32t30 -53t13.5 -77.5v-502q0 -100 50 -147.5t165 -47.5h51v-61h-51q-276 0 -277 256v502
q0 70 -45 111.5t-129 41.5z" />
    <glyph glyph-name="bar" unicode="|" horiz-adv-x="655" 
d="M358 1454v-1884h-61v1884h61z" />
    <glyph glyph-name="braceright" unicode="}" horiz-adv-x="727" 
d="M594 543v-62q-84 0 -129 -42t-45 -111v-502q0 -256 -277 -256h-51v61h51q115 0 165 47.5t50 147.5v502q0 43 13.5 77.5t30 53t37 32t31.5 16.5t19 5q-10 2 -27.5 9t-43 25.5t-43 57.5t-17.5 92v502q0 100 -50 147.5t-165 47.5h-51v61h51q276 0 277 -256v-502
q0 -70 45 -111.5t129 -41.5z" />
    <glyph glyph-name="asciitilde" unicode="~" horiz-adv-x="1064" 
d="M338 645q-59 0 -105.5 -33.5t-62.5 -66.5l-16 -33l-52 31q2 6 8.5 17t28 40t46 50.5t66.5 39t87 17.5q66 0 121 -24t89 -53.5t81 -53t98 -23.5q59 0 105.5 32.5t62.5 65.5l16 35l52 -31q-2 -6 -8.5 -17t-28 -40t-46 -50.5t-66.5 -38.5t-87 -17q-82 0 -147.5 38.5
t-122 76.5t-119.5 38z" />
    <glyph glyph-name="uni00A0" unicode="&#xa0;" horiz-adv-x="368" 
 />
    <glyph glyph-name="exclamdown" unicode="&#xa1;" horiz-adv-x="573" 
d="M256 676h61v-1106h-61v1106zM338 932q0 -51 -51 -51t-51 51t51 51t51 -51z" />
    <glyph glyph-name="cent" unicode="&#xa2;" horiz-adv-x="1064" 
d="M164 491.5q0 -190.5 124 -320.5t296 -130q59 0 115.5 19.5t93 46t64.5 53t40 45.5l14 20l52 -41q-4 -8 -14.5 -20t-43.5 -45t-70.5 -59.5t-97 -50t-123.5 -29.5v-205h-61v205q-186 16 -318.5 161.5t-132.5 350t132.5 350t318.5 162.5v204h61v-204q63 -6 122 -29
t98.5 -52.5t69.5 -57t44 -46.5l15 -20l-52 -41q-4 8 -13 20.5t-40 44t-65.5 56t-92 44t-116.5 19.5q-172 0 -296 -130t-124 -320.5z" />
    <glyph glyph-name="sterling" unicode="&#xa3;" horiz-adv-x="1116" 
d="M297 1034q0 182 112.5 301t276.5 119q63 0 121.5 -16.5t98.5 -41t70 -49t44 -40.5l14 -17l-41 -41q-4 6 -13 15.5t-39 34t-62.5 44t-85 35t-107.5 15.5q-141 0 -234.5 -99.5t-93.5 -259.5v-338h430v-61h-430v-399q0 -59 -23.5 -102.5t-45.5 -57.5l-23 -15h768v-61h-911
v61q70 0 122 52.5t52 122.5v399h-143v61h143v338z" />
    <glyph glyph-name="currency" unicode="&#xa4;" horiz-adv-x="1331" 
d="M102 614v62h185v758h491q190 0 310 -116t120 -294t-119.5 -294t-310.5 -116h-430v-245h553v-62h-553v-307h-61v307h-185v62h185v245h-185zM778 1372h-430v-696h430q168 0 268.5 96t100.5 252t-100.5 252t-268.5 96z" />
    <glyph glyph-name="yen" unicode="&#xa5;" horiz-adv-x="1249" 
d="M133 1434l492 -850l491 850h72l-481 -830h297v-61h-328l-21 -41v-164h349v-62h-349v-276h-61v276h-348v62h348v164l-21 41h-327v61h297l-482 830h72z" />
    <glyph glyph-name="brokenbar" unicode="&#xa6;" horiz-adv-x="655" 
d="M297 348h61v-778h-61v778zM358 676h-61v778h61v-778z" />
    <glyph glyph-name="section" unicode="&#xa7;" horiz-adv-x="1064" 
d="M870 573q0 49 -22.5 91.5t-52 69t-83 54t-92 42t-104 37t-96.5 34.5q-8 -2 -23.5 -7t-54.5 -24.5t-68.5 -44t-54 -70.5t-24.5 -100q0 -49 22.5 -91t53 -69.5t85 -55t93 -42t103 -37t93.5 -32.5q8 2 23.5 7t54.5 23.5t68.5 44t54 70.5t24.5 100zM522 -164q127 0 202 64.5
t75 160.5q0 84 -68.5 141.5t-167 93.5t-196 74t-166 109.5t-68.5 175.5q0 59 23.5 109.5t56.5 80t65.5 50t57.5 29.5l22 8q-6 2 -16 7t-36.5 24.5t-47 43t-37 64.5t-16.5 86q0 119 97 208t241 89q86 0 165.5 -36t114.5 -70l37 -37l-51 -51q-12 14 -33.5 36.5t-90.5 59.5
t-142 37q-119 0 -198 -71t-79 -165q0 -86 68.5 -143.5t166 -89t196 -67.5t167 -106.5t68.5 -177.5q0 -59 -23.5 -110t-56.5 -80t-65.5 -50.5t-57.5 -29.5l-22 -6q6 -2 16 -8t36.5 -27.5t47 -46.5t37 -67t16.5 -87q0 -119 -94 -202.5t-244 -83.5q-59 0 -117.5 18.5t-98.5 43
t-70.5 50t-47.5 43.5l-14 19l51 51q4 -6 13.5 -17.5t38 -40t61.5 -50t83 -39t101 -17.5z" />
    <glyph glyph-name="dieresis" unicode="&#xa8;" horiz-adv-x="552" 
d="M61 1311q0 51 51.5 51t51.5 -51t-51.5 -51t-51.5 51zM389 1311q0 51 51.5 51t51.5 -51t-51.5 -51t-51.5 51z" />
    <glyph glyph-name="copyright" unicode="&#xa9;" horiz-adv-x="1740" 
d="M205 716.5q0 -282.5 194.5 -479t471 -196.5t471 196.5t194.5 479t-194.5 479.5t-471 197t-471 -197t-194.5 -479.5zM584 716.5q0 -143.5 88 -235.5t219 -92q45 0 88 13.5t69.5 33t48 40t29.5 32.5l11 14l41 -41q-4 -6 -11.5 -16t-34 -37t-57.5 -47.5t-80 -36.5t-104 -16
q-156 0 -262.5 110.5t-106.5 278.5t106.5 278.5t262.5 110.5q86 0 157.5 -39t100.5 -76l29 -39l-41 -41q-4 6 -10.5 14.5t-29 32t-49 41t-69.5 31.5t-88 14q-131 0 -219 -92t-88 -235.5zM1597 717q0 -307 -213 -522t-514 -215t-514 215t-213 522t213 522t514 215t514 -215
t213 -522z" />
    <glyph glyph-name="ordfeminine" unicode="&#xaa;" horiz-adv-x="665" 
d="M246 829q-76 0 -130.5 50.5t-54.5 113.5q0 70 51.5 119t143.5 66l215 41v30q0 143 -154 144q-45 0 -86 -20.5t-59 -41.5l-18 -20l-52 41q8 12 25.5 28.5t74 45t115.5 28.5q98 0 156.5 -56.5t58.5 -148.5v-399h-61v102q-2 -4 -7 -13t-24.5 -29.5t-43 -37t-64.5 -30
t-86 -13.5zM471 1157l-215 -41q-133 -27 -133 -123q0 -41 37 -71.5t96 -30.5q98 0 156.5 64.5t58.5 166.5v35z" />
    <glyph glyph-name="guillemotleft" unicode="&#xab;" horiz-adv-x="849" 
d="M410 809l-226 -317l226 -318h-72l-225 318l225 317h72zM737 809l-225 -317l225 -318h-71l-226 318l226 317h71z" />
    <glyph glyph-name="logicalnot" unicode="&#xac;" horiz-adv-x="931" 
d="M829 758v-348h-61v286h-666v62h727z" />
    <glyph glyph-name="uni00AD" unicode="&#xad;" horiz-adv-x="839" 
d="M748 635v-62h-656v62h656z" />
    <glyph glyph-name="registered" unicode="&#xae;" horiz-adv-x="1740" 
d="M993 666l185 -328h-72l-174 317h-225v-317h-62v758h256q115 0 180.5 -62.5t65.5 -163.5q0 -78 -39 -129t-76 -63zM707 1034v-317h194q90 0 137 41t47 112q0 164 -184 164h-194zM205 716.5q0 -282.5 194.5 -479t471 -196.5t471 196.5t194.5 479t-194.5 479.5t-471 197
t-471 -197t-194.5 -479.5zM1597 717q0 -307 -213 -522t-514 -215t-514 215t-213 522t213 522t514 215t514 -215t213 -522z" />
    <glyph glyph-name="macron" unicode="&#xaf;" horiz-adv-x="655" 
d="M594 1393v-62h-533v62h533z" />
    <glyph glyph-name="degree" unicode="&#xb0;" horiz-adv-x="716" 
d="M614 1198.5q0 -108.5 -73.5 -182.5t-182 -74t-182.5 74t-74 182.5t74 182t182.5 73.5t182 -73.5t73.5 -182zM553 1198q0 84 -55.5 139.5t-139.5 55.5t-139 -55.5t-55 -139.5t55 -139t139 -55t139.5 55t55.5 139z" />
    <glyph glyph-name="plusminus" unicode="&#xb1;" horiz-adv-x="1024" 
d="M102 125v59h820v-59h-820zM481 1208h62v-399h389v-61h-389v-400h-62v400h-389v61h389v399z" />
    <glyph glyph-name="uni00B2" unicode="&#xb2;" horiz-adv-x="563" 
d="M502 922h-461q0 84 41 149.5t100.5 106.5t117.5 76.5t99 82.5t41 105q0 63 -43 104t-110 41q-59 0 -102.5 -30.5t-57.5 -61.5l-14 -31l-62 21q2 6 6 17t23.5 40t43 50.5t68 39t95.5 17.5q92 0 153.5 -59.5t61.5 -145.5q0 -68 -36 -121t-90 -89t-110.5 -70t-103.5 -80
t-62 -101h402v-61z" />
    <glyph glyph-name="uni00B3" unicode="&#xb3;" horiz-adv-x="583" 
d="M399 1300q4 -2 13.5 -4t30 -15t37 -30.5t29.5 -50.5t13 -74q0 -92 -63.5 -153.5t-161.5 -61.5q-74 0 -137.5 31t-89.5 62l-29 30l41 41q8 -12 25.5 -28.5t74 -45t115.5 -28.5q76 0 120 42t44 111q0 63 -44 103.5t-120 40.5h-102v61h92q68 0 105.5 36t37.5 97q0 55 -40 89
t-114 34q-49 0 -93 -20.5t-62 -40.5l-19 -21l-41 41q8 12 25.5 28.5t74 45.5t115.5 29q98 0 157 -52.5t59 -132.5q0 -35 -9.5 -64.5t-23 -47t-27.5 -29.5t-22 -16z" />
    <glyph glyph-name="acute" unicode="&#xb4;" horiz-adv-x="348" 
d="M61 1157l154 256h72l-174 -256h-52z" />
    <glyph glyph-name="mu" unicode="&#xb5;" 
d="M1075 -10q-78 0 -126 50t-48 134v31q-4 -8 -10 -23.5t-34 -54.5t-62.5 -68.5t-96 -54t-135.5 -24.5q-63 0 -119.5 19t-93.5 46t-63.5 53.5t-38.5 44.5l-12 21v-594h-62v1413h62v-594q0 -152 94 -250t233 -98q143 0 240.5 108.5t97.5 270.5v563h62v-809q0 -53 32.5 -88
t79.5 -35l62 10v-61q-21 -10 -62 -10z" />
    <glyph glyph-name="paragraph" unicode="&#xb6;" horiz-adv-x="1044" 
d="M430 -205v1004q-123 0 -220 97t-97 220t97 220.5t220 97.5h379v-1639h-61v1577h-256v-1577h-62z" />
    <glyph glyph-name="periodcentered" unicode="&#xb7;" horiz-adv-x="368" 
d="M236 512q0 -51 -51.5 -51t-51.5 51t51.5 51t51.5 -51z" />
    <glyph glyph-name="cedilla" unicode="&#xb8;" horiz-adv-x="450" 
d="M225 41h51l-81 -164q20 10 51 10q61 0 102 -41t41 -102q0 -63 -49 -108.5t-125 -45.5q-37 0 -76 12.5t-57 24.5l-21 15l31 41q51 -41 123 -41q51 0 87 31.5t36 70.5t-26.5 65.5t-65.5 26.5q-18 0 -35.5 -5t-26.5 -11l-10 -4l-41 41z" />
    <glyph glyph-name="uni00B9" unicode="&#xb9;" horiz-adv-x="399" 
d="M225 1638h51v-716h-61v614q-51 -61 -154 -72v62q45 4 86 32.5t60 55.5z" />
    <glyph glyph-name="ordmasculine" unicode="&#xba;" horiz-adv-x="716" 
d="M123 1136.5q0 -112.5 67.5 -184t168 -71.5t168 71.5t67.5 184t-67.5 184.5t-168 72t-168 -72t-67.5 -184.5zM655 1136.5q0 -137.5 -86 -227.5t-211 -90t-211 90t-86 227.5t86 227.5t211 90t211 -90t86 -227.5z" />
    <glyph glyph-name="guillemotright" unicode="&#xbb;" horiz-adv-x="849" 
d="M666 492l-226 317h72l225 -317l-225 -318h-72zM338 492l-225 317h71l226 -317l-226 -318h-71z" />
    <glyph glyph-name="onequarter" unicode="&#xbc;" horiz-adv-x="1361" 
d="M154 0l901 1434h61l-901 -1434h-61zM246 1434h51v-717h-61v614q-51 -61 -154 -71v61q45 4 86 32.5t59 55.5zM1167 246h103v-62h-103v-184h-61v184h-358v62l348 471h71v-471zM1106 246v399l-297 -399h297z" />
    <glyph glyph-name="onehalf" unicode="&#xbd;" horiz-adv-x="1413" 
d="M154 0l901 1434h61l-901 -1434h-61zM246 1434h51v-717h-61v614q-51 -61 -154 -71v61q45 4 86 32.5t59 55.5zM1311 0h-461q0 84 41 149.5t99.5 106.5t117.5 77t100 83t41 104q0 63 -43 104.5t-110 41.5q-59 0 -102.5 -31t-57.5 -62l-14 -30l-62 20q2 6 6 17.5t23.5 40
t43 50t67.5 39t96 17.5q92 0 153.5 -59.5t61.5 -145.5q0 -68 -36 -121t-90.5 -89t-110.5 -69.5t-103 -79.5t-62 -102h402v-61z" />
    <glyph glyph-name="threequarters" unicode="&#xbe;" horiz-adv-x="1495" 
d="M276 0l902 1434h61l-901 -1434h-62zM1300 246h103v-62h-103v-184h-61v184h-358v62l348 471h71v-471zM1239 246v399l-297 -399h297zM420 1096q4 -2 13 -4t29.5 -15.5t37 -31t30 -50t13.5 -73.5q0 -92 -63.5 -153.5t-162.5 -61.5q-74 0 -137 30.5t-90 61.5l-29 30l41 41
q8 -12 25.5 -28.5t74 -45t115.5 -28.5q76 0 120 42t44 112q0 63 -44 103t-120 40h-102v61h92q68 0 106 36t38 98q0 55 -40 88.5t-114 33.5q-49 0 -93 -20.5t-63 -40.5l-18 -21l-41 41q8 12 25.5 28.5t74 45.5t115.5 29q98 0 156.5 -52.5t58.5 -131.5q0 -35 -9 -65
t-22.5 -47.5t-28 -29.5t-22.5 -16z" />
    <glyph glyph-name="questiondown" unicode="&#xbf;" horiz-adv-x="911" 
d="M481 676h62v-82q0 -96 -42 -172t-102.5 -126t-121 -99.5t-102.5 -117t-42 -151.5q0 -129 99.5 -223t259.5 -94q86 0 154.5 28.5t104 69.5t60.5 81t33 69l6 28l61 -20q-2 -12 -9 -33.5t-39 -77t-73.5 -96.5t-120.5 -76t-177 -35q-182 0 -301 113t-119 266q0 98 42 173
t102 123t120.5 95.5t102.5 116t42 158.5v82zM563 932q0 -51 -51 -51t-51 51t51 51t51 -51z" />
    <glyph glyph-name="Agrave" unicode="&#xc0;" horiz-adv-x="1372" 
d="M1044 502l-358 860l-358 -860h716zM1065 440h-758l-184 -440h-62l594 1434h62l594 -1434h-62zM553 1884l154 -256h-52l-174 256h72z" />
    <glyph glyph-name="Aacute" unicode="&#xc1;" horiz-adv-x="1372" 
d="M1044 502l-358 860l-358 -860h716zM1065 440h-758l-184 -440h-62l594 1434h62l594 -1434h-62zM666 1628l153 256h72l-174 -256h-51z" />
    <glyph glyph-name="Acircumflex" unicode="&#xc2;" horiz-adv-x="1372" 
d="M1044 502l-358 860l-358 -860h716zM1065 440h-758l-184 -440h-62l594 1434h62l594 -1434h-62zM717 1884l215 -256h-72l-174 205l-174 -205h-72l215 256h62z" />
    <glyph glyph-name="Atilde" unicode="&#xc3;" horiz-adv-x="1372" 
d="M1044 502l-358 860l-358 -860h716zM1065 440h-758l-184 -440h-62l594 1434h62l594 -1434h-62zM563 1792q-41 0 -61.5 -33t-20.5 -121h-61q0 215 143 215q45 0 83 -23.5t61.5 -53t55.5 -53t66 -23.5q41 0 61.5 32.5t20.5 120.5h62q0 -215 -144 -215q-45 0 -82.5 24
t-61 53.5t-55.5 53t-67 23.5z" />
    <glyph glyph-name="Adieresis" unicode="&#xc4;" horiz-adv-x="1372" 
d="M1044 502l-358 860l-358 -860h716zM1065 440h-758l-184 -440h-62l594 1434h62l594 -1434h-62zM471 1761q0 51 51 51t51 -51t-51 -51t-51 51zM799 1761q0 51 51 51t51 -51t-51 -51t-51 51z" />
    <glyph glyph-name="Aring" unicode="&#xc5;" horiz-adv-x="1372" 
d="M1044 502l-358 860l-358 -860h716zM1065 440h-758l-184 -440h-62l594 1434h62l594 -1434h-62zM553 1761.5q0 -53.5 40 -93.5t93 -40t93 40t40 93.5t-40 93t-93 39.5t-93 -39.5t-40 -93zM881 1761q0 -78 -59.5 -136t-135.5 -58t-135 58t-59 136t59 136.5t135 58.5
t135.5 -58.5t59.5 -136.5z" />
    <glyph glyph-name="AE" unicode="&#xc6;" horiz-adv-x="1925" 
d="M1055 61h788v-61h-850v461h-706l-256 -461h-72l799 1434h1065v-62h-768v-594h604v-61h-604v-656zM799 1372l-482 -850h676v850h-194z" />
    <glyph glyph-name="Ccedilla" unicode="&#xc7;" horiz-adv-x="1525" 
d="M123 717q0 305 212 521t505 216q109 0 210 -31.5t167.5 -77t117.5 -90.5t74 -75l25 -33l-52 -41q-8 12 -22 31.5t-65.5 68.5t-109 87t-151.5 69t-194 31q-270 0 -463 -197t-193 -479.5t192.5 -479t463.5 -196.5q100 0 193 29.5t153.5 71.5t106.5 84t67 73l22 29l52 -41
q-8 -12 -24.5 -33t-72 -73t-118 -92t-163 -73.5t-206.5 -35.5l-51 -103q20 10 51 10q61 0 102 -41t41 -102q0 -63 -49 -108.5t-125 -45.5q-37 0 -75.5 12.5t-59.5 24.5l-18 15l30 41q51 -41 123 -41q51 0 87 31.5t36 70.5t-26.5 65.5t-65.5 26.5q-18 0 -35.5 -5t-28.5 -11
l-8 -4l-41 41l62 125q-281 16 -478.5 228t-197.5 507z" />
    <glyph glyph-name="Egrave" unicode="&#xc8;" horiz-adv-x="1280" 
d="M297 61h901v-61h-962v1434h942v-62h-881v-594h717v-61h-717v-656zM604 1884l154 -256h-51l-175 256h72z" />
    <glyph glyph-name="Eacute" unicode="&#xc9;" horiz-adv-x="1280" 
d="M297 61h901v-61h-962v1434h942v-62h-881v-594h717v-61h-717v-656zM666 1628l153 256h72l-174 -256h-51z" />
    <glyph glyph-name="Ecircumflex" unicode="&#xca;" horiz-adv-x="1280" 
d="M297 61h901v-61h-962v1434h942v-62h-881v-594h717v-61h-717v-656zM737 1874l215 -256h-71l-174 205l-175 -205h-71l215 256h61z" />
    <glyph glyph-name="Edieresis" unicode="&#xcb;" horiz-adv-x="1280" 
d="M297 61h901v-61h-962v1434h942v-62h-881v-594h717v-61h-717v-656zM492 1761q0 51 51 51t51 -51t-51 -51t-51 51zM819 1761q0 51 51.5 51t51.5 -51t-51.5 -51t-51.5 51z" />
    <glyph glyph-name="Igrave" unicode="&#xcc;" horiz-adv-x="532" 
d="M236 0v1434h61v-1434h-61zM143 1894l154 -256h-51l-174 256h71z" />
    <glyph glyph-name="Iacute" unicode="&#xcd;" horiz-adv-x="532" 
d="M236 0v1434h61v-1434h-61zM246 1628l153 256h72l-174 -256h-51z" />
    <glyph glyph-name="Icircumflex" unicode="&#xce;" horiz-adv-x="532" 
d="M236 0v1434h61v-1434h-61zM297 1874l215 -256h-72l-174 205l-174 -205h-72l216 256h61z" />
    <glyph glyph-name="Idieresis" unicode="&#xcf;" horiz-adv-x="532" 
d="M236 0v1434h61v-1434h-61zM51 1761q0 51 51.5 51t51.5 -51t-51.5 -51t-51.5 51zM379 1761q0 51 51 51t51 -51t-51 -51t-51 51z" />
    <glyph glyph-name="Eth" unicode="&#xd0;" horiz-adv-x="1525" 
d="M266 1434h389q328 0 538 -204t210 -513t-210 -513t-538 -204h-389v686h-215v62h215v686zM655 1372h-327v-624h368v-62h-368v-625h327q305 0 495.5 184.5t190.5 471.5t-190.5 471t-495.5 184z" />
    <glyph glyph-name="Ntilde" unicode="&#xd1;" horiz-adv-x="1576" 
d="M1280 1434h61v-1434h-51l-993 1321v-1321h-61v1434h51l993 -1321v1321zM666 1792q-41 0 -61.5 -33t-20.5 -121h-62q0 215 144 215q45 0 82.5 -23.5t61.5 -53t55.5 -53t66.5 -23.5q41 0 61.5 32.5t20.5 120.5h61q0 -215 -143 -215q-45 0 -83 24t-61.5 53.5t-55 53
t-66.5 23.5z" />
    <glyph glyph-name="Ograve" unicode="&#xd2;" horiz-adv-x="1679" 
d="M1495 716.5q0 282.5 -192.5 479.5t-463 197t-463 -197t-192.5 -479.5t192.5 -479t463 -196.5t463 196.5t192.5 479zM1556 717q0 -305 -211.5 -521t-504.5 -216t-505 216t-212 521t212 521t505 216t504.5 -216t211.5 -521zM717 1884l153 -256h-51l-174 256h72z" />
    <glyph glyph-name="Oacute" unicode="&#xd3;" horiz-adv-x="1679" 
d="M1495 716.5q0 282.5 -192.5 479.5t-463 197t-463 -197t-192.5 -479.5t192.5 -479t463 -196.5t463 196.5t192.5 479zM1556 717q0 -305 -211.5 -521t-504.5 -216t-505 216t-212 521t212 521t505 216t504.5 -216t211.5 -521zM809 1628l154 256h71l-174 -256h-51z" />
    <glyph glyph-name="Ocircumflex" unicode="&#xd4;" horiz-adv-x="1679" 
d="M1495 716.5q0 282.5 -192.5 479.5t-463 197t-463 -197t-192.5 -479.5t192.5 -479t463 -196.5t463 196.5t192.5 479zM1556 717q0 -305 -211.5 -521t-504.5 -216t-505 216t-212 521t212 521t505 216t504.5 -216t211.5 -521zM870 1874l215 -256h-71l-174 205l-174 -205h-72
l215 256h61z" />
    <glyph glyph-name="Otilde" unicode="&#xd5;" horiz-adv-x="1679" 
d="M1495 716.5q0 282.5 -192.5 479.5t-463 197t-463 -197t-192.5 -479.5t192.5 -479t463 -196.5t463 196.5t192.5 479zM1556 717q0 -305 -211.5 -521t-504.5 -216t-505 216t-212 521t212 521t505 216t504.5 -216t211.5 -521zM717 1792q-41 0 -61.5 -33t-20.5 -121h-62
q0 215 144 215q45 0 83 -23.5t61.5 -53t55 -53t66.5 -23.5q41 0 61.5 32.5t20.5 120.5h61q0 -215 -143 -215q-45 0 -83 24t-61.5 53.5t-55 53t-66.5 23.5z" />
    <glyph glyph-name="Odieresis" unicode="&#xd6;" horiz-adv-x="1679" 
d="M1495 716.5q0 282.5 -192.5 479.5t-463 197t-463 -197t-192.5 -479.5t192.5 -479t463 -196.5t463 196.5t192.5 479zM1556 717q0 -305 -211.5 -521t-504.5 -216t-505 216t-212 521t212 521t505 216t504.5 -216t211.5 -521zM625 1761q0 51 51 51t51 -51t-51 -51t-51 51z
M952 1761q0 51 51.5 51t51.5 -51t-51.5 -51t-51.5 51z" />
    <glyph glyph-name="multiply" unicode="&#xd7;" horiz-adv-x="860" 
d="M430 584l-287 -287l-51 51l287 287l-287 287l51 51l287 -287l287 287l51 -51l-287 -287l287 -287l-51 -51z" />
    <glyph glyph-name="Oslash" unicode="&#xd8;" horiz-adv-x="1679" 
d="M1556 717q0 -305 -211.5 -521t-504.5 -216q-276 0 -482 192l-184 -192l-51 40l190 197q-190 211 -190 500q0 305 212 521t505 216q272 0 481 -192l184 192l51 -41l-190 -199q190 -212 190 -497zM1495 717q0 262 -172 454l-924 -956q186 -174 441 -174q270 0 462.5 196.5
t192.5 479.5zM184 717q0 -260 170 -457l924 959q-186 174 -438 174q-270 0 -463 -196.5t-193 -479.5z" />
    <glyph glyph-name="Ugrave" unicode="&#xd9;" horiz-adv-x="1536" 
d="M768 41q209 0 350.5 144.5t141.5 361.5v887h61v-887q0 -240 -161 -403.5t-392 -163.5t-392 163.5t-161 403.5v887h61v-887q0 -217 141.5 -361.5t350.5 -144.5zM655 1894l154 -256h-51l-174 256h71z" />
    <glyph glyph-name="Uacute" unicode="&#xda;" horiz-adv-x="1536" 
d="M768 41q209 0 350.5 144.5t141.5 361.5v887h61v-887q0 -240 -161 -403.5t-392 -163.5t-392 163.5t-161 403.5v887h61v-887q0 -217 141.5 -361.5t350.5 -144.5zM727 1628l154 256h71l-174 -256h-51z" />
    <glyph glyph-name="Ucircumflex" unicode="&#xdb;" horiz-adv-x="1536" 
d="M768 41q209 0 350.5 144.5t141.5 361.5v887h61v-887q0 -240 -161 -403.5t-392 -163.5t-392 163.5t-161 403.5v887h61v-887q0 -217 141.5 -361.5t350.5 -144.5zM799 1874l215 -256h-72l-174 205l-174 -205h-72l215 256h62z" />
    <glyph glyph-name="Udieresis" unicode="&#xdc;" horiz-adv-x="1536" 
d="M768 41q209 0 350.5 144.5t141.5 361.5v887h61v-887q0 -240 -161 -403.5t-392 -163.5t-392 163.5t-161 403.5v887h61v-887q0 -217 141.5 -361.5t350.5 -144.5zM543 1761q0 51 51 51t51 -51t-51 -51t-51 51zM870 1761q0 51 51.5 51t51.5 -51t-51.5 -51t-51.5 51z" />
    <glyph glyph-name="Yacute" unicode="&#xdd;" horiz-adv-x="1249" 
d="M133 1434l492 -861l491 861h72l-533 -932v-502h-61v502l-533 932h72zM604 1628l154 256h71l-174 -256h-51z" />
    <glyph glyph-name="Thorn" unicode="&#xde;" horiz-adv-x="1300" 
d="M297 1188v-901h338q213 0 347 128t134 322.5t-134 322.5t-347 128h-338zM297 1249h338q236 0 389.5 -147.5t153.5 -364.5t-154 -364.5t-389 -147.5h-338v-266h-61v1516h61v-226z" />
    <glyph glyph-name="germandbls" unicode="&#xdf;" horiz-adv-x="1167" 
d="M717 788q12 -2 33.5 -8t77 -33.5t96.5 -65.5t75.5 -110.5t34.5 -160.5q0 -170 -121.5 -290t-298.5 -120h-61v61h61q154 0 256.5 100.5t102.5 248.5q0 139 -103.5 238.5t-255.5 99.5h-61v61h10q129 0 218 87t89 210q0 117 -89 202t-218 85q-137 0 -227 -86t-90 -211v-1096
h-62v1096q0 147 109.5 252.5t269.5 105.5q152 0 260.5 -104.5t108.5 -243.5q0 -66 -22.5 -123t-54.5 -91t-62.5 -58.5t-53.5 -34.5z" />
    <glyph glyph-name="agrave" unicode="&#xe0;" horiz-adv-x="1034" 
d="M379 543l399 71v11q0 145 -83 231t-214 86q-86 0 -160.5 -39t-105.5 -76l-31 -39l-41 41q4 6 13.5 18.5t41 42.5t67.5 53.5t94.5 42t121.5 18.5q156 0 257.5 -105.5t101.5 -273.5v-625h-62v205q-4 -8 -12 -23.5t-40 -54.5t-70 -68.5t-104.5 -54t-141.5 -24.5
q-141 0 -234.5 82.5t-93.5 193.5q0 234 297 287zM410 39q154 0 261 110.5t107 270.5v133l-399 -72q-115 -20 -175.5 -79.5t-60.5 -145.5q0 -88 74 -152.5t193 -64.5zM389 1423l154 -256h-51l-175 256h72z" />
    <glyph glyph-name="aacute" unicode="&#xe1;" horiz-adv-x="1034" 
d="M379 543l399 71v11q0 145 -83 231t-214 86q-86 0 -160.5 -39t-105.5 -76l-31 -39l-41 41q4 6 13.5 18.5t41 42.5t67.5 53.5t94.5 42t121.5 18.5q156 0 257.5 -105.5t101.5 -273.5v-625h-62v205q-4 -8 -12 -23.5t-40 -54.5t-70 -68.5t-104.5 -54t-141.5 -24.5
q-141 0 -234.5 82.5t-93.5 193.5q0 234 297 287zM410 39q154 0 261 110.5t107 270.5v133l-399 -72q-115 -20 -175.5 -79.5t-60.5 -145.5q0 -88 74 -152.5t193 -64.5zM471 1157l154 256h71l-174 -256h-51z" />
    <glyph glyph-name="acircumflex" unicode="&#xe2;" horiz-adv-x="1034" 
d="M379 543l399 71v11q0 145 -83 231t-214 86q-86 0 -160.5 -39t-105.5 -76l-31 -39l-41 41q4 6 13.5 18.5t41 42.5t67.5 53.5t94.5 42t121.5 18.5q156 0 257.5 -105.5t101.5 -273.5v-625h-62v205q-4 -8 -12 -23.5t-40 -54.5t-70 -68.5t-104.5 -54t-141.5 -24.5
q-141 0 -234.5 82.5t-93.5 193.5q0 234 297 287zM410 39q154 0 261 110.5t107 270.5v133l-399 -72q-115 -20 -175.5 -79.5t-60.5 -145.5q0 -88 74 -152.5t193 -64.5zM543 1413l215 -256h-72l-174 205l-174 -205h-72l215 256h62z" />
    <glyph glyph-name="atilde" unicode="&#xe3;" horiz-adv-x="1034" 
d="M379 543l399 71v11q0 145 -83 231t-214 86q-86 0 -160.5 -39t-105.5 -76l-31 -39l-41 41q4 6 13.5 18.5t41 42.5t67.5 53.5t94.5 42t121.5 18.5q156 0 257.5 -105.5t101.5 -273.5v-625h-62v205q-4 -8 -12 -23.5t-40 -54.5t-70 -68.5t-104.5 -54t-141.5 -24.5
q-141 0 -234.5 82.5t-93.5 193.5q0 234 297 287zM410 39q154 0 261 110.5t107 270.5v133l-399 -72q-115 -20 -175.5 -79.5t-60.5 -145.5q0 -88 74 -152.5t193 -64.5zM379 1321q-41 0 -61.5 -33t-20.5 -121h-61q0 215 143 215q45 0 83 -23.5t61.5 -53t55 -53t66.5 -23.5
q41 0 61.5 32.5t20.5 120.5h61q0 -215 -143 -215q-45 0 -83 23.5t-61.5 53.5t-55 53.5t-66.5 23.5z" />
    <glyph glyph-name="adieresis" unicode="&#xe4;" horiz-adv-x="1034" 
d="M379 543l399 71v11q0 145 -83 231t-214 86q-86 0 -160.5 -39t-105.5 -76l-31 -39l-41 41q4 6 13.5 18.5t41 42.5t67.5 53.5t94.5 42t121.5 18.5q156 0 257.5 -105.5t101.5 -273.5v-625h-62v205q-4 -8 -12 -23.5t-40 -54.5t-70 -68.5t-104.5 -54t-141.5 -24.5
q-141 0 -234.5 82.5t-93.5 193.5q0 234 297 287zM410 39q154 0 261 110.5t107 270.5v133l-399 -72q-115 -20 -175.5 -79.5t-60.5 -145.5q0 -88 74 -152.5t193 -64.5zM297 1300.5q0 51.5 51 51.5t51 -51.5t-51 -51.5t-51 51.5zM625 1300.5q0 51.5 51 51.5t51 -51.5t-51 -51.5
t-51 51.5z" />
    <glyph glyph-name="aring" unicode="&#xe5;" horiz-adv-x="1034" 
d="M379 543l399 71v11q0 145 -83 231t-214 86q-86 0 -160.5 -39t-105.5 -76l-31 -39l-41 41q4 6 13.5 18.5t41 42.5t67.5 53.5t94.5 42t121.5 18.5q156 0 257.5 -105.5t101.5 -273.5v-625h-62v205q-4 -8 -12 -23.5t-40 -54.5t-70 -68.5t-104.5 -54t-141.5 -24.5
q-141 0 -234.5 82.5t-93.5 193.5q0 234 297 287zM410 39q154 0 261 110.5t107 270.5v133l-399 -72q-115 -20 -175.5 -79.5t-60.5 -145.5q0 -88 74 -152.5t193 -64.5zM389 1310.5q0 -53.5 40 -93t93 -39.5t93 39.5t40 93t-40 93.5t-93 40t-93 -40t-40 -93.5zM717 1311
q0 -78 -59.5 -136.5t-135.5 -58.5t-135 58.5t-59 136.5t59 136t135 58t135.5 -58t59.5 -136z" />
    <glyph glyph-name="ae" unicode="&#xe6;" horiz-adv-x="1751" 
d="M1638 481h-798q8 -190 120.5 -315t268.5 -125q59 0 114.5 18.5t90 44t61.5 51t39 44.5l12 18l51 -33q-4 -8 -14 -22.5t-45 -49t-74 -61t-102.5 -49t-132.5 -22.5q-86 0 -160 31.5t-118 76.5t-75.5 90t-44.5 76l-12 33l-11 -33q-7 -21 -39 -74t-74 -94t-117.5 -73.5
t-167.5 -32.5q-141 0 -234.5 82.5t-93.5 193.5q0 119 92 203t236 84h368v82q0 137 -86 227t-211 90q-86 0 -160.5 -39t-105.5 -76l-31 -39l-41 41q4 6 13.5 18.5t41 42.5t67.5 53.5t94.5 42t121.5 18.5q80 0 145.5 -29t101.5 -70t60.5 -81t32.5 -68l8 -29q4 10 13.5 29.5
t43.5 66.5t73.5 84t107.5 67t141 30q166 0 298 -146.5t132 -355.5v-21zM1208.5 942q-141.5 0 -255 -121t-113.5 -278h737q-8 166 -117.5 282.5t-251 116.5zM410 41q154 0 261 109.5t107 271.5v59h-368q-119 0 -193 -65.5t-74 -159.5q0 -88 74 -151.5t193 -63.5z" />
    <glyph glyph-name="ccedilla" unicode="&#xe7;" horiz-adv-x="1064" 
d="M164 491.5q0 -190.5 124 -320.5t296 -130q59 0 115.5 19.5t93 46t64.5 53t40 45.5l14 20l52 -41q-6 -8 -16.5 -21t-45.5 -48t-75 -61.5t-103.5 -49t-128.5 -24.5l-51 -103q20 10 51 10q61 0 102 -41t41 -102q0 -63 -49 -108.5t-125 -45.5q-37 0 -75.5 12.5t-57.5 24.5
l-20 15l30 41q51 -41 123 -41q51 0 87 31.5t36 70.5t-26.5 65.5t-65.5 26.5q-18 0 -35.5 -5t-26.5 -11l-10 -4l-41 41l62 125q-182 16 -311.5 162.5t-129.5 347.5q0 213 143.5 362.5t338.5 149.5q70 0 133 -21.5t106 -51.5t76 -59.5t47 -52.5l17 -20l-52 -41q-4 8 -13 20.5
t-40 44t-65.5 56t-92 44t-116.5 19.5q-172 0 -296 -130t-124 -320.5z" />
    <glyph glyph-name="egrave" unicode="&#xe8;" horiz-adv-x="1126" 
d="M1014 461h-850q8 -176 129 -298t291 -122q61 0 117.5 19.5t93 46t64.5 53t40 45.5l12 20l52 -41q-6 -8 -16.5 -22.5t-45.5 -49t-76 -61t-106.5 -49t-134.5 -22.5q-195 0 -338.5 149.5t-143.5 362.5q0 211 140.5 361.5t320.5 150.5t315.5 -147.5t135.5 -364.5v-31z
M563.5 942q-155.5 0 -277.5 -126t-122 -294h788q-8 182 -120.5 301t-268 119zM451 1413l153 -256h-51l-174 256h72z" />
    <glyph glyph-name="eacute" unicode="&#xe9;" horiz-adv-x="1126" 
d="M1014 461h-850q8 -176 129 -298t291 -122q61 0 117.5 19.5t93 46t64.5 53t40 45.5l12 20l52 -41q-6 -8 -16.5 -22.5t-45.5 -49t-76 -61t-106.5 -49t-134.5 -22.5q-195 0 -338.5 149.5t-143.5 362.5q0 211 140.5 361.5t320.5 150.5t315.5 -147.5t135.5 -364.5v-31z
M563.5 942q-155.5 0 -277.5 -126t-122 -294h788q-8 182 -120.5 301t-268 119zM532 1157l154 256h72l-174 -256h-52z" />
    <glyph glyph-name="ecircumflex" unicode="&#xea;" horiz-adv-x="1126" 
d="M1014 461h-850q8 -176 129 -298t291 -122q61 0 117.5 19.5t93 46t64.5 53t40 45.5l12 20l52 -41q-6 -8 -16.5 -22.5t-45.5 -49t-76 -61t-106.5 -49t-134.5 -22.5q-195 0 -338.5 149.5t-143.5 362.5q0 211 140.5 361.5t320.5 150.5t315.5 -147.5t135.5 -364.5v-31z
M563.5 942q-155.5 0 -277.5 -126t-122 -294h788q-8 182 -120.5 301t-268 119zM594 1413l215 -256h-72l-174 205l-174 -205h-72l215 256h62z" />
    <glyph glyph-name="edieresis" unicode="&#xeb;" horiz-adv-x="1126" 
d="M1014 461h-850q8 -176 129 -298t291 -122q61 0 117.5 19.5t93 46t64.5 53t40 45.5l12 20l52 -41q-6 -8 -16.5 -22.5t-45.5 -49t-76 -61t-106.5 -49t-134.5 -22.5q-195 0 -338.5 149.5t-143.5 362.5q0 211 140.5 361.5t320.5 150.5t315.5 -147.5t135.5 -364.5v-31z
M563.5 942q-155.5 0 -277.5 -126t-122 -294h788q-8 182 -120.5 301t-268 119zM348 1300.5q0 51.5 51.5 51.5t51.5 -51.5t-51.5 -51.5t-51.5 51.5zM676 1300.5q0 51.5 51 51.5t51 -51.5t-51 -51.5t-51 51.5z" />
    <glyph glyph-name="igrave" unicode="&#xec;" horiz-adv-x="450" 
d="M92 1423l154 -256h-51l-175 256h72zM246 983v-983h-62v983h62z" />
    <glyph glyph-name="iacute" unicode="&#xed;" horiz-adv-x="450" 
d="M184 1157l154 256h72l-174 -256h-52zM246 983v-983h-62v983h62z" />
    <glyph glyph-name="icircumflex" unicode="&#xee;" horiz-adv-x="450" 
d="M246 983v-983h-62v983h62zM246 1413l215 -256h-72l-174 205l-174 -205h-72l215 256h62z" />
    <glyph glyph-name="idieresis" unicode="&#xef;" horiz-adv-x="450" 
d="M0 1300.5q0 51.5 51 51.5t51 -51.5t-51 -51.5t-51 51.5zM328 1300.5q0 51.5 51 51.5t51 -51.5t-51 -51.5t-51 51.5zM246 983v-983h-62v983h62z" />
    <glyph glyph-name="eth" unicode="&#xf0;" horiz-adv-x="1167" 
d="M829 1546l-225 -157q16 -10 45 -30t101.5 -90.5t128 -153.5t100.5 -221t45 -290q0 -287 -138 -455.5t-333 -168.5q-178 0 -314.5 142t-136.5 338.5t139.5 344t311.5 147.5q86 0 159.5 -32.5t117.5 -78.5t76 -93.5t44 -79.5l13 -33q-2 137 -45.5 262t-100.5 205
t-115.5 139t-99.5 86l-39 27l-235 -176l-31 51l225 160q-59 37 -127.5 68.5t-107.5 45.5l-41 13l30 51q143 -51 287 -144l236 174zM942 461q0 174 -120 302t-269.5 128t-269 -128t-119.5 -302t116.5 -297t272.5 -123t272.5 123t116.5 297z" />
    <glyph glyph-name="ntilde" unicode="&#xf1;" horiz-adv-x="1177" 
d="M236 983v-205q4 8 11 23.5t35.5 54.5t65.5 68.5t102.5 54.5t143.5 25q164 0 276.5 -119t112.5 -301v-584h-61v584q0 160 -93.5 259t-234.5 99q-156 0 -257 -107.5t-101 -281.5v-553h-62v983h62zM461 1321q-41 0 -61.5 -33t-20.5 -121h-62q0 215 144 215q45 0 83 -23.5
t61.5 -53t55 -53t66.5 -23.5q41 0 61.5 32.5t20.5 120.5h61q0 -215 -143 -215q-45 0 -83 23.5t-61.5 53.5t-55 53.5t-66.5 23.5z" />
    <glyph glyph-name="ograve" unicode="&#xf2;" 
d="M1004 492q0 188 -125 319t-295 131q-172 0 -296 -130t-124 -320.5t124 -320.5t296 -130t296 130.5t124 320.5zM1065 492q0 -213 -143.5 -362.5t-338 -149.5t-338 149.5t-143.5 362.5t143.5 362.5t338 149.5t338 -149.5t143.5 -362.5zM461 1423l153 -256h-51l-174 256h72z
" />
    <glyph glyph-name="oacute" unicode="&#xf3;" 
d="M1004 492q0 188 -125 319t-295 131q-172 0 -296 -130t-124 -320.5t124 -320.5t296 -130t296 130.5t124 320.5zM1065 492q0 -213 -143.5 -362.5t-338 -149.5t-338 149.5t-143.5 362.5t143.5 362.5t338 149.5t338 -149.5t143.5 -362.5zM553 1157l154 256h71l-174 -256h-51z
" />
    <glyph glyph-name="ocircumflex" unicode="&#xf4;" 
d="M1004 492q0 188 -125 319t-295 131q-172 0 -296 -130t-124 -320.5t124 -320.5t296 -130t296 130.5t124 320.5zM1065 492q0 -213 -143.5 -362.5t-338 -149.5t-338 149.5t-143.5 362.5t143.5 362.5t338 149.5t338 -149.5t143.5 -362.5zM614 1413l215 -256h-71l-174 205
l-174 -205h-72l215 256h61z" />
    <glyph glyph-name="otilde" unicode="&#xf5;" 
d="M1004 492q0 188 -125 319t-295 131q-172 0 -296 -130t-124 -320.5t124 -320.5t296 -130t296 130.5t124 320.5zM1065 492q0 -213 -143.5 -362.5t-338 -149.5t-338 149.5t-143.5 362.5t143.5 362.5t338 149.5t338 -149.5t143.5 -362.5zM451 1321q-41 0 -61.5 -33
t-20.5 -121h-62q0 215 144 215q45 0 82.5 -23.5t61 -53t55.5 -53t67 -23.5q41 0 61.5 32.5t20.5 120.5h61q0 -215 -143 -215q-45 0 -83 23.5t-61.5 53.5t-55 53.5t-66.5 23.5z" />
    <glyph glyph-name="odieresis" unicode="&#xf6;" 
d="M1004 492q0 188 -125 319t-295 131q-172 0 -296 -130t-124 -320.5t124 -320.5t296 -130t296 130.5t124 320.5zM1065 492q0 -213 -143.5 -362.5t-338 -149.5t-338 149.5t-143.5 362.5t143.5 362.5t338 149.5t338 -149.5t143.5 -362.5zM358 1300.5q0 51.5 51.5 51.5
t51.5 -51.5t-51.5 -51.5t-51.5 51.5zM686 1300.5q0 51.5 51 51.5t51 -51.5t-51 -51.5t-51 51.5z" />
    <glyph glyph-name="divide" unicode="&#xf7;" horiz-adv-x="1003" 
d="M911 635v-62h-819v62h819zM451 983q0 51 51 51t51 -51t-51 -51t-51 51zM451 225q0 51 51 51t51 -51t-51 -51t-51 51z" />
    <glyph glyph-name="oslash" unicode="&#xf8;" 
d="M1065 492q0 -213 -143.5 -362.5t-337.5 -149.5q-184 0 -324 133l-137 -144l-41 41l139 146q-119 141 -119 336q0 213 143.5 362.5t338.5 149.5q182 0 321 -136l139 146l41 -41l-139 -148q119 -140 119 -333zM164 492q0 -170 100 -293l600 626q-121 117 -280 117
q-172 0 -296 -130t-124 -320zM1004 492q0 164 -101 290l-600 -626q121 -115 281 -115q172 0 296 130.5t124 320.5z" />
    <glyph glyph-name="ugrave" unicode="&#xf9;" 
d="M922 0v205q-4 -8 -11.5 -23.5t-38 -54.5t-67.5 -68.5t-102.5 -54t-139.5 -24.5q-164 0 -276.5 118.5t-112.5 300.5v584h62v-584q0 -160 93 -259t234 -99q147 0 253 109.5t106 269.5v563h61v-983h-61zM461 1423l153 -256h-51l-174 256h72z" />
    <glyph glyph-name="uacute" unicode="&#xfa;" 
d="M922 0v205q-4 -8 -11.5 -23.5t-38 -54.5t-67.5 -68.5t-102.5 -54t-139.5 -24.5q-164 0 -276.5 118.5t-112.5 300.5v584h62v-584q0 -160 93 -259t234 -99q147 0 253 109.5t106 269.5v563h61v-983h-61zM543 1157l153 256h72l-174 -256h-51z" />
    <glyph glyph-name="ucircumflex" unicode="&#xfb;" 
d="M922 0v205q-4 -8 -11.5 -23.5t-38 -54.5t-67.5 -68.5t-102.5 -54t-139.5 -24.5q-164 0 -276.5 118.5t-112.5 300.5v584h62v-584q0 -160 93 -259t234 -99q147 0 253 109.5t106 269.5v563h61v-983h-61zM614 1413l215 -256h-71l-174 205l-174 -205h-72l215 256h61z" />
    <glyph glyph-name="udieresis" unicode="&#xfc;" 
d="M922 0v205q-4 -8 -11.5 -23.5t-38 -54.5t-67.5 -68.5t-102.5 -54t-139.5 -24.5q-164 0 -276.5 118.5t-112.5 300.5v584h62v-584q0 -160 93 -259t234 -99q147 0 253 109.5t106 269.5v563h61v-983h-61zM358 1290q0 51 51.5 51t51.5 -51t-51.5 -51t-51.5 51zM686 1290
q0 51 51 51t51 -51t-51 -51t-51 51z" />
    <glyph glyph-name="yacute" unicode="&#xfd;" horiz-adv-x="962" 
d="M358 -205l82 205l-399 983h61l369 -901l369 901h61l-481 -1188q-47 -119 -106.5 -172t-149.5 -53q-23 0 -43.5 5t-30.5 11l-8 4v62q31 -20 82 -21q128 0 194 164zM461 1157l153 256h72l-174 -256h-51z" />
    <glyph glyph-name="thorn" unicode="&#xfe;" horiz-adv-x="1218" 
d="M246 246v-676h-62v1864h62v-697q4 10 14 28.5t46 65t79 81t112.5 63.5t147.5 29q174 0 312.5 -152t138.5 -360.5t-138.5 -360t-312.5 -151.5q-78 0 -147.5 27.5t-113.5 66.5t-77 77.5t-47 65.5zM645 41q152 0 270.5 132t118.5 318.5t-118.5 318.5t-270.5 132
q-158 0 -278.5 -131t-120.5 -319.5t120.5 -319.5t278.5 -131z" />
    <glyph glyph-name="ydieresis" unicode="&#xff;" horiz-adv-x="962" 
d="M358 -205l82 205l-399 983h61l369 -901l369 901h61l-481 -1188q-47 -119 -106.5 -172t-149.5 -53q-23 0 -43.5 5t-30.5 11l-8 4v62q31 -20 82 -21q128 0 194 164zM256 1300.5q0 51.5 51 51.5t51 -51.5t-51 -51.5t-51 51.5zM584 1300.5q0 51.5 51 51.5t51 -51.5t-51 -51.5
t-51 51.5z" />
    <glyph glyph-name="Amacron" unicode="&#x100;" horiz-adv-x="1372" 
d="M1044 502l-358 860l-358 -860h716zM1065 440h-758l-184 -440h-62l594 1434h62l594 -1434h-62zM952 1792v-61h-532v61h532z" />
    <glyph glyph-name="amacron" unicode="&#x101;" horiz-adv-x="1034" 
d="M379 543l399 71v11q0 145 -83 231t-214 86q-86 0 -160.5 -39t-105.5 -76l-31 -39l-41 41q4 6 13.5 18.5t41 42.5t67.5 53.5t94.5 42t121.5 18.5q156 0 257.5 -105.5t101.5 -273.5v-625h-62v205q-4 -8 -12 -23.5t-40 -54.5t-70 -68.5t-104.5 -54t-141.5 -24.5
q-141 0 -234.5 82.5t-93.5 193.5q0 234 297 287zM410 39q154 0 261 110.5t107 270.5v133l-399 -72q-115 -20 -175.5 -79.5t-60.5 -145.5q0 -88 74 -152.5t193 -64.5zM788 1341v-61h-532v61h532z" />
    <glyph glyph-name="Abreve" unicode="&#x102;" horiz-adv-x="1372" 
d="M1044 502l-358 860l-358 -860h716zM1065 440h-758l-184 -440h-62l594 1434h62l594 -1434h-62zM686 1690q92 0 143.5 51t51.5 143h61q0 -115 -70.5 -185.5t-185.5 -70.5t-185.5 70.5t-70.5 185.5h62q0 -92 51 -143t143 -51z" />
    <glyph glyph-name="abreve" unicode="&#x103;" horiz-adv-x="1034" 
d="M379 543l399 71v11q0 145 -83 231t-214 86q-86 0 -160.5 -39t-105.5 -76l-31 -39l-41 41q4 6 13.5 18.5t41 42.5t67.5 53.5t94.5 42t121.5 18.5q156 0 257.5 -105.5t101.5 -273.5v-625h-62v205q-4 -8 -12 -23.5t-40 -54.5t-70 -68.5t-104.5 -54t-141.5 -24.5
q-141 0 -234.5 82.5t-93.5 193.5q0 234 297 287zM410 39q154 0 261 110.5t107 270.5v133l-399 -72q-115 -20 -175.5 -79.5t-60.5 -145.5q0 -88 74 -152.5t193 -64.5zM512 1219q92 0 143.5 51t51.5 143h61q0 -115 -70.5 -185.5t-185.5 -70.5t-185.5 70.5t-70.5 185.5h61
q0 -92 51.5 -143t143.5 -51z" />
    <glyph glyph-name="Aogonek" unicode="&#x104;" horiz-adv-x="1372" 
d="M1260 0h-11l-184 440h-758l-184 -440h-62l594 1434h62l594 -1434q-16 -14 -40 -40t-64 -91.5t-40 -114.5q0 -47 35 -79.5t88 -32.5q33 0 63.5 10t45.5 20l14 11v-52q-51 -41 -123 -41q-76 0 -125 47.5t-49 116.5q0 59 36 121t73 92zM1044 502l-358 860l-358 -860h716z
" />
    <glyph glyph-name="aogonek" unicode="&#x105;" horiz-adv-x="1034" 
d="M840 0h-11q-16 -14 -39.5 -40t-63.5 -91.5t-40 -114.5q0 -47 35 -79.5t88 -32.5q33 0 63.5 10t45.5 20l14 11v-52q-51 -41 -123 -41q-76 0 -125 47.5t-49 116.5q0 59 36 121t70 92l37 33v205q-4 -8 -12 -23.5t-40 -54.5t-70 -68.5t-104.5 -54t-141.5 -24.5
q-141 0 -234.5 82.5t-93.5 193.5q0 233 297 287l399 71v11q0 145 -83 231t-214 86q-86 0 -160.5 -39t-105.5 -76l-31 -39l-41 41q4 6 13.5 18.5t41 42.5t67.5 53.5t94.5 42t121.5 18.5q156 0 257.5 -105.5t101.5 -273.5v-625zM410 39q154 0 261 110.5t107 270.5v133
l-399 -72q-115 -20 -175.5 -79.5t-60.5 -145.5q0 -88 74 -152.5t193 -64.5z" />
    <glyph glyph-name="Cacute" unicode="&#x106;" horiz-adv-x="1525" 
d="M123 717q0 305 212 521t505 216q109 0 210 -31.5t167.5 -77t117.5 -90.5t74 -75l25 -33l-52 -41q-8 12 -22 31.5t-65.5 68.5t-109 87t-151.5 69t-194 31q-270 0 -463 -197t-193 -479.5t192.5 -479t463.5 -196.5q100 0 193 29.5t153.5 71.5t106.5 84t67 73l22 29l52 -41
q-8 -12 -24.5 -33t-73 -74t-120 -94t-166 -73.5t-210.5 -32.5q-293 0 -505 216t-212 521zM809 1628l154 256h71l-174 -256h-51z" />
    <glyph glyph-name="cacute" unicode="&#x107;" horiz-adv-x="1064" 
d="M164 491.5q0 -190.5 124 -320.5t296 -130q59 0 115.5 19.5t93 46t64.5 53t40 45.5l14 20l52 -41q-6 -8 -16.5 -22.5t-46.5 -49t-77 -61t-105.5 -49t-133.5 -22.5q-195 0 -338.5 149.5t-143.5 362.5t143.5 362.5t338.5 149.5q70 0 133 -21.5t106 -51.5t76 -59.5t47 -52.5
l17 -20l-52 -41q-4 8 -13 20.5t-40 44t-65.5 56t-92 44t-116.5 19.5q-172 0 -296 -130t-124 -320.5zM553 1157l154 256h71l-174 -256h-51z" />
    <glyph glyph-name="Ccircumflex" unicode="&#x108;" horiz-adv-x="1525" 
d="M123 717q0 305 212 521t505 216q109 0 210 -31.5t167.5 -77t117.5 -90.5t74 -75l25 -33l-52 -41q-8 12 -22 31.5t-65.5 68.5t-109 87t-151.5 69t-194 31q-270 0 -463 -197t-193 -479.5t192.5 -479t463.5 -196.5q100 0 193 29.5t153.5 71.5t106.5 84t67 73l22 29l52 -41
q-8 -12 -24.5 -33t-73 -74t-120 -94t-166 -73.5t-210.5 -32.5q-293 0 -505 216t-212 521zM870 1884l215 -256h-71l-174 205l-174 -205h-72l215 256h61z" />
    <glyph glyph-name="ccircumflex" unicode="&#x109;" horiz-adv-x="1064" 
d="M164 491.5q0 -190.5 124 -320.5t296 -130q59 0 115.5 19.5t93 46t64.5 53t40 45.5l14 20l52 -41q-6 -8 -16.5 -22.5t-46.5 -49t-77 -61t-105.5 -49t-133.5 -22.5q-195 0 -338.5 149.5t-143.5 362.5t143.5 362.5t338.5 149.5q70 0 133 -21.5t106 -51.5t76 -59.5t47 -52.5
l17 -20l-52 -41q-4 8 -13 20.5t-40 44t-65.5 56t-92 44t-116.5 19.5q-172 0 -296 -130t-124 -320.5zM604 1413l215 -256h-71l-175 205l-174 -205h-71l215 256h61z" />
    <glyph glyph-name="Ccaron" unicode="&#x10c;" horiz-adv-x="1525" 
d="M123 717q0 305 212 521t505 216q109 0 210 -31.5t167.5 -77t117.5 -90.5t74 -75l25 -33l-52 -41q-8 12 -22 31.5t-65.5 68.5t-109 87t-151.5 69t-194 31q-270 0 -463 -197t-193 -479.5t192.5 -479t463.5 -196.5q100 0 193 29.5t153.5 71.5t106.5 84t67 73l22 29l52 -41
q-8 -12 -24.5 -33t-73 -74t-120 -94t-166 -73.5t-210.5 -32.5q-293 0 -505 216t-212 521zM1085 1884l-215 -256h-61l-215 256h72l174 -205l174 205h71z" />
    <glyph glyph-name="ccaron" unicode="&#x10d;" horiz-adv-x="1064" 
d="M164 491.5q0 -190.5 124 -320.5t296 -130q59 0 115.5 19.5t93 46t64.5 53t40 45.5l14 20l52 -41q-6 -8 -16.5 -22.5t-46.5 -49t-77 -61t-105.5 -49t-133.5 -22.5q-195 0 -338.5 149.5t-143.5 362.5t143.5 362.5t338.5 149.5q70 0 133 -21.5t106 -51.5t76 -59.5t47 -52.5
l17 -20l-52 -41q-4 8 -13 20.5t-40 44t-65.5 56t-92 44t-116.5 19.5q-172 0 -296 -130t-124 -320.5zM819 1413l-215 -256h-61l-215 256h71l174 -205l175 205h71z" />
    <glyph glyph-name="Dcaron" unicode="&#x10e;" horiz-adv-x="1495" 
d="M236 1434h389q328 0 537.5 -204t209.5 -513t-210 -513t-537 -204h-389v1434zM625 1372h-328v-1311h328q305 0 495.5 184.5t190.5 471.5t-190.5 471t-495.5 184zM969 1884l-215 -256h-62l-215 256h72l174 -205l174 205h72z" />
    <glyph glyph-name="dcaron" unicode="&#x10f;" horiz-adv-x="1280" 
d="M952 737v697h62v-1434h-62v246q-4 -10 -14 -28.5t-46 -65t-79 -81t-112.5 -63t-147.5 -28.5q-174 0 -312.5 151.5t-138.5 360t138.5 360.5t312.5 152q78 0 147.5 -28t113.5 -67t77 -77.5t47 -65.5zM553 942q-152 0 -270.5 -132t-118.5 -318.5t118.5 -318.5t270.5 -132
q158 0 278.5 131t120.5 319.5t-120.5 319.5t-278.5 131zM1178 1167l92 267h71l-112 -267h-51z" />
    <glyph glyph-name="Dcroat" unicode="&#x110;" horiz-adv-x="1525" 
d="M266 1434h389q328 0 538 -204t210 -513t-210 -513t-538 -204h-389v686h-215v62h215v686zM655 1372h-327v-624h368v-62h-368v-625h327q305 0 495.5 184.5t190.5 471.5t-190.5 471t-495.5 184z" />
    <glyph glyph-name="dcroat" unicode="&#x111;" horiz-adv-x="1239" 
d="M645 1219h307v215h62v-215h164v-62h-164v-1157h-62v236q-4 -10 -14 -28t-46 -62t-79 -77.5t-112.5 -61t-147.5 -27.5q-172 0 -311.5 147t-139.5 344t139.5 344.5t311.5 147.5q78 0 147.5 -27t113.5 -63.5t77 -74.5t47 -65l14 -26v450h-307v62zM553 901
q-150 0 -269.5 -128t-119.5 -302t119.5 -302t269.5 -128q156 0 277.5 128t121.5 302t-121.5 302t-277.5 128z" />
    <glyph glyph-name="Emacron" unicode="&#x112;" horiz-adv-x="1280" 
d="M297 61h901v-61h-962v1434h942v-62h-881v-594h717v-61h-717v-656zM983 1792v-61h-532v61h532z" />
    <glyph glyph-name="emacron" unicode="&#x113;" horiz-adv-x="1126" 
d="M1014 461h-850q8 -176 129 -298t291 -122q61 0 117.5 19.5t93 46t64.5 53t40 45.5l12 20l52 -41q-6 -8 -16.5 -22.5t-45.5 -49t-76 -61t-106.5 -49t-134.5 -22.5q-195 0 -338.5 149.5t-143.5 362.5q0 211 140.5 361.5t320.5 150.5t315.5 -147.5t135.5 -364.5v-31z
M563.5 942q-155.5 0 -277.5 -126t-122 -294h788q-8 182 -120.5 301t-268 119zM840 1321v-61h-533v61h533z" />
    <glyph glyph-name="Edotaccent" unicode="&#x116;" horiz-adv-x="1280" 
d="M297 61h901v-61h-962v1434h942v-62h-881v-594h717v-61h-717v-656zM655 1761q0 51 51.5 51t51.5 -51t-51 -51q-23 0 -37.5 15.5t-14.5 35.5z" />
    <glyph glyph-name="edotaccent" unicode="&#x117;" horiz-adv-x="1126" 
d="M1014 461h-850q8 -176 129 -298t291 -122q61 0 117.5 19.5t93 46t64.5 53t40 45.5l12 20l52 -41q-6 -8 -16.5 -22.5t-45.5 -49t-76 -61t-106.5 -49t-134.5 -22.5q-195 0 -338.5 149.5t-143.5 362.5q0 211 140.5 361.5t320.5 150.5t315.5 -147.5t135.5 -364.5v-31z
M563.5 942q-155.5 0 -277.5 -126t-122 -294h788q-8 182 -120.5 301t-268 119zM522 1290q0 51 51.5 51t51.5 -51t-52 -51q-23 0 -37 15.5t-14 35.5z" />
    <glyph glyph-name="Eogonek" unicode="&#x118;" horiz-adv-x="1280" 
d="M1147 0h-911v1434h942v-62h-881v-594h717v-61h-717v-656h901v-61q-16 -14 -39.5 -40t-63.5 -91.5t-40 -114.5q0 -47 34.5 -79.5t88.5 -32.5q33 0 63.5 10t44.5 20l14 11v-52q-51 -41 -122 -41q-76 0 -125 47.5t-49 116.5q0 59 35.5 121t70.5 92z" />
    <glyph glyph-name="eogonek" unicode="&#x119;" horiz-adv-x="1126" 
d="M1014 461h-850q8 -176 129 -298t291 -122q61 0 117.5 19.5t93 46t64.5 53t40 45.5l12 20l52 -41q-4 -8 -14.5 -20t-43.5 -45t-69.5 -59.5t-97 -50t-124.5 -27.5q-123 -123 -122 -228q0 -47 34.5 -79.5t87.5 -32.5q33 0 64 10t45 20l14 11v-52q-51 -41 -123 -41
q-76 0 -125 47.5t-49 116.5q0 113 119 226q-186 10 -321.5 157.5t-135.5 354.5q0 211 140.5 361.5t320.5 150.5t315.5 -147.5t135.5 -364.5v-31zM563.5 942q-155.5 0 -277.5 -126t-122 -294h788q-8 182 -120.5 301t-268 119z" />
    <glyph glyph-name="Ecaron" unicode="&#x11a;" horiz-adv-x="1280" 
d="M297 61h901v-61h-962v1434h942v-62h-881v-594h717v-61h-717v-656zM952 1874l-215 -256h-61l-215 256h71l175 -205l174 205h71z" />
    <glyph glyph-name="ecaron" unicode="&#x11b;" horiz-adv-x="1126" 
d="M1014 461h-850q8 -176 129 -298t291 -122q61 0 117.5 19.5t93 46t64.5 53t40 45.5l12 20l52 -41q-6 -8 -16.5 -22.5t-45.5 -49t-76 -61t-106.5 -49t-134.5 -22.5q-195 0 -338.5 149.5t-143.5 362.5q0 211 140.5 361.5t320.5 150.5t315.5 -147.5t135.5 -364.5v-31z
M563.5 942q-155.5 0 -277.5 -126t-122 -294h788q-8 182 -120.5 301t-268 119zM809 1413l-215 -256h-62l-215 256h72l174 -205l174 205h72z" />
    <glyph glyph-name="Gbreve" unicode="&#x11e;" horiz-adv-x="1607" 
d="M1434 1147l-52 -41q-8 12 -22 31.5t-65.5 68.5t-109 87t-151.5 69t-194 31q-270 0 -463 -197t-193 -479.5t191.5 -479t464.5 -196.5q100 0 193 28.5t153.5 68.5t106.5 81t67 70l22 28v328h-409v62h471v-410q-8 -12 -25.5 -33.5t-75 -77t-123 -96.5t-169 -75.5
t-211.5 -34.5q-295 0 -506 216t-211 521t212 521t505 216q109 0 210 -31.5t167.5 -77t117.5 -90.5t74 -75zM829.5 1690q92.5 0 143.5 51t51 143h61q0 -115 -70.5 -185.5t-185 -70.5t-185.5 70.5t-71 185.5h62q0 -92 51 -143t143.5 -51z" />
    <glyph glyph-name="gbreve" unicode="&#x11f;" 
d="M164 512q0 -180 114.5 -305t264 -125t269.5 128t120 302t-120 302t-269.5 128t-264 -125t-114.5 -305zM932 61v215q-4 -10 -13.5 -27.5t-44 -61.5t-75.5 -77.5t-109.5 -61.5t-146.5 -28q-172 0 -306.5 144.5t-134.5 347.5t134.5 347.5t306.5 144.5q78 0 146.5 -27
t110.5 -63.5t73.5 -74.5t44.5 -65l14 -26v235h61v-922q0 -211 -131 -351t-319 -140q-72 0 -136.5 21.5t-107.5 51t-74.5 59.5t-46.5 52l-14 21l41 41q4 -8 13 -20.5t42 -44.5t69 -56.5t94 -44t120 -19.5q164 0 276.5 122t112.5 308zM594 1219q92 0 143 51t51 143h62
q0 -115 -70.5 -185.5t-185.5 -70.5t-185.5 70.5t-70.5 185.5h61q0 -92 51.5 -143t143.5 -51z" />
    <glyph glyph-name="uni0122" unicode="&#x122;" horiz-adv-x="1607" 
d="M1434 1147l-52 -41q-8 12 -22 31.5t-65.5 68.5t-109 87t-151.5 69t-194 31q-270 0 -463 -197t-193 -479.5t191.5 -479t464.5 -196.5q100 0 193 28.5t153.5 68.5t106.5 81t67 70l22 28v328h-409v62h471v-410q-8 -12 -25.5 -33.5t-75 -77t-123 -96.5t-169 -75.5
t-211.5 -34.5q-295 0 -506 216t-211 521t212 521t505 216q109 0 210 -31.5t167.5 -77t117.5 -90.5t74 -75zM717 -430l92 266h72l-113 -266h-51z" />
    <glyph glyph-name="uni0123" unicode="&#x123;" 
d="M164 512q0 -180 114.5 -305t264 -125t269.5 128t120 302t-120 302t-269.5 128t-264 -125t-114.5 -305zM932 61v215q-4 -10 -13.5 -27.5t-44 -61.5t-75.5 -77.5t-109.5 -61.5t-146.5 -28q-172 0 -306.5 144.5t-134.5 347.5t134.5 347.5t306.5 144.5q78 0 146.5 -27
t110.5 -63.5t73.5 -74.5t44.5 -65l14 -26v235h61v-922q0 -211 -131 -351t-319 -140q-72 0 -136.5 21.5t-107.5 51t-74.5 59.5t-46.5 52l-14 21l41 41q4 -8 13 -20.5t42 -44.5t69 -56.5t94 -44t120 -19.5q164 0 276.5 122t112.5 308zM696 1413l-92 -266h-72l113 266h51z" />
    <glyph glyph-name="Imacron" unicode="&#x12a;" horiz-adv-x="532" 
d="M236 0v1434h61v-1434h-61zM532 1792v-61h-532v61h532z" />
    <glyph glyph-name="imacron" unicode="&#x12b;" horiz-adv-x="450" 
d="M481 1321v-61h-532v61h532zM246 983v-983h-62v983h62z" />
    <glyph glyph-name="Iogonek" unicode="&#x12e;" horiz-adv-x="532" 
d="M236 0v1434h61v-1434q-16 -14 -40 -40t-63.5 -91.5t-39.5 -114.5q0 -47 34.5 -79.5t87.5 -32.5q33 0 64 10t45 20l14 11v-52q-51 -41 -123 -41q-76 0 -125 47.5t-49 116.5q0 59 36 121t71 92l37 33h-10z" />
    <glyph glyph-name="iogonek" unicode="&#x12f;" horiz-adv-x="450" 
d="M184 0v983h62v-983q-16 -14 -40 -40t-64 -91.5t-40 -114.5q0 -47 35 -79.5t88 -32.5q33 0 63.5 10t45.5 20l14 11v-52q-51 -41 -123 -41q-76 0 -125 47.5t-49 116.5q0 59 36 121t73 92l35 33h-11zM266 1341.5q0 -51.5 -51 -51.5t-51 51.5t51 51.5t51 -51.5z" />
    <glyph glyph-name="Idotaccent" unicode="&#x130;" horiz-adv-x="532" 
d="M236 0v1434h61v-1434h-61zM215 1761q0 51 51 51t51 -51t-51 -51q-23 0 -37 15.5t-14 35.5z" />
    <glyph glyph-name="dotlessi" unicode="&#x131;" horiz-adv-x="450" 
d="M246 983v-983h-62v983h62z" />
    <glyph glyph-name="uni0136" unicode="&#x136;" horiz-adv-x="1320" 
d="M297 492l850 942h82l-533 -594l584 -840h-72l-553 799l-358 -389v-410h-61v1434h61v-942zM594 -430l92 266h72l-113 -266h-51z" />
    <glyph glyph-name="uni0137" unicode="&#x137;" horiz-adv-x="1013" 
d="M246 256v-256h-62v1434h62v-1096l583 645h82l-368 -399l420 -584h-72l-379 532h-10zM430 -430l92 266h72l-113 -266h-51z" />
    <glyph glyph-name="Lacute" unicode="&#x139;" horiz-adv-x="1126" 
d="M1085 0h-849v1434h61v-1373h788v-61zM246 1628l153 256h72l-174 -256h-51z" />
    <glyph glyph-name="lacute" unicode="&#x13a;" horiz-adv-x="460" 
d="M246 1434v-1434h-62v1434h62zM195 1628l153 256h72l-174 -256h-51z" />
    <glyph glyph-name="uni013B" unicode="&#x13b;" horiz-adv-x="1126" 
d="M1085 0h-849v1434h61v-1373h788v-61zM563 -430l92 266h72l-113 -266h-51z" />
    <glyph glyph-name="uni013C" unicode="&#x13c;" horiz-adv-x="460" 
d="M246 1434v-1434h-62v1434h62zM92 -430l92 266h72l-113 -266h-51z" />
    <glyph glyph-name="Lcaron" unicode="&#x13d;" horiz-adv-x="1126" 
d="M1085 0h-849v1434h61v-1373h788v-61zM563 1167l92 267h72l-113 -267h-51z" />
    <glyph glyph-name="lcaron" unicode="&#x13e;" horiz-adv-x="501" 
d="M246 1434v-1434h-62v1434h62zM399 1167l93 267h71l-112 -267h-52z" />
    <glyph glyph-name="Lslash" unicode="&#x141;" horiz-adv-x="1198" 
d="M1157 0h-850v645l-235 -143l-31 51l266 164v717h62v-686l338 204l30 -51l-368 -225v-615h788v-61z" />
    <glyph glyph-name="lslash" unicode="&#x142;" horiz-adv-x="665" 
d="M348 1434v-615l266 164l31 -51l-297 -174v-758h-61v717l-256 -164l-31 51l287 184v646h61z" />
    <glyph glyph-name="Nacute" unicode="&#x143;" horiz-adv-x="1576" 
d="M1280 1434h61v-1434h-51l-993 1321v-1321h-61v1434h51l993 -1321v1321zM768 1628l154 256h71l-174 -256h-51z" />
    <glyph glyph-name="nacute" unicode="&#x144;" horiz-adv-x="1177" 
d="M236 983v-205q4 8 11 23.5t35.5 54.5t65.5 68.5t102.5 54.5t143.5 25q164 0 276.5 -119t112.5 -301v-584h-61v584q0 160 -93.5 259t-234.5 99q-156 0 -257 -107.5t-101 -281.5v-553h-62v983h62zM563 1157l154 256h71l-174 -256h-51z" />
    <glyph glyph-name="uni0145" unicode="&#x145;" horiz-adv-x="1576" 
d="M1280 1434h61v-1434h-51l-993 1321v-1321h-61v1434h51l993 -1321v1321zM676 -430l92 266h72l-113 -266h-51z" />
    <glyph glyph-name="uni0146" unicode="&#x146;" horiz-adv-x="1177" 
d="M236 983v-205q4 8 11 23.5t35.5 54.5t65.5 68.5t102.5 54.5t143.5 25q164 0 276.5 -119t112.5 -301v-584h-61v584q0 160 -93.5 259t-234.5 99q-156 0 -257 -107.5t-101 -281.5v-553h-62v983h62zM471 -430l92 266h72l-113 -266h-51z" />
    <glyph glyph-name="Ncaron" unicode="&#x147;" horiz-adv-x="1576" 
d="M1280 1434h61v-1434h-51l-993 1321v-1321h-61v1434h51l993 -1321v1321zM1034 1874l-215 -256h-61l-215 256h71l174 -205l175 205h71z" />
    <glyph glyph-name="ncaron" unicode="&#x148;" horiz-adv-x="1177" 
d="M236 983v-205q4 8 11 23.5t35.5 54.5t65.5 68.5t102.5 54.5t143.5 25q164 0 276.5 -119t112.5 -301v-584h-61v584q0 160 -93.5 259t-234.5 99q-156 0 -257 -107.5t-101 -281.5v-553h-62v983h62zM829 1413l-215 -256h-61l-215 256h72l174 -205l174 205h71z" />
    <glyph glyph-name="Omacron" unicode="&#x14c;" horiz-adv-x="1679" 
d="M1495 716.5q0 282.5 -192.5 479.5t-463 197t-463 -197t-192.5 -479.5t192.5 -479t463 -196.5t463 196.5t192.5 479zM1556 717q0 -305 -211.5 -521t-504.5 -216t-505 216t-212 521t212 521t505 216t504.5 -216t211.5 -521zM1116 1792v-61h-532v61h532z" />
    <glyph glyph-name="omacron" unicode="&#x14d;" 
d="M1004 492q0 188 -125 319t-295 131q-172 0 -296 -130t-124 -320.5t124 -320.5t296 -130t296 130.5t124 320.5zM1065 492q0 -213 -143.5 -362.5t-338 -149.5t-338 149.5t-143.5 362.5t143.5 362.5t338 149.5t338 -149.5t143.5 -362.5zM850 1321v-61h-533v61h533z" />
    <glyph glyph-name="Ohungarumlaut" unicode="&#x150;" horiz-adv-x="1679" 
d="M1495 716.5q0 282.5 -192.5 479.5t-463 197t-463 -197t-192.5 -479.5t192.5 -479t463 -196.5t463 196.5t192.5 479zM1556 717q0 -305 -211.5 -521t-504.5 -216t-505 216t-212 521t212 521t505 216t504.5 -216t211.5 -521zM676 1618l153 256h72l-174 -256h-51zM952 1618
l154 256h72l-174 -256h-52z" />
    <glyph glyph-name="ohungarumlaut" unicode="&#x151;" 
d="M1004 492q0 188 -125 319t-295 131q-172 0 -296 -130t-124 -320.5t124 -320.5t296 -130t296 130.5t124 320.5zM1065 492q0 -213 -143.5 -362.5t-338 -149.5t-338 149.5t-143.5 362.5t143.5 362.5t338 149.5t338 -149.5t143.5 -362.5zM430 1157l154 256h71l-174 -256h-51z
M707 1157l153 256h72l-174 -256h-51z" />
    <glyph glyph-name="OE" unicode="&#x152;" horiz-adv-x="2007" 
d="M1137 61h788v-61h-1055q-328 0 -537.5 204t-209.5 513t210 513t537 204h1035v-62h-768v-594h604v-61h-604v-656zM870 61h205v1311h-205q-305 0 -495.5 -184t-190.5 -471t190.5 -471.5t495.5 -184.5z" />
    <glyph glyph-name="oe" unicode="&#x153;" horiz-adv-x="1914" 
d="M1802 461h-798q8 -174 124.5 -297t264.5 -123q61 0 115.5 19.5t88 46t58 53t35.5 45.5l10 20l51 -41q-4 -8 -13 -22.5t-41 -49t-70 -61t-101.5 -49t-132.5 -22.5q-84 0 -158 33.5t-120 81.5t-80 96.5t-48 82.5l-14 33q-4 -14 -14.5 -35.5t-48.5 -78t-82 -99.5
t-117.5 -78.5t-157.5 -35.5q-174 0 -312.5 151.5t-138.5 360t138.5 360.5t312.5 152q84 0 157.5 -34t120 -82t80 -96.5t47.5 -82.5l15 -33q4 14 14 35.5t46 78t79 99.5t112.5 79t147.5 36q168 0 299 -148.5t131 -363.5v-31zM553 41q147 0 268 132t121 318.5t-118.5 318.5
t-270.5 132t-270.5 -132t-118.5 -318.5t118.5 -318.5t270.5 -132zM1372 942q-135 0 -251.5 -128t-116.5 -292h737q-8 180 -118 300t-251 120z" />
    <glyph glyph-name="Racute" unicode="&#x154;" horiz-adv-x="1341" 
d="M236 1434h522q190 0 310 -116t120 -294q0 -98 -34 -175t-82 -117t-96 -66.5t-83 -34.5l-33 -6l359 -625h-72l-348 614h-502v-614h-61v1434zM758 1372h-461v-696h461q168 0 268 96t100 252t-100 252t-268 96zM666 1628l153 256h72l-174 -256h-51z" />
    <glyph glyph-name="racute" unicode="&#x155;" horiz-adv-x="686" 
d="M635 942h-41q-156 0 -257 -107.5t-101 -281.5v-553h-62v983h62v-205q4 8 11 23.5t35.5 54.5t65.5 68.5t102.5 54.5t143.5 25h41v-62zM379 1157l153 256h72l-174 -256h-51z" />
    <glyph glyph-name="uni0156" unicode="&#x156;" horiz-adv-x="1341" 
d="M236 1434h522q190 0 310 -116t120 -294q0 -98 -34 -175t-82 -117t-96 -66.5t-83 -34.5l-33 -6l359 -625h-72l-348 614h-502v-614h-61v1434zM758 1372h-461v-696h461q168 0 268 96t100 252t-100 252t-268 96zM573 -430l93 266h71l-112 -266h-52z" />
    <glyph glyph-name="uni0157" unicode="&#x157;" horiz-adv-x="686" 
d="M635 942h-41q-156 0 -257 -107.5t-101 -281.5v-553h-62v983h62v-205q4 8 11 23.5t35.5 54.5t65.5 68.5t102.5 54.5t143.5 25h41v-62zM82 -430l92 266h72l-113 -266h-51z" />
    <glyph glyph-name="Rcaron" unicode="&#x158;" horiz-adv-x="1341" 
d="M236 1434h522q190 0 310 -116t120 -294q0 -98 -34 -175t-82 -117t-96 -66.5t-83 -34.5l-33 -6l359 -625h-72l-348 614h-502v-614h-61v1434zM758 1372h-461v-696h461q168 0 268 96t100 252t-100 252t-268 96zM932 1874l-215 -256h-62l-215 256h72l174 -205l174 205h72z
" />
    <glyph glyph-name="rcaron" unicode="&#x159;" horiz-adv-x="686" 
d="M635 942h-41q-156 0 -257 -107.5t-101 -281.5v-553h-62v983h62v-205q4 8 11 23.5t35.5 54.5t65.5 68.5t102.5 54.5t143.5 25h41v-62zM635 1413l-215 -256h-62l-215 256h72l174 -205l174 205h72z" />
    <glyph glyph-name="Sacute" unicode="&#x15a;" horiz-adv-x="1126" 
d="M942 379q0 86 -45 147.5t-115.5 95t-156.5 59.5t-173 54.5t-158 66.5t-116 106.5t-45 166.5q0 158 125 268.5t326 110.5q72 0 139.5 -18.5t112.5 -43t79.5 -50t51.5 -44.5l16 -18l-51 -51q-4 6 -13.5 17t-42 40t-69.5 50.5t-97.5 39t-125.5 17.5q-178 0 -283.5 -91.5
t-105.5 -226.5q0 -84 45 -143.5t115.5 -92t157.5 -58t173 -54.5t156.5 -67.5t116 -109.5t45.5 -171q0 -166 -129.5 -282.5t-331.5 -116.5q-84 0 -161 21.5t-126 51t-85 59t-52 52.5l-17 20l52 52q4 -8 13 -21.5t44 -46.5t76 -58.5t109.5 -47t146.5 -21.5q180 0 289.5 97.5
t109.5 240.5zM543 1628l153 256h72l-174 -256h-51z" />
    <glyph glyph-name="sacute" unicode="&#x15b;" horiz-adv-x="880" 
d="M737 860l-51 -51q-10 14 -29.5 36.5t-86 59.5t-140.5 37q-104 0 -175 -62.5t-71 -142.5q0 -70 59.5 -113.5t143.5 -66t168 -49.5t143.5 -84t59.5 -148q0 -125 -94.5 -210.5t-243.5 -85.5q-96 0 -180 40.5t-121 81.5l-37 41l51 52q4 -6 12.5 -16.5t36 -37t58 -47t80 -37
t100.5 -16.5q127 0 201.5 66.5t74.5 168.5q0 74 -59 119t-143 68.5t-168 49.5t-143.5 81t-59.5 143q0 102 90 184.5t217 82.5q86 0 163 -36t112 -71zM410 1157l153 256h72l-174 -256h-51z" />
    <glyph glyph-name="Scedilla" unicode="&#x15e;" horiz-adv-x="1126" 
d="M942 379q0 86 -45 147.5t-115.5 95t-156.5 59.5t-173 54.5t-158 66.5t-116 106.5t-45 166.5q0 158 125 268.5t326 110.5q72 0 139.5 -18.5t112.5 -43t79.5 -50t51.5 -44.5l16 -18l-51 -51q-4 6 -13.5 17t-42 40t-69.5 50.5t-97.5 39t-125.5 17.5q-178 0 -283.5 -91.5
t-105.5 -226.5q0 -84 45 -143.5t115.5 -92t157.5 -58t173 -54.5t156.5 -67.5t116 -109.5t45.5 -171q0 -158 -117 -271.5t-303 -125.5l-52 -105q20 10 52 10q61 0 102 -41t41 -102q0 -63 -49 -108.5t-125 -45.5q-37 0 -76 12.5t-59 24.5l-19 15l31 41q51 -41 123 -41
q51 0 87 31.5t36 70.5t-26.5 65.5t-65.5 26.5q-18 0 -36 -5t-28 -11l-8 -4l-41 41l61 123q-84 2 -158.5 23.5t-121.5 51t-83 59t-50 50.5l-17 20l52 52q4 -8 13 -21.5t44 -46.5t76 -58.5t109.5 -47t146.5 -21.5q180 0 289.5 97.5t109.5 240.5z" />
    <glyph glyph-name="scedilla" unicode="&#x15f;" horiz-adv-x="880" 
d="M737 860l-51 -51q-10 14 -29.5 36.5t-86 59.5t-140.5 37q-104 0 -175 -62.5t-71 -142.5q0 -70 59.5 -113.5t143.5 -66t168 -49.5t143.5 -84t59.5 -148q0 -119 -85 -202.5t-222 -91.5l-52 -105q20 10 52 10q61 0 102 -41t41 -102q0 -63 -49 -108.5t-125 -45.5
q-37 0 -76 12.5t-57 24.5l-21 15l31 41q51 -41 123 -41q51 0 87 31.5t36 70.5t-27 65.5t-65 26.5q-18 0 -36 -5t-26 -11l-10 -4l-41 41l61 123q-90 4 -168.5 45t-113.5 79l-35 39l51 52q4 -6 12.5 -16.5t36 -37t58 -47t80 -37t100.5 -16.5q127 0 201.5 66.5t74.5 168.5
q0 74 -59 119t-143 68.5t-168 49.5t-143.5 81t-59.5 143q0 102 90 184.5t217 82.5q86 0 163 -36t112 -71z" />
    <glyph glyph-name="Scaron" unicode="&#x160;" horiz-adv-x="1126" 
d="M942 379q0 86 -45 147.5t-115.5 95t-156.5 59.5t-173 54.5t-158 66.5t-116 106.5t-45 166.5q0 158 125 268.5t326 110.5q72 0 139.5 -18.5t112.5 -43t79.5 -50t51.5 -44.5l16 -18l-51 -51q-4 6 -13.5 17t-42 40t-69.5 50.5t-97.5 39t-125.5 17.5q-178 0 -283.5 -91.5
t-105.5 -226.5q0 -84 45 -143.5t115.5 -92t157.5 -58t173 -54.5t156.5 -67.5t116 -109.5t45.5 -171q0 -166 -129.5 -282.5t-331.5 -116.5q-84 0 -161 21.5t-126 51t-85 59t-52 52.5l-17 20l52 52q4 -8 13 -21.5t44 -46.5t76 -58.5t109.5 -47t146.5 -21.5q180 0 289.5 97.5
t109.5 240.5zM819 1874l-215 -256h-61l-215 256h71l174 -205l175 205h71z" />
    <glyph glyph-name="scaron" unicode="&#x161;" horiz-adv-x="880" 
d="M737 860l-51 -51q-10 14 -29.5 36.5t-86 59.5t-140.5 37q-104 0 -175 -62.5t-71 -142.5q0 -70 59.5 -113.5t143.5 -66t168 -49.5t143.5 -84t59.5 -148q0 -125 -94.5 -210.5t-243.5 -85.5q-96 0 -180 40.5t-121 81.5l-37 41l51 52q4 -6 12.5 -16.5t36 -37t58 -47t80 -37
t100.5 -16.5q127 0 201.5 66.5t74.5 168.5q0 74 -59 119t-143 68.5t-168 49.5t-143.5 81t-59.5 143q0 102 90 184.5t217 82.5q86 0 163 -36t112 -71zM676 1413l-215 -256h-62l-215 256h72l174 -205l174 205h72z" />
    <glyph glyph-name="uni0162" unicode="&#x162;" horiz-adv-x="1105" 
d="M41 1434h1024v-62h-481v-1372h-62v1372h-481v62zM430 -430l92 266h72l-113 -266h-51z" />
    <glyph glyph-name="uni0163" unicode="&#x163;" horiz-adv-x="686" 
d="M256 1055v256h61v-328h226v-61h-226v-686q0 -90 48.5 -142.5t126.5 -52.5q33 0 63.5 8t44.5 17l14 6v-62q-51 -31 -122 -30q-109 0 -172.5 67.5t-63.5 188.5v686h-205v61h144q61 0 61 72zM307 -430l92 266h72l-113 -266h-51z" />
    <glyph glyph-name="Tcaron" unicode="&#x164;" horiz-adv-x="1105" 
d="M41 1434h1024v-62h-481v-1372h-62v1372h-481v62zM799 1884l-215 -256h-62l-215 256h72l174 -205l174 205h72z" />
    <glyph glyph-name="tcaron" unicode="&#x165;" horiz-adv-x="706" 
d="M256 1055v256h61v-328h226v-61h-226v-686q0 -90 48.5 -142.5t126.5 -52.5q33 0 63.5 8t44.5 17l14 6v-62q-51 -31 -122 -30q-109 0 -172.5 67.5t-63.5 188.5v686h-205v61h144q61 0 61 72zM604 1167l92 267h72l-113 -267h-51z" />
    <glyph glyph-name="Umacron" unicode="&#x16a;" horiz-adv-x="1536" 
d="M768 41q209 0 350.5 144.5t141.5 361.5v887h61v-887q0 -240 -161 -403.5t-392 -163.5t-392 163.5t-161 403.5v887h61v-887q0 -217 141.5 -361.5t350.5 -144.5zM1034 1792v-61h-532v61h532z" />
    <glyph glyph-name="umacron" unicode="&#x16b;" 
d="M922 0v205q-4 -8 -11.5 -23.5t-38 -54.5t-67.5 -68.5t-102.5 -54t-139.5 -24.5q-164 0 -276.5 118.5t-112.5 300.5v584h62v-584q0 -160 93 -259t234 -99q147 0 253 109.5t106 269.5v563h61v-983h-61zM850 1321v-61h-533v61h533z" />
    <glyph glyph-name="Uring" unicode="&#x16e;" horiz-adv-x="1536" 
d="M768 41q209 0 350.5 144.5t141.5 361.5v887h61v-887q0 -240 -161 -403.5t-392 -163.5t-392 163.5t-161 403.5v887h61v-887q0 -217 141.5 -361.5t350.5 -144.5zM645 1782q0 -53 40 -93t93 -40t93 40t40 93t-40 93t-93 40t-93 -40t-40 -93zM973 1782q0 -78 -58.5 -136.5
t-136.5 -58.5t-136 58.5t-58 136.5t58 136t136 58t136.5 -58t58.5 -136z" />
    <glyph glyph-name="uring" unicode="&#x16f;" 
d="M922 0v205q-4 -8 -11.5 -23.5t-38 -54.5t-67.5 -68.5t-102.5 -54t-139.5 -24.5q-164 0 -276.5 118.5t-112.5 300.5v584h62v-584q0 -160 93 -259t234 -99q147 0 253 109.5t106 269.5v563h61v-983h-61zM451 1310.5q0 -53.5 39.5 -93t93 -39.5t93.5 39.5t40 93t-40 93.5
t-93.5 40t-93 -40t-39.5 -93.5zM778 1311q0 -78 -59.5 -136.5t-135 -58.5t-135 58.5t-59.5 136.5t59.5 136t135 58t135 -58t59.5 -136z" />
    <glyph glyph-name="Uhungarumlaut" unicode="&#x170;" horiz-adv-x="1536" 
d="M768 41q209 0 350.5 144.5t141.5 361.5v887h61v-887q0 -240 -161 -403.5t-392 -163.5t-392 163.5t-161 403.5v887h61v-887q0 -217 141.5 -361.5t350.5 -144.5zM584 1628l153 256h72l-174 -256h-51zM860 1628l154 256h71l-174 -256h-51z" />
    <glyph glyph-name="uhungarumlaut" unicode="&#x171;" 
d="M922 0v205q-4 -8 -11.5 -23.5t-38 -54.5t-67.5 -68.5t-102.5 -54t-139.5 -24.5q-164 0 -276.5 118.5t-112.5 300.5v584h62v-584q0 -160 93 -259t234 -99q147 0 253 109.5t106 269.5v563h61v-983h-61zM399 1157l154 256h72l-174 -256h-52zM676 1157l153 256h72l-174 -256
h-51z" />
    <glyph glyph-name="Uogonek" unicode="&#x172;" horiz-adv-x="1536" 
d="M768 41q209 0 350.5 144.5t141.5 361.5v887h61v-887q0 -225 -143.5 -385t-356.5 -178q-125 -131 -125 -230q0 -47 35 -79.5t88 -32.5q33 0 63.5 10t45.5 20l14 11v-52q-51 -41 -123 -41q-76 0 -125 47.5t-49 116.5q0 113 119 226q-229 2 -389 164.5t-160 402.5v887h61
v-887q0 -217 141.5 -361.5t350.5 -144.5z" />
    <glyph glyph-name="uogonek" unicode="&#x173;" 
d="M922 0v205q-4 -8 -11.5 -23.5t-38 -54.5t-67.5 -68.5t-102.5 -54t-139.5 -24.5q-164 0 -276.5 118.5t-112.5 300.5v584h62v-584q0 -160 93 -259t234 -99q147 0 253 109.5t106 269.5v563h61v-983h-10q-16 -14 -40 -40t-64 -91.5t-40 -114.5q0 -47 35 -79.5t88 -32.5
q33 0 64 10t45 20l14 11v-52q-51 -41 -123 -41q-76 0 -125 47.5t-49 116.5q0 59 36 121t71 92z" />
    <glyph glyph-name="Ydieresis" unicode="&#x178;" horiz-adv-x="1249" 
d="M133 1434l492 -861l491 861h72l-533 -932v-502h-61v502l-533 932h72zM410 1761q0 51 51 51t51 -51t-51 -51t-51 51zM737 1761q0 51 51.5 51t51.5 -51t-51.5 -51t-51.5 51z" />
    <glyph glyph-name="Zacute" unicode="&#x179;" horiz-adv-x="1157" 
d="M983 1372h-870v62h942v-62l-901 -1311h921v-61h-993v61zM553 1628l154 256h71l-174 -256h-51z" />
    <glyph glyph-name="zacute" unicode="&#x17a;" horiz-adv-x="880" 
d="M788 983v-61l-665 -861h686v-61h-758v61l666 861h-645v61h716zM399 1157l154 256h72l-174 -256h-52z" />
    <glyph glyph-name="Zdotaccent" unicode="&#x17b;" horiz-adv-x="1157" 
d="M983 1372h-870v62h942v-62l-901 -1311h921v-61h-993v61zM532 1761q0 51 51.5 51t51.5 -51t-51 -51q-23 0 -37.5 15.5t-14.5 35.5z" />
    <glyph glyph-name="zdotaccent" unicode="&#x17c;" horiz-adv-x="880" 
d="M788 983v-61l-665 -861h686v-61h-758v61l666 861h-645v61h716zM379 1280q0 51 51 51t51 -51t-51 -51q-23 0 -37 15.5t-14 35.5z" />
    <glyph glyph-name="Zcaron" unicode="&#x17d;" horiz-adv-x="1157" 
d="M983 1372h-870v62h942v-62l-901 -1311h921v-61h-993v61zM840 1884l-215 -256h-62l-215 256h72l174 -205l174 205h72z" />
    <glyph glyph-name="zcaron" unicode="&#x17e;" horiz-adv-x="880" 
d="M788 983v-61l-665 -861h686v-61h-758v61l666 861h-645v61h716zM676 1413l-215 -256h-62l-215 256h72l174 -205l174 205h72z" />
    <glyph glyph-name="florin" unicode="&#x192;" horiz-adv-x="706" 
d="M389 717l-174 -901q-47 -246 -246 -246q-33 0 -65.5 8t-50.5 16l-17 7v61q61 -31 133 -31q147 0 185 185l174 901h-185v61h195l82 430q47 246 246 246q33 0 65.5 -8t50.5 -16l17 -7v-61q-61 31 -133 31q-150 0 -185 -185l-82 -430h256v-61h-266z" />
    <glyph glyph-name="uni0218" unicode="&#x218;" horiz-adv-x="1126" 
d="M942 379q0 86 -45 147.5t-115.5 95t-156.5 59.5t-173 54.5t-158 66.5t-116 106.5t-45 166.5q0 158 125 268.5t326 110.5q72 0 139.5 -18.5t112.5 -43t79.5 -50t51.5 -44.5l16 -18l-51 -51q-4 6 -13.5 17t-42 40t-69.5 50.5t-97.5 39t-125.5 17.5q-178 0 -283.5 -91.5
t-105.5 -226.5q0 -84 45 -143.5t115.5 -92t157.5 -58t173 -54.5t156.5 -67.5t116 -109.5t45.5 -171q0 -166 -129.5 -282.5t-331.5 -116.5q-84 0 -161 21.5t-126 51t-85 59t-52 52.5l-17 20l52 52q4 -8 13 -21.5t44 -46.5t76 -58.5t109.5 -47t146.5 -21.5q180 0 289.5 97.5
t109.5 240.5zM440 -430l92 266h72l-112 -266h-52z" />
    <glyph glyph-name="uni0219" unicode="&#x219;" horiz-adv-x="880" 
d="M737 860l-51 -51q-10 14 -29.5 36.5t-86 59.5t-140.5 37q-104 0 -175 -62.5t-71 -142.5q0 -70 59.5 -113.5t143.5 -66t168 -49.5t143.5 -84t59.5 -148q0 -125 -94.5 -210.5t-243.5 -85.5q-96 0 -180 40.5t-121 81.5l-37 41l51 52q4 -6 12.5 -16.5t36 -37t58 -47t80 -37
t100.5 -16.5q127 0 201.5 66.5t74.5 168.5q0 74 -59 119t-143 68.5t-168 49.5t-143.5 81t-59.5 143q0 102 90 184.5t217 82.5q86 0 163 -36t112 -71zM307 -430l92 266h72l-113 -266h-51z" />
    <glyph glyph-name="uni021A" unicode="&#x21a;" horiz-adv-x="1105" 
d="M41 1434h1024v-62h-481v-1372h-62v1372h-481v62zM430 -430l92 266h72l-113 -266h-51z" />
    <glyph glyph-name="uni021B" unicode="&#x21b;" horiz-adv-x="686" 
d="M256 1055v256h61v-328h226v-61h-226v-686q0 -90 48.5 -142.5t126.5 -52.5q33 0 63.5 8t44.5 17l14 6v-62q-51 -31 -122 -30q-109 0 -172.5 67.5t-63.5 188.5v686h-205v61h144q61 0 61 72zM307 -430l92 266h72l-113 -266h-51z" />
    <glyph glyph-name="uni02BC" unicode="&#x2bc;" horiz-adv-x="286" 
d="M61 1167l93 267h71l-112 -267h-52z" />
    <glyph glyph-name="circumflex" unicode="&#x2c6;" horiz-adv-x="614" 
d="M338 1413l215 -256h-72l-174 205l-174 -205h-72l215 256h62z" />
    <glyph glyph-name="caron" unicode="&#x2c7;" horiz-adv-x="614" 
d="M553 1413l-215 -256h-62l-215 256h72l174 -205l174 205h72z" />
    <glyph glyph-name="breve" unicode="&#x2d8;" horiz-adv-x="634" 
d="M317.5 1219q92.5 0 143.5 51t51 143h61q0 -115 -70.5 -185.5t-185 -70.5t-185.5 70.5t-71 185.5h62q0 -92 51 -143t143.5 -51z" />
    <glyph glyph-name="dotaccent" unicode="&#x2d9;" horiz-adv-x="225" 
d="M61 1311q0 51 51.5 51t51.5 -51t-51 -51q-23 0 -37.5 15.5t-14.5 35.5z" />
    <glyph glyph-name="ring" unicode="&#x2da;" horiz-adv-x="512" 
d="M123 1229q0 -53 40 -93t93 -40t93 40t40 93t-40 93t-93 40t-93 -40t-40 -93zM451 1229q0 -78 -59.5 -136.5t-135.5 -58.5t-135.5 58.5t-59.5 136.5t59.5 136t135.5 58t135.5 -58t59.5 -136z" />
    <glyph glyph-name="ogonek" unicode="&#x2db;" horiz-adv-x="419" 
d="M205 0h51q-16 -14 -39.5 -40t-63.5 -91.5t-40 -114.5q0 -47 34.5 -79.5t88.5 -32.5q33 0 63.5 10t44.5 20l14 11v-52q-51 -41 -122 -41q-76 0 -125.5 47.5t-49.5 116.5q0 59 36 121t71 92z" />
    <glyph glyph-name="tilde" unicode="&#x2dc;" horiz-adv-x="675" 
d="M205 1341q-41 0 -61.5 -32.5t-20.5 -120.5h-62q0 215 144 215q45 0 83 -23.5t61.5 -53.5t55 -53.5t66.5 -23.5q41 0 61.5 33t20.5 121h61q0 -215 -143 -215q-45 0 -83 23.5t-61.5 53t-55 53t-66.5 23.5z" />
    <glyph glyph-name="hungarumlaut" unicode="&#x2dd;" horiz-adv-x="624" 
d="M61 1157l154 256h72l-174 -256h-52zM338 1157l154 256h71l-174 -256h-51z" />
    <glyph glyph-name="uni0401" unicode="&#x401;" horiz-adv-x="1280" 
d="M297 61h901v-61h-962v1434h942v-62h-881v-594h717v-61h-717v-656zM492 1761q0 51 51 51t51 -51t-51 -51t-51 51zM819 1761q0 51 51.5 51t51.5 -51t-51.5 -51t-51.5 51z" />
    <glyph glyph-name="uni0402" unicode="&#x402;" horiz-adv-x="1443" 
d="M1290 440q0 -213 -119.5 -336.5t-320.5 -123.5v61q178 0 278.5 104.5t100.5 294.5q0 182 -99.5 285.5t-269.5 103.5q-104 0 -206.5 -40.5t-153.5 -81.5l-49 -41v-666h-62v1372h-389v62h840v-62h-389v-624q20 16 55 39.5t142.5 63.5t211.5 40q193 0 311.5 -122t118.5 -329
z" />
    <glyph glyph-name="uni0403" unicode="&#x403;" horiz-adv-x="1116" 
d="M635 1628l153 256h72l-174 -256h-51zM236 0v1434h849v-62h-788v-1372h-61z" />
    <glyph glyph-name="uni0404" unicode="&#x404;" horiz-adv-x="1525" 
d="M1382 328l52 -41q-8 -12 -24.5 -33t-73 -74t-120 -94t-166 -73.5t-210.5 -32.5q-293 0 -505 216t-212 521t212 521t505 216q109 0 210 -31.5t167.5 -77t117.5 -90.5t74 -75l25 -33l-52 -41q-8 12 -22 31.5t-65.5 68.5t-109 87t-151.5 69t-194 31q-266 0 -456.5 -186.5
t-199.5 -448.5h809v-62h-809q8 -276 197.5 -465.5t458.5 -189.5q100 0 193 29.5t153.5 71.5t106.5 84t67 73z" />
    <glyph glyph-name="uni0405" unicode="&#x405;" horiz-adv-x="1126" 
d="M942 379q0 86 -45 147.5t-115.5 95t-156.5 59.5t-173 54.5t-158 66.5t-116 106.5t-45 166.5q0 158 125 268.5t326 110.5q72 0 139.5 -18.5t112.5 -43t79.5 -50t51.5 -44.5l16 -18l-51 -51q-4 6 -13.5 17t-42 40t-69.5 50.5t-97.5 39t-125.5 17.5q-178 0 -283.5 -91.5
t-105.5 -226.5q0 -84 45 -143.5t115.5 -92t157.5 -58t173 -54.5t156.5 -67.5t116 -109.5t45.5 -171q0 -166 -129.5 -282.5t-331.5 -116.5q-84 0 -161 21.5t-126 51t-85 59t-52 52.5l-17 20l52 52q4 -8 13 -21.5t44 -46.5t76 -58.5t109.5 -47t146.5 -21.5q180 0 289.5 97.5
t109.5 240.5z" />
    <glyph glyph-name="uni0406" unicode="&#x406;" horiz-adv-x="532" 
d="M236 0v1434h61v-1434h-61z" />
    <glyph glyph-name="uni0407" unicode="&#x407;" horiz-adv-x="532" 
d="M236 0v1434h61v-1434h-61zM51 1761q0 51 51.5 51t51.5 -51t-51.5 -51t-51.5 51zM379 1761q0 51 51 51t51 -51t-51 -51t-51 51z" />
    <glyph glyph-name="uni0408" unicode="&#x408;" horiz-adv-x="983" 
d="M707 1434h61v-1024q0 -184 -119 -307t-291 -123q-100 0 -184 38.5t-119 75.5l-35 39l52 51q4 -6 11 -15t33.5 -33.5t57.5 -44t80 -35t104 -15.5q147 0 248 103.5t101 265.5v1024z" />
    <glyph glyph-name="uni0409" unicode="&#x409;" horiz-adv-x="2170" 
d="M1597 0h-460v1372h-686v-368q0 -309 -28 -520.5t-79 -317t-108.5 -146t-133.5 -40.5q-27 0 -55.5 5t-42.5 11l-14 4v61q51 -20 102 -20q63 0 111.5 37t93.5 135t68.5 297t23.5 494v430h809v-574h399q199 0 325 -122t126 -308t-126 -308t-325 -122zM1198 61h399
q176 0 283 103.5t107 265.5t-106.5 265.5t-283.5 103.5h-399v-738z" />
    <glyph glyph-name="uni040A" unicode="&#x40a;" horiz-adv-x="2160" 
d="M1587 0h-461v799h-829v-799h-61v1434h61v-574h829v574h62v-574h399q199 0 325 -122t126 -308t-126 -308t-325 -122zM1188 61h399q176 0 282.5 103.5t106.5 265.5t-106.5 265.5t-282.5 103.5h-399v-738z" />
    <glyph glyph-name="uni040B" unicode="&#x40b;" horiz-adv-x="1484" 
d="M1229 0v461q0 170 -100.5 269t-268.5 99q-104 0 -206.5 -40.5t-153.5 -81.5l-49 -41v-666h-62v1372h-389v62h840v-62h-389v-624q20 16 55 39.5t142.5 63.5t211.5 40q193 0 311.5 -119t118.5 -311v-461h-61z" />
    <glyph glyph-name="uni040C" unicode="&#x40c;" horiz-adv-x="1320" 
d="M297 492l850 942h82l-533 -594l584 -840h-72l-553 799l-358 -389v-410h-61v1434h61v-942zM666 1628l153 256h72l-174 -256h-51z" />
    <glyph glyph-name="uni040E" unicode="&#x40e;" horiz-adv-x="1208" 
d="M614 1690q84 0 139.5 55t55.5 139h61q0 -106 -74.5 -181t-181 -75t-181.5 75t-75 181h62q0 -84 55 -139t139 -55zM635 471l461 963h61l-553 -1158q-74 -152 -155.5 -224t-192.5 -72q-27 0 -55.5 5t-42.5 11l-15 4v61q51 -20 113 -20q184 0 289 235l59 134l-553 1024h62z
" />
    <glyph glyph-name="uni040F" unicode="&#x40f;" horiz-adv-x="1515" 
d="M1280 1434v-1434h-492v-307h-61v307h-491v1434h61v-1373h922v1373h61z" />
    <glyph glyph-name="uni0410" unicode="&#x410;" horiz-adv-x="1372" 
d="M1044 502l-358 860l-358 -860h716zM1065 440h-758l-184 -440h-62l594 1434h62l594 -1434h-62z" />
    <glyph glyph-name="uni0411" unicode="&#x411;" horiz-adv-x="1300" 
d="M297 1372v-532h440q182 0 311.5 -125t129.5 -295t-129 -295t-312 -125h-501v1434h829v-62h-768zM297 61h440q160 0 269.5 105.5t109.5 253t-109.5 253t-269.5 105.5h-440v-717z" />
    <glyph glyph-name="uni0412" unicode="&#x412;" horiz-adv-x="1341" 
d="M911 768v-10q12 -2 32 -6t69 -29t87 -59.5t68.5 -105.5t30.5 -159q0 -178 -114.5 -288.5t-305.5 -110.5h-542v1434h512q168 0 273 -101.5t105 -257.5q0 -72 -22.5 -130t-54 -90t-62.5 -52.5t-53 -28.5zM297 61h481q168 0 263.5 91.5t95.5 246.5q0 147 -96.5 237.5
t-262.5 90.5h-481v-666zM748 1372h-451v-584h451q152 0 234.5 77t82.5 210q0 131 -86 214t-231 83z" />
    <glyph glyph-name="uni0413" unicode="&#x413;" horiz-adv-x="1116" 
d="M236 0v1434h849v-62h-788v-1372h-61z" />
    <glyph glyph-name="uni0414" unicode="&#x414;" horiz-adv-x="1423" 
d="M0 61h82q10 8 28.5 28t64.5 97.5t81 175t63.5 269.5t28.5 373v430h819v-1373h185v-368h-62v307h-1229v-307h-61v368zM410 1004q0 -195 -27 -364t-63.5 -270.5t-74.5 -175t-65 -104.5l-26 -29h952v1311h-696v-368z" />
    <glyph glyph-name="uni0415" unicode="&#x415;" horiz-adv-x="1280" 
d="M297 61h901v-61h-962v1434h942v-62h-881v-594h717v-61h-717v-656z" />
    <glyph glyph-name="uni0416" unicode="&#x416;" horiz-adv-x="1904" 
d="M1239 799l-256 -277v-522h-61v522l-256 277l-553 -799h-72l584 840l-533 594h82l748 -830v830h61v-830l748 830h81l-532 -594l584 -840h-72z" />
    <glyph glyph-name="uni0417" unicode="&#x417;" horiz-adv-x="1126" 
d="M676 758q12 -2 33.5 -7.5t77 -32t96.5 -62t75.5 -107.5t34.5 -160q0 -166 -134 -287.5t-337 -121.5q-86 0 -163.5 21.5t-128 51t-88.5 59t-54 52.5l-16 20l51 52q4 -8 14 -21.5t46 -46.5t79 -58.5t112.5 -47t147.5 -21.5q180 0 295 102.5t115 245.5t-111.5 240.5
t-298.5 97.5h-164v61h164q172 0 270.5 85t98.5 212q0 129 -100.5 218.5t-268.5 89.5q-66 0 -127 -18.5t-101 -43t-70.5 -50.5t-45.5 -44l-14 -18l-51 51q6 8 17 20.5t51 44t84 56t114 44t143 19.5q190 0 310 -108.5t120 -260.5q0 -78 -28.5 -140t-68.5 -95t-81 -55.5
t-69 -28.5z" />
    <glyph glyph-name="uni0418" unicode="&#x418;" horiz-adv-x="1576" 
d="M236 1434h61v-1321l993 1321h51v-1434h-61v1321l-993 -1321h-51v1434z" />
    <glyph glyph-name="uni0419" unicode="&#x419;" horiz-adv-x="1576" 
d="M788.5 1690q83.5 0 139 55t55.5 139h61q0 -106 -73.5 -181t-182 -75t-182.5 75t-74 181h62q0 -84 55.5 -139t139 -55zM236 1434h61v-1321l993 1321h51v-1434h-61v1321l-993 -1321h-51v1434z" />
    <glyph glyph-name="uni041A" unicode="&#x41a;" horiz-adv-x="1320" 
d="M297 492l850 942h82l-533 -594l584 -840h-72l-553 799l-358 -389v-410h-61v1434h61v-942z" />
    <glyph glyph-name="uni041B" unicode="&#x41b;" horiz-adv-x="1484" 
d="M1249 1434v-1434h-61v1372h-737v-368q0 -309 -28 -520.5t-79 -317t-108.5 -146t-133.5 -40.5q-27 0 -55.5 5t-42.5 11l-14 4v61q51 -20 102 -20q63 0 111.5 37t93.5 135t68.5 297t23.5 494v430h860z" />
    <glyph glyph-name="uni041C" unicode="&#x41c;" horiz-adv-x="1863" 
d="M287 1434l645 -891l645 891h51v-1434h-61v1321l-635 -883l-635 883v-1321h-61v1434h51z" />
    <glyph glyph-name="uni041D" unicode="&#x41d;" horiz-adv-x="1515" 
d="M236 0v1434h61v-676h922v676h61v-1434h-61v696h-922v-696h-61z" />
    <glyph glyph-name="uni041E" unicode="&#x41e;" horiz-adv-x="1679" 
d="M1495 716.5q0 282.5 -192.5 479.5t-463 197t-463 -197t-192.5 -479.5t192.5 -479t463 -196.5t463 196.5t192.5 479zM1556 717q0 -305 -211.5 -521t-504.5 -216t-505 216t-212 521t212 521t505 216t504.5 -216t211.5 -521z" />
    <glyph glyph-name="uni041F" unicode="&#x41f;" horiz-adv-x="1515" 
d="M1280 1434v-1434h-61v1372h-922v-1372h-61v1434h1044z" />
    <glyph glyph-name="uni0420" unicode="&#x420;" horiz-adv-x="1300" 
d="M236 1434h491q199 0 325 -122t126 -308.5t-126 -308.5t-325 -122h-430v-573h-61v1434zM727 1372h-430v-737h430q176 0 282.5 103.5t106.5 265t-106.5 265t-282.5 103.5z" />
    <glyph glyph-name="uni0421" unicode="&#x421;" horiz-adv-x="1525" 
d="M123 717q0 305 212 521t505 216q109 0 210 -31.5t167.5 -77t117.5 -90.5t74 -75l25 -33l-52 -41q-8 12 -22 31.5t-65.5 68.5t-109 87t-151.5 69t-194 31q-270 0 -463 -197t-193 -479.5t192.5 -479t463.5 -196.5q100 0 193 29.5t153.5 71.5t106.5 84t67 73l22 29l52 -41
q-8 -12 -24.5 -33t-73 -74t-120 -94t-166 -73.5t-210.5 -32.5q-293 0 -505 216t-212 521z" />
    <glyph glyph-name="uni0422" unicode="&#x422;" horiz-adv-x="1105" 
d="M41 1434h1024v-62h-481v-1372h-62v1372h-481v62z" />
    <glyph glyph-name="uni0423" unicode="&#x423;" horiz-adv-x="1208" 
d="M635 471l461 963h61l-553 -1158q-74 -152 -155.5 -224t-192.5 -72q-27 0 -55.5 5t-42.5 11l-15 4v61q51 -20 113 -20q184 0 289 235l59 134l-553 1024h62z" />
    <glyph glyph-name="uni0424" unicode="&#x424;" horiz-adv-x="1720" 
d="M829 213v1047q-297 -8 -471 -158t-174 -365t174 -365.5t471 -158.5zM891 154v-195h-62v195q-319 8 -512.5 176t-193.5 407.5t193.5 407.5t512.5 176v154h62v-154q319 -8 512.5 -176t193.5 -407.5t-193.5 -407.5t-512.5 -176zM891 1260v-1047q297 8 471 158.5t174 365.5
t-174 365t-471 158z" />
    <glyph glyph-name="uni0425" unicode="&#x425;" horiz-adv-x="1249" 
d="M1085 1434h72l-502 -697l533 -737h-72l-491 686l-492 -686h-72l533 737l-502 697h72l461 -646z" />
    <glyph glyph-name="uni0426" unicode="&#x426;" horiz-adv-x="1525" 
d="M236 0v1434h61v-1373h901v1373h62v-1373h184v-368h-62v307h-1146z" />
    <glyph glyph-name="uni0427" unicode="&#x427;" horiz-adv-x="1423" 
d="M276 1434v-430q0 -193 114 -306.5t306 -113.5q115 0 222.5 44t158.5 87l49 43v676h62v-1434h-62v676q-6 -6 -19 -16.5t-57 -37t-91.5 -47t-119 -37t-143.5 -16.5q-215 0 -348 133t-133 349v430h61z" />
    <glyph glyph-name="uni0428" unicode="&#x428;" horiz-adv-x="2048" 
d="M236 0v1434h61v-1373h696v1373h62v-1373h696v1373h61v-1434h-1576z" />
    <glyph glyph-name="uni0429" unicode="&#x429;" horiz-adv-x="2078" 
d="M236 0v1434h61v-1373h696v1373h62v-1373h696v1373h61v-1373h185v-368h-62v307h-1699z" />
    <glyph glyph-name="uni042A" unicode="&#x42a;" horiz-adv-x="1402" 
d="M829 0h-471v1372h-358v62h420v-574h409q199 0 325 -122t126 -308t-126 -308t-325 -122zM420 61h409q176 0 283 103.5t107 265.5t-106.5 265.5t-283.5 103.5h-409v-738z" />
    <glyph glyph-name="uni042B" unicode="&#x42b;" horiz-adv-x="1761" 
d="M1526 0h-62v1434h62v-1434zM707 0h-471v1434h61v-574h410q199 0 324.5 -122t125.5 -308t-125.5 -308t-324.5 -122zM297 61h410q176 0 282.5 103.5t106.5 265.5t-106.5 265.5t-282.5 103.5h-410v-738z" />
    <glyph glyph-name="uni042C" unicode="&#x42c;" horiz-adv-x="1300" 
d="M727 0h-491v1434h61v-574h430q199 0 325 -122t126 -308t-126 -308t-325 -122zM297 61h430q176 0 282.5 103.5t106.5 265.5t-106.5 265.5t-282.5 103.5h-430v-738z" />
    <glyph glyph-name="uni042D" unicode="&#x42d;" horiz-adv-x="1505" 
d="M72 287l51 41q8 -12 22.5 -32t65.5 -69t108.5 -87t151.5 -68.5t195 -30.5q268 0 457.5 189.5t197.5 465.5h-809v62h809q-8 262 -198.5 448.5t-456.5 186.5q-100 0 -193.5 -30t-154 -72t-106.5 -84t-69 -72l-20 -29l-51 41q8 12 24.5 32.5t72.5 74t119.5 94.5t166 73.5
t211.5 32.5q293 0 504.5 -216t211.5 -521t-212 -521t-504 -216q-109 0 -210.5 31.5t-168 76.5t-117.5 90t-76 76z" />
    <glyph glyph-name="uni042E" unicode="&#x42e;" horiz-adv-x="2109" 
d="M297 1434v-676h338q8 283 211 489.5t465 206.5q274 0 475 -214t201 -523t-201 -523t-475 -214q-270 0 -469 208.5t-207 507.5h-338v-696h-61v1434h61zM696 717q0 -287 182.5 -481.5t432.5 -194.5t432 194.5t182 481.5t-182 481.5t-432 194.5t-432.5 -194.5t-182.5 -481.5
z" />
    <glyph glyph-name="uni042F" unicode="&#x42f;" horiz-adv-x="1341" 
d="M584 1434h522v-1434h-62v614h-501l-348 -614h-72l358 625q-14 2 -35.5 7t-78 32.5t-99.5 67.5t-78.5 117t-35.5 175q0 178 120 294t310 116zM1044 1372h-460q-168 0 -268.5 -96t-100.5 -252t100.5 -252t268.5 -96h460v696z" />
    <glyph glyph-name="uni0430" unicode="&#x430;" horiz-adv-x="1034" 
d="M379 543l399 71v11q0 145 -83 231t-214 86q-86 0 -160.5 -39t-105.5 -76l-31 -39l-41 41q4 6 13.5 18.5t41 42.5t67.5 53.5t94.5 42t121.5 18.5q156 0 257.5 -105.5t101.5 -273.5v-625h-62v205q-4 -8 -12 -23.5t-40 -54.5t-70 -68.5t-104.5 -54t-141.5 -24.5
q-141 0 -234.5 82.5t-93.5 193.5q0 234 297 287zM410 39q154 0 261 110.5t107 270.5v133l-399 -72q-115 -20 -175.5 -79.5t-60.5 -145.5q0 -88 74 -152.5t193 -64.5z" />
    <glyph glyph-name="uni0431" unicode="&#x431;" horiz-adv-x="1157" 
d="M1034 471q0 -205 -135 -348t-315 -143q-195 0 -333 168.5t-138 455.5q0 365 135 552t356 226q104 18 186 46t111 47l31 20l31 -51q-113 -82 -349 -123q-199 -35 -318.5 -202t-121.5 -484q4 12 13.5 33.5t44 77t77.5 96.5t120 75.5t165 34.5q172 0 306 -142t134 -339z
M195 471q0 -170 117.5 -300t271.5 -130q158 0 273.5 125t115.5 305q0 174 -115 297t-264 123q-152 0 -275.5 -124t-123.5 -296z" />
    <glyph glyph-name="uni0432" unicode="&#x432;" horiz-adv-x="1044" 
d="M174 983h420q129 0 202.5 -69.5t73.5 -186.5q0 -78 -35.5 -131t-72.5 -68l-35 -16q8 -2 20.5 -5t44 -19.5t56 -40t44 -68.5t19.5 -103q0 -125 -79.5 -200.5t-217.5 -75.5h-440v983zM614 481h-378v-420h378q115 0 175.5 57.5t60.5 157.5q0 94 -60.5 149.5t-175.5 55.5z
M809 727q0 195 -215 195h-358v-379h358q104 0 159.5 49t55.5 135z" />
    <glyph glyph-name="uni0433" unicode="&#x433;" horiz-adv-x="819" 
d="M778 983v-61h-542v-922h-62v983h604z" />
    <glyph glyph-name="uni0434" unicode="&#x434;" horiz-adv-x="1116" 
d="M1044 61v-307h-59v246h-934v-246h-61v307h82q8 8 20 23.5t44 73t56.5 125t44 179t19.5 234.5v287h625v-922h163zM317 922v-226q0 -117 -18 -225.5t-44 -180t-50.5 -125.5t-42.5 -79l-19 -25h676v861h-502z" />
    <glyph glyph-name="uni0435" unicode="&#x435;" horiz-adv-x="1126" 
d="M1014 461h-850q8 -176 129 -298t291 -122q61 0 117.5 19.5t93 46t64.5 53t40 45.5l12 20l52 -41q-6 -8 -16.5 -22.5t-45.5 -49t-76 -61t-106.5 -49t-134.5 -22.5q-195 0 -338.5 149.5t-143.5 362.5q0 211 140.5 361.5t320.5 150.5t315.5 -147.5t135.5 -364.5v-31z
M563.5 942q-155.5 0 -277.5 -126t-122 -294h788q-8 182 -120.5 301t-268 119z" />
    <glyph glyph-name="uni0436" unicode="&#x436;" horiz-adv-x="1454" 
d="M748 328v-328h-62v328l-194 204h-11l-379 -532h-71l420 584l-369 399h82l522 -573v573h62v-573l522 573h82l-369 -399l420 -584h-72l-379 532h-10z" />
    <glyph glyph-name="uni0437" unicode="&#x437;" horiz-adv-x="880" 
d="M707 748q0 -82 -46.5 -140.5t-91.5 -77.5l-47 -18q8 -2 23.5 -6t54.5 -22.5t68.5 -43t54.5 -73t25 -107.5q0 -115 -96.5 -197.5t-252.5 -82.5q-63 0 -120.5 18t-95.5 43t-66.5 50.5t-42.5 43.5l-13 19l52 51q4 -6 11 -17.5t33.5 -40t57.5 -50t80 -39t104 -17.5
q133 0 210 63.5t77 155.5q0 94 -77 157.5t-210 63.5h-102v62h102q113 0 179.5 58t66.5 147q0 80 -67.5 137t-178.5 57q-49 0 -94 -13.5t-74.5 -32.5t-53 -39.5t-34.5 -33.5l-10 -14l-51 51q4 6 13 15.5t40 34t64.5 44t88 35t111.5 15.5q133 0 220.5 -76t87.5 -180z" />
    <glyph glyph-name="uni0438" unicode="&#x438;" 
d="M942 983h51v-983h-61v881l-707 -881h-51v983h62v-881z" />
    <glyph glyph-name="uni0439" unicode="&#x439;" 
d="M584 1219q92 0 143 51t51 143h62q0 -115 -71 -185.5t-185.5 -70.5t-185 70.5t-70.5 185.5h61q0 -92 51.5 -143t143.5 -51zM942 983h51v-983h-61v881l-707 -881h-51v983h62v-881z" />
    <glyph glyph-name="uni043A" unicode="&#x43a;" horiz-adv-x="1003" 
d="M236 256v-256h-62v983h62v-645l583 645h82l-369 -399l420 -584h-71l-379 532h-10z" />
    <glyph glyph-name="uni043B" unicode="&#x43b;" horiz-adv-x="1136" 
d="M276 983h666v-983h-61v922h-543v-226q0 -219 -19.5 -365.5t-56.5 -220t-79 -102t-101 -28.5q-23 0 -46.5 5t-35.5 11l-10 4v59q41 -18 82 -18q63 0 104 43t70.5 193.5t29.5 418.5v287z" />
    <glyph glyph-name="uni043C" unicode="&#x43c;" horiz-adv-x="1331" 
d="M655 297l-419 573v-870h-62v983h51l430 -584l430 584h52v-983h-62v870z" />
    <glyph glyph-name="uni043D" unicode="&#x43d;" horiz-adv-x="1167" 
d="M911 0v471h-675v-471h-62v983h62v-451h675v451h62v-983h-62z" />
    <glyph glyph-name="uni043E" unicode="&#x43e;" 
d="M1004 492q0 188 -125 319t-295 131q-172 0 -296 -130t-124 -320.5t124 -320.5t296 -130t296 130.5t124 320.5zM1065 492q0 -213 -143.5 -362.5t-338 -149.5t-338 149.5t-143.5 362.5t143.5 362.5t338 149.5t338 -149.5t143.5 -362.5z" />
    <glyph glyph-name="uni043F" unicode="&#x43f;" horiz-adv-x="1167" 
d="M913 0v922h-677v-922h-62v983h799v-983h-60z" />
    <glyph glyph-name="uni0440" unicode="&#x440;" horiz-adv-x="1208" 
d="M236 246v-676h-62v1413h62v-246q4 10 14 28.5t46 65t79 81t112.5 63.5t147.5 29q174 0 312 -152t138 -360.5t-138 -360t-312 -151.5q-78 0 -147.5 27.5t-113.5 66.5t-77 77.5t-47 65.5zM635 41q152 0 270.5 132t118.5 318.5t-119 318.5t-270 132q-158 0 -278.5 -131
t-120.5 -319.5t120.5 -319.5t278.5 -131z" />
    <glyph glyph-name="uni0441" unicode="&#x441;" horiz-adv-x="1064" 
d="M164 491.5q0 -190.5 124 -320.5t296 -130q59 0 115.5 19.5t93 46t64.5 53t40 45.5l14 20l52 -41q-6 -8 -16.5 -22.5t-46.5 -49t-77 -61t-105.5 -49t-133.5 -22.5q-195 0 -338.5 149.5t-143.5 362.5t143.5 362.5t338.5 149.5q70 0 133 -21.5t106 -51.5t76 -59.5t47 -52.5
l17 -20l-52 -41q-4 8 -13 20.5t-40 44t-65.5 56t-92 44t-116.5 19.5q-172 0 -296 -130t-124 -320.5z" />
    <glyph glyph-name="uni0442" unicode="&#x442;" horiz-adv-x="901" 
d="M31 922v61h819v-61h-379v-922h-61v922h-379z" />
    <glyph glyph-name="uni0443" unicode="&#x443;" horiz-adv-x="962" 
d="M358 -205l82 205l-399 983h61l369 -901l369 901h61l-481 -1188q-47 -119 -106.5 -172t-149.5 -53q-23 0 -43.5 5t-30.5 11l-8 4v62q31 -20 82 -21q128 0 194 164z" />
    <glyph glyph-name="uni0444" unicode="&#x444;" horiz-adv-x="1413" 
d="M666 -430v410q-242 0 -397.5 147t-155.5 364.5t155.5 365t397.5 147.5v430h61v-430q242 0 397.5 -147.5t155.5 -365t-155.5 -364.5t-397.5 -147v-410h-61zM1219 491.5q0 194.5 -136.5 322.5t-355.5 128v-901q219 0 355.5 128t136.5 322.5zM174 491.5q0 -194.5 136 -322.5
t356 -128v901q-219 0 -355.5 -128t-136.5 -322.5z" />
    <glyph glyph-name="uni0445" unicode="&#x445;" horiz-adv-x="921" 
d="M481 512l379 -512h-72l-337 461l-338 -461h-72l379 512l-348 471h71l308 -420l307 420h71z" />
    <glyph glyph-name="uni0446" unicode="&#x446;" 
d="M174 0v983h62v-922h657v922h59v-922h164v-307h-59v246h-883z" />
    <glyph glyph-name="uni0447" unicode="&#x447;" horiz-adv-x="1095" 
d="M840 0v440q-14 -10 -40 -25.5t-112 -41t-176 -25.5q-168 0 -263 93.5t-95 254.5v287h61v-287q0 -139 76 -212.5t221 -73.5q90 0 172 25.5t119 51.5l37 25v471h61v-983h-61z" />
    <glyph glyph-name="uni0448" unicode="&#x448;" horiz-adv-x="1597" 
d="M174 0v983h62v-922h522v922h61v-922h524v922h60v-983h-1229z" />
    <glyph glyph-name="uni0449" unicode="&#x449;" horiz-adv-x="1638" 
d="M174 0v983h62v-922h522v922h61v-922h522v922h62v-922h164v-307h-62v246h-1331z" />
    <glyph glyph-name="uni044A" unicode="&#x44a;" horiz-adv-x="1064" 
d="M963 307q0 -133 -93.5 -220t-244.5 -87h-349v922h-286v61h348v-358h287q152 0 245 -89.5t93 -228.5zM338 61h287q129 0 202.5 68t73.5 178q0 117 -73.5 186.5t-202.5 69.5h-287v-502z" />
    <glyph glyph-name="uni044B" unicode="&#x44b;" horiz-adv-x="1372" 
d="M1178 983v-983h-62v983h62zM236 61h286q129 0 203 68t74 178q0 117 -74 186.5t-203 69.5h-286v-502zM860 307q0 -133 -93 -220t-245 -87h-348v983h62v-358h286q152 0 245 -89.5t93 -228.5z" />
    <glyph glyph-name="uni044C" unicode="&#x44c;" horiz-adv-x="983" 
d="M236 61h307q129 0 202.5 68t73.5 178q0 117 -73.5 186.5t-202.5 69.5h-307v-502zM881 307q0 -133 -93.5 -220t-244.5 -87h-369v983h62v-358h307q152 0 245 -89.5t93 -228.5z" />
    <glyph glyph-name="uni044D" unicode="&#x44d;" horiz-adv-x="1044" 
d="M61 184l52 41q4 -8 13 -20t40 -44t65.5 -56.5t92 -44t116.5 -19.5q170 0 291 125t129 315h-532v62h532q-16 164 -138 281.5t-282 117.5q-59 0 -115.5 -19.5t-93 -46t-64.5 -53t-40 -45.5l-14 -20l-52 41q6 8 16.5 22.5t46.5 49t77 61t105.5 49.5t133.5 23
q195 0 338.5 -149.5t143.5 -362.5t-143.5 -362.5t-338.5 -149.5q-70 0 -133 21.5t-106 51t-76 59t-47 52.5z" />
    <glyph glyph-name="uni044E" unicode="&#x44e;" horiz-adv-x="1536" 
d="M1413 491.5q0 -219.5 -136 -365.5t-325 -146q-186 0 -319 139t-141 352h-256v-471h-62v983h62v-451h256q14 199 148 335.5t312 136.5q188 0 324.5 -146.5t136.5 -366zM553 491.5q0 -196.5 116.5 -323.5t282.5 -127t283 127t117 323.5t-117 323.5t-283 127t-282.5 -127
t-116.5 -323.5z" />
    <glyph glyph-name="uni044F" unicode="&#x44f;" horiz-adv-x="1024" 
d="M102 676q0 133 93.5 220t244.5 87h389v-983h-61v379h-369l-225 -379h-72l236 389q-10 2 -25.5 8t-56.5 29t-71.5 51.5t-56.5 82t-26 116.5zM768 922h-328q-129 0 -202.5 -68t-73.5 -178q0 -102 74.5 -169t201.5 -67h328v482z" />
    <glyph glyph-name="uni0451" unicode="&#x451;" horiz-adv-x="1126" 
d="M1014 461h-850q8 -176 129 -298t291 -122q61 0 117.5 19.5t93 46t64.5 53t40 45.5l12 20l52 -41q-6 -8 -16.5 -22.5t-45.5 -49t-76 -61t-106.5 -49t-134.5 -22.5q-195 0 -338.5 149.5t-143.5 362.5q0 211 140.5 361.5t320.5 150.5t315.5 -147.5t135.5 -364.5v-31z
M563.5 942q-155.5 0 -277.5 -126t-122 -294h788q-8 182 -120.5 301t-268 119zM340 1292q0 51 51 51t51 -51t-51 -51t-51 51zM668 1292q0 51 51 51t51 -51t-51 -51t-51 51z" />
    <glyph glyph-name="uni0452" unicode="&#x452;" horiz-adv-x="1177" 
d="M276 1434v-215h318v-62h-318v-471q4 8 11.5 23.5t36 54.5t65.5 68.5t102.5 54t143.5 24.5q166 0 287.5 -133t121.5 -327q0 -211 -117.5 -341t-291.5 -130v61q150 0 249 111.5t99 298.5q0 172 -103.5 285.5t-244.5 113.5q-156 0 -257.5 -107.5t-101.5 -281.5v-461h-61
v1157h-184v62h184v215h61z" />
    <glyph glyph-name="uni0453" unicode="&#x453;" horiz-adv-x="819" 
d="M440 1157l154 256h72l-174 -256h-52zM778 983v-61h-542v-922h-62v983h604z" />
    <glyph glyph-name="uni0454" unicode="&#x454;" horiz-adv-x="1064" 
d="M911 225l52 -41q-6 -8 -16.5 -22.5t-46.5 -49t-77 -61t-105.5 -49t-133.5 -22.5q-195 0 -338.5 149.5t-143.5 362.5t143.5 362.5t338.5 149.5q70 0 133 -21.5t106 -51.5t76 -59.5t47 -52.5l17 -20l-52 -41q-4 8 -13 20.5t-40 44t-65.5 56t-92 44t-116.5 19.5
q-160 0 -282 -117.5t-138 -281.5h532v-62h-532q8 -190 129 -315t291 -125q59 0 115.5 19.5t93 46t64.5 53t40 45.5z" />
    <glyph glyph-name="uni0455" unicode="&#x455;" horiz-adv-x="880" 
d="M737 860l-51 -51q-10 14 -29.5 36.5t-86 59.5t-140.5 37q-104 0 -175 -62.5t-71 -142.5q0 -70 59.5 -113.5t143.5 -66t168 -49.5t143.5 -84t59.5 -148q0 -125 -94.5 -210.5t-243.5 -85.5q-96 0 -180 40.5t-121 81.5l-37 41l51 52q4 -6 12.5 -16.5t36 -37t58 -47t80 -37
t100.5 -16.5q127 0 201.5 66.5t74.5 168.5q0 74 -59 119t-143 68.5t-168 49.5t-143.5 81t-59.5 143q0 102 90 184.5t217 82.5q86 0 163 -36t112 -71z" />
    <glyph glyph-name="uni0456" unicode="&#x456;" horiz-adv-x="450" 
d="M184 0v983h62v-983h-62zM266 1341.5q0 -51.5 -51 -51.5t-51 51.5t51 51.5t51 -51.5z" />
    <glyph glyph-name="uni0457" unicode="&#x457;" horiz-adv-x="450" 
d="M0 1294.5q0 51.5 51 51.5t51 -51.5t-51 -51.5t-51 51.5zM328 1294.5q0 51.5 51 51.5t51 -51.5t-51 -51.5t-51 51.5zM246 983v-983h-62v983h62z" />
    <glyph glyph-name="uni0458" unicode="&#x458;" horiz-adv-x="450" 
d="M184 -174v1157h62v-1157q0 -113 -67.5 -184.5t-168.5 -71.5q-33 0 -63.5 8t-44.5 16l-15 7v61q51 -31 123 -31q78 0 126 52.5t48 142.5zM266 1341.5q0 -51.5 -51 -51.5t-51 51.5t51 51.5t51 -51.5z" />
    <glyph glyph-name="uni0459" unicode="&#x459;" horiz-adv-x="1607" 
d="M1505 287q0 -127 -90 -207t-248 -80h-338v922h-491v-226q0 -219 -19.5 -365.5t-56.5 -220t-79 -102t-101 -28.5q-23 0 -46.5 5t-35.5 11l-10 4v59q41 -18 82 -18q63 0 104 43t70.5 193.5t29.5 418.5v287h615v-399h276q160 0 249 -82t89 -215zM891 61h276q135 0 206 61.5
t71 164.5q0 111 -70.5 173t-206.5 62h-276v-461z" />
    <glyph glyph-name="uni045A" unicode="&#x45a;" horiz-adv-x="1617" 
d="M1516 287q0 -127 -90.5 -207t-247.5 -80h-338v522h-604v-522h-62v983h62v-399h604v399h61v-399h277q160 0 249 -82t89 -215zM901 61h277q135 0 205.5 61.5t70.5 164.5q0 111 -70.5 173t-205.5 62h-277v-461z" />
    <glyph glyph-name="uni045B" unicode="&#x45b;" horiz-adv-x="1218" 
d="M276 1434v-215h318v-62h-318v-471q4 8 11.5 23.5t36 54.5t65.5 68.5t102.5 54t143.5 24.5q164 0 276.5 -118.5t112.5 -300.5v-492h-61v492q0 160 -93.5 259t-234.5 99q-156 0 -257.5 -107.5t-101.5 -281.5v-461h-61v1157h-184v62h184v215h61z" />
    <glyph glyph-name="uni045C" unicode="&#x45c;" horiz-adv-x="1003" 
d="M481 1157l154 256h72l-175 -256h-51zM236 256v-256h-62v983h62v-645l583 645h82l-369 -399l420 -584h-71l-379 532h-10z" />
    <glyph glyph-name="uni045E" unicode="&#x45e;" horiz-adv-x="962" 
d="M358 -205l82 205l-399 983h61l369 -901l369 901h61l-481 -1188q-47 -119 -106.5 -172t-149.5 -53q-23 0 -43.5 5t-30.5 11l-8 4v62q31 -20 82 -21q128 0 194 164zM471 1219q92 0 143.5 51t51.5 143h61q0 -115 -70.5 -185.5t-185.5 -70.5t-185.5 70.5t-70.5 185.5h61
q0 -92 51.5 -143t143.5 -51z" />
    <glyph glyph-name="uni045F" unicode="&#x45f;" horiz-adv-x="1167" 
d="M174 0v983h62v-922h677v922h60v-983h-369v-246h-61v246h-369z" />
    <glyph glyph-name="uni0490" unicode="&#x490;" horiz-adv-x="1116" 
d="M1024 1434v286h61v-348h-788v-1372h-61v1434h788z" />
    <glyph glyph-name="uni0491" unicode="&#x491;" horiz-adv-x="819" 
d="M174 0v983h543v246h61v-307h-542v-922h-62z" />
    <glyph glyph-name="uni1E9E" unicode="&#x1e9e;" horiz-adv-x="1331" 
d="M1116 1372l-399 -532h20q197 0 324 -121t127 -299t-127 -299t-324 -121h-92v61h92q174 0 281.5 101.5t107.5 257t-107.5 257t-281.5 101.5h-92v62l399 532h-419q-147 0 -237.5 -95t-90.5 -263v-1014h-61v1014q0 188 110.5 304t278.5 116h491v-62z" />
    <glyph glyph-name="endash" unicode="&#x2013;" horiz-adv-x="952" 
d="M860 635v-62h-768v62h768z" />
    <glyph glyph-name="emdash" unicode="&#x2014;" horiz-adv-x="1443" 
d="M1352 635v-62h-1260v62h1260z" />
    <glyph glyph-name="quoteleft" unicode="&#x2018;" horiz-adv-x="389" 
d="M143 1116l-71 41l204 318l41 -21z" />
    <glyph glyph-name="quoteright" unicode="&#x2019;" horiz-adv-x="389" 
d="M246 1475l71 -41l-204 -318l-41 21z" />
    <glyph glyph-name="quotesinglbase" unicode="&#x201a;" horiz-adv-x="368" 
d="M164 113l72 -41l-195 -318l-41 21z" />
    <glyph glyph-name="quotedblleft" unicode="&#x201c;" horiz-adv-x="655" 
d="M143 1116l-71 41l204 318l41 -21zM410 1116l-72 41l205 318l41 -21z" />
    <glyph glyph-name="quotedblright" unicode="&#x201d;" horiz-adv-x="655" 
d="M512 1475l72 -41l-205 -318l-41 21zM246 1475l71 -41l-204 -318l-41 21z" />
    <glyph glyph-name="quotedblbase" unicode="&#x201e;" horiz-adv-x="624" 
d="M164 113l72 -41l-195 -318l-41 21zM420 113l72 -41l-195 -318l-41 21z" />
    <glyph glyph-name="dagger" unicode="&#x2020;" horiz-adv-x="839" 
d="M389 1137v297h62v-297h266v-62h-266v-665h-62v665h-266v62h266z" />
    <glyph glyph-name="daggerdbl" unicode="&#x2021;" horiz-adv-x="839" 
d="M389 1137v297h62v-297h266v-62h-266v-307h266v-61h-266v-297h-62v297h-266v61h266v307h-266v62h266z" />
    <glyph glyph-name="bullet" unicode="&#x2022;" horiz-adv-x="757" 
d="M236 491.5q0 61.5 40.5 102.5t102 41t102.5 -41t41 -102.5t-41 -102.5t-102.5 -41t-102 41t-40.5 102.5z" />
    <glyph glyph-name="ellipsis" unicode="&#x2026;" 
d="M246 51q0 -51 -51.5 -51t-51.5 51t51.5 51t51.5 -51zM645 51q0 -51 -51 -51t-51 51t51 51t51 -51zM1044 51q0 -51 -51 -51t-51 51t51 51t51 -51z" />
    <glyph glyph-name="perthousand" unicode="&#x2030;" horiz-adv-x="2263" 
d="M297 0l901 1434h62l-902 -1434h-61zM635 1136.5q0 112.5 -67.5 184.5t-168 72t-168 -72t-67.5 -184.5t67.5 -184t168 -71.5t168 71.5t67.5 184zM696 1136.5q0 -137.5 -86 -227.5t-211 -90t-211 90t-86 227.5t86 227.5t211 90t211 -90t86 -227.5zM1393 297
q0 113 -68 184.5t-168 71.5t-167.5 -71.5t-67.5 -184.5t67.5 -184.5t167.5 -71.5t168 71.5t68 184.5zM1454 297q0 -137 -86 -227t-211 -90t-211 90t-86 227t86 227t211 90t211 -90t86 -227zM2099 297q0 113 -67.5 184.5t-168 71.5t-168 -71.5t-67.5 -184.5t67.5 -184.5
t168 -71.5t168 71.5t67.5 184.5zM2161 297q0 -137 -86 -227t-211 -90t-211 90t-86 227t86 227t211 90t211 -90t86 -227z" />
    <glyph glyph-name="guilsinglleft" unicode="&#x2039;" horiz-adv-x="532" 
d="M184 492l236 -318h-72l-235 318l235 317h72z" />
    <glyph glyph-name="guilsinglright" unicode="&#x203a;" horiz-adv-x="532" 
d="M348 492l-235 317h71l236 -317l-236 -318h-71z" />
    <glyph glyph-name="fraction" unicode="&#x2044;" horiz-adv-x="471" 
d="M-246 0l901 1434h62l-901 -1434h-62z" />
    <glyph glyph-name="uni2070" unicode="&#x2070;" horiz-adv-x="716" 
d="M143 1280q0 -145 62.5 -226t153 -81t152.5 81t62 226t-62 226t-152.5 81t-153 -81t-62.5 -226zM635 1280q0 -170 -82 -269.5t-194.5 -99.5t-194.5 99.5t-82 269.5t82 269.5t194.5 99.5t194.5 -99.5t82 -269.5z" />
    <glyph glyph-name="uni2074" unicode="&#x2074;" horiz-adv-x="604" 
d="M461 1167h102v-61h-102v-184h-62v184h-358v61l348 471h72v-471zM399 1167v400l-297 -400h297z" />
    <glyph glyph-name="uni2075" unicode="&#x2075;" horiz-adv-x="552" 
d="M276 1372q100 0 168 -67.5t68 -167.5q0 -92 -68.5 -159t-167.5 -67q-74 0 -137 28t-90 56l-29 29l41 41q8 -10 25.5 -25.5t74 -41t115.5 -25.5q76 0 125.5 47t49.5 117q0 76 -49.5 125t-125.5 49q-41 0 -76.5 -18.5t-52.5 -35.5l-14 -18h-61l30 399h369v-61h-307
l-21 -256q51 51 133 51z" />
    <glyph glyph-name="uni2076" unicode="&#x2076;" horiz-adv-x="573" 
d="M287 1403q100 0 172.5 -73t72.5 -173t-72.5 -173t-173 -73t-173 73t-72.5 173q0 41 15.5 85t29.5 67l16 22l195 307h61l-153 -256q31 21 82 21zM471 1157q0 78 -53 131t-131 53t-131.5 -54t-53.5 -130t53.5 -130t131.5 -54t131 54t53 130z" />
    <glyph glyph-name="uni2077" unicode="&#x2077;" horiz-adv-x="532" 
d="M41 1638h451v-61l-287 -655h-62l287 655h-389v61z" />
    <glyph glyph-name="uni2078" unicode="&#x2078;" horiz-adv-x="552" 
d="M276.5 973q73.5 0 124 44t50.5 99q0 63 -49.5 108.5t-125 45.5t-125 -45t-49.5 -109q0 -55 50.5 -99t124 -44zM276.5 1331q61.5 0 102.5 39t41 94.5t-38 89t-105.5 33.5t-105.5 -33.5t-38 -89t41 -94.5t102.5 -39zM276 911q-96 0 -165.5 62.5t-69.5 142.5q0 68 36 114
t70 58l37 12q-4 2 -12 5.5t-27.5 17.5t-34 30.5t-26.5 46.5t-12 64q0 78 57 131.5t147.5 53.5t147.5 -53.5t57 -131.5q0 -35 -11 -64.5t-27.5 -47t-34 -29.5t-27.5 -16l-12 -7l15 -5q9 -3 33.5 -16t44 -31.5t35 -53.5t15.5 -78q0 -80 -69 -142.5t-167 -62.5z" />
    <glyph glyph-name="uni2079" unicode="&#x2079;" horiz-adv-x="573" 
d="M287 1157q-100 0 -173 73t-73 173t72.5 173t173 73t173 -73t72.5 -173q0 -41 -15 -85t-30 -67l-16 -22l-195 -307h-61l154 256q-31 -21 -82 -21zM102 1403q0 -78 53.5 -131t131.5 -53t131 54t53 130t-53 130t-131 54t-131.5 -54t-53.5 -130z" />
    <glyph glyph-name="uni2080" unicode="&#x2080;" horiz-adv-x="716" 
d="M143 153.5q0 -145.5 62.5 -226.5t153 -81t152.5 81t62 226.5t-62 226.5t-152.5 81t-153 -81t-62.5 -226.5zM635 154q0 -170 -82 -269.5t-194.5 -99.5t-194.5 99.5t-82 269.5t82 269t194.5 99t194.5 -99t82 -269z" />
    <glyph glyph-name="uni2081" unicode="&#x2081;" horiz-adv-x="399" 
d="M225 512h51v-717h-61v615q-51 -61 -154 -72v61q45 4 86 33t60 55z" />
    <glyph glyph-name="uni2082" unicode="&#x2082;" horiz-adv-x="563" 
d="M502 -205h-461q0 84 41 149.5t100.5 106.5t117.5 77t99 83t41 104q0 63 -43 104.5t-110 41.5q-59 0 -102.5 -31t-57.5 -61l-14 -31l-62 20q2 6 6 17.5t23.5 40t43 50t68 39t95.5 17.5q92 0 153.5 -59.5t61.5 -145.5q0 -68 -36 -121t-90 -88.5t-110.5 -69.5t-103.5 -80
t-62 -101h402v-62z" />
    <glyph glyph-name="uni2083" unicode="&#x2083;" horiz-adv-x="583" 
d="M399 174q4 -2 13.5 -4t30 -15.5t37 -31t29.5 -50t13 -73.5q0 -92 -63.5 -153.5t-161.5 -61.5q-74 0 -137.5 30.5t-89.5 61.5l-29 31l41 41q8 -12 25.5 -28.5t74 -45.5t115.5 -29q76 0 120 42t44 112q0 63 -44 103t-120 40h-102v62h92q68 0 105.5 35.5t37.5 97.5
q0 55 -40 89t-114 34q-49 0 -93 -20.5t-62 -41.5l-19 -20l-41 41q8 12 25.5 28.5t74 45t115.5 28.5q98 0 157 -52t59 -132q0 -35 -9.5 -64.5t-23 -47t-27.5 -30t-22 -16.5z" />
    <glyph glyph-name="uni2084" unicode="&#x2084;" horiz-adv-x="604" 
d="M461 41h102v-61h-102v-185h-62v185h-358v61l348 471h72v-471zM399 41v399l-297 -399h297z" />
    <glyph glyph-name="uni2085" unicode="&#x2085;" horiz-adv-x="552" 
d="M276 246q100 0 168 -67.5t68 -168.5q0 -92 -68.5 -158.5t-167.5 -66.5q-74 0 -137 27.5t-90 56.5l-29 29l41 41q8 -10 25.5 -25.5t74 -41.5t115.5 -26q76 0 125.5 47.5t49.5 116.5q0 76 -49.5 125t-125.5 49q-41 0 -76.5 -18.5t-52.5 -34.5l-14 -18h-61l30 399h369v-61
h-307l-21 -256q51 51 133 51z" />
    <glyph glyph-name="uni2086" unicode="&#x2086;" horiz-adv-x="573" 
d="M287 276q100 0 172.5 -72.5t72.5 -173t-72.5 -173t-173 -72.5t-173 72.5t-72.5 173.5q0 41 15.5 85t29.5 66l16 23l195 307h61l-153 -256q31 20 82 20zM471 31q0 78 -53 131t-131 53t-131.5 -54.5t-53.5 -130t53.5 -130t131.5 -54.5t131 54.5t53 130.5z" />
    <glyph glyph-name="uni2087" unicode="&#x2087;" horiz-adv-x="532" 
d="M41 512h451v-61l-287 -656h-62l287 656h-389v61z" />
    <glyph glyph-name="uni2088" unicode="&#x2088;" horiz-adv-x="552" 
d="M276.5 -154q73.5 0 124 44t50.5 100q0 63 -49.5 108t-125 45t-125 -45t-49.5 -108q0 -55 50.5 -99.5t124 -44.5zM276.5 205q61.5 0 102.5 39t41 94t-38 89t-105.5 34t-105.5 -34t-38 -89t41 -94t102.5 -39zM276 -215q-96 0 -165.5 62.5t-69.5 142.5q0 68 36 114t70 58
l37 12q-4 2 -12 5t-27.5 17.5t-34 31t-26.5 46t-12 64.5q0 78 57 131t147.5 53t147.5 -53t57 -131q0 -35 -11 -64.5t-27.5 -47t-34 -30t-27.5 -16.5l-12 -6l15 -5q9 -3 33.5 -16.5t44 -32t35 -53t15.5 -77.5q0 -80 -69 -142.5t-167 -62.5z" />
    <glyph glyph-name="uni2089" unicode="&#x2089;" horiz-adv-x="573" 
d="M287 31q-100 0 -173 72.5t-73 173t72.5 173t173 72.5t173 -72.5t72.5 -173.5q0 -41 -15 -85t-30 -66l-16 -23l-195 -307h-61l154 256q-31 -20 -82 -20zM102 276q0 -78 53.5 -131t131.5 -53t131 54.5t53 130t-53 130t-131 54.5t-131.5 -54.5t-53.5 -130.5z" />
    <glyph glyph-name="Euro" unicode="&#x20ac;" horiz-adv-x="1515" 
d="M328 717l10 -133h565v-62h-555q41 -193 205 -337t379 -144q74 0 145.5 22.5t120.5 53t88 62.5t57 54l19 23l51 -51q-8 -8 -22.5 -23.5t-61.5 -54.5t-99 -68.5t-133 -54t-165 -24.5q-238 0 -418 159.5t-227 382.5h-205v62h194q-10 61 -10 133l10 133h-194v61h205
q47 223 227 383t418 160q84 0 164 -23.5t135 -56.5t98 -65.5t64 -55.5l20 -24l-51 -51q-6 8 -19.5 22t-55.5 52t-89 66t-119.5 51.5t-146.5 23.5q-215 0 -379 -144.5t-205 -337.5h555v-61h-565q-10 -61 -10 -133z" />
    <glyph glyph-name="uni20B4" unicode="&#x20b4;" horiz-adv-x="1290" 
d="M154 850v61h768q72 72 71 164q0 135 -105.5 226.5t-283.5 91.5q-102 0 -189 -41t-124 -82l-35 -41l-51 51q6 6 17 18.5t49 42t81 53t111.5 42t140.5 18.5q201 0 326 -110.5t125 -268.5q0 -41 -13.5 -82t-25.5 -61l-12 -21h133v-61h-983zM1137 584v-62h-768
q-72 -72 -72 -164q0 -135 105.5 -226t283.5 -91q102 0 189.5 41t123.5 82l35 41l51 -51q-6 -6 -17 -18.5t-49 -42.5t-81 -53.5t-111.5 -41.5t-140.5 -18q-201 0 -325.5 110.5t-124.5 267.5q0 41 13 82t25 62l13 20h-133v62h983z" />
    <glyph glyph-name="uni20BD" unicode="&#x20bd;" horiz-adv-x="1331" 
d="M102 614v62h185v758h491q190 0 310 -116t120 -294t-119.5 -294t-310.5 -116h-430v-245h553v-62h-553v-307h-61v307h-185v62h185v245h-185zM778 1372h-430v-696h430q168 0 268.5 96t100.5 252t-100.5 252t-268.5 96z" />
    <glyph glyph-name="uni2116" unicode="&#x2116;" horiz-adv-x="2252" 
d="M1567 0v61h553v-61h-553zM1249 1434h62v-1434h-51l-963 1321v-1321h-61v1434h51l962 -1321v1321zM2079 665.5q0 112.5 -67.5 184.5t-168 72t-168 -72t-67.5 -184.5t67.5 -184t168 -71.5t168 71.5t67.5 184zM2140 665.5q0 -137.5 -86 -227.5t-211 -90t-211 90t-86 227.5
t86 227.5t211 90t211 -90t86 -227.5z" />
    <glyph glyph-name="trademark" unicode="&#x2122;" horiz-adv-x="1382" 
d="M932 983l-236 338v-502h-61v615h51l246 -349l246 349h51v-615h-62v502zM41 1372v62h471v-62h-205v-553h-61v553h-205z" />
    <glyph glyph-name="minus" unicode="&#x2212;" horiz-adv-x="1003" 
d="M911 635v-62h-819v62h819z" />
    <glyph glyph-name="approxequal" unicode="&#x2248;" horiz-adv-x="1085" 
d="M348 819q-59 0 -107 -32.5t-69 -65.5l-18 -35l-52 31q4 6 10.5 17t29 40t49 50.5t69.5 39t88 17.5q66 0 120 -23.5t86 -53.5t80 -53.5t103 -23.5q59 0 107.5 34t68.5 66l19 33l51 -31q-4 -6 -10 -17t-28.5 -40t-49.5 -50.5t-70 -38.5t-88 -17q-82 0 -144.5 37.5
t-119.5 76.5t-125 39zM348 481q-59 0 -107 -33.5t-69 -66.5l-18 -33l-52 31q4 6 10.5 17.5t29 40t49 50t69.5 39t88 17.5q82 0 144.5 -38t120 -77t124.5 -39q59 0 107.5 33t68.5 65l19 35l51 -30q-4 -6 -10 -17.5t-28.5 -40t-49.5 -50.5t-70 -39t-88 -17q-66 0 -120 23.5
t-85.5 53t-80 53t-103.5 23.5z" />
    <glyph glyph-name="notequal" unicode="&#x2260;" horiz-adv-x="1024" 
d="M911 461v-62h-481l-123 -235h-71l122 235h-245v62h276l164 287h-440v61h471l123 235h71l-123 -235h256v-61h-286l-164 -287h450z" />
    <glyph glyph-name="lessequal" unicode="&#x2264;" horiz-adv-x="1003" 
d="M113 696v41l778 369v-62l-707 -327l707 -328v-61zM113 72v61h778v-61h-778z" />
    <glyph glyph-name="greaterequal" unicode="&#x2265;" horiz-adv-x="1003" 
d="M891 737v-41l-778 -368v61l706 328l-706 327v62zM891 133v-61h-778v61h778z" />
    <glyph glyph-name="uniF6C3" unicode="&#xf6c3;" horiz-adv-x="286" 
d="M61 -430l93 266h71l-112 -266h-52z" />
    <glyph glyph-name="uniF6D1" unicode="&#xf6d1;" horiz-adv-x="634" 
d="M317 1690q84 0 139.5 55t55.5 139h61q0 -106 -73.5 -181t-182 -75t-182.5 75t-74 181h62q0 -84 55 -139t139 -55z" />
    <glyph glyph-name="uniF6D4" unicode="&#xf6d4;" horiz-adv-x="634" 
d="M317.5 1219q92.5 0 143.5 51t51 143h61q0 -115 -70.5 -185.5t-185 -70.5t-185.5 70.5t-71 185.5h62q0 -92 51 -143t143.5 -51z" />
    <glyph glyph-name="glyph2" horiz-adv-x="681" 
 />
    <glyph glyph-name="glyph443" horiz-adv-x="1331" 
d="M1116 1372l-399 -532h20q197 0 324 -121t127 -299t-127 -299t-324 -121h-92v61h92q174 0 281.5 101.5t107.5 257t-107.5 257t-281.5 101.5h-92v62l399 532h-419q-147 0 -237.5 -95t-90.5 -263v-1014h-61v1014q0 188 110.5 304t278.5 116h491v-62z" />
    <glyph glyph-name="I.salt" horiz-adv-x="737" 
d="M92 1372v62h553v-62h-246v-1311h246v-61h-553v61h246v1311h-246z" />
    <glyph glyph-name="Igrave.salt" horiz-adv-x="737" 
d="M246 1884l153 -256h-51l-174 256h72zM92 1372v62h553v-62h-246v-1311h246v-61h-553v61h246v1311h-246z" />
    <glyph glyph-name="Iacute.salt" horiz-adv-x="737" 
d="M338 1628l154 256h71l-174 -256h-51zM92 1372v62h553v-62h-246v-1311h246v-61h-553v61h246v1311h-246z" />
    <glyph glyph-name="Icircumflex.salt" horiz-adv-x="737" 
d="M399 1884l215 -256h-71l-174 205l-174 -205h-72l215 256h61zM92 1372v62h553v-62h-246v-1311h246v-61h-553v61h246v1311h-246z" />
    <glyph glyph-name="Idieresis.salt" horiz-adv-x="737" 
d="M154 1761q0 51 51 51t51 -51t-51 -51t-51 51zM481 1761q0 51 51.5 51t51.5 -51t-51.5 -51t-51.5 51zM92 1372v62h553v-62h-246v-1311h246v-61h-553v61h246v1311h-246z" />
    <glyph glyph-name="Idotaccent.salt" horiz-adv-x="737" 
d="M317 1761q0 51 51.5 51t51.5 -51t-51 -51q-23 0 -37.5 15.5t-14.5 35.5zM92 1372v62h553v-62h-246v-1311h246v-61h-553v61h246v1311h-246z" />
    <glyph glyph-name="Imacron.salt" horiz-adv-x="737" 
d="M635 1792v-61h-533v61h533zM92 1372v62h553v-62h-246v-1311h246v-61h-553v61h246v1311h-246z" />
    <glyph glyph-name="Iogonek.salt" horiz-adv-x="737" 
d="M594 0h-502v61h246v1311h-246v62h553v-62h-246v-1311h246v-61q-16 -14 -39.5 -40t-63.5 -91.5t-40 -114.5q0 -47 34.5 -79.5t88.5 -32.5q33 0 63.5 10t44.5 20l15 11v-52q-51 -41 -123 -41q-76 0 -125 47.5t-49 116.5q0 59 35.5 121t70.5 92z" />
    <glyph glyph-name="at.case" horiz-adv-x="1812" 
d="M891 1024q-119 0 -198 -87t-79 -230.5t79 -230.5t198 -87q111 0 188.5 88t77.5 229.5t-77.5 229.5t-188.5 88zM891 1085q55 0 102 -18t76 -43t50.5 -50.5t29.5 -43.5l8 -19v164h62v-446q0 -121 47 -180.5t127 -59.5q92 0 153.5 91t61.5 278q0 285 -200 480.5t-497 195.5
q-285 0 -495.5 -213t-210.5 -504t210 -504t490 -213q117 0 223.5 39t153.5 76l49 39l41 -52q-6 -6 -20.5 -17t-59.5 -40t-96 -50.5t-130 -38.5t-161 -17q-303 0 -532.5 232t-229.5 545.5t230.5 546t537.5 232.5q322 0 540 -214t218 -523q0 -211 -80 -320.5t-196 -109.5
q-82 0 -138.5 49t-70.5 98l-17 47q-2 -8 -8 -21.5t-29.5 -46t-52 -58t-79 -47t-107.5 -21.5q-141 0 -239.5 106.5t-98.5 272t98.5 272t239.5 106.5z" />
    <glyph glyph-name="parenleft.case" horiz-adv-x="665" 
d="M225 716.5q0 -157.5 36 -311t87 -261t102.5 -192.5t86.5 -126l36 -41l-51 -31q-14 16 -38.5 45t-86 125t-108.5 201.5t-86 266.5t-39 325t37 322.5t90 269t105.5 197.5t88.5 130l37 43l51 -30q-14 -14 -37.5 -43t-83 -123t-105.5 -195.5t-84 -257.5t-38 -313.5z" />
    <glyph glyph-name="parenright.case" horiz-adv-x="665" 
d="M440 716.5q0 157.5 -35.5 311.5t-87 261.5t-102.5 192.5t-88 126l-35 41l51 30q14 -16 39 -44.5t86.5 -125t108.5 -202t86 -266t39 -324.5t-37 -322.5t-89 -269.5t-105.5 -198t-90.5 -130l-37 -43l-51 31q14 14 38 43t83 123t105.5 195.5t84 257t37.5 313z" />
    <glyph glyph-name="bracketleft.case" horiz-adv-x="696" 
d="M287 1597v-1761h317v-61h-379v1884h379v-62h-317z" />
    <glyph glyph-name="bracketright.case" horiz-adv-x="696" 
d="M410 -164v1761h-318v62h379v-1884h-379v61h318z" />
    <glyph glyph-name="braceleft.case" horiz-adv-x="727" 
d="M133 686v62q84 0 129 41.5t45 111.5v502q0 256 277 256h51v-62h-51q-115 0 -165 -47t-50 -147v-502q0 -53 -17.5 -92t-43 -57.5t-43 -25.5t-27.5 -9q8 -2 19 -5t31.5 -16.5t37 -32t30 -53.5t13.5 -78v-501q0 -100 50 -147.5t165 -47.5h51v-61h-51q-276 0 -277 256v501
q0 70 -45 112t-129 42z" />
    <glyph glyph-name="braceright.case" horiz-adv-x="727" 
d="M594 748v-62q-84 0 -129 -42t-45 -112v-501q0 -256 -277 -256h-51v61h51q115 0 165 47t50 148v501q0 43 13.5 78t30 53.5t37 32t31.5 16.5t19 5q-10 2 -27.5 9t-43 25.5t-43 57.5t-17.5 92v502q0 100 -50 147t-165 47h-51v62h51q276 0 277 -256v-502q0 -70 45 -111.5
t129 -41.5z" />
    <glyph glyph-name="exclamdown.case" horiz-adv-x="593" 
d="M266 1126h62v-1126h-62v1126zM348 1382.5q0 -51.5 -51 -51.5t-51 51.5t51 51.5t51 -51.5z" />
    <glyph glyph-name="questiondown.case" horiz-adv-x="1034" 
d="M512 1126h61v-82q0 -96 -42 -173.5t-102 -131t-120.5 -105.5t-102.5 -122t-42 -154q0 -129 99 -223t259 -94q86 0 154.5 28.5t105.5 68.5t60.5 81t29.5 70l9 28l61 -20q-2 -12 -9 -33.5t-39 -77t-74 -96.5t-120.5 -75.5t-177.5 -34.5q-182 0 -301 112.5t-119 265.5
q0 98 42 175t102.5 128.5t121 101.5t102.5 120.5t42 160.5v82zM594 1382.5q0 -51.5 -51 -51.5t-51 51.5t51 51.5t51 -51.5z" />
    <glyph glyph-name="guillemotleft.case" horiz-adv-x="849" 
d="M410 1034l-226 -317l226 -318h-72l-225 318l225 317h72zM737 1034l-225 -317l225 -318h-71l-226 318l226 317h71z" />
    <glyph glyph-name="guillemotright.case" horiz-adv-x="849" 
d="M666 717l-226 317h72l225 -317l-225 -318h-72zM338 717l-225 317h71l226 -317l-226 -318h-71z" />
    <glyph glyph-name="guilsinglleft.case" horiz-adv-x="532" 
d="M184 717l236 -318h-72l-235 318l235 317h72z" />
    <glyph glyph-name="guilsinglright.case" horiz-adv-x="532" 
d="M348 717l-235 317h71l236 -317l-236 -318h-71z" />
    <glyph glyph-name="hyphen.case" horiz-adv-x="839" 
d="M748 680v-62h-656v62h656z" />
    <glyph glyph-name="endash.case" horiz-adv-x="952" 
d="M860 745v-61h-768v61h768z" />
    <glyph glyph-name="emdash.case" horiz-adv-x="1443" 
d="M1352 745v-61h-1260v61h1260z" />
    <glyph glyph-name="periodcentered.case" horiz-adv-x="368" 
d="M236 737q0 -51 -51.5 -51t-51.5 51t51.5 51t51.5 -51z" />
    <glyph glyph-name="zero.tnum" horiz-adv-x="1249" 
d="M1106 717q0 305 -145.5 490.5t-336 185.5t-336 -185.5t-145.5 -490.5t145.5 -490.5t336 -185.5t336 185.5t145.5 490.5zM1167 717q0 -330 -164.5 -533.5t-377.5 -203.5t-378 203.5t-165 533.5t165 533.5t378 203.5t377.5 -203.5t164.5 -533.5z" />
    <glyph glyph-name="one.tnum" horiz-adv-x="1249" 
d="M676 1434h51v-1434h-61v1311q-2 -6 -8.5 -15.5t-30 -36t-52 -47t-79 -40t-107.5 -25.5v61q90 8 162 64.5t98 107.5z" />
    <glyph glyph-name="two.tnum" horiz-adv-x="1249" 
d="M1075 0h-880q0 109 45 202t117.5 161.5t159.5 132t174 123t160 122t118 143.5t45 171q0 141 -106.5 239.5t-272.5 98.5q-86 0 -154.5 -28t-104.5 -66.5t-60.5 -77.5t-32.5 -66l-7 -29l-61 21q2 12 9 32.5t39 74t74 94.5t121 73.5t177 32.5q188 0 314 -117.5t126 -281.5
q0 -131 -78.5 -240.5t-193.5 -190.5t-231.5 -160t-208 -182.5t-107.5 -220.5h819v-61z" />
    <glyph glyph-name="three.tnum" horiz-adv-x="1249" 
d="M748 758q12 -2 32.5 -7.5t73.5 -32t94 -64.5t74 -110.5t33 -164.5q0 -166 -127 -282.5t-324 -116.5q-80 0 -153.5 22.5t-121.5 53t-85 62.5t-54 54l-16 23l51 41q4 -8 14.5 -21.5t45 -46.5t75.5 -58.5t106.5 -47t137.5 -21.5q172 0 280.5 98.5t108.5 239.5
q0 150 -107.5 249t-281.5 99h-133v61h133q158 0 253 87.5t95 220.5q0 127 -95 212t-253 85q-63 0 -121.5 -16.5t-98.5 -41t-69.5 -49t-44.5 -41.5l-14 -16l-51 41q6 8 17 20.5t49 44t81 56t111.5 44t140.5 19.5q180 0 295 -104.5t115 -253.5q0 -78 -28 -141.5t-66.5 -98.5
t-77.5 -58.5t-68 -31.5z" />
    <glyph glyph-name="four.tnum" horiz-adv-x="1249" 
d="M952 410h185v-62h-185v-348h-61v348h-748v74l748 1012h61v-1024zM891 410v931l-686 -931h686z" />
    <glyph glyph-name="five.tnum" horiz-adv-x="1249" 
d="M635 891q184 0 312 -130t128 -321q0 -201 -130 -330.5t-331 -129.5q-80 0 -152.5 21.5t-119.5 51t-82 59t-51 52.5l-14 20l51 52q4 -8 13 -21.5t43 -46.5t73 -58.5t103.5 -47t135.5 -21.5q176 0 288 111.5t112 287.5q0 168 -108.5 278.5t-270.5 110.5q-66 0 -125 -19
t-96 -46t-64.5 -53.5t-40.5 -46.5l-12 -19h-51l51 789h686v-62h-625l-51 -635q4 6 13.5 16.5t40 37t65.5 47t92.5 37t116.5 16.5z" />
    <glyph glyph-name="six.tnum" horiz-adv-x="1249" 
d="M614 881q190 0 325.5 -133.5t135.5 -317.5t-135 -317t-325.5 -133t-325.5 133t-135 317q0 74 25.5 150.5t49.5 115.5l27 41l440 697h72l-399 -625q91 72 245 72zM1014 430q0 162 -116 275.5t-284 113.5t-283.5 -113.5t-115.5 -275.5t115.5 -275.5t283.5 -113.5t284 113.5
t116 275.5z" />
    <glyph glyph-name="seven.tnum" horiz-adv-x="1249" 
d="M205 1434h850v-62l-666 -1372h-61l665 1372h-788v62z" />
    <glyph glyph-name="eight.tnum" horiz-adv-x="1249" 
d="M624.5 1454q159.5 0 269.5 -105.5t110 -252.5q0 -72 -26 -131.5t-61.5 -92t-71.5 -55t-63 -31.5l-24 -8q12 -2 32.5 -9t74 -37t94 -68.5t73.5 -112.5t33 -162q0 -172 -125 -290.5t-315.5 -118.5t-315.5 118.5t-125 290.5q0 88 32 161t77 114t90 68.5t76 37.5l33 8
q-10 2 -26.5 8.5t-58.5 31t-75 56t-59.5 91t-26.5 131.5q0 147 109.5 252.5t269 105.5zM625 41q166 0 272.5 100.5t106.5 247.5q0 150 -106.5 254.5t-272.5 104.5t-272.5 -104.5t-106.5 -254.5q0 -147 106.5 -247.5t272.5 -100.5zM624.5 1393q-137.5 0 -227.5 -86t-90 -211
q0 -117 91 -202t226.5 -85t226.5 85t91 202q0 125 -90 211t-227.5 86z" />
    <glyph glyph-name="nine.tnum" horiz-adv-x="1249" 
d="M635 553q-190 0 -325.5 133t-135.5 317.5t135 317.5t325.5 133t326 -133t135.5 -317q0 -74 -26 -151t-50 -116l-27 -41l-440 -696h-72l400 625q-92 -72 -246 -72zM236 1003.5q0 -161.5 115.5 -275.5t283.5 -114t283.5 114t115.5 275.5t-115.5 275.5t-283.5 114
t-283.5 -114t-115.5 -275.5z" />
    <glyph glyph-name="lslash.salt" horiz-adv-x="706" 
d="M297 236v483l-266 -166l-31 51l297 184v646h61v-615l267 164l30 -51l-297 -182v-514q0 -90 48.5 -142.5t125.5 -52.5q33 0 64 8t45 17l14 6v-62q-51 -31 -123 -30q-100 0 -167.5 71.5t-67.5 184.5z" />
    <glyph glyph-name="uni045E.salt" horiz-adv-x="962" 
d="M471 1219q92 0 143.5 51t51.5 143h61q0 -115 -70.5 -185.5t-185.5 -70.5t-185.5 70.5t-70.5 185.5h61q0 -92 51.5 -143t143.5 -51zM266 -430l174 430l-399 983h61l369 -901l369 901h61l-573 -1413h-62z" />
    <glyph glyph-name="agrave.salt" horiz-adv-x="1054" 
d="M379 543l399 71v11q0 145 -83 231t-214 86q-86 0 -160.5 -39t-105.5 -76l-31 -39l-41 41q4 6 13.5 18.5t41 42.5t67.5 53.5t94.5 42t121.5 18.5q156 0 257.5 -105.5t101.5 -273.5v-451q0 -53 32.5 -88t79.5 -35l62 10v-61q-20 -10 -62 -10q-78 0 -126 50t-48 134v31
q-4 -8 -12 -23.5t-40 -54.5t-70 -68.5t-104.5 -54t-141.5 -24.5q-141 0 -234.5 82.5t-93.5 193.5q0 234 297 287zM410 39q154 0 261 110.5t107 270.5v133l-399 -72q-115 -20 -175.5 -79.5t-60.5 -145.5q0 -88 74 -152.5t193 -64.5zM410 1423l153 -256h-51l-174 256h72z" />
    <glyph glyph-name="aacute.salt" horiz-adv-x="1054" 
d="M379 543l399 71v11q0 145 -83 231t-214 86q-86 0 -160.5 -39t-105.5 -76l-31 -39l-41 41q4 6 13.5 18.5t41 42.5t67.5 53.5t94.5 42t121.5 18.5q156 0 257.5 -105.5t101.5 -273.5v-451q0 -53 32.5 -88t79.5 -35l62 10v-61q-20 -10 -62 -10q-78 0 -126 50t-48 134v31
q-4 -8 -12 -23.5t-40 -54.5t-70 -68.5t-104.5 -54t-141.5 -24.5q-141 0 -234.5 82.5t-93.5 193.5q0 234 297 287zM410 39q154 0 261 110.5t107 270.5v133l-399 -72q-115 -20 -175.5 -79.5t-60.5 -145.5q0 -88 74 -152.5t193 -64.5zM481 1157l154 256h72l-175 -256h-51z" />
    <glyph glyph-name="abreve.salt" horiz-adv-x="1054" 
d="M379 543l399 71v11q0 145 -83 231t-214 86q-86 0 -160.5 -39t-105.5 -76l-31 -39l-41 41q4 6 13.5 18.5t41 42.5t67.5 53.5t94.5 42t121.5 18.5q156 0 257.5 -105.5t101.5 -273.5v-451q0 -53 32.5 -88t79.5 -35l62 10v-61q-20 -10 -62 -10q-78 0 -126 50t-48 134v31
q-4 -8 -12 -23.5t-40 -54.5t-70 -68.5t-104.5 -54t-141.5 -24.5q-141 0 -234.5 82.5t-93.5 193.5q0 234 297 287zM410 39q154 0 261 110.5t107 270.5v133l-399 -72q-115 -20 -175.5 -79.5t-60.5 -145.5q0 -88 74 -152.5t193 -64.5zM522 1219q92 0 143.5 51t51.5 143h61
q0 -115 -70.5 -185.5t-185 -70.5t-185.5 70.5t-71 185.5h62q0 -92 51 -143t143 -51z" />
    <glyph glyph-name="acircumflex.salt" horiz-adv-x="1054" 
d="M379 543l399 71v11q0 145 -83 231t-214 86q-86 0 -160.5 -39t-105.5 -76l-31 -39l-41 41q4 6 13.5 18.5t41 42.5t67.5 53.5t94.5 42t121.5 18.5q156 0 257.5 -105.5t101.5 -273.5v-451q0 -53 32.5 -88t79.5 -35l62 10v-61q-20 -10 -62 -10q-78 0 -126 50t-48 134v31
q-4 -8 -12 -23.5t-40 -54.5t-70 -68.5t-104.5 -54t-141.5 -24.5q-141 0 -234.5 82.5t-93.5 193.5q0 234 297 287zM410 39q154 0 261 110.5t107 270.5v133l-399 -72q-115 -20 -175.5 -79.5t-60.5 -145.5q0 -88 74 -152.5t193 -64.5zM563 1413l215 -256h-71l-175 205
l-174 -205h-71l215 256h61z" />
    <glyph glyph-name="adieresis.salt" horiz-adv-x="1054" 
d="M379 543l399 71v11q0 145 -83 231t-214 86q-86 0 -160.5 -39t-105.5 -76l-31 -39l-41 41q4 6 13.5 18.5t41 42.5t67.5 53.5t94.5 42t121.5 18.5q156 0 257.5 -105.5t101.5 -273.5v-451q0 -53 32.5 -88t79.5 -35l62 10v-61q-20 -10 -62 -10q-78 0 -126 50t-48 134v31
q-4 -8 -12 -23.5t-40 -54.5t-70 -68.5t-104.5 -54t-141.5 -24.5q-141 0 -234.5 82.5t-93.5 193.5q0 234 297 287zM410 39q154 0 261 110.5t107 270.5v133l-399 -72q-115 -20 -175.5 -79.5t-60.5 -145.5q0 -88 74 -152.5t193 -64.5zM317 1290q0 51 51.5 51t51.5 -51
t-51.5 -51t-51.5 51zM645 1290q0 51 51.5 51t51.5 -51t-51.5 -51t-51.5 51z" />
    <glyph glyph-name="amacron.salt" horiz-adv-x="1054" 
d="M379 543l399 71v11q0 145 -83 231t-214 86q-86 0 -160.5 -39t-105.5 -76l-31 -39l-41 41q4 6 13.5 18.5t41 42.5t67.5 53.5t94.5 42t121.5 18.5q156 0 257.5 -105.5t101.5 -273.5v-451q0 -53 32.5 -88t79.5 -35l62 10v-61q-20 -10 -62 -10q-78 0 -126 50t-48 134v31
q-4 -8 -12 -23.5t-40 -54.5t-70 -68.5t-104.5 -54t-141.5 -24.5q-141 0 -234.5 82.5t-93.5 193.5q0 234 297 287zM410 39q154 0 261 110.5t107 270.5v133l-399 -72q-115 -20 -175.5 -79.5t-60.5 -145.5q0 -88 74 -152.5t193 -64.5zM799 1341v-61h-533v61h533z" />
    <glyph glyph-name="aogonek.salt" horiz-adv-x="1054" 
d="M410 39q154 0 261 110.5t107 270.5v133l-399 -72q-115 -20 -175.5 -79.5t-60.5 -145.5q0 -88 74 -152.5t193 -64.5zM778 174v31q-4 -8 -12 -23.5t-40 -54.5t-70 -68.5t-104.5 -54t-141.5 -24.5q-141 0 -234.5 82.5t-93.5 193.5q0 233 297 287l399 71v11q0 145 -83 231
t-214 86q-86 0 -160.5 -39t-105.5 -76l-31 -39l-41 41q4 6 13.5 18.5t41 42.5t67.5 53.5t94.5 42t121.5 18.5q156 0 257.5 -105.5t101.5 -273.5v-451q0 -53 32.5 -88t79.5 -35l62 10v-61q-18 -8 -53 -10q-131 -131 -132 -236q0 -47 35 -79.5t88 -32.5q33 0 64 10t45 20
l14 11v-52q-51 -41 -123 -41q-76 0 -125 47.5t-49 116.5q0 51 30 107.5t56.5 85t48.5 47.5q-61 12 -98 59t-37 121z" />
    <glyph glyph-name="aring.salt" horiz-adv-x="1054" 
d="M410 1310.5q0 -53.5 39.5 -93t93 -39.5t93.5 39.5t40 93t-40 93.5t-93.5 40t-93 -40t-39.5 -93.5zM737 1311q0 -78 -59.5 -136.5t-135 -58.5t-135 58.5t-59.5 136.5t59.5 136t135 58t135 -58t59.5 -136zM379 543l399 71v11q0 145 -83 231t-214 86q-86 0 -160.5 -39
t-105.5 -76l-31 -39l-41 41q4 6 13.5 18.5t41 42.5t67.5 53.5t94.5 42t121.5 18.5q156 0 257.5 -105.5t101.5 -273.5v-451q0 -53 32.5 -88t79.5 -35l62 10v-61q-20 -10 -62 -10q-78 0 -126 50t-48 134v31q-4 -8 -12 -23.5t-40 -54.5t-70 -68.5t-104.5 -54t-141.5 -24.5
q-141 0 -234.5 82.5t-93.5 193.5q0 234 297 287zM410 39q154 0 261 110.5t107 270.5v133l-399 -72q-115 -20 -175.5 -79.5t-60.5 -145.5q0 -88 74 -152.5t193 -64.5z" />
    <glyph glyph-name="atilde.salt" horiz-adv-x="1054" 
d="M379 543l399 71v11q0 145 -83 231t-214 86q-86 0 -160.5 -39t-105.5 -76l-31 -39l-41 41q4 6 13.5 18.5t41 42.5t67.5 53.5t94.5 42t121.5 18.5q156 0 257.5 -105.5t101.5 -273.5v-451q0 -53 32.5 -88t79.5 -35l62 10v-61q-20 -10 -62 -10q-78 0 -126 50t-48 134v31
q-4 -8 -12 -23.5t-40 -54.5t-70 -68.5t-104.5 -54t-141.5 -24.5q-141 0 -234.5 82.5t-93.5 193.5q0 234 297 287zM410 39q154 0 261 110.5t107 270.5v133l-399 -72q-115 -20 -175.5 -79.5t-60.5 -145.5q0 -88 74 -152.5t193 -64.5zM389 1321q-41 0 -61.5 -33t-20.5 -121h-61
q0 215 143 215q45 0 83 -23.5t61.5 -53t55.5 -53t66 -23.5q41 0 61.5 32.5t20.5 120.5h62q0 -215 -144 -215q-45 0 -82.5 23.5t-61.5 53.5t-55.5 53.5t-66.5 23.5z" />
    <glyph glyph-name="lacute.salt" horiz-adv-x="573" 
d="M184 1628l154 256h72l-174 -256h-52zM184 236v1198h62v-1198q0 -90 48 -142.5t126 -52.5q33 0 63.5 8t44.5 17l15 6v-62q-51 -31 -123 -30q-100 0 -168 71.5t-68 184.5z" />
    <glyph glyph-name="lcaron.salt" horiz-adv-x="573" 
d="M184 236v1198h62v-1198q0 -90 48 -142.5t126 -52.5q33 0 63.5 8t44.5 17l15 6v-62q-51 -31 -123 -30q-100 0 -168 71.5t-68 184.5zM399 1167l93 267h71l-112 -267h-52z" />
    <glyph glyph-name="uni013C.salt" horiz-adv-x="573" 
d="M184 236v1198h62v-1198q0 -90 48 -142.5t126 -52.5q33 0 63.5 8t44.5 17l15 6v-62q-51 -31 -123 -30q-100 0 -168 71.5t-68 184.5zM236 -430l92 266h71l-112 -266h-51z" />
    <glyph glyph-name="yacute.salt" horiz-adv-x="1177" 
d="M543 1157l153 256h72l-174 -256h-51zM922 20v267q-4 -10 -11.5 -25.5t-36 -56.5t-65.5 -72t-102.5 -56.5t-143.5 -25.5q-166 0 -277.5 119t-111.5 301v512h62v-512q0 -160 93 -259t234 -99q147 0 253 109.5t106 275.5v485h61v-963q0 -197 -121 -323.5t-299 -126.5
q-72 0 -137.5 21.5t-107.5 51t-73.5 59.5t-45.5 52l-15 21l52 41q4 -8 12 -20.5t37.5 -44.5t64.5 -56.5t92.5 -44t120.5 -19.5q156 0 257.5 107.5t101.5 281.5z" />
    <glyph glyph-name="ydieresis.salt" horiz-adv-x="1177" 
d="M922 20v267q-4 -10 -11.5 -25.5t-36 -56.5t-65.5 -72t-102.5 -56.5t-143.5 -25.5q-166 0 -277.5 119t-111.5 301v512h62v-512q0 -160 93 -259t234 -99q147 0 253 109.5t106 275.5v485h61v-963q0 -197 -121 -323.5t-299 -126.5q-72 0 -137.5 21.5t-107.5 51t-73.5 59.5
t-45.5 52l-15 21l52 41q4 -8 12 -20.5t37.5 -44.5t64.5 -56.5t92.5 -44t120.5 -19.5q156 0 257.5 107.5t101.5 281.5zM358 1290q0 51 51.5 51t51.5 -51t-51.5 -51t-51.5 51zM686 1290q0 51 51 51t51 -51t-51 -51t-51 51z" />
    <glyph glyph-name="ugrave.salt" horiz-adv-x="1177" 
d="M481 1423l154 -256h-51l-174 256h71zM1075 -10q-78 0 -126 50t-48 134v31q-4 -8 -10 -23.5t-34 -54.5t-62.5 -68.5t-96 -54t-135.5 -24.5q-162 0 -275.5 117.5t-113.5 291.5v594h62v-594q0 -152 94 -250t233 -98q143 0 240.5 108.5t97.5 270.5v563h62v-809
q0 -53 32.5 -88t79.5 -35l62 10v-61q-21 -10 -62 -10z" />
    <glyph glyph-name="uacute.salt" horiz-adv-x="1177" 
d="M553 1157l154 256h71l-174 -256h-51zM1075 -10q-78 0 -126 50t-48 134v31q-4 -8 -10 -23.5t-34 -54.5t-62.5 -68.5t-96 -54t-135.5 -24.5q-162 0 -275.5 117.5t-113.5 291.5v594h62v-594q0 -152 94 -250t233 -98q143 0 240.5 108.5t97.5 270.5v563h62v-809
q0 -53 32.5 -88t79.5 -35l62 10v-61q-21 -10 -62 -10z" />
    <glyph glyph-name="ucircumflex.salt" horiz-adv-x="1177" 
d="M1075 -10q-78 0 -126 50t-48 134v31q-4 -8 -10 -23.5t-34 -54.5t-62.5 -68.5t-96 -54t-135.5 -24.5q-162 0 -275.5 117.5t-113.5 291.5v594h62v-594q0 -152 94 -250t233 -98q143 0 240.5 108.5t97.5 270.5v563h62v-809q0 -53 32.5 -88t79.5 -35l62 10v-61
q-21 -10 -62 -10zM614 1413l215 -256h-71l-174 205l-174 -205h-72l215 256h61z" />
    <glyph glyph-name="udieresis.salt" horiz-adv-x="1177" 
d="M1075 -10q-78 0 -126 50t-48 134v31q-4 -8 -10 -23.5t-34 -54.5t-62.5 -68.5t-96 -54t-135.5 -24.5q-162 0 -275.5 117.5t-113.5 291.5v594h62v-594q0 -152 94 -250t233 -98q143 0 240.5 108.5t97.5 270.5v563h62v-809q0 -53 32.5 -88t79.5 -35l62 10v-61
q-21 -10 -62 -10zM358 1290q0 51 51.5 51t51.5 -51t-51.5 -51t-51.5 51zM686 1290q0 51 51 51t51 -51t-51 -51t-51 51z" />
    <glyph glyph-name="uhungarumlaut.salt" horiz-adv-x="1177" 
d="M1075 -10q-78 0 -126 50t-48 134v31q-4 -8 -10 -23.5t-34 -54.5t-62.5 -68.5t-96 -54t-135.5 -24.5q-162 0 -275.5 117.5t-113.5 291.5v594h62v-594q0 -152 94 -250t233 -98q143 0 240.5 108.5t97.5 270.5v563h62v-809q0 -53 32.5 -88t79.5 -35l62 10v-61
q-21 -10 -62 -10zM399 1157l154 256h72l-174 -256h-52zM676 1157l153 256h72l-174 -256h-51z" />
    <glyph glyph-name="umacron.salt" horiz-adv-x="1177" 
d="M1075 -10q-78 0 -126 50t-48 134v31q-4 -8 -10 -23.5t-34 -54.5t-62.5 -68.5t-96 -54t-135.5 -24.5q-162 0 -275.5 117.5t-113.5 291.5v594h62v-594q0 -152 94 -250t233 -98q143 0 240.5 108.5t97.5 270.5v563h62v-809q0 -53 32.5 -88t79.5 -35l62 10v-61
q-21 -10 -62 -10zM850 1321v-61h-533v61h533z" />
    <glyph glyph-name="uogonek.salt" horiz-adv-x="1177" 
d="M1137 0q-18 -8 -54 -10q-131 -131 -131 -236q0 -47 35 -79.5t88 -32.5q33 0 63.5 10t45.5 20l14 11v-52q-51 -41 -123 -41q-76 0 -125 47.5t-49 116.5q0 51 30 107.5t56.5 85t48.5 47.5q-61 12 -98 59t-37 121v31q-4 -8 -10 -23.5t-34 -54.5t-62.5 -68.5t-96 -54
t-135.5 -24.5q-162 0 -275.5 117.5t-113.5 291.5v594h62v-594q0 -152 94 -250t233 -98q143 0 240.5 108.5t97.5 270.5v563h62v-809q0 -53 32.5 -88t79.5 -35l62 10v-61z" />
    <glyph glyph-name="uring.salt" horiz-adv-x="1177" 
d="M451 1310.5q0 -53.5 39.5 -93t93 -39.5t93.5 39.5t40 93t-40 93.5t-93.5 40t-93 -40t-39.5 -93.5zM778 1311q0 -78 -59.5 -136.5t-135 -58.5t-135 58.5t-59.5 136.5t59.5 136t135 58t135 -58t59.5 -136zM1075 -10q-78 0 -126 50t-48 134v31q-4 -8 -10 -23.5t-34 -54.5
t-62.5 -68.5t-96 -54t-135.5 -24.5q-162 0 -275.5 117.5t-113.5 291.5v594h62v-594q0 -152 94 -250t233 -98q143 0 240.5 108.5t97.5 270.5v563h62v-809q0 -53 32.5 -88t79.5 -35l62 10v-61q-21 -10 -62 -10z" />
    <glyph glyph-name="a.salt" horiz-adv-x="1054" 
d="M379 543l399 71v11q0 145 -83 231t-214 86q-86 0 -160.5 -39t-105.5 -76l-31 -39l-41 41q4 6 13.5 18.5t41 42.5t67.5 53.5t94.5 42t121.5 18.5q156 0 257.5 -105.5t101.5 -273.5v-451q0 -53 32.5 -88t79.5 -35l62 10v-61q-20 -10 -62 -10q-78 0 -126 50t-48 134v31
q-4 -8 -12 -23.5t-40 -54.5t-70 -68.5t-104.5 -54t-141.5 -24.5q-141 0 -234.5 82.5t-93.5 193.5q0 234 297 287zM410 39q154 0 261 110.5t107 270.5v133l-399 -72q-115 -20 -175.5 -79.5t-60.5 -145.5q0 -88 74 -152.5t193 -64.5z" />
    <glyph glyph-name="l.salt" horiz-adv-x="573" 
d="M184 236v1198h62v-1198q0 -90 48 -142.5t126 -52.5q33 0 63.5 8t44.5 17l15 6v-62q-51 -31 -123 -30q-100 0 -168 71.5t-68 184.5z" />
    <glyph glyph-name="uni0443.salt" horiz-adv-x="962" 
d="M266 -430l174 430l-399 983h61l369 -901l369 901h61l-573 -1413h-62z" />
    <glyph glyph-name="y.salt" horiz-adv-x="1177" 
d="M922 20v267q-4 -10 -11.5 -25.5t-36 -56.5t-65.5 -72t-102.5 -56.5t-143.5 -25.5q-166 0 -277.5 119t-111.5 301v512h62v-512q0 -160 93 -259t234 -99q147 0 253 109.5t106 275.5v485h61v-963q0 -197 -121 -323.5t-299 -126.5q-72 0 -137.5 21.5t-107.5 51t-73.5 59.5
t-45.5 52l-15 21l52 41q4 -8 12 -20.5t37.5 -44.5t64.5 -56.5t92.5 -44t120.5 -19.5q156 0 257.5 107.5t101.5 281.5z" />
    <glyph glyph-name="u.salt" horiz-adv-x="1177" 
d="M1075 -10q-78 0 -126 50t-48 134v31q-4 -8 -10 -23.5t-34 -54.5t-62.5 -68.5t-96 -54t-135.5 -24.5q-162 0 -275.5 117.5t-113.5 291.5v594h62v-594q0 -152 94 -250t233 -98q143 0 240.5 108.5t97.5 270.5v563h62v-809q0 -53 32.5 -88t79.5 -35l62 10v-61
q-21 -10 -62 -10z" />
    <glyph glyph-name="uni0430.salt" horiz-adv-x="1054" 
d="M379 543l399 71v11q0 145 -83 231t-214 86q-86 0 -160.5 -39t-105.5 -76l-31 -39l-41 41q4 6 13.5 18.5t41 42.5t67.5 53.5t94.5 42t121.5 18.5q156 0 257.5 -105.5t101.5 -273.5v-451q0 -53 32.5 -88t79.5 -35l62 10v-61q-20 -10 -62 -10q-78 0 -126 50t-48 134v31
q-4 -8 -12 -23.5t-40 -54.5t-70 -68.5t-104.5 -54t-141.5 -24.5q-141 0 -234.5 82.5t-93.5 193.5q0 234 297 287zM410 39q154 0 261 110.5t107 270.5v133l-399 -72q-115 -20 -175.5 -79.5t-60.5 -145.5q0 -88 74 -152.5t193 -64.5z" />
    <glyph glyph-name="zero.dnom" horiz-adv-x="716" 
d="M143 358.5q0 -145.5 62.5 -226.5t153 -81t152.5 81t62 226.5t-62 226.5t-152.5 81t-153 -81t-62.5 -226.5zM635 358q0 -170 -82 -269t-194.5 -99t-194.5 99t-82 269t82 269.5t194.5 99.5t194.5 -99.5t82 -269.5z" />
    <glyph glyph-name="one.dnom" horiz-adv-x="399" 
d="M225 717h51v-717h-61v614q-51 -61 -154 -71v61q45 4 86 33t60 55z" />
    <glyph glyph-name="two.dnom" horiz-adv-x="563" 
d="M502 0h-461q0 84 41 149.5t100.5 106.5t117.5 77t99 83t41 104q0 63 -43 104.5t-110 41.5q-59 0 -102.5 -31t-57.5 -62l-14 -30l-62 20q2 6 6 17.5t23.5 40t43 50t68 39t95.5 17.5q92 0 153.5 -59.5t61.5 -145.5q0 -68 -36 -121t-90 -89t-110.5 -69.5t-103.5 -79.5
t-62 -102h402v-61z" />
    <glyph glyph-name="three.dnom" horiz-adv-x="583" 
d="M399 379q4 -2 13.5 -4t30 -15.5t37 -31t29.5 -50t13 -73.5q0 -92 -63.5 -153.5t-161.5 -61.5q-74 0 -137.5 30.5t-89.5 61.5l-29 31l41 41q8 -12 25.5 -28.5t74 -45.5t115.5 -29q76 0 120 42t44 112q0 63 -44 103t-120 40h-102v62h92q68 0 105.5 35.5t37.5 97.5
q0 55 -40 89t-114 34q-49 0 -93 -20.5t-62 -41.5l-19 -20l-41 41q8 12 25.5 28.5t74 45t115.5 28.5q98 0 157 -52t59 -132q0 -35 -9.5 -64.5t-23 -47t-27.5 -30t-22 -16.5z" />
    <glyph glyph-name="four.dnom" horiz-adv-x="604" 
d="M461 246h102v-62h-102v-184h-62v184h-358v62l348 471h72v-471zM399 246v399l-297 -399h297z" />
    <glyph glyph-name="five.dnom" horiz-adv-x="552" 
d="M276 451q100 0 168 -68t68 -168q0 -92 -68.5 -158.5t-167.5 -66.5q-74 0 -137 27.5t-90 56.5l-29 28l41 41q8 -10 25.5 -25.5t74 -41t115.5 -25.5q76 0 125.5 47t49.5 117q0 76 -49.5 125t-125.5 49q-41 0 -76.5 -18.5t-52.5 -34.5l-14 -19h-61l30 400h369v-62h-307
l-21 -256q51 52 133 52z" />
    <glyph glyph-name="six.dnom" horiz-adv-x="573" 
d="M287 481q100 0 172.5 -72.5t72.5 -173t-72.5 -173t-173 -72.5t-173 72.5t-72.5 173.5q0 41 15.5 85t29.5 66l16 23l195 307h61l-153 -256q31 20 82 20zM471 236q0 78 -53 131t-131 53t-131.5 -54.5t-53.5 -130t53.5 -130t131.5 -54.5t131 54.5t53 130.5z" />
    <glyph glyph-name="seven.dnom" horiz-adv-x="532" 
d="M41 717h451v-62l-287 -655h-62l287 655h-389v62z" />
    <glyph glyph-name="eight.dnom" horiz-adv-x="552" 
d="M276.5 51q73.5 0 124 44t50.5 100q0 63 -49.5 108t-125 45t-125 -45t-49.5 -108q0 -55 50.5 -99.5t124 -44.5zM276.5 410q61.5 0 102.5 38.5t41 94t-38 89.5t-105.5 34t-105.5 -34t-38 -89.5t41 -94t102.5 -38.5zM276 -10q-96 0 -165.5 62.5t-69.5 142.5q0 68 36 113.5
t70 58.5l37 12q-4 2 -12 5t-27.5 17.5t-34 31t-26.5 46t-12 64.5q0 78 57 131t147.5 53t147.5 -53t57 -131q0 -35 -11 -64.5t-27.5 -47t-34 -30t-27.5 -16.5l-12 -6l15 -5q9 -3 33.5 -16.5t44 -32t35 -53t15.5 -77.5q0 -80 -69 -142.5t-167 -62.5z" />
    <glyph glyph-name="nine.dnom" horiz-adv-x="573" 
d="M287 236q-100 0 -173 72.5t-73 173t72.5 173t173 72.5t173 -72.5t72.5 -173.5q0 -41 -15 -85t-30 -66l-16 -23l-195 -307h-61l154 256q-31 -20 -82 -20zM102 481q0 -78 53.5 -131t131.5 -53t131 54.5t53 130t-53 130t-131 54.5t-131.5 -54.5t-53.5 -130.5z" />
    <glyph glyph-name="zero.frac" horiz-adv-x="716" 
d="M143 1075.5q0 -145.5 62.5 -226.5t153 -81t152.5 81t62 226.5t-62 226t-152.5 80.5t-153 -80.5t-62.5 -226zM635 1075q0 -170 -82 -269t-194.5 -99t-194.5 99t-82 269t82 269.5t194.5 99.5t194.5 -99.5t82 -269.5z" />
    <glyph glyph-name="one.frac" horiz-adv-x="399" 
d="M225 1434h51v-717h-61v614q-51 -61 -154 -71v61q45 4 86 32.5t60 55.5z" />
    <glyph glyph-name="two.frac" horiz-adv-x="563" 
d="M502 717h-461q0 84 41 149.5t100.5 106.5t117.5 76.5t99 83t41 104.5q0 63 -43 104t-110 41q-59 0 -102.5 -30.5t-57.5 -61.5l-14 -30l-62 20q2 6 6 17.5t23.5 40t43 50t68 39t95.5 17.5q92 0 153.5 -59.5t61.5 -145.5q0 -68 -36 -121t-90 -89t-110.5 -69.5t-103.5 -79.5
t-62 -102h402v-61z" />
    <glyph glyph-name="three.frac" horiz-adv-x="583" 
d="M399 1096q4 -2 13.5 -4t30 -15.5t37 -31t29.5 -50t13 -73.5q0 -92 -63.5 -153.5t-161.5 -61.5q-74 0 -137.5 30.5t-89.5 61.5l-29 30l41 41q8 -12 25.5 -28.5t74 -45t115.5 -28.5q76 0 120 42t44 112q0 63 -44 103t-120 40h-102v61h92q68 0 105.5 36t37.5 98
q0 55 -40 88.5t-114 33.5q-49 0 -93 -20.5t-62 -40.5l-19 -21l-41 41q8 12 25.5 28.5t74 45.5t115.5 29q98 0 157 -52.5t59 -131.5q0 -35 -9.5 -65t-23 -47.5t-27.5 -29.5t-22 -16z" />
    <glyph glyph-name="four.frac" horiz-adv-x="604" 
d="M461 963h102v-62h-102v-184h-62v184h-358v62l348 471h72v-471zM399 963v399l-297 -399h297z" />
    <glyph glyph-name="five.frac" horiz-adv-x="552" 
d="M276 1167q100 0 168 -67.5t68 -167.5q0 -92 -68.5 -158.5t-167.5 -66.5q-74 0 -137 27.5t-90 56.5l-29 28l41 41q8 -10 25.5 -25.5t74 -41t115.5 -25.5q76 0 125.5 47t49.5 117q0 76 -49.5 125t-125.5 49q-41 0 -76.5 -18.5t-52.5 -34.5l-14 -19h-61l30 400h369v-62h-307
l-21 -256q51 51 133 51z" />
    <glyph glyph-name="six.frac" horiz-adv-x="573" 
d="M287 1198q100 0 172.5 -72.5t72.5 -173t-72.5 -173t-173 -72.5t-173 72.5t-72.5 172.5q0 41 15.5 85t29.5 67l16 22l195 308h61l-153 -256q31 20 82 20zM471 952q0 78 -53 131.5t-131 53.5t-131.5 -54.5t-53.5 -130t53.5 -130t131.5 -54.5t131 54t53 130z" />
    <glyph glyph-name="seven.frac" horiz-adv-x="532" 
d="M41 1434h451v-62l-287 -655h-62l287 655h-389v62z" />
    <glyph glyph-name="eight.frac" horiz-adv-x="552" 
d="M276.5 768q73.5 0 124 44t50.5 99q0 63 -49.5 108.5t-125 45.5t-125 -45t-49.5 -109q0 -55 50.5 -99t124 -44zM276.5 1126q61.5 0 102.5 39t41 94.5t-38 89t-105.5 33.5t-105.5 -33.5t-38 -89t41 -94.5t102.5 -39zM276 707q-96 0 -165.5 62t-69.5 142q0 68 36 114t70 58
l37 13q-4 2 -12 5t-27.5 17.5t-34 30.5t-26.5 46t-12 65q0 78 57 131t147.5 53t147.5 -53.5t57 -130.5q0 -35 -11 -65t-27.5 -47.5t-34 -29.5t-27.5 -16l-12 -6q6 -2 15 -5.5t33.5 -16.5t44 -31.5t35 -53.5t15.5 -78q0 -80 -69 -142t-167 -62z" />
    <glyph glyph-name="nine.frac" horiz-adv-x="573" 
d="M287 952q-100 0 -173 73t-73 173t72.5 173t173 73t173 -73t72.5 -173q0 -41 -15 -85t-30 -66l-16 -23l-195 -307h-61l154 256q-31 -21 -82 -21zM102 1198q0 -78 53.5 -131t131.5 -53t131 54t53 130t-53 130t-131 54t-131.5 -54t-53.5 -130z" />
    <glyph glyph-name="glyph532" horiz-adv-x="3149" 
d="M569 942v-63h-147v-408h-72v408h-145v63h364zM1063 811q66 0 112 -51t46 -121q0 -74 -46.5 -124t-111.5 -50q-59 0 -96 43v-162h-70v459h49l19 -39q39 45 98 45zM1057 528q39 0 67.5 33t28.5 78q0 43 -28.5 74.5t-67.5 31.5t-67.5 -31.5t-28.5 -74.5q0 -45 27.5 -78
t68.5 -33zM682 567l90 238h76l-158 -389q-33 -70 -100 -70q-14 0 -21 2v58q47 0 64 40l12 33l-129 326h76zM1435.5 811q65.5 0 110.5 -50t45 -120l-2 -31h-243q4 -35 29.5 -59.5t60.5 -24.5q55 0 75 35h72q-18 -45 -58 -70.5t-89 -25.5q-66 0 -113 50t-47 124q0 72 47 122
t112.5 50zM1346 666h180q-2 35 -30 58.5t-60.5 23.5t-59 -22.5t-30.5 -59.5zM1923 942v-63h-147v-408h-72v408h-145v63h364zM2417 811q66 0 111.5 -51t45.5 -121q0 -74 -46 -124t-111 -50q-59 0 -97 43v-162h-69v459h49l18 -39q40 45 99 45zM2410 528q39 0 68 33t29 78
q0 43 -29 74.5t-67.5 31.5t-67.5 -31.5t-29 -74.5q0 -45 27.5 -78t68.5 -33zM2036 567l90 238h76l-158 -389q-33 -70 -100 -70q-14 0 -21 2v58q47 0 64 40l12 33l-129 326h76zM2789.5 811q65.5 0 110.5 -50t45 -120l-2 -31h-244q4 -35 30 -59.5t60 -24.5q55 0 76 35h72
q-18 -45 -58 -70.5t-90 -25.5q-66 0 -112.5 50t-46.5 124q0 72 47 122t112.5 50zM2699 666h180q-2 35 -29.5 58.5t-60 23.5t-59.5 -22.5t-31 -59.5z" />
    </font>
</defs>
</svg>
