<?xml version="1.0" standalone="no"?>
<!DOCTYPE svg PUBLIC "-//W3C//DTD SVG 1.1//EN" "http://www.w3.org/Graphics/SVG/1.1/DTD/svg11.dtd" >
<svg xmlns="http://www.w3.org/2000/svg" xmlns:xlink="http://www.w3.org/1999/xlink" version="1.1">
<metadata>
Created by FontForge 20170731 at Tue May 30 07:19:16 2017
 By Aleksey,,,
Copyright (c) 2017 by TypeType. Designers Ivan Gladkikh, Pavel Emelyanov. Technical designers Olexa Volochay, Nadyr Rakhimov, Dmitriy Greshnev. All rights reserved.
</metadata>
<defs>
<font id="TTNorms-Italic" horiz-adv-x="1187" >
  <font-face 
    font-family="TT Norms Italic"
    font-weight="400"
    font-style="italic"
    font-stretch="normal"
    units-per-em="2048"
    panose-1="2 0 5 3 2 0 0 9 0 3"
    ascent="1638"
    descent="-410"
    x-height="983"
    cap-height="1434"
    bbox="-379 -451 2945 1976"
    underline-thickness="0"
    underline-position="0"
    unicode-range="U+000D-FB06"
  />
<missing-glyph horiz-adv-x="0" 
 />
    <glyph glyph-name="ij" unicode="ij" horiz-adv-x="1003" 
d="M563 -143l35 163q-78 -41 -190 -40q-121 0 -198 76.5t-77 199.5q0 37 10 84l138 643h143l-137 -643q-6 -33 -6 -61q0 -76 43 -121t120 -45q41 0 87.5 13t70.5 26l27 12l174 819h143l-239 -1126q-59 -287 -322 -287q-33 0 -63.5 8t-45.5 16l-14 7l29 133q45 -31 106 -31
q131 0 166 154zM322 1296q0 43 30.5 75t75.5 32q33 0 57.5 -23.5t24.5 -56.5q0 -43 -33 -73.5t-76 -30.5q-33 0 -56 23t-23 54zM842 1296q0 43 30.5 75t75.5 32q33 0 57.5 -23.5t24.5 -56.5q0 -43 -32.5 -73.5t-75.5 -30.5q-33 0 -56.5 23t-23.5 54z" />
    <glyph glyph-name="uniFB00" unicode="ff" horiz-adv-x="1239" 
d="M1284 983l-29 -133h-235l-180 -850h-144l181 850h-441l-180 -850h-143l180 850h-154l29 133h154l28 143q27 137 114 212t210 75q37 0 71.5 -8t53.5 -16l16 -7l-29 -133q-51 31 -122 31q-61 0 -108.5 -40t-61.5 -114l-29 -143h440l39 184q29 137 114 212t208 75
q37 0 71.5 -8t51.5 -16l18 -7l-29 -133q-49 31 -121 31q-66 0 -110.5 -39t-59.5 -115l-38 -184h235z" />
    <glyph glyph-name="uniFB01" unicode="fi" horiz-adv-x="1105" 
d="M696 0l181 850h-441l-180 -850h-143l180 850h-154l29 133h154l38 184q29 137 113 212t207 75q37 0 72.5 -8t54.5 -16l16 -7l-28 -133q-49 31 -121 31q-63 0 -109.5 -40t-60.5 -114l-39 -184h584l-209 -983h-144zM944 1296q0 43 31 75t76 32q33 0 57.5 -23.5t24.5 -56.5
q0 -43 -33 -73.5t-76 -30.5q-33 0 -56.5 23t-23.5 54z" />
    <glyph glyph-name="uniFB02" unicode="fl" horiz-adv-x="1126" 
d="M707 0l229 1087q6 25 6 50q0 80 -54 132t-134 52q-92 0 -171 -67.5t-98 -166.5l-20 -104h235l-28 -133h-236l-180 -850h-143l180 850h-154l29 133h154l20 104q29 154 151.5 260.5t274.5 106.5q135 0 226 -85t91 -212q0 -35 -6 -70l-229 -1087h-143z" />
    <glyph glyph-name="uniFB03" unicode="ffi" horiz-adv-x="1689" 
d="M1280 0l180 850h-440l-180 -850h-144l181 850h-441l-180 -850h-143l180 850h-154l29 133h154l28 143q31 137 116 212t208 75q37 0 71.5 -8t53.5 -16l16 -7l-29 -133q-49 31 -120 31q-137 0 -172 -154l-29 -143h440l39 184q29 137 114 212t208 75q37 0 71.5 -8t51.5 -16
l18 -7l-29 -133q-47 31 -118 31q-63 0 -110.5 -40t-62.5 -114l-38 -184h583l-209 -983h-143zM1528 1296q0 43 30.5 75t75.5 32q33 0 57.5 -23.5t24.5 -56.5q0 -43 -32.5 -73.5t-75.5 -30.5q-33 0 -56.5 23t-23.5 54z" />
    <glyph glyph-name="uniFB06" unicode="st" horiz-adv-x="1607" 
d="M840 870l-115 -96q-8 10 -24.5 26.5t-74 43t-120.5 26.5q-92 0 -146.5 -46t-54.5 -109q0 -55 69.5 -97.5t152.5 -69t153 -88t70 -149.5q0 -145 -110 -238t-294 -93q-70 0 -130 18t-98 43t-65.5 50.5t-40.5 43.5l-12 19l115 96q10 -16 29.5 -39t84 -60.5t138.5 -37.5
q113 0 174 49t61 129q0 59 -69.5 102t-152.5 69.5t-152.5 86t-69.5 145.5q0 127 103.5 218.5t264.5 91.5q61 0 127 -19q-14 57 -14 80q0 154 126 271.5t290 117.5q143 0 242.5 -81t99.5 -202q0 -33 -6 -65l-25 -123h215l-29 -133h-215l-125 -584q-6 -29 -6 -49
q0 -104 107 -104q33 0 67.5 8t53.5 14l18 8l-27 -133q-70 -31 -147 -30q-104 0 -161.5 52t-57.5 148q0 35 10 86l125 584h-184l28 133h185l24 123q4 29 4 41q0 76 -58 125t-146 49q-117 0 -193 -82t-76 -205q1 -92 62 -164z" />
    <glyph glyph-name="c_t.liga" unicode="ct" horiz-adv-x="1771" 
d="M82 403q0 233 172 417t416 184q78 0 151 -27q-18 41 -18 88q0 156 132 272.5t304 116.5q135 0 229.5 -79t94.5 -195q0 -25 -9 -74l-24 -123h215l-29 -133h-215l-125 -584q-6 -29 -6 -49q0 -104 107 -104q33 0 67.5 8t52.5 14l19 8l-27 -133q-70 -31 -147 -30
q-104 0 -161.5 52t-57.5 148q0 35 10 86l125 584h-184l28 133h184l25 123q6 25 6 49q0 72 -54 119t-134 47q-125 0 -206 -78t-81 -196q0 -102 109 -238l-111 -92q-4 6 -12 16t-35 37t-58.5 47.5t-82 36.5t-105.5 16q-160 0 -290 -134t-130 -320q0 -127 83 -215t202 -88
q55 0 108.5 16t92.5 40t68.5 48.5t45.5 40.5l15 16l88 -90q-6 -8 -19.5 -22.5t-57.5 -49t-90 -61t-118 -49t-143 -22.5q-174 0 -297 124.5t-123 298.5z" />
    <glyph glyph-name="s_p.liga" unicode="sp" horiz-adv-x="2109" 
d="M840 870l-115 -96q-8 10 -24.5 26.5t-74 43t-120.5 26.5q-92 0 -146.5 -46t-54.5 -109q0 -55 69.5 -97.5t152.5 -69t153 -88t70 -149.5q0 -145 -110 -238t-294 -93q-70 0 -130 18t-98 43t-65.5 50.5t-40.5 43.5l-12 19l115 96q10 -16 29.5 -39t84 -60.5t138.5 -37.5
q113 0 174 49t61 129q0 59 -69.5 102t-152.5 69.5t-152.5 86t-69.5 145.5q0 127 103.5 218.5t264.5 91.5q59 0 129 -19q-16 33 -16 80q0 154 119 271.5t276 117.5q119 0 210 -83t91 -202q0 -33 -6 -63l-59 -268q6 6 16 17t46 40t75 50.5t99.5 40t123.5 18.5q160 0 279 -126
t119 -298q0 -246 -180.5 -423t-393.5 -177q-63 0 -119.5 18t-93.5 45t-63.5 54.5t-38.5 45.5l-13 19l-125 -592h-143l328 1536q4 29 4 43q0 74 -48 123t-112 49q-102 0 -177 -83t-75 -204q0 -88 53 -155zM1614 870q-160 0 -293 -148.5t-133 -320.5q0 -125 84 -206.5
t201 -81.5q143 0 276 137t133 319q0 127 -79.5 214t-188.5 87z" />
    <glyph glyph-name="f_t.liga" unicode="ft" horiz-adv-x="1310" 
d="M956 1085l50 226h133l-70 -328h215l-29 -133h-215l-125 -584q-31 -154 101 -153q33 0 67.5 8t53.5 14l18 8l-27 -133q-70 -31 -147 -30q-127 0 -182.5 74.5t-26.5 211.5l125 584h-461l-180 -850h-143l180 850h-154l29 133h154l38 184q29 137 113 212t207 75q37 0 72.5 -8
t54.5 -16l16 -7l-28 -133q-47 31 -119 31q-63 0 -110.5 -40t-61.5 -114l-39 -184h389q82 0 102 102z" />
    <glyph glyph-name=".notdef" horiz-adv-x="0" 
 />
    <glyph glyph-name="glyph1" horiz-adv-x="0" 
 />
    <glyph glyph-name="glyph1" horiz-adv-x="0" 
 />
    <glyph glyph-name="uni000D" unicode="&#xd;" horiz-adv-x="0" 
 />
    <glyph glyph-name="space" unicode=" " horiz-adv-x="389" 
 />
    <glyph glyph-name="exclam" unicode="!" horiz-adv-x="634" 
d="M360 348h-122l198 1086h185zM143 66q0 47 31 82.5t80 35.5q45 0 71.5 -23.5t26.5 -62.5q0 -53 -32.5 -85.5t-79.5 -32.5q-45 0 -71 23.5t-26 62.5z" />
    <glyph glyph-name="quotedbl" unicode="&#x22;" horiz-adv-x="716" 
d="M477 1434l-90 -430h-133l90 430h133zM795 1434l-90 -430h-134l91 430h133z" />
    <glyph glyph-name="numbersign" unicode="#" horiz-adv-x="1484" 
d="M1286 1434h133l-170 -420h318l-49 -133h-322l-133 -328h303l-49 -133h-309l-168 -420h-133l167 420h-389l-168 -420h-133l168 420h-315l49 133h322l133 328h-303l49 133h307l170 420h133l-170 -420h389zM674 881l-133 -328h389l133 328h-389z" />
    <glyph glyph-name="dollar" unicode="$" horiz-adv-x="1157" 
d="M526 123q145 0 257 73.5t112 219.5q0 78 -66.5 133t-163 92t-191.5 78t-161.5 115.5t-66.5 179.5q0 180 130 304t351 134l45 207h143l-45 -215q90 -16 168 -60.5t109 -78.5l33 -35l-115 -99q-4 6 -12.5 15.5t-38 33t-62 42t-88 34t-114.5 15.5q-160 0 -253.5 -80
t-93.5 -195q0 -78 68 -133t163 -92t190.5 -78t163 -115.5t67.5 -179.5q0 -199 -133.5 -321.5t-362.5 -134.5l-45 -207h-143l45 211q-117 16 -210 68t-128 98l-37 43l109 100q4 -6 13 -18.5t43 -42t72.5 -52t106 -41t141.5 -18.5z" />
    <glyph glyph-name="percent" unicode="%" horiz-adv-x="1556" 
d="M164 0l1196 1434h151l-1196 -1434h-151zM870 1171q0 -135 -107.5 -243.5t-250.5 -108.5q-125 0 -208 82t-83 199q0 141 110.5 247.5t248.5 106.5q125 0 207.5 -82t82.5 -201zM526 940q82 0 146.5 69.5t64.5 155.5q0 74 -47 121t-123 47q-80 0 -145.5 -66.5t-65.5 -158.5
q0 -74 47 -121t123 -47zM1450 332q0 -135 -107.5 -243.5t-250.5 -108.5q-125 0 -208 81.5t-83 198.5q0 141 110.5 247.5t247.5 106.5q125 0 208 -81.5t83 -200.5zM1106 100q82 0 146.5 70t64.5 156q0 74 -47 121t-123 47q-80 0 -145.5 -67t-65.5 -159q0 -74 47 -121t123 -47
z" />
    <glyph glyph-name="ampersand" unicode="&#x26;" horiz-adv-x="1280" 
d="M1018 1196q0 -225 -359 -459l238 -393q14 16 36.5 45t70 120t67.5 187h131q-27 -123 -85 -239.5t-105 -171.5l-45 -56q6 -12 16 -31.5t47 -52t76 -32.5l65 10l-28 -133q-37 -10 -72 -10q-63 0 -114.5 40.5t-71.5 81.5l-19 39q-18 -18 -51 -44.5t-139.5 -71.5t-214.5 -45
q-156 0 -252 92t-96 213q0 76 38.5 152.5t94 131t111 98.5t94.5 66l38 21q-16 23 -39.5 59.5t-63.5 130.5t-40 166q0 145 109.5 244.5t259.5 99.5q121 0 212 -77t91 -181zM801 240l-250 422q-12 -6 -32.5 -19.5t-73 -54.5t-92.5 -82t-72.5 -99.5t-32.5 -111.5
q0 -80 59.5 -131t169.5 -51q82 0 163 31.5t122 64.5zM705 1321q-92 0 -157 -58.5t-65 -152.5q0 -53 30 -120.5t60 -108.5l29 -41q10 6 29.5 18t66.5 50t84 75t67 87t30 93q0 66 -51 112t-123 46z" />
    <glyph glyph-name="quotesingle" unicode="'" horiz-adv-x="399" 
d="M477 1434l-90 -430h-133l90 430h133z" />
    <glyph glyph-name="parenleft" unicode="(" horiz-adv-x="686" 
d="M313 512q-33 -156 -32 -295q0 -166 39.5 -317.5t78.5 -218.5l39 -70l-125 -62q-6 10 -17 29t-41 81t-51.5 131t-40 177.5t-18.5 220.5q0 557 375 1057q117 156 203 230l98 -62q-16 -14 -42.5 -42t-101.5 -119t-137.5 -189t-128 -248.5t-98.5 -302.5z" />
    <glyph glyph-name="parenright" unicode=")" horiz-adv-x="686" 
d="M406 512q31 143 30 291q0 168 -40 320.5t-79 219.5l-38 70l127 62q6 -10 17 -29t41 -82.5t51.5 -132t39.5 -178t18 -222.5q0 -123 -20.5 -246.5t-53 -227t-76.5 -203t-92 -177t-97.5 -148.5t-91.5 -121t-76.5 -87t-53.5 -55l-16 -17l-98 62q16 14 42.5 42t100.5 119
t136.5 189t129 248.5t99.5 302.5z" />
    <glyph glyph-name="asterisk" unicode="*" horiz-adv-x="798" 
d="M526 1014l-196 -230l-86 76l219 215l-244 62l66 112l229 -82l35 267h123l-76 -267l262 82l16 -112l-268 -62l129 -215l-98 -72z" />
    <glyph glyph-name="plus" unicode="+" horiz-adv-x="1054" 
d="M530 143h-133l84 389h-379l29 134h379l82 389h133l-82 -389h379l-29 -134h-379z" />
    <glyph glyph-name="comma" unicode="," horiz-adv-x="440" 
d="M125 184l131 -82l-313 -368l-82 51z" />
    <glyph glyph-name="hyphen" unicode="-" horiz-adv-x="870" 
d="M829 676l-28 -133h-686l28 133h686z" />
    <glyph glyph-name="period" unicode="." horiz-adv-x="430" 
d="M35 66q0 47 30.5 82.5t79.5 35.5q45 0 72 -23.5t27 -62.5q0 -53 -33 -85.5t-80 -32.5q-45 0 -70.5 23.5t-25.5 62.5z" />
    <glyph glyph-name="slash" unicode="/" horiz-adv-x="890" 
d="M1034 1454l-1007 -1884h-138l1006 1884h139z" />
    <glyph glyph-name="zero" unicode="0" horiz-adv-x="1392" 
d="M645 123q170 0 301 126t191.5 296t60.5 338q0 190 -97 309t-235 119q-170 0 -301 -126t-191.5 -296t-60.5 -338q0 -190 97.5 -309t234.5 -119zM635 -20q-193 0 -335 160.5t-142 402.5q0 211 66.5 388t172 288.5t230.5 173t250 61.5q193 0 335 -160.5t142 -402.5
q0 -211 -66.5 -388t-172 -289t-230.5 -173t-250 -61z" />
    <glyph glyph-name="one" unicode="1" horiz-adv-x="716" 
d="M600 1434h113l-303 -1434h-154l244 1147h-267l19 92q70 2 131 23.5t99 49t65.5 55.5t40.5 46z" />
    <glyph glyph-name="two" unicode="2" horiz-adv-x="1126" 
d="M911 0h-921q27 127 96.5 233.5t159.5 177t191.5 133t197.5 118t175 114t127 136t48 171.5q0 98 -74.5 163t-197.5 65q-72 0 -133.5 -25.5t-99.5 -61.5t-64.5 -72t-36.5 -62l-10 -25l-121 61q4 14 14 36t49 78t88.5 99t137.5 79t190 36q176 0 294 -105.5t118 -252.5
q0 -121 -55.5 -222.5t-141.5 -167t-195.5 -134t-211 -123t-194.5 -135.5t-142 -171h741z" />
    <glyph glyph-name="three" unicode="3" horiz-adv-x="1146" 
d="M825 752q8 -4 21.5 -10.5t48.5 -33t61.5 -57t48 -85t21.5 -115.5q0 -193 -146.5 -332t-394.5 -139q-92 0 -175 22.5t-135 53t-91 62.5t-55 54l-19 23l115 96q4 -6 13 -17.5t43 -41t72 -51t102.5 -40t136.5 -18.5q172 0 279.5 90t107.5 225q0 100 -69 169t-200 69h-159
l30 143h117q145 0 254 81t109 212q0 82 -70 140.5t-180 58.5q-59 0 -117.5 -16.5t-97.5 -41t-70 -49t-45 -41.5l-14 -16l-80 113q6 8 18 21t55 46t90.5 58.5t124 47t156.5 21.5q164 0 274.5 -97t110.5 -229q0 -236 -221 -348q-58 -28 -70 -28z" />
    <glyph glyph-name="four" unicode="4" horiz-adv-x="1198" 
d="M944 451h184l-30 -144h-185l-63 -307h-154l64 307h-727l37 174l880 953h203zM791 451l172 809l-746 -809h574z" />
    <glyph glyph-name="five" unicode="5" horiz-adv-x="1249" 
d="M723 922q176 0 290.5 -114t114.5 -278q0 -244 -162.5 -397t-408.5 -153q-88 0 -168 22.5t-130 53t-87 62.5t-53 54l-17 23l119 98q4 -6 13.5 -18.5t40 -41t68.5 -51t99.5 -41t130.5 -18.5q172 0 286 109.5t114 283.5q0 115 -76 188.5t-199 73.5q-96 0 -182 -39t-123 -75
l-37 -39h-112l223 809h768l-31 -144h-631l-124 -450q12 8 32.5 22.5t92 37t149.5 22.5z" />
    <glyph glyph-name="six" unicode="6" horiz-adv-x="1208" 
d="M700 922q176 0 292 -113t116 -274q0 -236 -169 -395.5t-413 -159.5q-186 0 -304 107.5t-118 268.5q0 207 160 400l2 2l576 676h168l-451 -533q47 21 141 21zM545 123q168 0 287.5 111.5t119.5 283.5q0 115 -74.5 187.5t-201.5 72.5q-174 0 -295 -110.5t-121 -284.5
q0 -115 78 -187.5t207 -72.5z" />
    <glyph glyph-name="seven" unicode="7" horiz-adv-x="1013" 
d="M272 1434h902l-31 -144l-907 -1290h-166l907 1290h-735z" />
    <glyph glyph-name="eight" unicode="8" horiz-adv-x="1208" 
d="M698 840q137 0 225.5 76.5t88.5 195.5q0 82 -66.5 140.5t-171.5 58.5q-135 0 -221 -78t-86 -197q0 -82 63.5 -139t167.5 -57zM793 1454q154 0 263 -101.5t109 -230.5q-2 -233 -254 -352q8 -4 19.5 -12t42.5 -36t54.5 -59.5t43 -84t19.5 -109.5q0 -201 -164 -345
t-394 -144q-178 0 -299.5 113.5t-121.5 264.5q0 43 8 84t20.5 74t34 64.5t37.5 52t46 44t44 36t45 29t38 20.5t31.5 14t18.5 8l4 2h2q-14 10 -35.5 29t-57.5 84.5t-36 136.5q0 166 141.5 292t340.5 126zM659 717q-158 0 -275.5 -105.5t-117.5 -238.5q0 -102 79 -176t208 -74
q164 0 272.5 101.5t108.5 234.5q0 102 -79 180t-196 78z" />
    <glyph glyph-name="nine" unicode="9" horiz-adv-x="1208" 
d="M627 512q-176 0 -292 112.5t-116 274.5q0 236 169 395.5t413 159.5q186 0 304 -107.5t118 -269.5q0 -207 -160 -399l-2 -2l-576 -676h-168l451 532q-47 -20 -141 -20zM782 1311q-168 0 -287.5 -112t-119.5 -284q0 -115 74.5 -187.5t201.5 -72.5q174 0 295 111t121 285
q0 115 -78 187.5t-207 72.5z" />
    <glyph glyph-name="colon" unicode=":" horiz-adv-x="430" 
d="M35 66q0 47 30.5 82.5t79.5 35.5q45 0 72 -23.5t27 -62.5q0 -53 -33 -85.5t-80 -32.5q-45 0 -70.5 23.5t-25.5 62.5zM209 885q0 47 30.5 83t79.5 36q45 0 72 -24t27 -62q0 -53 -33 -86t-80 -33q-45 0 -70.5 23.5t-25.5 62.5z" />
    <glyph glyph-name="semicolon" unicode=";" horiz-adv-x="450" 
d="M209 885q0 47 30.5 83t79.5 36q45 0 72 -24t27 -62q0 -53 -33 -86t-80 -33q-45 0 -70.5 23.5t-25.5 62.5zM125 184l131 -82l-313 -368l-82 51z" />
    <glyph glyph-name="less" unicode="&#x3c;" horiz-adv-x="1013" 
d="M96 461l19 82l923 440l-32 -152l-717 -337l573 -338l-28 -136z" />
    <glyph glyph-name="equal" unicode="=" horiz-adv-x="1013" 
d="M934 492l-29 -134h-829l28 134h830zM1010 850l-29 -133h-829l28 133h830z" />
    <glyph glyph-name="greater" unicode="&#x3e;" horiz-adv-x="1013" 
d="M944 543l-18 -82l-924 -441l33 152l717 338l-574 338l29 135z" />
    <glyph glyph-name="question" unicode="?" horiz-adv-x="1075" 
d="M430 440q20 92 82.5 170t137.5 130.5t147.5 103.5t121 116.5t48.5 145.5q0 86 -71 145.5t-187 59.5q-74 0 -138.5 -23.5t-101.5 -57.5t-64.5 -67t-37.5 -57l-11 -23l-129 43q4 14 14.5 36t50.5 78t90 99t139 79t192 36q174 0 292.5 -101.5t118.5 -236.5
q0 -113 -50 -197.5t-125 -140t-151.5 -105.5t-141 -122t-83.5 -162l-8 -41h-143q0 49 8 92zM350 66q0 47 31 82.5t80 35.5q45 0 71.5 -23.5t26.5 -62.5q0 -53 -32.5 -85.5t-80.5 -32.5q-45 0 -70.5 23.5t-25.5 62.5z" />
    <glyph glyph-name="at" unicode="@" horiz-adv-x="1843" 
d="M958 758q-106 0 -191 -90t-85 -228q0 -84 54.5 -139t133.5 -55q113 0 200 93t87 230q0 86 -56.5 137.5t-142.5 51.5zM965 881q49 0 92 -12.5t68.5 -29t45 -34t27.5 -29.5l8 -12l23 106h123l-101 -467q-6 -35 -6 -57q0 -100 105 -100q92 0 174 102.5t82 321.5
q0 211 -159 354t-400 143q-307 0 -539 -222t-232 -544q0 -225 147.5 -384.5t375.5 -159.5q109 0 212 34.5t152 69.5l49 35l56 -98q-8 -6 -22.5 -17.5t-61.5 -40t-99.5 -50t-133.5 -39t-165 -17.5q-270 0 -456.5 196.5t-186.5 462.5q0 236 130 445t343 330.5t445 121.5
q287 0 482.5 -180t195.5 -434q0 -268 -127 -410.5t-283 -142.5q-74 0 -122 36t-60 70l-12 37q-4 -6 -12.5 -15t-38 -33.5t-62.5 -44t-84 -35t-107 -15.5q-119 0 -201.5 92t-82.5 219q0 186 128 316.5t290 130.5z" />
    <glyph glyph-name="A" unicode="A" horiz-adv-x="1433" 
d="M1020 543l-133 676l-420 -676h553zM1051 399h-676l-248 -399h-168l897 1434h143l291 -1434h-160z" />
    <glyph glyph-name="B" unicode="B" horiz-adv-x="1372" 
d="M1073 762q6 -4 18.5 -11.5t41 -34t51 -57t41 -82t18.5 -106.5q0 -205 -147.5 -338t-368.5 -133h-604l303 1434h532q150 0 250.5 -94.5t100.5 -223.5q-3 -248 -236 -354zM305 143h451q145 0 237 88t92 228q0 98 -64.5 167.5t-172.5 69.5h-424zM928 1290h-379l-96 -459h393
q129 0 218 74t89 199q0 80 -63.5 133t-161.5 53z" />
    <glyph glyph-name="C" unicode="C" horiz-adv-x="1536" 
d="M164 604q0 217 113.5 412.5t314.5 316.5t436 121q109 0 208 -30.5t161.5 -73.5t110.5 -87t69 -75l20 -31l-114 -88q-6 10 -17.5 26.5t-53.5 57.5t-91 72.5t-132 58.5t-175 27q-279 0 -485.5 -203t-206.5 -498q0 -205 141 -346t352 -141q92 0 178 25.5t144.5 62.5
t103.5 72.5t66 60.5l22 27l90 -95q-10 -12 -27.5 -31.5t-78 -70.5t-127 -91t-171 -71.5t-212.5 -31.5q-264 0 -451.5 186t-187.5 438z" />
    <glyph glyph-name="D" unicode="D" horiz-adv-x="1536" 
d="M426 1434h426q270 0 452.5 -181.5t182.5 -429.5q0 -334 -260 -578.5t-613 -244.5h-491zM831 1290h-282l-244 -1147h326q285 0 492.5 197t207.5 471q0 199 -141.5 339t-358.5 140z" />
    <glyph glyph-name="E" unicode="E" horiz-adv-x="1310" 
d="M305 143h850l-29 -143h-1003l303 1434h983l-31 -144h-829l-98 -471h665l-31 -143h-665z" />
    <glyph glyph-name="F" unicode="F" horiz-adv-x="1259" 
d="M426 1434h973l-31 -144h-819l-105 -491h656l-29 -144h-655l-140 -655h-153z" />
    <glyph glyph-name="G" unicode="G" horiz-adv-x="1628" 
d="M164 600q0 221 115.5 417.5t317.5 316.5t437 120q109 0 207 -30.5t160.5 -73.5t108.5 -87t67 -75l20 -31l-114 -88q-6 10 -17.5 26.5t-53.5 57.5t-91 72.5t-132 58.5t-175 27q-279 0 -485.5 -203t-206.5 -498q0 -203 144 -345t355 -142q86 0 165 20.5t131 49t92 56
t57 48.5l18 20l59 277h-327l31 143h481l-98 -461q-10 -12 -29 -31.5t-80 -70.5t-129 -91t-174.5 -71.5t-214.5 -31.5q-264 0 -451.5 184t-187.5 436z" />
    <glyph glyph-name="H" unicode="H" horiz-adv-x="1536" 
d="M123 0l303 1434h154l-136 -635h799l135 635h154l-303 -1434h-154l139 655h-798l-140 -655h-153z" />
    <glyph glyph-name="I" unicode="I" horiz-adv-x="583" 
d="M123 0l303 1434h154l-304 -1434h-153z" />
    <glyph glyph-name="J" unicode="J" horiz-adv-x="1013" 
d="M866 1434h154l-215 -1014q-41 -197 -172 -318.5t-320 -121.5q-100 0 -189 40.5t-128 81.5l-39 41l117 99q10 -12 28.5 -33t82 -53.5t137.5 -32.5q129 0 215 79t114 218z" />
    <glyph glyph-name="K" unicode="K" horiz-adv-x="1372" 
d="M410 637l907 797h194l-669 -598l413 -836h-172l-360 729l-358 -309l-89 -420h-153l303 1434h154z" />
    <glyph glyph-name="L" unicode="L" horiz-adv-x="1146" 
d="M1014 0h-891l303 1434h154l-275 -1291h737z" />
    <glyph glyph-name="M" unicode="M" horiz-adv-x="1884" 
d="M1671 1167l-735 -757l-412 757l-248 -1167h-153l303 1434h127l430 -779l758 779h139l-303 -1434h-154z" />
    <glyph glyph-name="N" unicode="N" horiz-adv-x="1597" 
d="M1440 1434h153l-303 -1434h-123l-645 1159l-246 -1159h-153l303 1434h123l645 -1160z" />
    <glyph glyph-name="O" unicode="O" horiz-adv-x="1720" 
d="M981 1313q-260 0 -461 -204t-201 -472q0 -221 151 -368.5t386 -147.5q258 0 460 199.5t202 478.5q0 219 -150.5 366.5t-386.5 147.5zM1673 801q0 -205 -113.5 -395.5t-307 -308t-412.5 -117.5q-293 0 -484.5 189t-191.5 464q0 217 119.5 408.5t312 302t401.5 110.5
q293 0 484.5 -189.5t191.5 -463.5z" />
    <glyph glyph-name="P" unicode="P" horiz-adv-x="1331" 
d="M426 1434h524q170 0 283 -116t113 -274q0 -223 -161 -367.5t-386 -144.5h-410l-113 -532h-153zM928 1290h-379l-129 -614h397q156 0 264.5 99t108.5 263q0 109 -72.5 180.5t-189.5 71.5z" />
    <glyph glyph-name="Q" unicode="Q" horiz-adv-x="1720" 
d="M1673 801q0 -246 -161.5 -465t-405.5 -309q12 -25 32.5 -50.5t58.5 -57.5t102.5 -52.5t142.5 -20.5l94 11l-29 -133q-33 -10 -94 -11q-96 0 -177 23.5t-129 56.5t-86 75t-52.5 68.5t-22.5 51.5q-70 -8 -106 -8q-293 0 -484.5 189t-191.5 464q0 217 119.5 408.5t312 302
t401.5 110.5q293 0 484.5 -189.5t191.5 -463.5zM981 1313q-260 0 -461 -204t-201 -472q0 -221 151 -368.5t386 -147.5q258 0 460 199.5t202 478.5q0 219 -150.5 366.5t-386.5 147.5z" />
    <glyph glyph-name="R" unicode="R" horiz-adv-x="1382" 
d="M426 1434h553q164 0 272.5 -107.5t108.5 -257.5q0 -295 -268 -428q-41 -20 -127 -47l213 -594h-164l-203 573h-414l-121 -573h-153zM961 1290h-412l-121 -573h406q152 0 261 93t109 249q0 100 -67 165.5t-176 65.5z" />
    <glyph glyph-name="S" unicode="S" horiz-adv-x="1157" 
d="M526 123q145 0 257 73.5t112 219.5q0 78 -66.5 133t-163 92t-191.5 78t-161.5 115.5t-66.5 179.5q0 188 141 314t379 126q78 0 148.5 -19.5t116.5 -46t81 -53t51 -45.5l17 -20l-115 -99q-4 6 -12.5 15.5t-38 33t-62 42t-88 34t-114.5 15.5q-160 0 -253.5 -80t-93.5 -195
q0 -78 68 -133t163 -92t190.5 -78t163 -115.5t67.5 -179.5q0 -209 -147.5 -333.5t-399.5 -124.5q-92 0 -174 22.5t-133 53t-89 62.5t-55 54l-16 23l109 100q4 -6 13 -18.5t43 -42t72.5 -52t106 -41t141.5 -18.5z" />
    <glyph glyph-name="T" unicode="T" horiz-adv-x="1136" 
d="M252 1434h1055l-31 -144h-451l-272 -1290h-154l273 1290h-451z" />
    <glyph glyph-name="U" unicode="U" horiz-adv-x="1556" 
d="M733 123q174 0 317.5 127t184.5 313l184 871h154l-184 -871q-51 -244 -237.5 -413.5t-420.5 -169.5q-213 0 -367.5 138t-154.5 335q0 51 12 110l185 871h153l-184 -871q-10 -51 -10 -88q0 -152 106 -252t262 -100z" />
    <glyph glyph-name="V" unicode="V" horiz-adv-x="1372" 
d="M512 0l-260 1434h158l213 -1219l729 1219h170l-867 -1434h-143z" />
    <glyph glyph-name="W" unicode="W" horiz-adv-x="2109" 
d="M1331 0l-125 1198l-633 -1198h-153l-168 1434h158l127 -1198l643 1198h143l133 -1198l639 1198h164l-774 -1434h-154z" />
    <glyph glyph-name="X" unicode="X" horiz-adv-x="1320" 
d="M737 870l518 564h195l-637 -686l375 -748h-174l-309 625l-572 -625h-194l690 748l-346 686h174z" />
    <glyph glyph-name="Y" unicode="Y" horiz-adv-x="1290" 
d="M676 666h10l592 768h182l-729 -932l-106 -502h-154l107 502l-336 932h164z" />
    <glyph glyph-name="Z" unicode="Z" horiz-adv-x="1228" 
d="M1104 1290h-801l31 144h993l-31 -144l-1075 -1147h852l-29 -143h-1044l29 143z" />
    <glyph glyph-name="bracketleft" unicode="[" horiz-adv-x="686" 
d="M516 1321l-344 -1618h277l-29 -133h-420l399 1884h420l-26 -133h-277z" />
    <glyph glyph-name="backslash" unicode="\" horiz-adv-x="890" 
d="M506 -430l-219 1884h129l219 -1884h-129z" />
    <glyph glyph-name="bracketright" unicode="]" horiz-adv-x="686" 
d="M203 -297l344 1618h-277l27 133h420l-400 -1884h-417l26 133h277z" />
    <glyph glyph-name="asciicircum" unicode="^" horiz-adv-x="819" 
d="M569 1434h103l145 -574h-127l-98 410l-270 -410h-140z" />
    <glyph glyph-name="underscore" unicode="_" horiz-adv-x="675" 
d="M557 -215l-29 -133h-714l28 133h715z" />
    <glyph glyph-name="grave" unicode="`" horiz-adv-x="430" 
d="M420 1434l94 -277h-104l-138 277h148z" />
    <glyph glyph-name="a" unicode="a" horiz-adv-x="1218" 
d="M496 113q160 0 293 148.5t133 320.5q0 125 -84 206.5t-201 81.5q-143 0 -276.5 -136t-133.5 -318q0 -127 80 -215t189 -88zM809 0l31 145q-6 -6 -16.5 -17t-46.5 -40t-74.5 -50.5t-99 -39.5t-124.5 -18q-160 0 -278.5 125.5t-118.5 297.5q0 246 180 423.5t393 177.5
q63 0 119.5 -18.5t93.5 -45.5t63.5 -54.5t39.5 -45.5l12 -19l35 162h143l-209 -983h-143z" />
    <glyph glyph-name="b" unicode="b" horiz-adv-x="1228" 
d="M735 870q-160 0 -293 -148.5t-133 -320.5q0 -125 84 -206.5t201 -81.5q143 0 276.5 137t133.5 319q0 127 -80 214t-189 87zM518 1434l-127 -596q6 6 16.5 17t46 40t74.5 50.5t99.5 40t124.5 18.5q160 0 278.5 -126t118.5 -298q0 -246 -180.5 -423t-393.5 -177
q-63 0 -119.5 18t-93 45t-63.5 54.5t-39 45.5l-12 19l-33 -162h-143l303 1434h143z" />
    <glyph glyph-name="c" unicode="c" horiz-adv-x="1054" 
d="M82 403q0 233 172 417t416 184q72 0 137 -20.5t108 -49.5t75 -56.5t46 -48.5l15 -20l-111 -92q-4 6 -12 16t-35 37t-58.5 47.5t-82 36.5t-105.5 16q-160 0 -290 -134t-130 -320q0 -127 83 -215t202 -88q55 0 108.5 16t92.5 40t68.5 48.5t45.5 40.5l15 16l88 -90
q-6 -8 -19.5 -22.5t-57.5 -49t-90 -61t-118 -49t-143 -22.5q-174 0 -297 124.5t-123 298.5z" />
    <glyph glyph-name="d" unicode="d" horiz-adv-x="1228" 
d="M496 113q160 0 293 148.5t133 320.5q0 125 -84 206.5t-201 81.5q-143 0 -276.5 -136t-133.5 -318q0 -127 80 -215t189 -88zM809 0l31 145q-6 -6 -16.5 -17t-46.5 -40t-74.5 -50.5t-99 -39.5t-124.5 -18q-160 0 -278.5 125.5t-118.5 297.5q0 246 180 423.5t393 177.5
q63 0 119.5 -18.5t93.5 -45.5t63.5 -54.5t39.5 -45.5l12 -19l129 613h143l-303 -1434h-143z" />
    <glyph glyph-name="e" unicode="e" horiz-adv-x="1136" 
d="M508 113q92 0 178 41t125 82l41 40l78 -92q-6 -8 -18.5 -22.5t-55.5 -49t-89 -61t-119 -49t-146 -22.5q-174 0 -297 122.5t-123 296.5q0 248 177 426.5t398 178.5q174 0 290 -105.5t116 -273.5q0 -104 -39 -187l-801 2v-30q0 -127 83 -212t202 -85zM643 870
q-123 0 -234.5 -87t-158.5 -220h668q2 12 2 35q0 119 -78 195.5t-199 76.5z" />
    <glyph glyph-name="f" unicode="f" horiz-adv-x="655" 
d="M700 983l-28 -133h-236l-180 -850h-143l180 850h-154l29 133h154l38 184q29 137 114 212t208 75q37 0 71.5 -8t53.5 -16l16 -7l-28 -133q-49 31 -121 31q-66 0 -111 -39t-59 -115l-39 -184h235z" />
    <glyph glyph-name="g" unicode="g" 
d="M791 61l26 119q-4 -6 -13 -17t-41 -39t-69 -48.5t-95 -38t-122 -17.5q-160 0 -275.5 120t-115.5 288q0 238 170 407t383 169q63 0 118.5 -17.5t90.5 -43t60.5 -50.5t35.5 -41l10 -18l33 149h143l-196 -922q-45 -211 -199.5 -351t-351.5 -140q-78 0 -147.5 21.5t-113.5 51
t-78 59.5t-48 52l-14 21l108 88q4 -6 11.5 -17.5t34 -39t58 -48t84 -38t109.5 -17.5q139 0 255 102t149 256zM623 870q-158 0 -275 -135t-117 -299q0 -119 78 -200.5t185 -81.5q150 0 275.5 132t125.5 310q0 119 -78.5 196.5t-193.5 77.5z" />
    <glyph glyph-name="h" unicode="h" horiz-adv-x="1198" 
d="M518 1434l-125 -592q4 6 13.5 17t41 39t66.5 49.5t92.5 39t116.5 17.5q154 0 248 -86.5t94 -233.5q0 -57 -10 -100l-123 -584h-144l123 584q8 49 9 69q0 100 -61.5 158.5t-162.5 58.5q-131 0 -234.5 -95t-133.5 -243l-113 -532h-143l303 1434h143z" />
    <glyph glyph-name="i" unicode="i" horiz-adv-x="471" 
d="M311 1296q0 43 31 75t76 32q33 0 57.5 -23.5t24.5 -56.5q0 -43 -33 -73.5t-76 -30.5q-33 0 -56.5 23t-23.5 54zM61 0l209 983h144l-209 -983h-144z" />
    <glyph glyph-name="j" unicode="j" horiz-adv-x="471" 
d="M31 -143l239 1126h144l-240 -1126q-63 -287 -326 -287q-33 0 -61.5 8t-40.5 16l-14 7l28 133q45 -31 107 -31q129 0 164 154zM309 1296q0 43 31 75t76 32q33 0 57.5 -23.5t24.5 -56.5q0 -43 -33 -73.5t-76 -30.5q-33 0 -56.5 23t-23.5 54z" />
    <glyph glyph-name="k" unicode="k" horiz-adv-x="1044" 
d="M272 276l-57 -276h-143l303 1434h143l-205 -963l596 512h181l-465 -399l297 -584h-158l-250 483z" />
    <glyph glyph-name="l" unicode="l" horiz-adv-x="491" 
d="M518 1434l-303 -1434h-143l303 1434h143z" />
    <glyph glyph-name="m" unicode="m" horiz-adv-x="1781" 
d="M1372 0l123 584q8 39 8 82q0 98 -55 151t-148 53q-111 0 -202.5 -89t-122.5 -238l-115 -543h-143l123 584q8 39 8 82q0 98 -55.5 151t-147.5 53q-111 0 -203 -89t-123 -238l-114 -543h-144l209 983h144l-27 -123q4 6 11.5 15.5t34 34t57 44t81 35t105.5 15.5
q66 0 121 -18.5t85.5 -43t52 -50.5t28.5 -44l8 -19q4 6 13 18.5t43 42.5t72 53.5t100.5 42t131.5 18.5q141 0 230.5 -81t89.5 -227q0 -51 -13 -112l-122 -584h-144z" />
    <glyph glyph-name="n" unicode="n" 
d="M414 983l-31 -141q4 6 13.5 17t41 39t66.5 49.5t92 39t117 17.5q154 0 248 -86.5t94 -233.5q0 -57 -11 -100l-122 -584h-144l123 584q8 49 8 69q0 100 -61.5 158.5t-161.5 58.5q-131 0 -234.5 -95t-134.5 -243l-112 -532h-144l209 983h144z" />
    <glyph glyph-name="o" unicode="o" 
d="M551 111q162 0 288 132t126 302q0 139 -92.5 233t-231.5 94q-156 0 -285 -128t-129 -306q0 -137 92.5 -232t231.5 -95zM82 430q0 219 171 396.5t400 177.5q199 0 328 -131.5t129 -321.5q0 -231 -176 -401t-395 -170q-199 0 -328 130t-129 320z" />
    <glyph glyph-name="p" unicode="p" horiz-adv-x="1218" 
d="M725 870q-160 0 -293 -148.5t-133 -320.5q0 -125 84 -206.5t201 -81.5q143 0 276 137t133 319q0 127 -79.5 214t-188.5 87zM414 983l-33 -145q6 6 16.5 17t46 40t74.5 50.5t99.5 40t123.5 18.5q160 0 279 -126t119 -298q0 -246 -180.5 -423t-393.5 -177q-63 0 -119.5 18
t-93.5 45t-63.5 54.5t-38.5 45.5l-12 19l-125 -592h-144l301 1413h144z" />
    <glyph glyph-name="q" unicode="q" horiz-adv-x="1218" 
d="M496 113q160 0 293 148.5t133 320.5q0 125 -84 206.5t-201 81.5q-143 0 -276.5 -136t-133.5 -318q0 -127 80 -215t189 -88zM717 -430l123 575q-6 -6 -16.5 -17t-46.5 -40t-74.5 -50.5t-99 -39.5t-124.5 -18q-160 0 -278.5 125.5t-118.5 297.5q0 246 180 423.5t393 177.5
q63 0 119.5 -18.5t93.5 -45.5t63.5 -54.5t39.5 -45.5l12 -19l35 162h143l-301 -1413h-143z" />
    <glyph glyph-name="r" unicode="r" horiz-adv-x="706" 
d="M786 1004l-30 -144h-62q-127 0 -235.5 -88t-139.5 -229l-114 -543h-144l209 983h144l-29 -133q4 6 14.5 16.5t43 37t70.5 47t97.5 37t122.5 16.5h53z" />
    <glyph glyph-name="s" unicode="s" horiz-adv-x="880" 
d="M840 870l-115 -96q-8 10 -24.5 26.5t-74 43t-120.5 26.5q-92 0 -146.5 -46t-54.5 -109q0 -55 69.5 -97.5t152.5 -69t153 -88t70 -149.5q0 -145 -110 -238t-294 -93q-70 0 -130 18t-98 43t-65.5 50.5t-40.5 43.5l-12 19l115 96q10 -16 29.5 -39t84 -60.5t138.5 -37.5
q113 0 174 49t61 129q0 59 -69.5 102t-152.5 69.5t-152.5 86t-69.5 145.5q0 127 103.5 218.5t264.5 91.5q57 0 110.5 -13.5t89.5 -33t62.5 -40t38.5 -32.5z" />
    <glyph glyph-name="t" unicode="t" horiz-adv-x="737" 
d="M383 1085l49 226h133l-69 -328h215l-29 -133h-215l-125 -584q-31 -154 100 -153q33 0 68 8t53 14l19 8l-27 -133q-70 -31 -147 -30q-127 0 -182.5 74.5t-26.5 211.5l125 584h-185l29 133h113q82 0 102 102z" />
    <glyph glyph-name="u" unicode="u" 
d="M778 0l27 131q-4 -6 -13.5 -16.5t-40 -37t-65.5 -46t-92 -35.5t-117 -16q-147 0 -243.5 91t-96.5 240q0 55 10 99l123 573h144l-123 -573q-8 -33 -8 -72q0 -100 61.5 -162.5t159.5 -62.5q125 0 231.5 96t136.5 240l115 534h143l-208 -983h-144z" />
    <glyph glyph-name="v" unicode="v" horiz-adv-x="1003" 
d="M471 0h-143l-191 983h148l149 -788l486 788h159z" />
    <glyph glyph-name="w" unicode="w" horiz-adv-x="1495" 
d="M784 983h123l92 -758l416 758h156l-547 -983h-133l-88 748l-404 -748h-133l-129 983h146l94 -758z" />
    <glyph glyph-name="x" unicode="x" horiz-adv-x="983" 
d="M481 399l-370 -399h-183l478 512l-238 471h166l178 -358l334 358h182l-438 -471l260 -512h-166z" />
    <glyph glyph-name="y" unicode="y" horiz-adv-x="1003" 
d="M240 -143l86 149l-189 977h148l147 -799l488 799h159l-690 -1126q-96 -156 -179 -221.5t-190 -65.5q-33 0 -61.5 5t-40.5 11l-14 4l26 129q39 -16 90 -16q132 0 220 154z" />
    <glyph glyph-name="z" unicode="z" horiz-adv-x="952" 
d="M956 983l-28 -133l-740 -717h607l-27 -133h-788l26 133l739 717h-565l29 133h747z" />
    <glyph glyph-name="braceleft" unicode="{" horiz-adv-x="727" 
d="M125 451l27 122q143 0 174 144l98 461q27 125 124 200.5t240 75.5h82l-24 -123h-82q-84 0 -138.5 -42t-68.5 -111l-98 -461q-10 -49 -30.5 -88t-43.5 -59.5t-44.5 -35t-33.5 -18.5l-14 -4q4 -2 11 -5t26.5 -17.5t29 -36t17.5 -58.5t-6 -88l-97 -461q-16 -70 21 -111.5
t121 -41.5h82l-27 -123h-82q-143 0 -208.5 75.5t-39.5 200.5l97 461q30 144 -113 144z" />
    <glyph glyph-name="bar" unicode="|" horiz-adv-x="686" 
d="M625 1454l-400 -1884h-133l400 1884h133z" />
    <glyph glyph-name="braceright" unicode="}" horiz-adv-x="727" 
d="M633 573l-27 -122q-143 0 -174 -144l-96 -461q-27 -125 -125 -200.5t-242 -75.5h-80l25 123h82q82 0 136 42t71 111l96 461q16 78 58 129t77 64l33 12q-4 2 -11 5t-27.5 17.5t-30 36t-17.5 58.5t6 88l98 461q14 72 -22.5 112.5t-118.5 40.5h-82l25 123h82
q143 0 209.5 -75.5t39.5 -200.5l-98 -461q-30 -144 113 -144z" />
    <glyph glyph-name="asciitilde" unicode="~" horiz-adv-x="1085" 
d="M381 614q-59 0 -108.5 -30.5t-69.5 -61.5l-21 -30l-84 71q4 6 13.5 18.5t38 42t60.5 53t82 42t101 18.5q86 0 149.5 -35.5t116 -71.5t115.5 -36q59 0 109.5 30.5t70.5 61.5l21 31l82 -72q-4 -6 -13.5 -18.5t-38 -42t-60.5 -53t-82 -42t-101 -18.5q-86 0 -149.5 36
t-116 71.5t-115.5 35.5z" />
    <glyph glyph-name="uni00A0" unicode="&#xa0;" horiz-adv-x="389" 
 />
    <glyph glyph-name="exclamdown" unicode="&#xa1;" horiz-adv-x="573" 
d="M266 635h123l-194 -1065h-185zM483 918q0 -47 -30.5 -83t-79.5 -36q-45 0 -72 23.5t-27 62.5q0 53 33 86t80 33q45 0 70.5 -23.5t25.5 -62.5z" />
    <glyph glyph-name="cent" unicode="&#xa2;" horiz-adv-x="1024" 
d="M748 971l-132 10l50 227h133zM422 68l133 -2l-61 -291h-134zM823 256q-143 -143 -311 -143q-119 0 -202 88t-83 215q0 186 130 320t290 134q174 0 281 -139l106 90q-143 182 -364 183q-244 0 -416 -183.5t-172 -417.5q0 -174 123 -298.5t297 -124.5q215 0 399 178z" />
    <glyph glyph-name="sterling" unicode="&#xa3;" horiz-adv-x="1146" 
d="M397 1004q43 203 177.5 326.5t322.5 123.5q70 0 132.5 -18.5t103.5 -43t71.5 -50t44.5 -44.5l15 -18l-115 -96q-4 6 -11.5 14t-33 29.5t-54 39t-74.5 31t-95 13.5q-121 0 -216.5 -87t-123.5 -220l-58 -267h420l-31 -143h-419l-68 -318q-8 -41 -26.5 -73.5t-32.5 -46.5
l-15 -13h711l-29 -143h-952l29 143q61 0 111 39t61 94l67 318h-133l31 143h133z" />
    <glyph glyph-name="currency" unicode="&#xa4;" horiz-adv-x="1372" 
d="M131 573l31 144h164l151 717h512q170 0 280.5 -103.5t110.5 -253.5q0 -215 -155.5 -359.5t-376.5 -144.5h-399l-37 -174h501l-30 -143h-502l-53 -256h-154l53 256h-164l31 143h164l37 174h-164zM967 1290h-367l-121 -573h389q145 0 250 98t105 242q0 98 -72.5 165.5
t-183.5 67.5z" />
    <glyph glyph-name="yen" unicode="&#xa5;" horiz-adv-x="1290" 
d="M1063 522h-318l-14 -20l-29 -133h328l-29 -133h-327l-49 -236h-154l49 236h-327l28 133h328l29 133l-9 20h-315l29 133h239l-280 779h166l268 -768h10l592 768h182l-610 -779h242z" />
    <glyph glyph-name="brokenbar" unicode="&#xa6;" horiz-adv-x="686" 
d="M258 348h133l-166 -778h-133zM461 676h-133l164 778h133z" />
    <glyph glyph-name="section" unicode="&#xa7;" horiz-adv-x="1105" 
d="M553 860q-70 -12 -152 -73.5t-82 -157.5q0 -53 43.5 -97.5t89.5 -65t109.5 -42t73.5 -25.5q231 61 231 224q0 53 -43 99t-88 66.5t-110.5 45t-71.5 26.5zM1014 639q0 -109 -75 -188.5t-194 -122.5q12 -8 31 -24.5t48.5 -68t29.5 -104.5q0 -147 -124 -251.5t-314 -104.5
q-70 0 -132.5 19.5t-103.5 46t-71.5 53t-42.5 45.5l-15 20l115 92q4 -6 11 -15t31.5 -34t53.5 -44t74 -34.5t94 -15.5q125 0 202 65.5t77 153.5q0 33 -17.5 59.5t-64.5 52t-72 37t-96 37.5q-287 111 -287 297q0 68 27.5 126.5t67.5 92t80 59t67 34.5l28 10q-12 8 -28.5 22.5
t-45 62.5t-28.5 101q0 141 112.5 238.5t290.5 97.5q92 0 176.5 -36t120.5 -70l37 -37l-114 -88q-10 10 -30 26.5t-79 44t-119 27.5q-113 0 -181.5 -58.5t-68.5 -140.5q0 -43 39 -79.5t73 -53t120 -49.5q16 -6 24 -10q273 -107 273 -291z" />
    <glyph glyph-name="dieresis" unicode="&#xa8;" horiz-adv-x="696" 
d="M242 1290q0 39 30.5 71t71.5 32q39 0 62.5 -22.5t23.5 -57.5q0 -43 -29.5 -74t-72.5 -31q-39 0 -62.5 23.5t-23.5 58.5zM631 1290q0 39 30.5 71t71.5 32q39 0 62.5 -22.5t23.5 -57.5q0 -43 -29.5 -74t-72.5 -31q-39 0 -62.5 23.5t-23.5 58.5z" />
    <glyph glyph-name="copyright" unicode="&#xa9;" horiz-adv-x="1802" 
d="M1014 983q-129 0 -222.5 -90t-93.5 -223q0 -92 61.5 -155.5t160.5 -63.5q68 0 128 28.5t87 57.5l24 28l68 -84q-4 -6 -13.5 -16t-40 -37t-65.5 -47.5t-89 -36.5t-112 -16q-145 0 -240.5 92t-95.5 227q0 199 134.5 329t324.5 130q90 0 165 -39t103 -76l29 -39l-92 -78
q-8 12 -23.5 31t-72.5 48.5t-125 29.5zM1022 1333q-272 0 -482 -209t-210 -487q0 -229 158.5 -383t410.5 -154q272 0 481 205t209 492q0 229 -157.5 382.5t-409.5 153.5zM1724 801q0 -207 -114.5 -397.5t-310 -307t-416.5 -116.5q-299 0 -493.5 189t-194.5 464
q0 219 120.5 410.5t314 301t406.5 109.5q299 0 493.5 -189.5t194.5 -463.5z" />
    <glyph glyph-name="ordfeminine" unicode="&#xaa;" horiz-adv-x="673" 
d="M604 1126l-203 -41q-113 -25 -112 -98q0 -29 24.5 -47t67.5 -18q78 0 140.5 52t78.5 132zM338 829q-74 0 -119 44.5t-45 101.5q0 160 227 203l224 41q4 25 4 34q0 47 -30 73t-81 26q-45 0 -86 -20.5t-59 -41.5l-17 -22l-65 63q4 4 10 13.5t28.5 30t47 36.5t65.5 29.5
t84 13.5q98 0 153.5 -42t55.5 -120q0 -31 -6 -63l-80 -379h-102l16 82q-8 -12 -24.5 -28.5t-74.5 -45.5t-126 -29z" />
    <glyph glyph-name="guillemotleft" unicode="&#xab;" horiz-adv-x="952" 
d="M266 154l-162 338l308 337h159l-315 -348l158 -327h-148zM645 154l-162 335l308 340h159l-315 -348l158 -327h-148z" />
    <glyph glyph-name="logicalnot" unicode="&#xac;" horiz-adv-x="942" 
d="M936 799l-88 -420h-143l61 287h-625l27 133h768z" />
    <glyph glyph-name="uni00AD" unicode="&#xad;" horiz-adv-x="870" 
d="M827 666l-28 -134h-686l28 134h686z" />
    <glyph glyph-name="registered" unicode="&#xae;" horiz-adv-x="1802" 
d="M1094 649l114 -311h-131l-100 287h-170l-59 -287h-123l159 758h279q96 0 158.5 -58.5t62.5 -140.5q0 -31 -7 -59.5t-17.5 -50t-25.5 -40t-30.5 -33t-32 -25.5t-31 -18t-25.5 -12.5t-17 -7.5zM881 973l-47 -225h161q76 0 124 35.5t48 101.5q0 88 -110 88h-176zM1022 1333
q-272 0 -482 -209t-210 -487q0 -229 158.5 -383t410.5 -154q272 0 481 205t209 492q0 229 -157.5 382.5t-409.5 153.5zM1724 801q0 -207 -114.5 -397.5t-310 -307t-416.5 -116.5q-299 0 -493.5 189t-194.5 464q0 219 120.5 410.5t314 301t406.5 109.5q299 0 493.5 -189.5
t194.5 -463.5z" />
    <glyph glyph-name="macron" unicode="&#xaf;" horiz-adv-x="716" 
d="M862 1413l-24 -113h-594l24 113h594z" />
    <glyph glyph-name="degree" unicode="&#xb0;" horiz-adv-x="737" 
d="M545 1341q-72 0 -129.5 -54t-57.5 -128q0 -61 43 -103t109 -42q70 0 128 53t58 129q0 61 -42.5 103t-108.5 42zM819 1206q0 -121 -95 -213t-222 -92q-119 0 -192.5 71.5t-73.5 174.5q0 125 95 216t222 91q117 0 191.5 -72t74.5 -176z" />
    <glyph glyph-name="plusminus" unicode="&#xb1;" horiz-adv-x="1054" 
d="M10 51l29 133h870l-28 -133h-871zM567 317h-133l84 390h-379l29 133h379l82 389h133l-82 -389h379l-29 -133h-379z" />
    <glyph glyph-name="uni00B2" unicode="&#xb2;" horiz-adv-x="614" 
d="M645 922h-481q18 88 74.5 159.5t123 115.5t131 83t107.5 82t43 94q0 37 -28.5 63.5t-73.5 26.5t-85 -28.5t-57 -57.5l-16 -28l-94 32q2 8 8 20.5t27.5 44.5t48 56.5t73 44t101.5 19.5q92 0 152.5 -51.5t60.5 -124.5q0 -86 -53.5 -153t-121 -102.5t-145.5 -88t-112 -105.5
h340z" />
    <glyph glyph-name="uni00B3" unicode="&#xb3;" horiz-adv-x="634" 
d="M633 1296q8 -4 22.5 -11t37 -41t22.5 -79q0 -113 -77 -183.5t-204 -70.5q-82 0 -145.5 31t-87.5 62l-23 30l80 74q6 -10 19.5 -25.5t60.5 -42t102 -26.5q76 0 118 36.5t42 102.5q0 43 -31.5 69.5t-89.5 26.5h-82l23 103h90q57 0 92 29.5t35 84.5q0 33 -27.5 56.5
t-77.5 23.5q-43 0 -86 -22.5t-63 -44.5l-21 -23l-59 76q10 12 29.5 31.5t84 52.5t130.5 33q90 0 147.5 -49.5t57.5 -116.5q-2 -126 -119 -187z" />
    <glyph glyph-name="acute" unicode="&#xb4;" horiz-adv-x="430" 
d="M211 1157l207 277h162l-252 -277h-117z" />
    <glyph glyph-name="mu" unicode="&#xb5;" 
d="M797 143q-4 -6 -13.5 -17t-40 -40t-65.5 -50.5t-92.5 -38.5t-116.5 -17q-78 0 -140.5 20t-86.5 41l-25 22l-104 -493h-144l301 1413h144l-125 -584q-27 -129 35.5 -207.5t179.5 -78.5q125 0 219 86t125 231l119 553h143l-166 -778q-8 -39 12.5 -65.5t59.5 -26.5l53 10
l-29 -133q-23 -10 -63 -10q-90 0 -135 40.5t-45 81.5v41z" />
    <glyph glyph-name="paragraph" unicode="&#xb6;" horiz-adv-x="1105" 
d="M293 -205l205 963q-117 0 -196 95t-79 216q0 154 128 259.5t290 105.5h481l-348 -1639h-133l320 1505h-216l-319 -1505h-133z" />
    <glyph glyph-name="periodcentered" unicode="&#xb7;" horiz-adv-x="389" 
d="M106 496q0 47 31 82.5t80 35.5q45 0 71.5 -23.5t26.5 -62.5q0 -53 -32.5 -85.5t-79.5 -32.5q-45 0 -71 23.5t-26 62.5z" />
    <glyph glyph-name="cedilla" unicode="&#xb8;" horiz-adv-x="491" 
d="M150 41h98l-105 -154h7q63 0 99 -36.5t36 -90.5q0 -78 -59.5 -129t-157.5 -51q-45 0 -88 16.5t-64 32.5l-20 17l53 67q39 -51 121 -51q51 0 87 28.5t36 63.5q0 27 -18.5 44.5t-51.5 17.5q-16 0 -32.5 -5.5t-24.5 -11.5l-9 -4l-39 51z" />
    <glyph glyph-name="uni00B9" unicode="&#xb9;" horiz-adv-x="430" 
d="M471 1638h92l-153 -716h-113l115 542h-133l18 82q55 0 98 23.5t60 46.5z" />
    <glyph glyph-name="ordmasculine" unicode="&#xba;" horiz-adv-x="737" 
d="M541 1354q-96 0 -161 -79t-65 -181q0 -80 48.5 -126t130.5 -46q90 0 157.5 72.5t67.5 185.5q0 78 -48 126t-130 48zM834 1182q0 -137 -103.5 -250t-249.5 -113q-125 0 -202.5 77t-77.5 196q0 152 105.5 257t242.5 105q127 0 206 -76.5t79 -195.5z" />
    <glyph glyph-name="guillemotright" unicode="&#xbb;" horiz-adv-x="952" 
d="M711 829l161 -337l-307 -338h-159l315 348l-158 327h148zM332 829l162 -335l-308 -340h-159l315 348l-158 327h148z" />
    <glyph glyph-name="onequarter" unicode="&#xbc;" horiz-adv-x="1361" 
d="M41 0l1176 1434h141l-1176 -1434h-141zM449 1434h92l-154 -717h-113l115 543h-133l18 81q55 0 98.5 24t59.5 46zM1161 266h82l-22 -102h-82l-35 -164h-113l35 164h-338l23 102l403 451h143zM1049 266l67 318l-282 -318h215z" />
    <glyph glyph-name="onehalf" unicode="&#xbd;" horiz-adv-x="1423" 
d="M41 0l1176 1434h141l-1176 -1434h-141zM449 1434h92l-154 -717h-113l115 543h-133l18 81q55 0 98.5 24t59.5 46zM1239 0h-481q18 88 74.5 159.5t123 115.5t131 83t107.5 82t43 95q0 37 -28.5 63.5t-73.5 26.5t-85 -29t-57 -57l-16 -29l-94 33q2 8 8 20t27.5 44t48 56.5
t72.5 44t102 19.5q92 0 152.5 -51t60.5 -125q0 -86 -53.5 -152.5t-121 -102.5t-145.5 -88t-112 -106h340z" />
    <glyph glyph-name="threequarters" unicode="&#xbe;" horiz-adv-x="1495" 
d="M174 0l1176 1434h141l-1176 -1434h-141zM1294 266h82l-22 -102h-82l-35 -164h-113l35 164h-338l23 102l403 451h144zM1182 266l67 318l-282 -318h215zM600 1092q8 -4 22.5 -11.5t37 -41t22.5 -78.5q0 -113 -77 -183.5t-204 -70.5q-82 0 -145 30.5t-88 61.5l-23 30l80 74
q6 -10 19.5 -25.5t60.5 -42t103 -26.5q76 0 117.5 37t41.5 102q0 43 -31.5 69.5t-89.5 26.5h-81l22 103h90q57 0 92 29.5t35 85.5q0 33 -27.5 56t-76.5 23q-43 0 -86 -22.5t-64 -44.5l-20 -23l-60 76q10 12 29.5 31.5t84.5 52.5t130 33q90 0 147.5 -49t57.5 -117
q-2 -125 -119 -186z" />
    <glyph glyph-name="questiondown" unicode="&#xbf;" horiz-adv-x="952" 
d="M637 543q-20 -92 -82.5 -167t-137.5 -124t-147.5 -96t-121 -110.5t-48.5 -143.5q0 -86 73 -147.5t189 -61.5q74 0 137.5 23.5t100.5 56t63.5 66.5t36.5 59l11 22l129 -43q-4 -14 -14.5 -35.5t-50.5 -78t-90 -99.5t-139 -79t-192 -36q-174 0 -292.5 100.5t-118.5 235.5
q0 113 50 196t125 135t151.5 100.5t141 118t83.5 159.5l8 41h143q0 -49 -8 -92zM719 918q0 -47 -31 -83t-80 -36q-45 0 -71.5 23.5t-26.5 62.5q0 53 32.5 86t80.5 33q45 0 70.5 -23.5t25.5 -62.5z" />
    <glyph glyph-name="Agrave" unicode="&#xc0;" horiz-adv-x="1433" 
d="M1020 543l-133 676l-420 -676h553zM1051 399h-676l-248 -399h-168l897 1434h143l291 -1434h-160zM881 1905l94 -277h-105l-137 277h148z" />
    <glyph glyph-name="Aacute" unicode="&#xc1;" horiz-adv-x="1433" 
d="M1020 543l-133 676l-420 -676h553zM1051 399h-676l-248 -399h-168l897 1434h143l291 -1434h-160zM907 1628l207 277h162l-252 -277h-117z" />
    <glyph glyph-name="Acircumflex" unicode="&#xc2;" horiz-adv-x="1433" 
d="M1020 543l-133 676l-420 -676h553zM1051 399h-676l-248 -399h-168l897 1434h143l291 -1434h-160zM635 1628l283 277h143l168 -277h-127l-121 195l-207 -195h-139z" />
    <glyph glyph-name="Atilde" unicode="&#xc3;" horiz-adv-x="1433" 
d="M1020 543l-133 676l-420 -676h553zM1051 399h-676l-248 -399h-168l897 1434h143l291 -1434h-160zM831 1761q-33 0 -63.5 -33.5t-42.5 -99.5h-102q53 246 215 246q61 0 107 -34t82 -66.5t73 -32.5q33 0 63.5 33.5t42.5 99.5h103q-27 -121 -82.5 -183.5t-132.5 -62.5
q-61 0 -107.5 34t-82.5 66.5t-73 32.5z" />
    <glyph glyph-name="Adieresis" unicode="&#xc4;" horiz-adv-x="1433" 
d="M1020 543l-133 676l-420 -676h553zM1051 399h-676l-248 -399h-168l897 1434h143l291 -1434h-160zM676 1743q0 39 30.5 70.5t71.5 31.5q39 0 62.5 -22.5t23.5 -57.5q0 -43 -29.5 -73.5t-72.5 -30.5q-39 0 -62.5 23.5t-23.5 58.5zM1065 1743q0 39 30.5 70.5t71.5 31.5
q39 0 62.5 -22.5t23.5 -57.5q0 -43 -29.5 -73.5t-72.5 -30.5q-39 0 -62.5 23.5t-23.5 58.5z" />
    <glyph glyph-name="Aring" unicode="&#xc5;" horiz-adv-x="1433" 
d="M1020 543l-133 676l-420 -676h553zM1051 399h-676l-248 -399h-168l897 1434h143l291 -1434h-160zM991 1864q-45 0 -74.5 -38t-29.5 -85q0 -37 23.5 -59.5t58.5 -22.5q41 0 73.5 33.5t32.5 85.5q0 39 -22.5 62.5t-61.5 23.5zM1180 1788q0 -88 -62.5 -154.5t-152.5 -66.5
q-82 0 -132.5 46t-50.5 120q0 94 63.5 158.5t153.5 64.5q82 0 131.5 -47t49.5 -121z" />
    <glyph glyph-name="AE" unicode="&#xc6;" horiz-adv-x="1966" 
d="M1053 143h757l-28 -143h-912l88 420h-598l-323 -420h-170l1102 1434h1095l-30 -144h-738l-98 -471h574l-31 -143h-574zM1026 1290l-563 -727h526l154 727h-117z" />
    <glyph glyph-name="Ccedilla" unicode="&#xc7;" horiz-adv-x="1536" 
d="M164 604q0 217 113.5 412.5t314.5 316.5t436 121q109 0 208 -30.5t161.5 -73.5t110.5 -87t69 -75l20 -31l-114 -88q-6 10 -17.5 26.5t-53.5 57.5t-91 72.5t-132 58.5t-175 27q-279 0 -485.5 -203t-206.5 -498q0 -205 141 -346t352 -141q92 0 178 25.5t144.5 62.5
t103.5 72.5t66 60.5l22 27l90 -95q-10 -12 -27.5 -31.5t-78 -70.5t-127 -91t-171 -71.5t-212.5 -31.5h-12l-64 -93h6q63 0 99 -36.5t36 -90.5q0 -78 -59 -129t-158 -51q-45 0 -88 16.5t-63 32.5l-21 17l53 67q39 -51 121 -51q51 0 87 28.5t36 63.5q0 27 -18.5 44.5
t-50.5 17.5q-16 0 -33 -5.5t-25 -11.5l-8 -4l-39 51l94 142q-227 37 -379.5 213t-152.5 403z" />
    <glyph glyph-name="Egrave" unicode="&#xc8;" horiz-adv-x="1310" 
d="M305 143h850l-29 -143h-1003l303 1434h983l-31 -144h-829l-98 -471h665l-31 -143h-665zM891 1905l94 -277h-104l-138 277h148z" />
    <glyph glyph-name="Eacute" unicode="&#xc9;" horiz-adv-x="1310" 
d="M305 143h850l-29 -143h-1003l303 1434h983l-31 -144h-829l-98 -471h665l-31 -143h-665zM877 1628l206 277h162l-252 -277h-116z" />
    <glyph glyph-name="Ecircumflex" unicode="&#xca;" horiz-adv-x="1310" 
d="M305 143h850l-29 -143h-1003l303 1434h983l-31 -144h-829l-98 -471h665l-31 -143h-665zM647 1618l283 276h143l168 -276h-127l-121 194l-207 -194h-139z" />
    <glyph glyph-name="Edieresis" unicode="&#xcb;" horiz-adv-x="1310" 
d="M305 143h850l-29 -143h-1003l303 1434h983l-31 -144h-829l-98 -471h665l-31 -143h-665zM682 1741q0 39 30.5 70.5t71.5 31.5q39 0 62.5 -22.5t23.5 -57.5q0 -43 -29.5 -73.5t-72.5 -30.5q-39 0 -62.5 23.5t-23.5 58.5zM1071 1741q0 39 31 70.5t72 31.5q39 0 62.5 -22.5
t23.5 -57.5q0 -43 -30 -73.5t-73 -30.5q-39 0 -62.5 23.5t-23.5 58.5z" />
    <glyph glyph-name="Igrave" unicode="&#xcc;" horiz-adv-x="583" 
d="M123 0l303 1434h154l-304 -1434h-153zM479 1905l94 -277h-104l-137 277h147z" />
    <glyph glyph-name="Iacute" unicode="&#xcd;" horiz-adv-x="583" 
d="M123 0l303 1434h154l-304 -1434h-153zM489 1628l207 277h162l-252 -277h-117z" />
    <glyph glyph-name="Icircumflex" unicode="&#xce;" horiz-adv-x="583" 
d="M123 0l303 1434h154l-304 -1434h-153zM233 1618l283 276h143l168 -276h-127l-120 194l-207 -194h-140z" />
    <glyph glyph-name="Idieresis" unicode="&#xcf;" horiz-adv-x="583" 
d="M123 0l303 1434h154l-304 -1434h-153zM270 1741q0 39 31 70.5t72 31.5q39 0 62.5 -22.5t23.5 -57.5q0 -43 -30 -73.5t-73 -30.5q-39 0 -62.5 23.5t-23.5 58.5zM659 1741q0 39 31 70.5t72 31.5q39 0 62.5 -22.5t23.5 -57.5q0 -43 -30 -73.5t-73 -30.5q-39 0 -62.5 23.5
t-23.5 58.5z" />
    <glyph glyph-name="Eth" unicode="&#xd0;" horiz-adv-x="1566" 
d="M457 1434h426q270 0 452.5 -181.5t182.5 -429.5q0 -334 -260.5 -578.5t-612.5 -244.5h-491l135 645h-195l31 143h194zM862 1290h-282l-107 -502h348l-30 -143h-349l-106 -502h326q285 0 492.5 197t207.5 471q0 199 -141.5 339t-358.5 140z" />
    <glyph glyph-name="Ntilde" unicode="&#xd1;" horiz-adv-x="1597" 
d="M1440 1434h153l-303 -1434h-123l-645 1159l-246 -1159h-153l303 1434h123l645 -1160zM950 1761q-33 0 -63.5 -33.5t-42.5 -99.5h-103q53 246 215 246q61 0 107.5 -34t82.5 -66.5t73 -32.5q33 0 63.5 33.5t42.5 99.5h102q-27 -121 -82 -183.5t-133 -62.5q-61 0 -107 34
t-82 66.5t-73 32.5z" />
    <glyph glyph-name="Ograve" unicode="&#xd2;" horiz-adv-x="1720" 
d="M981 1313q-260 0 -461 -204t-201 -472q0 -221 151 -368.5t386 -147.5q258 0 460 199.5t202 478.5q0 219 -150.5 366.5t-386.5 147.5zM1673 801q0 -205 -113.5 -395.5t-307 -308t-412.5 -117.5q-293 0 -484.5 189t-191.5 464q0 217 119.5 408.5t312 302t401.5 110.5
q293 0 484.5 -189.5t191.5 -463.5zM999 1905l95 -277h-105l-137 277h147z" />
    <glyph glyph-name="Oacute" unicode="&#xd3;" horiz-adv-x="1720" 
d="M981 1313q-260 0 -461 -204t-201 -472q0 -221 151 -368.5t386 -147.5q258 0 460 199.5t202 478.5q0 219 -150.5 366.5t-386.5 147.5zM1673 801q0 -205 -113.5 -395.5t-307 -308t-412.5 -117.5q-293 0 -484.5 189t-191.5 464q0 217 119.5 408.5t312 302t401.5 110.5
q293 0 484.5 -189.5t191.5 -463.5zM1030 1628l207 277h162l-252 -277h-117z" />
    <glyph glyph-name="Ocircumflex" unicode="&#xd4;" horiz-adv-x="1720" 
d="M981 1313q-260 0 -461 -204t-201 -472q0 -221 151 -368.5t386 -147.5q258 0 460 199.5t202 478.5q0 219 -150.5 366.5t-386.5 147.5zM1673 801q0 -205 -113.5 -395.5t-307 -308t-412.5 -117.5q-293 0 -484.5 189t-191.5 464q0 217 119.5 408.5t312 302t401.5 110.5
q293 0 484.5 -189.5t191.5 -463.5zM770 1618l283 276h143l168 -276h-127l-121 194l-207 -194h-139z" />
    <glyph glyph-name="Otilde" unicode="&#xd5;" horiz-adv-x="1720" 
d="M981 1313q-260 0 -461 -204t-201 -472q0 -221 151 -368.5t386 -147.5q258 0 460 199.5t202 478.5q0 219 -150.5 366.5t-386.5 147.5zM1673 801q0 -205 -113.5 -395.5t-307 -308t-412.5 -117.5q-293 0 -484.5 189t-191.5 464q0 217 119.5 408.5t312 302t401.5 110.5
q293 0 484.5 -189.5t191.5 -463.5zM979 1761q-33 0 -63.5 -33.5t-43.5 -99.5h-102q53 246 215 246q61 0 107.5 -34t82 -66.5t72.5 -32.5q33 0 63.5 33.5t43.5 99.5h102q-27 -121 -82 -183.5t-133 -62.5q-61 0 -107.5 34t-82 66.5t-72.5 32.5z" />
    <glyph glyph-name="Odieresis" unicode="&#xd6;" horiz-adv-x="1720" 
d="M981 1313q-260 0 -461 -204t-201 -472q0 -221 151 -368.5t386 -147.5q258 0 460 199.5t202 478.5q0 219 -150.5 366.5t-386.5 147.5zM1673 801q0 -205 -113.5 -395.5t-307 -308t-412.5 -117.5q-293 0 -484.5 189t-191.5 464q0 217 119.5 408.5t312 302t401.5 110.5
q293 0 484.5 -189.5t191.5 -463.5zM815 1741q0 39 31 70.5t72 31.5q39 0 62.5 -22.5t23.5 -57.5q0 -43 -30 -73.5t-73 -30.5q-39 0 -62.5 23.5t-23.5 58.5zM1204 1741q0 39 31 70.5t72 31.5q39 0 62.5 -22.5t23.5 -57.5q0 -43 -30 -73.5t-73 -30.5q-39 0 -62.5 23.5
t-23.5 58.5z" />
    <glyph glyph-name="multiply" unicode="&#xd7;" horiz-adv-x="942" 
d="M299 1008l223 -279l352 291l78 -98l-350 -289l229 -285l-106 -86l-221 279l-352 -291l-78 98l348 289l-227 285z" />
    <glyph glyph-name="Oslash" unicode="&#xd8;" horiz-adv-x="1720" 
d="M1673 801q0 -205 -113.5 -395.5t-307 -308t-412.5 -117.5q-289 0 -482 186l-256 -211l-79 111l247 204q-106 162 -106 363q0 217 119.5 408.5t312 302t401.5 110.5q289 0 482 -188l258 213l80 -111l-250 -207q106 -161 106 -360zM981 1313q-260 0 -461 -204t-201 -472
q0 -150 72 -268l971 800q-154 144 -381 144zM1518 799q0 141 -72 264l-971 -801q152 -141 381 -141q258 0 460 199.5t202 478.5z" />
    <glyph glyph-name="Ugrave" unicode="&#xd9;" horiz-adv-x="1556" 
d="M733 123q174 0 317.5 127t184.5 313l184 871h154l-184 -871q-51 -244 -237.5 -413.5t-420.5 -169.5q-213 0 -367.5 138t-154.5 335q0 51 12 110l185 871h153l-184 -871q-10 -51 -10 -88q0 -152 106 -252t262 -100zM975 1905l94 -277h-104l-138 277h148z" />
    <glyph glyph-name="Uacute" unicode="&#xda;" horiz-adv-x="1556" 
d="M733 123q174 0 317.5 127t184.5 313l184 871h154l-184 -871q-51 -244 -237.5 -413.5t-420.5 -169.5q-213 0 -367.5 138t-154.5 335q0 51 12 110l185 871h153l-184 -871q-10 -51 -10 -88q0 -152 106 -252t262 -100zM936 1628l207 277h162l-252 -277h-117z" />
    <glyph glyph-name="Ucircumflex" unicode="&#xdb;" horiz-adv-x="1556" 
d="M733 123q174 0 317.5 127t184.5 313l184 871h154l-184 -871q-51 -244 -237.5 -413.5t-420.5 -169.5q-213 0 -367.5 138t-154.5 335q0 51 12 110l185 871h153l-184 -871q-10 -51 -10 -88q0 -152 106 -252t262 -100zM705 1618l282 276h143l168 -276h-127l-120 194
l-207 -194h-139z" />
    <glyph glyph-name="Udieresis" unicode="&#xdc;" horiz-adv-x="1556" 
d="M733 123q174 0 317.5 127t184.5 313l184 871h154l-184 -871q-51 -244 -237.5 -413.5t-420.5 -169.5q-213 0 -367.5 138t-154.5 335q0 51 12 110l185 871h153l-184 -871q-10 -51 -10 -88q0 -152 106 -252t262 -100zM748 1741q0 39 30.5 70.5t71.5 31.5q39 0 62.5 -22.5
t23.5 -57.5q0 -43 -29.5 -73.5t-72.5 -30.5q-39 0 -62.5 23.5t-23.5 58.5zM1137 1741q0 39 30.5 70.5t71.5 31.5q39 0 62.5 -22.5t23.5 -57.5q0 -43 -29.5 -73.5t-72.5 -30.5q-39 0 -62.5 23.5t-23.5 58.5z" />
    <glyph glyph-name="Yacute" unicode="&#xdd;" horiz-adv-x="1290" 
d="M676 666h10l592 768h182l-729 -932l-106 -502h-154l107 502l-336 932h164zM799 1628l207 277h161l-252 -277h-116z" />
    <glyph glyph-name="Thorn" unicode="&#xde;" horiz-adv-x="1331" 
d="M520 1147l-174 -819h277q221 0 363 138t142 349q0 141 -105 236.5t-275 95.5h-228zM549 1290h219q223 0 369.5 -139t146.5 -332q0 -270 -193.5 -452.5t-482.5 -182.5h-293l-49 -225h-153l323 1516h154z" />
    <glyph glyph-name="germandbls" unicode="&#xdf;" horiz-adv-x="1198" 
d="M883 780q8 -4 22.5 -10t50 -32.5t63.5 -57.5t50.5 -85t22.5 -116q0 -201 -162 -340t-377 -139h-92l28 143h93q147 0 254.5 93.5t107.5 226.5q0 98 -66.5 165.5t-177.5 67.5h-92l31 144h20q125 0 223.5 78.5t98.5 191.5q0 84 -66.5 147.5t-164.5 63.5q-113 0 -200 -73.5
t-110 -182.5l-225 -1065h-143l225 1065q35 166 166 277.5t305 111.5q152 0 255 -97t103 -229q0 -41 -8 -78.5t-22.5 -67.5t-33 -56.5t-38.5 -47t-40.5 -37t-38 -27.5t-32 -19.5t-22.5 -12.5z" />
    <glyph glyph-name="agrave" unicode="&#xe0;" horiz-adv-x="1218" 
d="M496 113q160 0 293 148.5t133 320.5q0 125 -84 206.5t-201 81.5q-143 0 -276.5 -136t-133.5 -318q0 -127 80 -215t189 -88zM809 0l31 145q-6 -6 -16.5 -17t-46.5 -40t-74.5 -50.5t-99 -39.5t-124.5 -18q-160 0 -278.5 125.5t-118.5 297.5q0 246 180 423.5t393 177.5
q63 0 119.5 -18.5t93.5 -45.5t63.5 -54.5t39.5 -45.5l12 -19l35 162h143l-209 -983h-143zM678 1434l94 -277h-104l-138 277h148z" />
    <glyph glyph-name="aacute" unicode="&#xe1;" horiz-adv-x="1218" 
d="M496 113q160 0 293 148.5t133 320.5q0 125 -84 206.5t-201 81.5q-143 0 -276.5 -136t-133.5 -318q0 -127 80 -215t189 -88zM809 0l31 145q-6 -6 -16.5 -17t-46.5 -40t-74.5 -50.5t-99 -39.5t-124.5 -18q-160 0 -278.5 125.5t-118.5 297.5q0 246 180 423.5t393 177.5
q63 0 119.5 -18.5t93.5 -45.5t63.5 -54.5t39.5 -45.5l12 -19l35 162h143l-209 -983h-143zM657 1157l207 277h162l-252 -277h-117z" />
    <glyph glyph-name="acircumflex" unicode="&#xe2;" horiz-adv-x="1218" 
d="M496 113q160 0 293 148.5t133 320.5q0 125 -84 206.5t-201 81.5q-143 0 -276.5 -136t-133.5 -318q0 -127 80 -215t189 -88zM809 0l31 145q-6 -6 -16.5 -17t-46.5 -40t-74.5 -50.5t-99 -39.5t-124.5 -18q-160 0 -278.5 125.5t-118.5 297.5q0 246 180 423.5t393 177.5
q63 0 119.5 -18.5t93.5 -45.5t63.5 -54.5t39.5 -45.5l12 -19l35 162h143l-209 -983h-143zM408 1157l282 277h144l167 -277h-127l-120 195l-207 -195h-139z" />
    <glyph glyph-name="atilde" unicode="&#xe3;" horiz-adv-x="1218" 
d="M496 113q160 0 293 148.5t133 320.5q0 125 -84 206.5t-201 81.5q-143 0 -276.5 -136t-133.5 -318q0 -127 80 -215t189 -88zM809 0l31 145q-6 -6 -16.5 -17t-46.5 -40t-74.5 -50.5t-99 -39.5t-124.5 -18q-160 0 -278.5 125.5t-118.5 297.5q0 246 180 423.5t393 177.5
q63 0 119.5 -18.5t93.5 -45.5t63.5 -54.5t39.5 -45.5l12 -19l35 162h143l-209 -983h-143zM598 1290q-33 0 -63.5 -33.5t-42.5 -99.5h-103q53 246 215 246q61 0 107.5 -34t82 -66.5t72.5 -32.5q33 0 64 33.5t43 99.5h102q-27 -121 -82 -183.5t-133 -62.5q-61 0 -107 34
t-82 66.5t-73 32.5z" />
    <glyph glyph-name="adieresis" unicode="&#xe4;" horiz-adv-x="1218" 
d="M496 113q160 0 293 148.5t133 320.5q0 125 -84 206.5t-201 81.5q-143 0 -276.5 -136t-133.5 -318q0 -127 80 -215t189 -88zM809 0l31 145q-6 -6 -16.5 -17t-46.5 -40t-74.5 -50.5t-99 -39.5t-124.5 -18q-160 0 -278.5 125.5t-118.5 297.5q0 246 180 423.5t393 177.5
q63 0 119.5 -18.5t93.5 -45.5t63.5 -54.5t39.5 -45.5l12 -19l35 162h143l-209 -983h-143zM442 1280q0 39 31 70.5t72 31.5q39 0 62.5 -22.5t23.5 -56.5q0 -43 -30 -74t-73 -31q-39 0 -62.5 23.5t-23.5 58.5zM831 1280q0 39 31 70.5t72 31.5q39 0 62.5 -22.5t23.5 -56.5
q0 -43 -29.5 -74t-72.5 -31q-39 0 -63 23.5t-24 58.5z" />
    <glyph glyph-name="aring" unicode="&#xe5;" horiz-adv-x="1218" 
d="M496 113q160 0 293 148.5t133 320.5q0 125 -84 206.5t-201 81.5q-143 0 -276.5 -136t-133.5 -318q0 -127 80 -215t189 -88zM809 0l31 145q-6 -6 -16.5 -17t-46.5 -40t-74.5 -50.5t-99 -39.5t-124.5 -18q-160 0 -278.5 125.5t-118.5 297.5q0 246 180 423.5t393 177.5
q63 0 119.5 -18.5t93.5 -45.5t63.5 -54.5t39.5 -45.5l12 -19l35 162h143l-209 -983h-143zM750 1413q-45 0 -75 -38t-30 -85q0 -37 23.5 -59.5t58.5 -22.5q41 0 74 34t33 85q0 39 -22.5 62.5t-61.5 23.5zM938 1337q0 -88 -62.5 -154.5t-152.5 -66.5q-82 0 -132 46t-50 120
q0 94 63.5 158.5t153.5 64.5q82 0 131 -47t49 -121z" />
    <glyph glyph-name="ae" unicode="&#xe6;" horiz-adv-x="1761" 
d="M1649 440h-768q-4 -33 -4 -47q0 -115 86 -197.5t206 -82.5q90 0 171 42t118 83l35 41l78 -95q-6 -8 -18.5 -22.5t-53.5 -49t-86 -61t-115.5 -49t-144.5 -22.5q-78 0 -145.5 25.5t-108.5 61t-70.5 71.5t-42.5 63l-12 24q-6 -10 -18.5 -26.5t-54.5 -58.5t-90 -74.5
t-125.5 -59t-161.5 -26.5q-135 0 -220.5 75.5t-85.5 177.5q0 141 113 240.5t272 99.5h363l6 31q8 33 8 70q0 88 -58 142t-151 54q-78 0 -147.5 -35.5t-99.5 -72.5l-33 -35l-76 92q6 8 16.5 20.5t47 44t76.5 56.5t102.5 44.5t128.5 19.5q70 0 127 -21.5t89 -51.5t54.5 -59.5
t28.5 -52.5l8 -20q6 8 19.5 22.5t55.5 49t86 61t112.5 49.5t138.5 23q160 0 270.5 -105.5t110.5 -273.5q0 -105 -37 -185zM350 113q141 0 250 96t137 231h-338q-98 0 -165.5 -54t-67.5 -140q0 -55 49 -94t135 -39zM1292 870q-119 0 -230.5 -89t-152.5 -208h645
q4 131 -67.5 214t-194.5 83z" />
    <glyph glyph-name="ccedilla" unicode="&#xe7;" horiz-adv-x="1054" 
d="M82 403q0 233 172 417t416 184q72 0 137 -20.5t108 -49.5t75 -56.5t46 -48.5l15 -20l-111 -92q-4 6 -12 16t-35 37t-58.5 47.5t-82 36.5t-105.5 16q-160 0 -290 -134t-130 -320q0 -127 83 -215t202 -88q55 0 108.5 16t92.5 40t68.5 48.5t45.5 40.5l15 16l88 -90
q-6 -8 -19.5 -21t-55.5 -48t-88 -61.5t-115.5 -49t-139.5 -24.5l-61 -93h6q63 0 99 -36.5t36 -90.5q0 -78 -59.5 -129t-157.5 -51q-45 0 -88 16.5t-64 32.5l-20 17l53 67q39 -51 121 -51q51 0 87 28.5t36 63.5q0 27 -18.5 44.5t-51.5 17.5q-16 0 -32.5 -5.5t-24.5 -11.5
l-8 -4l-39 51l94 142q-145 29 -241.5 146t-96.5 269z" />
    <glyph glyph-name="egrave" unicode="&#xe8;" horiz-adv-x="1136" 
d="M508 113q92 0 178 41t125 82l41 40l78 -92q-6 -8 -18.5 -22.5t-55.5 -49t-89 -61t-119 -49t-146 -22.5q-174 0 -297 122.5t-123 296.5q0 248 177 426.5t398 178.5q174 0 290 -105.5t116 -273.5q0 -104 -39 -187l-801 2v-30q0 -127 83 -212t202 -85zM643 870
q-123 0 -234.5 -87t-158.5 -220h668q2 12 2 35q0 119 -78 195.5t-199 76.5zM662 1434l94 -277h-105l-137 277h148z" />
    <glyph glyph-name="eacute" unicode="&#xe9;" horiz-adv-x="1136" 
d="M508 113q92 0 178 41t125 82l41 40l78 -92q-6 -8 -18.5 -22.5t-55.5 -49t-89 -61t-119 -49t-146 -22.5q-174 0 -297 122.5t-123 296.5q0 248 177 426.5t398 178.5q174 0 290 -105.5t116 -273.5q0 -104 -39 -187l-801 2v-30q0 -127 83 -212t202 -85zM643 870
q-123 0 -234.5 -87t-158.5 -220h668q2 12 2 35q0 119 -78 195.5t-199 76.5zM649 1157l207 277h162l-252 -277h-117z" />
    <glyph glyph-name="ecircumflex" unicode="&#xea;" horiz-adv-x="1136" 
d="M508 113q92 0 178 41t125 82l41 40l78 -92q-6 -8 -18.5 -22.5t-55.5 -49t-89 -61t-119 -49t-146 -22.5q-174 0 -297 122.5t-123 296.5q0 248 177 426.5t398 178.5q174 0 290 -105.5t116 -273.5q0 -104 -39 -187l-801 2v-30q0 -127 83 -212t202 -85zM643 870
q-123 0 -234.5 -87t-158.5 -220h668q2 12 2 35q0 119 -78 195.5t-199 76.5zM408 1157l282 277h144l167 -277h-127l-120 195l-207 -195h-139z" />
    <glyph glyph-name="edieresis" unicode="&#xeb;" horiz-adv-x="1136" 
d="M508 113q92 0 178 41t125 82l41 40l78 -92q-6 -8 -18.5 -22.5t-55.5 -49t-89 -61t-119 -49t-146 -22.5q-174 0 -297 122.5t-123 296.5q0 248 177 426.5t398 178.5q174 0 290 -105.5t116 -273.5q0 -104 -39 -187l-801 2v-30q0 -127 83 -212t202 -85zM643 870
q-123 0 -234.5 -87t-158.5 -220h668q2 12 2 35q0 119 -78 195.5t-199 76.5zM428 1280q0 39 30.5 70.5t71.5 31.5q39 0 62.5 -22.5t23.5 -56.5q0 -43 -29.5 -74t-72.5 -31q-39 0 -62.5 23.5t-23.5 58.5zM817 1280q0 39 31 70.5t72 31.5q39 0 62.5 -22.5t23.5 -56.5
q0 -43 -30 -74t-73 -31q-39 0 -62.5 23.5t-23.5 58.5z" />
    <glyph glyph-name="igrave" unicode="&#xec;" horiz-adv-x="471" 
d="M311 1434l95 -277h-105l-137 277h147zM61 0l209 983h144l-209 -983h-144z" />
    <glyph glyph-name="iacute" unicode="&#xed;" horiz-adv-x="471" 
d="M319 1157l207 277h162l-252 -277h-117zM61 0l209 983h144l-209 -983h-144z" />
    <glyph glyph-name="icircumflex" unicode="&#xee;" horiz-adv-x="471" 
d="M61 0l209 983h144l-209 -983h-144zM68 1157l282 277h144l168 -277h-127l-121 195l-207 -195h-139z" />
    <glyph glyph-name="idieresis" unicode="&#xef;" horiz-adv-x="471" 
d="M100 1280q0 39 31 70.5t72 31.5q39 0 62.5 -22.5t23.5 -56.5q0 -43 -30 -74t-73 -31q-39 0 -62.5 23.5t-23.5 58.5zM489 1280q0 39 31 70.5t72 31.5q39 0 62.5 -22.5t23.5 -56.5q0 -43 -30 -74t-73 -31q-39 0 -62.5 23.5t-23.5 58.5zM61 0l209 983h144l-209 -983h-144z
" />
    <glyph glyph-name="eth" unicode="&#xf0;" horiz-adv-x="1177" 
d="M1116 1495l-235 -143q8 -6 23.5 -19.5t53 -60.5t67.5 -103.5t53.5 -149.5t23.5 -198q0 -387 -184.5 -614t-438.5 -227q-168 0 -285.5 118.5t-117.5 286.5q0 227 176 402.5t391 175.5q66 0 124 -20.5t94 -49.5t61.5 -58.5t35.5 -50.5l13 -20v24q0 90 -21.5 173
t-51.5 136.5t-60.5 94.5t-51.5 59l-22 19l-277 -174l-51 114l213 133q-84 70 -211 101l68 123q74 -23 141.5 -58.5t97.5 -58.5l33 -25l283 174zM492 113q160 0 281.5 135t121.5 299q0 121 -78 201.5t-190 80.5q-150 0 -277 -131t-127 -307q0 -121 78 -199.5t191 -78.5z" />
    <glyph glyph-name="ntilde" unicode="&#xf1;" 
d="M414 983l-31 -141q4 6 13.5 17t41 39t66.5 49.5t92 39t117 17.5q154 0 248 -86.5t94 -233.5q0 -57 -11 -100l-122 -584h-144l123 584q8 49 8 69q0 100 -61.5 158.5t-161.5 58.5q-131 0 -234.5 -95t-134.5 -243l-112 -532h-144l209 983h144zM612 1290q-33 0 -63.5 -33.5
t-42.5 -99.5h-103q27 121 82.5 183.5t132.5 62.5q61 0 107.5 -34t82.5 -66.5t73 -32.5q33 0 63.5 33.5t42.5 99.5h103q-53 -246 -216 -246q-61 0 -107 34t-82 66.5t-73 32.5z" />
    <glyph glyph-name="ograve" unicode="&#xf2;" 
d="M551 111q162 0 288 132t126 302q0 139 -92.5 233t-231.5 94q-156 0 -285 -128t-129 -306q0 -137 92.5 -232t231.5 -95zM82 430q0 219 171 396.5t400 177.5q199 0 328 -131.5t129 -321.5q0 -231 -176 -401t-395 -170q-199 0 -328 130t-129 320zM655 1434l95 -277h-105
l-137 277h147z" />
    <glyph glyph-name="oacute" unicode="&#xf3;" 
d="M551 111q162 0 288 132t126 302q0 139 -92.5 233t-231.5 94q-156 0 -285 -128t-129 -306q0 -137 92.5 -232t231.5 -95zM82 430q0 219 171 396.5t400 177.5q199 0 328 -131.5t129 -321.5q0 -231 -176 -401t-395 -170q-199 0 -328 130t-129 320zM641 1157l207 277h162
l-252 -277h-117z" />
    <glyph glyph-name="ocircumflex" unicode="&#xf4;" 
d="M551 111q162 0 288 132t126 302q0 139 -92.5 233t-231.5 94q-156 0 -285 -128t-129 -306q0 -137 92.5 -232t231.5 -95zM82 430q0 219 171 396.5t400 177.5q199 0 328 -131.5t129 -321.5q0 -231 -176 -401t-395 -170q-199 0 -328 130t-129 320zM408 1157l282 277h144
l167 -277h-127l-120 195l-207 -195h-139z" />
    <glyph glyph-name="otilde" unicode="&#xf5;" 
d="M551 111q162 0 288 132t126 302q0 139 -92.5 233t-231.5 94q-156 0 -285 -128t-129 -306q0 -137 92.5 -232t231.5 -95zM82 430q0 219 171 396.5t400 177.5q199 0 328 -131.5t129 -321.5q0 -231 -176 -401t-395 -170q-199 0 -328 130t-129 320zM596 1290
q-33 0 -63.5 -33.5t-43.5 -99.5h-102q27 121 82 183.5t133 62.5q61 0 107.5 -34t82 -66.5t72.5 -32.5q33 0 63.5 33.5t43.5 99.5h102q-27 -121 -82 -183.5t-133 -62.5q-61 0 -107 34t-82 66.5t-73 32.5z" />
    <glyph glyph-name="odieresis" unicode="&#xf6;" 
d="M551 111q162 0 288 132t126 302q0 139 -92.5 233t-231.5 94q-156 0 -285 -128t-129 -306q0 -137 92.5 -232t231.5 -95zM82 430q0 219 171 396.5t400 177.5q199 0 328 -131.5t129 -321.5q0 -231 -176 -401t-395 -170q-199 0 -328 130t-129 320zM442 1280q0 39 31 70.5
t72 31.5q39 0 62.5 -22.5t23.5 -56.5q0 -43 -30 -74t-73 -31q-39 0 -62.5 23.5t-23.5 58.5zM831 1280q0 39 31 70.5t72 31.5q39 0 62.5 -22.5t23.5 -56.5q0 -43 -29.5 -74t-72.5 -31q-39 0 -63 23.5t-24 58.5z" />
    <glyph glyph-name="divide" unicode="&#xf7;" horiz-adv-x="1044" 
d="M1001 666l-28 -134h-860l28 134h860zM528 946q0 47 31 83t80 36q45 0 71.5 -23.5t26.5 -62.5q0 -53 -32.5 -86t-79.5 -33q-45 0 -71 23.5t-26 62.5zM375 219q0 47 30.5 83t79.5 36q45 0 72 -23.5t27 -62.5q0 -53 -33 -86t-80 -33q-45 0 -70.5 23.5t-25.5 62.5z" />
    <glyph glyph-name="oslash" unicode="&#xf8;" 
d="M82 430q0 219 171 396.5t400 177.5q184 0 310 -115l176 149l75 -100l-170 -145q66 -111 66 -242q0 -231 -176 -401t-395 -170q-186 0 -314 114l-174 -149l-76 100l170 145q-63 109 -63 240zM551 111q162 0 288 132t126 302q0 80 -35 149l-594 -506q88 -77 215 -77z
M227 438q0 -84 33 -149l594 506q-90 78 -213 77q-156 0 -285 -128t-129 -306z" />
    <glyph glyph-name="ugrave" unicode="&#xf9;" 
d="M778 0l27 131q-4 -6 -13.5 -16.5t-40 -37t-65.5 -46t-92 -35.5t-117 -16q-147 0 -243.5 91t-96.5 240q0 55 10 99l123 573h144l-123 -573q-8 -33 -8 -72q0 -100 61.5 -162.5t159.5 -62.5q125 0 231.5 96t136.5 240l115 534h143l-208 -983h-144zM682 1434l94 -277h-104
l-137 277h147z" />
    <glyph glyph-name="uacute" unicode="&#xfa;" 
d="M778 0l27 131q-4 -6 -13.5 -16.5t-40 -37t-65.5 -46t-92 -35.5t-117 -16q-147 0 -243.5 91t-96.5 240q0 55 10 99l123 573h144l-123 -573q-8 -33 -8 -72q0 -100 61.5 -162.5t159.5 -62.5q125 0 231.5 96t136.5 240l115 534h143l-208 -983h-144zM625 1157l206 277h162
l-252 -277h-116z" />
    <glyph glyph-name="ucircumflex" unicode="&#xfb;" 
d="M778 0l27 131q-4 -6 -13.5 -16.5t-40 -37t-65.5 -46t-92 -35.5t-117 -16q-147 0 -243.5 91t-96.5 240q0 55 10 99l123 573h144l-123 -573q-8 -33 -8 -72q0 -100 61.5 -162.5t159.5 -62.5q125 0 231.5 96t136.5 240l115 534h143l-208 -983h-144zM403 1157l283 277h143
l168 -277h-127l-120 195l-207 -195h-140z" />
    <glyph glyph-name="udieresis" unicode="&#xfc;" 
d="M778 0l27 131q-4 -6 -13.5 -16.5t-40 -37t-65.5 -46t-92 -35.5t-117 -16q-147 0 -243.5 91t-96.5 240q0 55 10 99l123 573h144l-123 -573q-8 -33 -8 -72q0 -100 61.5 -162.5t159.5 -62.5q125 0 231.5 96t136.5 240l115 534h143l-208 -983h-144zM461 1270q0 39 30.5 70.5
t71.5 31.5q39 0 62.5 -22.5t23.5 -57.5q0 -43 -29.5 -73.5t-72.5 -30.5q-39 0 -62.5 23.5t-23.5 58.5zM850 1270q0 39 30.5 70.5t71.5 31.5q39 0 62.5 -22.5t23.5 -57.5q0 -43 -29.5 -73.5t-72.5 -30.5q-39 0 -62.5 23.5t-23.5 58.5z" />
    <glyph glyph-name="yacute" unicode="&#xfd;" horiz-adv-x="1003" 
d="M240 -143l86 149l-189 977h148l147 -799l488 799h159l-690 -1126q-96 -156 -179 -221.5t-190 -65.5q-33 0 -61.5 5t-40.5 11l-14 4l26 129q39 -16 90 -16q132 0 220 154zM559 1157l207 277h162l-252 -277h-117z" />
    <glyph glyph-name="thorn" unicode="&#xfe;" horiz-adv-x="1228" 
d="M735 870q-160 0 -293 -148.5t-133 -320.5q0 -125 84 -206.5t201 -81.5q143 0 276.5 137t133.5 319q0 127 -80 214t-189 87zM518 1434l-127 -596q6 6 16.5 17t46 40t74.5 50.5t99.5 40t124.5 18.5q160 0 278.5 -126t118.5 -298q0 -246 -180.5 -423t-393.5 -177
q-63 0 -119.5 18t-93 45t-63.5 54.5t-39 45.5l-12 19l-125 -592h-143l395 1864h143z" />
    <glyph glyph-name="ydieresis" unicode="&#xff;" horiz-adv-x="1003" 
d="M240 -143l86 149l-189 977h148l147 -799l488 799h159l-690 -1126q-96 -156 -179 -221.5t-190 -65.5q-33 0 -61.5 5t-40.5 11l-14 4l26 129q39 -16 90 -16q132 0 220 154zM360 1280q0 39 31 70.5t72 31.5q39 0 62.5 -22.5t23.5 -56.5q0 -43 -30 -74t-73 -31
q-39 0 -62.5 23.5t-23.5 58.5zM750 1280q0 39 30.5 70.5t71.5 31.5q39 0 62.5 -22.5t23.5 -56.5q0 -43 -29.5 -74t-72.5 -31q-39 0 -62.5 23.5t-23.5 58.5z" />
    <glyph glyph-name="Amacron" unicode="&#x100;" horiz-adv-x="1433" 
d="M1020 543l-133 676l-420 -676h553zM1051 399h-676l-248 -399h-168l897 1434h143l291 -1434h-160zM1274 1812l-25 -112h-594l25 112h594z" />
    <glyph glyph-name="amacron" unicode="&#x101;" horiz-adv-x="1218" 
d="M496 113q160 0 293 148.5t133 320.5q0 125 -84 206.5t-201 81.5q-143 0 -276.5 -136t-133.5 -318q0 -127 80 -215t189 -88zM809 0l31 145q-6 -6 -16.5 -17t-46.5 -40t-74.5 -50.5t-99 -39.5t-124.5 -18q-160 0 -278.5 125.5t-118.5 297.5q0 246 180 423.5t393 177.5
q63 0 119.5 -18.5t93.5 -45.5t63.5 -54.5t39.5 -45.5l12 -19l35 162h143l-209 -983h-143zM1049 1362l-25 -113h-594l25 113h594z" />
    <glyph glyph-name="Abreve" unicode="&#x102;" horiz-adv-x="1433" 
d="M1020 543l-133 676l-420 -676h553zM1051 399h-676l-248 -399h-168l897 1434h143l291 -1434h-160zM971 1731q160 0 194 174h113q-27 -127 -107.5 -202t-201.5 -75q-125 0 -197 78t-47 199h113q-16 -84 19.5 -129t113.5 -45z" />
    <glyph glyph-name="abreve" unicode="&#x103;" horiz-adv-x="1218" 
d="M496 113q160 0 293 148.5t133 320.5q0 125 -84 206.5t-201 81.5q-143 0 -276.5 -136t-133.5 -318q0 -127 80 -215t189 -88zM809 0l31 145q-6 -6 -16.5 -17t-46.5 -40t-74.5 -50.5t-99 -39.5t-124.5 -18q-160 0 -278.5 125.5t-118.5 297.5q0 246 180 423.5t393 177.5
q63 0 119.5 -18.5t93.5 -45.5t63.5 -54.5t39.5 -45.5l12 -19l35 162h143l-209 -983h-143zM743 1260q160 0 195 174h113q-27 -127 -108 -202t-202 -75q-125 0 -196.5 78t-46.5 199h112q-16 -84 19.5 -129t113.5 -45z" />
    <glyph glyph-name="Aogonek" unicode="&#x104;" horiz-adv-x="1433" 
d="M1051 399h-676l-248 -399h-168l897 1434h143l291 -1434h-57q-18 -16 -46 -44t-74 -94.5t-46 -113.5q0 -66 88 -65q27 0 59.5 7t51.5 15l18 8l-22 -102q-63 -31 -138 -31q-76 0 -119.5 41t-43.5 107q0 70 43 137t86 102l40 33zM1020 543l-133 676l-420 -676h553z" />
    <glyph glyph-name="aogonek" unicode="&#x105;" horiz-adv-x="1218" 
d="M809 0l31 145q-6 -6 -16.5 -17t-46.5 -40t-74.5 -50.5t-99 -39.5t-124.5 -18q-160 0 -278.5 125.5t-118.5 297.5q0 246 180 423.5t393 177.5q63 0 119.5 -18.5t93.5 -45.5t63.5 -54.5t39.5 -45.5l12 -19l35 162h143l-209 -983h-41q-18 -16 -45.5 -44t-74 -94.5
t-46.5 -113.5q0 -66 89 -65q27 0 59.5 7t50.5 15l19 8l-23 -102q-63 -31 -137 -31q-76 0 -120 41t-44 107q0 70 43 137t84 102zM496 113q160 0 293 148.5t133 320.5q0 125 -84 206.5t-201 81.5q-143 0 -276.5 -136t-133.5 -318q0 -127 80 -215t189 -88z" />
    <glyph glyph-name="Cacute" unicode="&#x106;" horiz-adv-x="1536" 
d="M164 604q0 217 113.5 412.5t314.5 316.5t436 121q109 0 208 -30.5t161.5 -73.5t110.5 -87t69 -75l20 -31l-114 -88q-6 10 -17.5 26.5t-53.5 57.5t-91 72.5t-132 58.5t-175 27q-279 0 -485.5 -203t-206.5 -498q0 -205 141 -346t352 -141q92 0 178 25.5t144.5 62.5
t103.5 72.5t66 60.5l22 27l90 -95q-10 -12 -27.5 -31.5t-78 -70.5t-127 -91t-171 -71.5t-212.5 -31.5q-264 0 -451.5 186t-187.5 438zM989 1628l207 277h162l-252 -277h-117z" />
    <glyph glyph-name="cacute" unicode="&#x107;" horiz-adv-x="1054" 
d="M82 403q0 233 172 417t416 184q72 0 137 -20.5t108 -49.5t75 -56.5t46 -48.5l15 -20l-111 -92q-4 6 -12 16t-35 37t-58.5 47.5t-82 36.5t-105.5 16q-160 0 -290 -134t-130 -320q0 -127 83 -215t202 -88q55 0 108.5 16t92.5 40t68.5 48.5t45.5 40.5l15 16l88 -90
q-6 -8 -19.5 -22.5t-57.5 -49t-90 -61t-118 -49t-143 -22.5q-174 0 -297 124.5t-123 298.5zM641 1157l207 277h162l-252 -277h-117z" />
    <glyph glyph-name="Ccircumflex" unicode="&#x108;" horiz-adv-x="1536" 
d="M164 604q0 217 113.5 412.5t314.5 316.5t436 121q109 0 208 -30.5t161.5 -73.5t110.5 -87t69 -75l20 -31l-114 -88q-6 10 -17.5 26.5t-53.5 57.5t-91 72.5t-132 58.5t-175 27q-279 0 -485.5 -203t-206.5 -498q0 -205 141 -346t352 -141q92 0 178 25.5t144.5 62.5
t103.5 72.5t66 60.5l22 27l90 -95q-10 -12 -27.5 -31.5t-78 -70.5t-127 -91t-171 -71.5t-212.5 -31.5q-264 0 -451.5 186t-187.5 438zM768 1628l283 277h143l168 -277h-127l-121 195l-207 -195h-139z" />
    <glyph glyph-name="ccircumflex" unicode="&#x109;" horiz-adv-x="1054" 
d="M82 403q0 233 172 417t416 184q72 0 137 -20.5t108 -49.5t75 -56.5t46 -48.5l15 -20l-111 -92q-4 6 -12 16t-35 37t-58.5 47.5t-82 36.5t-105.5 16q-160 0 -290 -134t-130 -320q0 -127 83 -215t202 -88q55 0 108.5 16t92.5 40t68.5 48.5t45.5 40.5l15 16l88 -90
q-6 -8 -19.5 -22.5t-57.5 -49t-90 -61t-118 -49t-143 -22.5q-174 0 -297 124.5t-123 298.5zM399 1157l283 277h143l168 -277h-127l-121 195l-206 -195h-140z" />
    <glyph glyph-name="Ccaron" unicode="&#x10c;" horiz-adv-x="1536" 
d="M164 604q0 217 113.5 412.5t314.5 316.5t436 121q109 0 208 -30.5t161.5 -73.5t110.5 -87t69 -75l20 -31l-114 -88q-6 10 -17.5 26.5t-53.5 57.5t-91 72.5t-132 58.5t-175 27q-279 0 -485.5 -203t-206.5 -498q0 -205 141 -346t352 -141q92 0 178 25.5t144.5 62.5
t103.5 72.5t66 60.5l22 27l90 -95q-10 -12 -27.5 -31.5t-78 -70.5t-127 -91t-171 -71.5t-212.5 -31.5q-264 0 -451.5 186t-187.5 438zM1419 1905l-282 -277h-144l-168 277h127l121 -195l207 195h139z" />
    <glyph glyph-name="ccaron" unicode="&#x10d;" horiz-adv-x="1054" 
d="M82 403q0 233 172 417t416 184q72 0 137 -20.5t108 -49.5t75 -56.5t46 -48.5l15 -20l-111 -92q-4 6 -12 16t-35 37t-58.5 47.5t-82 36.5t-105.5 16q-160 0 -290 -134t-130 -320q0 -127 83 -215t202 -88q55 0 108.5 16t92.5 40t68.5 48.5t45.5 40.5l15 16l88 -90
q-6 -8 -19.5 -22.5t-57.5 -49t-90 -61t-118 -49t-143 -22.5q-174 0 -297 124.5t-123 298.5zM1051 1434l-283 -277h-143l-168 277h127l121 -195l206 195h140z" />
    <glyph glyph-name="Dcaron" unicode="&#x10e;" horiz-adv-x="1536" 
d="M426 1434h426q270 0 452.5 -181.5t182.5 -429.5q0 -334 -260 -578.5t-613 -244.5h-491zM831 1290h-282l-244 -1147h326q285 0 492.5 197t207.5 471q0 199 -141.5 339t-358.5 140zM1278 1905l-283 -277h-143l-168 277h127l121 -195l207 195h139z" />
    <glyph glyph-name="dcaron" unicode="&#x10f;" horiz-adv-x="1320" 
d="M496 113q160 0 293 148.5t133 320.5q0 125 -84 206.5t-201 81.5q-143 0 -276.5 -136t-133.5 -318q0 -127 80 -215t189 -88zM809 0l31 145q-6 -6 -16.5 -17t-46.5 -40t-74.5 -50.5t-99 -39.5t-124.5 -18q-160 0 -278.5 125.5t-118.5 297.5q0 246 180 423.5t393 177.5
q63 0 119.5 -18.5t93.5 -45.5t63.5 -54.5t39.5 -45.5l12 -19l129 613h143l-303 -1434h-143zM1327 1157l146 277h141l-180 -277h-107z" />
    <glyph glyph-name="Dcroat" unicode="&#x110;" horiz-adv-x="1566" 
d="M457 1434h426q270 0 452.5 -181.5t182.5 -429.5q0 -334 -260.5 -578.5t-612.5 -244.5h-491l135 645h-195l31 143h194zM862 1290h-282l-107 -502h348l-30 -143h-349l-106 -502h326q285 0 492.5 197t207.5 471q0 199 -141.5 339t-358.5 140z" />
    <glyph glyph-name="dcroat" unicode="&#x111;" horiz-adv-x="1228" 
d="M963 780l71 336h-266l29 133h266l39 185h143l-39 -185h164l-29 -133h-163l-236 -1116h-143l28 143q-16 -18 -45.5 -45.5t-125 -72.5t-195.5 -45q-160 0 -271.5 124.5t-111.5 292.5q0 225 176 395.5t387 170.5q63 0 119.5 -18.5t91.5 -45.5t61.5 -54.5t36.5 -45.5z
M477 113q158 0 293 132t135 294q0 119 -83 204.5t-197 85.5q-143 0 -272.5 -127t-129.5 -288q0 -123 74 -212t180 -89z" />
    <glyph glyph-name="Emacron" unicode="&#x112;" horiz-adv-x="1310" 
d="M305 143h850l-29 -143h-1003l303 1434h983l-31 -144h-829l-98 -471h665l-31 -143h-665zM1282 1812l-25 -112h-593l24 112h594z" />
    <glyph glyph-name="emacron" unicode="&#x113;" horiz-adv-x="1136" 
d="M508 113q92 0 178 41t125 82l41 40l78 -92q-6 -8 -18.5 -22.5t-55.5 -49t-89 -61t-119 -49t-146 -22.5q-174 0 -297 122.5t-123 296.5q0 248 177 426.5t398 178.5q174 0 290 -105.5t116 -273.5q0 -104 -39 -187l-801 2v-30q0 -127 83 -212t202 -85zM643 870
q-123 0 -234.5 -87t-158.5 -220h668q2 12 2 35q0 119 -78 195.5t-199 76.5zM1036 1341l-24 -112h-594l24 112h594z" />
    <glyph glyph-name="Edotaccent" unicode="&#x116;" horiz-adv-x="1310" 
d="M305 143h850l-29 -143h-1003l303 1434h983l-31 -144h-829l-98 -471h665l-31 -143h-665zM879 1751q0 39 30.5 70.5t71.5 31.5q39 0 62.5 -22.5t23.5 -56.5q0 -43 -29.5 -74t-72.5 -31q-39 0 -62.5 23.5t-23.5 58.5z" />
    <glyph glyph-name="edotaccent" unicode="&#x117;" horiz-adv-x="1136" 
d="M508 113q92 0 178 41t125 82l41 40l78 -92q-6 -8 -18.5 -22.5t-55.5 -49t-89 -61t-119 -49t-146 -22.5q-174 0 -297 122.5t-123 296.5q0 248 177 426.5t398 178.5q174 0 290 -105.5t116 -273.5q0 -104 -39 -187l-801 2v-30q0 -127 83 -212t202 -85zM643 870
q-123 0 -234.5 -87t-158.5 -220h668q2 12 2 35q0 119 -78 195.5t-199 76.5zM631 1280q0 39 30.5 70.5t71.5 31.5q39 0 62.5 -22.5t23.5 -56.5q0 -43 -29.5 -74t-72.5 -31q-39 0 -62.5 23.5t-23.5 58.5z" />
    <glyph glyph-name="Eogonek" unicode="&#x118;" horiz-adv-x="1310" 
d="M1024 0h-901l303 1434h983l-31 -144h-829l-98 -471h665l-31 -143h-665l-115 -533h850l-29 -143q-18 -16 -45.5 -44t-73.5 -94.5t-46 -113.5q0 -66 88 -65q27 0 59.5 7t50.5 15l19 8l-23 -102q-63 -31 -137 -31q-76 0 -120 41t-44 107q0 70 42 137t85 102z" />
    <glyph glyph-name="eogonek" unicode="&#x119;" horiz-adv-x="1136" 
d="M508 113q92 0 178 41t125 82l41 40l78 -92q-6 -8 -17.5 -20t-50.5 -45t-80 -58.5t-106.5 -49t-132.5 -29.5q-145 -137 -146 -234q0 -66 88 -65q27 0 60 7t51 15l18 8l-22 -102q-63 -31 -137 -31q-76 0 -120 41t-44 107q0 135 147 256q-152 23 -254 140.5t-102 274.5
q0 248 177 426.5t398 178.5q174 0 290 -105.5t116 -273.5q0 -104 -39 -187l-801 2v-30q0 -127 83 -212t202 -85zM643 870q-123 0 -234.5 -87t-158.5 -220h668q2 12 2 35q0 119 -78 195.5t-199 76.5z" />
    <glyph glyph-name="Ecaron" unicode="&#x11a;" horiz-adv-x="1310" 
d="M305 143h850l-29 -143h-1003l303 1434h983l-31 -144h-829l-98 -471h665l-31 -143h-665zM1294 1894l-282 -276h-144l-168 276h127l121 -194l207 194h139z" />
    <glyph glyph-name="ecaron" unicode="&#x11b;" horiz-adv-x="1136" 
d="M508 113q92 0 178 41t125 82l41 40l78 -92q-6 -8 -18.5 -22.5t-55.5 -49t-89 -61t-119 -49t-146 -22.5q-174 0 -297 122.5t-123 296.5q0 248 177 426.5t398 178.5q174 0 290 -105.5t116 -273.5q0 -104 -39 -187l-801 2v-30q0 -127 83 -212t202 -85zM643 870
q-123 0 -234.5 -87t-158.5 -220h668q2 12 2 35q0 119 -78 195.5t-199 76.5zM1065 1434l-283 -277h-143l-168 277h127l121 -195l207 195h139z" />
    <glyph glyph-name="Gbreve" unicode="&#x11e;" horiz-adv-x="1628" 
d="M164 600q0 221 115.5 417.5t317.5 316.5t437 120q109 0 207 -30.5t160.5 -73.5t108.5 -87t67 -75l20 -31l-114 -88q-6 10 -17.5 26.5t-53.5 57.5t-91 72.5t-132 58.5t-175 27q-279 0 -485.5 -203t-206.5 -498q0 -203 144 -345t355 -142q86 0 165 20.5t131 49t92 56
t57 48.5l18 20l59 277h-327l31 143h481l-98 -461q-10 -12 -29 -31.5t-80 -70.5t-129 -91t-174.5 -71.5t-214.5 -31.5q-264 0 -451.5 184t-187.5 436zM1083 1720q160 0 195 174h113q-27 -127 -108 -201.5t-202 -74.5q-125 0 -196.5 78t-46.5 198h112q-16 -84 19.5 -129
t113.5 -45z" />
    <glyph glyph-name="gbreve" unicode="&#x11f;" 
d="M791 61l26 119q-4 -6 -13 -17t-41 -39t-69 -48.5t-95 -38t-122 -17.5q-160 0 -275.5 120t-115.5 288q0 238 170 407t383 169q63 0 118.5 -17.5t90.5 -43t60.5 -50.5t35.5 -41l10 -18l33 149h143l-196 -922q-45 -211 -199.5 -351t-351.5 -140q-78 0 -147.5 21.5t-113.5 51
t-78 59.5t-48 52l-14 21l108 88q4 -6 11.5 -17.5t34 -39t58 -48t84 -38t109.5 -17.5q139 0 255 102t149 256zM623 870q-158 0 -275 -135t-117 -299q0 -119 78 -200.5t185 -81.5q150 0 275.5 132t125.5 310q0 119 -78.5 196.5t-193.5 77.5zM723 1260q160 0 195 174h112
q-27 -127 -107.5 -202t-201.5 -75q-125 0 -196.5 78t-47.5 199h113q-16 -84 19.5 -129t113.5 -45z" />
    <glyph glyph-name="uni0122" unicode="&#x122;" horiz-adv-x="1628" 
d="M164 600q0 221 115.5 417.5t317.5 316.5t437 120q109 0 207 -30.5t160.5 -73.5t108.5 -87t67 -75l20 -31l-114 -88q-6 10 -17.5 26.5t-53.5 57.5t-91 72.5t-132 58.5t-175 27q-279 0 -485.5 -203t-206.5 -498q0 -203 144 -345t355 -142q86 0 165 20.5t131 49t92 56
t57 48.5l18 20l59 277h-327l31 143h481l-98 -461q-10 -12 -29 -31.5t-80 -70.5t-129 -91t-174.5 -71.5t-214.5 -31.5q-264 0 -451.5 184t-187.5 436zM551 -440l143 276h142l-181 -276h-104z" />
    <glyph glyph-name="uni0123" unicode="&#x123;" 
d="M903 1434l-145 -277h-142l181 277h106zM791 61l26 119q-4 -6 -13 -17t-41 -39t-69 -48.5t-95 -38t-122 -17.5q-160 0 -275.5 120t-115.5 288q0 238 170 407t383 169q63 0 118.5 -17.5t90.5 -43t60.5 -50.5t35.5 -41l10 -18l33 149h143l-196 -922q-45 -211 -200.5 -351
t-352.5 -140q-78 0 -147.5 21.5t-113.5 51t-77 59.5t-47 52l-14 21l108 88q4 -6 11.5 -17.5t34 -39t58 -48t84 -38t109.5 -17.5q139 0 255 102t149 256zM623 870q-158 0 -275 -135t-117 -299q0 -119 78 -200.5t185 -81.5q150 0 275.5 132t125.5 310q0 119 -78.5 196.5
t-193.5 77.5z" />
    <glyph glyph-name="Imacron" unicode="&#x12a;" horiz-adv-x="583" 
d="M123 0l303 1434h154l-304 -1434h-153zM868 1812l-24 -112h-594l24 112h594z" />
    <glyph glyph-name="imacron" unicode="&#x12b;" horiz-adv-x="471" 
d="M711 1341l-25 -112h-594l25 112h594zM61 0l209 983h144l-209 -983h-144z" />
    <glyph glyph-name="Iogonek" unicode="&#x12e;" horiz-adv-x="583" 
d="M123 0l303 1434h154l-304 -1434h-51q-18 -16 -45.5 -44t-74 -94.5t-46.5 -113.5q0 -66 88 -65q27 0 60 7t51 15l18 8l-22 -102q-63 -31 -137 -31q-76 0 -120 41t-44 107q0 70 42 137t85 102z" />
    <glyph glyph-name="iogonek" unicode="&#x12f;" horiz-adv-x="471" 
d="M61 0l209 983h144l-209 -983h-41q-18 -16 -46 -44t-74 -94.5t-46 -113.5q0 -66 88 -65q27 0 59.5 7t51.5 15l18 8l-22 -102q-63 -31 -138 -31q-76 0 -120 41t-44 107q0 70 42 137t85 102zM311 1296q0 43 31 75t76 32q33 0 57.5 -23.5t24.5 -56.5q0 -43 -33 -73.5
t-76 -30.5q-33 0 -56.5 23t-23.5 54z" />
    <glyph glyph-name="Idotaccent" unicode="&#x130;" horiz-adv-x="583" 
d="M123 0l303 1434h154l-304 -1434h-153zM475 1751q0 39 31 70.5t72 31.5q39 0 62.5 -22.5t23.5 -56.5q0 -43 -30 -74t-73 -31q-39 0 -62.5 23.5t-23.5 58.5z" />
    <glyph glyph-name="dotlessi" unicode="&#x131;" horiz-adv-x="471" 
d="M61 0l209 983h144l-209 -983h-144z" />
    <glyph glyph-name="uni0136" unicode="&#x136;" horiz-adv-x="1372" 
d="M410 637l907 797h194l-669 -598l413 -836h-172l-360 729l-358 -309l-89 -420h-153l303 1434h154zM430 -440l143 276h142l-180 -276h-105z" />
    <glyph glyph-name="uni0137" unicode="&#x137;" horiz-adv-x="1044" 
d="M272 276l-57 -276h-143l303 1434h143l-205 -963l596 512h181l-465 -399l297 -584h-158l-250 483zM254 -440l143 276h142l-181 -276h-104z" />
    <glyph glyph-name="Lacute" unicode="&#x139;" horiz-adv-x="1146" 
d="M1014 0h-891l303 1434h154l-275 -1291h737zM494 1628l206 277h162l-252 -277h-116z" />
    <glyph glyph-name="lacute" unicode="&#x13a;" horiz-adv-x="491" 
d="M518 1434l-303 -1434h-143l303 1434h143zM436 1628l207 277h162l-252 -277h-117z" />
    <glyph glyph-name="uni013B" unicode="&#x13b;" horiz-adv-x="1146" 
d="M1014 0h-891l303 1434h154l-275 -1291h737zM356 -440l144 276h141l-180 -276h-105z" />
    <glyph glyph-name="uni013C" unicode="&#x13c;" horiz-adv-x="491" 
d="M518 1434l-303 -1434h-143l303 1434h143zM-104 -440l143 276h141l-180 -276h-104z" />
    <glyph glyph-name="Lcaron" unicode="&#x13d;" horiz-adv-x="1146" 
d="M1014 0h-891l303 1434h154l-275 -1291h737zM692 1157l146 277h141l-180 -277h-107z" />
    <glyph glyph-name="lcaron" unicode="&#x13e;" horiz-adv-x="583" 
d="M518 1434l-303 -1434h-143l303 1434h143zM580 1157l145 277h141l-180 -277h-106z" />
    <glyph glyph-name="Lslash" unicode="&#x141;" horiz-adv-x="1259" 
d="M1126 0h-890l122 582l-276 -144l-45 127l354 174l148 695h153l-127 -603l324 175l45 -127l-402 -205l-114 -531h737z" />
    <glyph glyph-name="lslash" unicode="&#x142;" horiz-adv-x="716" 
d="M631 1434l-123 -582l291 164l39 -107l-361 -204l-149 -705h-144l133 633l-288 -154l-39 107l358 194l139 654h144z" />
    <glyph glyph-name="Nacute" unicode="&#x143;" horiz-adv-x="1597" 
d="M1440 1434h153l-303 -1434h-123l-645 1159l-246 -1159h-153l303 1434h123l645 -1160zM958 1628l207 277h162l-252 -277h-117z" />
    <glyph glyph-name="nacute" unicode="&#x144;" 
d="M414 983l-31 -141q4 6 13.5 17t41 39t66.5 49.5t92 39t117 17.5q154 0 248 -86.5t94 -233.5q0 -57 -11 -100l-122 -584h-144l123 584q8 49 8 69q0 100 -61.5 158.5t-161.5 58.5q-131 0 -234.5 -95t-134.5 -243l-112 -532h-144l209 983h144zM672 1157l207 277h161
l-252 -277h-116z" />
    <glyph glyph-name="uni0145" unicode="&#x145;" horiz-adv-x="1597" 
d="M1440 1434h153l-303 -1434h-123l-645 1159l-246 -1159h-153l303 1434h123l645 -1160zM494 -440l143 276h141l-180 -276h-104z" />
    <glyph glyph-name="uni0146" unicode="&#x146;" 
d="M414 983l-31 -141q4 6 13.5 17t41 39t66.5 49.5t92 39t117 17.5q154 0 248 -86.5t94 -233.5q0 -57 -11 -100l-122 -584h-144l123 584q8 49 8 69q0 100 -61.5 158.5t-161.5 58.5q-131 0 -234.5 -95t-134.5 -243l-112 -532h-144l209 983h144zM260 -440l143 276h142
l-180 -276h-105z" />
    <glyph glyph-name="Ncaron" unicode="&#x147;" horiz-adv-x="1597" 
d="M1440 1434h153l-303 -1434h-123l-645 1159l-246 -1159h-153l303 1434h123l645 -1160zM1384 1894l-282 -276h-144l-167 276h127l120 -194l207 194h139z" />
    <glyph glyph-name="ncaron" unicode="&#x148;" 
d="M414 983l-31 -141q4 6 13.5 17t41 39t66.5 49.5t92 39t117 17.5q154 0 248 -86.5t94 -233.5q0 -57 -11 -100l-122 -584h-144l123 584q8 49 8 69q0 100 -61.5 158.5t-161.5 58.5q-131 0 -234.5 -95t-134.5 -243l-112 -532h-144l209 983h144zM1081 1434l-282 -277h-144
l-168 277h127l121 -195l207 195h139z" />
    <glyph glyph-name="Omacron" unicode="&#x14c;" horiz-adv-x="1720" 
d="M981 1313q-260 0 -461 -204t-201 -472q0 -221 151 -368.5t386 -147.5q258 0 460 199.5t202 478.5q0 219 -150.5 366.5t-386.5 147.5zM1673 801q0 -205 -113.5 -395.5t-307 -308t-412.5 -117.5q-293 0 -484.5 189t-191.5 464q0 217 119.5 408.5t312 302t401.5 110.5
q293 0 484.5 -189.5t191.5 -463.5zM1419 1812l-24 -112h-594l24 112h594z" />
    <glyph glyph-name="omacron" unicode="&#x14d;" 
d="M551 111q162 0 288 132t126 302q0 139 -92.5 233t-231.5 94q-156 0 -285 -128t-129 -306q0 -137 92.5 -232t231.5 -95zM82 430q0 219 171 396.5t400 177.5q199 0 328 -131.5t129 -321.5q0 -231 -176 -401t-395 -170q-199 0 -328 130t-129 320zM1053 1341l-25 -112h-594
l25 112h594z" />
    <glyph glyph-name="Ohungarumlaut" unicode="&#x150;" horiz-adv-x="1720" 
d="M981 1313q-260 0 -461 -204t-201 -472q0 -221 151 -368.5t386 -147.5q258 0 460 199.5t202 478.5q0 219 -150.5 366.5t-386.5 147.5zM1673 801q0 -205 -113.5 -395.5t-307 -308t-412.5 -117.5q-293 0 -484.5 189t-191.5 464q0 217 119.5 408.5t312 302t401.5 110.5
q293 0 484.5 -189.5t191.5 -463.5zM854 1618l207 276h162l-254 -276h-115zM1171 1618l205 276h164l-252 -276h-117z" />
    <glyph glyph-name="ohungarumlaut" unicode="&#x151;" 
d="M551 111q162 0 288 132t126 302q0 139 -92.5 233t-231.5 94q-156 0 -285 -128t-129 -306q0 -137 92.5 -232t231.5 -95zM82 430q0 219 171 396.5t400 177.5q199 0 328 -131.5t129 -321.5q0 -231 -176 -401t-395 -170q-199 0 -328 130t-129 320zM483 1157l207 277h162
l-254 -277h-115zM801 1157l205 277h163l-251 -277h-117z" />
    <glyph glyph-name="OE" unicode="&#x152;" horiz-adv-x="2058" 
d="M1145 143h758l-29 -143h-1075q-264 0 -448.5 179t-184.5 425q0 346 254 588t600 242h1137l-31 -144h-737l-99 -471h574l-31 -143h-573zM999 1290q-279 0 -478 -195.5t-199 -478.5q0 -197 139 -335t348 -138h182l244 1147h-236z" />
    <glyph glyph-name="oe" unicode="&#x153;" horiz-adv-x="1925" 
d="M1810 430h-768q-2 -12 -2 -33q0 -121 77 -202.5t198 -81.5q90 0 175 42t124 83l39 41l76 -95q-6 -8 -18.5 -22.5t-54.5 -49t-87 -61t-118 -49t-146 -22.5q-80 0 -147.5 26.5t-105.5 63t-64.5 74.5t-37.5 65l-8 27q-8 -10 -21.5 -28t-58.5 -62t-94 -77.5t-125 -61
t-154 -27.5q-166 0 -286.5 124.5t-120.5 298.5q0 248 177 424.5t400 176.5q78 0 144.5 -27t105.5 -65t68 -75.5t39 -64.5l10 -27q6 10 19.5 28t57.5 63t92 78.5t124 61.5t154 28q160 0 268 -105.5t108 -273.5q0 -132 -39 -195zM643 870q-166 0 -291 -141t-125 -315
q0 -127 83 -214t196 -87q150 0 283 139t133 323q0 127 -82 211t-197 84zM1460 870q-121 0 -233.5 -91t-155.5 -216h635q2 14 2 43q0 119 -67.5 191.5t-180.5 72.5z" />
    <glyph glyph-name="Racute" unicode="&#x154;" horiz-adv-x="1382" 
d="M426 1434h553q164 0 272.5 -107.5t108.5 -257.5q0 -295 -268 -428q-41 -20 -127 -47l213 -594h-164l-203 573h-414l-121 -573h-153zM961 1290h-412l-121 -573h406q152 0 261 93t109 249q0 100 -67 165.5t-176 65.5zM844 1628l207 277h161l-251 -277h-117z" />
    <glyph glyph-name="racute" unicode="&#x155;" horiz-adv-x="706" 
d="M786 1004l-30 -144h-62q-127 0 -235.5 -88t-139.5 -229l-114 -543h-144l209 983h144l-29 -133q4 6 14.5 16.5t43 37t70.5 47t97.5 37t122.5 16.5h53zM498 1157l207 277h161l-252 -277h-116z" />
    <glyph glyph-name="uni0156" unicode="&#x156;" horiz-adv-x="1382" 
d="M426 1434h553q164 0 272.5 -107.5t108.5 -257.5q0 -295 -268 -428q-41 -20 -127 -47l213 -594h-164l-203 573h-414l-121 -573h-153zM961 1290h-412l-121 -573h406q152 0 261 93t109 249q0 100 -67 165.5t-176 65.5zM416 -440l143 276h141l-180 -276h-104z" />
    <glyph glyph-name="uni0157" unicode="&#x157;" horiz-adv-x="706" 
d="M786 1004l-30 -144h-62q-127 0 -235.5 -88t-139.5 -229l-114 -543h-144l209 983h144l-29 -133q4 6 14.5 16.5t43 37t70.5 47t97.5 37t122.5 16.5h53zM-109 -440l144 276h141l-180 -276h-105z" />
    <glyph glyph-name="Rcaron" unicode="&#x158;" horiz-adv-x="1382" 
d="M426 1434h553q164 0 272.5 -107.5t108.5 -257.5q0 -295 -268 -428q-41 -20 -127 -47l213 -594h-164l-203 573h-414l-121 -573h-153zM961 1290h-412l-121 -573h406q152 0 261 93t109 249q0 100 -67 165.5t-176 65.5zM1253 1894l-282 -276h-144l-168 276h127l121 -194
l207 194h139z" />
    <glyph glyph-name="rcaron" unicode="&#x159;" horiz-adv-x="706" 
d="M786 1004l-30 -144h-62q-127 0 -235.5 -88t-139.5 -229l-114 -543h-144l209 983h144l-29 -133q4 6 14.5 16.5t43 37t70.5 47t97.5 37t122.5 16.5h53zM920 1434l-283 -277h-143l-168 277h127l120 -195l207 195h140z" />
    <glyph glyph-name="Sacute" unicode="&#x15a;" horiz-adv-x="1157" 
d="M526 123q145 0 257 73.5t112 219.5q0 78 -66.5 133t-163 92t-191.5 78t-161.5 115.5t-66.5 179.5q0 188 141 314t379 126q78 0 148.5 -19.5t116.5 -46t81 -53t51 -45.5l17 -20l-115 -99q-4 6 -12.5 15.5t-38 33t-62 42t-88 34t-114.5 15.5q-160 0 -253.5 -80t-93.5 -195
q0 -78 68 -133t163 -92t190.5 -78t163 -115.5t67.5 -179.5q0 -209 -147.5 -333.5t-399.5 -124.5q-92 0 -174 22.5t-133 53t-89 62.5t-55 54l-16 23l109 100q4 -6 13 -18.5t43 -42t72.5 -52t106 -41t141.5 -18.5zM754 1628l207 277h161l-252 -277h-116z" />
    <glyph glyph-name="sacute" unicode="&#x15b;" horiz-adv-x="880" 
d="M840 870l-115 -96q-8 10 -24.5 26.5t-74 43t-120.5 26.5q-92 0 -146.5 -46t-54.5 -109q0 -55 69.5 -97.5t152.5 -69t153 -88t70 -149.5q0 -145 -110 -238t-294 -93q-70 0 -130 18t-98 43t-65.5 50.5t-40.5 43.5l-12 19l115 96q10 -16 29.5 -39t84 -60.5t138.5 -37.5
q113 0 174 49t61 129q0 59 -69.5 102t-152.5 69.5t-152.5 86t-69.5 145.5q0 127 103.5 218.5t264.5 91.5q57 0 110.5 -13.5t89.5 -33t62.5 -40t38.5 -32.5zM487 1157l207 277h162l-252 -277h-117z" />
    <glyph glyph-name="Scedilla" unicode="&#x15e;" horiz-adv-x="1157" 
d="M526 123q145 0 257 73.5t112 219.5q0 78 -66.5 133t-163 92t-191.5 78t-161.5 115.5t-66.5 179.5q0 188 141 314t379 126q78 0 148.5 -19.5t116.5 -46t81 -53t51 -45.5l17 -20l-115 -99q-4 6 -12.5 15.5t-38 33t-62 42t-88 34t-114.5 15.5q-160 0 -253.5 -80t-93.5 -195
q0 -78 68 -133t163 -92t190.5 -78t163 -115.5t67.5 -179.5q0 -207 -143.5 -330.5t-389.5 -127.5l-61 -93h6q63 0 99 -36.5t36 -90.5q0 -78 -59.5 -129t-157.5 -51q-45 0 -88 16.5t-64 32.5l-20 17l53 67q39 -51 121 -51q51 0 87 28.5t36 63.5q0 27 -18.5 44.5t-51.5 17.5
q-16 0 -32.5 -5.5t-24.5 -11.5l-8 -4l-39 51l92 138q-76 8 -143.5 33.5t-110.5 54t-74.5 57.5t-46.5 47l-12 19l109 100q4 -6 13 -18.5t43 -42t72.5 -52t106 -41t141.5 -18.5z" />
    <glyph glyph-name="scedilla" unicode="&#x15f;" horiz-adv-x="880" 
d="M840 870l-115 -96q-8 10 -24.5 26.5t-74 43t-120.5 26.5q-92 0 -146.5 -46t-54.5 -109q0 -55 69.5 -97.5t152.5 -69t153 -88t70 -149.5q0 -141 -103.5 -233t-277.5 -98l-62 -93h6q63 0 99.5 -36.5t36.5 -90.5q0 -78 -59.5 -129t-158.5 -51q-45 0 -88 16.5t-63 32.5
l-21 17l54 67q39 -51 120 -51q51 0 87 28.5t36 63.5q0 27 -18.5 44.5t-50.5 17.5q-16 0 -32.5 -5.5t-25.5 -11.5l-8 -4l-39 51l92 140q-86 12 -154.5 54t-94.5 79l-25 35l115 96q10 -16 29.5 -39t84 -60.5t138.5 -37.5q113 0 174 49t61 129q0 59 -69.5 102t-152.5 69.5
t-152.5 86t-69.5 145.5q0 127 103.5 218.5t264.5 91.5q57 0 110.5 -13.5t89.5 -33t62.5 -40t38.5 -32.5z" />
    <glyph glyph-name="Scaron" unicode="&#x160;" horiz-adv-x="1157" 
d="M526 123q145 0 257 73.5t112 219.5q0 78 -66.5 133t-163 92t-191.5 78t-161.5 115.5t-66.5 179.5q0 188 141 314t379 126q78 0 148.5 -19.5t116.5 -46t81 -53t51 -45.5l17 -20l-115 -99q-4 6 -12.5 15.5t-38 33t-62 42t-88 34t-114.5 15.5q-160 0 -253.5 -80t-93.5 -195
q0 -78 68 -133t163 -92t190.5 -78t163 -115.5t67.5 -179.5q0 -209 -147.5 -333.5t-399.5 -124.5q-92 0 -174 22.5t-133 53t-89 62.5t-55 54l-16 23l109 100q4 -6 13 -18.5t43 -42t72.5 -52t106 -41t141.5 -18.5zM1161 1894l-282 -276h-144l-168 276h127l121 -194l207 194
h139z" />
    <glyph glyph-name="scaron" unicode="&#x161;" horiz-adv-x="880" 
d="M840 870l-115 -96q-8 10 -24.5 26.5t-74 43t-120.5 26.5q-92 0 -146.5 -46t-54.5 -109q0 -55 69.5 -97.5t152.5 -69t153 -88t70 -149.5q0 -145 -110 -238t-294 -93q-70 0 -130 18t-98 43t-65.5 50.5t-40.5 43.5l-12 19l115 96q10 -16 29.5 -39t84 -60.5t138.5 -37.5
q113 0 174 49t61 129q0 59 -69.5 102t-152.5 69.5t-152.5 86t-69.5 145.5q0 127 103.5 218.5t264.5 91.5q57 0 110.5 -13.5t89.5 -33t62.5 -40t38.5 -32.5zM918 1434l-283 -277h-143l-168 277h127l120 -195l207 195h140z" />
    <glyph glyph-name="uni0162" unicode="&#x162;" horiz-adv-x="1136" 
d="M252 1434h1055l-31 -144h-451l-272 -1290h-154l273 1290h-451zM231 -440l144 276h141l-180 -276h-105z" />
    <glyph glyph-name="uni0163" unicode="&#x163;" horiz-adv-x="737" 
d="M383 1085l49 226h133l-69 -328h215l-29 -133h-215l-125 -584q-31 -154 100 -153q33 0 68 8t53 14l19 8l-27 -133q-70 -31 -147 -30q-127 0 -182.5 74.5t-26.5 211.5l125 584h-185l29 133h113q82 0 102 102zM104 -440l144 276h141l-180 -276h-105z" />
    <glyph glyph-name="Tcaron" unicode="&#x164;" horiz-adv-x="1136" 
d="M252 1434h1055l-31 -144h-451l-272 -1290h-154l273 1290h-451zM1155 1894l-283 -276h-143l-168 276h127l121 -194l207 194h139z" />
    <glyph glyph-name="tcaron" unicode="&#x165;" horiz-adv-x="768" 
d="M383 1085l49 226h133l-69 -328h215l-29 -133h-215l-125 -584q-31 -154 100 -153q33 0 68 8t53 14l19 8l-27 -133q-70 -31 -147 -30q-127 0 -182.5 74.5t-26.5 211.5l125 584h-185l29 133h113q82 0 102 102zM764 1157l145 277h142l-181 -277h-106z" />
    <glyph glyph-name="Umacron" unicode="&#x16a;" horiz-adv-x="1556" 
d="M733 123q174 0 317.5 127t184.5 313l184 871h154l-184 -871q-51 -244 -237.5 -413.5t-420.5 -169.5q-213 0 -367.5 138t-154.5 335q0 51 12 110l185 871h153l-184 -871q-10 -51 -10 -88q0 -152 106 -252t262 -100zM1346 1812l-25 -112h-594l25 112h594z" />
    <glyph glyph-name="umacron" unicode="&#x16b;" 
d="M778 0l27 131q-4 -6 -13.5 -16.5t-40 -37t-65.5 -46t-92 -35.5t-117 -16q-147 0 -243.5 91t-96.5 240q0 55 10 99l123 573h144l-123 -573q-8 -33 -8 -72q0 -100 61.5 -162.5t159.5 -62.5q125 0 231.5 96t136.5 240l115 534h143l-208 -983h-144zM1069 1341l-25 -112h-593
l24 112h594z" />
    <glyph glyph-name="Uring" unicode="&#x16e;" horiz-adv-x="1556" 
d="M733 123q174 0 317.5 127t184.5 313l184 871h154l-184 -871q-51 -244 -237.5 -413.5t-420.5 -169.5q-213 0 -367.5 138t-154.5 335q0 51 12 110l185 871h153l-184 -871q-10 -51 -10 -88q0 -152 106 -252t262 -100zM1049 1884q-45 0 -75 -38t-30 -85q0 -37 23.5 -59.5
t58.5 -22.5q41 0 74 34t33 85q0 39 -22.5 62.5t-61.5 23.5zM1237 1808q0 -88 -62.5 -154.5t-152.5 -66.5q-82 0 -132 46t-50 120q0 94 63.5 158.5t153.5 64.5q82 0 131 -47t49 -121z" />
    <glyph glyph-name="uring" unicode="&#x16f;" 
d="M778 0l27 131q-4 -6 -13.5 -16.5t-40 -37t-65.5 -46t-92 -35.5t-117 -16q-147 0 -243.5 91t-96.5 240q0 55 10 99l123 573h144l-123 -573q-8 -33 -8 -72q0 -100 61.5 -162.5t159.5 -62.5q125 0 231.5 96t136.5 240l115 534h143l-208 -983h-144zM733 1413q-45 0 -74.5 -38
t-29.5 -85q0 -37 23.5 -59.5t58.5 -22.5q41 0 73.5 34t32.5 85q0 39 -22.5 62.5t-61.5 23.5zM922 1337q0 -88 -62.5 -154.5t-152.5 -66.5q-82 0 -132.5 46t-50.5 120q0 94 63.5 158.5t153.5 64.5q82 0 131.5 -47t49.5 -121z" />
    <glyph glyph-name="Uhungarumlaut" unicode="&#x170;" horiz-adv-x="1556" 
d="M733 123q174 0 317.5 127t184.5 313l184 871h154l-184 -871q-51 -244 -237.5 -413.5t-420.5 -169.5q-213 0 -367.5 138t-154.5 335q0 51 12 110l185 871h153l-184 -871q-10 -51 -10 -88q0 -152 106 -252t262 -100zM772 1618l207 276h162l-254 -276h-115zM1090 1618
l204 276h164l-252 -276h-116z" />
    <glyph glyph-name="uhungarumlaut" unicode="&#x171;" 
d="M778 0l27 131q-4 -6 -13.5 -16.5t-40 -37t-65.5 -46t-92 -35.5t-117 -16q-147 0 -243.5 91t-96.5 240q0 55 10 99l123 573h144l-123 -573q-8 -33 -8 -72q0 -100 61.5 -162.5t159.5 -62.5q125 0 231.5 96t136.5 240l115 534h143l-208 -983h-144zM477 1147l207 276h162
l-254 -276h-115zM795 1147l204 276h164l-252 -276h-116z" />
    <glyph glyph-name="Uogonek" unicode="&#x172;" horiz-adv-x="1556" 
d="M733 123q174 0 317.5 127t184.5 313l184 871h154l-184 -871q-49 -236 -227.5 -404.5t-405.5 -178.5q-143 -135 -144 -232q0 -66 88 -65q27 0 60 7t51 15l18 8l-22 -102q-63 -31 -137 -31q-76 0 -120 41t-44 107q0 135 149 258q-188 23 -317 155.5t-129 311.5q0 51 12 110
l185 871h153l-184 -871q-10 -51 -10 -88q0 -152 106 -252t262 -100z" />
    <glyph glyph-name="uogonek" unicode="&#x173;" 
d="M778 0l27 131q-4 -6 -13.5 -16.5t-40 -37t-65.5 -46t-92 -35.5t-117 -16q-147 0 -243.5 91t-96.5 240q0 55 10 99l123 573h144l-123 -573q-8 -33 -8 -72q0 -100 61.5 -162.5t159.5 -62.5q125 0 231.5 96t136.5 240l115 534h143l-208 -983h-41q-18 -16 -46 -44t-74 -94.5
t-46 -113.5q0 -66 88 -65q27 0 59.5 7t50.5 15l19 8l-23 -102q-63 -31 -137 -31q-76 0 -120 41t-44 107q0 70 42 137t85 102z" />
    <glyph glyph-name="Ydieresis" unicode="&#x178;" horiz-adv-x="1290" 
d="M676 666h10l592 768h182l-729 -932l-106 -502h-154l107 502l-336 932h164zM604 1741q0 39 31 70.5t72 31.5q39 0 62.5 -22.5t23.5 -57.5q0 -43 -30 -73.5t-73 -30.5q-39 0 -62.5 23.5t-23.5 58.5zM993 1741q0 39 31 70.5t72 31.5q39 0 62.5 -22.5t23.5 -57.5
q0 -43 -30 -73.5t-73 -30.5q-39 0 -62.5 23.5t-23.5 58.5z" />
    <glyph glyph-name="Zacute" unicode="&#x179;" horiz-adv-x="1228" 
d="M1104 1290h-801l31 144h993l-31 -144l-1075 -1147h852l-29 -143h-1044l29 143zM780 1628l207 277h162l-252 -277h-117z" />
    <glyph glyph-name="zacute" unicode="&#x17a;" horiz-adv-x="952" 
d="M956 983l-28 -133l-740 -717h607l-27 -133h-788l26 133l739 717h-565l29 133h747zM528 1157l207 277h162l-252 -277h-117z" />
    <glyph glyph-name="Zdotaccent" unicode="&#x17b;" horiz-adv-x="1228" 
d="M1104 1290h-801l31 144h993l-31 -144l-1075 -1147h852l-29 -143h-1044l29 143zM770 1751q0 39 30.5 70.5t71.5 31.5q39 0 62.5 -22.5t23.5 -56.5q0 -43 -29.5 -74t-72.5 -31q-39 0 -62.5 23.5t-23.5 58.5z" />
    <glyph glyph-name="zdotaccent" unicode="&#x17c;" horiz-adv-x="952" 
d="M956 983l-28 -133l-740 -717h607l-27 -133h-788l26 133l739 717h-565l29 133h747zM518 1270q0 39 31 70.5t72 31.5q39 0 62.5 -22.5t23.5 -57.5q0 -43 -30 -73.5t-73 -30.5q-39 0 -62.5 23.5t-23.5 58.5z" />
    <glyph glyph-name="Zcaron" unicode="&#x17d;" horiz-adv-x="1228" 
d="M1104 1290h-801l31 144h993l-31 -144l-1075 -1147h852l-29 -143h-1044l29 143zM1192 1894l-283 -276h-143l-168 276h127l121 -194l207 194h139z" />
    <glyph glyph-name="zcaron" unicode="&#x17e;" horiz-adv-x="952" 
d="M956 983l-28 -133l-740 -717h607l-27 -133h-788l26 133l739 717h-565l29 133h747zM940 1434l-283 -277h-143l-168 277h127l121 -195l207 195h139z" />
    <glyph glyph-name="florin" unicode="&#x192;" horiz-adv-x="716" 
d="M-2 -154l332 840h-164l29 133h184l145 348q61 147 146.5 217t214.5 70q33 0 63.5 -8t44.5 -16l15 -7l-29 -133q-43 31 -115 31q-135 0 -196 -154l-146 -348h236l-29 -133h-256l-332 -840q-59 -147 -145 -216.5t-215 -69.5q-33 0 -63.5 7t-45.5 15l-14 8l29 134
q45 -31 116 -31q134 -1 195 153z" />
    <glyph glyph-name="uni0218" unicode="&#x218;" horiz-adv-x="1157" 
d="M526 123q145 0 257 73.5t112 219.5q0 78 -66.5 133t-163 92t-191.5 78t-161.5 115.5t-66.5 179.5q0 188 141 314t379 126q78 0 148.5 -19.5t116.5 -46t81 -53t51 -45.5l17 -20l-115 -99q-4 6 -12.5 15.5t-38 33t-62 42t-88 34t-114.5 15.5q-160 0 -253.5 -80t-93.5 -195
q0 -78 68 -133t163 -92t190.5 -78t163 -115.5t67.5 -179.5q0 -209 -147.5 -333.5t-399.5 -124.5q-92 0 -174 22.5t-133 53t-89 62.5t-55 54l-16 23l109 100q4 -6 13 -18.5t43 -42t72.5 -52t106 -41t141.5 -18.5zM301 -440l143 276h142l-180 -276h-105z" />
    <glyph glyph-name="uni0219" unicode="&#x219;" horiz-adv-x="880" 
d="M840 870l-115 -96q-8 10 -24.5 26.5t-74 43t-120.5 26.5q-92 0 -146.5 -46t-54.5 -109q0 -55 69.5 -97.5t152.5 -69t153 -88t70 -149.5q0 -145 -110 -238t-294 -93q-70 0 -130 18t-98 43t-65.5 50.5t-40.5 43.5l-12 19l115 96q10 -16 29.5 -39t84 -60.5t138.5 -37.5
q113 0 174 49t61 129q0 59 -69.5 102t-152.5 69.5t-152.5 86t-69.5 145.5q0 127 103.5 218.5t264.5 91.5q57 0 110.5 -13.5t89.5 -33t62.5 -40t38.5 -32.5zM92 -440l144 276h141l-180 -276h-105z" />
    <glyph glyph-name="uni021A" unicode="&#x21a;" horiz-adv-x="1136" 
d="M252 1434h1055l-31 -144h-451l-272 -1290h-154l273 1290h-451zM231 -440l144 276h141l-180 -276h-105z" />
    <glyph glyph-name="uni021B" unicode="&#x21b;" horiz-adv-x="737" 
d="M383 1085l49 226h133l-69 -328h215l-29 -133h-215l-125 -584q-31 -154 100 -153q33 0 68 8t53 14l19 8l-27 -133q-70 -31 -147 -30q-127 0 -182.5 74.5t-26.5 211.5l125 584h-185l29 133h113q82 0 102 102zM104 -440l144 276h141l-180 -276h-105z" />
    <glyph glyph-name="uni02BC" unicode="&#x2bc;" horiz-adv-x="348" 
d="M211 1157l145 277h142l-181 -277h-106z" />
    <glyph glyph-name="circumflex" unicode="&#x2c6;" horiz-adv-x="716" 
d="M215 1157l283 277h143l168 -277h-127l-121 195l-207 -195h-139z" />
    <glyph glyph-name="caron" unicode="&#x2c7;" horiz-adv-x="716" 
d="M866 1434l-282 -277h-144l-168 277h127l121 -195l207 195h139z" />
    <glyph glyph-name="breve" unicode="&#x2d8;" horiz-adv-x="675" 
d="M518 1260q160 0 195 174h112q-27 -127 -107.5 -202t-201.5 -75q-125 0 -196.5 78t-47.5 199h113q-16 -84 19.5 -129t113.5 -45z" />
    <glyph glyph-name="dotaccent" unicode="&#x2d9;" horiz-adv-x="307" 
d="M246 1300q0 39 30.5 71t71.5 32q39 0 62.5 -22.5t23.5 -57.5q0 -43 -29.5 -73.5t-72.5 -30.5q-39 0 -62.5 23t-23.5 58z" />
    <glyph glyph-name="ring" unicode="&#x2da;" horiz-adv-x="512" 
d="M434 1331q-45 0 -74.5 -38t-29.5 -85q0 -37 23.5 -59.5t58.5 -22.5q41 0 73.5 34t32.5 85q0 39 -22.5 62.5t-61.5 23.5zM623 1255q0 -88 -62.5 -154.5t-152.5 -66.5q-82 0 -132.5 46t-50.5 120q0 94 63.5 158.5t153.5 64.5q82 0 131.5 -47t49.5 -121z" />
    <glyph glyph-name="ogonek" unicode="&#x2db;" horiz-adv-x="450" 
d="M82 0h102q-18 -16 -45.5 -44t-74 -94.5t-46.5 -113.5q0 -66 88 -65q27 0 60 7t51 15l19 8l-23 -102q-63 -31 -137 -31q-76 0 -120 41t-44 107q0 70 42 137t85 102z" />
    <glyph glyph-name="tilde" unicode="&#x2dc;" horiz-adv-x="757" 
d="M428 1311q-33 0 -63.5 -34t-42.5 -99h-103q27 121 82 183t133 62q61 0 107.5 -33.5t82 -66.5t72.5 -33q33 0 64 34t43 99h102q-53 -246 -215 -245q-61 0 -107 33.5t-82 66.5t-73 33z" />
    <glyph glyph-name="hungarumlaut" unicode="&#x2dd;" horiz-adv-x="747" 
d="M211 1157l207 277h162l-254 -277h-115zM528 1157l205 277h164l-252 -277h-117z" />
    <glyph glyph-name="uni0401" unicode="&#x401;" horiz-adv-x="1310" 
d="M305 143h850l-29 -143h-1003l303 1434h983l-31 -144h-829l-98 -471h665l-31 -143h-665zM682 1741q0 39 30.5 70.5t71.5 31.5q39 0 62.5 -22.5t23.5 -57.5q0 -43 -29.5 -73.5t-72.5 -30.5q-39 0 -62.5 23.5t-23.5 58.5zM1071 1741q0 39 31 70.5t72 31.5q39 0 62.5 -22.5
t23.5 -57.5q0 -43 -30 -73.5t-73 -30.5q-39 0 -62.5 23.5t-23.5 58.5z" />
    <glyph glyph-name="uni0402" unicode="&#x402;" horiz-adv-x="1464" 
d="M983 932q162 0 269.5 -102.5t107.5 -260.5q0 -270 -169 -429.5t-419 -159.5l31 143q166 0 282.5 113.5t116.5 308.5q0 109 -70.5 176t-181.5 67q-96 0 -193.5 -40.5t-146.5 -81.5l-49 -41l-131 -625h-154l273 1290h-369l31 144h891l-31 -144h-369l-104 -491
q16 14 48 36.5t132.5 59.5t204.5 37z" />
    <glyph glyph-name="uni0403" unicode="&#x403;" horiz-adv-x="1126" 
d="M823 1628l207 277h162l-252 -277h-117zM123 0l303 1434h891l-31 -144h-737l-273 -1290h-153z" />
    <glyph glyph-name="uni0404" unicode="&#x404;" horiz-adv-x="1536" 
d="M164 604q0 217 113.5 412.5t314.5 316.5t436 121q109 0 208 -30.5t161.5 -73.5t110.5 -87t69 -75l20 -31l-114 -88q-6 10 -17.5 26.5t-53.5 57.5t-91 72.5t-132 58.5t-175 27q-229 0 -416.5 -143.5t-251.5 -368.5h764l-29 -144h-757q-2 -16 -2 -45q0 -205 141 -346
t352 -141q92 0 178 25.5t144.5 62.5t103.5 72.5t66 60.5l22 27l90 -95q-10 -12 -27.5 -31.5t-78 -70.5t-127 -91t-171 -71.5t-212.5 -31.5q-264 0 -451.5 186t-187.5 438z" />
    <glyph glyph-name="uni0405" unicode="&#x405;" horiz-adv-x="1157" 
d="M526 123q145 0 257 73.5t112 219.5q0 78 -66.5 133t-163 92t-191.5 78t-161.5 115.5t-66.5 179.5q0 188 141 314t379 126q78 0 148.5 -19.5t116.5 -46t81 -53t51 -45.5l17 -20l-115 -99q-4 6 -12.5 15.5t-38 33t-62 42t-88 34t-114.5 15.5q-160 0 -253.5 -80t-93.5 -195
q0 -78 68 -133t163 -92t190.5 -78t163 -115.5t67.5 -179.5q0 -209 -147.5 -333.5t-399.5 -124.5q-92 0 -174 22.5t-133 53t-89 62.5t-55 54l-16 23l109 100q4 -6 13 -18.5t43 -42t72.5 -52t106 -41t141.5 -18.5z" />
    <glyph glyph-name="uni0406" unicode="&#x406;" horiz-adv-x="583" 
d="M123 0l303 1434h154l-304 -1434h-153z" />
    <glyph glyph-name="uni0407" unicode="&#x407;" horiz-adv-x="583" 
d="M123 0l303 1434h154l-304 -1434h-153zM270 1741q0 39 31 70.5t72 31.5q39 0 62.5 -22.5t23.5 -57.5q0 -43 -30 -73.5t-73 -30.5q-39 0 -62.5 23.5t-23.5 58.5zM659 1741q0 39 31 70.5t72 31.5q39 0 62.5 -22.5t23.5 -57.5q0 -43 -30 -73.5t-73 -30.5q-39 0 -62.5 23.5
t-23.5 58.5z" />
    <glyph glyph-name="uni0408" unicode="&#x408;" horiz-adv-x="1013" 
d="M866 1434h154l-215 -1014q-41 -197 -172 -318.5t-320 -121.5q-100 0 -189 40.5t-128 81.5l-39 41l117 99q10 -12 28.5 -33t82 -53.5t137.5 -32.5q129 0 215 79t114 218z" />
    <glyph glyph-name="uni0409" unicode="&#x409;" horiz-adv-x="2222" 
d="M1569 0h-545l272 1290h-583l-60 -286q-68 -319 -138.5 -526.5t-147 -314t-151.5 -145t-175 -38.5q-33 0 -65.5 5t-49.5 11l-18 4l31 154q53 -20 104 -21q63 0 114.5 31t110 118t116.5 267t116 455l90 430h891l-113 -533h348q168 0 281.5 -113.5t113.5 -271.5
q0 -223 -157.5 -369.5t-384.5 -146.5zM1206 143h371q158 0 268.5 100.5t110.5 266.5q0 106 -72 177t-188 71h-359z" />
    <glyph glyph-name="uni040A" unicode="&#x40a;" horiz-adv-x="2211" 
d="M1196 143h373q158 0 268.5 100.5t110.5 266.5q0 106 -72 177t-188 71h-361zM1561 0h-547l160 758h-738l-160 -758h-153l303 1434h154l-113 -533h737l113 533h153l-112 -533h350q168 0 281.5 -113.5t113.5 -271.5q0 -223 -157.5 -369.5t-384.5 -146.5z" />
    <glyph glyph-name="uni040B" unicode="&#x40b;" horiz-adv-x="1515" 
d="M180 1290l31 144h891l-31 -144h-369l-104 -491q16 14 48 36.5t132.5 59.5t204.5 37q170 0 275.5 -94.5t105.5 -249.5q0 -41 -10 -96l-105 -492h-153l104 492q6 33 6 67q0 102 -67.5 165.5t-180.5 63.5q-96 0 -195 -40.5t-151 -81.5l-51 -41l-131 -625h-154l273 1290h-369
z" />
    <glyph glyph-name="uni040C" unicode="&#x40c;" horiz-adv-x="1372" 
d="M410 637l907 797h194l-669 -598l413 -836h-172l-360 729l-358 -309l-89 -420h-153l303 1434h154zM856 1628l207 277h162l-252 -277h-117z" />
    <glyph glyph-name="uni040E" unicode="&#x40e;" horiz-adv-x="1249" 
d="M862 1731q160 0 195 174h112q-27 -127 -107.5 -202t-201.5 -75q-125 0 -196.5 78t-47.5 199h113q-16 -84 19.5 -129t113.5 -45zM688 594l567 840h175l-771 -1117q-127 -184 -233.5 -260.5t-253.5 -76.5q-33 0 -65.5 5t-49.5 11l-16 4l29 143q45 -20 116 -20q92 0 161 47
t147 154l90 116l-322 994h154z" />
    <glyph glyph-name="uni040F" unicode="&#x40f;" horiz-adv-x="1525" 
d="M1522 1434l-303 -1434h-471l-66 -307h-154l66 307h-471l303 1434h154l-275 -1291h789l274 1291h154z" />
    <glyph glyph-name="uni0410" unicode="&#x410;" horiz-adv-x="1433" 
d="M1020 543l-133 676l-420 -676h553zM1051 399h-676l-248 -399h-168l897 1434h143l291 -1434h-160z" />
    <glyph glyph-name="uni0411" unicode="&#x411;" horiz-adv-x="1341" 
d="M549 1290l-90 -430h379q166 0 277.5 -107.5t111.5 -254.5q0 -203 -158 -350.5t-373 -147.5h-573l303 1434h891l-31 -144h-737zM305 143h406q147 0 252.5 97.5t105.5 240.5q0 100 -71.5 168t-182.5 68h-387z" />
    <glyph glyph-name="uni0412" unicode="&#x412;" horiz-adv-x="1372" 
d="M1073 762q6 -4 18.5 -11.5t41 -34t51 -57t41 -82t18.5 -106.5q0 -205 -147.5 -338t-368.5 -133h-604l303 1434h532q150 0 250.5 -94.5t100.5 -223.5q-3 -248 -236 -354zM305 143h451q145 0 237 88t92 228q0 98 -64.5 167.5t-172.5 69.5h-424zM928 1290h-379l-96 -459h393
q129 0 218 74t89 199q0 80 -63.5 133t-161.5 53z" />
    <glyph glyph-name="uni0413" unicode="&#x413;" horiz-adv-x="1126" 
d="M123 0l303 1434h891l-31 -144h-737l-273 -1290h-153z" />
    <glyph glyph-name="uni0414" unicode="&#x414;" horiz-adv-x="1454" 
d="M-63 143h81q12 8 34 27.5t81.5 92.5t112.5 163t114.5 244.5t98.5 333.5l90 430h881l-275 -1291h174l-94 -450h-154l66 307h-1086l-65 -307h-152zM612 1004q-37 -174 -93 -328t-109.5 -247t-100.5 -161.5t-76 -95.5l-30 -29h798l244 1147h-573z" />
    <glyph glyph-name="uni0415" unicode="&#x415;" horiz-adv-x="1310" 
d="M305 143h850l-29 -143h-1003l303 1434h983l-31 -144h-829l-98 -471h665l-31 -143h-665z" />
    <glyph glyph-name="uni0416" unicode="&#x416;" horiz-adv-x="1976" 
d="M1327 729l-244 -209l-110 -520h-154l111 520l-150 205l-665 -725h-187l770 842l-413 592h178l508 -719l151 719h154l-150 -703l793 703h197l-670 -598l418 -836h-172z" />
    <glyph glyph-name="uni0417" unicode="&#x417;" horiz-adv-x="1218" 
d="M866 752q10 -4 25.5 -11.5t54.5 -35t70 -60.5t55.5 -88t24.5 -119q0 -188 -160 -323t-420 -135q-94 0 -181 23.5t-143.5 56t-98.5 65.5t-60 55l-21 25l119 100q6 -8 16.5 -20.5t47 -43t78.5 -55t112 -44t143 -19.5q193 0 302.5 87t109.5 214q0 106 -81 184t-226 78h-170
l31 143h155q170 0 274.5 73t104.5 179q0 90 -84 160t-213 70q-100 0 -190 -41t-131 -82l-39 -41l-86 102q6 8 19 22.5t58.5 49.5t94.5 61.5t128 49t163 22.5q188 0 314 -105.5t126 -240.5q0 -227 -227 -326q-72 -30 -95 -30z" />
    <glyph glyph-name="uni0418" unicode="&#x418;" horiz-adv-x="1597" 
d="M1290 0h-153l245 1153l-1126 -1153h-133l303 1434h154l-246 -1153l1126 1153h133z" />
    <glyph glyph-name="uni0419" unicode="&#x419;" horiz-adv-x="1597" 
d="M1042 1731q160 0 195 174h113q-27 -127 -108 -202t-202 -75q-125 0 -196.5 78t-46.5 199h112q-16 -84 19.5 -129t113.5 -45zM1290 0h-153l245 1153l-1126 -1153h-133l303 1434h154l-246 -1153l1126 1153h133z" />
    <glyph glyph-name="uni041A" unicode="&#x41a;" horiz-adv-x="1372" 
d="M410 637l907 797h194l-669 -598l413 -836h-172l-360 729l-358 -309l-89 -420h-153l303 1434h154z" />
    <glyph glyph-name="uni041B" unicode="&#x41b;" horiz-adv-x="1515" 
d="M1511 1434l-303 -1434h-153l272 1290h-614l-60 -286q-55 -256 -112.5 -440.5t-113.5 -297t-121.5 -177t-127 -87t-141.5 -22.5q-33 0 -64.5 5t-48.5 11l-16 4l31 154q51 -20 102 -21q63 0 114.5 31t111 118t117.5 267t116 455l90 430h921z" />
    <glyph glyph-name="uni041C" unicode="&#x41c;" horiz-adv-x="1884" 
d="M1671 1167l-735 -757l-412 757l-248 -1167h-153l303 1434h127l430 -779l758 779h139l-303 -1434h-154z" />
    <glyph glyph-name="uni041D" unicode="&#x41d;" horiz-adv-x="1536" 
d="M123 0l303 1434h154l-136 -635h799l135 635h154l-303 -1434h-154l139 655h-798l-140 -655h-153z" />
    <glyph glyph-name="uni041E" unicode="&#x41e;" horiz-adv-x="1720" 
d="M981 1313q-260 0 -461 -204t-201 -472q0 -221 151 -368.5t386 -147.5q258 0 460 199.5t202 478.5q0 219 -150.5 366.5t-386.5 147.5zM1673 801q0 -205 -113.5 -395.5t-307 -308t-412.5 -117.5q-293 0 -484.5 189t-191.5 464q0 217 119.5 408.5t312 302t401.5 110.5
q293 0 484.5 -189.5t191.5 -463.5z" />
    <glyph glyph-name="uni041F" unicode="&#x41f;" horiz-adv-x="1536" 
d="M1532 1434l-303 -1434h-154l273 1290h-799l-273 -1290h-153l303 1434h1106z" />
    <glyph glyph-name="uni0420" unicode="&#x420;" horiz-adv-x="1331" 
d="M426 1434h524q170 0 283 -116t113 -274q0 -223 -161 -367.5t-386 -144.5h-410l-113 -532h-153zM928 1290h-379l-129 -614h397q156 0 264.5 99t108.5 263q0 109 -72.5 180.5t-189.5 71.5z" />
    <glyph glyph-name="uni0421" unicode="&#x421;" horiz-adv-x="1546" 
d="M164 604q0 217 113.5 412.5t314.5 316.5t436 121q109 0 208 -30.5t161.5 -73.5t110.5 -87t69 -75l20 -31l-114 -88q-6 10 -17.5 26.5t-53.5 57.5t-91 72.5t-132 58.5t-175 27q-279 0 -485.5 -203t-206.5 -498q0 -205 141 -346t352 -141q92 0 178 25.5t144.5 62.5
t103.5 72.5t66 60.5l22 27l90 -95q-10 -12 -27.5 -31.5t-78 -70.5t-127 -91t-171 -71.5t-212.5 -31.5q-264 0 -451.5 186t-187.5 438z" />
    <glyph glyph-name="uni0422" unicode="&#x422;" horiz-adv-x="1136" 
d="M252 1434h1055l-31 -144h-451l-272 -1290h-154l273 1290h-451z" />
    <glyph glyph-name="uni0423" unicode="&#x423;" horiz-adv-x="1249" 
d="M688 594l567 840h175l-771 -1117q-127 -184 -233.5 -260.5t-253.5 -76.5q-33 0 -65.5 5t-49.5 11l-16 4l29 143q45 -20 116 -20q92 0 161 47t147 154l90 116l-322 994h154z" />
    <glyph glyph-name="uni0424" unicode="&#x424;" horiz-adv-x="1730" 
d="M946 1178q-156 -6 -294 -62.5t-235.5 -175.5t-97.5 -281q0 -156 112 -257t327 -105zM911 297q115 4 223.5 39t200.5 96.5t147.5 160.5t55.5 222q0 156 -112.5 257.5t-325.5 105.5zM881 154l-41 -195h-154l41 195q-262 6 -412.5 149t-150.5 350q0 276 231.5 468t581.5 200
l33 154h153l-33 -154q262 -6 413 -150.5t151 -349.5q0 -279 -230.5 -469t-582.5 -198z" />
    <glyph glyph-name="uni0425" unicode="&#x425;" horiz-adv-x="1320" 
d="M737 870l518 564h195l-637 -686l375 -748h-174l-309 625l-572 -625h-194l690 748l-346 686h174z" />
    <glyph glyph-name="uni0426" unicode="&#x426;" horiz-adv-x="1546" 
d="M123 0l303 1434h154l-275 -1291h778l275 1291h153l-274 -1291h184l-94 -450h-153l65 307h-1116z" />
    <glyph glyph-name="uni0427" unicode="&#x427;" horiz-adv-x="1443" 
d="M559 1434l-90 -430q-10 -43 -10 -95q0 -127 82 -195.5t227 -68.5q66 0 129.5 15.5t107.5 38t78.5 46t51.5 37.5l16 17l135 635h154l-303 -1434h-154l131 623q-16 -14 -46 -34t-128 -53.5t-203 -33.5q-199 0 -317.5 100t-118.5 279q0 63 14 123l91 430h153z" />
    <glyph glyph-name="uni0428" unicode="&#x428;" horiz-adv-x="2078" 
d="M123 0l303 1434h154l-275 -1291h594l275 1291h153l-274 -1291h594l274 1291h154l-303 -1434h-1649z" />
    <glyph glyph-name="uni0429" unicode="&#x429;" horiz-adv-x="2109" 
d="M123 0l303 1434h154l-275 -1291h594l275 1291h153l-274 -1291h594l274 1291h154l-275 -1291h185l-95 -450h-153l65 307h-1679z" />
    <glyph glyph-name="uni042A" unicode="&#x42a;" horiz-adv-x="1454" 
d="M438 143h369q158 0 269.5 100.5t111.5 266.5q0 106 -70.5 177t-187.5 71h-361zM801 0h-545l272 1290h-348l31 144h502l-113 -533h348q168 0 281.5 -113.5t113.5 -271.5q0 -223 -157.5 -369.5t-384.5 -146.5z" />
    <glyph glyph-name="uni042B" unicode="&#x42b;" horiz-adv-x="1812" 
d="M1505 0h-153l303 1434h153zM305 143h369q158 0 269.5 100.5t111.5 266.5q0 106 -71 177t-187 71h-361zM668 0h-545l303 1434h154l-113 -533h348q168 0 281.5 -113.5t113.5 -271.5q0 -223 -157.5 -369.5t-384.5 -146.5z" />
    <glyph glyph-name="uni042C" unicode="&#x42c;" horiz-adv-x="1341" 
d="M305 143h389q158 0 269.5 100.5t111.5 266.5q0 106 -70.5 177t-187.5 71h-381zM688 0h-565l303 1434h154l-113 -533h369q168 0 281.5 -113.5t113.5 -271.5q0 -223 -158 -369.5t-385 -146.5z" />
    <glyph glyph-name="uni042D" unicode="&#x42d;" horiz-adv-x="1536" 
d="M637 123q246 0 432 149.5t246 382.5h-766l29 144h757q2 10 2 35q0 203 -146.5 340t-354.5 137q-92 0 -177.5 -25.5t-141.5 -61.5t-100 -72t-65 -62l-20 -25l-86 92q8 12 25.5 31.5t76 71t124 91.5t169.5 71.5t213 31.5q264 0 449.5 -185.5t185.5 -439.5
q0 -352 -258 -600.5t-604 -248.5q-109 0 -209.5 30.5t-165 73.5t-113.5 87t-69 75l-23 30l119 91q6 -10 17.5 -26.5t54.5 -58.5t93 -74t132 -58.5t174 -26.5z" />
    <glyph glyph-name="uni042E" unicode="&#x42e;" horiz-adv-x="2160" 
d="M1311 -20q-258 0 -441.5 184t-183.5 457v34h-270l-140 -655h-153l303 1434h154l-136 -635h263q63 281 289.5 468t488.5 187q270 0 449.5 -183.5t179.5 -455.5q0 -227 -118 -422.5t-302 -304t-383 -108.5zM1470 1311q-254 0 -442 -211t-188 -473q0 -219 138 -362.5
t349 -143.5q242 0 436.5 199.5t194.5 488.5q0 219 -138.5 360.5t-349.5 141.5z" />
    <glyph glyph-name="uni042F" unicode="&#x42f;" horiz-adv-x="1372" 
d="M774 1434h594l-303 -1434h-154l121 573h-401l-447 -573h-174l463 594q-8 4 -23.5 12t-53.5 39t-67.5 68t-53 98t-23.5 131q0 215 151.5 353.5t370.5 138.5zM1184 1290h-422q-152 0 -252 -89t-100 -245q0 -102 61 -170.5t168 -68.5h424z" />
    <glyph glyph-name="uni0430" unicode="&#x430;" horiz-adv-x="1218" 
d="M496 113q160 0 293 148.5t133 320.5q0 125 -84 206.5t-201 81.5q-143 0 -276.5 -136t-133.5 -318q0 -127 80 -215t189 -88zM809 0l31 145q-6 -6 -16.5 -17t-46.5 -40t-74.5 -50.5t-99 -39.5t-124.5 -18q-160 0 -278.5 125.5t-118.5 297.5q0 246 180 423.5t393 177.5
q63 0 119.5 -18.5t93.5 -45.5t63.5 -54.5t39.5 -45.5l12 -19l35 162h143l-209 -983h-143z" />
    <glyph glyph-name="uni0431" unicode="&#x431;" horiz-adv-x="1198" 
d="M1104 557q0 -227 -166 -402t-406 -175q-178 0 -292.5 110.5t-114.5 315.5q0 94 25 208q76 356 250.5 541.5t414.5 226.5q113 18 204 47t124 48l35 18l47 -113q-94 -72 -416 -133q-156 -29 -292 -155.5t-185 -321.5q6 8 17 20.5t48 45t78 58.5t105.5 46.5t132.5 20.5
q164 0 277.5 -119t113.5 -287zM690 829q-166 0 -296 -133t-130 -305q0 -121 78 -199.5t199 -78.5q162 0 288.5 123.5t126.5 302.5q0 123 -74.5 206.5t-191.5 83.5z" />
    <glyph glyph-name="uni0432" unicode="&#x432;" horiz-adv-x="1064" 
d="M270 983h435q117 0 190.5 -65.5t73.5 -155.5q0 -29 -6.5 -56.5t-16.5 -48t-22.5 -40t-26.5 -34t-28.5 -25.5t-28 -18.5t-23.5 -13.5t-14 -8l-6 -2q12 -6 32.5 -17.5t53 -59.5t32.5 -111q0 -154 -98 -241t-264 -87h-492zM625 461h-324l-70 -328h338q94 0 148.5 50
t54.5 147q0 57 -38.5 94t-108.5 37zM631 584q78 0 134 40t56 113q0 49 -36.5 81t-100.5 32h-299l-57 -266h303z" />
    <glyph glyph-name="uni0433" unicode="&#x433;" horiz-adv-x="901" 
d="M299 770l-74 100q14 14 40 37t112 60t176 37q125 0 208 -75t83 -171q0 -111 -65.5 -178.5t-160 -95t-187.5 -50t-158.5 -65.5t-65.5 -119q0 -59 52 -98t142 -39q74 0 143.5 34.5t102.5 69.5l35 35l76 -98q-6 -6 -16.5 -18.5t-46.5 -42.5t-75.5 -53.5t-104 -41.5
t-134.5 -18q-143 0 -231.5 74.5t-88.5 178.5q0 119 66 192t160 101.5t187 49t158.5 59.5t65.5 108q0 51 -46 89t-117 38q-63 0 -123 -25.5t-86 -49.5z" />
    <glyph glyph-name="uni0434" unicode="&#x434;" horiz-adv-x="1185" 
d="M512 1567q264 -86 430 -272.5t166 -473.5q0 -387 -184.5 -614t-438.5 -227q-168 0 -285.5 118.5t-117.5 286.5q0 227 176 402.5t391 175.5q66 0 124 -20.5t94 -49.5t61.5 -58.5t38.5 -50.5l10 -20v24q0 145 -48 263t-131 194t-168 122t-186 77zM498 113q160 0 281.5 135
t121.5 299q0 121 -78 201.5t-190 80.5q-150 0 -277 -131t-127 -307q0 -121 78 -199.5t191 -78.5z" />
    <glyph glyph-name="uni0435" unicode="&#x435;" horiz-adv-x="1136" 
d="M508 113q92 0 178 41t125 82l41 40l78 -92q-6 -8 -18.5 -22.5t-55.5 -49t-89 -61t-119 -49t-146 -22.5q-174 0 -297 122.5t-123 296.5q0 248 177 426.5t398 178.5q174 0 290 -105.5t116 -273.5q0 -104 -39 -187l-801 2v-30q0 -127 83 -212t202 -85zM643 870
q-123 0 -234.5 -87t-158.5 -220h668q2 12 2 35q0 119 -78 195.5t-199 76.5z" />
    <glyph glyph-name="uni0436" unicode="&#x436;" horiz-adv-x="1495" 
d="M643 328l-111 151l-450 -479h-164l543 584l-293 399h162l350 -481l102 481h144l-99 -463l533 463h180l-469 -405l301 -578h-151l-254 483l-181 -157l-69 -326h-144z" />
    <glyph glyph-name="uni0437" unicode="&#x437;" horiz-adv-x="901" 
d="M813 754q0 -86 -58.5 -159t-144.5 -89q6 -2 16.5 -6t36 -19.5t45 -36t36 -56.5t16.5 -79q0 -139 -109.5 -234t-312.5 -95q-70 0 -131.5 18t-101 43t-69.5 50.5t-44 43.5l-12 19l112 92q10 -14 29.5 -37t87 -59.5t145.5 -36.5q131 0 195.5 49t64.5 135q0 61 -49 102
t-149 41h-119l29 133h110q100 0 166 49.5t66 120.5q0 53 -48.5 90t-132.5 37q-68 0 -132 -27.5t-93 -56.5l-31 -28l-79 102q14 16 41.5 40t120 64t192.5 40q131 0 219 -77t88 -173z" />
    <glyph glyph-name="uni0438" unicode="&#x438;" 
d="M778 0l27 131q-4 -6 -13.5 -16.5t-40 -37t-65.5 -46t-92 -35.5t-117 -16q-147 0 -243.5 91t-96.5 240q0 55 10 99l123 573h144l-123 -573q-8 -33 -8 -72q0 -100 61.5 -162.5t159.5 -62.5q125 0 231.5 96t136.5 240l115 534h143l-208 -983h-144z" />
    <glyph glyph-name="uni0439" unicode="&#x439;" 
d="M731 1260q160 0 195 174h112q-27 -127 -107.5 -202t-201.5 -75q-125 0 -196.5 78t-47.5 199h113q-16 -84 19.5 -129t113.5 -45zM778 0l27 131q-4 -6 -13.5 -16.5t-40 -37t-65.5 -46t-92 -35.5t-117 -16q-147 0 -243.5 91t-96.5 240q0 55 10 99l123 573h144l-123 -573
q-8 -33 -8 -72q0 -100 61.5 -162.5t159.5 -62.5q125 0 231.5 96t136.5 240l115 534h143l-208 -983h-144z" />
    <glyph glyph-name="uni043A" unicode="&#x43a;" horiz-adv-x="1034" 
d="M264 276l-57 -276h-144l207 983h144l-111 -512l596 512h182l-465 -399l297 -584h-157l-250 483z" />
    <glyph glyph-name="uni043B" unicode="&#x43b;" horiz-adv-x="1146" 
d="M373 983h717l-209 -983h-144l181 850h-431l-32 -154q-61 -287 -134 -448.5t-145 -214.5t-172 -53q-25 0 -51.5 5t-40.5 11l-14 4l28 143q35 -20 76 -20q63 0 107.5 36t97.5 167t104 370z" />
    <glyph glyph-name="uni043C" unicode="&#x43c;" horiz-adv-x="1331" 
d="M1075 727l-454 -451l-263 451l-153 -727h-144l209 983h103l284 -491l494 491h123l-209 -983h-143z" />
    <glyph glyph-name="uni043D" unicode="&#x43d;" horiz-adv-x="1177" 
d="M768 0l90 430h-563l-90 -430h-144l209 983h144l-90 -420h563l90 420h143l-209 -983h-143z" />
    <glyph glyph-name="uni043E" unicode="&#x43e;" 
d="M551 111q162 0 288 132t126 302q0 139 -92.5 233t-231.5 94q-156 0 -285 -128t-129 -306q0 -137 92.5 -232t231.5 -95zM82 430q0 219 171 396.5t400 177.5q199 0 328 -131.5t129 -321.5q0 -231 -176 -401t-395 -170q-199 0 -328 130t-129 320z" />
    <glyph glyph-name="uni043F" unicode="&#x43f;" 
d="M414 983l-31 -141q4 6 13.5 17t41 39t66.5 49.5t92 39t117 17.5q154 0 248 -86.5t94 -233.5q0 -57 -11 -100l-122 -584h-144l123 584q8 49 8 69q0 100 -61.5 158.5t-161.5 58.5q-131 0 -234.5 -95t-134.5 -243l-112 -532h-144l209 983h144z" />
    <glyph glyph-name="uni0440" unicode="&#x440;" horiz-adv-x="1218" 
d="M725 870q-160 0 -293 -148.5t-133 -320.5q0 -125 84 -206.5t201 -81.5q143 0 276 137t133 319q0 127 -79.5 214t-188.5 87zM414 983l-33 -145q6 6 16.5 17t46 40t74.5 50.5t99.5 40t123.5 18.5q160 0 279 -126t119 -298q0 -246 -180.5 -423t-393.5 -177q-63 0 -119.5 18
t-93.5 45t-63.5 54.5t-38.5 45.5l-12 19l-125 -592h-144l301 1413h144z" />
    <glyph glyph-name="uni0441" unicode="&#x441;" horiz-adv-x="1054" 
d="M82 403q0 233 172 417t416 184q72 0 137 -20.5t108 -49.5t75 -56.5t46 -48.5l15 -20l-111 -92q-4 6 -12 16t-35 37t-58.5 47.5t-82 36.5t-105.5 16q-160 0 -290 -134t-130 -320q0 -127 83 -215t202 -88q55 0 108.5 16t92.5 40t68.5 48.5t45.5 40.5l15 16l88 -90
q-6 -8 -19.5 -22.5t-57.5 -49t-90 -61t-118 -49t-143 -22.5q-174 0 -297 124.5t-123 298.5z" />
    <glyph glyph-name="uni0442" unicode="&#x442;" horiz-adv-x="1781" 
d="M1372 0l123 584q8 39 8 82q0 98 -55 151t-148 53q-111 0 -202.5 -89t-122.5 -238l-115 -543h-143l123 584q8 39 8 82q0 98 -55.5 151t-147.5 53q-111 0 -203 -89t-123 -238l-114 -543h-144l209 983h144l-27 -123q4 6 11.5 15.5t34 34t57 44t81 35t105.5 15.5
q66 0 121 -18.5t85.5 -43t52 -50.5t28.5 -44l8 -19q4 6 13 18.5t43 42.5t72 53.5t100.5 42t131.5 18.5q141 0 230.5 -81t89.5 -227q0 -51 -13 -112l-122 -584h-144z" />
    <glyph glyph-name="uni0443" unicode="&#x443;" horiz-adv-x="1003" 
d="M240 -143l86 149l-189 977h148l147 -799l488 799h159l-690 -1126q-96 -156 -179 -221.5t-190 -65.5q-33 0 -61.5 5t-40.5 11l-14 4l26 129q39 -16 90 -16q132 0 220 154z" />
    <glyph glyph-name="uni0444" unicode="&#x444;" horiz-adv-x="1454" 
d="M737 870q-199 0 -354.5 -129t-155.5 -327q0 -133 91.5 -217t256.5 -84zM719 113q199 0 354.5 127t155.5 325q0 133 -91 219t-257 86zM690 -20l-86 -410h-143l86 410q-213 0 -339 122.5t-126 303.5q0 250 199.5 424t484.5 174l90 430h143l-90 -430q213 0 339 -124
t126 -307q0 -250 -200.5 -421.5t-483.5 -171.5z" />
    <glyph glyph-name="uni0445" unicode="&#x445;" horiz-adv-x="983" 
d="M481 399l-370 -399h-183l478 512l-238 471h166l178 -358l334 358h182l-438 -471l260 -512h-166z" />
    <glyph glyph-name="uni0446" unicode="&#x446;" horiz-adv-x="1202" 
d="M801 143q-4 -6 -12.5 -17t-38 -40t-63.5 -50.5t-90 -38.5t-116 -17q-154 0 -251 86t-97 233q0 49 12 100l125 584h144l-125 -584q-8 -33 -8 -69q0 -100 62.5 -158.5t162.5 -58.5q123 0 216 86t126 231l119 553h143l-166 -778q-2 -8 -2 -21q0 -31 20.5 -51t53.5 -20h61
l-76 -359h-143l49 234q-109 25 -108 135z" />
    <glyph glyph-name="uni0447" unicode="&#x447;" horiz-adv-x="1105" 
d="M696 0l84 397q-109 -80 -272 -80q-147 0 -238.5 80t-91.5 213q0 35 10 86l62 287h143l-61 -287q-6 -33 -6 -61q0 -84 52 -134t142 -50q74 0 146.5 22.5t107.5 46.5l37 23l94 440h144l-209 -983h-144z" />
    <glyph glyph-name="uni0448" unicode="&#x448;" horiz-adv-x="1781" 
d="M414 983l-123 -584q-8 -39 -8 -82q0 -98 55 -151t147 -53q111 0 203 89t123 238l115 543h143l-123 -584q-8 -39 -8 -82q0 -98 55.5 -151t147.5 -53q111 0 203 89t122 238l115 543h143l-208 -983h-144l27 123q-4 -6 -11.5 -15.5t-34 -34t-57 -44t-81 -34.5t-105.5 -15
q-66 0 -121 18t-86 43t-52.5 50.5t-27.5 43.5l-8 19q-4 -6 -13 -18.5t-43 -42.5t-72 -53.5t-100.5 -41.5t-131.5 -18q-141 0 -230.5 80.5t-89.5 226.5q0 51 12 112l123 584h144z" />
    <glyph glyph-name="uni0449" unicode="&#x449;" horiz-adv-x="1816" 
d="M1096 -20q-63 0 -115.5 18t-81.5 43t-49.5 50.5t-26.5 43.5l-8 19q-4 -6 -13 -18.5t-43 -42.5t-72 -53.5t-100.5 -41.5t-131.5 -18q-141 0 -230.5 80.5t-89.5 226.5q0 51 12 112l123 584h144l-123 -584q-8 -39 -8 -82q0 -98 55 -151t147 -53q111 0 203 89t123 238
l115 543h143l-123 -584q-8 -39 -8 -82q0 -98 55.5 -151t147.5 -53q111 0 203 89t122 238l115 543h143l-165 -778q-2 -8 -3 -21q0 -31 20.5 -51t53.5 -20h62l-76 -359h-143l49 234q-109 25 -109 135l2 20q-4 -6 -12 -17t-38 -40t-63.5 -50.5t-90 -38.5t-115.5 -17z" />
    <glyph glyph-name="uni044A" unicode="&#x44a;" horiz-adv-x="1095" 
d="M324 133h254q109 0 181 65.5t72 166.5q0 70 -48 113.5t-132 43.5h-243zM565 0h-411l180 850h-256l28 133h400l-70 -328h226q141 0 229 -78.5t88 -193.5q0 -174 -114 -278.5t-300 -104.5z" />
    <glyph glyph-name="uni044B" unicode="&#x44b;" horiz-adv-x="1402" 
d="M1346 983l-209 -983h-144l209 983h144zM231 133h254q109 0 181.5 65.5t72.5 166.5q0 70 -48 113.5t-132 43.5h-244zM887 383q0 -174 -114 -278.5t-300 -104.5h-412l209 983h144l-70 -328h225q141 0 229.5 -78.5t88.5 -193.5z" />
    <glyph glyph-name="uni044C" unicode="&#x44c;" horiz-adv-x="1013" 
d="M231 133h265q109 0 181.5 65.5t72.5 166.5q0 70 -48.5 113.5t-132.5 43.5h-254zM897 383q0 -174 -113.5 -278.5t-300.5 -104.5h-422l209 983h144l-70 -328h236q141 0 229 -78.5t88 -193.5z" />
    <glyph glyph-name="uni044D" unicode="&#x44d;" horiz-adv-x="1044" 
d="M399 113q137 0 252 94t156 233h-500l29 133h489q-4 119 -85 208t-208 89q-55 0 -107 -16t-89 -39.5t-65.5 -48.5t-43.5 -41l-14 -16l-84 100q6 8 18.5 21.5t54.5 46t87 58.5t115.5 47.5t142.5 21.5q174 0 297 -126t123 -303q0 -248 -176.5 -421.5t-407.5 -173.5
q-72 0 -139.5 21.5t-111.5 51t-78 59t-50 52.5l-16 20l116 88q4 -6 12.5 -17t36 -39t59.5 -48.5t82 -37.5t105 -17z" />
    <glyph glyph-name="uni044E" unicode="&#x44e;" horiz-adv-x="1597" 
d="M952 -20q-178 0 -308 129t-130 321h-219l-90 -430h-144l209 983h144l-90 -420h208q49 188 205 314.5t336 126.5q190 0 317.5 -129.5t127.5 -319.5q0 -233 -176.5 -404t-389.5 -171zM1065 872q-160 0 -284 -135t-124 -299q0 -137 88.5 -232t217.5 -95q152 0 280.5 128
t128.5 304q0 139 -88 234t-219 95z" />
    <glyph glyph-name="uni044F" unicode="&#x44f;" horiz-adv-x="1044" 
d="M129 604q0 164 119 271.5t295 107.5h444l-209 -983h-143l70 328h-283l-275 -328h-167l301 358q-6 2 -16.5 8.5t-37 28t-46 47t-36 69.5t-16.5 93zM815 850h-280q-113 0 -186 -64.5t-73 -164.5q0 -70 43 -115t125 -45h287z" />
    <glyph glyph-name="uni0451" unicode="&#x451;" horiz-adv-x="1136" 
d="M508 113q92 0 178 41t125 82l41 40l78 -92q-6 -8 -18.5 -22.5t-55.5 -49t-89 -61t-119 -49t-146 -22.5q-174 0 -297 122.5t-123 296.5q0 248 177 426.5t398 178.5q174 0 290 -105.5t116 -273.5q0 -104 -39 -187l-801 2v-30q0 -127 83 -212t202 -85zM643 870
q-123 0 -234.5 -87t-158.5 -220h668q2 12 2 35q0 119 -78 195.5t-199 76.5zM428 1280q0 39 30.5 70.5t71.5 31.5q39 0 62.5 -22.5t23.5 -56.5q0 -43 -29.5 -74t-72.5 -31q-39 0 -62.5 23.5t-23.5 58.5zM817 1280q0 39 31 70.5t72 31.5q39 0 62.5 -22.5t23.5 -56.5
q0 -43 -30 -74t-73 -31q-39 0 -62.5 23.5t-23.5 58.5z" />
    <glyph glyph-name="uni0452" unicode="&#x452;" 
d="M539 1434l-39 -185h286l-28 -133h-287l-72 -336q4 6 13.5 17.5t41 39t67.5 49t93.5 39t116.5 17.5q150 0 253 -105.5t103 -265.5q0 -262 -173 -426.5t-398 -164.5l27 133q150 0 272.5 126t122.5 322q0 113 -66.5 180.5t-166.5 67.5q-129 0 -234.5 -94t-136.5 -240
l-98 -475h-144l236 1116h-174l28 133h174l39 185h144z" />
    <glyph glyph-name="uni0453" unicode="&#x453;" horiz-adv-x="901" 
d="M545 1157l207 277h161l-251 -277h-117zM299 770l-74 100q14 14 40 37t112 60t176 37q125 0 208 -75t83 -171q0 -111 -65.5 -178.5t-160 -95t-187.5 -50t-158.5 -65.5t-65.5 -119q0 -59 52 -98t142 -39q74 0 143.5 34.5t102.5 69.5l35 35l76 -98q-6 -6 -16.5 -18.5
t-46.5 -42.5t-75.5 -53.5t-104 -41.5t-134.5 -18q-143 0 -231.5 74.5t-88.5 178.5q0 119 66 192t160 101.5t187 49t158.5 59.5t65.5 108q0 51 -46 89t-117 38q-63 0 -123 -25.5t-86 -49.5z" />
    <glyph glyph-name="uni0454" unicode="&#x454;" horiz-adv-x="1054" 
d="M82 403q0 233 172 417t416 184q72 0 137 -20.5t108 -49.5t75 -56.5t46 -48.5l15 -20l-111 -92q-4 6 -12 16t-35 37t-58.5 47.5t-82 36.5t-105.5 16q-123 0 -233.5 -84t-159.5 -213h491l-28 -133h-490v-24q0 -127 83 -215t202 -88q55 0 108.5 16t92.5 40t68.5 48.5
t45.5 40.5l15 16l88 -90q-6 -8 -19.5 -22.5t-57.5 -49t-90 -61t-118 -49t-143 -22.5q-174 0 -297 124.5t-123 298.5z" />
    <glyph glyph-name="uni0455" unicode="&#x455;" horiz-adv-x="880" 
d="M840 870l-115 -96q-8 10 -24.5 26.5t-74 43t-120.5 26.5q-92 0 -146.5 -46t-54.5 -109q0 -55 69.5 -97.5t152.5 -69t153 -88t70 -149.5q0 -145 -110 -238t-294 -93q-70 0 -130 18t-98 43t-65.5 50.5t-40.5 43.5l-12 19l115 96q10 -16 29.5 -39t84 -60.5t138.5 -37.5
q113 0 174 49t61 129q0 59 -69.5 102t-152.5 69.5t-152.5 86t-69.5 145.5q0 127 103.5 218.5t264.5 91.5q57 0 110.5 -13.5t89.5 -33t62.5 -40t38.5 -32.5z" />
    <glyph glyph-name="uni0456" unicode="&#x456;" horiz-adv-x="471" 
d="M311 1296q0 43 31 75t76 32q33 0 57.5 -23.5t24.5 -56.5q0 -43 -33 -73.5t-76 -30.5q-33 0 -56.5 23t-23.5 54zM61 0l209 983h144l-209 -983h-144z" />
    <glyph glyph-name="uni0457" unicode="&#x457;" horiz-adv-x="471" 
d="M100 1280q0 39 31 70.5t72 31.5q39 0 62.5 -22.5t23.5 -56.5q0 -43 -30 -74t-73 -31q-39 0 -62.5 23.5t-23.5 58.5zM489 1280q0 39 31 70.5t72 31.5q39 0 62.5 -22.5t23.5 -56.5q0 -43 -30 -74t-73 -31q-39 0 -62.5 23.5t-23.5 58.5zM61 0l209 983h144l-209 -983h-144z
" />
    <glyph glyph-name="uni0458" unicode="&#x458;" horiz-adv-x="471" 
d="M31 -143l239 1126h144l-240 -1126q-63 -287 -326 -287q-33 0 -61.5 8t-40.5 16l-14 7l28 133q45 -31 107 -31q129 0 164 154zM309 1296q0 43 31 75t76 32q33 0 57.5 -23.5t24.5 -56.5q0 -43 -33 -73.5t-76 -30.5q-33 0 -56.5 23t-23.5 54z" />
    <glyph glyph-name="uni0459" unicode="&#x459;" horiz-adv-x="1648" 
d="M1526 356q0 -170 -113 -263t-303 -93h-403l180 850h-400l-32 -154q-61 -287 -134 -448.5t-146 -214.5t-173 -53q-25 0 -50.5 5t-39.5 11l-14 4l28 143q33 -20 74 -20q47 0 82 20.5t75 78t77.5 175t76.5 299.5l62 287h686l-80 -369h235q145 0 228.5 -74.5t83.5 -183.5z
M877 133h247q117 0 185.5 57.5t68.5 149.5q0 63 -45 102t-133 39h-250z" />
    <glyph glyph-name="uni045A" unicode="&#x45a;" horiz-adv-x="1669" 
d="M897 133h248q117 0 185.5 57.5t68.5 149.5q0 63 -45 102t-133 39h-250zM1130 0h-403l100 481h-522l-100 -481h-144l209 983h144l-80 -369h522l80 369h143l-80 -369h236q145 0 228 -74.5t83 -183.5q0 -170 -113 -263t-303 -93z" />
    <glyph glyph-name="uni045B" unicode="&#x45b;" horiz-adv-x="1218" 
d="M539 1434l-39 -185h286l-28 -133h-287l-72 -338q4 6 13.5 17.5t41 40t67.5 50t93.5 39t116.5 17.5q154 0 248 -87t94 -232q0 -43 -10 -101l-111 -522h-143l111 522q8 35 8 74q0 98 -59.5 155.5t-157.5 57.5q-129 0 -237.5 -95.5t-139.5 -240.5l-98 -473h-144l236 1116
h-174l28 133h174l39 185h144z" />
    <glyph glyph-name="uni045C" unicode="&#x45c;" horiz-adv-x="1034" 
d="M600 1157l207 277h162l-252 -277h-117zM264 276l-57 -276h-144l207 983h144l-111 -512l596 512h182l-465 -399l297 -584h-157l-250 483z" />
    <glyph glyph-name="uni045E" unicode="&#x45e;" horiz-adv-x="1003" 
d="M240 -143l86 149l-189 977h148l147 -799l488 799h159l-690 -1126q-96 -156 -179 -221.5t-190 -65.5q-33 0 -61.5 5t-40.5 11l-14 4l26 129q39 -16 90 -16q132 0 220 154zM639 1260q160 0 195 174h112q-27 -127 -107.5 -202t-201.5 -75q-125 0 -196.5 78t-47.5 199h113
q-16 -84 19.5 -129t113.5 -45z" />
    <glyph glyph-name="uni045F" unicode="&#x45f;" horiz-adv-x="1167" 
d="M61 0l209 983h144l-183 -850h553l183 850h143l-209 -983h-348l-53 -246h-144l54 246h-349z" />
    <glyph glyph-name="uni0490" unicode="&#x490;" horiz-adv-x="1126" 
d="M1174 1434l61 286h143l-92 -430h-737l-273 -1290h-153l303 1434h748z" />
    <glyph glyph-name="uni0491" unicode="&#x491;" horiz-adv-x="839" 
d="M61 0l209 983h521l51 246h135l-80 -379h-512l-180 -850h-144z" />
    <glyph glyph-name="uni1E9E" unicode="&#x1e9e;" horiz-adv-x="1331" 
d="M1307 1290l-410 -430q137 0 228.5 -105.5t91.5 -254.5q0 -209 -158 -354.5t-393 -145.5h-123l28 143h111q160 0 268.5 99.5t108.5 246.5q0 102 -58.5 165t-173.5 63h-133l31 143l405 430h-299q-131 0 -228 -80t-126 -215l-211 -995h-153l211 995q41 193 184 316t334 123
h495z" />
    <glyph glyph-name="endash" unicode="&#x2013;" horiz-adv-x="983" 
d="M940 666l-29 -134h-798l28 134h799z" />
    <glyph glyph-name="emdash" unicode="&#x2014;" horiz-adv-x="1474" 
d="M1432 666l-29 -134h-1290l28 134h1291z" />
    <glyph glyph-name="quoteleft" unicode="&#x2018;" horiz-adv-x="430" 
d="M322 1024l-132 82l312 362l84 -45z" />
    <glyph glyph-name="quoteright" unicode="&#x2019;" horiz-adv-x="430" 
d="M451 1475l131 -82l-312 -363l-84 45z" />
    <glyph glyph-name="quotesinglbase" unicode="&#x201a;" horiz-adv-x="440" 
d="M125 184l131 -82l-311 -358l-84 41z" />
    <glyph glyph-name="quotedblleft" unicode="&#x201c;" horiz-adv-x="747" 
d="M322 1024l-132 82l312 362l84 -45zM639 1024l-131 82l311 362l84 -45z" />
    <glyph glyph-name="quotedblright" unicode="&#x201d;" horiz-adv-x="747" 
d="M768 1475l131 -82l-311 -363l-84 45zM451 1475l131 -82l-312 -363l-84 45z" />
    <glyph glyph-name="quotedblbase" unicode="&#x201e;" horiz-adv-x="757" 
d="M442 184l131 -82l-311 -358l-84 41zM125 184l131 -82l-311 -358l-84 41z" />
    <glyph glyph-name="dagger" unicode="&#x2020;" horiz-adv-x="860" 
d="M522 1157l58 277h122l-57 -277h246l-25 -113h-245l-136 -634h-123l136 634h-246l24 113h246z" />
    <glyph glyph-name="daggerdbl" unicode="&#x2021;" horiz-adv-x="860" 
d="M522 1157l58 277h122l-57 -277h246l-25 -113h-245l-54 -245h246l-22 -113h-246l-60 -276h-123l60 276h-246l23 113h245l54 245h-246l24 113h246z" />
    <glyph glyph-name="bullet" unicode="&#x2022;" horiz-adv-x="819" 
d="M223 471q0 82 66.5 147.5t152.5 65.5q74 0 125 -51t51 -123q0 -82 -68.5 -147.5t-150.5 -65.5q-74 0 -125 51t-51 123z" />
    <glyph glyph-name="ellipsis" unicode="&#x2026;" horiz-adv-x="1372" 
d="M45 66q0 47 30.5 82.5t80.5 35.5q45 0 71.5 -23.5t26.5 -62.5q0 -53 -33 -85.5t-80 -32.5q-45 0 -70.5 23.5t-25.5 62.5zM506 66q0 47 30.5 82.5t79.5 35.5q45 0 72 -23.5t27 -62.5q0 -53 -33 -85.5t-80 -32.5q-45 0 -70.5 23.5t-25.5 62.5zM967 66q0 47 30.5 82.5
t79.5 35.5q45 0 72 -23.5t27 -62.5q0 -53 -33 -85.5t-80 -32.5q-45 0 -70.5 23.5t-25.5 62.5z" />
    <glyph glyph-name="perthousand" unicode="&#x2030;" horiz-adv-x="2293" 
d="M164 0l1196 1434h151l-1196 -1434h-151zM870 1171q0 -135 -107.5 -243.5t-250.5 -108.5q-125 0 -208 82t-83 199q0 141 110.5 247.5t248.5 106.5q125 0 207.5 -82t82.5 -201zM526 940q82 0 146.5 69.5t64.5 155.5q0 74 -47 121t-123 47q-80 0 -145.5 -66.5t-65.5 -158.5
q0 -74 47 -121t123 -47zM1450 332q0 -135 -107.5 -243.5t-250.5 -108.5q-125 0 -208 81.5t-83 198.5q0 141 110.5 247.5t247.5 106.5q125 0 208 -81.5t83 -200.5zM1106 100q82 0 146.5 70t64.5 156q0 74 -47 121t-123 47q-80 0 -145.5 -67t-65.5 -159q0 -74 47 -121t123 -47
zM2189 332q0 -135 -107.5 -243.5t-250.5 -108.5q-125 0 -208 81.5t-83 198.5q0 141 110.5 247.5t247.5 106.5q125 0 208 -81.5t83 -200.5zM1845 100q82 0 146.5 70t64.5 156q0 74 -47 121t-123 47q-80 0 -145.5 -67t-65.5 -159q0 -74 47 -121t123 -47z" />
    <glyph glyph-name="guilsinglleft" unicode="&#x2039;" horiz-adv-x="573" 
d="M266 154l-162 338l308 337h159l-315 -348l158 -327h-148z" />
    <glyph glyph-name="guilsinglright" unicode="&#x203a;" horiz-adv-x="573" 
d="M332 829l162 -337l-308 -338h-159l315 348l-158 327h148z" />
    <glyph glyph-name="fraction" unicode="&#x2044;" horiz-adv-x="419" 
d="M-379 0l1176 1434h141l-1176 -1434h-141z" />
    <glyph glyph-name="uni2070" unicode="&#x2070;" horiz-adv-x="716" 
d="M580 1546q-104 0 -171 -108.5t-67 -225.5q0 -92 44 -146t108 -54q82 0 159.5 94t77.5 244q0 92 -44 144t-107 52zM846 1362q0 -162 -98.5 -306.5t-260.5 -144.5q-115 0 -187.5 77t-72.5 208q0 203 111 328t248 125q117 0 188.5 -77t71.5 -210z" />
    <glyph glyph-name="uni2074" unicode="&#x2074;" horiz-adv-x="634" 
d="M651 1188h82l-22 -103h-82l-35 -163h-113l35 163h-338l23 103l403 450h144zM539 1188l67 317l-282 -317h215z" />
    <glyph glyph-name="uni2075" unicode="&#x2075;" horiz-adv-x="593" 
d="M504 1372q90 0 146.5 -59.5t56.5 -141.5q0 -113 -77 -186.5t-214 -73.5q-82 0 -149.5 28t-94.5 56l-27 29l86 72l23 -22q14 -15 62.5 -37.5t103.5 -22.5q172 0 172 149q0 47 -31 77t-88 30q-39 0 -75 -10.5t-50 -20.5l-16 -10h-92l129 409h399l-23 -102h-303l-61 -193
q51 29 123 29z" />
    <glyph glyph-name="uni2076" unicode="&#x2076;" horiz-adv-x="614" 
d="M481 1403h31q98 0 158.5 -62.5t60.5 -148.5q0 -115 -91 -198t-218 -83q-100 0 -167 60.5t-67 144.5q0 49 22.5 100.5t43.5 77.5l22 27l283 317h127zM434 1014q70 0 126 48t56 122q0 51 -33.5 83.5t-93.5 32.5q-78 0 -132 -51t-54 -123q0 -49 36 -80.5t95 -31.5z" />
    <glyph glyph-name="uni2077" unicode="&#x2077;" horiz-adv-x="563" 
d="M297 1638h481l-22 -102l-408 -614h-123l408 614h-359z" />
    <glyph glyph-name="uni2078" unicode="&#x2078;" horiz-adv-x="573" 
d="M418 1014q76 0 118 36.5t42 94.5q0 41 -33 72.5t-90 31.5q-74 0 -121 -41t-47 -94q0 -41 36 -70.5t95 -29.5zM485 1352q63 0 97 30.5t34 85.5q0 33 -27.5 55.5t-72.5 22.5q-61 0 -96 -31.5t-35 -80.5q0 -35 25.5 -58.5t74.5 -23.5zM403 911q-100 0 -165.5 56.5
t-65.5 132.5q0 33 10.5 62.5t25.5 50t33.5 38t37 26.5t35 16t24.5 10l8 4q-8 4 -20.5 14t-33 43t-20.5 70q0 88 75 151.5t183 63.5q86 0 143.5 -51.5t57.5 -118.5q0 -39 -14.5 -72t-34.5 -52.5t-42 -33.5t-34 -21l-14 -6q10 -4 27.5 -13t45 -45t27.5 -83q0 -98 -82 -170
t-207 -72z" />
    <glyph glyph-name="uni2079" unicode="&#x2079;" horiz-adv-x="614" 
d="M492 1157h-31q-98 0 -158.5 62.5t-60.5 148.5q0 115 91 198t218 83q100 0 166.5 -60.5t66.5 -144.5q0 -49 -21.5 -100.5t-43.5 -77.5l-23 -27l-282 -317h-127zM539 1546q-70 0 -126.5 -48t-56.5 -122q0 -51 34 -83.5t93 -32.5q78 0 132.5 51t54.5 123q0 49 -36 80.5
t-95 31.5z" />
    <glyph glyph-name="uni2080" unicode="&#x2080;" horiz-adv-x="716" 
d="M340 420q-104 0 -171 -108.5t-67 -225.5q0 -92 44 -146.5t108 -54.5q82 0 160 94.5t78 243.5q0 92 -44.5 144.5t-107.5 52.5zM606 236q0 -162 -98 -306.5t-260 -144.5q-115 0 -187.5 77t-72.5 208q0 203 110.5 327.5t247.5 124.5q117 0 188.5 -76.5t71.5 -209.5z" />
    <glyph glyph-name="uni2081" unicode="&#x2081;" horiz-adv-x="430" 
d="M231 512h93l-154 -717h-113l117 543h-133l16 82q55 0 98.5 23.5t59.5 45.5z" />
    <glyph glyph-name="uni2082" unicode="&#x2082;" horiz-adv-x="614" 
d="M406 -205h-482q18 88 74.5 160t123 116t131 83t107.5 82t43 94q0 37 -28.5 63.5t-73.5 26.5t-85 -29t-56 -57l-17 -29l-94 33q2 8 8 20.5t27.5 44t48.5 56t73 44t101 19.5q92 0 152.5 -51t60.5 -125q0 -86 -53 -152.5t-120.5 -102.5t-145.5 -88t-113 -105h340z" />
    <glyph glyph-name="uni2083" unicode="&#x2083;" horiz-adv-x="634" 
d="M393 170q8 -4 22.5 -11t37 -41t22.5 -79q0 -113 -76.5 -183.5t-203.5 -70.5q-51 0 -96.5 12.5t-74 30.5t-49 36.5t-28.5 31.5l-8 12l79 74q6 -10 19.5 -25.5t60.5 -42.5t103 -27q76 0 117.5 37t41.5 103q0 43 -31.5 69.5t-88.5 26.5h-82l22 102h90q57 0 92 30t35 85
q0 33 -27.5 56.5t-76.5 23.5q-43 0 -86 -22.5t-64 -45.5l-20 -22l-60 76q10 12 30 31.5t84.5 52t129.5 32.5q90 0 147.5 -49t57.5 -117q-2 -125 -119 -186z" />
    <glyph glyph-name="uni2084" unicode="&#x2084;" horiz-adv-x="634" 
d="M412 61h82l-23 -102h-82l-35 -164h-112l34 164h-337l22 102l404 451h143zM299 61l68 318l-283 -318h215z" />
    <glyph glyph-name="uni2085" unicode="&#x2085;" horiz-adv-x="593" 
d="M264 246q90 0 146.5 -59.5t56.5 -141.5q0 -113 -77 -186.5t-214 -73.5q-82 0 -149.5 27.5t-94.5 56.5l-26 29l86 71l22 -22q15 -15 63 -37.5t103 -22.5q172 0 172 150q0 47 -30.5 76.5t-88.5 29.5q-39 0 -74.5 -10t-52.5 -20l-14 -11h-92l129 410h399l-22 -102h-303
l-62 -193q51 29 123 29z" />
    <glyph glyph-name="uni2086" unicode="&#x2086;" horiz-adv-x="614" 
d="M242 276h30q98 0 159 -62t61 -148q0 -115 -91.5 -198t-218.5 -83q-100 0 -166.5 60.5t-66.5 144.5q0 49 22.5 100t44.5 78l21 27l282 317h127zM195 -113q70 0 126 48.5t56 121.5q0 51 -34 84t-93 33q-78 0 -132.5 -51t-54.5 -123q0 -49 36.5 -81t95.5 -32z" />
    <glyph glyph-name="uni2087" unicode="&#x2087;" horiz-adv-x="563" 
d="M57 512h482l-23 -102l-407 -615h-123l407 615h-358z" />
    <glyph glyph-name="uni2088" unicode="&#x2088;" horiz-adv-x="573" 
d="M180 -113q76 0 118 37t42 94q0 41 -33 73t-90 32q-74 0 -121 -41t-47 -94q0 -41 36 -71t95 -30zM248 225q63 0 97 31t34 86q0 33 -27.5 55.5t-72.5 22.5q-61 0 -96.5 -32t-35.5 -81q0 -35 26 -58.5t75 -23.5zM166 -215q-100 0 -166 56.5t-66 131.5q0 33 10.5 63t26 50
t34 37.5t36.5 27t34.5 16.5t24.5 9l9 4q-8 4 -20.5 14.5t-33 43t-20.5 69.5q0 88 74.5 151.5t183.5 63.5q86 0 143.5 -51t57.5 -119q0 -39 -14.5 -71.5t-35 -52t-42 -34t-33.5 -20.5l-15 -6q10 -4 27.5 -13.5t45.5 -45t28 -82.5q0 -98 -82 -170t-207 -72z" />
    <glyph glyph-name="uni2089" unicode="&#x2089;" horiz-adv-x="614" 
d="M252 31h-31q-98 0 -158.5 62.5t-60.5 148.5q0 115 91 197.5t218 82.5q100 0 167 -60.5t67 -144.5q0 -49 -22.5 -100t-43.5 -78l-22 -26l-283 -318h-127zM299 420q-70 0 -126 -48t-56 -122q0 -51 33.5 -84t93.5 -33q78 0 132 51.5t54 122.5q0 49 -36 81t-95 32z" />
    <glyph glyph-name="Euro" unicode="&#x20ac;" horiz-adv-x="1515" 
d="M471 614h487l-28 -133h-463q20 -154 122.5 -256t276.5 -102q74 0 144.5 19.5t121 46t89.5 53t57 45.5l18 20l88 -102q-8 -8 -23 -23.5t-67.5 -54.5t-110 -68.5t-147.5 -54t-184 -24.5q-233 0 -377.5 147t-167.5 354h-217l29 133h198l48 205h-201l26 133h211
q94 217 293 359.5t447 142.5q82 0 158.5 -23.5t128 -56.5t90 -65.5t55.5 -55.5l18 -24l-121 -99q-6 8 -15 19.5t-43 43.5t-71.5 55.5t-97 43t-121.5 19.5q-188 0 -341.5 -108.5t-213.5 -250.5h463l-26 -133h-486z" />
    <glyph glyph-name="uni20B4" unicode="&#x20b4;" horiz-adv-x="1300" 
d="M211 809l31 143h757q59 59 60 158q0 86 -72 143.5t-196 57.5q-94 0 -178.5 -36t-120.5 -71l-35 -37l-86 103q6 8 18 20.5t54 44t88.5 56t119 44t150.5 19.5q184 0 300 -90t116 -223q0 -23 -3.5 -45.5t-7.5 -41t-10 -34.5t-12 -28.5t-10.5 -21.5t-6.5 -14l-4 -4h113
l-31 -143h-1034zM1206 625l-30 -144h-758l-15 -18q-14 -16 -29.5 -56t-15.5 -83q0 -86 72 -143.5t197 -57.5q94 0 178 36t121 70l37 37l86 -102q-6 -8 -18.5 -20.5t-54.5 -44t-89 -56.5t-120 -44t-151 -19q-184 0 -298.5 90t-114.5 223q0 18 2 35.5t5 33t6 30t8 26.5
t9.5 22.5t7.5 18.5t6 13t5 7l2 2h-113l31 144h1034z" />
    <glyph glyph-name="uni20BD" unicode="&#x20bd;" horiz-adv-x="1372" 
d="M131 573l31 144h164l151 717h512q170 0 280.5 -103.5t110.5 -253.5q0 -215 -155.5 -359.5t-376.5 -144.5h-399l-37 -174h501l-30 -143h-502l-53 -256h-154l53 256h-164l31 143h164l37 174h-164zM967 1290h-367l-121 -573h389q145 0 250 98t105 242q0 98 -72.5 165.5
t-183.5 67.5z" />
    <glyph glyph-name="uni2116" unicode="&#x2116;" horiz-adv-x="2304" 
d="M2269 700q0 -135 -109.5 -243.5t-252.5 -108.5q-125 0 -207 82t-82 199q0 141 111.5 247.5t248.5 106.5q125 0 208 -82t83 -201zM1923 469q82 0 147.5 68.5t65.5 154.5q0 74 -47 122t-123 48q-82 0 -147.5 -66.5t-65.5 -158.5q0 -74 47 -121t123 -47zM1505 0l27 133h594
l-27 -133h-594zM1430 1434h153l-303 -1434h-121l-637 1157l-246 -1157h-153l303 1434h121l637 -1158z" />
    <glyph glyph-name="trademark" unicode="&#x2122;" horiz-adv-x="1361" 
d="M1305 1229l-263 -266l-147 266l-86 -410h-113l129 615h95l155 -287l275 287h110l-129 -615h-112zM211 1331l20 103h482l-21 -103h-184l-109 -512h-112l108 512h-184z" />
    <glyph glyph-name="minus" unicode="&#x2212;" horiz-adv-x="1054" 
d="M1012 666l-29 -134h-870l28 134h871z" />
    <glyph glyph-name="approxequal" unicode="&#x2248;" horiz-adv-x="1105" 
d="M432 788q-59 0 -111.5 -31.5t-74.5 -62.5l-23 -30l-80 63q4 6 12.5 18.5t37 42t61.5 53t84 42t106 18.5q70 0 123.5 -20.5t83 -46t72.5 -46t94 -20.5q59 0 111.5 31.5t75.5 62.5l22 31l82 -64q-4 -6 -12.5 -18t-37 -42t-61 -53.5t-84 -42t-106.5 -18.5q-86 0 -147.5 33
t-113 66.5t-114.5 33.5zM358 442q-37 0 -72.5 -13t-59 -30.5t-42 -36t-26.5 -30.5l-8 -15l-80 64q4 6 12 18.5t36.5 42t61.5 53t84 42t107 18.5q86 0 147.5 -34t111.5 -66.5t113 -32.5q37 0 73 13.5t59.5 30.5t42 35.5t26.5 30.5l8 15l82 -64l-12 -18q-8 -12 -37 -42
t-61.5 -53.5t-84 -42t-106.5 -18.5q-70 0 -124 20.5t-82.5 46t-73 46t-95.5 20.5z" />
    <glyph glyph-name="notequal" unicode="&#x2260;" horiz-adv-x="1013" 
d="M934 492l-29 -134h-459l-161 -235h-140l162 235h-231l28 134h293l154 225h-399l28 133h461l160 235h139l-160 -235h230l-29 -133h-291l-153 -225h397z" />
    <glyph glyph-name="lessequal" unicode="&#x2264;" horiz-adv-x="1013" 
d="M143 676l17 82l913 389l-33 -152l-696 -286l574 -287l-29 -135zM6 31l29 133h829l-28 -133h-830z" />
    <glyph glyph-name="greaterequal" unicode="&#x2265;" horiz-adv-x="1013" 
d="M989 758l-16 -82l-914 -389l33 151l696 287l-573 287l29 135zM864 164l-28 -133h-830l29 133h829z" />
    <glyph glyph-name="uniF6C3" unicode="&#xf6c3;" horiz-adv-x="348" 
d="M-125 -440l143 276h142l-180 -276h-105z" />
    <glyph glyph-name="uniF6D1" unicode="&#xf6d1;" horiz-adv-x="675" 
d="M618 1731q160 0 195 174h113q-27 -127 -108 -202t-202 -75q-125 0 -196.5 78t-46.5 199h112q-16 -84 19.5 -129t113.5 -45z" />
    <glyph glyph-name="uniF6D4" unicode="&#xf6d4;" horiz-adv-x="675" 
d="M518 1260q160 0 195 174h112q-27 -127 -107.5 -202t-201.5 -75q-125 0 -196.5 78t-47.5 199h113q-16 -84 19.5 -129t113.5 -45z" />
    <glyph glyph-name="glyph2" horiz-adv-x="681" 
 />
    <glyph glyph-name="glyph443" horiz-adv-x="1331" 
d="M1307 1290l-410 -430q137 0 228.5 -105.5t91.5 -254.5q0 -209 -158 -354.5t-393 -145.5h-123l28 143h111q160 0 268.5 99.5t108.5 246.5q0 102 -58.5 165t-173.5 63h-133l31 143l405 430h-299q-131 0 -228 -80t-126 -215l-211 -995h-153l211 995q41 193 184 316t334 123
h495z" />
    <glyph glyph-name="at.case" horiz-adv-x="1843" 
d="M1001 963q-106 0 -191 -90.5t-85 -227.5q0 -84 54.5 -139t133.5 -55q113 0 200 93t87 230q0 86 -56.5 137.5t-142.5 51.5zM1008 1085q49 0 92 -12t68.5 -29.5t45 -34t27.5 -28.5l8 -12l23 106h123l-101 -467q-6 -35 -6 -57q0 -100 105 -100q92 0 174 102t82 321
q0 211 -159 354.5t-400 143.5q-307 0 -539 -222t-232 -544q0 -225 147.5 -385t375.5 -160q109 0 212 35t152 70l49 35l56 -99q-8 -6 -22.5 -17t-61.5 -40t-99.5 -50.5t-133.5 -38.5t-165 -17q-270 0 -456.5 196.5t-186.5 462.5q0 236 130 444.5t343 330.5t445 122
q287 0 482.5 -180t195.5 -434q0 -268 -127 -410.5t-283 -142.5q-47 0 -84 14t-56.5 35.5t-32.5 43t-17 36.5l-4 14q-4 -6 -12.5 -15.5t-38 -34t-62.5 -44t-84 -34.5t-107 -15q-119 0 -201.5 92t-82.5 219q0 186 128 316t290 130z" />
    <glyph glyph-name="parenleft.case" horiz-adv-x="686" 
d="M356 717q-33 -164 -31.5 -302.5t26 -250t54 -188t54.5 -119.5l22 -41l-125 -62q-6 8 -15 22.5t-32.5 64.5t-44 105.5t-41 142.5t-30 177t-3 210t32.5 241q35 166 104.5 326.5t142.5 270t140.5 195.5t110.5 129l45 41l98 -61q-16 -14 -42.5 -42t-101.5 -119t-137.5 -189.5
t-128 -248.5t-98.5 -302z" />
    <glyph glyph-name="parenright.case" horiz-adv-x="686" 
d="M449 717q33 164 30.5 302t-27 249.5t-53 188.5t-53.5 120l-24 41l127 61q6 -8 15 -22.5t32.5 -64.5t44 -105t41 -142.5t30 -177.5t3 -209.5t-32.5 -240.5q-35 -166 -104.5 -327t-142.5 -270.5t-140.5 -195.5t-112.5 -129l-43 -41l-100 62q16 14 43.5 41.5t101.5 119
t137.5 189.5t129 248.5t98.5 302.5z" />
    <glyph glyph-name="bracketleft.case" horiz-adv-x="686" 
d="M559 1526l-344 -1618h277l-29 -133h-420l401 1884h420l-28 -133h-277z" />
    <glyph glyph-name="bracketright.case" horiz-adv-x="686" 
d="M246 -92l344 1618h-277l29 133h420l-402 -1884h-419l28 133h277z" />
    <glyph glyph-name="braceleft.case" horiz-adv-x="727" 
d="M170 655l25 123q143 0 174 144l98 460q27 125 125 201t242 76h81l-26 -123h-82q-82 0 -136.5 -42t-70.5 -112l-98 -460q-16 -78 -58.5 -129.5t-74.5 -63.5l-33 -12q4 -2 11 -5t27.5 -17.5t30 -36t17.5 -58.5t-6 -88l-99 -461q-16 -70 21 -111.5t121 -41.5h82l-27 -123
h-82q-143 0 -208.5 75.5t-39.5 200.5l99 461q28 143 -113 143z" />
    <glyph glyph-name="braceright.case" horiz-adv-x="727" 
d="M676 778l-25 -123q-145 0 -174 -143l-98 -461q-27 -125 -125 -200.5t-242 -75.5h-82l27 123h82q82 0 136 42t71 111l98 461q10 49 30.5 88t43 59.5t44 35t34.5 18.5l14 4q-4 2 -11 5t-27.5 17.5t-30 36t-17.5 58t6 88.5l98 460q16 70 -20.5 112t-120.5 42h-82l27 123h82
q143 0 208.5 -76t39.5 -201l-99 -460q-30 -144 113 -144z" />
    <glyph glyph-name="exclamdown.case" horiz-adv-x="634" 
d="M393 1085h123l-199 -1085h-184zM610 1368q0 -47 -30.5 -83t-79.5 -36q-45 0 -72 23.5t-27 62.5q0 53 33 86t80 33q45 0 70.5 -23.5t25.5 -62.5z" />
    <glyph glyph-name="questiondown.case" horiz-adv-x="1064" 
d="M752 983q-20 -92 -83 -170t-137.5 -130t-147.5 -103.5t-121 -117t-48 -145.5q0 -86 70.5 -145t187.5 -59q74 0 138.5 23.5t101.5 57t64.5 66.5t37.5 55l10 25l129 -43q-4 -14 -14 -35.5t-50 -78t-90 -99.5t-139.5 -79t-191.5 -36q-174 0 -293 101.5t-119 236.5
q0 113 50.5 198t125 140t151.5 105.5t141.5 122t82.5 161.5l8 41h144q0 -49 -8 -92zM831 1358q0 -47 -30.5 -83t-79.5 -36q-45 0 -71.5 23.5t-26.5 62.5q0 53 32.5 86t79.5 33q45 0 70.5 -23.5t25.5 -62.5z" />
    <glyph glyph-name="guillemotleft.case" horiz-adv-x="952" 
d="M313 379l-161 338l307 338h159l-315 -348l158 -328h-148zM692 379l-162 336l308 340h159l-315 -348l158 -328h-148z" />
    <glyph glyph-name="guillemotright.case" horiz-adv-x="952" 
d="M758 1055l162 -338l-308 -338h-159l315 348l-158 328h148zM379 1055l162 -336l-308 -340h-159l315 348l-158 328h148z" />
    <glyph glyph-name="guilsinglleft.case" horiz-adv-x="573" 
d="M313 379l-161 338l307 338h159l-315 -348l158 -328h-148z" />
    <glyph glyph-name="guilsinglright.case" horiz-adv-x="573" 
d="M379 1055l162 -338l-308 -338h-159l315 348l-158 328h148z" />
    <glyph glyph-name="hyphen.case" horiz-adv-x="870" 
d="M842 741l-27 -133h-686l27 133h686z" />
    <glyph glyph-name="endash.case" horiz-adv-x="983" 
d="M963 772l-29 -133h-799l29 133h799z" />
    <glyph glyph-name="emdash.case" horiz-adv-x="1474" 
d="M1454 772l-29 -133h-1290l29 133h1290z" />
    <glyph glyph-name="periodcentered.case" horiz-adv-x="389" 
d="M150 705q0 47 30.5 82.5t79.5 35.5q45 0 71.5 -23.5t26.5 -62.5q0 -53 -32.5 -86t-79.5 -33q-45 0 -70.5 24t-25.5 63z" />
    <glyph glyph-name="zero.tnum" horiz-adv-x="1290" 
d="M594 123q170 0 301 126t191.5 296t60.5 338q0 190 -97.5 309t-234.5 119q-170 0 -301 -126t-191.5 -296t-60.5 -338q0 -190 97.5 -309t234.5 -119zM584 -20q-193 0 -335.5 160.5t-142.5 402.5q0 211 67 388t172.5 288.5t230 173t249.5 61.5q193 0 335.5 -160.5
t142.5 -402.5q0 -211 -67 -388t-172.5 -289t-230 -173t-249.5 -61z" />
    <glyph glyph-name="one.tnum" horiz-adv-x="1290" 
d="M866 1434h113l-303 -1434h-154l244 1147h-266l18 92q70 2 131.5 23.5t99 49t65.5 55.5t40 46z" />
    <glyph glyph-name="two.tnum" horiz-adv-x="1290" 
d="M1004 0h-922q27 127 96.5 233.5t159.5 177t191.5 133t197.5 118t175 114t127 136t48 171.5q0 98 -74.5 163t-197.5 65q-72 0 -133.5 -25.5t-98 -61.5t-64.5 -72t-38 -62l-10 -25l-121 61q4 14 14.5 36t49 78t88 99t137.5 79t190 36q176 0 294 -105.5t118 -252.5
q0 -121 -55.5 -222.5t-141.5 -167t-195.5 -134t-211 -123t-194.5 -135.5t-142 -171h741z" />
    <glyph glyph-name="three.tnum" horiz-adv-x="1290" 
d="M907 752q8 -4 21.5 -10.5t48.5 -33t61.5 -57t48 -85t21.5 -115.5q0 -193 -146.5 -332t-394.5 -139q-92 0 -175 22.5t-135 53t-91 62.5t-55 54l-19 23l115 96q4 -6 13 -17.5t43 -41t72 -51t102.5 -40t135.5 -18.5q172 0 280 90t108 225q0 100 -69 169t-200 69h-160l31 143
h117q145 0 253.5 81t108.5 212q0 82 -69.5 140.5t-179.5 58.5q-59 0 -118 -16.5t-97.5 -41t-69.5 -49t-45 -41.5l-14 -16l-80 113q6 8 18 21t55 46t90.5 58.5t124 47t156.5 21.5q164 0 274.5 -97t110.5 -229q0 -236 -221 -348q-58 -28 -70 -28z" />
    <glyph glyph-name="four.tnum" horiz-adv-x="1290" 
d="M1006 451h184l-31 -144h-184l-64 -307h-153l63 307h-727l37 174l881 953h202zM852 451l172 809l-745 -809h573z" />
    <glyph glyph-name="five.tnum" horiz-adv-x="1290" 
d="M743 922q176 0 291 -114t115 -278q0 -244 -163 -397t-408 -153q-88 0 -168 22.5t-130.5 53t-87 62.5t-53.5 54l-16 23l119 98q4 -6 13 -18.5t40 -41t68.5 -51t99 -41t131.5 -18.5q172 0 285.5 109.5t113.5 283.5q0 115 -75.5 188.5t-198.5 73.5q-96 0 -182 -39t-123 -75
l-37 -39h-113l223 809h768l-30 -144h-631l-125 -450q12 8 32.5 22.5t92 37t149.5 22.5z" />
    <glyph glyph-name="six.tnum" horiz-adv-x="1290" 
d="M731 922q176 0 292 -113t116 -274q0 -236 -169 -395.5t-413 -159.5q-186 0 -304 107.5t-118 268.5q0 207 160 400l2 2l575 676h168l-450 -533q47 21 141 21zM575 123q168 0 288 111.5t120 283.5q0 115 -74.5 187.5t-201.5 72.5q-174 0 -295 -110.5t-121 -284.5
q0 -115 77.5 -187.5t206.5 -72.5z" />
    <glyph glyph-name="seven.tnum" horiz-adv-x="1290" 
d="M416 1434h901l-31 -144l-907 -1290h-166l907 1290h-735z" />
    <glyph glyph-name="eight.tnum" horiz-adv-x="1290" 
d="M739 840q137 0 225.5 76.5t88.5 195.5q0 82 -66.5 140.5t-171.5 58.5q-135 0 -221 -78t-86 -197q0 -82 63.5 -139t167.5 -57zM834 1454q154 0 263 -101.5t109 -230.5q-2 -233 -254 -352q8 -4 19.5 -12t42 -36t54.5 -59.5t43 -84t19 -109.5q0 -201 -163.5 -345
t-393.5 -144q-178 0 -299.5 113.5t-121.5 264.5q0 43 8 84t20.5 74t34 64.5t37.5 52t46 44t44 36t45 29t38 20.5t31.5 14t18.5 8l4 2h2q-14 10 -35.5 29t-57.5 84.5t-36 136.5q0 166 141.5 292t340.5 126zM700 717q-158 0 -275.5 -105.5t-117.5 -238.5q0 -102 79 -176
t208 -74q164 0 272.5 101.5t108.5 234.5q0 102 -79 180t-196 78z" />
    <glyph glyph-name="nine.tnum" horiz-adv-x="1290" 
d="M678 512q-176 0 -292 112.5t-116 274.5q0 236 169 395.5t413 159.5q186 0 304 -107.5t118 -269.5q0 -207 -160 -399l-2 -2l-575 -676h-168l450 532q-47 -20 -141 -20zM834 1311q-168 0 -288 -112t-120 -284q0 -115 74.5 -187.5t201.5 -72.5q174 0 295 111t121 285
q0 115 -77.5 187.5t-206.5 72.5z" />
    <glyph glyph-name="Igrave.salt" horiz-adv-x="768" 
d="M567 1905l95 -277h-105l-137 277h147zM262 1290l31 144h604l-31 -144h-225l-244 -1147h226l-29 -143h-604l28 143h226l243 1147h-225z" />
    <glyph glyph-name="Iacute.salt" horiz-adv-x="768" 
d="M262 1290l31 144h604l-31 -144h-225l-244 -1147h226l-29 -143h-604l28 143h226l243 1147h-225zM569 1628l207 277h162l-252 -277h-117z" />
    <glyph glyph-name="Icircumflex.salt" horiz-adv-x="768" 
d="M334 1628l282 277h144l168 -277h-127l-121 195l-207 -195h-139zM262 1290l31 144h604l-31 -144h-225l-244 -1147h226l-29 -143h-604l28 143h226l243 1147h-225z" />
    <glyph glyph-name="Idieresis.salt" horiz-adv-x="768" 
d="M362 1741q0 39 31 70.5t72 31.5q39 0 62.5 -22.5t23.5 -57.5q0 -43 -29.5 -73.5t-72.5 -30.5q-39 0 -63 23.5t-24 58.5zM752 1741q0 39 30.5 70.5t71.5 31.5q39 0 62.5 -22.5t23.5 -57.5q0 -43 -29.5 -73.5t-72.5 -30.5q-39 0 -62.5 23.5t-23.5 58.5zM262 1290l31 144
h604l-31 -144h-225l-244 -1147h226l-29 -143h-604l28 143h226l243 1147h-225z" />
    <glyph glyph-name="Idotaccent.salt" horiz-adv-x="768" 
d="M545 1751q0 39 30.5 70.5t71.5 31.5q39 0 62.5 -22.5t23.5 -56.5q0 -43 -29.5 -74t-72.5 -31q-39 0 -62.5 23.5t-23.5 58.5zM262 1290l31 144h604l-31 -144h-225l-244 -1147h226l-29 -143h-604l28 143h226l243 1147h-225z" />
    <glyph glyph-name="Imacron.salt" horiz-adv-x="768" 
d="M956 1812l-24 -112h-594l24 112h594zM262 1290l31 144h604l-31 -144h-225l-244 -1147h226l-29 -143h-604l28 143h226l243 1147h-225z" />
    <glyph glyph-name="Iogonek.salt" horiz-adv-x="768" 
d="M492 0h-502l28 143h226l243 1147h-225l31 144h604l-31 -144h-225l-244 -1147h226l-29 -143q-18 -16 -46 -44t-74 -94.5t-46 -113.5q0 -66 88 -65q27 0 59.5 7t51.5 15l18 8l-22 -102q-63 -31 -138 -31q-76 0 -119.5 41t-43.5 107q0 70 42 137t85 102z" />
    <glyph glyph-name="I.salt" horiz-adv-x="768" 
d="M262 1290l31 144h604l-31 -144h-225l-244 -1147h226l-29 -143h-604l28 143h226l243 1147h-225z" />
    <glyph glyph-name="lslash.salt" horiz-adv-x="747" 
d="M260 266l78 367l-299 -154l-39 107l369 194l139 654h143l-121 -572l289 154l39 -107l-358 -194l-97 -449q-31 -154 109 -153q27 0 57.5 8t46.5 14l17 8l-27 -133q-70 -31 -141 -30q-125 0 -179.5 74.5t-25.5 211.5z" />
    <glyph glyph-name="uni045E.salt" horiz-adv-x="1003" 
d="M49 -430l277 438l-189 975h148l149 -790l486 790h159l-874 -1413h-156zM639 1260q160 0 195 174h112q-27 -127 -107.5 -202t-201.5 -75q-125 0 -196.5 78t-47.5 199h113q-16 -84 19.5 -129t113.5 -45z" />
    <glyph glyph-name="agrave.salt" horiz-adv-x="1228" 
d="M496 113q160 0 293 148.5t133 320.5q0 125 -84 206.5t-201 81.5q-143 0 -276.5 -137t-133.5 -319q0 -127 80 -214t189 -87zM840 145q-6 -6 -16.5 -17t-46.5 -40t-74.5 -50.5t-99 -39.5t-124.5 -18q-160 0 -278.5 125.5t-118.5 297.5q0 246 179 423.5t392 177.5
q63 0 120.5 -18.5t93.5 -45.5t63.5 -54.5t40.5 -45.5l12 -19l35 162h143l-166 -778q-8 -37 11.5 -64.5t56.5 -27.5l57 10l-28 -133q-31 -10 -72 -10q-104 0 -143 47t-39 98zM678 1434l94 -277h-104l-138 277h148z" />
    <glyph glyph-name="aacute.salt" horiz-adv-x="1228" 
d="M496 113q160 0 293 148.5t133 320.5q0 125 -84 206.5t-201 81.5q-143 0 -276.5 -137t-133.5 -319q0 -127 80 -214t189 -87zM840 145q-6 -6 -16.5 -17t-46.5 -40t-74.5 -50.5t-99 -39.5t-124.5 -18q-160 0 -278.5 125.5t-118.5 297.5q0 246 179 423.5t392 177.5
q63 0 120.5 -18.5t93.5 -45.5t63.5 -54.5t40.5 -45.5l12 -19l35 162h143l-166 -778q-8 -37 11.5 -64.5t56.5 -27.5l57 10l-28 -133q-31 -10 -72 -10q-104 0 -143 47t-39 98zM657 1157l207 277h162l-252 -277h-117z" />
    <glyph glyph-name="abreve.salt" horiz-adv-x="1228" 
d="M496 113q160 0 293 148.5t133 320.5q0 125 -84 206.5t-201 81.5q-143 0 -276.5 -137t-133.5 -319q0 -127 80 -214t189 -87zM840 145q-6 -6 -16.5 -17t-46.5 -40t-74.5 -50.5t-99 -39.5t-124.5 -18q-160 0 -278.5 125.5t-118.5 297.5q0 246 179 423.5t392 177.5
q63 0 120.5 -18.5t93.5 -45.5t63.5 -54.5t40.5 -45.5l12 -19l35 162h143l-166 -778q-8 -37 11.5 -64.5t56.5 -27.5l57 10l-28 -133q-31 -10 -72 -10q-104 0 -143 47t-39 98zM743 1260q160 0 195 174h113q-27 -127 -108 -202t-202 -75q-125 0 -196.5 78t-46.5 199h112
q-16 -84 19.5 -129t113.5 -45z" />
    <glyph glyph-name="acircumflex.salt" horiz-adv-x="1228" 
d="M496 113q160 0 293 148.5t133 320.5q0 125 -84 206.5t-201 81.5q-143 0 -276.5 -137t-133.5 -319q0 -127 80 -214t189 -87zM840 145q-6 -6 -16.5 -17t-46.5 -40t-74.5 -50.5t-99 -39.5t-124.5 -18q-160 0 -278.5 125.5t-118.5 297.5q0 246 179 423.5t392 177.5
q63 0 120.5 -18.5t93.5 -45.5t63.5 -54.5t40.5 -45.5l12 -19l35 162h143l-166 -778q-8 -37 11.5 -64.5t56.5 -27.5l57 10l-28 -133q-31 -10 -72 -10q-104 0 -143 47t-39 98zM408 1157l282 277h144l167 -277h-127l-120 195l-207 -195h-139z" />
    <glyph glyph-name="adieresis.salt" horiz-adv-x="1228" 
d="M496 113q160 0 293 148.5t133 320.5q0 125 -84 206.5t-201 81.5q-143 0 -276.5 -137t-133.5 -319q0 -127 80 -214t189 -87zM840 145q-6 -6 -16.5 -17t-46.5 -40t-74.5 -50.5t-99 -39.5t-124.5 -18q-160 0 -278.5 125.5t-118.5 297.5q0 246 179 423.5t392 177.5
q63 0 120.5 -18.5t93.5 -45.5t63.5 -54.5t40.5 -45.5l12 -19l35 162h143l-166 -778q-8 -37 11.5 -64.5t56.5 -27.5l57 10l-28 -133q-31 -10 -72 -10q-104 0 -143 47t-39 98zM442 1280q0 39 31 70.5t72 31.5q39 0 62.5 -22.5t23.5 -56.5q0 -43 -30 -74t-73 -31
q-39 0 -62.5 23.5t-23.5 58.5zM831 1280q0 39 31 70.5t72 31.5q39 0 62.5 -22.5t23.5 -56.5q0 -43 -29.5 -74t-72.5 -31q-39 0 -63 23.5t-24 58.5z" />
    <glyph glyph-name="amacron.salt" horiz-adv-x="1228" 
d="M496 113q160 0 293 148.5t133 320.5q0 125 -84 206.5t-201 81.5q-143 0 -276.5 -137t-133.5 -319q0 -127 80 -214t189 -87zM840 145q-6 -6 -16.5 -17t-46.5 -40t-74.5 -50.5t-99 -39.5t-124.5 -18q-160 0 -278.5 125.5t-118.5 297.5q0 246 179 423.5t392 177.5
q63 0 120.5 -18.5t93.5 -45.5t63.5 -54.5t40.5 -45.5l12 -19l35 162h143l-166 -778q-8 -37 11.5 -64.5t56.5 -27.5l57 10l-28 -133q-31 -10 -72 -10q-104 0 -143 47t-39 98zM1049 1362l-25 -113h-594l25 113h594z" />
    <glyph glyph-name="aogonek.salt" horiz-adv-x="1228" 
d="M496 113q160 0 293 148.5t133 320.5q0 125 -84 206.5t-201 81.5q-143 0 -276.5 -136t-133.5 -318q0 -127 80 -215t189 -88zM840 145q-6 -6 -16.5 -17t-46.5 -40t-74.5 -50.5t-99 -39.5t-124.5 -18q-160 0 -278.5 125.5t-118.5 297.5q0 246 179 423.5t392 177.5
q63 0 120.5 -18.5t93.5 -45.5t63.5 -54.5t40.5 -45.5l12 -19l35 162h143l-166 -778q-8 -37 11.5 -64.5t56.5 -27.5l57 10l-28 -133q-27 -8 -62 -10q-143 -135 -143 -232q0 -66 88 -65q27 0 59.5 7t50.5 15l19 8l-23 -102q-63 -31 -137 -31q-76 0 -120 41t-44 107
q0 139 158 264q-100 31 -100 133z" />
    <glyph glyph-name="aring.salt" horiz-adv-x="1228" 
d="M496 113q160 0 293 148.5t133 320.5q0 125 -84 206.5t-201 81.5q-143 0 -276.5 -137t-133.5 -319q0 -127 80 -214t189 -87zM840 145q-6 -6 -16.5 -17t-46.5 -40t-74.5 -50.5t-99 -39.5t-124.5 -18q-160 0 -278.5 125.5t-118.5 297.5q0 246 179 423.5t392 177.5
q63 0 120.5 -18.5t93.5 -45.5t63.5 -54.5t40.5 -45.5l12 -19l35 162h143l-166 -778q-8 -37 11.5 -64.5t56.5 -27.5l57 10l-28 -133q-31 -10 -72 -10q-104 0 -143 47t-39 98zM750 1413q-45 0 -75 -38t-30 -85q0 -37 23.5 -59.5t58.5 -22.5q41 0 74 34t33 85q0 39 -22.5 62.5
t-61.5 23.5zM938 1337q0 -88 -62.5 -154.5t-152.5 -66.5q-82 0 -132 46t-50 120q0 94 63.5 158.5t153.5 64.5q82 0 131 -47t49 -121z" />
    <glyph glyph-name="atilde.salt" horiz-adv-x="1228" 
d="M496 113q160 0 293 148.5t133 320.5q0 125 -84 206.5t-201 81.5q-143 0 -276.5 -137t-133.5 -319q0 -127 80 -214t189 -87zM840 145q-6 -6 -16.5 -17t-46.5 -40t-74.5 -50.5t-99 -39.5t-124.5 -18q-160 0 -278.5 125.5t-118.5 297.5q0 246 179 423.5t392 177.5
q63 0 120.5 -18.5t93.5 -45.5t63.5 -54.5t40.5 -45.5l12 -19l35 162h143l-166 -778q-8 -37 11.5 -64.5t56.5 -27.5l57 10l-28 -133q-31 -10 -72 -10q-104 0 -143 47t-39 98zM598 1290q-33 0 -63.5 -33.5t-42.5 -99.5h-103q53 246 215 246q61 0 107.5 -34t82 -66.5
t72.5 -32.5q33 0 64 33.5t43 99.5h102q-27 -121 -82 -183.5t-133 -62.5q-61 0 -107 34t-82 66.5t-73 32.5z" />
    <glyph glyph-name="lacute.salt" horiz-adv-x="593" 
d="M428 1628l207 277h162l-252 -277h-117zM127 266l248 1168h143l-248 -1168q-31 -154 111 -153q27 0 56.5 8t45.5 14l17 8l-27 -133q-70 -31 -141 -30q-125 0 -179.5 74.5t-25.5 211.5z" />
    <glyph glyph-name="lcaron.salt" horiz-adv-x="604" 
d="M127 266l248 1168h143l-248 -1168q-31 -154 111 -153q27 0 56.5 8t45.5 14l17 8l-27 -133q-70 -31 -141 -30q-125 0 -179.5 74.5t-25.5 211.5zM590 1157l145 277h142l-181 -277h-106z" />
    <glyph glyph-name="uni013C.salt" horiz-adv-x="593" 
d="M127 266l248 1168h143l-248 -1168q-31 -154 111 -153q27 0 56.5 8t45.5 14l17 8l-27 -133q-70 -31 -141 -30q-125 0 -179.5 74.5t-25.5 211.5zM23 -440l143 276h141l-180 -276h-104z" />
    <glyph glyph-name="yacute.salt" 
d="M643 1157l207 277h162l-252 -277h-117zM784 31l33 159q-4 -6 -13 -17t-39 -39t-64.5 -48t-91 -37.5t-115.5 -17.5q-182 0 -279.5 117.5t-56.5 312.5l112 522h144l-113 -522q-27 -129 36.5 -213t180.5 -84q125 0 229.5 95t137.5 241l102 483h143l-202 -952
q-41 -195 -189.5 -328t-330.5 -133q-78 0 -146.5 21.5t-113 51t-76 59.5t-45.5 52l-15 21l107 90q4 -6 11 -17.5t32.5 -39t57.5 -49t83 -39t109 -17.5q131 0 235 91.5t137 236.5z" />
    <glyph glyph-name="ydieresis.salt" 
d="M784 31l33 159q-4 -6 -13 -17t-39 -39t-64.5 -48t-91 -37.5t-115.5 -17.5q-182 0 -279.5 117.5t-56.5 312.5l112 522h144l-113 -522q-27 -129 36.5 -213t180.5 -84q125 0 229.5 95t137.5 241l102 483h143l-202 -952q-41 -195 -189.5 -328t-330.5 -133q-78 0 -146.5 21.5
t-113 51t-76 59.5t-45.5 52l-15 21l107 90q4 -6 11 -17.5t32.5 -39t57.5 -49t83 -39t109 -17.5q131 0 235 91.5t137 236.5zM455 1270q0 39 30.5 70.5t71.5 31.5q39 0 62.5 -22.5t23.5 -57.5q0 -43 -29.5 -73.5t-72.5 -30.5q-39 0 -62.5 23.5t-23.5 58.5zM844 1270
q0 39 30.5 70.5t71.5 31.5q39 0 62.5 -22.5t23.5 -57.5q0 -43 -29.5 -73.5t-72.5 -30.5q-39 0 -62.5 23.5t-23.5 58.5z" />
    <glyph glyph-name="ugrave.salt" 
d="M672 1434l94 -277h-104l-138 277h148zM801 143q-4 -6 -12.5 -17t-38 -40t-63.5 -50.5t-90 -38.5t-116 -17q-154 0 -251 86t-97 233q0 49 12 100l125 584h144l-125 -584q-8 -33 -8 -69q0 -100 62.5 -158.5t162.5 -58.5q123 0 216 86t126 231l119 553h143l-166 -778
q-2 -8 -2 -21q0 -31 20.5 -51t53.5 -20l53 10l-29 -133q-23 -10 -63 -10q-74 0 -117 28.5t-52 56t-9 58.5z" />
    <glyph glyph-name="uacute.salt" 
d="M623 1157l206 277h162l-252 -277h-116zM801 143q-4 -6 -12.5 -17t-38 -40t-63.5 -50.5t-90 -38.5t-116 -17q-154 0 -251 86t-97 233q0 49 12 100l125 584h144l-125 -584q-8 -33 -8 -69q0 -100 62.5 -158.5t162.5 -58.5q123 0 216 86t126 231l119 553h143l-166 -778
q-2 -8 -2 -21q0 -31 20.5 -51t53.5 -20l53 10l-29 -133q-23 -10 -63 -10q-74 0 -117 28.5t-52 56t-9 58.5z" />
    <glyph glyph-name="ucircumflex.salt" 
d="M801 143q-4 -6 -12.5 -17t-38 -40t-63.5 -50.5t-90 -38.5t-116 -17q-154 0 -251 86t-97 233q0 49 12 100l125 584h144l-125 -584q-8 -33 -8 -69q0 -100 62.5 -158.5t162.5 -58.5q123 0 216 86t126 231l119 553h143l-166 -778q-2 -8 -2 -21q0 -31 20.5 -51t53.5 -20l53 10
l-29 -133q-23 -10 -63 -10q-74 0 -117 28.5t-52 56t-9 58.5zM410 1157l282 277h144l168 -277h-127l-121 195l-207 -195h-139z" />
    <glyph glyph-name="udieresis.salt" 
d="M801 143q-4 -6 -12.5 -17t-38 -40t-63.5 -50.5t-90 -38.5t-116 -17q-154 0 -251 86t-97 233q0 49 12 100l125 584h144l-125 -584q-8 -33 -8 -69q0 -100 62.5 -158.5t162.5 -58.5q123 0 216 86t126 231l119 553h143l-166 -778q-2 -8 -2 -21q0 -31 20.5 -51t53.5 -20l53 10
l-29 -133q-23 -10 -63 -10q-74 0 -117 28.5t-52 56t-9 58.5zM457 1270q0 39 30.5 70.5t71.5 31.5q39 0 62.5 -22.5t23.5 -57.5q0 -43 -29.5 -73.5t-72.5 -30.5q-39 0 -62.5 23.5t-23.5 58.5zM846 1270q0 39 30.5 70.5t71.5 31.5q39 0 62.5 -22.5t23.5 -57.5
q0 -43 -29.5 -73.5t-72.5 -30.5q-39 0 -62.5 23.5t-23.5 58.5z" />
    <glyph glyph-name="uhungarumlaut.salt" 
d="M801 143q-4 -6 -12.5 -17t-38 -40t-63.5 -50.5t-90 -38.5t-116 -17q-154 0 -251 86t-97 233q0 49 12 100l125 584h144l-125 -584q-8 -33 -8 -69q0 -100 62.5 -158.5t162.5 -58.5q123 0 216 86t126 231l119 553h143l-166 -778q-2 -8 -2 -21q0 -31 20.5 -51t53.5 -20l53 10
l-29 -133q-23 -10 -63 -10q-74 0 -117 28.5t-52 56t-9 58.5zM477 1157l207 277h162l-254 -277h-115zM795 1157l204 277h164l-252 -277h-116z" />
    <glyph glyph-name="umacron.salt" 
d="M801 143q-4 -6 -12.5 -17t-38 -40t-63.5 -50.5t-90 -38.5t-116 -17q-154 0 -251 86t-97 233q0 49 12 100l125 584h144l-125 -584q-8 -33 -8 -69q0 -100 62.5 -158.5t162.5 -58.5q123 0 216 86t126 231l119 553h143l-166 -778q-2 -8 -2 -21q0 -31 20.5 -51t53.5 -20l53 10
l-29 -133q-23 -10 -63 -10q-74 0 -117 28.5t-52 56t-9 58.5zM1061 1352l-25 -113h-594l25 113h594z" />
    <glyph glyph-name="uogonek.salt" 
d="M801 143q-4 -6 -12.5 -17t-38 -40t-63.5 -50.5t-90 -38.5t-116 -17q-154 0 -251 86t-97 233q0 49 12 100l125 584h144l-125 -584q-8 -33 -8 -69q0 -100 62.5 -158.5t162.5 -58.5q123 0 216 86t126 231l119 553h143l-166 -778q-2 -8 -2 -21q0 -31 20.5 -51t53.5 -20l53 10
l-29 -133q-18 -8 -49 -10q-143 -135 -143 -232q0 -66 88 -65q27 0 59.5 7t51.5 15l18 8l-23 -102q-63 -31 -137 -31q-76 0 -120 41t-44 107q0 139 156 262q-98 31 -98 133z" />
    <glyph glyph-name="uring.salt" 
d="M750 1413q-45 0 -75 -38t-30 -85q0 -37 23.5 -59.5t58.5 -22.5q41 0 74 34t33 85q0 39 -22.5 62.5t-61.5 23.5zM938 1337q0 -88 -62.5 -154.5t-152.5 -66.5q-82 0 -132 46t-50 120q0 94 63.5 158.5t153.5 64.5q82 0 131 -47t49 -121zM801 143q-4 -6 -12.5 -17t-38 -40
t-63.5 -50.5t-90 -38.5t-116 -17q-154 0 -251 86t-97 233q0 49 12 100l125 584h144l-125 -584q-8 -33 -8 -69q0 -100 62.5 -158.5t162.5 -58.5q123 0 216 86t126 231l119 553h143l-166 -778q-2 -8 -2 -21q0 -31 20.5 -51t53.5 -20l53 10l-29 -133q-23 -10 -63 -10
q-74 0 -117 28.5t-52 56t-9 58.5z" />
    <glyph glyph-name="a.salt" horiz-adv-x="1228" 
d="M496 113q160 0 293 148.5t133 320.5q0 125 -84 206.5t-201 81.5q-143 0 -276.5 -137t-133.5 -319q0 -127 80 -214t189 -87zM840 145q-6 -6 -16.5 -17t-46.5 -40t-74.5 -50.5t-99 -39.5t-124.5 -18q-160 0 -278.5 125.5t-118.5 297.5q0 246 179 423.5t392 177.5
q63 0 120.5 -18.5t93.5 -45.5t63.5 -54.5t40.5 -45.5l12 -19l35 162h143l-166 -778q-8 -37 11.5 -64.5t56.5 -27.5l57 10l-28 -133q-31 -10 -72 -10q-104 0 -143 47t-39 98z" />
    <glyph glyph-name="l.salt" horiz-adv-x="593" 
d="M127 266l248 1168h143l-248 -1168q-31 -154 111 -153q27 0 56.5 8t45.5 14l17 8l-27 -133q-70 -31 -141 -30q-125 0 -179.5 74.5t-25.5 211.5z" />
    <glyph glyph-name="uni0443.salt" horiz-adv-x="1003" 
d="M49 -430l277 438l-189 975h148l149 -790l486 790h159l-874 -1413h-156z" />
    <glyph glyph-name="y.salt" 
d="M784 31l33 159q-4 -6 -13 -17t-39 -39t-64.5 -48t-91 -37.5t-115.5 -17.5q-182 0 -279.5 117.5t-56.5 312.5l112 522h144l-113 -522q-27 -129 36.5 -213t180.5 -84q125 0 229.5 95t137.5 241l102 483h143l-202 -952q-41 -195 -189.5 -328t-330.5 -133q-78 0 -146.5 21.5
t-113 51t-76 59.5t-45.5 52l-15 21l107 90q4 -6 11 -17.5t32.5 -39t57.5 -49t83 -39t109 -17.5q131 0 235 91.5t137 236.5z" />
    <glyph glyph-name="u.salt" 
d="M801 143q-4 -6 -12.5 -17t-38 -40t-63.5 -50.5t-90 -38.5t-116 -17q-154 0 -251 86t-97 233q0 49 12 100l125 584h144l-125 -584q-8 -33 -8 -69q0 -100 62.5 -158.5t162.5 -58.5q123 0 216 86t126 231l119 553h143l-166 -778q-2 -8 -2 -21q0 -31 20.5 -51t53.5 -20l53 10
l-29 -133q-23 -10 -63 -10q-74 0 -117 28.5t-52 56t-9 58.5z" />
    <glyph glyph-name="uni0430.salt" horiz-adv-x="1228" 
d="M496 113q160 0 293 148.5t133 320.5q0 125 -84 206.5t-201 81.5q-143 0 -276.5 -137t-133.5 -319q0 -127 80 -214t189 -87zM840 145q-6 -6 -16.5 -17t-46.5 -40t-74.5 -50.5t-99 -39.5t-124.5 -18q-160 0 -278.5 125.5t-118.5 297.5q0 246 179 423.5t392 177.5
q63 0 120.5 -18.5t93.5 -45.5t63.5 -54.5t40.5 -45.5l12 -19l35 162h143l-166 -778q-8 -37 11.5 -64.5t56.5 -27.5l57 10l-28 -133q-31 -10 -72 -10q-104 0 -143 47t-39 98z" />
    <glyph glyph-name="zero.frac" horiz-adv-x="716" 
d="M537 1341q-104 0 -171 -108.5t-67 -224.5q0 -92 44 -146.5t108 -54.5q82 0 159.5 94t77.5 244q0 92 -44 144t-107 52zM803 1157q0 -162 -98.5 -306t-260.5 -144q-115 0 -187.5 76.5t-72.5 207.5q0 203 111 328t248 125q117 0 188.5 -77t71.5 -210z" />
    <glyph glyph-name="one.frac" horiz-adv-x="430" 
d="M426 1434h92l-151 -717h-113l115 543h-133l18 81q55 0 98 24t58 46z" />
    <glyph glyph-name="two.frac" horiz-adv-x="614" 
d="M602 717h-481q18 88 74.5 159.5t123 115.5t131 83t107.5 82t43 94q0 37 -28.5 63.5t-73.5 26.5t-85 -28.5t-57 -57.5l-16 -28l-94 33q2 8 8 20t27.5 44t48 56.5t73 44t101.5 19.5q92 0 152.5 -51.5t60.5 -124.5q0 -86 -53.5 -152.5t-121 -102.5t-145.5 -88.5t-112 -105.5
h340z" />
    <glyph glyph-name="three.frac" horiz-adv-x="634" 
d="M590 1092q8 -4 22.5 -11.5t37 -41t22.5 -78.5q0 -113 -77 -183.5t-204 -70.5q-82 0 -145.5 30.5t-85.5 61.5l-25 30l80 74q6 -10 19.5 -25.5t60.5 -42t102 -26.5q76 0 118 37t42 102q0 43 -31.5 69.5t-89.5 26.5h-82l23 103h90q57 0 92 29.5t35 85.5q0 33 -27.5 56
t-77.5 23q-43 0 -86 -22.5t-63 -44.5l-21 -23l-59 76q10 12 29.5 31.5t84 52.5t130.5 33q90 0 147.5 -49t57.5 -117q-2 -125 -119 -186z" />
    <glyph glyph-name="four.frac" horiz-adv-x="634" 
d="M608 983h82l-22 -102h-82l-35 -164h-113l35 164h-338l23 102l403 451h144zM496 983l67 317l-282 -317h215z" />
    <glyph glyph-name="five.frac" horiz-adv-x="593" 
d="M459 1167q90 0 146.5 -59t56.5 -141q0 -113 -77 -186.5t-214 -73.5q-82 0 -149.5 27.5t-94.5 56.5l-27 28l86 72l22 -23q15 -14 63 -36.5t104 -22.5q172 0 172 149q0 47 -31 77t-88 30q-39 0 -75 -10.5t-50 -20.5l-16 -10h-92l129 410h399l-23 -103h-303l-61 -192
q51 28 123 28z" />
    <glyph glyph-name="six.frac" horiz-adv-x="614" 
d="M436 1198h31q98 0 158.5 -62.5t60.5 -148.5q0 -115 -91 -197.5t-218 -82.5q-100 0 -167 60t-67 144q0 49 22.5 100.5t43.5 78.5l22 26l283 318h127zM389 809q70 0 126 48t56 122q0 51 -33.5 84t-93.5 33q-78 0 -132 -51.5t-54 -122.5q0 -49 36 -81t95 -32z" />
    <glyph glyph-name="seven.frac" horiz-adv-x="563" 
d="M254 1434h481l-22 -103l-408 -614h-123l408 614h-359z" />
    <glyph glyph-name="eight.frac" horiz-adv-x="573" 
d="M375 809q76 0 118 37t42 94q0 41 -33 72.5t-90 31.5q-74 0 -121 -40.5t-47 -94.5q0 -41 36 -70.5t95 -29.5zM442 1147q63 0 97 30.5t34 86.5q0 33 -27.5 55t-72.5 22q-61 0 -96 -31.5t-35 -80.5q0 -35 25.5 -58.5t74.5 -23.5zM360 707q-100 0 -165.5 56t-65.5 132
q0 33 10.5 62.5t25.5 50t33.5 38t37 26.5t35 16.5t24.5 9.5l8 4q-8 4 -20.5 14t-33 43t-20.5 70q0 88 75 151.5t183 63.5q86 0 143.5 -51.5t57.5 -118.5q0 -39 -14.5 -72t-35 -52.5t-42 -33.5t-35.5 -20l-12 -6q10 -4 27.5 -13.5t45 -45.5t27.5 -83q0 -98 -82 -169.5
t-207 -71.5z" />
    <glyph glyph-name="nine.frac" horiz-adv-x="614" 
d="M449 952h-31q-98 0 -158.5 62.5t-60.5 148.5q0 115 91 198t218 83q100 0 166.5 -60.5t66.5 -144.5q0 -49 -22.5 -100.5t-42.5 -77.5l-23 -27l-282 -317h-127zM496 1341q-70 0 -126.5 -48t-56.5 -122q0 -51 34 -83.5t93 -32.5q78 0 132.5 51t54.5 123q0 49 -36 80.5
t-95 31.5z" />
    <glyph glyph-name="zero.dnom" horiz-adv-x="716" 
d="M385 625q-104 0 -171 -108.5t-67 -225.5q0 -92 44.5 -146.5t107.5 -54.5q82 0 160 94.5t78 243.5q0 92 -44.5 144.5t-107.5 52.5zM651 440q0 -162 -98 -306t-260 -144q-115 0 -187.5 76.5t-72.5 207.5q0 203 110.5 328t247.5 125q117 0 188.5 -77t71.5 -210z" />
    <glyph glyph-name="one.dnom" horiz-adv-x="430" 
d="M274 717h93l-152 -717h-113l115 543h-133l16 82q55 0 98.5 23.5t59.5 45.5z" />
    <glyph glyph-name="two.dnom" horiz-adv-x="614" 
d="M451 0h-482q18 88 74.5 159.5t123 115.5t131 83t108 82t43.5 95q0 37 -29 63.5t-74 26.5t-85 -29t-56 -57l-17 -29l-94 33q2 8 8.5 20t28 44t48 56.5t72.5 44t101 19.5q92 0 152.5 -51t60.5 -125q0 -86 -53 -152.5t-120.5 -102.5t-145.5 -88t-113 -106h340z" />
    <glyph glyph-name="three.dnom" horiz-adv-x="634" 
d="M438 375q8 -4 22.5 -11.5t37 -41t22.5 -78.5q0 -113 -76.5 -183.5t-203.5 -70.5q-82 0 -145.5 30.5t-86.5 61.5l-24 31l79 73q6 -10 19.5 -25.5t60.5 -42t103 -26.5q76 0 118 37t42 102q0 43 -32 70t-89 27h-82l22 102h90q57 0 92 29.5t35 85.5q0 33 -27.5 56.5
t-76.5 23.5q-43 0 -86 -22.5t-64 -45.5l-20 -22l-59 75q10 12 29.5 32t84 52.5t129.5 32.5q90 0 147.5 -49t57.5 -117q-2 -125 -119 -186z" />
    <glyph glyph-name="four.dnom" horiz-adv-x="634" 
d="M455 266h82l-23 -102h-82l-35 -164h-112l34 164h-337l22 102l404 451h143zM342 266l68 318l-283 -318h215z" />
    <glyph glyph-name="five.dnom" horiz-adv-x="593" 
d="M307 451q90 0 146.5 -59.5t56.5 -141.5q0 -113 -77 -186.5t-214 -73.5q-82 0 -149.5 27.5t-94.5 56.5l-26 28l86 72l23 -22q14 -15 62 -37.5t103 -22.5q172 0 172 150q0 47 -30.5 76.5t-88.5 29.5q-39 0 -74.5 -10t-49.5 -21l-17 -10h-92l129 410h399l-22 -103h-303
l-62 -192q51 29 123 29z" />
    <glyph glyph-name="six.dnom" horiz-adv-x="614" 
d="M285 481h30q98 0 159 -62.5t61 -148.5q0 -115 -91.5 -197.5t-218.5 -82.5q-100 0 -166.5 60.5t-66.5 144.5q0 49 22.5 100t42.5 78l23 26l282 318h127zM238 92q70 0 126 48t56 122q0 51 -34 84t-93 33q-78 0 -132.5 -51.5t-54.5 -122.5q0 -49 36.5 -81t95.5 -32z" />
    <glyph glyph-name="seven.dnom" horiz-adv-x="563" 
d="M100 717h482l-23 -103l-407 -614h-123l407 614h-358z" />
    <glyph glyph-name="eight.dnom" horiz-adv-x="573" 
d="M223 92q76 0 118 37t42 94q0 41 -33 73t-90 32q-74 0 -121 -41t-47 -94q0 -41 36 -71t95 -30zM291 430q63 0 97 31t34 86q0 33 -27.5 55.5t-72.5 22.5q-61 0 -96.5 -32t-35.5 -81q0 -35 26 -58.5t75 -23.5zM209 -10q-100 0 -166 56t-66 132q0 33 10.5 62.5t26 50t34 38
t36.5 27t34.5 16.5t24.5 9l9 4q-8 4 -20.5 14.5t-33 43t-20.5 69.5q0 88 74.5 151.5t183.5 63.5q86 0 143.5 -51t57.5 -119q0 -39 -14.5 -71.5t-35 -52t-42 -34t-35.5 -20.5l-13 -6q10 -4 27.5 -13.5t45.5 -45t28 -83.5q0 -98 -82 -169.5t-207 -71.5z" />
    <glyph glyph-name="nine.dnom" horiz-adv-x="614" 
d="M295 236h-31q-98 0 -158.5 62t-60.5 148q0 115 91 198t218 83q100 0 167 -60.5t67 -144.5q0 -49 -21.5 -100t-44.5 -78l-22 -27l-283 -317h-127zM342 625q-70 0 -126 -48.5t-56 -121.5q0 -51 33.5 -84t93.5 -33q78 0 132 51t54 123q0 49 -36 81t-95 32z" />
    <glyph glyph-name="glyph532" horiz-adv-x="3149" 
d="M569 942v-63h-147v-408h-72v408h-145v63h364zM1063 811q66 0 112 -51t46 -121q0 -74 -46.5 -124t-111.5 -50q-59 0 -96 43v-162h-70v459h49l19 -39q39 45 98 45zM1057 528q39 0 67.5 33t28.5 78q0 43 -28.5 74.5t-67.5 31.5t-67.5 -31.5t-28.5 -74.5q0 -45 27.5 -78
t68.5 -33zM682 567l90 238h76l-158 -389q-33 -70 -100 -70q-14 0 -21 2v58q47 0 64 40l12 33l-129 326h76zM1435.5 811q65.5 0 110.5 -50t45 -120l-2 -31h-243q4 -35 29.5 -59.5t60.5 -24.5q55 0 75 35h72q-18 -45 -58 -70.5t-89 -25.5q-66 0 -113 50t-47 124q0 72 47 122
t112.5 50zM1346 666h180q-2 35 -30 58.5t-60.5 23.5t-59 -22.5t-30.5 -59.5zM1923 942v-63h-147v-408h-72v408h-145v63h364zM2417 811q66 0 111.5 -51t45.5 -121q0 -74 -46 -124t-111 -50q-59 0 -97 43v-162h-69v459h49l18 -39q40 45 99 45zM2410 528q39 0 68 33t29 78
q0 43 -29 74.5t-67.5 31.5t-67.5 -31.5t-29 -74.5q0 -45 27.5 -78t68.5 -33zM2036 567l90 238h76l-158 -389q-33 -70 -100 -70q-14 0 -21 2v58q47 0 64 40l12 33l-129 326h76zM2789.5 811q65.5 0 110.5 -50t45 -120l-2 -31h-244q4 -35 30 -59.5t60 -24.5q55 0 76 35h72
q-18 -45 -58 -70.5t-90 -25.5q-66 0 -112.5 50t-46.5 124q0 72 47 122t112.5 50zM2699 666h180q-2 35 -29.5 58.5t-60 23.5t-59.5 -22.5t-31 -59.5z" />
    </font>
</defs>
</svg>
