<svg width="360" height="120" viewBox="0 0 360 120" fill="none" xmlns="http://www.w3.org/2000/svg">
<rect width="360" height="120" fill="#E2E2E4"/>

<path d="M96.4339 36.3723L87.2097 41.6689L96.4339 46.9654L87.2097 52.1792L96.4339 57.4758L87.2097 62.6896L96.4339 67.9861L108.425 61.1999L114.966 67.9861V57.5171L124.19 52.2206L96.4339 36.3723ZM113.289 63.5999L98.111 47.8758L113.289 56.4827V63.5999Z" fill="black"/>
<path d="M273.79 59.9999H270.52V54.7034H267.585V59.9999H264.231V62.8137H267.585V76.5516H270.52V62.7723H273.79V59.9999ZM257.019 59.5861C256.046 59.5334 255.076 59.7352 254.207 60.1712C253.338 60.6071 252.602 61.2618 252.072 62.0689V59.9999H249.137V76.5516H252.072V67.0758C252.018 66.4162 252.103 65.753 252.319 65.1267C252.535 64.5005 252.879 63.9246 253.329 63.4344C254.126 62.6981 255.173 62.2845 256.264 62.2758C256.724 62.2527 257.184 62.3214 257.616 62.4778C258.049 62.6342 258.444 62.8751 258.78 63.1861C259.113 63.5394 259.367 63.9576 259.526 64.4138C259.685 64.8699 259.745 65.3539 259.702 65.8344V76.4275H262.637V65.6689C262.656 64.5219 262.397 63.3871 261.883 62.3585C261.419 61.4765 260.724 60.7334 259.87 60.2068C258.987 59.7654 258.009 59.5384 257.019 59.5447V59.5861ZM232.91 67.0758C233.069 65.7321 233.726 64.494 234.755 63.5999C235.812 62.7267 237.151 62.2568 238.529 62.2758C239.816 62.2565 241.067 62.6974 242.051 63.5172C242.571 63.9635 242.995 64.5085 243.298 65.1199C243.6 65.7312 243.775 66.3964 243.812 67.0758H232.91ZM246.747 69.5585C246.816 69.1207 246.844 68.6774 246.83 68.2344C246.837 66.7159 246.493 65.216 245.824 63.8482C245.182 62.5408 244.198 61.4265 242.973 60.6206C241.673 59.8042 240.152 59.3999 238.613 59.462C237.027 59.4521 235.466 59.8515 234.084 60.6206C232.773 61.3627 231.698 62.452 230.982 63.7654C230.229 65.1357 229.853 66.6764 229.891 68.2344C229.853 69.7924 230.229 71.3331 230.982 72.7034C231.698 74.0168 232.773 75.1061 234.084 75.8482C235.466 76.6173 237.027 77.0167 238.613 77.0068C240.339 77.0234 242.032 76.5337 243.476 75.5999C244.783 74.7228 245.756 73.4417 246.243 71.9585H243.225C242.866 72.7263 242.242 73.3426 241.464 73.6965C240.414 74.2158 239.238 74.4367 238.068 74.3344C236.898 74.2321 235.78 73.8106 234.839 73.1172C233.767 72.2111 233.079 70.9412 232.91 69.5585H246.747ZM218.445 74.0689C217.391 74.0777 216.352 73.8213 215.426 73.3241C214.523 72.8051 213.772 72.0637 213.246 71.1723C212.75 70.2554 212.491 69.2322 212.491 68.193C212.491 67.1538 212.75 66.1306 213.246 65.2137C213.772 64.3223 214.523 63.5809 215.426 63.062C216.355 62.573 217.392 62.3172 218.445 62.3172C219.498 62.3172 220.535 62.573 221.464 63.062C222.367 63.5809 223.118 64.3223 223.644 65.2137C224.14 66.1306 224.399 67.1538 224.399 68.193C224.399 69.2322 224.14 70.2554 223.644 71.1723C223.118 72.0637 222.367 72.8051 221.464 73.3241C220.538 73.8213 219.499 74.0777 218.445 74.0689V74.0689ZM224.399 59.9999V62.8965C223.717 61.8919 222.795 61.0678 221.715 60.4965C220.581 59.8959 219.313 59.583 218.026 59.5861C216.522 59.5984 215.048 59.9978 213.749 60.7447C212.438 61.4868 211.363 62.5761 210.646 63.8896C209.878 65.1972 209.473 66.6816 209.472 68.193C209.473 69.7306 209.878 71.2417 210.646 72.5792C211.387 73.8754 212.456 74.9592 213.749 75.7241C215.039 76.4917 216.519 76.8927 218.026 76.8827C219.282 76.8913 220.521 76.5937 221.633 76.0162C222.745 75.4387 223.695 74.5992 224.399 73.5723V75.8896C224.429 76.5732 224.318 77.2558 224.073 77.8959C223.828 78.5361 223.454 79.1205 222.973 79.6137C221.828 80.5624 220.356 81.0369 218.864 80.9379C217.907 80.9805 216.954 80.7811 216.097 80.3585C215.369 80.0555 214.733 79.5707 214.252 78.9516C213.872 78.4497 213.666 77.8402 213.665 77.2137H210.73C210.735 78.4157 211.149 79.5813 211.904 80.5241C212.679 81.5325 213.725 82.3065 214.923 82.7585C216.159 83.3177 217.505 83.6003 218.864 83.5861C220.313 83.5889 221.744 83.2781 223.057 82.6758C224.324 82.0994 225.399 81.1813 226.16 80.0275C226.959 78.7634 227.367 77.2965 227.334 75.8068V59.9999H224.399ZM203.938 76.5516H206.915V59.9999H203.98L203.938 76.5516ZM203.938 57.0206H206.915V53.3792H203.98L203.938 57.0206ZM197.397 76.5516H200.332V52.6758H197.397V76.5516ZM190.856 76.5516H193.791V52.6758H190.856V76.5516ZM174.588 67.1172C174.747 65.7735 175.404 64.5354 176.433 63.6413C177.489 62.7681 178.829 62.2982 180.206 62.3172C181.494 62.2978 182.745 62.7388 183.728 63.5585C184.249 64.0049 184.673 64.5499 184.975 65.1613C185.278 65.7726 185.453 66.4378 185.489 67.1172H174.588ZM188.424 69.5999C188.494 69.1621 188.522 68.7188 188.508 68.2758C188.514 66.7573 188.17 65.2573 187.502 63.8896C186.86 62.5822 185.876 61.4679 184.651 60.662C183.351 59.8456 181.83 59.4413 180.29 59.5034C178.704 59.4935 177.143 59.8929 175.762 60.662C174.451 61.404 173.376 62.4934 172.659 63.8068C171.907 65.1771 171.531 66.7178 171.569 68.2758C171.531 69.8338 171.907 71.3745 172.659 72.7447C173.376 74.0582 174.451 75.1475 175.762 75.8896C177.143 76.6587 178.704 77.0581 180.29 77.0482C182.017 77.0647 183.71 76.5751 185.154 75.6413C186.46 74.7642 187.434 73.4831 187.921 71.9999H184.902C184.544 72.7677 183.919 73.3839 183.141 73.7378C182.091 74.2572 180.916 74.4781 179.746 74.3758C178.576 74.2735 177.458 73.852 176.517 73.1585C175.972 72.7216 175.521 72.1819 175.189 71.5709C174.858 70.9598 174.654 70.2898 174.588 69.5999H188.424ZM171.15 59.9999H167.88V54.7034H164.987V59.9999H161.632V62.8137H164.987V76.5516H167.922V62.7723H171.192L171.15 59.9999ZM150.731 74.193C149.677 74.2018 148.638 73.9455 147.712 73.4482C146.809 72.9293 146.058 72.1879 145.532 71.2965C145.036 70.3795 144.777 69.3563 144.777 68.3172C144.777 67.278 145.036 66.2548 145.532 65.3379C146.034 64.4287 146.791 63.6817 147.712 63.1861C148.641 62.6971 149.678 62.4413 150.731 62.4413C151.784 62.4413 152.821 62.6971 153.75 63.1861C154.653 63.705 155.404 64.4465 155.93 65.3379C156.426 66.2548 156.685 67.278 156.685 68.3172C156.685 69.3563 156.426 70.3795 155.93 71.2965C155.428 72.2056 154.671 72.9526 153.75 73.4482C152.832 73.9651 151.787 74.2227 150.731 74.193V74.193ZM156.727 53.3792V62.8137C156.035 61.7808 155.085 60.9412 153.969 60.3759C152.852 59.8106 151.607 59.5386 150.354 59.5861C148.875 59.5875 147.425 59.9881 146.161 60.7447C144.868 61.5102 143.799 62.5938 143.058 63.8896C142.288 65.2266 141.884 66.738 141.884 68.2758C141.884 69.8135 142.288 71.3249 143.058 72.662C143.799 73.9577 144.868 75.0414 146.161 75.8068C147.425 76.5634 148.875 76.9641 150.354 76.9654C151.635 77.0058 152.905 76.7209 154.043 76.1379C155.107 75.5436 156.023 74.7239 156.727 73.7378V76.5516H159.662V53.3792H156.727ZM130.312 74.2344C129.258 74.2432 128.219 73.9869 127.293 73.4896C126.39 72.9707 125.639 72.2292 125.113 71.3379C124.617 70.4209 124.358 69.3977 124.358 68.3585C124.358 67.3194 124.617 66.2962 125.113 65.3792C125.615 64.4701 126.372 63.7231 127.293 63.2275C128.222 62.7385 129.259 62.4827 130.312 62.4827C131.365 62.4827 132.402 62.7385 133.331 63.2275C134.234 63.7464 134.985 64.4878 135.511 65.3792C136.006 66.2962 136.266 67.3194 136.266 68.3585C136.266 69.3977 136.006 70.4209 135.511 71.3379C135.009 72.247 134.252 72.994 133.331 73.4896C132.413 74.0064 131.368 74.2641 130.312 74.2344V74.2344ZM136.266 59.9999V62.8137C135.574 61.7808 134.624 60.9412 133.508 60.3759C132.391 59.8106 131.146 59.5386 129.893 59.5861C128.386 59.5908 126.908 59.9921 125.611 60.7485C124.313 61.505 123.244 62.5893 122.513 63.8896C121.744 65.2266 121.339 66.738 121.339 68.2758C121.339 69.8135 121.744 71.3249 122.513 72.662C123.244 73.9623 124.313 75.0465 125.611 75.803C126.908 76.5595 128.386 76.9608 129.893 76.9654C131.174 77.0058 132.444 76.7209 133.582 76.1379C134.646 75.5436 135.562 74.7239 136.266 73.7378V76.5516H139.201V59.9999H136.266Z" fill="black"/>
</svg>
