<svg width="92" height="92" viewBox="0 0 92 92" fill="none" xmlns="http://www.w3.org/2000/svg">
<rect width="92" height="92" rx="24" fill="white"/>
<path d="M37.7339 42.125C38.8379 42.125 39.7339 41.229 39.7339 40.125V32.325C39.7339 28.838 42.5709 26 46.0579 26C49.5449 26 52.3829 28.838 52.3829 32.325V40.125C52.3829 41.229 53.2779 42.125 54.3829 42.125C55.4869 42.125 56.3829 41.229 56.3829 40.125V32.325C56.3839 26.632 51.7519 22 46.0579 22C40.3659 22 35.7339 26.632 35.7339 32.325V40.125C35.7339 41.229 36.6299 42.125 37.7339 42.125Z" fill="url(#paint0_linear_19787)"/>
<path d="M69 37.631H58.384V40.125C58.384 42.331 56.59 44.125 54.384 44.125C52.178 44.125 50.384 42.331 50.384 40.125V37.631H41.735V40.125C41.735 42.331 39.941 44.125 37.735 44.125C35.529 44.125 33.735 42.331 33.735 40.125V37.631H23C22.448 37.631 22.107 38.066 22.238 38.602L29.236 67.099C29.658 68.701 31.344 70 33 70H59C60.658 70 62.342 68.701 62.766 67.099L69.762 38.602C69.893 38.065 69.553 37.631 69 37.631Z" fill="url(#paint1_linear_19787)"/>
<path d="M42.6001 48.4C42.6001 47.6265 43.2266 47 44.0001 47C44.7736 47 45.4001 47.6265 45.4001 48.4V55.35L45.4001 54C45.4001 53.2265 46.0266 52.6 46.8001 52.6C47.5736 52.6 48.2001 53.2265 48.2001 54V55.6764C48.2127 54.9141 48.8346 53.3 49.6 53.3C50.3731 53.3 50.9999 53.9268 51 54.7C51 54.7 51.0411 55.7411 51.1332 55.8033C51.3572 55.3285 51.8402 54 52.4 54C53.1732 54 53.8 54.6268 53.8 55.4V62.4C53.8 63.9463 52.5463 65.2 51 65.2H46.3198C44.8344 65.2 43.4099 64.6099 42.3599 63.5599L40.15 61.35L37 59.9402C37.0051 58.6033 38.0526 58.2 39.1 58.2C40.0023 58.2 40.8136 58.3407 42.6 59.25L42.6001 48.4Z" fill="white"/>
<defs>
<linearGradient id="paint0_linear_19787" x1="46.0584" y1="22" x2="46.0584" y2="42.125" gradientUnits="userSpaceOnUse">
<stop stop-color="#EF8080"/>
<stop offset="50%" stop-color="#F0145A"/>
</linearGradient>
<linearGradient id="paint1_linear_19787" x1="46" y1="37.631" x2="46" y2="70" gradientUnits="userSpaceOnUse">
<stop stop-color="#EF8080"/>
<stop offset="50%" stop-color="#F0145A"/>
</linearGradient>
</defs>
</svg>
