<svg width="360" height="120" viewBox="0 0 360 120" fill="none" xmlns="http://www.w3.org/2000/svg">
<rect width="360" height="120" fill="#282240"/>
<path d="M92.2863 77.1906L95.6309 72.7445L92.4902 69.3499H93.449L97.9639 74.3442V69.3499H98.7189V74.3442L103.234 69.3499H104.193L101.037 72.7445L104.396 77.1906H103.468L100.561 73.2852L98.7189 75.2679V77.1906H97.9639V75.2679L96.1217 73.2702L93.215 77.1906H92.2863ZM106.231 77.1906V69.3499H106.994V76.1917L112.339 69.3499H113.102V77.1906H112.339V70.3487L106.994 77.1906H106.231ZM114.596 77.1906L114.74 76.4996C114.987 76.5697 115.185 76.6047 115.336 76.6047C115.507 76.6047 115.651 76.5922 115.767 76.5672C115.887 76.5371 116.016 76.4695 116.152 76.3644C116.288 76.2593 116.401 76.1116 116.492 75.9214C116.582 75.7311 116.67 75.4682 116.756 75.1328C116.846 74.7973 116.917 74.3918 116.967 73.9161C117.022 73.4354 117.068 72.8471 117.103 72.1512C117.138 71.4552 117.158 70.6592 117.163 69.7629V69.3499H122.531V77.1906H121.769V70.0258H117.888V70.2361C117.888 71.1523 117.866 71.9659 117.82 72.6769C117.78 73.3829 117.725 73.9837 117.654 74.4793C117.589 74.9751 117.498 75.3981 117.382 75.7485C117.267 76.0941 117.148 76.3694 117.027 76.5747C116.907 76.775 116.756 76.9327 116.575 77.0479C116.393 77.158 116.22 77.2281 116.054 77.2581C115.892 77.2932 115.696 77.3107 115.465 77.3107C115.178 77.3107 114.888 77.2706 114.596 77.1906ZM124.872 73.2702C124.872 72.7245 124.975 72.2012 125.181 71.7006C125.388 71.1999 125.667 70.7643 126.02 70.3938C126.372 70.0183 126.802 69.7204 127.311 69.5001C127.819 69.2748 128.36 69.1621 128.934 69.1621C129.694 69.1621 130.383 69.3499 131.003 69.7254C131.627 70.0959 132.11 70.5966 132.452 71.2274C132.799 71.8533 132.973 72.5342 132.973 73.2702C132.973 74.0012 132.799 74.6797 132.452 75.3055C132.105 75.9313 131.617 76.4345 130.987 76.8151C130.363 77.1906 129.669 77.3783 128.904 77.3783C128.335 77.3783 127.799 77.2682 127.295 77.0479C126.792 76.8276 126.364 76.5322 126.012 76.1617C125.66 75.7912 125.38 75.3555 125.174 74.8549C124.973 74.3491 124.872 73.8209 124.872 73.2702ZM125.687 73.2702C125.687 74.2165 125.999 75.0201 126.623 75.681C127.253 76.3369 128.023 76.6648 128.934 76.6648C129.508 76.6648 130.041 76.5146 130.534 76.2142C131.028 75.9088 131.42 75.4958 131.712 74.9751C132.004 74.4543 132.15 73.8861 132.15 73.2702C132.15 72.3289 131.833 71.5278 131.199 70.8669C130.565 70.201 129.8 69.8681 128.904 69.8681C128.32 69.8681 127.781 70.0208 127.288 70.3262C126.795 70.6266 126.405 71.0397 126.118 71.5654C125.831 72.0861 125.687 72.6544 125.687 73.2702ZM135.298 77.1906V69.3499H136.061V76.1917L141.406 69.3499H142.169V77.1906H141.406V70.3487L136.061 77.1906H135.298ZM136.65 66.3007L137.284 66.1655C137.485 66.9115 137.969 67.2846 138.734 67.2846C139.504 67.2846 139.989 66.9115 140.191 66.1655L140.825 66.3007C140.729 66.8114 140.49 67.2345 140.108 67.5699C139.725 67.9054 139.267 68.0731 138.734 68.0731C138.2 68.0731 137.742 67.9054 137.36 67.5699C136.982 67.2345 136.745 66.8114 136.65 66.3007ZM149.674 77.1906V69.3499H150.436V74.3742L155.321 69.3499H156.325L152.875 72.8196L156.431 77.1906H155.472L152.354 73.3603L150.436 75.283V77.1906H149.674ZM157.729 73.2702C157.729 72.7245 157.833 72.2012 158.039 71.7006C158.245 71.1999 158.525 70.7643 158.877 70.3938C159.229 70.0183 159.66 69.7204 160.168 69.5001C160.676 69.2748 161.217 69.1621 161.791 69.1621C162.551 69.1621 163.241 69.3499 163.86 69.7254C164.484 70.0959 164.967 70.5966 165.309 71.2274C165.657 71.8533 165.83 72.5342 165.83 73.2702C165.83 74.0012 165.657 74.6797 165.309 75.3055C164.962 75.9313 164.474 76.4345 163.845 76.8151C163.221 77.1906 162.526 77.3783 161.761 77.3783C161.192 77.3783 160.656 77.2682 160.153 77.0479C159.65 76.8276 159.222 76.5322 158.869 76.1617C158.517 75.7912 158.238 75.3555 158.031 74.8549C157.83 74.3491 157.729 73.8209 157.729 73.2702ZM158.545 73.2702C158.545 74.2165 158.857 75.0201 159.481 75.681C160.11 76.3369 160.88 76.6648 161.791 76.6648C162.365 76.6648 162.899 76.5146 163.392 76.2142C163.885 75.9088 164.278 75.4958 164.57 74.9751C164.862 74.4543 165.008 73.8861 165.008 73.2702C165.008 72.3289 164.69 71.5278 164.056 70.8669C163.422 70.201 162.657 69.8681 161.761 69.8681C161.177 69.8681 160.639 70.0208 160.145 70.3262C159.652 70.6266 159.262 71.0397 158.975 71.5654C158.688 72.0861 158.545 72.6544 158.545 73.2702ZM168.156 77.1906V69.3499H168.843L172.059 73.8561L175.275 69.3499H175.955V77.1906H175.192V70.6566L172.021 74.9901L168.888 70.6566V77.1906H168.156ZM178.831 77.1906V69.3499H185.392V77.1906H184.63V70.0258H179.594V77.1906H178.831ZM186.895 77.1906L187.038 76.4996C187.285 76.5697 187.484 76.6047 187.635 76.6047C187.806 76.6047 187.949 76.5922 188.065 76.5672C188.186 76.5371 188.314 76.4695 188.45 76.3644C188.586 76.2593 188.7 76.1116 188.79 75.9214C188.881 75.7311 188.969 75.4682 189.054 75.1328C189.144 74.7973 189.215 74.3918 189.265 73.9161C189.321 73.4354 189.366 72.8471 189.402 72.1512C189.436 71.4552 189.456 70.6592 189.462 69.7629V69.3499H194.83V77.1906H194.068V70.0258H190.187V70.2361C190.187 71.1523 190.164 71.9659 190.118 72.6769C190.078 73.3829 190.023 73.9837 189.953 74.4793C189.887 74.9751 189.797 75.3981 189.681 75.7485C189.565 76.0941 189.446 76.3694 189.326 76.5747C189.205 76.775 189.054 76.9327 188.873 77.0479C188.691 77.158 188.518 77.2281 188.352 77.2581C188.191 77.2932 187.995 77.3107 187.763 77.3107C187.476 77.3107 187.187 77.2706 186.895 77.1906ZM197.17 73.2552C197.17 72.6944 197.266 72.1637 197.458 71.663C197.649 71.1573 197.908 70.7217 198.235 70.3562C198.562 69.9907 198.957 69.7003 199.42 69.4851C199.888 69.2698 200.384 69.1621 200.908 69.1621C201.627 69.1621 202.264 69.3449 202.818 69.7104C203.376 70.0709 203.802 70.5615 204.094 71.1824C204.386 71.8032 204.531 72.4992 204.531 73.2702C204.531 73.3953 204.527 73.498 204.517 73.5781H197.971C198.036 74.5194 198.365 75.2705 198.959 75.8312C199.559 76.3869 200.261 76.6648 201.066 76.6648C202.103 76.6648 203.004 76.2567 203.769 75.4407L204.297 75.8988C203.854 76.3745 203.376 76.74 202.863 76.9953C202.355 77.2506 201.745 77.3783 201.036 77.3783C200.523 77.3783 200.029 77.2781 199.556 77.0779C199.088 76.8776 198.678 76.6023 198.325 76.2518C197.973 75.8963 197.691 75.4607 197.479 74.945C197.274 74.4242 197.17 73.861 197.17 73.2552ZM197.971 72.9023H203.709C203.683 72.4967 203.605 72.1161 203.474 71.7607C203.343 71.4002 203.165 71.0772 202.939 70.7918C202.712 70.5014 202.42 70.2736 202.063 70.1084C201.711 69.9382 201.315 69.8531 200.878 69.8531C200.103 69.8531 199.44 70.1434 198.892 70.7242C198.348 71.305 198.041 72.031 197.971 72.9023ZM206.736 77.1906V69.3499H207.499V74.3742L212.383 69.3499H213.387L209.938 72.8196L213.493 77.1906H212.534L209.416 73.3603L207.499 75.283V77.1906H206.736ZM214.792 73.2702C214.792 72.5292 214.968 71.8458 215.32 71.2199C215.673 70.5891 216.156 70.0884 216.77 69.7179C217.389 69.3474 218.069 69.1621 218.808 69.1621C220.036 69.1621 221.083 69.6503 221.949 70.6266L221.421 71.1598C221.019 70.7493 220.613 70.4313 220.205 70.206C219.802 69.9807 219.332 69.8681 218.794 69.8681C218.22 69.8681 217.689 70.0208 217.2 70.3262C216.712 70.6266 216.324 71.0397 216.038 71.5654C215.75 72.0861 215.608 72.6544 215.608 73.2702C215.608 74.2165 215.921 75.0201 216.551 75.681C217.18 76.3369 217.948 76.6648 218.854 76.6648C219.795 76.6648 220.668 76.2192 221.473 75.328L222.025 75.8237C221.587 76.3194 221.111 76.7023 220.597 76.9728C220.09 77.2431 219.493 77.3783 218.808 77.3783C218.063 77.3783 217.381 77.1955 216.763 76.8301C216.149 76.4596 215.665 75.9613 215.313 75.3355C214.966 74.7046 214.792 74.0162 214.792 73.2702Z" fill="white"/>
<path d="M106.825 60.5754C106.024 61.1593 105.051 61.5972 103.903 61.8891C102.783 62.2076 101.622 62.3668 100.422 62.3668C98.8208 62.3668 97.4602 62.1147 96.3396 61.6105C95.2457 61.1062 94.3519 60.4029 93.6583 59.5006C92.9646 58.5716 92.4576 57.457 92.1375 56.1566C91.844 54.8561 91.6973 53.423 91.6973 51.8571C91.6973 48.4866 92.4576 45.899 93.9784 44.0943C95.4992 42.263 97.7136 41.3474 100.622 41.3474C102.089 41.3474 103.263 41.4668 104.144 41.7057C105.051 41.9446 105.864 42.2497 106.585 42.6213L105.344 46.8411C104.73 46.5492 104.117 46.3236 103.503 46.1644C102.916 46.0051 102.236 45.9255 101.462 45.9255C100.021 45.9255 98.9276 46.4032 98.1805 47.3586C97.4335 48.2876 97.06 49.787 97.06 51.8571C97.06 52.7064 97.1533 53.4893 97.3401 54.2059C97.5269 54.9225 97.807 55.5461 98.1805 56.0769C98.554 56.6078 99.0343 57.0324 99.6213 57.3508C100.235 57.6428 100.942 57.7887 101.742 57.7887C102.623 57.7887 103.37 57.6826 103.983 57.4703C104.597 57.2314 105.144 56.9527 105.624 56.6343L106.825 60.5754ZM122.017 52.7329L122.217 49.9065H122.097L120.376 52.8126L113.253 61.8095H109.971V41.9047H115.174V51.3794L114.934 54.0865H115.094L116.735 51.26L123.938 41.9047H127.22V61.8095H122.017V52.7329ZM146.186 46.4828H140.543V61.8095H135.181V46.4828H129.538V41.9047H146.186V46.4828ZM160.552 52.7329L160.752 49.9065H160.632L158.911 52.8126L151.788 61.8095H148.506V41.9047H153.709V51.3794L153.469 54.0865H153.629L155.27 51.26L162.473 41.9047H165.755V61.8095H160.552V52.7329ZM202.084 46.4828H195.761V61.8095H190.559V41.9047H207.287V61.8095H202.084V46.4828ZM211.738 43.0592C212.805 42.5815 214.072 42.2099 215.54 41.9446C217.007 41.6526 218.542 41.5066 220.143 41.5066C221.53 41.5066 222.69 41.6792 223.624 42.0242C224.558 42.3426 225.292 42.8071 225.825 43.4175C226.386 44.028 226.772 44.7577 226.986 45.607C227.226 46.4563 227.346 47.4118 227.346 48.4733C227.346 49.6411 227.306 50.8221 227.226 52.0164C227.146 53.1841 227.092 54.3386 227.066 55.4798C227.066 56.621 227.106 57.7356 227.186 58.8238C227.266 59.8854 227.466 60.8939 227.786 61.8493H223.544L222.704 59.1025H222.504C221.97 59.9252 221.223 60.6417 220.263 61.2522C219.329 61.836 218.114 62.128 216.621 62.128C215.687 62.128 214.846 61.9953 214.1 61.7299C213.352 61.4379 212.712 61.0398 212.179 60.5356C211.645 60.0048 211.231 59.3944 210.938 58.7044C210.644 57.9878 210.498 57.1916 210.498 56.3158C210.498 55.095 210.764 54.0732 211.298 53.2505C211.858 52.4012 212.645 51.7244 213.659 51.2202C214.7 50.6894 215.927 50.3311 217.341 50.1453C218.782 49.933 220.383 49.8667 222.144 49.9463C222.33 48.46 222.224 47.3985 221.823 46.7615C221.423 46.098 220.529 45.7663 219.142 45.7663C218.102 45.7663 216.994 45.8724 215.82 46.0847C214.673 46.2971 213.726 46.5758 212.979 46.9207L211.738 43.0592ZM218.342 57.8684C219.382 57.8684 220.209 57.6428 220.823 57.1916C221.436 56.7139 221.89 56.2097 222.184 55.6788V53.0912C221.356 53.0116 220.556 52.9983 219.782 53.0514C219.035 53.1045 218.368 53.224 217.781 53.4097C217.194 53.5954 216.727 53.8609 216.381 54.2059C216.033 54.5509 215.86 54.9888 215.86 55.5196C215.86 56.2627 216.073 56.8466 216.501 57.2712C216.954 57.6693 217.568 57.8684 218.342 57.8684ZM231.712 41.9047H235.514L236.114 44.2933H236.274C236.968 43.2848 237.781 42.5417 238.716 42.064C239.676 41.5863 240.837 41.3474 242.197 41.3474C244.705 41.3474 246.586 42.1436 247.84 43.736C249.094 45.3019 249.721 47.8364 249.721 51.3396C249.721 53.0381 249.521 54.5775 249.121 55.9575C248.721 57.311 248.12 58.4655 247.32 59.4209C246.546 60.3764 245.585 61.1062 244.438 61.6105C243.318 62.1147 242.024 62.3668 240.557 62.3668C239.73 62.3668 239.049 62.3005 238.516 62.1678C237.982 62.0617 237.449 61.8758 236.915 61.6105V69.7714H231.712V41.9047ZM240.637 45.7265C239.622 45.7265 238.822 45.9786 238.235 46.4828C237.675 46.9871 237.235 47.7434 236.915 48.752V57.0324C237.289 57.3243 237.689 57.5632 238.115 57.7489C238.569 57.9082 239.156 57.9878 239.876 57.9878C241.371 57.9878 242.491 57.4703 243.238 56.4352C243.985 55.3737 244.358 53.6353 244.358 51.2202C244.358 49.4686 244.065 48.115 243.478 47.1596C242.891 46.2042 241.944 45.7265 240.637 45.7265ZM259.928 53.5689H258.527V61.8095H253.325V41.9047H258.527V50.3842L259.768 49.8268L264.45 41.9047H270.013L265.171 49.4686L263.13 50.9813L265.371 52.5339L270.774 61.8095H264.811L259.928 53.5689Z" fill="white"/>
<path d="M178.226 55.4761C180.235 55.4761 181.864 53.8558 181.864 51.8571C181.864 49.8583 180.235 48.238 178.226 48.238C176.217 48.238 174.588 49.8583 174.588 51.8571C174.588 53.8558 176.217 55.4761 178.226 55.4761Z" fill="#F1C650"/>
</svg>
