<svg width="360" height="120" viewBox="0 0 360 120" fill="none" xmlns="http://www.w3.org/2000/svg">
<rect width="360" height="120" fill="#C71C36"/>

<path fill-rule="evenodd" clip-rule="evenodd" d="M137.542 34.6665L137.757 36.1915C130.903 50.0538 139.643 48.9253 139.643 48.9253L140.747 48.727L140.915 49.0625C157.153 47.2325 166.031 55.6353 166.031 55.6353C167.212 35.7493 137.542 34.6665 137.542 34.6665Z" fill="#F8B829"/>
<path d="M127.345 81.4993C126.655 86.0743 130.412 88.7277 131.01 87.2637C132.666 85.1135 133.249 85.7387 134.077 82.5057C134.379 82.1043 134.729 81.7407 135.119 81.423C135.958 80.5588 136.765 79.6743 137.542 78.7695C139.833 76.1914 141.791 73.3377 143.369 70.2752C145.119 67.1831 145.757 63.5898 145.178 60.0883C144.551 58.317 143.656 56.6509 142.525 55.1472C142.18 54.36 142.023 53.504 142.065 52.6462C142.027 51.3631 141.64 50.1141 140.946 49.032C140.587 48.6475 140.315 48.1919 140.146 47.6952C139.976 47.1985 139.915 46.6718 139.965 46.1498C140.164 44.9908 140.164 43.847 140.333 42.688C140.439 40.5223 140.04 38.3615 139.167 36.3745C139.167 36.3745 138.094 34.4835 137.143 34.9563C135.451 33.8904 133.483 33.336 131.48 33.3604C129.477 33.3848 127.524 33.9868 125.858 35.0935C125.858 35.0935 103.901 49.0473 123.696 75.8568C123.098 79.3338 125.229 82.9175 126.885 85.2965" fill="#005D86"/>
<path d="M137.45 50.8926L134.475 37.4116C134.475 37.4116 132.727 32.2266 128.127 38.7688L127.361 37.7623C123.129 43.7251 117.394 50.8773 118.667 58.6243C118.852 60.0543 119.348 61.4268 120.122 62.6463C120.895 63.8658 121.926 64.9028 123.144 65.6851C124.938 66.9244 127.111 67.5033 129.288 67.3225C131.465 67.1416 133.511 66.2121 135.073 64.6938C137.465 62.7113 139.413 58.6853 137.45 50.8926Z" fill="white"/>
<path fill-rule="evenodd" clip-rule="evenodd" d="M140.915 49.1083C140.915 49.1083 155.114 46.9123 166.031 55.681C166.031 55.681 155.758 42.2763 139.382 44.762C139.397 44.762 138.217 48.056 140.915 49.1083Z" fill="#F19320"/>
<path d="M166.031 55.6811C166.32 52.222 165.44 48.766 163.532 45.86C163.379 45.6618 162.198 48.2238 162.183 48.4526C162.12 49.5211 162.382 50.5838 162.934 51.5026C163.716 52.9361 165.617 54.1103 166.001 55.6505" fill="#E95253"/>
<path d="M112.533 75.0486C114.54 75.8082 116.73 75.9516 118.82 75.4603C121.749 75.8568 123.282 76.7718 126.778 77.1683C131.056 77.1683 135.303 76.7108 139.551 76.3143C140.931 76.1923 143.997 76.0246 145.163 77.1073C145.837 77.7326 145.638 79.4253 145.653 80.3098C143.119 79.3486 140.45 78.7828 137.741 78.6323C134.675 78.6323 131.501 78.7696 128.388 78.7391C126.265 78.7453 124.145 78.5616 122.055 78.1901C120.108 77.8241 118.191 77.3208 116.244 76.9243C114.833 76.6193 113.116 76.3753 112.533 75.0486Z" fill="#9B5F48"/>
<path d="M139.873 77.7935C139.873 78.2815 139.443 79.3185 139.045 79.3185C138.646 79.3185 138.217 78.2967 138.217 77.7935V76.0702C138.217 75.5822 138.523 75.0942 138.922 75.0942C139.163 75.1309 139.385 75.247 139.552 75.424C139.719 75.601 139.821 75.8286 139.842 76.0702L139.873 77.7935Z" fill="#969595"/>
<path d="M138.217 78.0375C138.217 78.4187 137.91 79.2117 137.588 79.2117C137.266 79.2117 136.959 78.4187 136.959 78.0375V76.6802C136.959 76.299 137.189 75.9177 137.511 75.9177C137.696 75.9462 137.864 76.0381 137.988 76.1774C138.111 76.3168 138.181 76.4947 138.186 76.6802L138.217 78.0375Z" fill="#838383"/>
<path d="M123.006 77.7935C123.006 78.2815 123.435 79.3185 123.834 79.3185C124.233 79.3185 124.662 78.2967 124.662 77.7935V76.0702C124.662 75.5822 124.355 75.0942 123.957 75.0942C123.716 75.1309 123.494 75.247 123.327 75.424C123.16 75.601 123.058 75.8286 123.037 76.0702L123.006 77.7935Z" fill="#969595"/>
<path d="M124.662 78.0375C124.662 78.4187 124.969 79.2117 125.291 79.2117C125.613 79.2117 125.919 78.4187 125.919 78.0375V76.6802C125.919 76.299 125.689 75.9177 125.367 75.9177C125.183 75.9462 125.014 76.0381 124.891 76.1774C124.768 76.3168 124.698 76.4947 124.693 76.6802L124.662 78.0375Z" fill="#838383"/>
<path d="M140.578 44.4571C140.946 43.5878 141.621 40.8886 139.75 36.2373C139.413 35.5206 138.569 33.8583 136.775 34.7123C136.515 35.1088 140.011 37.2896 139.29 44.9756C139.29 44.9756 138.385 48.1933 140.915 49.0931C140.539 48.3019 140.345 47.4369 140.348 46.5616C140.294 45.852 140.372 45.1387 140.578 44.4571ZM140.409 44.7621C140.409 44.7621 140.409 44.7621 140.425 44.7621H140.409Z" fill="#003B55"/>
<path d="M137.542 41.6205C138.217 45.2195 136.407 47.263 132.819 47.3087C130.059 47.3087 126.042 46.7292 125.659 43.3742C125.337 40.4615 127.192 36.5117 130.167 35.6272C134.291 34.3767 136.898 38.0825 137.557 41.6205H137.542Z" fill="#F8B829"/>
<path d="M135.349 41.3611C135.491 41.7847 135.521 42.2373 135.436 42.6757C135.351 43.114 135.155 43.5234 134.866 43.8647C134.577 44.2059 134.204 44.4676 133.784 44.6247C133.364 44.7818 132.91 44.829 132.467 44.7619C130.719 44.7619 128.281 44.3501 128.127 42.2304C128.045 41.2662 128.273 40.301 128.777 39.4735C129.281 38.646 130.036 37.9988 130.933 37.6249C133.402 36.9386 134.935 39.1499 135.303 41.3001L135.349 41.3611Z" fill="#005D86"/>
<path fill-rule="evenodd" clip-rule="evenodd" d="M134 40.9039C134 41.4721 133.773 42.0171 133.369 42.4189C132.965 42.8207 132.417 43.0465 131.846 43.0465C131.274 43.0465 130.726 42.8207 130.322 42.4189C129.918 42.0171 129.691 41.4721 129.691 40.9039C129.691 40.3356 129.918 39.7906 130.322 39.3888C130.726 38.987 131.274 38.7612 131.846 38.7612C132.417 38.7612 132.965 38.987 133.369 39.3888C133.773 39.7906 134 40.3356 134 40.9039Z" fill="#151410"/>
<path fill-rule="evenodd" clip-rule="evenodd" d="M132.145 39.5466C132.145 39.9278 131.807 39.5466 131.807 39.5466C131.807 39.5466 132.145 39.1501 132.145 39.5466Z" fill="white"/>
<path fill-rule="evenodd" clip-rule="evenodd" d="M130.933 39.5314C130.719 39.5314 130.673 39.7602 130.642 40.0042C130.584 40.026 130.532 40.0605 130.489 40.1051C130.447 40.1497 130.415 40.2032 130.396 40.2617C130.376 40.3202 130.371 40.3823 130.379 40.4432C130.387 40.5042 130.409 40.5626 130.443 40.6142C130.443 40.6142 131.485 39.6382 131.562 39.6992C131.475 39.6288 131.374 39.5775 131.266 39.5486C131.157 39.5197 131.044 39.5138 130.933 39.5314Z" fill="white"/>
<path d="M165.203 74.7131C165.324 74.7103 165.444 74.7333 165.555 74.7807C165.666 74.8281 165.766 74.8986 165.847 74.9876L167.657 76.9091C164.912 80.3861 159.653 81.1639 155.635 79.6846C153.638 78.8725 151.934 77.4807 150.744 75.6907C149.554 73.9007 148.934 71.7957 148.965 69.6501C148.8 67.4764 149.286 65.3026 150.361 63.4029C151.436 61.5032 153.053 59.9626 155.007 58.9751C157.023 58.0417 159.272 57.7217 161.471 58.0555C163.67 58.3892 165.72 59.3617 167.365 60.8509L165.832 62.9249C165.004 64.1144 163.731 62.8029 162.873 62.3911C161.599 61.8071 160.178 61.6159 158.794 61.8421C157.373 62.1344 156.094 62.8964 155.164 64.004C154.234 65.1116 153.708 66.4996 153.673 67.9421C153.447 69.309 153.579 70.7107 154.058 72.0117C154.536 73.3127 155.343 74.469 156.402 75.3689C157.612 76.175 159.052 76.5691 160.506 76.4921C161.96 76.4151 163.35 75.8712 164.467 74.9419C164.68 74.7858 164.939 74.7053 165.203 74.7131Z" fill="white"/>
<path d="M173.867 57.6177V80.0962H169.65V57.6177H173.867Z" fill="white"/>
<path d="M181.625 64.5566V80.1116H177.455V64.5566H181.625Z" fill="white"/>
<path d="M182.131 60.0426C182.131 63.2908 176.949 63.3061 176.949 60.0426C176.949 56.7791 182.131 56.7791 182.131 60.0426Z" fill="white"/>
<path d="M196.545 68.0184C195.885 68.9029 195.18 68.3539 194.444 68.0184C193.537 67.5089 192.475 67.3411 191.454 67.5457C189.338 68.0184 188.725 70.1687 188.663 72.1207C188.602 74.0727 189.016 76.2992 190.948 77.0769C191.44 77.264 191.965 77.3509 192.492 77.3326C193.019 77.3143 193.537 77.191 194.015 76.9702C194.766 76.6194 195.839 75.2927 196.621 76.3144L197.817 77.8394C196.737 78.9777 195.35 79.7828 193.822 80.1587C192.294 80.5346 190.689 80.4653 189.2 79.9592C187.732 79.3718 186.483 78.3472 185.623 77.0257C184.764 75.7042 184.337 74.1506 184.401 72.5782C184.257 70.9727 184.624 69.3631 185.45 67.9761C186.275 66.589 187.517 65.4944 189.001 64.8464C190.46 64.2867 192.05 64.1544 193.583 64.4652C195.115 64.776 196.526 65.5169 197.649 66.6002L196.545 68.0184Z" fill="white"/>
<path d="M204.073 57.6177V70.3819H204.763C204.973 70.3918 205.182 70.348 205.37 70.2545C205.558 70.161 205.719 70.0211 205.837 69.8482L209.287 65.2732C209.446 65.0498 209.657 64.8689 209.904 64.7465C210.15 64.6242 210.422 64.5641 210.697 64.5717H214.515L210.053 70.2142C209.724 70.6636 209.307 71.0422 208.827 71.3274C209.278 71.6693 209.654 72.1002 209.931 72.5932L214.761 80.0809H211.004C210.725 80.1005 210.447 80.0441 210.198 79.9178C209.95 79.7915 209.741 79.6 209.593 79.3642L206.067 73.6607C205.96 73.4633 205.797 73.3025 205.597 73.1991C205.397 73.0957 205.171 73.0546 204.947 73.0812H204.073V80.0962H199.933V57.6177H204.073Z" fill="white"/>
<path d="M220.618 57.6177V70.3819H221.308C221.518 70.3918 221.727 70.348 221.915 70.2545C222.103 70.161 222.263 70.0211 222.381 69.8482L225.831 65.2732C225.99 65.0498 226.202 64.8689 226.448 64.7465C226.694 64.6242 226.967 64.5641 227.242 64.5717H231.06L226.567 70.2447C226.238 70.6941 225.821 71.0727 225.341 71.3579C225.792 71.6998 226.168 72.1307 226.445 72.6237L231.275 80.1114H227.533C227.255 80.131 226.976 80.0746 226.728 79.9483C226.479 79.8219 226.27 79.6305 226.123 79.3947L222.611 73.6759C222.505 73.4786 222.341 73.3177 222.142 73.2143C221.942 73.111 221.716 73.0699 221.492 73.0964H220.618V80.1114H216.432V57.6177H220.618Z" fill="white"/>
<path d="M239.033 84.2749C238.926 84.5415 238.736 84.7669 238.49 84.9178C238.244 85.0688 237.956 85.1374 237.669 85.1136H234.602L237.515 78.8001L231.244 64.4956H234.909C235.157 64.4843 235.402 64.5502 235.611 64.6842C235.82 64.8181 235.982 65.0134 236.074 65.2429L239.049 72.7001C239.263 73.2898 239.447 73.8795 239.601 74.4691C239.785 73.8744 239.999 73.2796 240.229 72.6849L242.989 65.2581C243.081 65.0349 243.239 64.8443 243.441 64.711C243.643 64.5778 243.881 64.5081 244.124 64.5109H247.467L239.033 84.2749Z" fill="white"/>
</svg>
