<svg width="97" height="42" viewBox="0 0 97 42" fill="none" xmlns="http://www.w3.org/2000/svg">
<path d="M44.7188 8.79297L44.5781 9.0918C44.4727 9.30273 44.2793 9.56641 44.0332 9.86523C43.7871 10.1641 43.4707 10.4629 43.1191 10.7793C42.7676 11.0957 42.2578 11.3945 41.625 11.6758C40.9746 11.957 40.2715 12.1328 39.498 12.2207V15.6484H43.8223V34H49.2188V8.79297H44.7188ZM59.8535 21.3965C59.8535 18.7598 60.3809 16.7207 61.4531 15.2793C62.5078 13.8379 63.7734 13.1172 65.25 13.1172C66.709 13.1172 67.9746 13.8379 69.0469 15.2793C70.1016 16.7207 70.6465 18.7598 70.6465 21.3965C70.6465 24.0332 70.1016 26.0723 69.0469 27.5137C67.9746 28.9551 66.709 29.6758 65.25 29.6758C63.7734 29.6758 62.5078 28.9551 61.4531 27.5137C60.3809 26.0723 59.8535 24.0332 59.8535 21.3965ZM76.043 21.3965C76.043 17.459 74.9883 14.2949 72.8965 11.8867C70.7871 9.47852 68.2383 8.26562 65.25 8.26562C62.2441 8.26562 59.6953 9.47852 57.6035 11.8867C55.4941 14.2949 54.457 17.459 54.457 21.3965C54.457 25.334 55.4941 28.5156 57.6035 30.9238C59.6953 33.3496 62.2441 34.5449 65.25 34.5449C68.2383 34.5449 70.7871 33.3496 72.8965 30.9238C74.9883 28.5156 76.043 25.334 76.043 21.3965ZM89.543 31.8379V25.7207H95.6777V21.2207H89.543V15.1035H85.4121V21.2207H79.2949V25.7207H85.4121V31.8379H89.543Z" fill="url(#paint0_linear_106_3320)"/>
<path d="M27.1135 11.3055C26.9445 11.1375 26.7455 11.053 26.5155 11.053C26.401 11.053 26.1595 11.147 25.7925 11.3325C25.425 11.5185 25.035 11.7255 24.6245 11.9565C24.213 12.186 23.726 12.394 23.164 12.58C22.6025 12.7655 22.0825 12.8595 21.604 12.8595C21.162 12.8595 20.772 12.7755 20.436 12.607C19.3215 12.085 18.352 11.6955 17.529 11.4385C16.706 11.182 15.821 11.053 14.8735 11.053C13.2375 11.053 11.374 11.585 9.285 12.647C8.854 12.862 8.545 13.0285 8.345 13.1505L8.1465 11.695C8.595 11.3055 8.8845 10.738 8.8845 10.0975C8.8845 8.92399 7.9335 7.97299 6.76 7.97299C5.5865 7.97299 4.6355 8.92399 4.6355 10.0975C4.6355 10.863 5.0445 11.5285 5.6515 11.9025L8.5215 32.9475C8.607 33.574 9.143 34.0285 9.7585 34.0285C9.8145 34.0285 9.8715 34.025 9.929 34.0175C10.613 33.9235 11.092 33.294 10.9985 32.61L9.845 24.1515C11.938 23.113 13.7485 22.5895 15.2715 22.5895C15.918 22.5895 16.5485 22.686 17.163 22.881C17.778 23.0765 18.2895 23.2885 18.6965 23.518C19.1035 23.748 19.584 23.961 20.1365 24.155C20.69 24.35 21.2365 24.4475 21.776 24.4475C23.139 24.4475 24.7715 23.934 26.674 22.9075C26.913 22.7835 27.088 22.6615 27.1985 22.542C27.309 22.4225 27.3645 22.2525 27.3645 22.0315V11.903C27.3645 11.6735 27.281 11.474 27.1135 11.3055Z" fill="#F0145A"/>
<defs>
<linearGradient id="paint0_linear_106_3320" x1="38.4609" y1="11.76" x2="97.0698" y2="11.9459" gradientUnits="userSpaceOnUse">
<stop stop-color="#F0145A"/>
<stop offset="1" stop-color="#EF8080"/>
</linearGradient>
</defs>
</svg>
