<svg width="92" height="92" viewBox="0 0 92 92" fill="none" xmlns="http://www.w3.org/2000/svg">
<rect width="92" height="92" rx="24" fill="white"/>
<path d="M56.0057 70H37.0057V76H56.0057V70Z" fill="black"/>
<path d="M56.0057 70H37.0057V76H56.0057V70Z" fill="url(#paint0_linear_19787)"/>
<path d="M29.1727 16.4523L15.7376 29.8873L19.2732 33.4229L32.7082 19.9878L29.1727 16.4523Z" fill="black"/>
<path d="M29.1727 16.4523L15.7376 29.8873L19.2732 33.4229L32.7082 19.9878L29.1727 16.4523Z" fill="url(#paint1_linear_19787)"/>
<path d="M63.1127 16.3218L59.5771 19.8573L73.0122 33.2924L76.5477 29.7568L63.1127 16.3218Z" fill="black"/>
<path d="M63.1127 16.3218L59.5771 19.8573L73.0122 33.2924L76.5477 29.7568L63.1127 16.3218Z" fill="url(#paint2_linear_19787)"/>
<path d="M58.5563 23.7066L55.865 23.5925C55.089 23.483 54.2981 23.5553 53.5548 23.8037C52.8115 24.0522 52.1361 24.47 51.5819 25.0242L46.0774 30.5286L40.3239 24.7751C39.8243 24.287 39.2011 23.9445 38.5213 23.7843C37.8415 23.6241 37.1309 23.6524 36.466 23.8661C35.8388 24.0569 35.1715 24.0736 34.5355 23.9146C33.8994 23.7555 33.3186 23.4266 32.855 22.963L32.0011 22.1091L21.3945 32.7157L23.1225 34.4437L23.0084 37.1349C22.8988 37.911 22.9712 38.7019 23.2196 39.4452C23.468 40.1885 23.8858 40.8639 24.44 41.4181L34.0524 51.0305C34.1809 49.7687 34.7855 48.6033 35.7431 47.7716L32.7482 44.7767L33.4553 44.0696L36.5835 47.1978C37.0269 46.9454 37.5067 46.763 38.0059 46.6572V42.9633L36.2837 41.2411L36.9908 40.534L38.0059 41.5491V36.1992C37.9947 35.3149 38.3086 34.4573 38.8878 33.7891C39.4671 33.1209 40.2715 32.6886 41.1484 32.5742C41.4792 32.5421 41.8127 32.5572 42.1392 32.619L40.9097 31.3895L41.6169 30.6824L43.413 32.4786C43.7311 31.8622 44.2232 31.3528 44.8283 31.0136C45.4333 30.6744 46.1246 30.5202 46.8164 30.5703C47.6513 30.6678 48.4258 31.0543 49.0056 31.6629C49.5854 32.2715 49.9341 33.0637 49.9912 33.9023C50.5595 33.6322 51.1893 33.5176 51.8164 33.5703C52.7075 33.677 53.5272 34.1108 54.1165 34.7876C54.7059 35.4645 55.0228 36.3361 55.0058 37.2334V40.6572C55.9159 40.8473 56.755 41.2872 57.4291 41.9275C58.1031 42.5678 58.5855 43.3833 58.8219 44.2824L61.6105 41.4939L62.3176 42.201L59.0023 45.5163C59.0024 45.53 59.0059 45.5428 59.0059 45.5566V48.8767C59.9043 48.7827 60.7436 48.3845 61.3848 47.7482L68.2249 40.9081C68.713 40.4085 69.0556 39.7853 69.2157 39.1055C69.3759 38.4257 69.3475 37.7151 69.1338 37.0502C68.943 36.423 68.9263 35.7557 69.0854 35.1196C69.2445 34.4836 69.5734 33.9027 70.037 33.4391L70.8909 32.5853L60.2843 21.9786L58.5563 23.7066Z" fill="black"/>
<path d="M58.5563 23.7066L55.865 23.5925C55.089 23.483 54.2981 23.5553 53.5548 23.8037C52.8115 24.0522 52.1361 24.47 51.5819 25.0242L46.0774 30.5286L40.3239 24.7751C39.8243 24.287 39.2011 23.9445 38.5213 23.7843C37.8415 23.6241 37.1309 23.6524 36.466 23.8661C35.8388 24.0569 35.1715 24.0736 34.5355 23.9146C33.8994 23.7555 33.3186 23.4266 32.855 22.963L32.0011 22.1091L21.3945 32.7157L23.1225 34.4437L23.0084 37.1349C22.8988 37.911 22.9712 38.7019 23.2196 39.4452C23.468 40.1885 23.8858 40.8639 24.44 41.4181L34.0524 51.0305C34.1809 49.7687 34.7855 48.6033 35.7431 47.7716L32.7482 44.7767L33.4553 44.0696L36.5835 47.1978C37.0269 46.9454 37.5067 46.763 38.0059 46.6572V42.9633L36.2837 41.2411L36.9908 40.534L38.0059 41.5491V36.1992C37.9947 35.3149 38.3086 34.4573 38.8878 33.7891C39.4671 33.1209 40.2715 32.6886 41.1484 32.5742C41.4792 32.5421 41.8127 32.5572 42.1392 32.619L40.9097 31.3895L41.6169 30.6824L43.413 32.4786C43.7311 31.8622 44.2232 31.3528 44.8283 31.0136C45.4333 30.6744 46.1246 30.5202 46.8164 30.5703C47.6513 30.6678 48.4258 31.0543 49.0056 31.6629C49.5854 32.2715 49.9341 33.0637 49.9912 33.9023C50.5595 33.6322 51.1893 33.5176 51.8164 33.5703C52.7075 33.677 53.5272 34.1108 54.1165 34.7876C54.7059 35.4645 55.0228 36.3361 55.0058 37.2334V40.6572C55.9159 40.8473 56.755 41.2872 57.4291 41.9275C58.1031 42.5678 58.5855 43.3833 58.8219 44.2824L61.6105 41.4939L62.3176 42.201L59.0023 45.5163C59.0024 45.53 59.0059 45.5428 59.0059 45.5566V48.8767C59.9043 48.7827 60.7436 48.3845 61.3848 47.7482L68.2249 40.9081C68.713 40.4085 69.0556 39.7853 69.2157 39.1055C69.3759 38.4257 69.3475 37.7151 69.1338 37.0502C68.943 36.423 68.9263 35.7557 69.0854 35.1196C69.2445 34.4836 69.5734 33.9027 70.037 33.4391L70.8909 32.5853L60.2843 21.9786L58.5563 23.7066Z" fill="url(#paint3_linear_19787)"/>
<path d="M43.8804 35.6895C43.8044 35.0399 43.476 34.4462 42.966 34.0367C42.4559 33.6272 41.8053 33.4347 41.1546 33.5009C40.5234 33.588 39.9463 33.904 39.5329 34.3888C39.1194 34.8736 38.8986 35.4935 38.9124 36.1305V47.4879C37.8515 47.4879 36.8341 47.9093 36.0839 48.6594C35.3338 49.4096 34.9124 50.427 34.9124 51.4879V61.1613C34.9205 61.8597 35.1189 62.5426 35.4864 63.1365C35.8538 63.7304 36.3763 64.2129 36.9976 64.5319C37.576 64.8406 38.0597 65.3006 38.3969 65.8628C38.7342 66.425 38.9123 67.0683 38.9124 67.7239V68.9315H53.9124V66.4879L55.896 64.6655C56.5222 64.1942 57.0303 63.5838 57.3803 62.8825C57.7302 62.1812 57.9123 61.4082 57.9124 60.6245V45.4879C57.9124 44.427 57.4909 43.4096 56.7408 42.6594C55.9906 41.9093 54.9732 41.4879 53.9124 41.4879V37.1653C53.9293 36.518 53.7062 35.8874 53.286 35.3949C52.8657 34.9024 52.2781 34.5828 51.6362 34.4977C51.0063 34.442 50.3787 34.6279 49.8807 35.0177C49.3826 35.4074 49.0513 35.9719 48.9539 36.5967H49.4124V52.0401H48.4124V36.5967H48.9124V34.1653C48.9293 33.518 48.7062 32.8874 48.286 32.3949C47.8657 31.9024 47.2781 31.5828 46.6362 31.4977C46.2904 31.4666 45.942 31.508 45.613 31.619C45.2841 31.73 44.9819 31.9084 44.7256 32.1426C44.4694 32.3769 44.2647 32.6619 44.1247 32.9796C43.9847 33.2973 43.9124 33.6407 43.9124 33.9879V35.6895H44.4124V51.1329H43.4124V35.6895H43.8804ZM39.3115 56.0401H38.3115V48.0401H39.3115V56.0401ZM53.4124 41.7983H54.4124V52.2417H53.4124V41.7983Z" fill="black"/>
<path d="M43.8804 35.6895C43.8044 35.0399 43.476 34.4462 42.966 34.0367C42.4559 33.6272 41.8053 33.4347 41.1546 33.5009C40.5234 33.588 39.9463 33.904 39.5329 34.3888C39.1194 34.8736 38.8986 35.4935 38.9124 36.1305V47.4879C37.8515 47.4879 36.8341 47.9093 36.0839 48.6594C35.3338 49.4096 34.9124 50.427 34.9124 51.4879V61.1613C34.9205 61.8597 35.1189 62.5426 35.4864 63.1365C35.8538 63.7304 36.3763 64.2129 36.9976 64.5319C37.576 64.8406 38.0597 65.3006 38.3969 65.8628C38.7342 66.425 38.9123 67.0683 38.9124 67.7239V68.9315H53.9124V66.4879L55.896 64.6655C56.5222 64.1942 57.0303 63.5838 57.3803 62.8825C57.7302 62.1812 57.9123 61.4082 57.9124 60.6245V45.4879C57.9124 44.427 57.4909 43.4096 56.7408 42.6594C55.9906 41.9093 54.9732 41.4879 53.9124 41.4879V37.1653C53.9293 36.518 53.7062 35.8874 53.286 35.3949C52.8657 34.9024 52.2781 34.5828 51.6362 34.4977C51.0063 34.442 50.3787 34.6279 49.8807 35.0177C49.3826 35.4074 49.0513 35.9719 48.9539 36.5967H49.4124V52.0401H48.4124V36.5967H48.9124V34.1653C48.9293 33.518 48.7062 32.8874 48.286 32.3949C47.8657 31.9024 47.2781 31.5828 46.6362 31.4977C46.2904 31.4666 45.942 31.508 45.613 31.619C45.2841 31.73 44.9819 31.9084 44.7256 32.1426C44.4694 32.3769 44.2647 32.6619 44.1247 32.9796C43.9847 33.2973 43.9124 33.6407 43.9124 33.9879V35.6895H44.4124V51.1329H43.4124V35.6895H43.8804ZM39.3115 56.0401H38.3115V48.0401H39.3115V56.0401ZM53.4124 41.7983H54.4124V52.2417H53.4124V41.7983Z" fill="url(#paint4_linear_19787)"/>
<defs>
<linearGradient id="paint0_linear_19787" x1="46.5057" y1="70" x2="46.5057" y2="76" gradientUnits="userSpaceOnUse">
<stop stop-color="#EF8080"/>
<stop offset="1" stop-color="#F0145A"/>
</linearGradient>
<linearGradient id="paint1_linear_19787" x1="22.4551" y1="23.1698" x2="25.9907" y2="26.7053" gradientUnits="userSpaceOnUse">
<stop stop-color="#EF8080"/>
<stop offset="1" stop-color="#F0145A"/>
</linearGradient>
<linearGradient id="paint2_linear_19787" x1="61.3449" y1="18.0895" x2="74.78" y2="31.5246" gradientUnits="userSpaceOnUse">
<stop stop-color="#EF8080"/>
<stop offset="1" stop-color="#F0145A"/>
</linearGradient>
<linearGradient id="paint3_linear_19787" x1="46.1427" y1="21.9786" x2="46.1427" y2="51.0305" gradientUnits="userSpaceOnUse">
<stop stop-color="#EF8080"/>
<stop offset="1" stop-color="#F0145A"/>
</linearGradient>
<linearGradient id="paint4_linear_19787" x1="46.4124" y1="31.4877" x2="46.4124" y2="68.9315" gradientUnits="userSpaceOnUse">
<stop stop-color="#EF8080"/>
<stop offset="1" stop-color="#F0145A"/>
</linearGradient>
</defs>
</svg>
