<svg width="413" height="63" viewBox="0 0 413 63" fill="none" xmlns="http://www.w3.org/2000/svg">
<g clip-path="url(#clip0_103_6855)">
<path d="M10.3513 58.0913C10.3513 56.9799 9.9699 56.0429 9.21807 55.2692C8.46624 54.4956 7.55097 54.1143 6.48316 54.1143C5.51341 54.1143 4.67441 54.4193 3.96617 55.0404C3.26882 55.6506 2.83298 56.3915 2.66953 57.2741H1.63441V54.2777H0V61.9049H1.63441V58.7996H2.66953C2.83298 59.7257 3.26882 60.5102 3.96617 61.1313C4.66351 61.7524 5.50251 62.0684 6.48316 62.0684C7.55097 62.0684 8.46624 61.687 9.21807 60.9134C9.9699 60.1507 10.3513 59.2027 10.3513 58.0913ZM8.71685 58.0913C8.71685 58.8105 8.49893 59.4097 8.06309 59.8783C7.61635 60.3577 7.09334 60.5974 6.48316 60.5974C5.87298 60.5974 5.34997 60.3577 4.91412 59.8783C4.46738 59.4097 4.24946 58.8105 4.24946 58.0913C4.24946 57.3722 4.46738 56.7729 4.91412 56.2935C5.34997 55.8249 5.87298 55.5852 6.48316 55.5852C7.09334 55.5852 7.61635 55.8249 8.06309 56.2935C8.49893 56.7729 8.71685 57.3722 8.71685 58.0913Z" fill="white"/>
<path d="M12.9603 54.2783V61.9056H14.5947V59.3995H16.1746C16.9591 59.3995 17.6129 59.1489 18.125 58.6585C18.6371 58.1682 18.8986 57.558 18.8986 56.8389C18.8986 56.1089 18.6371 55.5096 18.125 55.0084C17.602 54.518 16.9591 54.2783 16.1746 54.2783H12.9603ZM16.1201 55.7493C16.447 55.7493 16.7194 55.8582 16.9373 56.0653C17.1553 56.2723 17.2642 56.5338 17.2642 56.8389C17.2642 57.144 17.1553 57.4055 16.9373 57.6125C16.7194 57.8195 16.447 57.9285 16.1201 57.9285H14.5947V55.7493H16.1201Z" fill="white"/>
<path d="M28.2618 61.9056V54.2783H26.8453L23.0862 59.1271V54.2783H21.4518V61.9056H22.8683L26.6274 57.0568V61.9056H28.2618Z" fill="white"/>
<path d="M30.3245 60.4346V63.4855H31.959V61.9056H36.5353V63.4855H38.1697V60.4346H37.2435V54.2783H31.959V56.621C31.959 57.1331 31.9154 57.6125 31.8282 58.0593C31.741 58.5169 31.643 58.8765 31.5449 59.1489C31.4359 59.4104 31.3161 59.6501 31.1744 59.8789C31.0328 60.0968 30.9456 60.2385 30.8911 60.3038C30.8258 60.3583 30.7931 60.4128 30.7604 60.4346H30.3245ZM33.5934 56.621V55.7493H35.6091V60.4346H32.3948L32.5256 60.3038C32.6018 60.2167 32.6999 60.075 32.8197 59.868C32.9396 59.661 33.0486 59.4213 33.1684 59.1489C33.2883 58.8765 33.3863 58.506 33.4626 58.0593C33.5498 57.6125 33.5934 57.1331 33.5934 56.621Z" fill="white"/>
<path d="M47.3114 61.9056V54.2783H45.8949L42.1358 59.1271V54.2783H40.5014V61.9056H41.9178L45.677 57.0568V61.9056H47.3114Z" fill="white"/>
<path d="M51.8817 54.2783H50.2473V56.621C50.2473 57.5362 50.487 58.2445 50.9665 58.7457C51.4568 59.2578 52.1214 59.5084 52.9713 59.5084C53.7014 59.5084 54.3007 59.3668 54.7692 59.0726V61.9056H56.4036V54.2783H54.7692V57.4927L54.5839 57.6343C54.4641 57.7215 54.2789 57.8086 54.0282 57.9067C53.7776 57.9939 53.5161 58.0375 53.2437 58.0375C52.8079 58.0375 52.4701 57.9176 52.2304 57.6779C52.0016 57.4273 51.8817 57.0786 51.8817 56.621V54.2783Z" fill="white"/>
<path d="M65.9856 54.2783H64.3512V57.3292H61.0824V54.2783H59.448V61.9056H61.0824V58.8002H64.3512V61.9056H65.9856V54.2783Z" fill="white"/>
<path d="M72.9549 58.6912H71.1026L72.0288 56.1851L72.9549 58.6912ZM73.4997 60.1077L74.1535 61.9056H75.8969L72.9004 54.2783H71.1571L68.1606 61.9056H69.904L70.5578 60.1077H73.4997Z" fill="white"/>
<path d="M83.0222 54.2783H81.3878V61.9056H83.0222V59.7263L84.0029 58.6367L86.2366 61.9056H88.1434L85.0925 57.4382L87.9255 54.2783H86.0187L83.0222 57.6016V54.2783Z" fill="white"/>
<path d="M91.4614 58.0913C91.4614 57.394 91.7012 56.7947 92.1806 56.3153C92.6491 55.8249 93.2266 55.5852 93.9131 55.5852C94.5995 55.5852 95.177 55.8249 95.6455 56.3153C96.125 56.7947 96.3647 57.394 96.3647 58.0913C96.3647 58.7996 96.125 59.388 95.6455 59.8674C95.177 60.3577 94.5995 60.5974 93.9131 60.5974C93.2266 60.5974 92.6491 60.3577 92.1806 59.8674C91.7012 59.388 91.4614 58.7996 91.4614 58.0913ZM89.7726 58.0913C89.7726 59.1809 90.1757 60.1289 90.9711 60.9025C91.7665 61.6761 92.7472 62.0684 93.9131 62.0684C95.0789 62.0684 96.0596 61.6761 96.855 60.9025C97.6504 60.1289 98.0536 59.1809 98.0536 58.0913C98.0536 56.9908 97.6504 56.0538 96.855 55.2801C96.0596 54.5065 95.0789 54.1143 93.9131 54.1143C92.7472 54.1143 91.7665 54.5065 90.9711 55.2801C90.1757 56.0538 89.7726 56.9908 89.7726 58.0913Z" fill="white"/>
<path d="M104.748 57.6016L102.133 54.2783H100.662V61.9056H102.297V56.8389L104.748 59.9443L107.2 56.8171V61.9056H108.834V54.2783H107.385L104.748 57.6016Z" fill="white"/>
<path d="M118.359 54.2783H111.876V61.9056H113.511V55.7493H116.725V61.9056H118.359V54.2783Z" fill="white"/>
<path d="M125.33 58.6912H123.477L124.404 56.1851L125.33 58.6912ZM125.875 60.1077L126.528 61.9056H128.272L125.275 54.2783H123.532L120.536 61.9056H122.279L122.933 60.1077H125.875Z" fill="white"/>
<path d="M136.983 54.2783H135.349V57.3292H132.08V54.2783H130.445V61.9056H132.08V58.8002H135.349V61.9056H136.983V54.2783Z" fill="white"/>
<path d="M141.662 54.2783H140.027V61.9056H141.662V54.2783Z" fill="white"/>
<path d="M150.373 54.2783H146.995C146.232 54.2783 145.611 54.518 145.121 54.9975C144.63 55.4769 144.38 56.0762 144.38 56.7844C144.38 57.0895 144.434 57.3728 144.521 57.6452C144.619 57.9176 144.728 58.1246 144.859 58.2772C144.979 58.4297 145.11 58.5714 145.273 58.7021C145.426 58.8329 145.535 58.92 145.6 58.9527C145.655 58.9745 145.709 59.0072 145.742 59.0181L144.107 61.9056H145.851L147.322 59.236H148.738V61.9056H150.373V54.2783ZM146.014 56.7844C146.014 56.4793 146.112 56.2396 146.308 56.0435C146.504 55.8474 146.755 55.7493 147.049 55.7493H148.738V57.7651H147.049C146.755 57.7651 146.504 57.667 146.308 57.4818C146.112 57.2965 146.014 57.0568 146.014 56.7844Z" fill="white"/>
<path d="M4.98113 1H0V36.9749H4.98113V23.6286C4.98113 21.3707 5.54273 19.5895 6.66593 18.3352C7.78912 17.0808 9.32741 16.4286 11.232 16.4286C12.8679 16.4286 14.2353 17.0307 15.3341 18.1847C16.4329 19.3638 16.9944 20.8439 16.9944 22.6251V37H22V22.6251C22 19.3136 21.0966 16.7045 19.2897 14.7477C17.4828 12.7909 15.1143 11.8125 12.2331 11.8125C11.4029 11.8125 10.5727 11.9129 9.76693 12.1387C8.93674 12.3645 8.27747 12.6153 7.74029 12.8913C7.20311 13.1672 6.69034 13.4683 6.22642 13.8195C5.76249 14.1707 5.44506 14.4216 5.29856 14.5721C5.15205 14.7226 5.02997 14.823 4.98113 14.8983V1Z" fill="#F0145A"/>
<path d="M33.135 1H28V36.945H33.135V1Z" fill="white"/>
<path d="M63.4222 26.418L63.6789 23.8505C63.6789 20.41 62.5492 17.5344 60.2385 15.2237C57.9277 12.9129 55.0521 11.7832 51.6117 11.7832C48.1712 11.7832 45.1929 13.0156 42.7281 15.4804C40.2633 17.9452 39.0309 20.8722 39.0309 24.364C39.0309 27.9585 40.3147 31.0395 42.8308 33.607C45.347 36.1745 48.3766 37.4582 51.8684 37.4582C53.2035 37.4582 54.4359 37.2528 55.6683 36.8934C56.9007 36.4826 57.9277 36.0718 58.6466 35.661C59.4169 35.1988 60.1871 34.6853 60.8547 34.1205C61.5222 33.5556 61.9844 33.1448 62.1898 32.8881C62.3952 32.6313 62.5492 32.4773 62.6519 32.3232L59.3142 28.9855L58.5439 29.9611C58.0304 30.5773 57.1575 31.1935 55.9251 31.8611C54.6413 32.5286 53.3062 32.8367 51.8684 32.8367C49.8658 32.8367 48.1712 32.2205 46.7334 30.9368C45.2956 29.653 44.4227 28.1639 44.1659 26.418H63.4222ZM51.6117 16.148C53.5116 16.148 55.0521 16.7128 56.3359 17.7912C57.5683 18.9209 58.3385 20.3073 58.6466 22.0532H44.3713C44.8335 20.3073 45.6551 18.9209 46.9388 17.7912C48.1712 16.7128 49.7631 16.148 51.6117 16.148Z" fill="white"/>
<path d="M87.3712 35.4556C87.3712 37.715 86.7037 39.5636 85.3172 41.0014C83.9821 42.3878 82.2876 43.1067 80.1822 43.1067C79.2579 43.1067 78.3336 42.9527 77.4607 42.6959C76.5877 42.4392 75.9202 42.1311 75.3553 41.7716C74.7905 41.4122 74.277 41.0527 73.7635 40.5906C73.3013 40.1284 72.9932 39.8203 72.8392 39.6663C72.6851 39.5122 72.5824 39.3582 72.4797 39.2555L69.142 42.5932L69.5528 43.1067C69.8095 43.4662 70.2717 43.9283 70.8879 44.4418C71.5041 44.904 72.223 45.4175 73.0446 45.931C73.8662 46.3931 74.8932 46.8039 76.1769 47.1634C77.4607 47.5228 78.7958 47.7282 80.1822 47.7282C83.674 47.7282 86.5496 46.5472 88.9631 44.1851C91.3252 41.7716 92.5062 38.896 92.5062 35.4042V12.2967H87.3712V14.8642L86.4983 14.094C85.9334 13.5805 85.0605 13.067 83.8281 12.5535C82.5957 12.04 81.2606 11.7832 79.9255 11.7832C76.7931 11.7832 74.1229 12.9643 71.8122 15.3777C69.5014 17.7912 68.3717 20.6668 68.3717 24.1072C68.3717 27.5477 69.5014 30.4233 71.8122 32.8367C74.1229 35.2502 76.7931 36.4312 79.9255 36.4312C80.7984 36.4312 81.62 36.3285 82.493 36.1231C83.3146 35.8664 83.9821 35.6096 84.547 35.3529C85.1118 35.0961 85.6253 34.788 86.0875 34.4286C86.5496 34.0691 86.9091 33.8124 87.0118 33.7097L87.3712 33.3502V35.4556ZM73.5067 24.1072C73.5067 21.9505 74.1743 20.1533 75.5607 18.6641C76.9472 17.175 78.5904 16.4047 80.439 16.4047C82.2876 16.4047 83.9308 17.175 85.3172 18.6641C86.6523 20.1533 87.3712 21.9505 87.3712 24.1072C87.3712 26.2639 86.6523 28.0612 85.3172 29.5503C83.9308 31.0395 82.2876 31.8097 80.439 31.8097C78.5904 31.8097 76.9472 31.0395 75.5607 29.5503C74.1743 28.0612 73.5067 26.2639 73.5067 24.1072Z" fill="white"/>
<path d="M119.309 36.9447V21.0262C119.309 18.4074 118.333 16.1993 116.433 14.4534C114.533 12.6562 112.068 11.7832 109.039 11.7832C107.858 11.7832 106.677 11.9373 105.547 12.2454C104.417 12.6048 103.493 12.9643 102.825 13.3751C102.158 13.7859 101.49 14.248 100.874 14.8129C100.258 15.3264 99.8985 15.6858 99.6931 15.8912C99.539 16.0966 99.385 16.2507 99.2823 16.4047L102.62 19.7425L103.288 18.8695C103.698 18.3047 104.417 17.7912 105.496 17.2263C106.574 16.6615 107.755 16.4047 109.039 16.4047C110.528 16.4047 111.76 16.8669 112.736 17.7398C113.712 18.6128 114.174 19.7425 114.174 21.0262L105.188 22.5667C102.979 22.9262 101.182 23.7991 99.9498 25.1856C98.6661 26.572 97.9985 28.2666 97.9985 30.2692C97.9985 32.1692 98.8201 33.8124 100.463 35.2502C102.158 36.7393 104.212 37.4582 106.728 37.4582C107.601 37.4582 108.423 37.3555 109.244 37.0988C110.117 36.8934 110.785 36.6366 111.35 36.3799C111.914 36.1231 112.428 35.815 112.89 35.4556C113.352 35.0961 113.66 34.8394 113.866 34.7367C114.02 34.5826 114.122 34.4286 114.174 34.3772V36.9447H119.309ZM107.498 32.8367C106.163 32.8367 105.085 32.5286 104.315 31.9124C103.493 31.2962 103.134 30.5773 103.134 29.7557C103.134 28.8828 103.39 28.1125 103.955 27.5477C104.52 26.9828 105.29 26.572 106.215 26.418L114.174 25.1342V25.6477C114.174 27.9585 113.609 29.7044 112.428 30.9881C111.247 32.2205 109.604 32.8367 107.498 32.8367Z" fill="white"/>
<path d="M130.64 1H125.505V36.945H130.64V1Z" fill="white"/>
<path d="M153.989 15.121L153.681 14.7615C153.475 14.5561 153.167 14.2994 152.705 13.9399C152.243 13.5805 151.729 13.2724 151.165 12.9129C150.6 12.6048 149.829 12.3481 148.905 12.0913C147.981 11.8859 147.005 11.7832 146.03 11.7832C143.513 11.7832 141.459 12.5021 139.816 13.9399C138.122 15.4291 137.3 17.0723 137.3 18.9722C137.3 20.3587 137.608 21.4884 138.224 22.5154C138.841 23.491 139.611 24.2099 140.586 24.6207C141.511 25.0829 142.538 25.545 143.616 25.9045C144.694 26.2639 145.67 26.572 146.646 26.8288C147.57 27.1369 148.34 27.4963 148.957 27.9585C149.573 28.4206 149.881 29.0368 149.881 29.7557C149.881 30.68 149.521 31.4503 148.854 32.0151C148.186 32.5286 147.159 32.8367 145.773 32.8367C144.643 32.8367 143.513 32.5286 142.435 32.0151C141.357 31.4503 140.689 30.9881 140.33 30.6287C140.022 30.2692 139.765 29.9611 139.611 29.7557L136.273 33.0935L136.633 33.5556C136.889 33.8637 137.249 34.2232 137.762 34.634C138.327 35.0961 138.943 35.5069 139.611 35.9177C140.33 36.3285 141.254 36.688 142.332 36.9961C143.411 37.3042 144.592 37.4582 145.773 37.4582C148.494 37.4582 150.754 36.688 152.448 35.1988C154.143 33.7097 155.016 31.8611 155.016 29.7557C155.016 28.3693 154.708 27.1882 154.092 26.2639C153.475 25.2883 152.705 24.5694 151.729 24.1072C150.805 23.5937 149.778 23.1829 148.7 22.8235C147.621 22.464 146.646 22.1046 145.67 21.8992C144.746 21.6424 143.976 21.2316 143.359 20.7695C142.743 20.3073 142.435 19.6911 142.435 18.9722C142.435 18.3047 142.743 17.6885 143.411 17.175C144.027 16.6615 144.9 16.4047 146.03 16.4047C146.851 16.4047 147.673 16.6101 148.443 16.9696C149.265 17.329 149.829 17.6371 150.086 17.8939C150.343 18.1506 150.548 18.356 150.651 18.4587L153.989 15.121Z" fill="white"/>
<path d="M196.957 37H199.629V18.7607H183.857V37H186.511V21.2656H196.957V37ZM220.336 27.8896C220.336 29.8564 219.668 31.5264 218.369 32.8809C217.07 34.2354 215.493 34.9033 213.675 34.9033C211.856 34.9033 210.279 34.2354 208.98 32.8623C207.682 31.4893 207.032 29.8379 207.032 27.8711C207.032 25.9043 207.682 24.2529 208.98 22.8984C210.279 21.5439 211.856 20.8574 213.675 20.8574C215.493 20.8574 217.07 21.5439 218.369 22.8984C219.668 24.2529 220.336 25.9229 220.336 27.8896ZM204.379 27.8896C204.379 30.5615 205.27 32.8066 207.088 34.6436C208.906 36.4619 211.096 37.3896 213.693 37.3896C216.272 37.3896 218.462 36.4619 220.262 34.6436C222.08 32.8066 222.971 30.5615 222.971 27.8896C222.971 25.2178 222.08 22.9727 220.262 21.1357C218.462 19.2988 216.272 18.3711 213.693 18.3711C211.096 18.3711 208.906 19.2988 207.088 21.1357C205.27 22.9727 204.379 25.2178 204.379 27.8896ZM226.422 27.8711C226.422 30.5059 227.312 32.751 229.112 34.6064C230.894 36.4619 233.046 37.3711 235.532 37.3711C236.423 37.3711 237.295 37.2412 238.148 36.9629C239.002 36.6846 239.707 36.3877 240.245 36.0537C240.802 35.7197 241.321 35.3486 241.804 34.9219C242.305 34.4951 242.639 34.1982 242.787 34.0127C242.936 33.8271 243.047 33.6973 243.121 33.5859L241.229 31.8789L240.616 32.6211C240.189 33.1406 239.503 33.6416 238.557 34.1426C237.592 34.6621 236.59 34.9033 235.532 34.9033C233.788 34.9033 232.267 34.2354 230.986 32.8809C229.706 31.5264 229.075 29.8564 229.075 27.8896C229.075 25.9229 229.706 24.2529 230.986 22.8984C232.267 21.5439 233.788 20.8574 235.532 20.8574C236.219 20.8574 236.887 20.9688 237.518 21.1729C238.148 21.3955 238.649 21.6367 239.058 21.8965C239.447 22.1562 239.818 22.4717 240.152 22.8242C240.486 23.1953 240.709 23.4365 240.802 23.5664C240.913 23.7148 240.987 23.8076 241.024 23.8818L242.936 21.9893L242.138 21.1172C241.618 20.5234 240.728 19.9111 239.503 19.2988C238.278 18.6865 236.942 18.3711 235.514 18.3711C233.046 18.3711 230.912 19.2988 229.112 21.1543C227.312 23.0098 226.422 25.2363 226.422 27.8711ZM249.207 18.7607V24.0859C249.207 27.0732 249.04 29.374 248.743 30.9883C248.446 32.584 248.075 33.623 247.63 34.0684C247.185 34.5137 246.572 34.7363 245.793 34.7363C245.273 34.7363 244.772 34.6064 244.271 34.3652V37.0186L244.531 37.0928C244.68 37.167 244.902 37.2227 245.218 37.2969C245.533 37.3525 245.849 37.3896 246.164 37.3896C247.073 37.3896 247.853 37.2041 248.502 36.833C249.133 36.4619 249.727 35.8125 250.265 34.8848C250.784 33.957 251.192 32.584 251.452 30.8027C251.712 29.0215 251.86 26.7764 251.86 24.1045V21.2471H259.839V37.0186H262.511V18.7793L249.207 18.7607ZM272.567 39.6533C271.881 41.5645 270.73 42.5107 269.116 42.5107C268.485 42.5107 267.854 42.3809 267.224 42.1211V44.6074L267.483 44.6816C267.669 44.7559 267.966 44.8301 268.337 44.8857C268.708 44.96 269.098 44.9785 269.506 44.9785C270.823 44.9785 271.918 44.5889 272.79 43.7725C273.644 42.9561 274.46 41.583 275.221 39.6533L283.589 18.7607H280.731L274.85 33.5859L268.949 18.7607H266.092L273.514 37L272.567 39.6533ZM299.36 18.7607H287.207V37H289.86V21.2285H299.36V18.7607ZM316.468 18.7607L305.446 32.4355V18.7607H302.793V37H305.057L316.078 23.3252V37H318.75V18.7607H316.468Z" fill="white"/>
<path fill-rule="evenodd" clip-rule="evenodd" d="M353.258 27.1454H341.329L346.585 11.1538L352.532 11.189L349.079 21.7352L355.008 21.7387L353.258 27.1454Z" fill="url(#paint0_linear_103_6855)"/>
<path fill-rule="evenodd" clip-rule="evenodd" d="M328.904 47.9044H323C323 47.9044 333.754 14.794 336.266 7.06476C337.441 3.44844 340.809 1 344.609 1H355.165C358.348 1 361.005 2.34505 362.657 4.61793C364.307 6.89094 364.776 9.79933 363.813 12.7664C362.849 15.7334 361.939 18.5342 361.105 21.1004C359.98 24.5654 356.863 26.953 353.259 27.1471C353.259 27.1471 353.24 27.1411 358.29 11.5924C358.736 10.2203 358.573 8.8772 357.873 7.91395C357.173 6.95083 355.993 6.3808 354.432 6.3808H345.374C343.596 6.3808 342.02 7.52656 341.47 9.21887L328.904 47.9044Z" fill="#F0145A"/>
<path fill-rule="evenodd" clip-rule="evenodd" d="M175.227 1H181.071L165.845 47.8434H160L175.227 1Z" fill="#F0145A"/>
</g>
<defs>
<linearGradient id="paint0_linear_103_6855" x1="341.328" y1="24.0824" x2="354.6" y2="31.0168" gradientUnits="userSpaceOnUse">
<stop stop-color="#F0145A"/>
<stop offset="1" stop-color="#693264"/>
</linearGradient>
<clipPath id="clip0_103_6855">
<rect width="413" height="63" fill="white"/>
</clipPath>
</defs>
</svg>
