<svg width="433" height="63" viewBox="0 0 433 63" fill="none" xmlns="http://www.w3.org/2000/svg">
<g clip-path="url(#clip0_106_1290)">
<path d="M10.3513 58.0912C10.3513 56.9798 9.9699 56.0428 9.21807 55.2691C8.46624 54.4955 7.55097 54.1142 6.48316 54.1142C5.51341 54.1142 4.67441 54.4192 3.96617 55.0403C3.26882 55.6505 2.83298 56.3914 2.66953 57.274H1.63441V54.2776H0V61.9048H1.63441V58.7995H2.66953C2.83298 59.7256 3.26882 60.5101 3.96617 61.1312C4.66351 61.7523 5.50251 62.0683 6.48316 62.0683C7.55097 62.0683 8.46624 61.6869 9.21807 60.9133C9.9699 60.1506 10.3513 59.2026 10.3513 58.0912ZM8.71685 58.0912C8.71685 58.8104 8.49893 59.4096 8.06309 59.8782C7.61635 60.3576 7.09334 60.5973 6.48316 60.5973C5.87298 60.5973 5.34997 60.3576 4.91412 59.8782C4.46738 59.4096 4.24946 58.8104 4.24946 58.0912C4.24946 57.3721 4.46738 56.7728 4.91412 56.2934C5.34997 55.8248 5.87298 55.5851 6.48316 55.5851C7.09334 55.5851 7.61635 55.8248 8.06309 56.2934C8.49893 56.7728 8.71685 57.3721 8.71685 58.0912Z" fill="#46466E"/>
<path d="M12.96 54.2781V61.9054H14.5944V59.3993H16.1743C16.9588 59.3993 17.6126 59.1487 18.1247 58.6583C18.6368 58.168 18.8983 57.5578 18.8983 56.8387C18.8983 56.1087 18.6368 55.5094 18.1247 55.0082C17.6017 54.5178 16.9588 54.2781 16.1743 54.2781H12.96ZM16.1198 55.7491C16.4467 55.7491 16.7191 55.858 16.937 56.0651C17.1549 56.2721 17.2639 56.5336 17.2639 56.8387C17.2639 57.1438 17.1549 57.4053 16.937 57.6123C16.7191 57.8193 16.4467 57.9283 16.1198 57.9283H14.5944V55.7491H16.1198Z" fill="#46466E"/>
<path d="M28.2622 61.9054V54.2781H26.8457L23.0866 59.1269V54.2781H21.4521V61.9054H22.8686L26.6278 57.0566V61.9054H28.2622Z" fill="#46466E"/>
<path d="M30.3242 60.4344V63.4853H31.9586V61.9054H36.535V63.4853H38.1694V60.4344H37.2432V54.2781H31.9586V56.6208C31.9586 57.1329 31.915 57.6123 31.8279 58.0591C31.7407 58.5167 31.6426 58.8763 31.5446 59.1487C31.4356 59.4102 31.3158 59.6499 31.1741 59.8787C31.0325 60.0966 30.9453 60.2383 30.8908 60.3036C30.8254 60.3581 30.7927 60.4126 30.7601 60.4344H30.3242ZM33.593 56.6208V55.7491H35.6088V60.4344H32.3945L32.5252 60.3036C32.6015 60.2165 32.6996 60.0748 32.8194 59.8678C32.9393 59.6608 33.0482 59.4211 33.1681 59.1487C33.2879 58.8763 33.386 58.5058 33.4623 58.0591C33.5495 57.6123 33.593 57.1329 33.593 56.6208Z" fill="#46466E"/>
<path d="M47.311 61.9054V54.2781H45.8945L42.1354 59.1269V54.2781H40.501V61.9054H41.9175L45.6766 57.0566V61.9054H47.311Z" fill="#46466E"/>
<path d="M51.8815 54.2781H50.2471V56.6208C50.2471 57.536 50.4868 58.2443 50.9662 58.7455C51.4565 59.2576 52.1212 59.5082 52.9711 59.5082C53.7011 59.5082 54.3004 59.3666 54.7689 59.0724V61.9054H56.4033V54.2781H54.7689V57.4925L54.5837 57.6341C54.4638 57.7213 54.2786 57.8084 54.028 57.9065C53.7774 57.9937 53.5159 58.0373 53.2435 58.0373C52.8076 58.0373 52.4699 57.9174 52.2302 57.6777C52.0013 57.4271 51.8815 57.0784 51.8815 56.6208V54.2781Z" fill="#46466E"/>
<path d="M65.9859 54.2781H64.3515V57.329H61.0827V54.2781H59.4482V61.9054H61.0827V58.8H64.3515V61.9054H65.9859V54.2781Z" fill="#46466E"/>
<path d="M72.9544 58.691H71.1021L72.0283 56.1849L72.9544 58.691ZM73.4992 60.1075L74.153 61.9054H75.8964L72.8999 54.2781H71.1566L68.1602 61.9054H69.9035L70.5573 60.1075H73.4992Z" fill="#46466E"/>
<path d="M83.0221 54.2781H81.3877V61.9054H83.0221V59.7262L84.0027 58.6365L86.2364 61.9054H88.1432L85.0924 57.438L87.9253 54.2781H86.0185L83.0221 57.6014V54.2781Z" fill="#46466E"/>
<path d="M91.4614 58.0912C91.4614 57.3939 91.7011 56.7946 92.1805 56.3152C92.649 55.8248 93.2265 55.5851 93.913 55.5851C94.5994 55.5851 95.1769 55.8248 95.6454 56.3152C96.1249 56.7946 96.3646 57.3939 96.3646 58.0912C96.3646 58.7995 96.1249 59.3879 95.6454 59.8673C95.1769 60.3576 94.5994 60.5973 93.913 60.5973C93.2265 60.5973 92.649 60.3576 92.1805 59.8673C91.7011 59.3879 91.4614 58.7995 91.4614 58.0912ZM89.7725 58.0912C89.7725 59.1808 90.1756 60.1288 90.971 60.9024C91.7664 61.676 92.7471 62.0683 93.913 62.0683C95.0788 62.0683 96.0595 61.676 96.8549 60.9024C97.6503 60.1288 98.0535 59.1808 98.0535 58.0912C98.0535 56.9907 97.6503 56.0537 96.8549 55.28C96.0595 54.5064 95.0788 54.1142 93.913 54.1142C92.7471 54.1142 91.7664 54.5064 90.971 55.28C90.1756 56.0537 89.7725 56.9907 89.7725 58.0912Z" fill="#46466E"/>
<path d="M104.748 57.6014L102.133 54.2781H100.662V61.9054H102.297V56.8387L104.748 59.9441L107.2 56.8169V61.9054H108.834V54.2781H107.385L104.748 57.6014Z" fill="#46466E"/>
<path d="M118.359 54.2781H111.876V61.9054H113.51V55.7491H116.725V61.9054H118.359V54.2781Z" fill="#46466E"/>
<path d="M125.329 58.691H123.477L124.403 56.1849L125.329 58.691ZM125.874 60.1075L126.528 61.9054H128.271L125.275 54.2781H123.532L120.535 61.9054H122.279L122.932 60.1075H125.874Z" fill="#46466E"/>
<path d="M136.983 54.2781H135.349V57.329H132.08V54.2781H130.445V61.9054H132.08V58.8H135.349V61.9054H136.983V54.2781Z" fill="#46466E"/>
<path d="M141.662 54.2781H140.027V61.9054H141.662V54.2781Z" fill="#46466E"/>
<path d="M150.373 54.2781H146.995C146.232 54.2781 145.611 54.5178 145.121 54.9973C144.63 55.4767 144.38 56.076 144.38 56.7842C144.38 57.0893 144.434 57.3726 144.521 57.645C144.62 57.9174 144.728 58.1244 144.859 58.277C144.979 58.4295 145.11 58.5712 145.273 58.7019C145.426 58.8327 145.535 58.9198 145.6 58.9525C145.655 58.9743 145.709 59.007 145.742 59.0179L144.107 61.9054H145.851L147.322 59.2358H148.738V61.9054H150.373V54.2781ZM146.014 56.7842C146.014 56.4791 146.112 56.2394 146.308 56.0433C146.505 55.8472 146.755 55.7491 147.049 55.7491H148.738V57.7649H147.049C146.755 57.7649 146.505 57.6668 146.308 57.4816C146.112 57.2963 146.014 57.0566 146.014 56.7842Z" fill="#46466E"/>
<path d="M4.98113 1.00008H0V36.975H4.98113V23.6286C4.98113 21.3708 5.54273 19.5896 6.66593 18.3353C7.78912 17.0809 9.32741 16.4286 11.232 16.4286C12.8679 16.4286 14.2353 17.0307 15.3341 18.1847C16.4329 19.3638 16.9944 20.844 16.9944 22.6252V37.0001H22V22.6252C22 19.3137 21.0966 16.7046 19.2897 14.7478C17.4828 12.791 15.1143 11.8126 12.2331 11.8126C11.4029 11.8126 10.5727 11.913 9.76693 12.1388C8.93674 12.3645 8.27747 12.6154 7.74029 12.8914C7.20311 13.1673 6.69034 13.4684 6.22642 13.8196C5.76249 14.1708 5.44506 14.4217 5.29856 14.5722C5.15205 14.7227 5.02997 14.8231 4.98113 14.8983V1.00008Z" fill="#F0145A"/>
<path d="M33.135 1H28V36.945H33.135V1Z" fill="#323264"/>
<path d="M63.4225 26.4178L63.6793 23.8503C63.6793 20.4098 62.5496 17.5342 60.2388 15.2235C57.9281 12.9127 55.0525 11.783 51.612 11.783C48.1716 11.783 45.1933 13.0154 42.7285 15.4802C40.2637 17.945 39.0312 20.872 39.0312 24.3638C39.0312 27.9583 40.315 31.0393 42.8312 33.6068C45.3473 36.1743 48.377 37.4581 51.8688 37.4581C53.2039 37.4581 54.4363 37.2527 55.6687 36.8932C56.9011 36.4824 57.9281 36.0716 58.647 35.6608C59.4172 35.1987 60.1875 34.6852 60.855 34.1203C61.5226 33.5555 61.9847 33.1447 62.1901 32.8879C62.3955 32.6312 62.5496 32.4771 62.6523 32.3231L59.3145 28.9853L58.5443 29.961C58.0308 30.5772 57.1578 31.1934 55.9254 31.8609C54.6417 32.5285 53.3066 32.8366 51.8688 32.8366C49.8661 32.8366 48.1716 32.2204 46.7338 30.9366C45.296 29.6529 44.423 28.1637 44.1663 26.4178H63.4225ZM51.612 16.1478C53.512 16.1478 55.0525 16.7126 56.3362 17.791C57.5686 18.9207 58.3389 20.3071 58.647 22.053H44.3717C44.8338 20.3071 45.6554 18.9207 46.9392 17.791C48.1716 16.7126 49.7634 16.1478 51.612 16.1478Z" fill="#323264"/>
<path d="M87.3716 35.4554C87.3716 37.7148 86.704 39.5634 85.3176 41.0012C83.9825 42.3877 82.2879 43.1066 80.1826 43.1066C79.2583 43.1066 78.334 42.9525 77.461 42.6958C76.5881 42.439 75.9205 42.1309 75.3557 41.7715C74.7908 41.412 74.2773 41.0526 73.7638 40.5904C73.3017 40.1283 72.9936 39.8202 72.8395 39.6661C72.6855 39.5121 72.5828 39.358 72.4801 39.2553L69.1423 42.5931L69.5531 43.1066C69.8099 43.466 70.272 43.9282 70.8882 44.4417C71.5044 44.9038 72.2233 45.4173 73.0449 45.9308C73.8665 46.393 74.8935 46.8038 76.1773 47.1632C77.461 47.5227 78.7961 47.7281 80.1826 47.7281C83.6744 47.7281 86.55 46.547 88.9634 44.1849C91.3255 41.7715 92.5066 38.8959 92.5066 35.404V12.2965H87.3716V14.864L86.4986 14.0938C85.9338 13.5803 85.0608 13.0668 83.8284 12.5533C82.596 12.0398 81.2609 11.783 79.9258 11.783C76.7935 11.783 74.1233 12.9641 71.8125 15.3775C69.5018 17.791 68.3721 20.6666 68.3721 24.107C68.3721 27.5475 69.5018 30.4231 71.8125 32.8365C74.1233 35.25 76.7935 36.431 79.9258 36.431C80.7988 36.431 81.6204 36.3284 82.4933 36.1229C83.3149 35.8662 83.9825 35.6094 84.5473 35.3527C85.1122 35.0959 85.6257 34.7878 86.0878 34.4284C86.55 34.0689 86.9094 33.8122 87.0121 33.7095L87.3716 33.35V35.4554ZM73.5071 24.107C73.5071 21.9503 74.1746 20.1531 75.5611 18.6639C76.9475 17.1748 78.5907 16.4045 80.4393 16.4045C82.2879 16.4045 83.9311 17.1748 85.3176 18.6639C86.6527 20.1531 87.3716 21.9503 87.3716 24.107C87.3716 26.2637 86.6527 28.061 85.3176 29.5501C83.9311 31.0393 82.2879 31.8095 80.4393 31.8095C78.5907 31.8095 76.9475 31.0393 75.5611 29.5501C74.1746 28.061 73.5071 26.2637 73.5071 24.107Z" fill="#323264"/>
<path d="M119.308 36.9446V21.026C119.308 18.4072 118.333 16.1991 116.433 14.4532C114.533 12.656 112.068 11.783 109.038 11.783C107.857 11.783 106.676 11.9371 105.547 12.2452C104.417 12.6046 103.493 12.9641 102.825 13.3749C102.157 13.7857 101.49 14.2478 100.874 14.8127C100.257 15.3262 99.898 15.6856 99.6926 15.891C99.5385 16.0964 99.3845 16.2505 99.2818 16.4045L102.62 19.7423L103.287 18.8693C103.698 18.3045 104.417 17.791 105.495 17.2261C106.574 16.6613 107.755 16.4045 109.038 16.4045C110.527 16.4045 111.76 16.8667 112.736 17.7396C113.711 18.6126 114.173 19.7423 114.173 21.026L105.187 22.5665C102.979 22.926 101.182 23.7989 99.9493 25.1854C98.6656 26.5719 97.998 28.2664 97.998 30.2691C97.998 32.169 98.8196 33.8122 100.463 35.25C102.157 36.7392 104.211 37.4581 106.728 37.4581C107.601 37.4581 108.422 37.3554 109.244 37.0986C110.117 36.8932 110.784 36.6365 111.349 36.3797C111.914 36.123 112.427 35.8149 112.89 35.4554C113.352 35.096 113.66 34.8392 113.865 34.7365C114.019 34.5825 114.122 34.4284 114.173 34.3771V36.9446H119.308ZM107.498 32.8366C106.163 32.8366 105.084 32.5285 104.314 31.9123C103.493 31.2961 103.133 30.5772 103.133 29.7556C103.133 28.8826 103.39 28.1124 103.955 27.5475C104.52 26.9827 105.29 26.5719 106.214 26.4178L114.173 25.134V25.6475C114.173 27.9583 113.608 29.7042 112.427 30.988C111.246 32.2204 109.603 32.8366 107.498 32.8366Z" fill="#323264"/>
<path d="M130.64 0.999996H125.505V36.945H130.64V0.999996Z" fill="#323264"/>
<path d="M153.989 15.1208L153.681 14.7613C153.476 14.5559 153.168 14.2992 152.705 13.9397C152.243 13.5803 151.73 13.2722 151.165 12.9127C150.6 12.6046 149.83 12.3479 148.906 12.0911C147.981 11.8857 147.006 11.783 146.03 11.783C143.514 11.783 141.46 12.5019 139.817 13.9397C138.122 15.4289 137.3 17.0721 137.3 18.972C137.3 20.3585 137.609 21.4882 138.225 22.5152C138.841 23.4908 139.611 24.2097 140.587 24.6205C141.511 25.0827 142.538 25.5448 143.617 25.9043C144.695 26.2638 145.671 26.5719 146.646 26.8286C147.57 27.1367 148.341 27.4962 148.957 27.9583C149.573 28.4205 149.881 29.0367 149.881 29.7556C149.881 30.6799 149.522 31.4501 148.854 32.015C148.187 32.5285 147.16 32.8366 145.773 32.8366C144.644 32.8366 143.514 32.5285 142.435 32.015C141.357 31.4501 140.69 30.988 140.33 30.6285C140.022 30.2691 139.765 29.961 139.611 29.7556L136.273 33.0933L136.633 33.5555C136.89 33.8636 137.249 34.223 137.763 34.6338C138.327 35.096 138.944 35.5068 139.611 35.9176C140.33 36.3284 141.254 36.6878 142.333 36.9959C143.411 37.304 144.592 37.4581 145.773 37.4581C148.495 37.4581 150.754 36.6878 152.449 35.1987C154.143 33.7095 155.016 31.8609 155.016 29.7556C155.016 28.3691 154.708 27.1881 154.092 26.2638C153.476 25.2881 152.705 24.5692 151.73 24.107C150.806 23.5935 149.779 23.1827 148.7 22.8233C147.622 22.4638 146.646 22.1044 145.671 21.899C144.746 21.6422 143.976 21.2314 143.36 20.7693C142.744 20.3071 142.435 19.6909 142.435 18.972C142.435 18.3045 142.744 17.6883 143.411 17.1748C144.027 16.6613 144.9 16.4045 146.03 16.4045C146.852 16.4045 147.673 16.6099 148.443 16.9694C149.265 17.3288 149.83 17.6369 150.087 17.8937C150.343 18.1504 150.549 18.3558 150.651 18.4585L153.989 15.1208Z" fill="#323264"/>
<path d="M186.511 31.8789L190.129 28.0752L196.586 37H199.629L191.836 26.1641L198.868 18.7607H195.621L186.511 28.4463V18.7607H183.857V37H186.511V31.8789ZM216.885 27.8896C216.885 29.8564 216.217 31.5264 214.918 32.8809C213.619 34.2354 212.042 34.9033 210.224 34.9033C208.405 34.9033 206.828 34.2354 205.529 32.8623C204.23 31.4893 203.581 29.8379 203.581 27.8711C203.581 25.9043 204.23 24.2529 205.529 22.8984C206.828 21.5439 208.405 20.8574 210.224 20.8574C212.042 20.8574 213.619 21.5439 214.918 22.8984C216.217 24.2529 216.885 25.9229 216.885 27.8896ZM200.928 27.8896C200.928 30.5615 201.818 32.8066 203.637 34.6436C205.455 36.4619 207.645 37.3896 210.242 37.3896C212.821 37.3896 215.011 36.4619 216.811 34.6436C218.629 32.8066 219.52 30.5615 219.52 27.8896C219.52 25.2178 218.629 22.9727 216.811 21.1357C215.011 19.2988 212.821 18.3711 210.242 18.3711C207.645 18.3711 205.455 19.2988 203.637 21.1357C201.818 22.9727 200.928 25.2178 200.928 27.8896ZM237.406 37H240.078V18.7607H237.406V26.5537H226.96V18.7607H224.307V37H226.96V29.0215H237.406V37ZM243.882 21.2285H250.339V37H252.992V21.2285H259.449V18.7607H243.882V21.2285ZM267.261 26.5537C265.535 26.8506 264.218 27.4629 263.309 28.3906C262.381 29.3184 261.936 30.543 261.936 32.0645C261.936 33.4561 262.548 34.6807 263.791 35.7568C265.034 36.833 266.574 37.3711 268.393 37.3711C269.116 37.3711 269.821 37.2783 270.508 37.0742C271.194 36.8887 271.751 36.666 272.178 36.4062C272.586 36.1465 272.976 35.8682 273.347 35.5342C273.718 35.2002 273.94 34.9775 274.052 34.8477C274.163 34.7178 274.237 34.6064 274.293 34.5322V37H276.946V25.4033C276.946 23.418 276.26 21.748 274.887 20.3936C273.514 19.0576 271.807 18.3711 269.729 18.3711C268.912 18.3711 268.096 18.501 267.316 18.7422C266.537 18.9834 265.906 19.2617 265.424 19.5586C264.941 19.874 264.478 20.2266 264.032 20.6162C263.587 21.0059 263.309 21.2842 263.179 21.4326C263.049 21.5811 262.956 21.7109 262.882 21.8037L264.589 23.5107L265.164 22.8613C265.535 22.416 266.147 21.9707 267.001 21.5254C267.854 21.0801 268.764 20.8574 269.729 20.8574C271.064 20.8574 272.159 21.2842 273.013 22.1191C273.866 22.9727 274.293 24.0674 274.293 25.4033L267.261 26.5537ZM268.393 34.9033C267.205 34.9033 266.259 34.6436 265.591 34.1055C264.923 33.5674 264.589 32.8809 264.589 32.0645C264.589 30.3574 265.739 29.2812 268.021 28.8359L274.293 27.6855V28.8359C274.293 30.6357 273.736 32.1016 272.623 33.2148C271.51 34.3467 270.1 34.9033 268.393 34.9033ZM285.667 31.8789L289.285 28.0752L295.742 37H298.785L290.992 26.1641L298.024 18.7607H294.777L285.667 28.4463V18.7607H283.014V37H285.667V31.8789ZM299.917 21.2285H306.374V37H309.027V21.2285H315.484V18.7607H299.917V21.2285ZM332.981 18.7607L321.96 32.4355V18.7607H319.307V37H321.57L332.592 23.3252V37H335.264V18.7607H332.981Z" fill="#323264"/>
<path fill-rule="evenodd" clip-rule="evenodd" d="M373.258 27.1452H361.329L366.585 11.1537L372.532 11.1888L369.079 21.7351L375.008 21.7386L373.258 27.1452Z" fill="url(#paint0_linear_106_1290)"/>
<path fill-rule="evenodd" clip-rule="evenodd" d="M348.904 47.9044H343C343 47.9044 353.754 14.794 356.266 7.06476C357.441 3.44844 360.809 1 364.609 1H375.165C378.348 1 381.005 2.34505 382.657 4.61793C384.307 6.89094 384.776 9.79933 383.813 12.7664C382.849 15.7334 381.939 18.5342 381.105 21.1004C379.98 24.5654 376.863 26.953 373.259 27.1471C373.259 27.1471 373.24 27.1411 378.29 11.5924C378.736 10.2203 378.573 8.8772 377.873 7.91395C377.173 6.95083 375.993 6.3808 374.432 6.3808H365.374C363.596 6.3808 362.02 7.52656 361.47 9.21887L348.904 47.9044Z" fill="#F0145A"/>
<path fill-rule="evenodd" clip-rule="evenodd" d="M175.227 1H181.071L165.845 47.8434H160L175.227 1Z" fill="#F0145A"/>
</g>
<defs>
<linearGradient id="paint0_linear_106_1290" x1="361.328" y1="24.0823" x2="374.6" y2="31.0167" gradientUnits="userSpaceOnUse">
<stop stop-color="#F0145A"/>
<stop offset="1" stop-color="#693264"/>
</linearGradient>
<clipPath id="clip0_106_1290">
<rect width="433" height="63" fill="white"/>
</clipPath>
</defs>
</svg>
