<svg width="407" height="63" viewBox="0 0 407 63" fill="none" xmlns="http://www.w3.org/2000/svg">
<g clip-path="url(#clip0_90_4687)">
<path d="M10.3513 58.0912C10.3513 56.9798 9.9699 56.0428 9.21807 55.2691C8.46624 54.4955 7.55097 54.1142 6.48316 54.1142C5.51341 54.1142 4.67441 54.4192 3.96617 55.0403C3.26882 55.6505 2.83298 56.3914 2.66953 57.274H1.63441V54.2776H0V61.9048H1.63441V58.7995H2.66953C2.83298 59.7256 3.26882 60.5101 3.96617 61.1312C4.66351 61.7523 5.50251 62.0683 6.48316 62.0683C7.55097 62.0683 8.46624 61.6869 9.21807 60.9133C9.9699 60.1506 10.3513 59.2026 10.3513 58.0912ZM8.71685 58.0912C8.71685 58.8104 8.49893 59.4096 8.06309 59.8782C7.61635 60.3576 7.09334 60.5973 6.48316 60.5973C5.87298 60.5973 5.34997 60.3576 4.91412 59.8782C4.46738 59.4096 4.24946 58.8104 4.24946 58.0912C4.24946 57.3721 4.46738 56.7728 4.91412 56.2934C5.34997 55.8248 5.87298 55.5851 6.48316 55.5851C7.09334 55.5851 7.61635 55.8248 8.06309 56.2934C8.49893 56.7728 8.71685 57.3721 8.71685 58.0912Z" fill="#46466E"/>
<path d="M12.9602 54.2781V61.9054H14.5946V59.3993H16.1745C16.9591 59.3993 17.6128 59.1487 18.1249 58.6583C18.6371 58.168 18.8986 57.5578 18.8986 56.8387C18.8986 56.1087 18.6371 55.5094 18.1249 55.0082C17.6019 54.5178 16.9591 54.2781 16.1745 54.2781H12.9602ZM16.1201 55.7491C16.4469 55.7491 16.7193 55.858 16.9373 56.0651C17.1552 56.2721 17.2641 56.5336 17.2641 56.8387C17.2641 57.1438 17.1552 57.4053 16.9373 57.6123C16.7193 57.8193 16.4469 57.9283 16.1201 57.9283H14.5946V55.7491H16.1201Z" fill="#46466E"/>
<path d="M28.2617 61.9054V54.2781H26.8452L23.0861 59.1269V54.2781H21.4517V61.9054H22.8681L26.6273 57.0566V61.9054H28.2617Z" fill="#46466E"/>
<path d="M30.3245 60.4344V63.4853H31.9589V61.9054H36.5352V63.4853H38.1696V60.4344H37.2435V54.2781H31.9589V56.6208C31.9589 57.1329 31.9153 57.6123 31.8281 58.0591C31.741 58.5167 31.6429 58.8763 31.5448 59.1487C31.4359 59.4102 31.316 59.6499 31.1744 59.8787C31.0327 60.0966 30.9455 60.2383 30.8911 60.3036C30.8257 60.3581 30.793 60.4126 30.7603 60.4344H30.3245ZM33.5933 56.6208V55.7491H35.6091V60.4344H32.3947L32.5255 60.3036C32.6017 60.2165 32.6998 60.0748 32.8197 59.8678C32.9395 59.6608 33.0485 59.4211 33.1683 59.1487C33.2882 58.8763 33.3863 58.5058 33.4625 58.0591C33.5497 57.6123 33.5933 57.1329 33.5933 56.6208Z" fill="#46466E"/>
<path d="M47.3115 61.9054V54.2781H45.895L42.1359 59.1269V54.2781H40.5015V61.9054H41.918L45.6771 57.0566V61.9054H47.3115Z" fill="#46466E"/>
<path d="M51.8817 54.2781H50.2473V56.6208C50.2473 57.536 50.487 58.2443 50.9665 58.7455C51.4568 59.2576 52.1214 59.5082 52.9713 59.5082C53.7014 59.5082 54.3007 59.3666 54.7692 59.0724V61.9054H56.4036V54.2781H54.7692V57.4925L54.5839 57.6341C54.4641 57.7213 54.2789 57.8084 54.0282 57.9065C53.7776 57.9937 53.5161 58.0373 53.2437 58.0373C52.8079 58.0373 52.4701 57.9174 52.2304 57.6777C52.0016 57.4271 51.8817 57.0784 51.8817 56.6208V54.2781Z" fill="#46466E"/>
<path d="M65.9856 54.2781H64.3512V57.329H61.0824V54.2781H59.448V61.9054H61.0824V58.8H64.3512V61.9054H65.9856V54.2781Z" fill="#46466E"/>
<path d="M72.9549 58.691H71.1026L72.0288 56.1849L72.9549 58.691ZM73.4997 60.1075L74.1535 61.9054H75.8969L72.9004 54.2781H71.1571L68.1606 61.9054H69.904L70.5578 60.1075H73.4997Z" fill="#46466E"/>
<path d="M83.0223 54.2781H81.3879V61.9054H83.0223V59.7262L84.003 58.6365L86.2367 61.9054H88.1435L85.0926 57.438L87.9256 54.2781H86.0188L83.0223 57.6014V54.2781Z" fill="#46466E"/>
<path d="M91.4614 58.0912C91.4614 57.3939 91.7011 56.7946 92.1805 56.3152C92.649 55.8248 93.2265 55.5851 93.913 55.5851C94.5994 55.5851 95.1769 55.8248 95.6454 56.3152C96.1249 56.7946 96.3646 57.3939 96.3646 58.0912C96.3646 58.7995 96.1249 59.3879 95.6454 59.8673C95.1769 60.3576 94.5994 60.5973 93.913 60.5973C93.2265 60.5973 92.649 60.3576 92.1805 59.8673C91.7011 59.3879 91.4614 58.7995 91.4614 58.0912ZM89.7725 58.0912C89.7725 59.1808 90.1756 60.1288 90.971 60.9024C91.7664 61.676 92.7471 62.0683 93.913 62.0683C95.0788 62.0683 96.0595 61.676 96.8549 60.9024C97.6503 60.1288 98.0535 59.1808 98.0535 58.0912C98.0535 56.9907 97.6503 56.0537 96.8549 55.28C96.0595 54.5064 95.0788 54.1142 93.913 54.1142C92.7471 54.1142 91.7664 54.5064 90.971 55.28C90.1756 56.0537 89.7725 56.9907 89.7725 58.0912Z" fill="#46466E"/>
<path d="M104.748 57.6014L102.133 54.2781H100.662V61.9054H102.297V56.8387L104.748 59.9441L107.2 56.8169V61.9054H108.834V54.2781H107.385L104.748 57.6014Z" fill="#46466E"/>
<path d="M118.359 54.2781H111.876V61.9054H113.511V55.7491H116.725V61.9054H118.359V54.2781Z" fill="#46466E"/>
<path d="M125.33 58.691H123.478L124.404 56.1849L125.33 58.691ZM125.875 60.1075L126.528 61.9054H128.272L125.275 54.2781H123.532L120.536 61.9054H122.279L122.933 60.1075H125.875Z" fill="#46466E"/>
<path d="M136.983 54.2781H135.349V57.329H132.08V54.2781H130.446V61.9054H132.08V58.8H135.349V61.9054H136.983V54.2781Z" fill="#46466E"/>
<path d="M141.662 54.2781H140.028V61.9054H141.662V54.2781Z" fill="#46466E"/>
<path d="M150.373 54.2781H146.995C146.232 54.2781 145.611 54.5178 145.121 54.9973C144.63 55.4767 144.38 56.076 144.38 56.7842C144.38 57.0893 144.434 57.3726 144.521 57.645C144.62 57.9174 144.728 58.1244 144.859 58.277C144.979 58.4295 145.11 58.5712 145.273 58.7019C145.426 58.8327 145.535 58.9198 145.6 58.9525C145.655 58.9743 145.709 59.007 145.742 59.0179L144.107 61.9054H145.851L147.322 59.2358H148.738V61.9054H150.373V54.2781ZM146.014 56.7842C146.014 56.4791 146.112 56.2394 146.308 56.0433C146.505 55.8472 146.755 55.7491 147.049 55.7491H148.738V57.7649H147.049C146.755 57.7649 146.505 57.6668 146.308 57.4816C146.112 57.2963 146.014 57.0566 146.014 56.7842Z" fill="#46466E"/>
<path d="M4.98113 1.00008H0V36.975H4.98113V23.6286C4.98113 21.3708 5.54273 19.5896 6.66593 18.3353C7.78912 17.0809 9.32741 16.4286 11.232 16.4286C12.8679 16.4286 14.2353 17.0307 15.3341 18.1847C16.4329 19.3638 16.9944 20.844 16.9944 22.6252V37.0001H22V22.6252C22 19.3137 21.0966 16.7046 19.2897 14.7478C17.4828 12.791 15.1143 11.8126 12.2331 11.8126C11.4029 11.8126 10.5727 11.913 9.76693 12.1388C8.93674 12.3645 8.27747 12.6154 7.74029 12.8914C7.20311 13.1673 6.69034 13.4684 6.22642 13.8196C5.76249 14.1708 5.44506 14.4217 5.29856 14.5722C5.15205 14.7227 5.02997 14.8231 4.98113 14.8983V1.00008Z" fill="#F0145A"/>
<path d="M33.135 1H28V36.945H33.135V1Z" fill="#323264"/>
<path d="M63.4223 26.4178L63.679 23.8503C63.679 20.4098 62.5493 17.5342 60.2386 15.2235C57.9278 12.9127 55.0522 11.783 51.6118 11.783C48.1713 11.783 45.193 13.0154 42.7282 15.4802C40.2634 17.945 39.031 20.872 39.031 24.3638C39.031 27.9583 40.3148 31.0393 42.8309 33.6068C45.3471 36.1743 48.3767 37.4581 51.8685 37.4581C53.2036 37.4581 54.436 37.2527 55.6684 36.8932C56.9008 36.4824 57.9278 36.0716 58.6467 35.6608C59.417 35.1987 60.1872 34.6852 60.8548 34.1203C61.5223 33.5555 61.9845 33.1447 62.1899 32.8879C62.3953 32.6312 62.5493 32.4771 62.652 32.3231L59.3143 28.9853L58.544 29.961C58.0305 30.5772 57.1576 31.1934 55.9252 31.8609C54.6414 32.5285 53.3063 32.8366 51.8685 32.8366C49.8659 32.8366 48.1713 32.2204 46.7335 30.9366C45.2957 29.6529 44.4228 28.1637 44.166 26.4178H63.4223ZM51.6118 16.1478C53.5117 16.1478 55.0522 16.7126 56.336 17.791C57.5684 18.9207 58.3386 20.3071 58.6467 22.053H44.3714C44.8336 20.3071 45.6552 18.9207 46.9389 17.791C48.1713 16.7126 49.7632 16.1478 51.6118 16.1478Z" fill="#323264"/>
<path d="M87.3711 35.4554C87.3711 37.7148 86.7035 39.5634 85.3171 41.0012C83.982 42.3877 82.2874 43.1066 80.1821 43.1066C79.2578 43.1066 78.3335 42.9525 77.4605 42.6958C76.5876 42.439 75.92 42.1309 75.3552 41.7715C74.7903 41.412 74.2768 41.0526 73.7633 40.5904C73.3012 40.1283 72.9931 39.8202 72.839 39.6661C72.685 39.5121 72.5823 39.358 72.4796 39.2553L69.1418 42.5931L69.5526 43.1066C69.8094 43.466 70.2715 43.9282 70.8877 44.4417C71.5039 44.9038 72.2228 45.4173 73.0444 45.9308C73.866 46.393 74.893 46.8038 76.1768 47.1632C77.4605 47.5227 78.7956 47.7281 80.1821 47.7281C83.6739 47.7281 86.5495 46.547 88.9629 44.1849C91.325 41.7715 92.5061 38.8959 92.5061 35.404V12.2965H87.3711V14.864L86.4981 14.0938C85.9333 13.5803 85.0603 13.0668 83.8279 12.5533C82.5955 12.0398 81.2604 11.783 79.9253 11.783C76.793 11.783 74.1228 12.9641 71.812 15.3775C69.5013 17.791 68.3716 20.6666 68.3716 24.107C68.3716 27.5475 69.5013 30.4231 71.812 32.8365C74.1228 35.25 76.793 36.431 79.9253 36.431C80.7983 36.431 81.6199 36.3284 82.4928 36.1229C83.3144 35.8662 83.982 35.6094 84.5468 35.3527C85.1117 35.0959 85.6252 34.7878 86.0873 34.4284C86.5495 34.0689 86.9089 33.8122 87.0116 33.7095L87.3711 33.35V35.4554ZM73.5066 24.107C73.5066 21.9503 74.1741 20.1531 75.5606 18.6639C76.947 17.1748 78.5902 16.4045 80.4388 16.4045C82.2874 16.4045 83.9306 17.1748 85.3171 18.6639C86.6522 20.1531 87.3711 21.9503 87.3711 24.107C87.3711 26.2637 86.6522 28.061 85.3171 29.5501C83.9306 31.0393 82.2874 31.8095 80.4388 31.8095C78.5902 31.8095 76.947 31.0393 75.5606 29.5501C74.1741 28.061 73.5066 26.2637 73.5066 24.107Z" fill="#323264"/>
<path d="M119.309 36.9446V21.026C119.309 18.4072 118.333 16.1991 116.433 14.4532C114.533 12.656 112.068 11.783 109.039 11.783C107.858 11.783 106.677 11.9371 105.547 12.2452C104.417 12.6046 103.493 12.9641 102.825 13.3749C102.158 13.7857 101.49 14.2478 100.874 14.8127C100.258 15.3262 99.8985 15.6856 99.6931 15.891C99.539 16.0964 99.385 16.2505 99.2823 16.4045L102.62 19.7423L103.288 18.8693C103.698 18.3045 104.417 17.791 105.496 17.2261C106.574 16.6613 107.755 16.4045 109.039 16.4045C110.528 16.4045 111.76 16.8667 112.736 17.7396C113.712 18.6126 114.174 19.7423 114.174 21.026L105.188 22.5665C102.979 22.926 101.182 23.7989 99.9498 25.1854C98.6661 26.5719 97.9985 28.2664 97.9985 30.2691C97.9985 32.169 98.8201 33.8122 100.463 35.25C102.158 36.7392 104.212 37.4581 106.728 37.4581C107.601 37.4581 108.423 37.3554 109.244 37.0986C110.117 36.8932 110.785 36.6365 111.35 36.3797C111.914 36.123 112.428 35.8149 112.89 35.4554C113.352 35.096 113.66 34.8392 113.866 34.7365C114.02 34.5825 114.122 34.4284 114.174 34.3771V36.9446H119.309ZM107.498 32.8366C106.163 32.8366 105.085 32.5285 104.315 31.9123C103.493 31.2961 103.134 30.5772 103.134 29.7556C103.134 28.8826 103.39 28.1124 103.955 27.5475C104.52 26.9827 105.29 26.5719 106.215 26.4178L114.174 25.134V25.6475C114.174 27.9583 113.609 29.7042 112.428 30.988C111.247 32.2204 109.604 32.8366 107.498 32.8366Z" fill="#323264"/>
<path d="M130.64 0.999996H125.505V36.945H130.64V0.999996Z" fill="#323264"/>
<path d="M153.989 15.1208L153.681 14.7613C153.475 14.5559 153.167 14.2992 152.705 13.9397C152.243 13.5803 151.73 13.2722 151.165 12.9127C150.6 12.6046 149.83 12.3479 148.905 12.0911C147.981 11.8857 147.005 11.783 146.03 11.783C143.514 11.783 141.46 12.5019 139.816 13.9397C138.122 15.4289 137.3 17.0721 137.3 18.972C137.3 20.3585 137.608 21.4882 138.224 22.5152C138.841 23.4908 139.611 24.2097 140.587 24.6205C141.511 25.0827 142.538 25.5448 143.616 25.9043C144.695 26.2638 145.67 26.5719 146.646 26.8286C147.57 27.1367 148.34 27.4962 148.957 27.9583C149.573 28.4205 149.881 29.0367 149.881 29.7556C149.881 30.6799 149.522 31.4501 148.854 32.015C148.186 32.5285 147.159 32.8366 145.773 32.8366C144.643 32.8366 143.514 32.5285 142.435 32.015C141.357 31.4501 140.689 30.988 140.33 30.6285C140.022 30.2691 139.765 29.961 139.611 29.7556L136.273 33.0933L136.633 33.5555C136.889 33.8636 137.249 34.223 137.762 34.6338C138.327 35.096 138.943 35.5068 139.611 35.9176C140.33 36.3284 141.254 36.6878 142.333 36.9959C143.411 37.304 144.592 37.4581 145.773 37.4581C148.495 37.4581 150.754 36.6878 152.448 35.1987C154.143 33.7095 155.016 31.8609 155.016 29.7556C155.016 28.3691 154.708 27.1881 154.092 26.2638C153.475 25.2881 152.705 24.5692 151.73 24.107C150.805 23.5935 149.778 23.1827 148.7 22.8233C147.622 22.4638 146.646 22.1044 145.67 21.899C144.746 21.6422 143.976 21.2314 143.36 20.7693C142.743 20.3071 142.435 19.6909 142.435 18.972C142.435 18.3045 142.743 17.6883 143.411 17.1748C144.027 16.6613 144.9 16.4045 146.03 16.4045C146.851 16.4045 147.673 16.6099 148.443 16.9694C149.265 17.3288 149.83 17.6369 150.086 17.8937C150.343 18.1504 150.549 18.3558 150.651 18.4585L153.989 15.1208Z" fill="#323264"/>
<path d="M196.957 37H199.629V18.7607H183.857V37H186.511V21.2656H196.957V37ZM208.368 27.8896C208.368 26.0156 209.018 24.3828 210.354 22.9727C211.689 21.5625 213.174 20.8574 214.825 20.8574C216.384 20.8574 217.794 21.5439 219.037 22.917C220.28 24.29 220.911 25.9414 220.911 27.8896C220.911 29.8379 220.28 31.4893 219.037 32.8623C217.794 34.2354 216.384 34.9033 214.825 34.9033C213.174 34.9033 211.689 34.2168 210.354 32.8066C209.018 31.3965 208.368 29.7637 208.368 27.8896ZM208.368 34.1426L208.628 34.4951C208.813 34.7178 209.073 34.9961 209.444 35.3115C209.815 35.627 210.242 35.9424 210.743 36.2393C211.226 36.5547 211.838 36.8145 212.562 37.0371C213.285 37.2598 214.046 37.3711 214.825 37.3711C217.163 37.3711 219.204 36.4434 220.948 34.5879C222.692 32.7324 223.564 30.4873 223.564 27.8896C223.564 25.292 222.674 23.0469 220.93 21.1914C219.186 19.3174 217.145 18.3896 214.825 18.3896C214.046 18.3896 213.285 18.501 212.543 18.7236C211.801 18.9463 211.207 19.2061 210.743 19.5029C210.261 19.7998 209.834 20.1338 209.426 20.5049C209.018 20.876 208.758 21.1357 208.628 21.2842C208.498 21.4326 208.405 21.5625 208.368 21.6367V18.7793H205.715V44.9971H208.368V34.1426ZM242.936 27.8896C242.936 29.8564 242.268 31.5264 240.969 32.8809C239.67 34.2354 238.093 34.9033 236.274 34.9033C234.456 34.9033 232.879 34.2354 231.58 32.8623C230.281 31.4893 229.632 29.8379 229.632 27.8711C229.632 25.9043 230.281 24.2529 231.58 22.8984C232.879 21.5439 234.456 20.8574 236.274 20.8574C238.093 20.8574 239.67 21.5439 240.969 22.8984C242.268 24.2529 242.936 25.9229 242.936 27.8896ZM226.979 27.8896C226.979 30.5615 227.869 32.8066 229.688 34.6436C231.506 36.4619 233.695 37.3896 236.293 37.3896C238.872 37.3896 241.062 36.4619 242.861 34.6436C244.68 32.8066 245.57 30.5615 245.57 27.8896C245.57 25.2178 244.68 22.9727 242.861 21.1357C241.062 19.2988 238.872 18.3711 236.293 18.3711C233.695 18.3711 231.506 19.2988 229.688 21.1357C227.869 22.9727 226.979 25.2178 226.979 27.8896ZM270.693 37H273.365V18.7607H270.693V26.5537H260.247V18.7607H257.594V37H260.247V29.0215H270.693V37ZM283.44 26.5537C281.715 26.8506 280.397 27.4629 279.488 28.3906C278.561 29.3184 278.115 30.543 278.115 32.0645C278.115 33.4561 278.728 34.6807 279.971 35.7568C281.214 36.833 282.754 37.3711 284.572 37.3711C285.296 37.3711 286.001 37.2783 286.688 37.0742C287.374 36.8887 287.931 36.666 288.357 36.4062C288.766 36.1465 289.155 35.8682 289.526 35.5342C289.897 35.2002 290.12 34.9775 290.231 34.8477C290.343 34.7178 290.417 34.6064 290.473 34.5322V37H293.126V25.4033C293.126 23.418 292.439 21.748 291.066 20.3936C289.693 19.0576 287.986 18.3711 285.908 18.3711C285.092 18.3711 284.275 18.501 283.496 18.7422C282.717 18.9834 282.086 19.2617 281.604 19.5586C281.121 19.874 280.657 20.2266 280.212 20.6162C279.767 21.0059 279.488 21.2842 279.358 21.4326C279.229 21.5811 279.136 21.7109 279.062 21.8037L280.769 23.5107L281.344 22.8613C281.715 22.416 282.327 21.9707 283.181 21.5254C284.034 21.0801 284.943 20.8574 285.908 20.8574C287.244 20.8574 288.339 21.2842 289.192 22.1191C290.046 22.9727 290.473 24.0674 290.473 25.4033L283.44 26.5537ZM284.572 34.9033C283.385 34.9033 282.438 34.6436 281.771 34.1055C281.103 33.5674 280.769 32.8809 280.769 32.0645C280.769 30.3574 281.919 29.2812 284.201 28.8359L290.473 27.6855V28.8359C290.473 30.6357 289.916 32.1016 288.803 33.2148C287.689 34.3467 286.279 34.9033 284.572 34.9033ZM297.857 27.8711C297.857 30.5059 298.748 32.751 300.548 34.6064C302.329 36.4619 304.481 37.3711 306.968 37.3711C307.858 37.3711 308.73 37.2412 309.584 36.9629C310.438 36.6846 311.143 36.3877 311.681 36.0537C312.237 35.7197 312.757 35.3486 313.239 34.9219C313.74 34.4951 314.074 34.1982 314.223 34.0127C314.371 33.8271 314.482 33.6973 314.557 33.5859L312.664 31.8789L312.052 32.6211C311.625 33.1406 310.938 33.6416 309.992 34.1426C309.027 34.6621 308.025 34.9033 306.968 34.9033C305.224 34.9033 303.702 34.2354 302.422 32.8809C301.142 31.5264 300.511 29.8564 300.511 27.8896C300.511 25.9229 301.142 24.2529 302.422 22.8984C303.702 21.5439 305.224 20.8574 306.968 20.8574C307.654 20.8574 308.322 20.9688 308.953 21.1729C309.584 21.3955 310.085 21.6367 310.493 21.8965C310.883 22.1562 311.254 22.4717 311.588 22.8242C311.922 23.1953 312.145 23.4365 312.237 23.5664C312.349 23.7148 312.423 23.8076 312.46 23.8818L314.371 21.9893L313.573 21.1172C313.054 20.5234 312.163 19.9111 310.938 19.2988C309.714 18.6865 308.378 18.3711 306.949 18.3711C304.481 18.3711 302.348 19.2988 300.548 21.1543C298.748 23.0098 297.857 25.2363 297.857 27.8711Z" fill="#323264"/>
<path fill-rule="evenodd" clip-rule="evenodd" d="M347.258 27.1452H335.329L340.585 11.1537L346.532 11.1888L343.079 21.7351L349.008 21.7386L347.258 27.1452Z" fill="url(#paint0_linear_90_4687)"/>
<path fill-rule="evenodd" clip-rule="evenodd" d="M322.904 47.9044H317C317 47.9044 327.754 14.794 330.266 7.06476C331.441 3.44844 334.809 1 338.609 1H349.165C352.348 1 355.005 2.34505 356.657 4.61793C358.307 6.89094 358.776 9.79933 357.813 12.7664C356.849 15.7334 355.939 18.5342 355.105 21.1004C353.98 24.5654 350.863 26.953 347.259 27.1471C347.259 27.1471 347.24 27.1411 352.29 11.5924C352.736 10.2203 352.573 8.8772 351.873 7.91395C351.173 6.95083 349.993 6.3808 348.432 6.3808H339.374C337.596 6.3808 336.02 7.52656 335.47 9.21887L322.904 47.9044Z" fill="#F0145A"/>
<path fill-rule="evenodd" clip-rule="evenodd" d="M175.227 1H181.071L165.845 47.8434H160L175.227 1Z" fill="#F0145A"/>
</g>
<defs>
<linearGradient id="paint0_linear_90_4687" x1="335.328" y1="24.0823" x2="348.6" y2="31.0167" gradientUnits="userSpaceOnUse">
<stop stop-color="#F0145A"/>
<stop offset="1" stop-color="#693264"/>
</linearGradient>
<clipPath id="clip0_90_4687">
<rect width="407" height="63" fill="white"/>
</clipPath>
</defs>
</svg>
