<svg width="360" height="120" viewBox="0 0 360 120" fill="none" xmlns="http://www.w3.org/2000/svg">
<rect width="360" height="120" fill="#FD9339"/>

<g clip-path="url(#clip0_19964:1075)">
<path d="M137.106 60C137.106 55.0441 135.429 50.2333 132.346 46.3472C129.263 42.461 124.955 39.7272 120.12 38.5885C115.285 37.4499 110.206 37.9732 105.707 40.0736C101.207 42.1741 97.55 45.7286 95.3282 50.1613C93.1065 54.594 92.4502 59.6453 93.4656 64.4966C94.4809 69.3479 97.1086 73.7151 100.923 76.8906C104.737 80.0661 109.514 81.8638 114.48 81.9926C119.446 82.1214 124.311 80.5736 128.285 77.6H114.495C111.05 77.5068 107.708 76.4091 104.881 74.4425C102.054 72.4759 99.8668 69.7265 98.5888 66.5338C97.3107 63.3411 96.9979 59.8449 97.689 56.4769C98.3801 53.1088 100.045 50.0165 102.478 47.5816C104.911 45.1467 108.005 43.476 111.379 42.7756C114.753 42.0752 118.259 42.3759 121.463 43.6406C124.668 44.9052 127.431 47.0784 129.411 49.8918C131.392 52.7053 132.503 56.0357 132.608 59.472V73.2C135.525 69.4153 137.107 64.7745 137.106 60V60Z" fill="white"/>
<path d="M126.065 70.9855V61.7455H119.214C118.795 62.7116 118.065 63.5109 117.14 64.0171C116.214 64.5233 115.146 64.7077 114.104 64.541C113.062 64.3744 112.106 63.8663 111.385 63.0969C110.665 62.3275 110.222 61.3407 110.127 60.2923C110.031 59.2439 110.288 58.1936 110.858 57.3073C111.427 56.4209 112.276 55.7491 113.271 55.3977C114.266 55.0464 115.35 55.0356 116.351 55.3671C117.353 55.6985 118.215 56.3534 118.802 57.2282H125.727C125.239 55.2271 124.203 53.4006 122.736 51.9523C121.268 50.5041 119.426 49.491 117.415 49.026C115.403 48.5611 113.302 48.6626 111.346 49.3192C109.389 49.9758 107.654 51.1616 106.333 52.7446C105.012 54.3275 104.158 56.2453 103.866 58.2841C103.574 60.3228 103.856 62.4024 104.679 64.2909C105.503 66.1795 106.836 67.8027 108.53 68.9796C110.224 70.1565 112.213 70.8408 114.274 70.9562V70.9562L126.065 70.9855Z" fill="white"/>
<path d="M152.397 53.7961C150.897 53.799 149.432 54.2454 148.186 55.0787C146.94 55.912 145.97 57.095 145.398 58.4781C144.826 59.8613 144.678 61.3825 144.973 62.8496C145.267 64.3166 145.991 65.6637 147.052 66.7207C148.114 67.7776 149.466 68.497 150.937 68.7878C152.408 69.0786 153.933 68.9279 155.318 68.3546C156.703 67.7814 157.887 66.8114 158.72 65.5672C159.553 64.3229 159.998 62.8603 159.998 61.3641C160.008 60.3663 159.818 59.3766 159.439 58.453C159.06 57.5294 158.5 56.6905 157.793 55.9856C157.085 55.2807 156.243 54.7239 155.316 54.348C154.389 53.972 153.397 53.7844 152.397 53.7961V53.7961ZM152.397 65.3241C151.877 65.3325 151.361 65.2351 150.881 65.0379C150.4 64.8407 149.965 64.5479 149.602 64.1773C149.239 63.8067 148.955 63.366 148.768 62.8824C148.581 62.3987 148.495 61.8821 148.515 61.3641C148.483 60.8346 148.559 60.3041 148.74 59.8051C148.92 59.3062 149.202 58.8494 149.566 58.4629C149.93 58.0764 150.37 57.7685 150.858 57.558C151.346 57.3474 151.872 57.2388 152.404 57.2388C152.936 57.2388 153.462 57.3474 153.95 57.558C154.438 57.7685 154.878 58.0764 155.242 58.4629C155.607 58.8494 155.888 59.3062 156.068 59.8051C156.249 60.3041 156.325 60.8346 156.293 61.3641C156.313 61.8834 156.226 62.4012 156.039 62.8859C155.851 63.3706 155.566 63.8119 155.201 64.1827C154.836 64.5535 154.399 64.8461 153.917 65.0423C153.435 65.2386 152.917 65.3345 152.397 65.3241V65.3241ZM166.129 56.6708V54.1335H162.424V68.4775H166.129V61.6868C166.102 61.1329 166.205 60.5805 166.429 60.0732C166.654 59.5658 166.993 59.1174 167.421 58.7633C167.848 58.4091 168.353 58.159 168.894 58.0326C169.435 57.9062 169.998 57.9069 170.539 58.0348V53.9135C169.606 53.8469 168.676 54.0782 167.883 54.5739C167.09 55.0695 166.475 55.8039 166.129 56.6708V56.6708ZM183.301 55.8935C182.74 55.2033 182.025 54.6541 181.213 54.2898C180.401 53.9255 179.515 53.7564 178.625 53.7961C177.669 53.8338 176.729 54.0598 175.86 54.4611C174.992 54.8624 174.211 55.431 173.563 56.1344C172.916 56.8377 172.414 57.6618 172.087 58.5593C171.759 59.4569 171.613 60.4101 171.657 61.3641C171.613 62.3182 171.759 63.2714 172.087 64.1689C172.414 65.0664 172.916 65.8906 173.563 66.5939C174.211 67.2972 174.992 67.8659 175.86 68.2672C176.729 68.6685 177.669 68.8945 178.625 68.9321C179.515 68.9718 180.401 68.8028 181.213 68.4385C182.025 68.0742 182.74 67.5249 183.301 66.8348V68.5361H187.006V54.1335H183.301V55.8935ZM179.316 65.4121C178.782 65.4313 178.249 65.339 177.752 65.1414C177.255 64.9438 176.805 64.645 176.43 64.2642C176.055 63.8833 175.764 63.4288 175.575 62.9295C175.386 62.4302 175.303 61.8971 175.332 61.3641C175.332 60.3139 175.75 59.3066 176.495 58.564C177.239 57.8214 178.249 57.4041 179.302 57.4041C180.354 57.4041 181.364 57.8214 182.109 58.564C182.853 59.3066 183.271 60.3139 183.271 61.3641C183.298 61.894 183.214 62.4236 183.026 62.9198C182.838 63.4161 182.55 63.8683 182.178 64.2482C181.807 64.6281 181.361 64.9276 180.869 65.1278C180.377 65.3281 179.848 65.4249 179.316 65.4121ZM198.223 53.7961C197.398 53.742 196.572 53.898 195.824 54.2495C195.076 54.6009 194.429 55.1364 193.945 55.8055V54.1335H190.255V68.4775H193.945V60.7921C193.945 58.2988 195.298 57.2428 197.106 57.2428C197.495 57.2148 197.885 57.2723 198.249 57.4113C198.613 57.5503 198.942 57.7673 199.213 58.0472C199.483 58.327 199.689 58.6627 199.815 59.0306C199.942 59.3985 199.985 59.7895 199.943 60.1761V68.5215H203.648V59.7215C203.648 55.9228 201.267 53.7961 198.223 53.7961V53.7961ZM217.674 55.9815C217.145 55.2731 216.451 54.7039 215.652 54.3231C214.852 53.9424 213.972 53.7615 213.087 53.7961C212.134 53.8037 211.191 54.0001 210.314 54.3738C209.437 54.7476 208.643 55.2913 207.979 55.9735C207.314 56.6557 206.792 57.4627 206.442 58.3478C206.092 59.2328 205.922 60.1784 205.942 61.1295C205.92 62.0811 206.089 63.0275 206.438 63.9135C206.787 64.7994 207.309 65.6072 207.974 66.2898C208.639 66.9724 209.434 67.516 210.312 67.8891C211.19 68.2622 212.133 68.4572 213.087 68.4628C213.972 68.4974 214.852 68.3165 215.652 67.9358C216.451 67.555 217.145 66.9859 217.674 66.2775V67.8321C217.706 68.3219 217.629 68.8127 217.449 69.2693C217.269 69.7259 216.99 70.1372 216.631 70.4735C216.273 70.8099 215.845 71.0631 215.377 71.215C214.909 71.3669 214.413 71.4137 213.925 71.3521C213.167 71.4454 212.398 71.3023 211.724 70.9426C211.05 70.5829 210.505 70.0241 210.161 69.3428L207.001 71.1615C207.703 72.3135 208.709 73.2502 209.91 73.8686C211.111 74.487 212.46 74.7632 213.808 74.6668C217.586 74.6668 221.291 72.5401 221.291 67.8468V54.1335H217.674V55.9815ZM213.661 65.0601C212.889 65.0428 212.139 64.7989 211.506 64.3589C210.872 63.9188 210.383 63.3022 210.099 62.5861C209.815 61.8701 209.749 61.0864 209.909 60.333C210.069 59.5797 210.448 58.8901 210.999 58.3506C211.55 57.8111 212.248 57.4457 213.006 57.2999C213.764 57.1542 214.548 57.2346 215.261 57.5312C215.973 57.8277 216.582 58.3273 217.011 58.9673C217.441 59.6073 217.671 60.3594 217.674 61.1295C217.689 61.6559 217.595 62.1797 217.397 62.6681C217.2 63.1565 216.903 63.599 216.527 63.968C216.15 64.3369 215.701 64.6243 215.208 64.8122C214.715 65.0002 214.188 65.0846 213.661 65.0601ZM231.377 53.7961C230.376 53.7717 229.382 53.9511 228.454 54.3236C227.525 54.696 226.683 55.2535 225.978 55.962C225.274 56.6705 224.721 57.5151 224.355 58.444C223.989 59.3729 223.817 60.3666 223.849 61.3641C223.814 62.3915 223.995 63.4148 224.382 64.3677C224.768 65.3206 225.351 66.1818 226.093 66.8954C226.834 67.609 227.718 68.1591 228.687 68.51C229.655 68.8609 230.687 69.0047 231.715 68.9321C232.923 68.9767 234.123 68.7197 235.207 68.1844C236.29 67.6492 237.222 66.8525 237.919 65.8668L234.979 64.1508C234.591 64.6254 234.099 65.0045 233.54 65.2589C232.982 65.5132 232.372 65.6359 231.759 65.6175C230.868 65.7326 229.966 65.525 229.216 65.0324C228.466 64.5398 227.918 63.795 227.672 62.9335H238.551C238.643 62.4497 238.692 61.959 238.698 61.4668C238.757 60.4752 238.61 59.4822 238.268 58.5495C237.926 57.6167 237.394 56.7642 236.708 56.0448C236.021 55.3255 235.194 54.7546 234.277 54.3678C233.359 53.981 232.372 53.7864 231.377 53.7961V53.7961ZM227.613 60.0001C227.767 59.1341 228.236 58.3553 228.931 57.8138C229.626 57.2723 230.497 57.0062 231.377 57.0668C232.227 57.0354 233.06 57.3168 233.716 57.8577C234.372 58.3985 234.805 59.161 234.935 60.0001H227.613ZM251.989 55.8788C251.433 55.1995 250.727 54.6579 249.926 54.2966C249.125 53.9352 248.251 53.7639 247.373 53.7961C246.416 53.8338 245.476 54.0598 244.608 54.4611C243.739 54.8624 242.958 55.431 242.311 56.1344C241.663 56.8377 241.161 57.6618 240.834 58.5593C240.507 59.4569 240.36 60.4101 240.404 61.3641C240.36 62.3182 240.507 63.2714 240.834 64.1689C241.161 65.0664 241.663 65.8906 242.311 66.5939C242.958 67.2972 243.739 67.8659 244.608 68.2672C245.476 68.6685 246.416 68.8945 247.373 68.9321C248.262 68.9718 249.148 68.8028 249.96 68.4385C250.772 68.0742 251.487 67.5249 252.048 66.8348V68.5361H255.753V54.1335H252.048L251.989 55.8788ZM248.005 65.3975C247.473 65.4124 246.943 65.3172 246.45 65.1177C245.956 64.9182 245.509 64.6188 245.138 64.2384C244.766 63.858 244.478 63.4049 244.29 62.9077C244.103 62.4104 244.021 61.8799 244.05 61.3495C244.05 60.2992 244.468 59.292 245.213 58.5493C245.957 57.8067 246.967 57.3895 248.02 57.3895C249.072 57.3895 250.082 57.8067 250.826 58.5493C251.571 59.292 251.989 60.2992 251.989 61.3495C252.018 61.8831 251.935 62.4168 251.746 62.9168C251.557 63.4169 251.267 63.8723 250.892 64.2543C250.517 64.6363 250.067 64.9364 249.57 65.1357C249.073 65.335 248.54 65.4292 248.005 65.4121V65.3975ZM262.633 56.5975V54.1335H258.929V68.4775H262.633V61.6868C262.607 61.1329 262.71 60.5805 262.934 60.0732C263.159 59.5658 263.498 59.1174 263.926 58.7633C264.353 58.4091 264.858 58.159 265.399 58.0326C265.94 57.9062 266.503 57.9069 267.044 58.0348V53.9135C266.111 53.8469 265.18 54.0782 264.388 54.5739C263.595 55.0695 262.98 55.8039 262.633 56.6708V56.5975Z" fill="white"/>
</g>
<defs>
<clipPath id="clip0_19964:1075">
<rect width="174" height="44" fill="white" transform="translate(93 38)"/>
</clipPath>
</defs>
</svg>
