<svg width="92" height="92" viewBox="0 0 92 92" fill="none" xmlns="http://www.w3.org/2000/svg">
<rect width="92" height="92" rx="24" fill="white"/>
<path d="M55.2317 51.6965C57.5839 51.6965 59.9096 52.2849 61.9577 53.3979C62.3296 53.5984 62.6709 53.8372 63.0194 54.0672C66.3807 47.4873 68.1545 40.5283 68.1545 33.7393C68.1545 33.3578 68.1545 32.9639 68.1423 32.5701C68.1177 32.0163 67.7238 31.5362 67.1699 31.4132C59.7361 29.7886 53.0038 25.7639 47.7115 19.7824L46.9238 18.8839C46.6899 18.6132 46.3577 18.4655 46.0007 18.4655C45.6192 18.4163 45.3238 18.6009 45.0899 18.8593L43.8838 20.1886C38.8623 25.7147 32.5361 29.5301 25.5946 31.2286L24.7946 31.4254C24.253 31.5486 23.8715 32.0286 23.8592 32.5824C23.4161 49.887 33.6315 62.3301 38.0377 66.8839C39.2306 68.1087 40.5606 69.3261 41.8253 70.3324C41.3509 68.9016 41.0779 67.3961 41.0779 65.8504C41.0779 58.0457 47.427 51.6965 55.2317 51.6965Z" fill="url(#paint0_linear_19787)"/>
<path d="M60.7822 55.5609C59.0837 54.6379 57.1637 54.1578 55.2314 54.1578C48.7822 54.1578 43.5391 59.4009 43.5391 65.8501C43.5391 68.0286 44.1299 70.1578 45.2622 71.9794C47.416 75.4625 51.133 77.5425 55.2314 77.5425C61.6683 77.5425 66.9237 72.2994 66.9237 65.8501C66.9237 61.5425 64.5729 57.604 60.7822 55.5609ZM61.2196 64.2934L52.0747 71.4099L48.9527 66.5265C48.5862 65.9538 48.7538 65.193 49.3265 64.827C49.8999 64.4604 50.6613 64.6293 51.0261 65.2008L52.6937 67.809L59.7076 62.351C60.243 61.9334 61.0171 62.0289 61.4347 62.5662C61.8524 63.1028 61.7556 63.8763 61.2196 64.2934Z" fill="url(#paint1_linear_19787)"/>
<defs>
<linearGradient id="paint0_linear_19787" x1="45.9999" y1="18.4575" x2="45.9999" y2="70.3324" gradientUnits="userSpaceOnUse">
<stop stop-color="#EF8080"/>
<stop offset="1" stop-color="#F0145A"/>
</linearGradient>
<linearGradient id="paint1_linear_19787" x1="55.2314" y1="54.1578" x2="55.2314" y2="77.5425" gradientUnits="userSpaceOnUse">
<stop stop-color="#EF8080"/>
<stop offset="1" stop-color="#F0145A"/>
</linearGradient>
</defs>
</svg>
