<svg width="107" height="42" viewBox="0 0 107 42" fill="none" xmlns="http://www.w3.org/2000/svg">
<path d="M56.1758 20.6758L56.5273 20.5C56.791 20.3945 57.0898 20.2012 57.4414 19.9199C57.793 19.6387 58.127 19.3047 58.4785 18.9004C58.8301 18.5137 59.1289 17.9863 59.375 17.3535C59.6211 16.7207 59.7617 16.0176 59.7617 15.2793C59.7617 13.293 58.9883 11.623 57.4414 10.2871C55.8945 8.95117 53.8379 8.26562 51.3066 8.26562C50.1992 8.26562 49.1445 8.40625 48.1426 8.6875C47.123 8.96875 46.3145 9.26758 45.7168 9.58398C45.1016 9.90039 44.5215 10.2871 43.9941 10.7266C43.4668 11.1836 43.1328 11.4824 42.9922 11.6582C42.8516 11.834 42.7461 11.957 42.6758 12.0449L45.9102 15.2793L46.4551 14.6992C46.8066 14.3301 47.3691 13.9434 48.1777 13.5391C48.9863 13.1523 49.8477 12.9414 50.7617 12.9414C51.8164 12.9414 52.6602 13.2227 53.2754 13.75C53.873 14.2949 54.1895 14.9805 54.1895 15.8242C54.1895 16.7383 53.873 17.4766 53.2578 18.0391C52.6426 18.6016 51.8164 18.8828 50.7617 18.8828H48.248V23.3828H50.9551C52.2383 23.3828 53.2402 23.6992 53.9785 24.2969C54.7168 24.9121 55.0859 25.6855 55.0859 26.6172C55.0859 27.5664 54.6992 28.3398 53.9609 28.9375C53.2227 29.5527 52.1504 29.8516 50.7617 29.8516C50.0586 29.8516 49.3906 29.7637 48.7402 29.5703C48.0898 29.3945 47.5625 29.1836 47.1406 28.9375C46.7188 28.6914 46.332 28.4277 45.9629 28.1113C45.5762 27.7949 45.3477 27.584 45.2422 27.4609C45.1367 27.3379 45.0488 27.2324 45.0137 27.1621L41.7617 30.5723L42.1309 30.9766C42.3594 31.2754 42.7461 31.6094 43.2734 31.9961C43.8008 32.3828 44.4336 32.752 45.1367 33.1387C45.8398 33.5254 46.7363 33.8594 47.8438 34.1406C48.9512 34.4219 50.1113 34.5449 51.3066 34.5449C54.1191 34.5449 56.3691 33.8066 58.0918 32.3125C59.8145 30.8359 60.6758 29.0605 60.6758 26.9863C60.6758 26.0723 60.5 25.2461 60.1836 24.4727C59.8496 23.6992 59.4805 23.1016 59.0938 22.6621C58.707 22.2402 58.25 21.8535 57.7402 21.5195C57.2129 21.1855 56.8613 20.9746 56.6504 20.8867C56.4395 20.7988 56.2812 20.7285 56.1758 20.6758ZM69.5 21.3965C69.5 18.7598 70.0273 16.7207 71.0996 15.2793C72.1543 13.8379 73.4199 13.1172 74.8965 13.1172C76.3555 13.1172 77.6211 13.8379 78.6934 15.2793C79.748 16.7207 80.293 18.7598 80.293 21.3965C80.293 24.0332 79.748 26.0723 78.6934 27.5137C77.6211 28.9551 76.3555 29.6758 74.8965 29.6758C73.4199 29.6758 72.1543 28.9551 71.0996 27.5137C70.0273 26.0723 69.5 24.0332 69.5 21.3965ZM85.6895 21.3965C85.6895 17.459 84.6348 14.2949 82.543 11.8867C80.4336 9.47852 77.8848 8.26562 74.8965 8.26562C71.8906 8.26562 69.3418 9.47852 67.25 11.8867C65.1406 14.2949 64.1035 17.459 64.1035 21.3965C64.1035 25.334 65.1406 28.5156 67.25 30.9238C69.3418 33.3496 71.8906 34.5449 74.8965 34.5449C77.8848 34.5449 80.4336 33.3496 82.543 30.9238C84.6348 28.5156 85.6895 25.334 85.6895 21.3965ZM99.1895 31.8379V25.7207H105.324V21.2207H99.1895V15.1035H95.0586V21.2207H88.9414V25.7207H95.0586V31.8379H99.1895Z" fill="url(#paint0_linear_106_3315)"/>
<path d="M17.2321 23.332V22.774C17.2321 22.0935 16.6806 21.542 16.0006 21.542C15.3201 21.542 14.7686 22.0935 14.7686 22.774V23.332C14.7686 24.0125 15.3201 24.564 16.0006 24.564C16.6801 24.564 17.2321 24.0125 17.2321 23.332Z" fill="#F0145A"/>
<path d="M18.0769 24.0135C17.8039 24.907 16.9814 25.563 16.0004 25.563C15.0189 25.563 14.1964 24.907 13.9234 24.0135H5.43886C4.90336 24.0135 4.39736 23.889 3.94336 23.673V29.3065C3.94336 30.4065 4.84336 31.3065 5.94336 31.3065H26.0564C27.1564 31.3065 28.0564 30.4065 28.0564 29.3065V23.6735C27.6019 23.8895 27.0964 24.014 26.5609 24.014H18.0769V24.0135Z" fill="#F0145A"/>
<path d="M26.4775 13.8975H21.677C21.387 12.0845 19.8165 10.6935 17.923 10.6935H14.0765C12.183 10.6935 10.613 12.0845 10.3225 13.8975H5.52247C4.37647 13.8975 3.43896 14.7975 3.43896 15.8975V20.514C3.43896 21.6185 4.33447 22.514 5.43897 22.514H13.829C13.8575 21.9385 14.1045 21.4215 14.495 21.0475C14.507 21.036 14.521 21.027 14.5335 21.016C14.62 20.9365 14.71 20.8615 14.8085 20.7965C14.8435 20.773 14.8835 20.757 14.92 20.736C15.001 20.6895 15.081 20.641 15.1685 20.605C15.237 20.5765 15.311 20.56 15.383 20.5385C15.445 20.52 15.504 20.4955 15.5685 20.4825C15.708 20.454 15.8525 20.439 16 20.439C16.148 20.439 16.292 20.4545 16.4315 20.4825C16.4955 20.4955 16.5545 20.52 16.6165 20.5385C16.6885 20.56 16.7625 20.5765 16.831 20.6055C16.918 20.6415 16.9975 20.6895 17.0785 20.736C17.1155 20.7575 17.1555 20.7735 17.191 20.797C17.2895 20.8615 17.379 20.9365 17.4655 21.016C17.478 21.0275 17.4925 21.0365 17.5045 21.0485C17.8955 21.4225 18.142 21.9395 18.1705 22.515H26.5605C27.665 22.515 28.5605 21.6195 28.5605 20.515V15.8985C28.561 14.7975 27.6235 13.8975 26.4775 13.8975ZM12.248 13.8975C12.503 13.127 13.2215 12.5655 14.0765 12.5655H17.923C18.778 12.5655 19.4965 13.127 19.7515 13.8975H12.248Z" fill="#F0145A"/>
<defs>
<linearGradient id="paint0_linear_106_3315" x1="41.5156" y1="11.76" x2="107.078" y2="11.9926" gradientUnits="userSpaceOnUse">
<stop stop-color="#F0145A"/>
<stop offset="1" stop-color="#EF8080"/>
</linearGradient>
</defs>
</svg>
