<svg width="360" height="120" viewBox="0 0 360 120" fill="none" xmlns="http://www.w3.org/2000/svg">
<rect width="360" height="120" fill="#F48B30"/>

<path d="M155.094 64.8804C153.33 64.8804 152.616 63.641 152.616 61.4913V55.5459H157.731V53.2801H152.616V49.4843H150.138V61.7237C150.138 65.2096 151.387 67.1463 154.519 67.1463C156.066 67.1463 157.334 66.604 158.088 66.0037L157.315 64.1251C156.799 64.4737 156.066 64.8804 155.094 64.8804ZM165.78 52.9702C164.035 52.9702 162.37 53.4544 161.121 54.2096L161.775 56.1463C162.885 55.5653 163.916 55.1392 165.621 55.1392C168.377 55.1392 168.793 56.9015 168.793 59.4385C167.862 58.7801 166.414 58.567 165.324 58.567C162.311 58.567 160.051 60.1163 160.051 62.9051C160.051 65.5389 161.795 67.1075 164.333 67.1075C166.632 67.1075 167.961 66.1779 168.793 65.1322V66.8945H171.133V58.5283C171.133 55.0037 169.745 52.9702 165.78 52.9702ZM168.774 63.1762C168.06 63.9896 167.009 64.9385 165.185 64.9385C163.579 64.9385 162.667 64.0864 162.667 62.7889C162.667 61.2202 164.154 60.5424 165.641 60.5424C166.85 60.5424 167.901 60.8522 168.774 61.4526V63.1762ZM182.294 52.9702C180.371 52.9702 178.508 53.7836 177.556 54.8875V53.2801H175.078V72.9755H177.556V66.2748C178.547 66.9139 180.014 67.2044 181.501 67.2044C185.882 67.2044 188.757 64.0283 188.757 59.8646C188.737 55.8558 186.259 52.9702 182.294 52.9702ZM181.263 64.9385C179.935 64.9385 178.785 64.6868 177.536 63.8734V57.1146C178.408 56.0494 179.915 55.236 181.561 55.236C184.435 55.236 186.081 57.2114 186.081 59.9614C186.101 62.847 184.237 64.9385 181.263 64.9385ZM204.657 52.9896L200.573 53.9579C199.621 53.3188 198.412 52.9508 197.044 52.9508C193.535 52.9508 191.334 55.2167 191.334 57.9473C191.334 59.942 192.484 61.6463 194.467 62.4209C194.209 62.7308 194.09 63.1568 194.09 63.5635C194.09 63.9508 194.189 64.3769 194.427 64.6868C191.751 65.229 189.966 66.6234 189.966 68.8311C189.966 71.7941 193 73.1691 197.064 73.1691C201.128 73.1691 204.161 71.736 204.161 68.8311C204.161 65.8681 201.128 64.435 197.064 64.435C196.786 64.435 196.509 64.4737 196.231 64.4737C196.053 64.222 195.954 63.8927 195.954 63.5635C195.954 63.3118 195.993 63.0406 196.112 62.8082C196.429 62.847 196.727 62.847 197.044 62.847C200.494 62.847 202.754 60.6586 202.754 57.9473C202.754 57.0952 202.535 56.2818 202.099 55.5846L204.736 54.9456L204.657 52.9896ZM197.064 66.4491C200.038 66.4491 201.842 67.3593 201.842 68.8699C201.842 70.4191 199.958 71.2325 197.064 71.2325C194.189 71.2325 192.286 70.3804 192.286 68.8699C192.286 67.3593 194.09 66.4491 197.064 66.4491ZM197.044 60.9103C195.002 60.9103 193.674 59.6709 193.674 57.9667C193.674 56.2625 195.002 54.9456 197.044 54.9456C199.126 54.9456 200.414 56.2818 200.414 57.9667C200.414 59.729 198.987 60.9103 197.044 60.9103ZM213.082 52.9702C208.503 52.9702 205.886 56.1269 205.886 60.097C205.886 64.3963 208.84 67.2237 213.36 67.2237C215.224 67.2237 217.246 66.6427 218.594 65.442L217.821 63.5248C216.928 64.3382 215.342 64.9579 213.538 64.9579C210.803 64.9579 208.879 63.4473 208.661 60.8716H219.387C219.486 60.4456 219.545 59.9033 219.545 59.2449C219.545 55.4491 216.671 52.9702 213.082 52.9702ZM208.523 58.8769C208.8 56.7853 210.406 55.236 212.963 55.236C215.382 55.236 216.869 56.6304 216.988 58.8769H208.523ZM225.215 54.8681V53.2607H222.737V66.8945H225.215V57.2308C225.751 56.2237 226.524 55.2941 228.13 55.2941C228.962 55.2941 229.339 55.4103 230.013 55.817L230.885 53.5512C230.429 53.222 229.854 53.0283 228.724 53.0283C226.94 53.0283 225.929 53.8417 225.215 54.8681ZM233.522 66.8945H236V53.2607H233.522V66.8945ZM234.83 46.6956C233.958 46.6956 233.225 47.2765 233.225 48.148C233.225 49.1551 233.978 49.7167 234.83 49.7167C235.604 49.7167 236.357 49.1357 236.357 48.148C236.337 47.2765 235.604 46.6956 234.83 46.6956ZM247.459 53.0283C245.635 53.0283 243.871 53.8998 242.899 54.9456V53.2801H240.421V66.9139H242.899V57.0758C243.791 56.0688 245.258 55.3135 246.844 55.3135C249.441 55.3135 250.79 56.6498 250.79 59.4966V66.9139H253.268V59.0318C253.268 54.7519 251.087 53.0283 247.459 53.0283ZM270 59.2061C270 55.4491 267.125 52.9702 263.517 52.9702C258.938 52.9702 256.321 56.1269 256.321 60.097C256.321 64.3963 259.275 67.2237 263.795 67.2237C265.658 67.2237 267.68 66.6427 269.029 65.442L268.255 63.5248C267.363 64.3382 265.777 64.9579 263.973 64.9579C261.237 64.9579 259.314 63.4473 259.096 60.8716H269.822C269.941 60.4262 270 59.8839 270 59.2061ZM258.957 58.8769C259.235 56.7853 260.841 55.236 263.398 55.236C265.817 55.236 267.304 56.6304 267.423 58.8769H258.957Z" fill="white"/>
<path d="M135.943 58.8187C135.943 58.7799 135.943 58.7218 135.923 58.6831C135.765 56.0687 135.15 53.5898 134.139 51.2852C131.899 63.7764 120.718 73.2465 107.276 73.2465C102.023 73.2465 97.1061 71.794 92.9429 69.2764C93.1609 69.7412 93.3988 70.206 93.6566 70.6514C93.6566 70.6514 93.6566 70.6514 93.6566 70.6708C93.9143 71.0968 94.172 71.5229 94.4496 71.9489C94.4694 71.9683 94.4694 71.9877 94.4892 72.007C95.0443 72.8398 95.6589 73.6144 96.3131 74.3697C96.3528 74.4085 96.3726 74.4472 96.4122 74.4859C97.0665 75.2218 97.7802 75.8996 98.5137 76.5387C98.5732 76.5775 98.6128 76.6162 98.6723 76.6743C99.4058 77.294 100.199 77.875 101.012 78.3979C101.071 78.4366 101.15 78.4754 101.23 78.5335C101.606 78.7658 101.983 78.9982 102.38 79.2113C102.419 79.2306 102.459 79.25 102.499 79.2887C102.915 79.5211 103.351 79.7342 103.787 79.9278C103.866 79.9665 103.946 80.0053 104.025 80.044C104.402 80.2183 104.778 80.3732 105.175 80.5088C105.254 80.5475 105.353 80.5669 105.433 80.6056C105.889 80.7606 106.345 80.9155 106.801 81.0511C106.88 81.0704 106.959 81.0898 107.058 81.1285C107.455 81.2447 107.851 81.3415 108.248 81.4384C108.367 81.4577 108.466 81.4965 108.585 81.5158C109.061 81.6127 109.536 81.7095 110.012 81.7676C110.072 81.7676 110.131 81.787 110.21 81.787C110.647 81.8451 111.063 81.8838 111.499 81.9225C111.638 81.9419 111.757 81.9419 111.896 81.9419C112.391 81.9806 112.887 82 113.402 82C125.872 82 135.983 72.162 135.983 60.0194C135.963 59.5739 135.963 59.206 135.943 58.8187ZM130.412 45.5335C129.044 44.0035 127.438 42.6479 125.674 41.5246C121.887 46.0563 116.098 48.9613 109.616 48.9613C104.878 48.9613 100.516 47.412 97.0268 44.7975C93.8152 48.1285 91.6344 52.3891 91 57.1532C95.2227 59.8063 100.238 61.3363 105.631 61.3363C116.713 61.3363 126.249 54.8486 130.412 45.5335ZM121.689 39.5299C119.112 38.5423 116.317 38 113.382 38C110.052 38 106.88 38.7165 104.045 39.9754C106.622 40.7694 109.358 41.2148 112.213 41.2148C115.543 41.1954 118.735 40.5951 121.689 39.5299Z" fill="white"/>
</svg>
